<?xml version="1.0" encoding="UTF-8"?>
<svg xmlns="http://www.w3.org/2000/svg" viewBox="0 0 4270.39 2970.71">
  <defs>
    <style>
      .cls-1 {
        fill: #1d1d1b;
      }

      .cls-2, .cls-3 {
        fill: none;
        stroke: #1d1d1b;
        stroke-miterlimit: 10;
        stroke-width: 12px;
      }

      .cls-3 {
        stroke-linecap: round;
      }
    </style>
  </defs>
  <g id="_16" data-name="16">
    <line class="cls-3" x1="527.33" y1="92.83" x2="420.13" y2="278.5"/>
    <line class="cls-3" x1="634.52" y1="278.5" x2="527.33" y2="92.83"/>
    <line class="cls-3" x1="98.56" y1="835.51" x2="312.95" y2="835.5"/>
    <line class="cls-3" x1="205.76" y1="649.84" x2="98.56" y2="835.51"/>
    <line class="cls-3" x1="956.09" y1="835.51" x2="741.71" y2="835.5"/>
    <line class="cls-3" x1="848.9" y1="649.84" x2="956.09" y2="835.51"/>
    <line class="cls-3" x1="1063.29" y1="649.84" x2="956.09" y2="835.51"/>
    <line class="cls-3" x1="527.33" y1="92.83" x2="741.72" y2="92.84"/>
    <line class="cls-3" x1="1384.86" y1="92.83" x2="1170.47" y2="92.84"/>
    <line class="cls-3" x1="98.56" y1="835.51" x2="-115.83" y2="835.5"/>
    <line class="cls-3" x1="-8.64" y1="649.84" x2="98.56" y2="835.51"/>
    <line class="cls-3" x1="527.33" y1="92.83" x2="312.94" y2="92.84"/>
    <line class="cls-3" x1="1277.66" y1="278.5" x2="1384.86" y2="92.83"/>
    <line class="cls-3" x1="1492.05" y1="278.5" x2="1384.86" y2="92.83"/>
    <line class="cls-3" x1="956.09" y1="835.51" x2="1170.48" y2="835.5"/>
    <line class="cls-3" x1="1813.63" y1="835.51" x2="1599.24" y2="835.5"/>
    <line class="cls-3" x1="1706.43" y1="649.84" x2="1813.63" y2="835.51"/>
    <line class="cls-3" x1="1920.82" y1="649.84" x2="1813.63" y2="835.51"/>
    <line class="cls-3" x1="1384.86" y1="92.83" x2="1599.25" y2="92.84"/>
    <line class="cls-3" x1="2242.4" y1="92.83" x2="2028.01" y2="92.84"/>
    <line class="cls-3" x1="2135.2" y1="278.5" x2="2242.4" y2="92.83"/>
    <line class="cls-3" x1="2349.59" y1="278.5" x2="2242.4" y2="92.83"/>
    <line class="cls-3" x1="1813.63" y1="835.51" x2="2028.02" y2="835.5"/>
    <line class="cls-3" x1="2671.17" y1="835.51" x2="2456.78" y2="835.5"/>
    <line class="cls-3" x1="2563.97" y1="649.84" x2="2671.17" y2="835.51"/>
    <line class="cls-3" x1="2778.36" y1="649.84" x2="2671.17" y2="835.51"/>
    <line class="cls-3" x1="2242.4" y1="92.83" x2="2456.79" y2="92.84"/>
    <line class="cls-3" x1="3099.94" y1="92.83" x2="2885.55" y2="92.84"/>
    <line class="cls-3" x1="2992.74" y1="278.5" x2="3099.94" y2="92.83"/>
    <line class="cls-3" x1="3207.13" y1="278.5" x2="3099.94" y2="92.83"/>
    <line class="cls-3" x1="2671.17" y1="835.51" x2="2885.56" y2="835.5"/>
    <line class="cls-3" x1="3528.71" y1="835.51" x2="3314.32" y2="835.5"/>
    <line class="cls-3" x1="3421.51" y1="649.84" x2="3528.71" y2="835.51"/>
    <line class="cls-3" x1="3635.9" y1="649.84" x2="3528.71" y2="835.51"/>
    <line class="cls-3" x1="3099.94" y1="92.83" x2="3314.33" y2="92.84"/>
    <line class="cls-3" x1="3957.47" y1="92.83" x2="3743.08" y2="92.84"/>
    <line class="cls-3" x1="3850.28" y1="278.5" x2="3957.47" y2="92.83"/>
    <line class="cls-3" x1="4064.67" y1="278.5" x2="3957.47" y2="92.83"/>
    <line class="cls-3" x1="3528.71" y1="835.51" x2="3743.1" y2="835.5"/>
    <line class="cls-3" x1="4386.24" y1="835.51" x2="4171.85" y2="835.5"/>
    <line class="cls-3" x1="3957.47" y1="92.83" x2="4171.86" y2="92.84"/>
    <line class="cls-3" x1="3957.47" y1="1578.19" x2="4171.86" y2="1578.19"/>
    <line class="cls-3" x1="98.56" y1="835.51" x2="-8.63" y2="1021.18"/>
    <line class="cls-3" x1="205.75" y1="1021.18" x2="98.56" y2="835.51"/>
    <line class="cls-3" x1="527.33" y1="1578.19" x2="312.94" y2="1578.18"/>
    <line class="cls-3" x1="420.13" y1="1392.52" x2="527.33" y2="1578.19"/>
    <line class="cls-3" x1="634.52" y1="1392.52" x2="527.33" y2="1578.19"/>
    <line class="cls-3" x1="848.9" y1="1021.18" x2="956.09" y2="835.51"/>
    <line class="cls-3" x1="1063.29" y1="1021.18" x2="956.09" y2="835.51"/>
    <line class="cls-3" x1="527.33" y1="1578.19" x2="741.72" y2="1578.18"/>
    <line class="cls-3" x1="1384.86" y1="1578.19" x2="1170.47" y2="1578.18"/>
    <line class="cls-3" x1="1277.66" y1="1392.52" x2="1384.86" y2="1578.19"/>
    <line class="cls-3" x1="1492.05" y1="1392.52" x2="1384.86" y2="1578.19"/>
    <line class="cls-3" x1="1706.43" y1="1021.18" x2="1813.63" y2="835.51"/>
    <line class="cls-3" x1="1920.82" y1="1021.18" x2="1813.63" y2="835.51"/>
    <line class="cls-3" x1="1384.86" y1="1578.19" x2="1599.25" y2="1578.18"/>
    <line class="cls-3" x1="2242.4" y1="1578.19" x2="2028.01" y2="1578.18"/>
    <line class="cls-3" x1="2135.2" y1="1392.52" x2="2242.4" y2="1578.19"/>
    <line class="cls-3" x1="2349.59" y1="1392.52" x2="2242.4" y2="1578.19"/>
    <line class="cls-3" x1="2563.97" y1="1021.18" x2="2671.17" y2="835.51"/>
    <line class="cls-3" x1="2778.36" y1="1021.18" x2="2671.17" y2="835.51"/>
    <line class="cls-3" x1="2242.4" y1="1578.19" x2="2456.79" y2="1578.18"/>
    <line class="cls-3" x1="3099.94" y1="1578.19" x2="2885.55" y2="1578.18"/>
    <line class="cls-3" x1="2992.74" y1="1392.52" x2="3099.94" y2="1578.19"/>
    <line class="cls-3" x1="3207.13" y1="1392.52" x2="3099.94" y2="1578.19"/>
    <line class="cls-3" x1="3421.51" y1="1021.18" x2="3528.71" y2="835.51"/>
    <line class="cls-3" x1="3635.9" y1="1021.18" x2="3528.71" y2="835.51"/>
    <line class="cls-3" x1="3099.94" y1="1578.19" x2="3314.33" y2="1578.18"/>
    <line class="cls-3" x1="3957.47" y1="1578.19" x2="3743.08" y2="1578.18"/>
    <line class="cls-3" x1="3850.28" y1="1392.52" x2="3957.47" y2="1578.19"/>
    <line class="cls-3" x1="4064.67" y1="1392.52" x2="3957.47" y2="1578.19"/>
    <line class="cls-3" x1="527.33" y1="1578.19" x2="420.13" y2="1763.86"/>
    <line class="cls-3" x1="634.52" y1="1763.86" x2="527.33" y2="1578.19"/>
    <line class="cls-3" x1="98.56" y1="2320.86" x2="312.95" y2="2320.86"/>
    <line class="cls-3" x1="205.76" y1="2135.2" x2="98.56" y2="2320.86"/>
    <line class="cls-3" x1="956.09" y1="2320.86" x2="741.71" y2="2320.86"/>
    <line class="cls-3" x1="848.9" y1="2135.2" x2="956.09" y2="2320.86"/>
    <line class="cls-3" x1="1063.29" y1="2135.2" x2="956.09" y2="2320.86"/>
    <line class="cls-3" x1="98.56" y1="2320.86" x2="-115.83" y2="2320.86"/>
    <line class="cls-3" x1="-8.64" y1="2135.2" x2="98.56" y2="2320.86"/>
    <line class="cls-3" x1="1277.66" y1="1763.85" x2="1384.86" y2="1578.19"/>
    <line class="cls-3" x1="1492.05" y1="1763.86" x2="1384.86" y2="1578.19"/>
    <line class="cls-3" x1="956.09" y1="2320.86" x2="1170.48" y2="2320.86"/>
    <line class="cls-3" x1="1813.63" y1="2320.86" x2="1599.24" y2="2320.86"/>
    <line class="cls-3" x1="1706.43" y1="2135.2" x2="1813.63" y2="2320.86"/>
    <line class="cls-3" x1="1920.82" y1="2135.2" x2="1813.63" y2="2320.86"/>
    <line class="cls-3" x1="2135.2" y1="1763.85" x2="2242.4" y2="1578.19"/>
    <line class="cls-3" x1="2349.59" y1="1763.86" x2="2242.4" y2="1578.19"/>
    <line class="cls-3" x1="1813.63" y1="2320.86" x2="2028.02" y2="2320.86"/>
    <line class="cls-3" x1="2671.17" y1="2320.86" x2="2456.78" y2="2320.86"/>
    <line class="cls-3" x1="2563.97" y1="2135.2" x2="2671.17" y2="2320.86"/>
    <line class="cls-3" x1="2778.36" y1="2135.2" x2="2671.17" y2="2320.86"/>
    <line class="cls-3" x1="2992.74" y1="1763.85" x2="3099.94" y2="1578.19"/>
    <line class="cls-3" x1="3207.13" y1="1763.86" x2="3099.94" y2="1578.19"/>
    <line class="cls-3" x1="2671.17" y1="2320.86" x2="2885.56" y2="2320.86"/>
    <line class="cls-3" x1="3528.71" y1="2320.86" x2="3314.32" y2="2320.86"/>
    <line class="cls-3" x1="3421.51" y1="2135.2" x2="3528.71" y2="2320.86"/>
    <line class="cls-3" x1="3635.9" y1="2135.2" x2="3528.71" y2="2320.86"/>
    <line class="cls-3" x1="3850.28" y1="1763.85" x2="3957.47" y2="1578.19"/>
    <line class="cls-3" x1="4064.67" y1="1763.86" x2="3957.47" y2="1578.19"/>
    <line class="cls-3" x1="3528.71" y1="2320.86" x2="3743.1" y2="2320.86"/>
    <line class="cls-3" x1="4386.24" y1="2320.86" x2="4171.85" y2="2320.86"/>
    <line class="cls-3" x1="98.56" y1="2320.87" x2="-8.63" y2="2506.54"/>
    <line class="cls-3" x1="205.75" y1="2506.54" x2="98.56" y2="2320.87"/>
    <line class="cls-3" x1="420.13" y1="2877.88" x2="527.33" y2="3063.54"/>
    <line class="cls-3" x1="634.52" y1="2877.87" x2="527.33" y2="3063.54"/>
    <line class="cls-3" x1="848.9" y1="2506.53" x2="956.09" y2="2320.87"/>
    <line class="cls-3" x1="1063.29" y1="2506.54" x2="956.09" y2="2320.87"/>
    <line class="cls-3" x1="1277.66" y1="2877.88" x2="1384.86" y2="3063.54"/>
    <line class="cls-3" x1="1492.05" y1="2877.87" x2="1384.86" y2="3063.54"/>
    <line class="cls-3" x1="1706.43" y1="2506.53" x2="1813.63" y2="2320.87"/>
    <line class="cls-3" x1="1920.82" y1="2506.54" x2="1813.63" y2="2320.87"/>
    <line class="cls-3" x1="2135.2" y1="2877.88" x2="2242.4" y2="3063.54"/>
    <line class="cls-3" x1="2349.59" y1="2877.87" x2="2242.4" y2="3063.54"/>
    <line class="cls-3" x1="2563.97" y1="2506.53" x2="2671.17" y2="2320.87"/>
    <line class="cls-3" x1="2778.36" y1="2506.54" x2="2671.17" y2="2320.87"/>
    <line class="cls-3" x1="2992.74" y1="2877.88" x2="3099.94" y2="3063.54"/>
    <line class="cls-3" x1="3207.13" y1="2877.87" x2="3099.94" y2="3063.54"/>
    <line class="cls-3" x1="3421.51" y1="2506.53" x2="3528.71" y2="2320.87"/>
    <line class="cls-3" x1="3635.9" y1="2506.54" x2="3528.71" y2="2320.87"/>
    <line class="cls-3" x1="3850.28" y1="2877.88" x2="3957.47" y2="3063.54"/>
    <line class="cls-3" x1="4064.67" y1="2877.87" x2="3957.47" y2="3063.54"/>
    <line class="cls-3" x1="420.13" y1="-92.83" x2="527.33" y2="92.83"/>
    <line class="cls-3" x1="634.52" y1="-92.83" x2="527.33" y2="92.84"/>
    <line class="cls-3" x1="1277.66" y1="-92.83" x2="1384.86" y2="92.83"/>
    <line class="cls-3" x1="1492.05" y1="-92.83" x2="1384.86" y2="92.84"/>
    <line class="cls-3" x1="2135.2" y1="-92.83" x2="2242.4" y2="92.83"/>
    <line class="cls-3" x1="2349.59" y1="-92.83" x2="2242.4" y2="92.84"/>
    <line class="cls-3" x1="2992.74" y1="-92.83" x2="3099.94" y2="92.83"/>
    <line class="cls-3" x1="3207.13" y1="-92.83" x2="3099.94" y2="92.84"/>
    <line class="cls-3" x1="3850.28" y1="-92.83" x2="3957.47" y2="92.83"/>
    <line class="cls-3" x1="4064.67" y1="-92.83" x2="3957.47" y2="92.84"/>
  </g>
  <g id="_4._Dreieck" data-name="4. Dreieck">
    <circle class="cls-1" cx="527.33" cy="92.83" r="21.26"/>
    <circle class="cls-1" cx="527.33" cy="464.17" r="21.26"/>
    <circle class="cls-1" cx="527.33" cy="835.51" r="21.26" transform="translate(-407.6818 1154.7438) rotate(-76.5933)"/>
    <circle class="cls-1" cx="312.94" cy="464.17" r="21.26"/>
    <circle class="cls-1" cx="312.94" cy="835.51" r="21.26" transform="translate(-572.36 946.2) rotate(-76.59)"/>
    <circle class="cls-1" cx="205.75" cy="649.84" r="21.26" transform="translate(-468.25 751.55) rotate(-81.01)"/>
    <circle class="cls-1" cx="848.9" cy="649.84" r="21.26" transform="translate(19.9435 1324.9347) rotate(-76.5933)"/>
    <circle class="cls-1" cx="98.56" cy="835.51" r="21.26" transform="translate(-741.89 797.68) rotate(-80.7)"/>
    <circle class="cls-1" cx="956.1" cy="835.51" r="21.26" transform="translate(-13.1728 1655.7023) rotate(-81.3873)"/>
    <circle class="cls-1" cx="741.71" cy="464.17" r="21.26"/>
    <circle class="cls-1" cx="741.71" cy="835.51" r="21.26" transform="translate(-373.55 769.18) rotate(-45)"/>
    <circle class="cls-1" cx="420.13" cy="278.5" r="21.26" transform="translate(-52.22 454.45) rotate(-53.97)"/>
    <circle class="cls-1" cx="420.13" cy="649.84" r="21.26"/>
    <circle class="cls-1" cx="634.52" cy="278.5" r="21.26" transform="translate(199.15 817.6) rotate(-74.77)"/>
    <circle class="cls-1" cx="634.52" cy="649.84" r="21.26"/>
  </g>
  <g id="Rahmen">
    <rect class="cls-2" width="4270.39" height="2970.71"/>
  </g>
</svg>