<?xml version="1.0" encoding="UTF-8"?>
<svg xmlns="http://www.w3.org/2000/svg" viewBox="0 0 4270.39 2970.71">
  <defs>
    <style>
      .cls-1 {
        fill: #1d1d1b;
      }

      .cls-2, .cls-3 {
        fill: none;
        stroke: #1d1d1b;
        stroke-miterlimit: 10;
        stroke-width: 12px;
      }

      .cls-3 {
        stroke-linecap: round;
      }
    </style>
  </defs>
  <g id="_28" data-name="28">
    <line class="cls-3" x1="527.33" y1="92.83" x2="312.94" y2="835.51"/>
    <line class="cls-3" x1="527.33" y1="92.83" x2="741.71" y2="835.51"/>
    <line class="cls-3" x1="98.56" y1="835.51" x2="848.93" y2="649.83"/>
    <line class="cls-3" x1="98.56" y1="835.51" x2="634.54" y2="278.51"/>
    <line class="cls-3" x1="956.09" y1="835.51" x2="205.73" y2="649.83"/>
    <line class="cls-3" x1="956.09" y1="835.51" x2="420.11" y2="278.51"/>
    <line class="cls-3" x1="98.56" y1="835.51" x2="-651.81" y2="649.83"/>
    <line class="cls-3" x1="98.56" y1="835.51" x2="-437.43" y2="278.51"/>
    <line class="cls-3" x1="956.1" y1="835.51" x2="741.71" y2="92.83"/>
    <line class="cls-3" x1="956.09" y1="835.51" x2="1170.48" y2="92.83"/>
    <line class="cls-3" x1="527.33" y1="92.84" x2="1277.7" y2="278.51"/>
    <line class="cls-3" x1="527.33" y1="92.83" x2="1063.31" y2="649.84"/>
    <line class="cls-3" x1="1384.86" y1="92.84" x2="634.49" y2="278.51"/>
    <line class="cls-3" x1="1384.86" y1="92.83" x2="848.88" y2="649.84"/>
    <line class="cls-3" x1="1384.86" y1="92.83" x2="1170.48" y2="835.51"/>
    <line class="cls-3" x1="1384.86" y1="92.83" x2="1599.25" y2="835.51"/>
    <line class="cls-3" x1="956.09" y1="835.51" x2="1706.46" y2="649.83"/>
    <line class="cls-3" x1="956.1" y1="835.51" x2="1492.08" y2="278.51"/>
    <line class="cls-3" x1="1813.63" y1="835.51" x2="1063.26" y2="649.83"/>
    <line class="cls-3" x1="1813.63" y1="835.51" x2="1277.65" y2="278.51"/>
    <line class="cls-3" x1="1813.63" y1="835.51" x2="1599.25" y2="92.83"/>
    <line class="cls-3" x1="1813.63" y1="835.51" x2="2028.02" y2="92.83"/>
    <line class="cls-3" x1="1384.86" y1="92.84" x2="2135.23" y2="278.51"/>
    <line class="cls-3" x1="1384.86" y1="92.83" x2="1920.85" y2="649.84"/>
    <line class="cls-3" x1="2242.4" y1="92.84" x2="1492.03" y2="278.51"/>
    <line class="cls-3" x1="2242.4" y1="92.83" x2="1706.41" y2="649.84"/>
    <line class="cls-3" x1="2242.4" y1="92.83" x2="2028.02" y2="835.51"/>
    <line class="cls-3" x1="2242.4" y1="92.83" x2="2456.78" y2="835.51"/>
    <line class="cls-3" x1="1813.63" y1="835.51" x2="2564" y2="649.83"/>
    <line class="cls-3" x1="1813.63" y1="835.51" x2="2349.62" y2="278.51"/>
    <line class="cls-3" x1="2671.17" y1="835.51" x2="1920.8" y2="649.83"/>
    <line class="cls-3" x1="2671.17" y1="835.51" x2="2135.18" y2="278.51"/>
    <line class="cls-3" x1="2671.17" y1="835.51" x2="2456.79" y2="92.83"/>
    <line class="cls-3" x1="2671.17" y1="835.51" x2="2885.55" y2="92.83"/>
    <line class="cls-3" x1="2242.4" y1="92.84" x2="2992.77" y2="278.51"/>
    <line class="cls-3" x1="2242.4" y1="92.83" x2="2778.39" y2="649.84"/>
    <line class="cls-3" x1="3099.94" y1="92.84" x2="2349.57" y2="278.51"/>
    <line class="cls-3" x1="3099.94" y1="92.83" x2="2563.95" y2="649.84"/>
    <line class="cls-3" x1="3099.94" y1="92.83" x2="2885.55" y2="835.51"/>
    <line class="cls-3" x1="3099.94" y1="92.83" x2="3314.32" y2="835.51"/>
    <line class="cls-3" x1="2671.17" y1="835.51" x2="3421.54" y2="649.83"/>
    <line class="cls-3" x1="2671.17" y1="835.51" x2="3207.15" y2="278.51"/>
    <line class="cls-3" x1="3528.71" y1="835.51" x2="2778.34" y2="649.83"/>
    <line class="cls-3" x1="3528.71" y1="835.51" x2="2992.72" y2="278.51"/>
    <line class="cls-3" x1="3528.71" y1="835.51" x2="3314.32" y2="92.83"/>
    <line class="cls-3" x1="3528.71" y1="835.51" x2="3743.09" y2="92.83"/>
    <line class="cls-3" x1="3099.94" y1="92.84" x2="3850.31" y2="278.51"/>
    <line class="cls-3" x1="3099.94" y1="92.83" x2="3635.92" y2="649.84"/>
    <line class="cls-3" x1="3957.47" y1="92.84" x2="3207.11" y2="278.51"/>
    <line class="cls-3" x1="3957.47" y1="92.83" x2="3421.49" y2="649.84"/>
    <line class="cls-3" x1="3957.47" y1="92.83" x2="3743.09" y2="835.51"/>
    <line class="cls-3" x1="3957.47" y1="92.83" x2="4171.86" y2="835.51"/>
    <line class="cls-3" x1="3528.71" y1="835.51" x2="4279.08" y2="649.83"/>
    <line class="cls-3" x1="3528.71" y1="835.51" x2="4064.69" y2="278.51"/>
    <line class="cls-3" x1="4386.24" y1="835.51" x2="3635.87" y2="649.83"/>
    <line class="cls-3" x1="4386.24" y1="835.51" x2="3850.26" y2="278.51"/>
    <line class="cls-3" x1="4386.24" y1="835.51" x2="4171.86" y2="92.83"/>
    <line class="cls-3" x1="3957.47" y1="92.84" x2="4707.84" y2="278.51"/>
    <line class="cls-3" x1="3957.47" y1="92.83" x2="4493.46" y2="649.84"/>
    <line class="cls-3" x1="4815.01" y1="92.84" x2="4064.64" y2="278.51"/>
    <line class="cls-3" x1="98.56" y1="835.51" x2="-115.83" y2="92.83"/>
    <line class="cls-3" x1="98.56" y1="835.51" x2="312.94" y2="92.83"/>
    <line class="cls-3" x1="-330.21" y1="92.84" x2="420.16" y2="278.51"/>
    <line class="cls-3" x1="-330.21" y1="92.83" x2="205.77" y2="649.84"/>
    <line class="cls-3" x1="527.33" y1="92.84" x2="-223.04" y2="278.51"/>
    <line class="cls-3" x1="527.33" y1="92.83" x2="-8.66" y2="649.84"/>
    <line class="cls-3" x1="527.33" y1="92.83" x2="312.94" y2="-649.84"/>
    <line class="cls-3" x1="527.33" y1="92.83" x2="741.71" y2="-649.84"/>
    <line class="cls-3" x1="956.1" y1="-649.84" x2="741.71" y2="92.83"/>
    <line class="cls-3" x1="956.09" y1="-649.84" x2="1170.48" y2="92.83"/>
    <line class="cls-3" x1="527.33" y1="92.83" x2="1277.7" y2="-92.84"/>
    <line class="cls-3" x1="527.33" y1="92.83" x2="1063.31" y2="-464.17"/>
    <line class="cls-3" x1="1384.86" y1="92.83" x2="634.49" y2="-92.84"/>
    <line class="cls-3" x1="1384.86" y1="92.83" x2="848.88" y2="-464.17"/>
    <line class="cls-3" x1="1384.86" y1="92.83" x2="1170.48" y2="-649.84"/>
    <line class="cls-3" x1="1384.86" y1="92.83" x2="1599.25" y2="-649.84"/>
    <line class="cls-3" x1="1813.63" y1="-649.84" x2="1599.25" y2="92.83"/>
    <line class="cls-3" x1="1813.63" y1="-649.84" x2="2028.02" y2="92.83"/>
    <line class="cls-3" x1="1384.86" y1="92.83" x2="2135.23" y2="-92.84"/>
    <line class="cls-3" x1="1384.86" y1="92.83" x2="1920.85" y2="-464.17"/>
    <line class="cls-3" x1="2242.4" y1="92.83" x2="1492.03" y2="-92.84"/>
    <line class="cls-3" x1="2242.4" y1="92.83" x2="1706.41" y2="-464.17"/>
    <line class="cls-3" x1="2242.4" y1="92.83" x2="2028.02" y2="-649.84"/>
    <line class="cls-3" x1="2242.4" y1="92.83" x2="2456.78" y2="-649.84"/>
    <line class="cls-3" x1="2671.17" y1="-649.84" x2="2456.79" y2="92.83"/>
    <line class="cls-3" x1="2671.17" y1="-649.84" x2="2885.55" y2="92.83"/>
    <line class="cls-3" x1="2242.4" y1="92.83" x2="2992.77" y2="-92.84"/>
    <line class="cls-3" x1="2242.4" y1="92.83" x2="2778.39" y2="-464.17"/>
    <line class="cls-3" x1="3099.94" y1="92.83" x2="2349.57" y2="-92.84"/>
    <line class="cls-3" x1="3099.94" y1="92.83" x2="2563.95" y2="-464.17"/>
    <line class="cls-3" x1="3099.94" y1="92.83" x2="2885.55" y2="-649.84"/>
    <line class="cls-3" x1="3099.94" y1="92.83" x2="3314.32" y2="-649.84"/>
    <line class="cls-3" x1="3528.71" y1="-649.84" x2="3314.32" y2="92.83"/>
    <line class="cls-3" x1="3528.71" y1="-649.84" x2="3743.09" y2="92.83"/>
    <line class="cls-3" x1="3099.94" y1="92.83" x2="3850.31" y2="-92.84"/>
    <line class="cls-3" x1="3099.94" y1="92.83" x2="3635.92" y2="-464.17"/>
    <line class="cls-3" x1="3957.47" y1="92.83" x2="3207.11" y2="-92.84"/>
    <line class="cls-3" x1="3957.47" y1="92.83" x2="3421.49" y2="-464.17"/>
    <line class="cls-3" x1="3957.47" y1="92.83" x2="3743.09" y2="-649.84"/>
    <line class="cls-3" x1="3957.47" y1="92.83" x2="4171.86" y2="-649.84"/>
    <line class="cls-3" x1="4386.24" y1="-649.84" x2="4171.86" y2="92.83"/>
    <line class="cls-3" x1="3957.47" y1="92.83" x2="4707.84" y2="-92.84"/>
    <line class="cls-3" x1="3957.47" y1="92.83" x2="4493.46" y2="-464.17"/>
    <line class="cls-3" x1="4815.01" y1="92.83" x2="4064.64" y2="-92.84"/>
    <line class="cls-3" x1="98.56" y1="-649.84" x2="-115.83" y2="92.83"/>
    <line class="cls-3" x1="98.56" y1="-649.84" x2="312.94" y2="92.83"/>
    <line class="cls-3" x1="-330.21" y1="92.83" x2="420.16" y2="-92.84"/>
    <line class="cls-3" x1="-330.21" y1="92.83" x2="205.77" y2="-464.17"/>
    <line class="cls-3" x1="527.33" y1="92.83" x2="-223.04" y2="-92.84"/>
    <line class="cls-3" x1="527.33" y1="92.83" x2="-8.66" y2="-464.17"/>
    <line class="cls-3" x1="527.33" y1="1578.19" x2="312.94" y2="2320.87"/>
    <line class="cls-3" x1="527.33" y1="1578.19" x2="741.71" y2="2320.87"/>
    <line class="cls-3" x1="98.56" y1="2320.86" x2="848.93" y2="2135.19"/>
    <line class="cls-3" x1="98.56" y1="2320.86" x2="634.54" y2="1763.86"/>
    <line class="cls-3" x1="956.09" y1="2320.86" x2="205.73" y2="2135.19"/>
    <line class="cls-3" x1="956.09" y1="2320.86" x2="420.11" y2="1763.86"/>
    <line class="cls-3" x1="98.56" y1="2320.86" x2="-651.81" y2="2135.19"/>
    <line class="cls-3" x1="98.56" y1="2320.86" x2="-437.43" y2="1763.86"/>
    <line class="cls-3" x1="956.1" y1="2320.87" x2="741.71" y2="1578.19"/>
    <line class="cls-3" x1="956.09" y1="2320.87" x2="1170.48" y2="1578.19"/>
    <line class="cls-3" x1="527.33" y1="1578.19" x2="1277.7" y2="1763.87"/>
    <line class="cls-3" x1="527.33" y1="1578.19" x2="1063.31" y2="2135.19"/>
    <line class="cls-3" x1="1384.86" y1="1578.19" x2="634.49" y2="1763.87"/>
    <line class="cls-3" x1="1384.86" y1="1578.19" x2="848.88" y2="2135.19"/>
    <line class="cls-3" x1="1384.86" y1="1578.19" x2="1170.48" y2="2320.87"/>
    <line class="cls-3" x1="1384.86" y1="1578.19" x2="1599.25" y2="2320.87"/>
    <line class="cls-3" x1="956.09" y1="2320.86" x2="1706.46" y2="2135.19"/>
    <line class="cls-3" x1="956.1" y1="2320.86" x2="1492.08" y2="1763.86"/>
    <line class="cls-3" x1="1813.63" y1="2320.86" x2="1063.26" y2="2135.19"/>
    <line class="cls-3" x1="1813.63" y1="2320.86" x2="1277.65" y2="1763.86"/>
    <line class="cls-3" x1="1813.63" y1="2320.87" x2="1599.25" y2="1578.19"/>
    <line class="cls-3" x1="1813.63" y1="2320.87" x2="2028.02" y2="1578.19"/>
    <line class="cls-3" x1="1384.86" y1="1578.19" x2="2135.23" y2="1763.87"/>
    <line class="cls-3" x1="1384.86" y1="1578.19" x2="1920.85" y2="2135.19"/>
    <line class="cls-3" x1="2242.4" y1="1578.19" x2="1492.03" y2="1763.87"/>
    <line class="cls-3" x1="2242.4" y1="1578.19" x2="1706.41" y2="2135.19"/>
    <line class="cls-3" x1="2242.4" y1="1578.19" x2="2028.02" y2="2320.87"/>
    <line class="cls-3" x1="2242.4" y1="1578.19" x2="2456.78" y2="2320.87"/>
    <line class="cls-3" x1="1813.63" y1="2320.86" x2="2564" y2="2135.19"/>
    <line class="cls-3" x1="1813.63" y1="2320.86" x2="2349.62" y2="1763.86"/>
    <line class="cls-3" x1="2671.17" y1="2320.86" x2="1920.8" y2="2135.19"/>
    <line class="cls-3" x1="2671.17" y1="2320.86" x2="2135.18" y2="1763.86"/>
    <line class="cls-3" x1="2671.17" y1="2320.87" x2="2456.79" y2="1578.19"/>
    <line class="cls-3" x1="2671.17" y1="2320.87" x2="2885.55" y2="1578.19"/>
    <line class="cls-3" x1="2242.4" y1="1578.19" x2="2992.77" y2="1763.87"/>
    <line class="cls-3" x1="2242.4" y1="1578.19" x2="2778.39" y2="2135.19"/>
    <line class="cls-3" x1="3099.94" y1="1578.19" x2="2349.57" y2="1763.87"/>
    <line class="cls-3" x1="3099.94" y1="1578.19" x2="2563.95" y2="2135.19"/>
    <line class="cls-3" x1="3099.94" y1="1578.19" x2="2885.55" y2="2320.87"/>
    <line class="cls-3" x1="3099.94" y1="1578.19" x2="3314.32" y2="2320.87"/>
    <line class="cls-3" x1="2671.17" y1="2320.86" x2="3421.54" y2="2135.19"/>
    <line class="cls-3" x1="2671.17" y1="2320.86" x2="3207.15" y2="1763.86"/>
    <line class="cls-3" x1="3528.71" y1="2320.86" x2="2778.34" y2="2135.19"/>
    <line class="cls-3" x1="3528.71" y1="2320.86" x2="2992.72" y2="1763.86"/>
    <line class="cls-3" x1="3528.71" y1="2320.87" x2="3314.32" y2="1578.19"/>
    <line class="cls-3" x1="3528.71" y1="2320.87" x2="3743.09" y2="1578.19"/>
    <line class="cls-3" x1="3099.94" y1="1578.19" x2="3850.31" y2="1763.87"/>
    <line class="cls-3" x1="3099.94" y1="1578.19" x2="3635.92" y2="2135.19"/>
    <line class="cls-3" x1="3957.47" y1="1578.19" x2="3207.11" y2="1763.87"/>
    <line class="cls-3" x1="3957.47" y1="1578.19" x2="3421.49" y2="2135.19"/>
    <line class="cls-3" x1="3957.47" y1="1578.19" x2="3743.09" y2="2320.87"/>
    <line class="cls-3" x1="3957.47" y1="1578.19" x2="4171.86" y2="2320.87"/>
    <line class="cls-3" x1="3528.71" y1="2320.86" x2="4279.08" y2="2135.19"/>
    <line class="cls-3" x1="3528.71" y1="2320.86" x2="4064.69" y2="1763.86"/>
    <line class="cls-3" x1="4386.24" y1="2320.86" x2="3635.87" y2="2135.19"/>
    <line class="cls-3" x1="4386.24" y1="2320.86" x2="3850.26" y2="1763.86"/>
    <line class="cls-3" x1="4386.24" y1="2320.87" x2="4171.86" y2="1578.19"/>
    <line class="cls-3" x1="3957.47" y1="1578.19" x2="4707.84" y2="1763.87"/>
    <line class="cls-3" x1="3957.47" y1="1578.19" x2="4493.46" y2="2135.19"/>
    <line class="cls-3" x1="4815.01" y1="1578.19" x2="4064.64" y2="1763.87"/>
    <line class="cls-3" x1="98.56" y1="2320.87" x2="-115.83" y2="1578.19"/>
    <line class="cls-3" x1="98.56" y1="2320.87" x2="312.94" y2="1578.19"/>
    <line class="cls-3" x1="-330.21" y1="1578.19" x2="420.16" y2="1763.87"/>
    <line class="cls-3" x1="-330.21" y1="1578.19" x2="205.77" y2="2135.19"/>
    <line class="cls-3" x1="527.33" y1="1578.19" x2="-223.04" y2="1763.87"/>
    <line class="cls-3" x1="527.33" y1="1578.19" x2="-8.66" y2="2135.19"/>
    <line class="cls-3" x1="527.33" y1="1578.19" x2="312.94" y2="835.51"/>
    <line class="cls-3" x1="527.33" y1="1578.19" x2="741.71" y2="835.51"/>
    <line class="cls-3" x1="98.56" y1="835.51" x2="848.93" y2="1021.19"/>
    <line class="cls-3" x1="98.56" y1="835.51" x2="634.54" y2="1392.51"/>
    <line class="cls-3" x1="956.09" y1="835.51" x2="205.73" y2="1021.19"/>
    <line class="cls-3" x1="956.09" y1="835.51" x2="420.11" y2="1392.51"/>
    <line class="cls-3" x1="98.56" y1="835.51" x2="-651.81" y2="1021.19"/>
    <line class="cls-3" x1="98.56" y1="835.51" x2="-437.43" y2="1392.51"/>
    <line class="cls-3" x1="956.1" y1="835.51" x2="741.71" y2="1578.19"/>
    <line class="cls-3" x1="956.09" y1="835.51" x2="1170.48" y2="1578.19"/>
    <line class="cls-3" x1="527.33" y1="1578.19" x2="1277.7" y2="1392.51"/>
    <line class="cls-3" x1="527.33" y1="1578.19" x2="1063.31" y2="1021.19"/>
    <line class="cls-3" x1="1384.86" y1="1578.19" x2="634.49" y2="1392.51"/>
    <line class="cls-3" x1="1384.86" y1="1578.19" x2="848.88" y2="1021.19"/>
    <line class="cls-3" x1="1384.86" y1="1578.19" x2="1170.48" y2="835.51"/>
    <line class="cls-3" x1="1384.86" y1="1578.19" x2="1599.25" y2="835.51"/>
    <line class="cls-3" x1="956.09" y1="835.51" x2="1706.46" y2="1021.19"/>
    <line class="cls-3" x1="956.1" y1="835.51" x2="1492.08" y2="1392.51"/>
    <line class="cls-3" x1="1813.63" y1="835.51" x2="1063.26" y2="1021.19"/>
    <line class="cls-3" x1="1813.63" y1="835.51" x2="1277.65" y2="1392.51"/>
    <line class="cls-3" x1="1813.63" y1="835.51" x2="1599.25" y2="1578.19"/>
    <line class="cls-3" x1="1813.63" y1="835.51" x2="2028.02" y2="1578.19"/>
    <line class="cls-3" x1="1384.86" y1="1578.19" x2="2135.23" y2="1392.51"/>
    <line class="cls-3" x1="1384.86" y1="1578.19" x2="1920.85" y2="1021.19"/>
    <line class="cls-3" x1="2242.4" y1="1578.19" x2="1492.03" y2="1392.51"/>
    <line class="cls-3" x1="2242.4" y1="1578.19" x2="1706.41" y2="1021.19"/>
    <line class="cls-3" x1="2242.4" y1="1578.19" x2="2028.02" y2="835.51"/>
    <line class="cls-3" x1="2242.4" y1="1578.19" x2="2456.78" y2="835.51"/>
    <line class="cls-3" x1="1813.63" y1="835.51" x2="2564" y2="1021.19"/>
    <line class="cls-3" x1="1813.63" y1="835.51" x2="2349.62" y2="1392.51"/>
    <line class="cls-3" x1="2671.17" y1="835.51" x2="1920.8" y2="1021.19"/>
    <line class="cls-3" x1="2671.17" y1="835.51" x2="2135.18" y2="1392.51"/>
    <line class="cls-3" x1="2671.17" y1="835.51" x2="2456.79" y2="1578.19"/>
    <line class="cls-3" x1="2671.17" y1="835.51" x2="2885.55" y2="1578.19"/>
    <line class="cls-3" x1="2242.4" y1="1578.19" x2="2992.77" y2="1392.51"/>
    <line class="cls-3" x1="2242.4" y1="1578.19" x2="2778.39" y2="1021.19"/>
    <line class="cls-3" x1="3099.94" y1="1578.19" x2="2349.57" y2="1392.51"/>
    <line class="cls-3" x1="3099.94" y1="1578.19" x2="2563.95" y2="1021.19"/>
    <line class="cls-3" x1="3099.94" y1="1578.19" x2="2885.55" y2="835.51"/>
    <line class="cls-3" x1="3099.94" y1="1578.19" x2="3314.32" y2="835.51"/>
    <line class="cls-3" x1="2671.17" y1="835.51" x2="3421.54" y2="1021.19"/>
    <line class="cls-3" x1="2671.17" y1="835.51" x2="3207.15" y2="1392.51"/>
    <line class="cls-3" x1="3528.71" y1="835.51" x2="2778.34" y2="1021.19"/>
    <line class="cls-3" x1="3528.71" y1="835.51" x2="2992.72" y2="1392.51"/>
    <line class="cls-3" x1="3528.71" y1="835.51" x2="3314.32" y2="1578.19"/>
    <line class="cls-3" x1="3528.71" y1="835.51" x2="3743.09" y2="1578.19"/>
    <line class="cls-3" x1="3099.94" y1="1578.19" x2="3850.31" y2="1392.51"/>
    <line class="cls-3" x1="3099.94" y1="1578.19" x2="3635.92" y2="1021.19"/>
    <line class="cls-3" x1="3957.47" y1="1578.19" x2="3207.11" y2="1392.51"/>
    <line class="cls-3" x1="3957.47" y1="1578.19" x2="3421.49" y2="1021.19"/>
    <line class="cls-3" x1="3957.47" y1="1578.19" x2="3743.09" y2="835.51"/>
    <line class="cls-3" x1="3957.47" y1="1578.19" x2="4171.86" y2="835.51"/>
    <line class="cls-3" x1="3528.71" y1="835.51" x2="4279.08" y2="1021.19"/>
    <line class="cls-3" x1="3528.71" y1="835.51" x2="4064.69" y2="1392.51"/>
    <line class="cls-3" x1="4386.24" y1="835.51" x2="3635.87" y2="1021.19"/>
    <line class="cls-3" x1="4386.24" y1="835.51" x2="3850.26" y2="1392.51"/>
    <line class="cls-3" x1="4386.24" y1="835.51" x2="4171.86" y2="1578.19"/>
    <line class="cls-3" x1="3957.47" y1="1578.19" x2="4707.84" y2="1392.51"/>
    <line class="cls-3" x1="3957.47" y1="1578.19" x2="4493.46" y2="1021.19"/>
    <line class="cls-3" x1="4815.01" y1="1578.19" x2="4064.64" y2="1392.51"/>
    <line class="cls-3" x1="98.56" y1="835.51" x2="-115.83" y2="1578.19"/>
    <line class="cls-3" x1="98.56" y1="835.51" x2="312.94" y2="1578.19"/>
    <line class="cls-3" x1="-330.21" y1="1578.19" x2="420.16" y2="1392.51"/>
    <line class="cls-3" x1="-330.21" y1="1578.19" x2="205.77" y2="1021.19"/>
    <line class="cls-3" x1="527.33" y1="1578.19" x2="-223.04" y2="1392.51"/>
    <line class="cls-3" x1="527.33" y1="1578.19" x2="-8.66" y2="1021.19"/>
    <line class="cls-3" x1="527.33" y1="3063.54" x2="312.94" y2="2320.87"/>
    <line class="cls-3" x1="527.33" y1="3063.54" x2="741.71" y2="2320.87"/>
    <line class="cls-3" x1="98.56" y1="2320.87" x2="848.93" y2="2506.54"/>
    <line class="cls-3" x1="98.56" y1="2320.87" x2="634.54" y2="2877.87"/>
    <line class="cls-3" x1="956.09" y1="2320.87" x2="205.73" y2="2506.54"/>
    <line class="cls-3" x1="956.09" y1="2320.87" x2="420.11" y2="2877.87"/>
    <line class="cls-3" x1="98.56" y1="2320.87" x2="-651.81" y2="2506.54"/>
    <line class="cls-3" x1="98.56" y1="2320.87" x2="-437.43" y2="2877.87"/>
    <line class="cls-3" x1="956.1" y1="2320.87" x2="741.71" y2="3063.54"/>
    <line class="cls-3" x1="956.09" y1="2320.87" x2="1170.48" y2="3063.54"/>
    <line class="cls-3" x1="527.33" y1="3063.54" x2="1277.7" y2="2877.87"/>
    <line class="cls-3" x1="527.33" y1="3063.54" x2="1063.31" y2="2506.54"/>
    <line class="cls-3" x1="1384.86" y1="3063.54" x2="634.49" y2="2877.87"/>
    <line class="cls-3" x1="1384.86" y1="3063.54" x2="848.88" y2="2506.54"/>
    <line class="cls-3" x1="1384.86" y1="3063.54" x2="1170.48" y2="2320.87"/>
    <line class="cls-3" x1="1384.86" y1="3063.54" x2="1599.25" y2="2320.87"/>
    <line class="cls-3" x1="956.09" y1="2320.87" x2="1706.46" y2="2506.54"/>
    <line class="cls-3" x1="956.1" y1="2320.87" x2="1492.08" y2="2877.87"/>
    <line class="cls-3" x1="1813.63" y1="2320.87" x2="1063.26" y2="2506.54"/>
    <line class="cls-3" x1="1813.63" y1="2320.87" x2="1277.65" y2="2877.87"/>
    <line class="cls-3" x1="1813.63" y1="2320.87" x2="1599.25" y2="3063.54"/>
    <line class="cls-3" x1="1813.63" y1="2320.87" x2="2028.02" y2="3063.54"/>
    <line class="cls-3" x1="1384.86" y1="3063.54" x2="2135.23" y2="2877.87"/>
    <line class="cls-3" x1="1384.86" y1="3063.54" x2="1920.85" y2="2506.54"/>
    <line class="cls-3" x1="2242.4" y1="3063.54" x2="1492.03" y2="2877.87"/>
    <line class="cls-3" x1="2242.4" y1="3063.54" x2="1706.41" y2="2506.54"/>
    <line class="cls-3" x1="2242.4" y1="3063.54" x2="2028.02" y2="2320.87"/>
    <line class="cls-3" x1="2242.4" y1="3063.54" x2="2456.78" y2="2320.87"/>
    <line class="cls-3" x1="1813.63" y1="2320.87" x2="2564" y2="2506.54"/>
    <line class="cls-3" x1="1813.63" y1="2320.87" x2="2349.62" y2="2877.87"/>
    <line class="cls-3" x1="2671.17" y1="2320.87" x2="1920.8" y2="2506.54"/>
    <line class="cls-3" x1="2671.17" y1="2320.87" x2="2135.18" y2="2877.87"/>
    <line class="cls-3" x1="2671.17" y1="2320.87" x2="2456.79" y2="3063.54"/>
    <line class="cls-3" x1="2671.17" y1="2320.87" x2="2885.55" y2="3063.54"/>
    <line class="cls-3" x1="2242.4" y1="3063.54" x2="2992.77" y2="2877.87"/>
    <line class="cls-3" x1="2242.4" y1="3063.54" x2="2778.39" y2="2506.54"/>
    <line class="cls-3" x1="3099.94" y1="3063.54" x2="2349.57" y2="2877.87"/>
    <line class="cls-3" x1="3099.94" y1="3063.54" x2="2563.95" y2="2506.54"/>
    <line class="cls-3" x1="3099.94" y1="3063.54" x2="2885.55" y2="2320.87"/>
    <line class="cls-3" x1="3099.94" y1="3063.54" x2="3314.32" y2="2320.87"/>
    <line class="cls-3" x1="2671.17" y1="2320.87" x2="3421.54" y2="2506.54"/>
    <line class="cls-3" x1="2671.17" y1="2320.87" x2="3207.15" y2="2877.87"/>
    <line class="cls-3" x1="3528.71" y1="2320.87" x2="2778.34" y2="2506.54"/>
    <line class="cls-3" x1="3528.71" y1="2320.87" x2="2992.72" y2="2877.87"/>
    <line class="cls-3" x1="3528.71" y1="2320.87" x2="3314.32" y2="3063.54"/>
    <line class="cls-3" x1="3528.71" y1="2320.87" x2="3743.09" y2="3063.54"/>
    <line class="cls-3" x1="3099.94" y1="3063.54" x2="3850.31" y2="2877.87"/>
    <line class="cls-3" x1="3099.94" y1="3063.54" x2="3635.92" y2="2506.54"/>
    <line class="cls-3" x1="3957.47" y1="3063.54" x2="3207.11" y2="2877.87"/>
    <line class="cls-3" x1="3957.47" y1="3063.54" x2="3421.49" y2="2506.54"/>
    <line class="cls-3" x1="3957.47" y1="3063.54" x2="3743.09" y2="2320.87"/>
    <line class="cls-3" x1="3957.47" y1="3063.54" x2="4171.86" y2="2320.87"/>
    <line class="cls-3" x1="3528.71" y1="2320.87" x2="4279.08" y2="2506.54"/>
    <line class="cls-3" x1="3528.71" y1="2320.87" x2="4064.69" y2="2877.87"/>
    <line class="cls-3" x1="4386.24" y1="2320.87" x2="3635.87" y2="2506.54"/>
    <line class="cls-3" x1="4386.24" y1="2320.87" x2="3850.26" y2="2877.87"/>
    <line class="cls-3" x1="4386.24" y1="2320.87" x2="4171.86" y2="3063.54"/>
    <line class="cls-3" x1="3957.47" y1="3063.54" x2="4707.84" y2="2877.87"/>
    <line class="cls-3" x1="3957.47" y1="3063.54" x2="4493.46" y2="2506.54"/>
    <line class="cls-3" x1="4815.01" y1="3063.54" x2="4064.64" y2="2877.87"/>
    <line class="cls-3" x1="98.56" y1="2320.87" x2="-115.83" y2="3063.54"/>
    <line class="cls-3" x1="98.56" y1="2320.87" x2="312.94" y2="3063.54"/>
    <line class="cls-3" x1="-330.21" y1="3063.54" x2="420.16" y2="2877.87"/>
    <line class="cls-3" x1="-330.21" y1="3063.54" x2="205.77" y2="2506.54"/>
    <line class="cls-3" x1="527.33" y1="3063.54" x2="-223.04" y2="2877.87"/>
    <line class="cls-3" x1="527.33" y1="3063.54" x2="-8.66" y2="2506.54"/>
  </g>
  <g id="_4._Dreieck" data-name="4. Dreieck">
    <circle class="cls-1" cx="527.33" cy="92.83" r="21.26"/>
    <circle class="cls-1" cx="527.33" cy="464.17" r="21.26"/>
    <circle class="cls-1" cx="527.33" cy="835.51" r="21.26" transform="translate(-407.6818 1154.7438) rotate(-76.5933)"/>
    <circle class="cls-1" cx="312.94" cy="464.17" r="21.26"/>
    <circle class="cls-1" cx="312.94" cy="835.51" r="21.26" transform="translate(-572.36 946.2) rotate(-76.59)"/>
    <circle class="cls-1" cx="205.75" cy="649.84" r="21.26" transform="translate(-468.25 751.55) rotate(-81.01)"/>
    <circle class="cls-1" cx="848.9" cy="649.84" r="21.26" transform="translate(19.9435 1324.9347) rotate(-76.5933)"/>
    <circle class="cls-1" cx="98.56" cy="835.51" r="21.26" transform="translate(-741.89 797.68) rotate(-80.7)"/>
    <circle class="cls-1" cx="956.1" cy="835.51" r="21.26" transform="translate(-13.1728 1655.7023) rotate(-81.3873)"/>
    <circle class="cls-1" cx="741.71" cy="464.17" r="21.26"/>
    <circle class="cls-1" cx="741.71" cy="835.51" r="21.26" transform="translate(-373.55 769.18) rotate(-45)"/>
    <circle class="cls-1" cx="420.13" cy="278.5" r="21.26" transform="translate(-52.22 454.45) rotate(-53.97)"/>
    <circle class="cls-1" cx="420.13" cy="649.84" r="21.26"/>
    <circle class="cls-1" cx="634.52" cy="278.5" r="21.26" transform="translate(199.15 817.6) rotate(-74.77)"/>
    <circle class="cls-1" cx="634.52" cy="649.84" r="21.26"/>
  </g>
  <g id="Rahmen">
    <rect class="cls-2" width="4270.39" height="2970.71"/>
  </g>
</svg>