<?xml version="1.0" encoding="UTF-8"?>
<svg xmlns="http://www.w3.org/2000/svg" viewBox="0 0 4270.39 2970.71">
  <defs>
    <style>
      .cls-1 {
        fill: #1d1d1b;
      }

      .cls-2, .cls-3 {
        fill: none;
        stroke: #1d1d1b;
        stroke-miterlimit: 10;
        stroke-width: 12px;
      }

      .cls-3 {
        stroke-linecap: round;
      }
    </style>
  </defs>
  <g id="_43" data-name="43">
    <line class="cls-3" x1="527.32" y1="464.15" x2="956.09" y2="464.15"/>
    <line class="cls-3" x1="634.51" y1="1021.15" x2="420.12" y2="649.83"/>
    <line class="cls-3" x1="1063.28" y1="649.83" x2="848.89" y2="1021.15"/>
    <line class="cls-3" x1="1063.28" y1="649.84" x2="1492.05" y2="649.84"/>
    <line class="cls-3" x1="1170.47" y1="92.83" x2="956.09" y2="464.16"/>
    <line class="cls-3" x1="1599.24" y1="464.16" x2="1384.85" y2="92.83"/>
    <line class="cls-3" x1="1599.24" y1="464.15" x2="2028.01" y2="464.15"/>
    <line class="cls-3" x1="1706.43" y1="1021.15" x2="1492.05" y2="649.83"/>
    <line class="cls-3" x1="2135.2" y1="649.83" x2="1920.81" y2="1021.15"/>
    <line class="cls-3" x1="2135.2" y1="649.84" x2="2563.97" y2="649.84"/>
    <line class="cls-3" x1="2242.39" y1="92.83" x2="2028.01" y2="464.16"/>
    <line class="cls-3" x1="2671.16" y1="464.16" x2="2456.77" y2="92.83"/>
    <line class="cls-3" x1="2671.16" y1="464.15" x2="3099.93" y2="464.15"/>
    <line class="cls-3" x1="2778.35" y1="1021.15" x2="2563.97" y2="649.83"/>
    <line class="cls-3" x1="3207.12" y1="649.83" x2="2992.74" y2="1021.15"/>
    <line class="cls-3" x1="3207.12" y1="649.84" x2="3635.89" y2="649.84"/>
    <line class="cls-3" x1="3314.31" y1="92.83" x2="3099.93" y2="464.16"/>
    <line class="cls-3" x1="3743.08" y1="464.16" x2="3528.7" y2="92.83"/>
    <line class="cls-3" x1="3743.08" y1="464.15" x2="4171.85" y2="464.15"/>
    <line class="cls-3" x1="3850.27" y1="1021.15" x2="3635.89" y2="649.83"/>
    <line class="cls-3" x1="4279.04" y1="649.83" x2="4064.66" y2="1021.15"/>
    <line class="cls-3" x1="4386.23" y1="92.83" x2="4171.85" y2="464.16"/>
    <line class="cls-3" x1="-8.64" y1="649.84" x2="420.12" y2="649.84"/>
    <line class="cls-3" x1="98.55" y1="92.83" x2="-115.84" y2="464.16"/>
    <line class="cls-3" x1="527.32" y1="464.16" x2="312.93" y2="92.83"/>
    <line class="cls-3" x1="98.55" y1="92.83" x2="-115.84" y2="-278.49"/>
    <line class="cls-3" x1="527.32" y1="-278.49" x2="312.93" y2="92.83"/>
    <line class="cls-3" x1="1170.47" y1="92.83" x2="956.09" y2="-278.49"/>
    <line class="cls-3" x1="1599.24" y1="-278.49" x2="1384.85" y2="92.83"/>
    <line class="cls-3" x1="2242.39" y1="92.83" x2="2028.01" y2="-278.49"/>
    <line class="cls-3" x1="2671.16" y1="-278.49" x2="2456.77" y2="92.83"/>
    <line class="cls-3" x1="4386.23" y1="92.83" x2="4171.85" y2="-278.49"/>
    <line class="cls-3" x1="3314.31" y1="92.83" x2="3099.93" y2="-278.49"/>
    <line class="cls-3" x1="3743.08" y1="-278.49" x2="3528.7" y2="92.83"/>
    <line class="cls-3" x1="527.32" y1="2320.87" x2="956.09" y2="2320.87"/>
    <line class="cls-3" x1="634.51" y1="2877.88" x2="420.12" y2="2506.55"/>
    <line class="cls-3" x1="1063.28" y1="2506.55" x2="848.89" y2="2877.88"/>
    <line class="cls-3" x1="1063.28" y1="2506.56" x2="1492.05" y2="2506.56"/>
    <line class="cls-3" x1="1170.47" y1="1949.55" x2="956.09" y2="2320.88"/>
    <line class="cls-3" x1="1599.24" y1="2320.88" x2="1384.85" y2="1949.55"/>
    <line class="cls-3" x1="1599.24" y1="2320.87" x2="2028.01" y2="2320.87"/>
    <line class="cls-3" x1="1706.43" y1="2877.88" x2="1492.05" y2="2506.55"/>
    <line class="cls-3" x1="2135.2" y1="2506.55" x2="1920.81" y2="2877.88"/>
    <line class="cls-3" x1="2135.2" y1="2506.56" x2="2563.97" y2="2506.56"/>
    <line class="cls-3" x1="2242.39" y1="1949.55" x2="2028.01" y2="2320.88"/>
    <line class="cls-3" x1="2671.16" y1="2320.88" x2="2456.77" y2="1949.55"/>
    <line class="cls-3" x1="2671.16" y1="2320.87" x2="3099.93" y2="2320.87"/>
    <line class="cls-3" x1="2778.35" y1="2877.88" x2="2563.97" y2="2506.55"/>
    <line class="cls-3" x1="3207.12" y1="2506.55" x2="2992.74" y2="2877.88"/>
    <line class="cls-3" x1="3207.12" y1="2506.56" x2="3635.89" y2="2506.56"/>
    <line class="cls-3" x1="3314.31" y1="1949.55" x2="3099.93" y2="2320.88"/>
    <line class="cls-3" x1="3743.08" y1="2320.88" x2="3528.7" y2="1949.55"/>
    <line class="cls-3" x1="3743.08" y1="2320.87" x2="4171.85" y2="2320.87"/>
    <line class="cls-3" x1="3850.27" y1="2877.88" x2="3635.89" y2="2506.55"/>
    <line class="cls-3" x1="4279.04" y1="2506.55" x2="4064.66" y2="2877.88"/>
    <line class="cls-3" x1="4386.23" y1="1949.55" x2="4171.85" y2="2320.88"/>
    <line class="cls-3" x1="-8.64" y1="2506.56" x2="420.12" y2="2506.56"/>
    <line class="cls-3" x1="98.55" y1="1949.55" x2="-115.84" y2="2320.88"/>
    <line class="cls-3" x1="527.32" y1="2320.88" x2="312.93" y2="1949.55"/>
    <line class="cls-3" x1="-8.64" y1="1392.55" x2="420.12" y2="1392.55"/>
    <line class="cls-3" x1="98.55" y1="1949.55" x2="-115.84" y2="1578.23"/>
    <line class="cls-3" x1="527.32" y1="1578.23" x2="312.93" y2="1949.55"/>
    <line class="cls-3" x1="527.32" y1="1578.24" x2="956.09" y2="1578.24"/>
    <line class="cls-3" x1="634.51" y1="1021.24" x2="420.12" y2="1392.56"/>
    <line class="cls-3" x1="1063.28" y1="1392.56" x2="848.89" y2="1021.24"/>
    <line class="cls-3" x1="1063.28" y1="1392.55" x2="1492.05" y2="1392.55"/>
    <line class="cls-3" x1="1170.47" y1="1949.55" x2="956.09" y2="1578.23"/>
    <line class="cls-3" x1="1599.24" y1="1578.23" x2="1384.85" y2="1949.55"/>
    <line class="cls-3" x1="1599.24" y1="1578.24" x2="2028.01" y2="1578.24"/>
    <line class="cls-3" x1="1706.43" y1="1021.24" x2="1492.05" y2="1392.56"/>
    <line class="cls-3" x1="2135.2" y1="1392.56" x2="1920.81" y2="1021.24"/>
    <line class="cls-3" x1="2135.2" y1="1392.55" x2="2563.97" y2="1392.55"/>
    <line class="cls-3" x1="2242.39" y1="1949.55" x2="2028.01" y2="1578.23"/>
    <line class="cls-3" x1="2671.16" y1="1578.23" x2="2456.77" y2="1949.55"/>
    <line class="cls-3" x1="2671.16" y1="1578.24" x2="3099.93" y2="1578.24"/>
    <line class="cls-3" x1="2778.35" y1="1021.24" x2="2563.97" y2="1392.56"/>
    <line class="cls-3" x1="3207.12" y1="1392.56" x2="2992.73" y2="1021.24"/>
    <line class="cls-3" x1="3207.12" y1="1392.55" x2="3635.89" y2="1392.55"/>
    <line class="cls-3" x1="4386.23" y1="1949.55" x2="4171.85" y2="1578.23"/>
    <line class="cls-3" x1="3314.31" y1="1949.55" x2="3099.93" y2="1578.23"/>
    <line class="cls-3" x1="3743.08" y1="1578.23" x2="3528.7" y2="1949.55"/>
    <line class="cls-3" x1="3743.08" y1="1578.24" x2="4171.85" y2="1578.24"/>
    <line class="cls-3" x1="3850.27" y1="1021.24" x2="3635.89" y2="1392.56"/>
    <line class="cls-3" x1="4279.04" y1="1392.56" x2="4064.66" y2="1021.24"/>
    <line class="cls-3" x1="634.51" y1="2877.96" x2="420.12" y2="3249.28"/>
    <line class="cls-3" x1="1063.28" y1="3249.28" x2="848.89" y2="2877.96"/>
    <line class="cls-3" x1="1706.43" y1="2877.96" x2="1492.05" y2="3249.28"/>
    <line class="cls-3" x1="2135.2" y1="3249.28" x2="1920.81" y2="2877.96"/>
    <line class="cls-3" x1="2778.35" y1="2877.96" x2="2563.97" y2="3249.28"/>
    <line class="cls-3" x1="3207.12" y1="3249.28" x2="2992.73" y2="2877.96"/>
    <line class="cls-3" x1="3850.27" y1="2877.96" x2="3635.89" y2="3249.28"/>
    <line class="cls-3" x1="4279.04" y1="3249.28" x2="4064.66" y2="2877.96"/>
  </g>
  <g id="_5._Dreieck" data-name="5. Dreieck">
    <circle class="cls-1" cx="741.71" cy="92.83" r="21.26"/>
    <circle class="cls-1" cx="741.71" cy="464.17" r="21.26"/>
    <circle class="cls-1" cx="741.71" cy="835.51" r="21.26" transform="translate(-373.55 769.18) rotate(-45)"/>
    <circle class="cls-1" cx="527.33" cy="464.17" r="21.26"/>
    <circle class="cls-1" cx="527.33" cy="835.51" r="21.26" transform="translate(-407.6822 1154.7433) rotate(-76.5933)"/>
    <circle class="cls-1" cx="420.13" cy="649.84" r="21.26" transform="translate(-294.07 947.7) rotate(-79.76)"/>
    <circle class="cls-1" cx="1063.29" cy="649.84" r="21.26" transform="translate(-148.08 942.19) rotate(-45)"/>
    <circle class="cls-1" cx="205.75" cy="1021.18" r="21.26"/>
    <circle class="cls-1" cx="312.94" cy="835.51" r="21.26" transform="translate(-562.0963 1009.6313) rotate(-80.7206)"/>
    <circle class="cls-1" cx="1170.48" cy="835.51" r="21.26" transform="translate(158.2672 1857.0413) rotate(-80.7825)"/>
    <circle class="cls-1" cx="1277.67" cy="1021.18" r="21.26"/>
    <circle class="cls-1" cx="956.09" cy="464.17" r="21.26"/>
    <circle class="cls-1" cx="956.09" cy="835.51" r="21.26" transform="translate(-293.5523 1060.4037) rotate(-51.3516)"/>
    <circle class="cls-1" cx="634.52" cy="278.5" r="21.26" transform="translate(-11.08 530.24) rotate(-45)"/>
    <circle class="cls-1" cx="634.52" cy="649.84" r="21.26"/>
    <circle class="cls-1" cx="848.9" cy="278.5" r="21.26" transform="translate(384.4376 1041.7007) rotate(-76.8395)"/>
    <circle class="cls-1" cx="848.9" cy="649.84" r="21.26"/>
    <circle class="cls-1" cx="420.13" cy="1021.18" r="21.26" transform="translate(-578.93 550.87) rotate(-42.43)"/>
    <circle class="cls-1" cx="1063.29" cy="1021.18" r="21.26" transform="translate(-174.8669 1821.4028) rotate(-76.7175)"/>
    <circle class="cls-1" cx="634.52" cy="1021.18" r="21.26" transform="translate(-505.9538 1401.6347) rotate(-76.5933)"/>
    <circle class="cls-1" cx="848.9" cy="1021.18" r="21.26" transform="translate(-473.45 899.36) rotate(-45)"/>
  </g>
  <g id="Rahmen">
    <rect class="cls-2" width="4270.39" height="2970.71"/>
  </g>
</svg>