<?xml version="1.0" encoding="UTF-8"?>
<svg id="Ebene_2" xmlns="http://www.w3.org/2000/svg" version="1.1" viewBox="0 0 311.81 56.69">
  <!-- Generator: Adobe Illustrator 29.1.0, SVG Export Plug-In . SVG Version: 2.1.0 Build 142)  -->
  <defs>
    <style>
      .st0, .st1, .st2 {
        fill: #1d1d1b;
      }

      .st0, .st3 {
        fill-rule: evenodd;
      }

      .st2 {
        font-family: Helvetica, Helvetica;
        font-size: 8px;
      }
    </style>
  </defs>
  <path class="st3" d="M22.13,27.44c-.82.5-1.42,1.22-2.22,1.74-.93.14-1.43-.26-1.92-.66-.21-.17-.76-.5-.9-.78-.19-.38.12-.78,0-1.2-.08-.29-.3-.2-.6-.48-.12-.11-.73-.84-.84-1.02-.27-.47-.29-.86-.18-1.5-.38-.31-1.12-.69-1.26-1.32-.18-.8.28-1.76.78-2.16.21-.17.52-.2.72-.36.34-.27,1.08-1.43,1.26-1.92.44-1.19.26-2.82,1.44-3.18.48-.15,1.3.04,1.56.12,1.26-.31,1.94-.72,3-.48,1.18.27,1.97,1.57,3.36,1.38.61-.08,1.12-.63,1.8-.6.32.01.54.17.96.3.44.63.8,1.3.54,1.92-.19.45-.96.8-1.5,1.2-.41.3-.78.82-1.2,1.2-.41.37-.92.51-.96.9-.11.92,1.8,2.24,2.16,3.06.31.7-.03,1.7-.12,2.4-.19,1.43-.16,1.61-1.38,2.1-.62.25-1.51.53-2.04.6-1.48.19-1.65-.76-2.46-1.26Z"/>
  <path class="st0" d="M82.13,21.69c0,2.94-2.38,5.32-5.31,5.32s-5.31-2.38-5.31-5.32,2.38-5.32,5.31-5.32,5.31,2.38,5.31,5.32Z"/>
  <rect class="st1" x="85.9" y="16.73" width="9.92" height="9.92"/>
  <rect class="st1" x="210.65" y="16.73" width="9.92" height="9.92"/>
  <rect class="st1" x="233.4" y="16.73" width="9.92" height="9.92" transform="translate(54.48 174.91) rotate(-45)"/>
  <rect class="st1" x="154.07" y="16.73" width="9.92" height="9.92" transform="translate(10.46 82.43) rotate(-30)"/>
  <polygon class="st0" points="103.24 26.65 100.38 21.69 103.24 16.73 108.97 16.73 111.84 21.69 108.97 26.65 103.24 26.65"/>
  <text class="st2" transform="translate(19.04 48.27)"><tspan x="0" y="0">1</tspan></text>
  <text class="st2" transform="translate(89.9 48.27)"><tspan x="0" y="0">2</tspan></text>
  <text class="st2" transform="translate(156.77 48.27)"><tspan x="0" y="0">3</tspan></text>
  <text class="st2" transform="translate(224.55 48.27)"><tspan x="0" y="0">4</tspan></text>
</svg>