<?xml version="1.0" encoding="UTF-8"?>
<svg id="Ebene_2" xmlns="http://www.w3.org/2000/svg" version="1.1" viewBox="0 0 255.12 141.73">
  <!-- Generator: Adobe Illustrator 29.1.0, SVG Export Plug-In . SVG Version: 2.1.0 Build 142)  -->
  <defs>
    <style>
      .st0 {
        fill: none;
        stroke: #1d1d1b;
        stroke-miterlimit: 10;
        stroke-width: .9px;
      }

      .st1 {
        fill: #1d1d1b;
      }
    </style>
  </defs>
  <g>
    <path class="st1" d="M28.35,38.84c0,.39-.32.71-.71.71s-.71-.32-.71-.71.32-.71.71-.71.71.32.71.71Z"/>
    <path class="st1" d="M31.18,38.84c0,.39-.32.71-.71.71s-.71-.32-.71-.71.32-.71.71-.71.71.32.71.71Z"/>
    <path class="st1" d="M34.02,38.84c0,.39-.32.71-.71.71s-.71-.32-.71-.71.32-.71.71-.71.71.32.71.71Z"/>
    <path class="st1" d="M36.85,38.84c0,.39-.32.71-.71.71s-.71-.32-.71-.71.32-.71.71-.71.71.32.71.71Z"/>
    <path class="st1" d="M39.68,38.84c0,.39-.32.71-.71.71s-.71-.32-.71-.71.32-.71.71-.71.71.32.71.71Z"/>
    <path class="st1" d="M42.52,38.84c0,.39-.32.71-.71.71s-.71-.32-.71-.71.32-.71.71-.71.71.32.71.71Z"/>
    <path class="st1" d="M45.35,38.84c0,.39-.32.71-.71.71s-.71-.32-.71-.71.32-.71.71-.71.71.32.71.71Z"/>
    <path class="st1" d="M48.19,38.84c0,.39-.32.71-.71.71s-.71-.32-.71-.71.32-.71.71-.71.71.32.71.71Z"/>
    <path class="st1" d="M51.02,38.84c0,.39-.32.71-.71.71s-.71-.32-.71-.71.32-.71.71-.71.71.32.71.71Z"/>
    <path class="st1" d="M53.86,38.84c0,.39-.32.71-.71.71s-.71-.32-.71-.71.32-.71.71-.71.71.32.71.71Z"/>
    <path class="st1" d="M56.69,38.84c0,.39-.32.71-.71.71s-.71-.32-.71-.71.32-.71.71-.71.71.32.71.71Z"/>
    <path class="st1" d="M59.53,38.84c0,.39-.32.71-.71.71s-.71-.32-.71-.71.32-.71.71-.71.71.32.71.71Z"/>
    <path class="st1" d="M62.36,38.84c0,.39-.32.71-.71.71s-.71-.32-.71-.71.32-.71.71-.71.71.32.71.71Z"/>
    <path class="st1" d="M65.19,38.84c0,.39-.32.71-.71.71s-.71-.32-.71-.71.32-.71.71-.71.71.32.71.71Z"/>
    <path class="st1" d="M68.03,38.84c0,.39-.32.71-.71.71s-.71-.32-.71-.71.32-.71.71-.71.71.32.71.71Z"/>
    <path class="st1" d="M70.86,38.84c0,.39-.32.71-.71.71s-.71-.32-.71-.71.32-.71.71-.71.71.32.71.71Z"/>
    <path class="st1" d="M73.7,38.84c0,.39-.32.71-.71.71s-.71-.32-.71-.71.32-.71.71-.71.71.32.71.71Z"/>
    <path class="st1" d="M76.53,38.84c0,.39-.32.71-.71.71s-.71-.32-.71-.71.32-.71.71-.71.71.32.71.71Z"/>
    <path class="st1" d="M79.37,38.84c0,.39-.32.71-.71.71s-.71-.32-.71-.71.32-.71.71-.71.71.32.71.71Z"/>
    <path class="st1" d="M82.2,38.84c0,.39-.32.71-.71.71s-.71-.32-.71-.71.32-.71.71-.71.71.32.71.71Z"/>
    <path class="st1" d="M85.04,38.84c0,.39-.32.71-.71.71s-.71-.32-.71-.71.32-.71.71-.71.71.32.71.71Z"/>
    <path class="st1" d="M87.87,38.84c0,.39-.32.71-.71.71s-.71-.32-.71-.71.32-.71.71-.71.71.32.71.71Z"/>
    <path class="st1" d="M90.71,38.84c0,.39-.32.71-.71.71s-.71-.32-.71-.71.32-.71.71-.71.71.32.71.71Z"/>
    <path class="st1" d="M93.54,38.84c0,.39-.32.71-.71.71s-.71-.32-.71-.71.32-.71.71-.71.71.32.71.71Z"/>
    <path class="st1" d="M96.37,38.84c0,.39-.32.71-.71.71s-.71-.32-.71-.71.32-.71.71-.71.71.32.71.71Z"/>
    <path class="st1" d="M99.21,38.84c0,.39-.32.71-.71.71s-.71-.32-.71-.71.32-.71.71-.71.71.32.71.71Z"/>
    <path class="st1" d="M102.04,38.84c0,.39-.32.71-.71.71s-.71-.32-.71-.71.32-.71.71-.71.71.32.71.71Z"/>
    <path class="st1" d="M104.88,38.84c0,.39-.32.71-.71.71s-.71-.32-.71-.71.32-.71.71-.71.71.32.71.71Z"/>
    <path class="st1" d="M107.71,38.84c0,.39-.32.71-.71.71s-.71-.32-.71-.71.32-.71.71-.71.71.32.71.71Z"/>
    <path class="st1" d="M110.55,38.84c0,.39-.32.71-.71.71s-.71-.32-.71-.71.32-.71.71-.71.71.32.71.71Z"/>
    <path class="st1" d="M113.38,38.84c0,.39-.32.71-.71.71s-.71-.32-.71-.71.32-.71.71-.71.71.32.71.71Z"/>
    <path class="st1" d="M116.22,38.84c0,.39-.32.71-.71.71s-.71-.32-.71-.71.32-.71.71-.71.71.32.71.71Z"/>
    <path class="st1" d="M119.05,38.84c0,.39-.32.71-.71.71s-.71-.32-.71-.71.32-.71.71-.71.71.32.71.71Z"/>
    <path class="st1" d="M121.88,38.84c0,.39-.32.71-.71.71s-.71-.32-.71-.71.32-.71.71-.71.71.32.71.71Z"/>
    <path class="st1" d="M124.72,38.84c0,.39-.32.71-.71.71s-.71-.32-.71-.71.32-.71.71-.71.71.32.71.71Z"/>
    <path class="st1" d="M127.55,38.84c0,.39-.32.71-.71.71s-.71-.32-.71-.71.32-.71.71-.71.71.32.71.71Z"/>
    <path class="st1" d="M130.39,38.84c0,.39-.32.71-.71.71s-.71-.32-.71-.71.32-.71.71-.71.71.32.71.71Z"/>
    <path class="st1" d="M133.22,38.84c0,.39-.32.71-.71.71s-.71-.32-.71-.71.32-.71.71-.71.71.32.71.71Z"/>
    <path class="st1" d="M136.06,38.84c0,.39-.32.71-.71.71s-.71-.32-.71-.71.32-.71.71-.71.71.32.71.71Z"/>
    <path class="st1" d="M138.89,38.84c0,.39-.32.71-.71.71s-.71-.32-.71-.71.32-.71.71-.71.71.32.71.71Z"/>
    <path class="st1" d="M141.72,38.84c0,.39-.32.71-.71.71s-.71-.32-.71-.71.32-.71.71-.71.71.32.71.71Z"/>
    <path class="st1" d="M144.56,38.84c0,.39-.32.71-.71.71s-.71-.32-.71-.71.32-.71.71-.71.71.32.71.71Z"/>
    <path class="st1" d="M147.39,38.84c0,.39-.32.71-.71.71s-.71-.32-.71-.71.32-.71.71-.71.71.32.71.71Z"/>
    <path class="st1" d="M150.23,38.84c0,.39-.32.71-.71.71s-.71-.32-.71-.71.32-.71.71-.71.71.32.71.71Z"/>
    <path class="st1" d="M153.06,38.84c0,.39-.32.71-.71.71s-.71-.32-.71-.71.32-.71.71-.71.71.32.71.71Z"/>
    <path class="st1" d="M155.89,38.84c0,.39-.32.71-.71.71s-.71-.32-.71-.71.32-.71.71-.71.71.32.71.71Z"/>
    <path class="st1" d="M158.73,38.84c0,.39-.32.71-.71.71s-.71-.32-.71-.71.32-.71.71-.71.71.32.71.71Z"/>
    <path class="st1" d="M161.56,38.84c0,.39-.32.71-.71.71s-.71-.32-.71-.71.32-.71.71-.71.71.32.71.71Z"/>
    <path class="st1" d="M164.4,38.84c0,.39-.32.71-.71.71s-.71-.32-.71-.71.32-.71.71-.71.71.32.71.71Z"/>
    <path class="st1" d="M167.23,38.84c0,.39-.32.71-.71.71s-.71-.32-.71-.71.32-.71.71-.71.71.32.71.71Z"/>
    <path class="st1" d="M170.06,38.84c0,.39-.32.71-.71.71s-.71-.32-.71-.71.32-.71.71-.71.71.32.71.71Z"/>
    <path class="st1" d="M172.9,38.84c0,.39-.32.71-.71.71s-.71-.32-.71-.71.32-.71.71-.71.71.32.71.71Z"/>
    <path class="st1" d="M175.73,38.84c0,.39-.32.71-.71.71s-.71-.32-.71-.71.32-.71.71-.71.71.32.71.71Z"/>
    <path class="st1" d="M178.57,38.84c0,.39-.32.71-.71.71s-.71-.32-.71-.71.32-.71.71-.71.71.32.71.71Z"/>
    <path class="st1" d="M181.4,38.84c0,.39-.32.71-.71.71s-.71-.32-.71-.71.32-.71.71-.71.71.32.71.71Z"/>
    <path class="st1" d="M184.23,38.84c0,.39-.32.71-.71.71s-.71-.32-.71-.71.32-.71.71-.71.71.32.71.71Z"/>
    <path class="st1" d="M187.07,38.84c0,.39-.32.71-.71.71s-.71-.32-.71-.71.32-.71.71-.71.71.32.71.71Z"/>
    <path class="st1" d="M189.9,38.84c0,.39-.32.71-.71.71s-.71-.32-.71-.71.32-.71.71-.71.71.32.71.71Z"/>
    <path class="st1" d="M192.74,38.84c0,.39-.32.71-.71.71s-.71-.32-.71-.71.32-.71.71-.71.71.32.71.71Z"/>
    <path class="st1" d="M195.57,38.84c0,.39-.32.71-.71.71s-.71-.32-.71-.71.32-.71.71-.71.71.32.71.71Z"/>
    <path class="st1" d="M198.4,38.84c0,.39-.32.71-.71.71s-.71-.32-.71-.71.32-.71.71-.71.71.32.71.71Z"/>
    <path class="st1" d="M201.24,38.84c0,.39-.32.71-.71.71s-.71-.32-.71-.71.32-.71.71-.71.71.32.71.71Z"/>
    <path class="st1" d="M204.07,38.84c0,.39-.32.71-.71.71s-.71-.32-.71-.71.32-.71.71-.71.71.32.71.71Z"/>
    <path class="st1" d="M206.91,38.84c0,.39-.32.71-.71.71s-.71-.32-.71-.71.32-.71.71-.71.71.32.71.71Z"/>
    <path class="st1" d="M209.74,38.84c0,.39-.32.71-.71.71s-.71-.32-.71-.71.32-.71.71-.71.71.32.71.71Z"/>
    <path class="st1" d="M212.57,38.84c0,.39-.32.71-.71.71s-.71-.32-.71-.71.32-.71.71-.71.71.32.71.71Z"/>
    <path class="st1" d="M215.41,38.84c0,.39-.32.71-.71.71s-.71-.32-.71-.71.32-.71.71-.71.71.32.71.71Z"/>
    <path class="st1" d="M218.24,38.84c0,.39-.32.71-.71.71s-.71-.32-.71-.71.32-.71.71-.71.71.32.71.71Z"/>
    <path class="st1" d="M221.08,38.84c0,.39-.32.71-.71.71s-.71-.32-.71-.71.32-.71.71-.71.71.32.71.71Z"/>
    <path class="st1" d="M223.91,38.84c0,.39-.32.71-.71.71s-.71-.32-.71-.71.32-.71.71-.71.71.32.71.71Z"/>
    <path class="st1" d="M226.74,38.84c0,.39-.32.71-.71.71s-.71-.32-.71-.71.32-.71.71-.71.71.32.71.71Z"/>
    <path class="st1" d="M229.58,38.84c0,.39-.32.71-.71.71s-.71-.32-.71-.71.32-.71.71-.71.71.32.71.71Z"/>
  </g>
  <g>
    <line class="st0" x1="26.93" y1="53.01" x2="31.18" y2="53.01"/>
    <line class="st0" x1="32.6" y1="53.01" x2="36.85" y2="53.01"/>
    <line class="st0" x1="38.27" y1="53.01" x2="42.52" y2="53.01"/>
    <line class="st0" x1="43.94" y1="53.01" x2="48.19" y2="53.01"/>
    <line class="st0" x1="49.61" y1="53.01" x2="53.86" y2="53.01"/>
    <line class="st0" x1="55.28" y1="53.01" x2="59.53" y2="53.01"/>
    <line class="st0" x1="60.95" y1="53.01" x2="65.2" y2="53.01"/>
    <line class="st0" x1="66.62" y1="53.01" x2="70.87" y2="53.01"/>
    <line class="st0" x1="72.29" y1="53.01" x2="76.54" y2="53.01"/>
    <line class="st0" x1="77.96" y1="53.01" x2="82.21" y2="53.01"/>
    <line class="st0" x1="83.63" y1="53.01" x2="87.88" y2="53.01"/>
    <line class="st0" x1="89.3" y1="53.01" x2="93.55" y2="53.01"/>
    <line class="st0" x1="94.97" y1="53.01" x2="99.22" y2="53.01"/>
    <line class="st0" x1="100.64" y1="53.01" x2="104.89" y2="53.01"/>
    <line class="st0" x1="106.31" y1="53.01" x2="110.56" y2="53.01"/>
    <line class="st0" x1="111.98" y1="53.01" x2="116.23" y2="53.01"/>
    <line class="st0" x1="117.65" y1="53.01" x2="121.9" y2="53.01"/>
    <line class="st0" x1="123.32" y1="53.01" x2="127.57" y2="53.01"/>
    <line class="st0" x1="128.99" y1="53.01" x2="133.24" y2="53.01"/>
    <line class="st0" x1="134.66" y1="53.01" x2="138.91" y2="53.01"/>
    <line class="st0" x1="140.33" y1="53.01" x2="144.58" y2="53.01"/>
    <line class="st0" x1="146" y1="53.01" x2="150.25" y2="53.01"/>
    <line class="st0" x1="151.67" y1="53.01" x2="155.92" y2="53.01"/>
    <line class="st0" x1="157.34" y1="53.01" x2="161.59" y2="53.01"/>
    <line class="st0" x1="163.01" y1="53.01" x2="167.26" y2="53.01"/>
    <line class="st0" x1="168.68" y1="53.01" x2="172.93" y2="53.01"/>
    <line class="st0" x1="174.35" y1="53.01" x2="178.6" y2="53.01"/>
    <line class="st0" x1="180.02" y1="53.01" x2="184.27" y2="53.01"/>
    <line class="st0" x1="185.69" y1="53.01" x2="189.94" y2="53.01"/>
    <line class="st0" x1="191.36" y1="53.01" x2="195.61" y2="53.01"/>
    <line class="st0" x1="197.03" y1="53.01" x2="201.28" y2="53.01"/>
    <line class="st0" x1="202.7" y1="53.01" x2="206.95" y2="53.01"/>
    <line class="st0" x1="208.37" y1="53.01" x2="212.62" y2="53.01"/>
    <line class="st0" x1="214.04" y1="53.01" x2="218.29" y2="53.01"/>
    <line class="st0" x1="219.71" y1="53.01" x2="223.96" y2="53.01"/>
    <line class="st0" x1="225.38" y1="53.01" x2="229.63" y2="53.01"/>
  </g>
  <path class="st1" d="M34.02,67.19c0,.39-.32.71-.71.71s-.71-.32-.71-.71.32-.71.71-.71.71.32.71.71Z"/>
  <line class="st0" x1="26.93" y1="67.19" x2="31.18" y2="67.19"/>
  <path class="st1" d="M42.52,67.19c0,.39-.32.71-.71.71s-.71-.32-.71-.71.32-.71.71-.71.71.32.71.71Z"/>
  <line class="st0" x1="35.43" y1="67.19" x2="39.68" y2="67.19"/>
  <path class="st1" d="M51.02,67.19c0,.39-.32.71-.71.71s-.71-.32-.71-.71.32-.71.71-.71.71.32.71.71Z"/>
  <line class="st0" x1="43.94" y1="67.19" x2="48.19" y2="67.19"/>
  <path class="st1" d="M59.53,67.19c0,.39-.32.71-.71.71s-.71-.32-.71-.71.32-.71.71-.71.71.32.71.71Z"/>
  <line class="st0" x1="52.44" y1="67.19" x2="56.69" y2="67.19"/>
  <path class="st1" d="M68.03,67.19c0,.39-.32.71-.71.71s-.71-.32-.71-.71.32-.71.71-.71.71.32.71.71Z"/>
  <line class="st0" x1="60.94" y1="67.19" x2="65.2" y2="67.19"/>
  <path class="st1" d="M76.54,67.19c0,.39-.32.71-.71.71s-.71-.32-.71-.71.32-.71.71-.71.71.32.71.71Z"/>
  <line class="st0" x1="69.45" y1="67.19" x2="73.7" y2="67.19"/>
  <path class="st1" d="M85.04,67.19c0,.39-.32.71-.71.71s-.71-.32-.71-.71.32-.71.71-.71.71.32.71.71Z"/>
  <line class="st0" x1="77.95" y1="67.19" x2="82.2" y2="67.19"/>
  <path class="st1" d="M93.54,67.19c0,.39-.32.71-.71.71s-.71-.32-.71-.71.32-.71.71-.71.71.32.71.71Z"/>
  <line class="st0" x1="86.46" y1="67.19" x2="90.71" y2="67.19"/>
  <path class="st1" d="M102.05,67.19c0,.39-.32.71-.71.71s-.71-.32-.71-.71.32-.71.71-.71.71.32.71.71Z"/>
  <line class="st0" x1="94.96" y1="67.19" x2="99.21" y2="67.19"/>
  <path class="st1" d="M110.55,67.19c0,.39-.32.71-.71.71s-.71-.32-.71-.71.32-.71.71-.71.71.32.71.71Z"/>
  <line class="st0" x1="103.46" y1="67.19" x2="107.72" y2="67.19"/>
  <path class="st1" d="M119.05,67.19c0,.39-.32.71-.71.71s-.71-.32-.71-.71.32-.71.71-.71.71.32.71.71Z"/>
  <line class="st0" x1="111.97" y1="67.19" x2="116.22" y2="67.19"/>
  <path class="st1" d="M127.56,67.19c0,.39-.32.71-.71.71s-.71-.32-.71-.71.32-.71.71-.71.71.32.71.71Z"/>
  <line class="st0" x1="120.47" y1="67.19" x2="124.72" y2="67.19"/>
  <path class="st1" d="M136.06,67.19c0,.39-.32.71-.71.71s-.71-.32-.71-.71.32-.71.71-.71.71.32.71.71Z"/>
  <line class="st0" x1="128.98" y1="67.19" x2="133.23" y2="67.19"/>
  <path class="st1" d="M144.57,67.19c0,.39-.32.71-.71.71s-.71-.32-.71-.71.32-.71.71-.71.71.32.71.71Z"/>
  <line class="st0" x1="137.48" y1="67.19" x2="141.73" y2="67.19"/>
  <path class="st1" d="M153.07,67.19c0,.39-.32.71-.71.71s-.71-.32-.71-.71.32-.71.71-.71.71.32.71.71Z"/>
  <line class="st0" x1="145.98" y1="67.19" x2="150.24" y2="67.19"/>
  <path class="st1" d="M161.57,67.19c0,.39-.32.71-.71.71s-.71-.32-.71-.71.32-.71.71-.71.71.32.71.71Z"/>
  <line class="st0" x1="154.49" y1="67.19" x2="158.74" y2="67.19"/>
  <path class="st1" d="M170.08,67.19c0,.39-.32.71-.71.71s-.71-.32-.71-.71.32-.71.71-.71.71.32.71.71Z"/>
  <line class="st0" x1="162.99" y1="67.19" x2="167.24" y2="67.19"/>
  <path class="st1" d="M178.58,67.19c0,.39-.32.71-.71.71s-.71-.32-.71-.71.32-.71.71-.71.71.32.71.71Z"/>
  <line class="st0" x1="171.5" y1="67.19" x2="175.75" y2="67.19"/>
  <path class="st1" d="M187.09,67.19c0,.39-.32.71-.71.71s-.71-.32-.71-.71.32-.71.71-.71.71.32.71.71Z"/>
  <line class="st0" x1="180" y1="67.19" x2="184.25" y2="67.19"/>
  <path class="st1" d="M195.59,67.19c0,.39-.32.71-.71.71s-.71-.32-.71-.71.32-.71.71-.71.71.32.71.71Z"/>
  <line class="st0" x1="188.5" y1="67.19" x2="192.75" y2="67.19"/>
  <path class="st1" d="M204.09,67.19c0,.39-.32.71-.71.71s-.71-.32-.71-.71.32-.71.71-.71.71.32.71.71Z"/>
  <line class="st0" x1="197.01" y1="67.19" x2="201.26" y2="67.19"/>
  <path class="st1" d="M212.6,67.19c0,.39-.32.71-.71.71s-.71-.32-.71-.71.32-.71.71-.71.71.32.71.71Z"/>
  <line class="st0" x1="205.51" y1="67.19" x2="209.76" y2="67.19"/>
  <path class="st1" d="M221.1,67.19c0,.39-.32.71-.71.71s-.71-.32-.71-.71.32-.71.71-.71.71.32.71.71Z"/>
  <line class="st0" x1="214.02" y1="67.19" x2="218.27" y2="67.19"/>
  <path class="st1" d="M229.61,67.19c0,.39-.32.71-.71.71s-.71-.32-.71-.71.32-.71.71-.71.71.32.71.71Z"/>
  <line class="st0" x1="222.52" y1="67.19" x2="226.77" y2="67.19"/>
</svg>