<?xml version="1.0" encoding="UTF-8"?>
<svg id="Ebene_2" xmlns="http://www.w3.org/2000/svg" version="1.1" viewBox="0 0 311.81 70.87">
  <!-- Generator: Adobe Illustrator 29.1.0, SVG Export Plug-In . SVG Version: 2.1.0 Build 142)  -->
  <defs>
    <style>
      .st0 {
        fill: none;
        stroke: #1d1d1b;
        stroke-miterlimit: 10;
        stroke-width: .9px;
      }

      .st1, .st2 {
        fill: #1d1d1b;
      }

      .st2 {
        font-family: Helvetica, Helvetica;
        font-size: 8px;
      }
    </style>
  </defs>
  <g>
    <path class="st1" d="M15.59,14.88c0,.39-.32.71-.71.71s-.71-.32-.71-.71.32-.71.71-.71.71.32.71.71Z"/>
    <path class="st1" d="M18.43,14.88c0,.39-.32.71-.71.71s-.71-.32-.71-.71.32-.71.71-.71.71.32.71.71Z"/>
    <path class="st1" d="M21.26,14.88c0,.39-.32.71-.71.71s-.71-.32-.71-.71.32-.71.71-.71.71.32.71.71Z"/>
    <path class="st1" d="M24.09,14.88c0,.39-.32.71-.71.71s-.71-.32-.71-.71.32-.71.71-.71.71.32.71.71Z"/>
    <path class="st1" d="M26.93,14.88c0,.39-.32.71-.71.71s-.71-.32-.71-.71.32-.71.71-.71.71.32.71.71Z"/>
    <path class="st1" d="M29.76,14.88c0,.39-.32.71-.71.71s-.71-.32-.71-.71.32-.71.71-.71.71.32.71.71Z"/>
    <path class="st1" d="M32.6,14.88c0,.39-.32.71-.71.71s-.71-.32-.71-.71.32-.71.71-.71.71.32.71.71Z"/>
    <path class="st1" d="M35.43,14.88c0,.39-.32.71-.71.71s-.71-.32-.71-.71.32-.71.71-.71.71.32.71.71Z"/>
    <path class="st1" d="M38.27,14.88c0,.39-.32.71-.71.71s-.71-.32-.71-.71.32-.71.71-.71.71.32.71.71Z"/>
    <path class="st1" d="M41.1,14.88c0,.39-.32.71-.71.71s-.71-.32-.71-.71.32-.71.71-.71.71.32.71.71Z"/>
    <path class="st1" d="M43.94,14.88c0,.39-.32.71-.71.71s-.71-.32-.71-.71.32-.71.71-.71.71.32.71.71Z"/>
    <path class="st1" d="M46.77,14.88c0,.39-.32.71-.71.71s-.71-.32-.71-.71.32-.71.71-.71.71.32.71.71Z"/>
    <path class="st1" d="M49.6,14.88c0,.39-.32.71-.71.71s-.71-.32-.71-.71.32-.71.71-.71.71.32.71.71Z"/>
    <path class="st1" d="M52.44,14.88c0,.39-.32.71-.71.71s-.71-.32-.71-.71.32-.71.71-.71.71.32.71.71Z"/>
    <path class="st1" d="M55.27,14.88c0,.39-.32.71-.71.71s-.71-.32-.71-.71.32-.71.71-.71.71.32.71.71Z"/>
    <path class="st1" d="M58.11,14.88c0,.39-.32.71-.71.71s-.71-.32-.71-.71.32-.71.71-.71.71.32.71.71Z"/>
    <path class="st1" d="M60.94,14.88c0,.39-.32.71-.71.71s-.71-.32-.71-.71.32-.71.71-.71.71.32.71.71Z"/>
    <path class="st1" d="M63.78,14.88c0,.39-.32.71-.71.71s-.71-.32-.71-.71.32-.71.71-.71.71.32.71.71Z"/>
    <path class="st1" d="M66.61,14.88c0,.39-.32.71-.71.71s-.71-.32-.71-.71.32-.71.71-.71.71.32.71.71Z"/>
    <path class="st1" d="M69.45,14.88c0,.39-.32.71-.71.71s-.71-.32-.71-.71.32-.71.71-.71.71.32.71.71Z"/>
    <path class="st1" d="M72.28,14.88c0,.39-.32.71-.71.71s-.71-.32-.71-.71.32-.71.71-.71.71.32.71.71Z"/>
    <path class="st1" d="M75.11,14.88c0,.39-.32.71-.71.71s-.71-.32-.71-.71.32-.71.71-.71.71.32.71.71Z"/>
    <path class="st1" d="M77.95,14.88c0,.39-.32.71-.71.71s-.71-.32-.71-.71.32-.71.71-.71.71.32.71.71Z"/>
    <path class="st1" d="M80.78,14.88c0,.39-.32.71-.71.71s-.71-.32-.71-.71.32-.71.71-.71.71.32.71.71Z"/>
    <path class="st1" d="M83.62,14.88c0,.39-.32.71-.71.71s-.71-.32-.71-.71.32-.71.71-.71.71.32.71.71Z"/>
    <path class="st1" d="M86.45,14.88c0,.39-.32.71-.71.71s-.71-.32-.71-.71.32-.71.71-.71.71.32.71.71Z"/>
    <path class="st1" d="M89.29,14.88c0,.39-.32.71-.71.71s-.71-.32-.71-.71.32-.71.71-.71.71.32.71.71Z"/>
    <path class="st1" d="M92.12,14.88c0,.39-.32.71-.71.71s-.71-.32-.71-.71.32-.71.71-.71.71.32.71.71Z"/>
    <path class="st1" d="M94.96,14.88c0,.39-.32.71-.71.71s-.71-.32-.71-.71.32-.71.71-.71.71.32.71.71Z"/>
    <path class="st1" d="M97.79,14.88c0,.39-.32.71-.71.71s-.71-.32-.71-.71.32-.71.71-.71.71.32.71.71Z"/>
    <path class="st1" d="M100.62,14.88c0,.39-.32.71-.71.71s-.71-.32-.71-.71.32-.71.71-.71.71.32.71.71Z"/>
    <path class="st1" d="M103.46,14.88c0,.39-.32.71-.71.71s-.71-.32-.71-.71.32-.71.71-.71.71.32.71.71Z"/>
    <path class="st1" d="M106.29,14.88c0,.39-.32.71-.71.71s-.71-.32-.71-.71.32-.71.71-.71.71.32.71.71Z"/>
    <path class="st1" d="M109.13,14.88c0,.39-.32.71-.71.71s-.71-.32-.71-.71.32-.71.71-.71.71.32.71.71Z"/>
    <path class="st1" d="M111.96,14.88c0,.39-.32.71-.71.71s-.71-.32-.71-.71.32-.71.71-.71.71.32.71.71Z"/>
    <path class="st1" d="M114.8,14.88c0,.39-.32.71-.71.71s-.71-.32-.71-.71.32-.71.71-.71.71.32.71.71Z"/>
    <path class="st1" d="M117.63,14.88c0,.39-.32.71-.71.71s-.71-.32-.71-.71.32-.71.71-.71.71.32.71.71Z"/>
    <path class="st1" d="M120.47,14.88c0,.39-.32.71-.71.71s-.71-.32-.71-.71.32-.71.71-.71.71.32.71.71Z"/>
    <path class="st1" d="M123.3,14.88c0,.39-.32.71-.71.71s-.71-.32-.71-.71.32-.71.71-.71.71.32.71.71Z"/>
    <path class="st1" d="M126.13,14.88c0,.39-.32.71-.71.71s-.71-.32-.71-.71.32-.71.71-.71.71.32.71.71Z"/>
    <path class="st1" d="M128.97,14.88c0,.39-.32.71-.71.71s-.71-.32-.71-.71.32-.71.71-.71.71.32.71.71Z"/>
    <path class="st1" d="M131.8,14.88c0,.39-.32.71-.71.71s-.71-.32-.71-.71.32-.71.71-.71.71.32.71.71Z"/>
    <path class="st1" d="M134.64,14.88c0,.39-.32.71-.71.71s-.71-.32-.71-.71.32-.71.71-.71.71.32.71.71Z"/>
    <path class="st1" d="M137.47,14.88c0,.39-.32.71-.71.71s-.71-.32-.71-.71.32-.71.71-.71.71.32.71.71Z"/>
    <path class="st1" d="M140.3,14.88c0,.39-.32.71-.71.71s-.71-.32-.71-.71.32-.71.71-.71.71.32.71.71Z"/>
    <path class="st1" d="M143.14,14.88c0,.39-.32.71-.71.71s-.71-.32-.71-.71.32-.71.71-.71.71.32.71.71Z"/>
    <path class="st1" d="M145.97,14.88c0,.39-.32.71-.71.71s-.71-.32-.71-.71.32-.71.71-.71.71.32.71.71Z"/>
    <path class="st1" d="M148.81,14.88c0,.39-.32.71-.71.71s-.71-.32-.71-.71.32-.71.71-.71.71.32.71.71Z"/>
    <path class="st1" d="M151.64,14.88c0,.39-.32.71-.71.71s-.71-.32-.71-.71.32-.71.71-.71.71.32.71.71Z"/>
    <path class="st1" d="M154.47,14.88c0,.39-.32.71-.71.71s-.71-.32-.71-.71.32-.71.71-.71.71.32.71.71Z"/>
    <path class="st1" d="M157.31,14.88c0,.39-.32.71-.71.71s-.71-.32-.71-.71.32-.71.71-.71.71.32.71.71Z"/>
    <path class="st1" d="M160.14,14.88c0,.39-.32.71-.71.71s-.71-.32-.71-.71.32-.71.71-.71.71.32.71.71Z"/>
    <path class="st1" d="M162.98,14.88c0,.39-.32.71-.71.71s-.71-.32-.71-.71.32-.71.71-.71.71.32.71.71Z"/>
    <path class="st1" d="M165.81,14.88c0,.39-.32.71-.71.71s-.71-.32-.71-.71.32-.71.71-.71.71.32.71.71Z"/>
    <path class="st1" d="M168.64,14.88c0,.39-.32.71-.71.71s-.71-.32-.71-.71.32-.71.71-.71.71.32.71.71Z"/>
    <path class="st1" d="M171.48,14.88c0,.39-.32.71-.71.71s-.71-.32-.71-.71.32-.71.71-.71.71.32.71.71Z"/>
    <path class="st1" d="M174.31,14.88c0,.39-.32.71-.71.71s-.71-.32-.71-.71.32-.71.71-.71.71.32.71.71Z"/>
    <path class="st1" d="M177.15,14.88c0,.39-.32.71-.71.71s-.71-.32-.71-.71.32-.71.71-.71.71.32.71.71Z"/>
    <path class="st1" d="M179.98,14.88c0,.39-.32.71-.71.71s-.71-.32-.71-.71.32-.71.71-.71.71.32.71.71Z"/>
    <path class="st1" d="M182.81,14.88c0,.39-.32.71-.71.71s-.71-.32-.71-.71.32-.71.71-.71.71.32.71.71Z"/>
    <path class="st1" d="M185.65,14.88c0,.39-.32.71-.71.71s-.71-.32-.71-.71.32-.71.71-.71.71.32.71.71Z"/>
    <path class="st1" d="M188.48,14.88c0,.39-.32.71-.71.71s-.71-.32-.71-.71.32-.71.71-.71.71.32.71.71Z"/>
    <path class="st1" d="M191.32,14.88c0,.39-.32.71-.71.71s-.71-.32-.71-.71.32-.71.71-.71.71.32.71.71Z"/>
    <path class="st1" d="M194.15,14.88c0,.39-.32.71-.71.71s-.71-.32-.71-.71.32-.71.71-.71.71.32.71.71Z"/>
    <path class="st1" d="M196.98,14.88c0,.39-.32.71-.71.71s-.71-.32-.71-.71.32-.71.71-.71.71.32.71.71Z"/>
    <path class="st1" d="M199.82,14.88c0,.39-.32.71-.71.71s-.71-.32-.71-.71.32-.71.71-.71.71.32.71.71Z"/>
    <path class="st1" d="M202.65,14.88c0,.39-.32.71-.71.71s-.71-.32-.71-.71.32-.71.71-.71.71.32.71.71Z"/>
    <path class="st1" d="M205.49,14.88c0,.39-.32.71-.71.71s-.71-.32-.71-.71.32-.71.71-.71.71.32.71.71Z"/>
    <path class="st1" d="M208.32,14.88c0,.39-.32.71-.71.71s-.71-.32-.71-.71.32-.71.71-.71.71.32.71.71Z"/>
    <path class="st1" d="M211.15,14.88c0,.39-.32.71-.71.71s-.71-.32-.71-.71.32-.71.71-.71.71.32.71.71Z"/>
    <path class="st1" d="M213.99,14.88c0,.39-.32.71-.71.71s-.71-.32-.71-.71.32-.71.71-.71.71.32.71.71Z"/>
    <path class="st1" d="M216.82,14.88c0,.39-.32.71-.71.71s-.71-.32-.71-.71.32-.71.71-.71.71.32.71.71Z"/>
  </g>
  <g>
    <line class="st0" x1="14.17" y1="29.06" x2="18.42" y2="29.06"/>
    <line class="st0" x1="19.84" y1="29.06" x2="24.09" y2="29.06"/>
    <line class="st0" x1="25.51" y1="29.06" x2="29.76" y2="29.06"/>
    <line class="st0" x1="31.18" y1="29.06" x2="35.43" y2="29.06"/>
    <line class="st0" x1="36.85" y1="29.06" x2="41.1" y2="29.06"/>
    <line class="st0" x1="42.52" y1="29.06" x2="46.77" y2="29.06"/>
    <line class="st0" x1="48.19" y1="29.06" x2="52.44" y2="29.06"/>
    <line class="st0" x1="53.86" y1="29.06" x2="58.11" y2="29.06"/>
    <line class="st0" x1="59.53" y1="29.06" x2="63.78" y2="29.06"/>
    <line class="st0" x1="65.2" y1="29.06" x2="69.45" y2="29.06"/>
    <line class="st0" x1="70.87" y1="29.06" x2="75.12" y2="29.06"/>
    <line class="st0" x1="76.54" y1="29.06" x2="80.79" y2="29.06"/>
    <line class="st0" x1="82.21" y1="29.06" x2="86.46" y2="29.06"/>
    <line class="st0" x1="87.88" y1="29.06" x2="92.13" y2="29.06"/>
    <line class="st0" x1="93.55" y1="29.06" x2="97.8" y2="29.06"/>
    <line class="st0" x1="99.22" y1="29.06" x2="103.47" y2="29.06"/>
    <line class="st0" x1="104.89" y1="29.06" x2="109.14" y2="29.06"/>
    <line class="st0" x1="110.56" y1="29.06" x2="114.81" y2="29.06"/>
    <line class="st0" x1="116.23" y1="29.06" x2="120.48" y2="29.06"/>
    <line class="st0" x1="121.9" y1="29.06" x2="126.15" y2="29.06"/>
    <line class="st0" x1="127.57" y1="29.06" x2="131.82" y2="29.06"/>
    <line class="st0" x1="133.24" y1="29.06" x2="137.49" y2="29.06"/>
    <line class="st0" x1="138.91" y1="29.06" x2="143.16" y2="29.06"/>
    <line class="st0" x1="144.58" y1="29.06" x2="148.83" y2="29.06"/>
    <line class="st0" x1="150.25" y1="29.06" x2="154.5" y2="29.06"/>
    <line class="st0" x1="155.92" y1="29.06" x2="160.17" y2="29.06"/>
    <line class="st0" x1="161.59" y1="29.06" x2="165.84" y2="29.06"/>
    <line class="st0" x1="167.26" y1="29.06" x2="171.51" y2="29.06"/>
    <line class="st0" x1="172.93" y1="29.06" x2="177.18" y2="29.06"/>
    <line class="st0" x1="178.6" y1="29.06" x2="182.85" y2="29.06"/>
    <line class="st0" x1="184.27" y1="29.06" x2="188.52" y2="29.06"/>
    <line class="st0" x1="189.94" y1="29.06" x2="194.19" y2="29.06"/>
    <line class="st0" x1="195.61" y1="29.06" x2="199.86" y2="29.06"/>
    <line class="st0" x1="201.28" y1="29.06" x2="205.53" y2="29.06"/>
    <line class="st0" x1="206.95" y1="29.06" x2="211.2" y2="29.06"/>
    <line class="st0" x1="212.62" y1="29.06" x2="216.87" y2="29.06"/>
  </g>
  <path class="st1" d="M21.26,43.23c0,.39-.32.71-.71.71s-.71-.32-.71-.71.32-.71.71-.71.71.32.71.71Z"/>
  <line class="st0" x1="14.17" y1="43.23" x2="18.42" y2="43.23"/>
  <path class="st1" d="M29.76,43.23c0,.39-.32.71-.71.71s-.71-.32-.71-.71.32-.71.71-.71.71.32.71.71Z"/>
  <line class="st0" x1="22.68" y1="43.23" x2="26.93" y2="43.23"/>
  <path class="st1" d="M38.27,43.23c0,.39-.32.71-.71.71s-.71-.32-.71-.71.32-.71.71-.71.71.32.71.71Z"/>
  <line class="st0" x1="31.18" y1="43.23" x2="35.43" y2="43.23"/>
  <path class="st1" d="M46.77,43.23c0,.39-.32.71-.71.71s-.71-.32-.71-.71.32-.71.71-.71.71.32.71.71Z"/>
  <line class="st0" x1="39.68" y1="43.23" x2="43.94" y2="43.23"/>
  <path class="st1" d="M55.28,43.23c0,.39-.32.71-.71.71s-.71-.32-.71-.71.32-.71.71-.71.71.32.71.71Z"/>
  <line class="st0" x1="48.19" y1="43.23" x2="52.44" y2="43.23"/>
  <path class="st1" d="M63.78,43.23c0,.39-.32.71-.71.71s-.71-.32-.71-.71.32-.71.71-.71.71.32.71.71Z"/>
  <line class="st0" x1="56.69" y1="43.23" x2="60.94" y2="43.23"/>
  <path class="st1" d="M72.28,43.23c0,.39-.32.71-.71.71s-.71-.32-.71-.71.32-.71.71-.71.71.32.71.71Z"/>
  <line class="st0" x1="65.2" y1="43.23" x2="69.45" y2="43.23"/>
  <path class="st1" d="M80.79,43.23c0,.39-.32.71-.71.71s-.71-.32-.71-.71.32-.71.71-.71.71.32.71.71Z"/>
  <line class="st0" x1="73.7" y1="43.23" x2="77.95" y2="43.23"/>
  <path class="st1" d="M89.29,43.23c0,.39-.32.71-.71.71s-.71-.32-.71-.71.32-.71.71-.71.71.32.71.71Z"/>
  <line class="st0" x1="82.2" y1="43.23" x2="86.46" y2="43.23"/>
  <path class="st1" d="M97.79,43.23c0,.39-.32.71-.71.71s-.71-.32-.71-.71.32-.71.71-.71.71.32.71.71Z"/>
  <line class="st0" x1="90.71" y1="43.23" x2="94.96" y2="43.23"/>
  <path class="st1" d="M106.3,43.23c0,.39-.32.71-.71.71s-.71-.32-.71-.71.32-.71.71-.71.71.32.71.71Z"/>
  <line class="st0" x1="99.21" y1="43.23" x2="103.46" y2="43.23"/>
  <path class="st1" d="M114.8,43.23c0,.39-.32.71-.71.71s-.71-.32-.71-.71.32-.71.71-.71.71.32.71.71Z"/>
  <line class="st0" x1="107.72" y1="43.23" x2="111.97" y2="43.23"/>
  <path class="st1" d="M123.31,43.23c0,.39-.32.71-.71.71s-.71-.32-.71-.71.32-.71.71-.71.71.32.71.71Z"/>
  <line class="st0" x1="116.22" y1="43.23" x2="120.47" y2="43.23"/>
  <path class="st1" d="M131.81,43.23c0,.39-.32.71-.71.71s-.71-.32-.71-.71.32-.71.71-.71.71.32.71.71Z"/>
  <line class="st0" x1="124.72" y1="43.23" x2="128.98" y2="43.23"/>
  <path class="st1" d="M140.31,43.23c0,.39-.32.71-.71.71s-.71-.32-.71-.71.32-.71.71-.71.71.32.71.71Z"/>
  <line class="st0" x1="133.23" y1="43.23" x2="137.48" y2="43.23"/>
  <path class="st1" d="M148.82,43.23c0,.39-.32.71-.71.71s-.71-.32-.71-.71.32-.71.71-.71.71.32.71.71Z"/>
  <line class="st0" x1="141.73" y1="43.23" x2="145.98" y2="43.23"/>
  <path class="st1" d="M157.32,43.23c0,.39-.32.71-.71.71s-.71-.32-.71-.71.32-.71.71-.71.71.32.71.71Z"/>
  <line class="st0" x1="150.24" y1="43.23" x2="154.49" y2="43.23"/>
  <path class="st1" d="M165.83,43.23c0,.39-.32.71-.71.71s-.71-.32-.71-.71.32-.71.71-.71.71.32.71.71Z"/>
  <line class="st0" x1="158.74" y1="43.23" x2="162.99" y2="43.23"/>
  <path class="st1" d="M174.33,43.23c0,.39-.32.71-.71.71s-.71-.32-.71-.71.32-.71.71-.71.71.32.71.71Z"/>
  <line class="st0" x1="167.24" y1="43.23" x2="171.5" y2="43.23"/>
  <path class="st1" d="M182.83,43.23c0,.39-.32.71-.71.71s-.71-.32-.71-.71.32-.71.71-.71.71.32.71.71Z"/>
  <line class="st0" x1="175.75" y1="43.23" x2="180" y2="43.23"/>
  <path class="st1" d="M191.34,43.23c0,.39-.32.71-.71.71s-.71-.32-.71-.71.32-.71.71-.71.71.32.71.71Z"/>
  <line class="st0" x1="184.25" y1="43.23" x2="188.5" y2="43.23"/>
  <path class="st1" d="M199.84,43.23c0,.39-.32.71-.71.71s-.71-.32-.71-.71.32-.71.71-.71.71.32.71.71Z"/>
  <line class="st0" x1="192.76" y1="43.23" x2="197.01" y2="43.23"/>
  <path class="st1" d="M208.35,43.23c0,.39-.32.71-.71.71s-.71-.32-.71-.71.32-.71.71-.71.71.32.71.71Z"/>
  <line class="st0" x1="201.26" y1="43.23" x2="205.51" y2="43.23"/>
  <path class="st1" d="M216.85,43.23c0,.39-.32.71-.71.71s-.71-.32-.71-.71.32-.71.71-.71.71.32.71.71Z"/>
  <line class="st0" x1="209.76" y1="43.23" x2="214.02" y2="43.23"/>
  <text class="st2" transform="translate(116.02 62.45)"><tspan x="0" y="0">10</tspan></text>
  <text class="st2" transform="translate(226.77 16.92)"><tspan x="0" y="0">a</tspan></text>
  <text class="st2" transform="translate(226.77 31.1)"><tspan x="0" y="0">b</tspan></text>
  <text class="st2" transform="translate(226.77 45.27)"><tspan x="0" y="0">c</tspan></text>
</svg>