<?xml version="1.0" encoding="UTF-8"?>
<svg xmlns="http://www.w3.org/2000/svg" version="1.1" viewBox="0 0 6 1139.86">
  <!-- Generator: Adobe Illustrator 29.1.0, SVG Export Plug-In . SVG Version: 2.1.0 Build 142)  -->
  <defs>
    <style>
      .st0 {
        stroke: #1d1d1b;
        stroke-linecap: round;
        stroke-miterlimit: 10;
        stroke-width: 6px;
      }

      .st0, .st1 {
        fill: #1d1d1b;
      }

      .st2 {
        display: none;
      }
    </style>
  </defs>
  <g id="Punkte_x5F_gross" class="st2">
    <path class="st1" d="M-542.67,569.93c0,11.74-9.52,21.26-21.26,21.26s-21.26-9.52-21.26-21.26,9.52-21.26,21.26-21.26,21.26,9.52,21.26,21.26Z"/>
    <path class="st1" d="M-1109.6,569.93c0,11.74-9.52,21.26-21.26,21.26s-21.26-9.52-21.26-21.26,9.52-21.26,21.26-21.26,21.26,9.52,21.26,21.26Z"/>
    <path class="st1" d="M-920.62,569.93c0,11.74-9.52,21.26-21.26,21.26s-21.26-9.52-21.26-21.26,9.52-21.26,21.26-21.26,21.26,9.52,21.26,21.26Z"/>
    <path class="st1" d="M-731.65,569.93c0,11.74-9.52,21.26-21.26,21.26s-21.26-9.52-21.26-21.26,9.52-21.26,21.26-21.26,21.26,9.52,21.26,21.26Z"/>
    <path class="st1" d="M-542.67,380.95c0,11.74-9.52,21.26-21.26,21.26s-21.26-9.52-21.26-21.26,9.52-21.26,21.26-21.26,21.26,9.52,21.26,21.26Z"/>
    <path class="st1" d="M-1109.6,380.95c0,11.74-9.52,21.26-21.26,21.26s-21.26-9.52-21.26-21.26,9.52-21.26,21.26-21.26,21.26,9.52,21.26,21.26Z"/>
    <path class="st1" d="M-920.62,380.95c0,11.74-9.52,21.26-21.26,21.26s-21.26-9.52-21.26-21.26,9.52-21.26,21.26-21.26,21.26,9.52,21.26,21.26Z"/>
    <path class="st1" d="M-731.65,380.95c0,11.74-9.52,21.26-21.26,21.26s-21.26-9.52-21.26-21.26,9.52-21.26,21.26-21.26,21.26,9.52,21.26,21.26Z"/>
    <path class="st1" d="M-542.67,191.98c0,11.74-9.52,21.26-21.26,21.26s-21.26-9.52-21.26-21.26,9.52-21.26,21.26-21.26,21.26,9.52,21.26,21.26Z"/>
    <path class="st1" d="M-1109.6,191.98c0,11.74-9.52,21.26-21.26,21.26s-21.26-9.52-21.26-21.26,9.52-21.26,21.26-21.26,21.26,9.52,21.26,21.26Z"/>
    <path class="st1" d="M-920.62,191.98c0,11.74-9.52,21.26-21.26,21.26s-21.26-9.52-21.26-21.26,9.52-21.26,21.26-21.26,21.26,9.52,21.26,21.26Z"/>
    <path class="st1" d="M-731.65,191.98c0,11.74-9.52,21.26-21.26,21.26s-21.26-9.52-21.26-21.26,9.52-21.26,21.26-21.26,21.26,9.52,21.26,21.26Z"/>
    <path class="st1" d="M-1109.6,3c0,11.74-9.52,21.26-21.26,21.26s-21.26-9.52-21.26-21.26,9.52-21.26,21.26-21.26,21.26,9.52,21.26,21.26Z"/>
    <path class="st1" d="M-542.67,3c0,11.74-9.52,21.26-21.26,21.26s-21.26-9.52-21.26-21.26,9.52-21.26,21.26-21.26,21.26,9.52,21.26,21.26Z"/>
    <path class="st1" d="M-731.65,3c0,11.74-9.52,21.26-21.26,21.26s-21.26-9.52-21.26-21.26,9.52-21.26,21.26-21.26,21.26,9.52,21.26,21.26Z"/>
    <path class="st1" d="M-920.62,3c0,11.74-9.52,21.26-21.26,21.26s-21.26-9.52-21.26-21.26,9.52-21.26,21.26-21.26,21.26,9.52,21.26,21.26Z"/>
  </g>
  <g id="Punkte_x5F_klein">
    <path class="st1" d="M-1123.77,3c0,3.91-3.17,7.09-7.09,7.09s-7.09-3.17-7.09-7.09,3.17-7.09,7.09-7.09,7.09,3.17,7.09,7.09Z"/>
    <path class="st1" d="M-934.79,3c0,3.91-3.17,7.09-7.09,7.09s-7.09-3.17-7.09-7.09,3.17-7.09,7.09-7.09,7.09,3.17,7.09,7.09Z"/>
    <path class="st1" d="M-745.82,3c0,3.91-3.17,7.09-7.09,7.09s-7.09-3.17-7.09-7.09,3.17-7.09,7.09-7.09,7.09,3.17,7.09,7.09Z"/>
    <path class="st1" d="M-556.84,3c0,3.91-3.17,7.09-7.09,7.09s-7.09-3.17-7.09-7.09,3.17-7.09,7.09-7.09,7.09,3.17,7.09,7.09Z"/>
    <path class="st1" d="M-1123.77,191.98c0,3.91-3.17,7.09-7.09,7.09s-7.09-3.17-7.09-7.09,3.17-7.09,7.09-7.09,7.09,3.17,7.09,7.09Z"/>
    <path class="st1" d="M-934.79,191.98c0,3.91-3.17,7.09-7.09,7.09s-7.09-3.17-7.09-7.09,3.17-7.09,7.09-7.09,7.09,3.17,7.09,7.09Z"/>
    <path class="st1" d="M-745.82,191.98c0,3.91-3.17,7.09-7.09,7.09s-7.09-3.17-7.09-7.09,3.17-7.09,7.09-7.09,7.09,3.17,7.09,7.09Z"/>
    <path class="st1" d="M-556.84,191.98c0,3.91-3.17,7.09-7.09,7.09s-7.09-3.17-7.09-7.09,3.17-7.09,7.09-7.09,7.09,3.17,7.09,7.09Z"/>
    <path class="st1" d="M-1123.77,380.95c0,3.91-3.17,7.09-7.09,7.09s-7.09-3.17-7.09-7.09,3.17-7.09,7.09-7.09,7.09,3.17,7.09,7.09Z"/>
    <path class="st1" d="M-934.79,380.95c0,3.91-3.17,7.09-7.09,7.09s-7.09-3.17-7.09-7.09,3.17-7.09,7.09-7.09,7.09,3.17,7.09,7.09Z"/>
    <path class="st1" d="M-745.82,380.95c0,3.91-3.17,7.09-7.09,7.09s-7.09-3.17-7.09-7.09,3.17-7.09,7.09-7.09,7.09,3.17,7.09,7.09Z"/>
    <path class="st1" d="M-556.84,380.95c0,3.91-3.17,7.09-7.09,7.09s-7.09-3.17-7.09-7.09,3.17-7.09,7.09-7.09,7.09,3.17,7.09,7.09Z"/>
    <path class="st1" d="M-1123.77,569.93c0,3.91-3.17,7.09-7.09,7.09s-7.09-3.17-7.09-7.09,3.17-7.09,7.09-7.09,7.09,3.17,7.09,7.09Z"/>
    <path class="st1" d="M-934.79,569.93c0,3.91-3.17,7.09-7.09,7.09s-7.09-3.17-7.09-7.09,3.17-7.09,7.09-7.09,7.09,3.17,7.09,7.09Z"/>
    <path class="st1" d="M-745.82,569.93c0,3.91-3.17,7.09-7.09,7.09s-7.09-3.17-7.09-7.09,3.17-7.09,7.09-7.09,7.09,3.17,7.09,7.09Z"/>
    <path class="st1" d="M-556.84,569.93c0,3.91-3.17,7.09-7.09,7.09s-7.09-3.17-7.09-7.09,3.17-7.09,7.09-7.09,7.09,3.17,7.09,7.09Z"/>
  </g>
  <g id="_x38_7_a" class="st2">
    <line class="st0" x1="-1130.86" y1="569.93" x2="3" y2="569.93"/>
    <line class="st0" x1="-563.93" y1="1136.86" x2="-563.93" y2="3"/>
    <line class="st0" x1="-752.91" y1="569.93" x2="-752.91" y2="3"/>
    <line class="st0" x1="-941.88" y1="569.93" x2="-941.88" y2="3"/>
    <line class="st0" x1="-563.93" y1="191.98" x2="-1130.86" y2="191.98"/>
    <line class="st0" x1="-563.93" y1="380.95" x2="-1130.86" y2="380.95"/>
  </g>
  <g id="_x38_7_b" class="st2">
    <line class="st0" x1="-1130.86" y1="569.93" x2="3" y2="569.93"/>
    <line class="st0" x1="-563.93" y1="1136.86" x2="-563.93" y2="3"/>
  </g>
  <g id="_x38_8" class="st2">
    <line class="st0" x1="-1130.86" y1="569.93" x2="-941.88" y2="569.93"/>
    <line class="st0" x1="-752.91" y1="569.93" x2="-374.95" y2="569.93"/>
    <line class="st0" x1="-185.98" y1="569.93" x2="3" y2="569.93"/>
    <line class="st0" x1="-563.93" y1="1136.86" x2="-563.93" y2="947.88"/>
    <line class="st0" x1="-563.93" y1="758.91" x2="-563.93" y2="380.95"/>
    <line class="st0" x1="-563.93" y1="191.98" x2="-563.93" y2="3"/>
  </g>
  <g id="_x38_9" class="st2">
    <line class="st0" x1="-941.88" y1="191.98" x2="-752.91" y2="191.98"/>
    <line class="st0" x1="-941.88" y1="380.95" x2="-752.91" y2="380.95"/>
    <line class="st0" x1="-752.91" y1="380.95" x2="-752.91" y2="191.98"/>
    <line class="st0" x1="-941.88" y1="380.95" x2="-941.88" y2="191.98"/>
    <line class="st0" x1="-374.95" y1="191.98" x2="-185.98" y2="191.98"/>
    <line class="st0" x1="-374.95" y1="380.95" x2="-185.98" y2="380.95"/>
    <line class="st0" x1="-185.98" y1="380.95" x2="-185.98" y2="191.98"/>
    <line class="st0" x1="-374.95" y1="380.95" x2="-374.95" y2="191.98"/>
    <line class="st0" x1="-941.88" y1="758.91" x2="-752.91" y2="758.91"/>
    <line class="st0" x1="-941.88" y1="947.88" x2="-752.91" y2="947.88"/>
    <line class="st0" x1="-752.91" y1="947.88" x2="-752.91" y2="758.91"/>
    <line class="st0" x1="-941.88" y1="947.88" x2="-941.88" y2="758.91"/>
    <line class="st0" x1="-374.95" y1="758.91" x2="-185.98" y2="758.91"/>
    <line class="st0" x1="-374.95" y1="947.88" x2="-185.98" y2="947.88"/>
    <line class="st0" x1="-185.98" y1="947.88" x2="-185.98" y2="758.91"/>
    <line class="st0" x1="-374.95" y1="947.88" x2="-374.95" y2="758.91"/>
  </g>
  <g id="_x39_0" class="st2">
    <line class="st0" x1="-1130.86" y1="191.98" x2="-941.88" y2="191.98"/>
    <line class="st0" x1="-1130.86" y1="380.95" x2="-941.88" y2="380.95"/>
    <line class="st0" x1="-752.9" y1="191.98" x2="-563.93" y2="191.98"/>
    <line class="st0" x1="-752.9" y1="380.95" x2="-563.93" y2="380.95"/>
    <line class="st0" x1="-752.91" y1="569.93" x2="-752.91" y2="380.95"/>
    <line class="st0" x1="-752.91" y1="191.98" x2="-752.91" y2="3"/>
    <line class="st0" x1="-941.88" y1="191.98" x2="-941.88" y2="3"/>
    <line class="st0" x1="-941.88" y1="569.93" x2="-941.88" y2="380.95"/>
    <line class="st0" x1="-563.93" y1="191.98" x2="-374.95" y2="191.98"/>
    <line class="st0" x1="-563.93" y1="380.95" x2="-374.95" y2="380.95"/>
    <line class="st0" x1="-185.98" y1="191.98" x2="3" y2="191.98"/>
    <line class="st0" x1="-185.98" y1="380.95" x2="3" y2="380.95"/>
    <line class="st0" x1="-185.98" y1="569.93" x2="-185.98" y2="380.95"/>
    <line class="st0" x1="-185.98" y1="191.98" x2="-185.98" y2="3"/>
    <line class="st0" x1="-374.95" y1="191.98" x2="-374.95" y2="3"/>
    <line class="st0" x1="-374.95" y1="569.93" x2="-374.95" y2="380.95"/>
    <line class="st0" x1="-1130.86" y1="758.91" x2="-941.88" y2="758.91"/>
    <line class="st0" x1="-1130.86" y1="947.88" x2="-941.88" y2="947.88"/>
    <line class="st0" x1="-752.9" y1="758.91" x2="-563.93" y2="758.91"/>
    <line class="st0" x1="-752.9" y1="947.88" x2="-563.93" y2="947.88"/>
    <line class="st0" x1="-752.91" y1="1136.86" x2="-752.91" y2="947.88"/>
    <line class="st0" x1="-752.91" y1="758.91" x2="-752.91" y2="569.93"/>
    <line class="st0" x1="-941.88" y1="758.91" x2="-941.88" y2="569.93"/>
    <line class="st0" x1="-941.88" y1="1136.86" x2="-941.88" y2="947.88"/>
    <line class="st0" x1="-563.93" y1="758.91" x2="-374.95" y2="758.91"/>
    <line class="st0" x1="-563.93" y1="947.88" x2="-374.95" y2="947.88"/>
    <line class="st0" x1="-185.98" y1="758.91" x2="3" y2="758.91"/>
    <line class="st0" x1="-185.98" y1="947.88" x2="3" y2="947.88"/>
    <line class="st0" x1="-185.98" y1="1136.86" x2="-185.98" y2="947.88"/>
    <line class="st0" x1="-185.98" y1="758.91" x2="-185.98" y2="569.93"/>
    <line class="st0" x1="-374.95" y1="758.91" x2="-374.95" y2="569.93"/>
    <line class="st0" x1="-374.95" y1="1136.86" x2="-374.95" y2="947.88"/>
  </g>
  <g id="_x39_1" class="st2">
    <line class="st0" x1="-1130.86" y1="191.98" x2="-563.93" y2="191.98"/>
    <line class="st0" x1="-1130.86" y1="380.95" x2="-563.93" y2="380.95"/>
    <line class="st0" x1="-752.91" y1="569.93" x2="-752.91" y2="3"/>
    <line class="st0" x1="-941.88" y1="569.93" x2="-941.88" y2="3"/>
    <line class="st0" x1="-563.93" y1="191.98" x2="3" y2="191.98"/>
    <line class="st0" x1="-563.93" y1="380.95" x2="3" y2="380.95"/>
    <line class="st0" x1="-185.98" y1="569.93" x2="-185.98" y2="3"/>
    <line class="st0" x1="-374.95" y1="569.93" x2="-374.95" y2="3"/>
    <line class="st0" x1="-1130.86" y1="758.9" x2="-563.93" y2="758.9"/>
    <line class="st0" x1="-1130.86" y1="947.88" x2="-563.93" y2="947.88"/>
    <line class="st0" x1="-752.91" y1="1136.86" x2="-752.91" y2="569.93"/>
    <line class="st0" x1="-941.88" y1="1136.86" x2="-941.88" y2="569.93"/>
    <line class="st0" x1="-563.93" y1="758.9" x2="3" y2="758.9"/>
    <line class="st0" x1="-563.93" y1="947.88" x2="3" y2="947.88"/>
    <line class="st0" x1="-185.98" y1="1136.86" x2="-185.98" y2="569.93"/>
    <line class="st0" x1="-374.95" y1="1136.86" x2="-374.95" y2="569.93"/>
  </g>
  <g id="_x39_2" class="st2">
    <line class="st0" x1="-1130.86" y1="3" x2="-563.93" y2="569.93"/>
    <line class="st0" x1="-563.93" y1="3" x2="-1130.86" y2="569.93"/>
    <line class="st0" x1="-563.93" y1="3" x2="3" y2="569.93"/>
    <line class="st0" x1="3" y1="3" x2="-563.93" y2="569.93"/>
    <line class="st0" x1="-1130.86" y1="569.93" x2="-563.93" y2="1136.86"/>
    <line class="st0" x1="-563.93" y1="569.93" x2="-1130.86" y2="1136.86"/>
    <line class="st0" x1="-563.93" y1="569.93" x2="3" y2="1136.86"/>
    <line class="st0" x1="3" y1="569.93" x2="-563.93" y2="1136.86"/>
  </g>
  <g id="_x39_3" class="st2">
    <line class="st0" x1="-941.88" y1="191.98" x2="-752.91" y2="380.95"/>
    <line class="st0" x1="-752.91" y1="191.98" x2="-941.88" y2="380.95"/>
    <line class="st0" x1="-374.95" y1="191.98" x2="-185.98" y2="380.95"/>
    <line class="st0" x1="-185.98" y1="191.98" x2="-374.95" y2="380.95"/>
    <line class="st0" x1="-941.88" y1="758.91" x2="-752.91" y2="947.88"/>
    <line class="st0" x1="-752.91" y1="758.91" x2="-941.88" y2="947.88"/>
    <line class="st0" x1="-374.95" y1="758.91" x2="-185.98" y2="947.88"/>
    <line class="st0" x1="-185.98" y1="758.91" x2="-374.95" y2="947.88"/>
  </g>
  <g id="_x39_4" class="st2">
    <line class="st0" x1="-1130.86" y1="3" x2="-941.88" y2="191.98"/>
    <line class="st0" x1="-752.91" y1="380.95" x2="-563.93" y2="569.93"/>
    <line class="st0" x1="-1130.86" y1="569.93" x2="-941.88" y2="380.95"/>
    <line class="st0" x1="-752.91" y1="191.98" x2="-563.93" y2="3"/>
    <line class="st0" x1="-563.93" y1="3" x2="-374.95" y2="191.98"/>
    <line class="st0" x1="-185.98" y1="380.95" x2="3" y2="569.93"/>
    <line class="st0" x1="-563.93" y1="569.93" x2="-374.95" y2="380.95"/>
    <line class="st0" x1="-185.98" y1="191.98" x2="3" y2="3"/>
    <line class="st0" x1="-1130.86" y1="569.93" x2="-941.88" y2="758.9"/>
    <line class="st0" x1="-752.91" y1="947.88" x2="-563.93" y2="1136.86"/>
    <line class="st0" x1="-1130.86" y1="1136.86" x2="-941.88" y2="947.88"/>
    <line class="st0" x1="-752.91" y1="758.91" x2="-563.93" y2="569.93"/>
    <line class="st0" x1="-563.93" y1="569.93" x2="-374.95" y2="758.9"/>
    <line class="st0" x1="-185.98" y1="947.88" x2="3" y2="1136.86"/>
    <line class="st0" x1="-563.93" y1="1136.86" x2="-374.95" y2="947.88"/>
    <line class="st0" x1="-185.98" y1="758.91" x2="3" y2="569.93"/>
  </g>
  <g id="_x39_5" class="st2">
    <line class="st0" x1="-752.91" y1="3" x2="-563.93" y2="191.98"/>
    <line class="st0" x1="-752.91" y1="569.93" x2="-563.93" y2="380.95"/>
    <line class="st0" x1="-1130.86" y1="191.98" x2="-941.88" y2="3"/>
    <line class="st0" x1="-1130.86" y1="380.95" x2="-941.88" y2="569.93"/>
    <line class="st0" x1="-185.98" y1="3" x2="3" y2="191.98"/>
    <line class="st0" x1="-185.98" y1="569.93" x2="3" y2="380.95"/>
    <line class="st0" x1="-563.93" y1="191.98" x2="-374.95" y2="3"/>
    <line class="st0" x1="-563.93" y1="380.95" x2="-374.95" y2="569.93"/>
    <line class="st0" x1="-752.91" y1="569.93" x2="-563.93" y2="758.91"/>
    <line class="st0" x1="-752.91" y1="1136.86" x2="-563.93" y2="947.88"/>
    <line class="st0" x1="-1130.86" y1="758.91" x2="-941.88" y2="569.93"/>
    <line class="st0" x1="-1130.86" y1="947.88" x2="-941.88" y2="1136.86"/>
    <line class="st0" x1="-185.98" y1="569.93" x2="3" y2="758.91"/>
    <line class="st0" x1="-185.98" y1="1136.86" x2="3" y2="947.88"/>
    <line class="st0" x1="-563.93" y1="758.91" x2="-374.95" y2="569.93"/>
    <line class="st0" x1="-563.93" y1="947.88" x2="-374.95" y2="1136.86"/>
  </g>
  <g id="_x39_6" class="st2">
    <line class="st0" x1="-1130.86" y1="380.95" x2="-752.91" y2="3"/>
    <line class="st0" x1="-941.88" y1="569.93" x2="-563.93" y2="191.98"/>
    <line class="st0" x1="-563.93" y1="380.95" x2="-941.88" y2="3"/>
    <line class="st0" x1="-752.91" y1="569.93" x2="-1130.86" y2="191.98"/>
    <line class="st0" x1="-563.93" y1="380.95" x2="-185.98" y2="3"/>
    <line class="st0" x1="-374.95" y1="569.93" x2="3" y2="191.98"/>
    <line class="st0" x1="3" y1="380.95" x2="-374.95" y2="3"/>
    <line class="st0" x1="-185.98" y1="569.93" x2="-563.93" y2="191.98"/>
    <line class="st0" x1="-1130.86" y1="947.88" x2="-752.91" y2="569.93"/>
    <line class="st0" x1="-941.88" y1="1136.86" x2="-563.93" y2="758.91"/>
    <line class="st0" x1="-563.93" y1="947.88" x2="-941.88" y2="569.93"/>
    <line class="st0" x1="-752.91" y1="1136.86" x2="-1130.86" y2="758.91"/>
    <line class="st0" x1="-563.93" y1="947.88" x2="-185.98" y2="569.93"/>
    <line class="st0" x1="-374.95" y1="1136.86" x2="3" y2="758.91"/>
    <line class="st0" x1="3" y1="947.88" x2="-374.95" y2="569.93"/>
    <line class="st0" x1="-185.98" y1="1136.86" x2="-563.93" y2="758.91"/>
  </g>
  <g id="_x39_7" class="st2">
    <line class="st0" x1="-1130.86" y1="191.98" x2="-563.93" y2="380.95"/>
    <line class="st0" x1="-563.93" y1="191.98" x2="-1130.86" y2="380.95"/>
    <line class="st0" x1="-941.88" y1="569.93" x2="-752.91" y2="3"/>
    <line class="st0" x1="-941.88" y1="3" x2="-752.91" y2="569.93"/>
    <line class="st0" x1="-563.93" y1="191.98" x2="3" y2="380.95"/>
    <line class="st0" x1="3" y1="191.98" x2="-563.93" y2="380.95"/>
    <line class="st0" x1="-374.95" y1="569.93" x2="-185.98" y2="3"/>
    <line class="st0" x1="-374.95" y1="3" x2="-185.98" y2="569.93"/>
    <line class="st0" x1="-1130.86" y1="758.9" x2="-563.93" y2="947.88"/>
    <line class="st0" x1="-563.93" y1="758.9" x2="-1130.86" y2="947.88"/>
    <line class="st0" x1="-941.88" y1="1136.86" x2="-752.91" y2="569.93"/>
    <line class="st0" x1="-941.88" y1="569.93" x2="-752.91" y2="1136.86"/>
    <line class="st0" x1="-563.93" y1="758.9" x2="3" y2="947.88"/>
    <line class="st0" x1="3" y1="758.9" x2="-563.93" y2="947.88"/>
    <line class="st0" x1="-374.95" y1="1136.86" x2="-185.98" y2="569.93"/>
    <line class="st0" x1="-374.95" y1="569.93" x2="-185.98" y2="1136.86"/>
  </g>
  <g id="_x39_8" class="st2">
    <line class="st0" x1="-1130.86" y1="3" x2="-941.88" y2="380.95"/>
    <line class="st0" x1="-941.88" y1="191.98" x2="-1130.86" y2="569.93"/>
    <line class="st0" x1="-941.88" y1="191.98" x2="-563.93" y2="3"/>
    <line class="st0" x1="-752.91" y1="380.95" x2="-563.93" y2="3"/>
    <line class="st0" x1="-752.91" y1="380.95" x2="-1130.86" y2="569.93"/>
    <line class="st0" x1="-941.88" y1="380.95" x2="-563.93" y2="569.93"/>
    <line class="st0" x1="-563.93" y1="569.93" x2="-752.91" y2="191.98"/>
    <line class="st0" x1="-752.91" y1="191.98" x2="-1130.86" y2="3"/>
    <line class="st0" x1="-563.93" y1="3" x2="-374.95" y2="380.95"/>
    <line class="st0" x1="-374.95" y1="191.98" x2="-563.93" y2="569.93"/>
    <line class="st0" x1="-374.95" y1="191.98" x2="3" y2="3"/>
    <line class="st0" x1="-185.98" y1="380.95" x2="3" y2="3"/>
    <line class="st0" x1="-185.98" y1="380.95" x2="-563.93" y2="569.93"/>
    <line class="st0" x1="-374.95" y1="380.95" x2="3" y2="569.93"/>
    <line class="st0" x1="3" y1="569.93" x2="-185.98" y2="191.98"/>
    <line class="st0" x1="-185.98" y1="191.98" x2="-563.93" y2="3"/>
    <line class="st0" x1="-1130.86" y1="569.93" x2="-941.88" y2="947.88"/>
    <line class="st0" x1="-941.88" y1="758.9" x2="-1130.86" y2="1136.86"/>
    <line class="st0" x1="-941.88" y1="758.9" x2="-563.93" y2="569.93"/>
    <line class="st0" x1="-752.91" y1="947.88" x2="-563.93" y2="569.93"/>
    <line class="st0" x1="-752.91" y1="947.88" x2="-1130.86" y2="1136.86"/>
    <line class="st0" x1="-941.88" y1="947.88" x2="-563.93" y2="1136.86"/>
    <line class="st0" x1="-563.93" y1="1136.86" x2="-752.91" y2="758.91"/>
    <line class="st0" x1="-752.91" y1="758.91" x2="-1130.86" y2="569.93"/>
    <line class="st0" x1="-563.93" y1="569.93" x2="-374.95" y2="947.88"/>
    <line class="st0" x1="-374.95" y1="758.9" x2="-563.93" y2="1136.86"/>
    <line class="st0" x1="-374.95" y1="758.9" x2="3" y2="569.93"/>
    <line class="st0" x1="-185.98" y1="947.88" x2="3" y2="569.93"/>
    <line class="st0" x1="-185.98" y1="947.88" x2="-563.93" y2="1136.86"/>
    <line class="st0" x1="-374.95" y1="947.88" x2="3" y2="1136.86"/>
    <line class="st0" x1="3" y1="1136.86" x2="-185.98" y2="758.91"/>
    <line class="st0" x1="-185.98" y1="758.91" x2="-563.93" y2="569.93"/>
  </g>
  <g id="_x39_9" class="st2">
    <line class="st0" x1="-941.88" y1="3" x2="-1130.86" y2="380.95"/>
    <line class="st0" x1="-1130.86" y1="191.98" x2="-941.88" y2="569.93"/>
    <line class="st0" x1="-752.91" y1="3" x2="-563.93" y2="380.95"/>
    <line class="st0" x1="-563.93" y1="191.98" x2="-752.91" y2="569.93"/>
    <line class="st0" x1="-563.93" y1="191.98" x2="-941.88" y2="3"/>
    <line class="st0" x1="-752.91" y1="3" x2="-1130.86" y2="191.98"/>
    <line class="st0" x1="-563.93" y1="380.95" x2="-941.88" y2="569.93"/>
    <line class="st0" x1="-752.91" y1="569.93" x2="-1130.86" y2="380.95"/>
    <line class="st0" x1="-374.95" y1="3" x2="-563.93" y2="380.95"/>
    <line class="st0" x1="-563.93" y1="191.98" x2="-374.95" y2="569.93"/>
    <line class="st0" x1="-185.98" y1="3" x2="3" y2="380.95"/>
    <line class="st0" x1="3" y1="191.98" x2="-185.98" y2="569.93"/>
    <line class="st0" x1="3" y1="191.98" x2="-374.95" y2="3"/>
    <line class="st0" x1="-185.98" y1="3" x2="-563.93" y2="191.98"/>
    <line class="st0" x1="3" y1="380.95" x2="-374.95" y2="569.93"/>
    <line class="st0" x1="-185.98" y1="569.93" x2="-563.93" y2="380.95"/>
    <line class="st0" x1="-941.88" y1="569.93" x2="-1130.86" y2="947.88"/>
    <line class="st0" x1="-1130.86" y1="758.91" x2="-941.88" y2="1136.86"/>
    <line class="st0" x1="-752.91" y1="569.93" x2="-563.93" y2="947.88"/>
    <line class="st0" x1="-563.93" y1="758.91" x2="-752.91" y2="1136.86"/>
    <line class="st0" x1="-563.93" y1="758.91" x2="-941.88" y2="569.93"/>
    <line class="st0" x1="-752.91" y1="569.93" x2="-1130.86" y2="758.91"/>
    <line class="st0" x1="-563.93" y1="947.88" x2="-941.88" y2="1136.86"/>
    <line class="st0" x1="-752.91" y1="1136.86" x2="-1130.86" y2="947.88"/>
    <line class="st0" x1="-374.95" y1="569.93" x2="-563.93" y2="947.88"/>
    <line class="st0" x1="-563.93" y1="758.91" x2="-374.95" y2="1136.86"/>
    <line class="st0" x1="-185.98" y1="569.93" x2="3" y2="947.88"/>
    <line class="st0" x1="3" y1="758.91" x2="-185.98" y2="1136.86"/>
    <line class="st0" x1="3" y1="758.91" x2="-374.95" y2="569.93"/>
    <line class="st0" x1="-185.98" y1="569.93" x2="-563.93" y2="758.91"/>
    <line class="st0" x1="3" y1="947.88" x2="-374.95" y2="1136.86"/>
    <line class="st0" x1="-185.98" y1="1136.86" x2="-563.93" y2="947.88"/>
  </g>
  <g id="_x31_00" class="st2">
    <line class="st0" x1="-1130.86" y1="3" x2="-563.93" y2="191.98"/>
    <line class="st0" x1="-1130.86" y1="380.95" x2="-563.93" y2="569.93"/>
    <line class="st0" x1="-563.93" y1="3" x2="-1130.86" y2="191.98"/>
    <line class="st0" x1="-563.93" y1="380.95" x2="-1130.86" y2="569.93"/>
    <line class="st0" x1="-1130.86" y1="569.93" x2="-941.88" y2="3"/>
    <line class="st0" x1="-752.91" y1="569.93" x2="-563.93" y2="3"/>
    <line class="st0" x1="-1130.86" y1="3" x2="-941.88" y2="569.93"/>
    <line class="st0" x1="-752.91" y1="3" x2="-563.93" y2="569.93"/>
    <line class="st0" x1="-563.93" y1="3" x2="3" y2="191.98"/>
    <line class="st0" x1="-563.93" y1="380.95" x2="3" y2="569.93"/>
    <line class="st0" x1="3" y1="3" x2="-563.93" y2="191.98"/>
    <line class="st0" x1="3" y1="380.95" x2="-563.93" y2="569.93"/>
    <line class="st0" x1="-563.93" y1="569.93" x2="-374.95" y2="3"/>
    <line class="st0" x1="-185.98" y1="569.93" x2="3" y2="3"/>
    <line class="st0" x1="-563.93" y1="3" x2="-374.95" y2="569.93"/>
    <line class="st0" x1="-185.98" y1="3" x2="3" y2="569.93"/>
    <line class="st0" x1="-1130.86" y1="569.93" x2="-563.93" y2="758.9"/>
    <line class="st0" x1="-1130.86" y1="947.88" x2="-563.93" y2="1136.86"/>
    <line class="st0" x1="-563.93" y1="569.93" x2="-1130.86" y2="758.9"/>
    <line class="st0" x1="-563.93" y1="947.88" x2="-1130.86" y2="1136.86"/>
    <line class="st0" x1="-1130.86" y1="1136.86" x2="-941.88" y2="569.93"/>
    <line class="st0" x1="-752.91" y1="1136.86" x2="-563.93" y2="569.93"/>
    <line class="st0" x1="-1130.86" y1="569.93" x2="-941.88" y2="1136.86"/>
    <line class="st0" x1="-752.91" y1="569.93" x2="-563.93" y2="1136.86"/>
    <line class="st0" x1="-563.93" y1="569.93" x2="3" y2="758.9"/>
    <line class="st0" x1="-563.93" y1="947.88" x2="3" y2="1136.86"/>
    <line class="st0" x1="3" y1="569.93" x2="-563.93" y2="758.9"/>
    <line class="st0" x1="3" y1="947.88" x2="-563.93" y2="1136.86"/>
    <line class="st0" x1="-563.93" y1="1136.86" x2="-374.95" y2="569.93"/>
    <line class="st0" x1="-185.98" y1="1136.86" x2="3" y2="569.93"/>
    <line class="st0" x1="-563.93" y1="569.93" x2="-374.95" y2="1136.86"/>
    <line class="st0" x1="-185.98" y1="569.93" x2="3" y2="1136.86"/>
  </g>
  <g id="_x31_01">
    <line class="st0" x1="-752.91" y1="380.95" x2="-941.88" y2="3"/>
    <line class="st0" x1="-752.91" y1="569.93" x2="-941.88" y2="191.98"/>
    <line class="st0" x1="-941.88" y1="380.95" x2="-752.91" y2="3"/>
    <line class="st0" x1="-941.88" y1="569.93" x2="-752.91" y2="191.98"/>
    <line class="st0" x1="-752.91" y1="191.98" x2="-1130.86" y2="380.95"/>
    <line class="st0" x1="-563.93" y1="191.98" x2="-941.88" y2="380.95"/>
    <line class="st0" x1="-752.91" y1="380.95" x2="-1130.86" y2="191.98"/>
    <line class="st0" x1="-563.93" y1="380.95" x2="-941.88" y2="191.98"/>
    <line class="st0" x1="-185.98" y1="380.95" x2="-374.95" y2="3"/>
    <line class="st0" x1="-185.98" y1="569.93" x2="-374.95" y2="191.98"/>
    <line class="st0" x1="-374.95" y1="380.95" x2="-185.98" y2="3"/>
    <line class="st0" x1="-374.95" y1="569.93" x2="-185.98" y2="191.98"/>
    <line class="st0" x1="-185.98" y1="191.98" x2="-563.93" y2="380.95"/>
    <line class="st0" x1="3" y1="191.98" x2="-374.95" y2="380.95"/>
    <line class="st0" x1="-185.98" y1="380.95" x2="-563.93" y2="191.98"/>
    <line class="st0" x1="3" y1="380.95" x2="-374.95" y2="191.98"/>
    <line class="st0" x1="-752.91" y1="947.88" x2="-941.88" y2="569.93"/>
    <line class="st0" x1="-752.91" y1="1136.86" x2="-941.88" y2="758.91"/>
    <line class="st0" x1="-941.88" y1="947.88" x2="-752.91" y2="569.93"/>
    <line class="st0" x1="-941.88" y1="1136.86" x2="-752.91" y2="758.91"/>
    <line class="st0" x1="-752.91" y1="758.91" x2="-1130.86" y2="947.88"/>
    <line class="st0" x1="-563.93" y1="758.91" x2="-941.88" y2="947.88"/>
    <line class="st0" x1="-752.91" y1="947.88" x2="-1130.86" y2="758.91"/>
    <line class="st0" x1="-563.93" y1="947.88" x2="-941.88" y2="758.91"/>
    <line class="st0" x1="-185.98" y1="947.88" x2="-374.95" y2="569.93"/>
    <line class="st0" x1="-185.98" y1="1136.86" x2="-374.95" y2="758.91"/>
    <line class="st0" x1="-374.95" y1="947.88" x2="-185.98" y2="569.93"/>
    <line class="st0" x1="-374.95" y1="1136.86" x2="-185.98" y2="758.91"/>
    <line class="st0" x1="-185.98" y1="758.91" x2="-563.93" y2="947.88"/>
    <line class="st0" x1="3" y1="758.91" x2="-374.95" y2="947.88"/>
    <line class="st0" x1="-185.98" y1="947.88" x2="-563.93" y2="758.91"/>
    <line class="st0" x1="3" y1="947.88" x2="-374.95" y2="758.91"/>
  </g>
  <g id="_x31_02" class="st2">
    <line class="st0" x1="-1130.86" y1="3" x2="-563.93" y2="380.95"/>
    <line class="st0" x1="-1130.86" y1="191.98" x2="-563.93" y2="569.93"/>
    <line class="st0" x1="-563.93" y1="3" x2="-1130.86" y2="380.95"/>
    <line class="st0" x1="-563.93" y1="191.98" x2="-1130.86" y2="569.93"/>
    <line class="st0" x1="-1130.86" y1="569.93" x2="-752.91" y2="3"/>
    <line class="st0" x1="-941.88" y1="569.93" x2="-563.93" y2="3"/>
    <line class="st0" x1="-1130.86" y1="3" x2="-752.91" y2="569.93"/>
    <line class="st0" x1="-941.88" y1="3" x2="-563.93" y2="569.93"/>
    <line class="st0" x1="-563.93" y1="3" x2="3" y2="380.95"/>
    <line class="st0" x1="-563.93" y1="191.98" x2="3" y2="569.93"/>
    <line class="st0" x1="3" y1="3" x2="-563.93" y2="380.95"/>
    <line class="st0" x1="3" y1="191.98" x2="-563.93" y2="569.93"/>
    <line class="st0" x1="-563.93" y1="569.93" x2="-185.98" y2="3"/>
    <line class="st0" x1="-374.95" y1="569.93" x2="3" y2="3"/>
    <line class="st0" x1="-563.93" y1="3" x2="-185.98" y2="569.93"/>
    <line class="st0" x1="-374.95" y1="3" x2="3" y2="569.93"/>
    <line class="st0" x1="-1130.86" y1="569.93" x2="-563.93" y2="947.88"/>
    <line class="st0" x1="-1130.86" y1="758.91" x2="-563.93" y2="1136.86"/>
    <line class="st0" x1="-563.93" y1="569.93" x2="-1130.86" y2="947.88"/>
    <line class="st0" x1="-563.93" y1="758.91" x2="-1130.86" y2="1136.86"/>
    <line class="st0" x1="-1130.86" y1="1136.86" x2="-752.91" y2="569.93"/>
    <line class="st0" x1="-941.88" y1="1136.86" x2="-563.93" y2="569.93"/>
    <line class="st0" x1="-1130.86" y1="569.93" x2="-752.91" y2="1136.86"/>
    <line class="st0" x1="-941.88" y1="569.93" x2="-563.93" y2="1136.86"/>
    <line class="st0" x1="-563.93" y1="569.93" x2="3" y2="947.88"/>
    <line class="st0" x1="-563.93" y1="758.91" x2="3" y2="1136.86"/>
    <line class="st0" x1="3" y1="569.93" x2="-563.93" y2="947.88"/>
    <line class="st0" x1="3" y1="758.91" x2="-563.93" y2="1136.86"/>
    <line class="st0" x1="-563.93" y1="1136.86" x2="-185.98" y2="569.93"/>
    <line class="st0" x1="-374.95" y1="1136.86" x2="3" y2="569.93"/>
    <line class="st0" x1="-563.93" y1="569.93" x2="-185.98" y2="1136.86"/>
    <line class="st0" x1="-374.95" y1="569.93" x2="3" y2="1136.86"/>
  </g>
  <g id="Rahmen">
    <line class="st0" x1="-1130.86" y1="3" x2="3" y2="3"/>
    <line class="st0" x1="-1130.86" y1="1136.86" x2="3" y2="1136.86"/>
    <line class="st0" x1="-1130.86" y1="1136.86" x2="-1130.86" y2="3"/>
    <line class="st0" x1="3" y1="1136.86" x2="3" y2="3"/>
  </g>
</svg>