<?xml version="1.0" encoding="UTF-8"?>
<svg id="Ebene_2" xmlns="http://www.w3.org/2000/svg" version="1.1" viewBox="0 0 311.81 694.49">
  <!-- Generator: Adobe Illustrator 29.1.0, SVG Export Plug-In . SVG Version: 2.1.0 Build 142)  -->
  <defs>
    <style>
      .st0 {
        fill: none;
        stroke: #1d1d1b;
        stroke-linecap: round;
        stroke-miterlimit: 10;
        stroke-width: 1.2px;
      }

      .st1 {
        fill: #1d1d1b;
        font-family: Helvetica, Helvetica;
        font-size: 8px;
      }
    </style>
  </defs>
  <text class="st1" transform="translate(92.54 175.83)"><tspan x="0" y="0">103</tspan></text>
  <text class="st1" transform="translate(92.54 345.91)"><tspan x="0" y="0">104</tspan></text>
  <line class="st0" x1="99.21" y1="87.82" x2="109.84" y2="32.58"/>
  <line class="st0" x1="88.58" y1="143.06" x2="99.21" y2="87.82"/>
  <line class="st0" x1="99.21" y1="87.82" x2="46.06" y2="106.23"/>
  <line class="st0" x1="152.36" y1="69.41" x2="99.21" y2="87.82"/>
  <line class="st0" x1="99.21" y1="87.82" x2="141.73" y2="124.64"/>
  <line class="st0" x1="56.69" y1="51" x2="99.21" y2="87.82"/>
  <line class="st0" x1="99.21" y1="87.82" x2="88.58" y2="32.58"/>
  <line class="st0" x1="109.84" y1="143.06" x2="99.21" y2="87.82"/>
  <line class="st0" x1="99.21" y1="87.82" x2="152.36" y2="106.23"/>
  <line class="st0" x1="46.06" y1="69.41" x2="99.21" y2="87.82"/>
  <line class="st0" x1="99.21" y1="87.82" x2="56.69" y2="124.64"/>
  <line class="st0" x1="141.73" y1="51" x2="99.21" y2="87.82"/>
  <line class="st0" x1="14.17" y1="87.82" x2="67.32" y2="69.41"/>
  <line class="st0" x1="14.17" y1="87.82" x2="67.32" y2="106.23"/>
  <line class="st0" x1="14.17" y1="87.82" x2="56.69" y2="51"/>
  <line class="st0" x1="14.17" y1="87.82" x2="56.69" y2="124.64"/>
  <line class="st0" x1="184.25" y1="87.82" x2="131.1" y2="69.41"/>
  <line class="st0" x1="184.25" y1="87.82" x2="131.1" y2="106.23"/>
  <line class="st0" x1="184.25" y1="87.82" x2="141.73" y2="51"/>
  <line class="st0" x1="184.25" y1="87.82" x2="141.73" y2="124.64"/>
  <line class="st0" x1="141.73" y1="161.47" x2="99.21" y2="124.64"/>
  <line class="st0" x1="141.73" y1="161.47" x2="131.1" y2="106.23"/>
  <line class="st0" x1="141.73" y1="161.47" x2="88.58" y2="143.06"/>
  <line class="st0" x1="141.73" y1="161.47" x2="152.36" y2="106.23"/>
  <line class="st0" x1="56.69" y1="14.17" x2="67.32" y2="69.41"/>
  <line class="st0" x1="56.69" y1="14.17" x2="99.21" y2="51"/>
  <line class="st0" x1="56.69" y1="14.17" x2="46.06" y2="69.41"/>
  <line class="st0" x1="56.69" y1="14.17" x2="109.84" y2="32.58"/>
  <line class="st0" x1="141.73" y1="14.17" x2="131.1" y2="69.41"/>
  <line class="st0" x1="141.73" y1="14.17" x2="99.21" y2="51"/>
  <line class="st0" x1="141.73" y1="14.17" x2="152.36" y2="69.41"/>
  <line class="st0" x1="141.73" y1="14.17" x2="88.58" y2="32.58"/>
  <line class="st0" x1="56.69" y1="161.47" x2="99.21" y2="124.64"/>
  <line class="st0" x1="56.69" y1="161.47" x2="67.32" y2="106.23"/>
  <line class="st0" x1="56.69" y1="161.47" x2="109.84" y2="143.06"/>
  <line class="st0" x1="56.69" y1="161.47" x2="46.06" y2="106.23"/>
  <text class="st1" transform="translate(92.54 515.99)"><tspan x="0" y="0">105</tspan></text>
  <text class="st1" transform="translate(92.54 686.07)"><tspan x="0" y="0">106</tspan></text>
  <path class="st0" d="M99.21,257.9c0-27.62,10.63-55.24,10.63-55.24"/>
  <path class="st0" d="M99.21,257.9c0,27.62-10.63,55.24-10.63,55.24"/>
  <path class="st0" d="M99.21,257.9c0-27.62-10.63-55.24-10.63-55.24"/>
  <path class="st0" d="M56.69,331.55c0-27.62,10.63-55.24,10.63-55.24"/>
  <path class="st0" d="M56.69,331.55c0-27.62-10.63-55.24-10.63-55.24"/>
  <path class="st0" d="M99.21,257.9c0,27.62,10.63,55.24,10.63,55.24"/>
  <path class="st0" d="M141.73,184.25c0,27.62-10.63,55.24-10.63,55.24"/>
  <path class="st0" d="M141.73,184.25c0,27.62,10.63,55.24,10.63,55.24"/>
  <path class="st0" d="M184.25,257.9c-23.92,13.81-53.15,18.41-53.15,18.41"/>
  <path class="st0" d="M184.25,257.9c-23.92,13.81-42.52,36.82-42.52,36.82"/>
  <path class="st0" d="M14.17,257.9c23.92-13.81,53.15-18.41,53.15-18.41"/>
  <path class="st0" d="M14.17,257.9c23.92-13.81,42.52-36.82,42.52-36.82"/>
  <path class="st0" d="M56.69,184.25c23.92,13.81,42.52,36.82,42.52,36.82"/>
  <path class="st0" d="M56.69,184.25c23.92,13.81,53.15,18.41,53.15,18.41"/>
  <path class="st0" d="M141.73,331.54c-23.92-13.81-42.52-36.82-42.52-36.82"/>
  <path class="st0" d="M141.73,331.54c-23.92-13.81-53.15-18.41-53.15-18.41"/>
  <path class="st0" d="M141.73,331.55c0-27.62-10.63-55.24-10.63-55.24"/>
  <path class="st0" d="M141.73,331.55c0-27.62,10.63-55.24,10.63-55.24"/>
  <path class="st0" d="M56.69,184.25c0,27.62,10.63,55.24,10.63,55.24"/>
  <path class="st0" d="M56.69,184.25c0,27.62-10.63,55.24-10.63,55.24"/>
  <path class="st0" d="M14.17,257.9c23.92,13.81,53.15,18.41,53.15,18.41"/>
  <path class="st0" d="M14.17,257.9c23.92,13.81,42.52,36.82,42.52,36.82"/>
  <path class="st0" d="M184.25,257.9c-23.92-13.81-53.15-18.41-53.15-18.41"/>
  <path class="st0" d="M184.25,257.9c-23.92-13.81-42.52-36.82-42.52-36.82"/>
  <path class="st0" d="M141.73,184.25c-23.92,13.81-42.52,36.82-42.52,36.82"/>
  <path class="st0" d="M141.73,184.25c-23.92,13.81-53.15,18.41-53.15,18.41"/>
  <path class="st0" d="M56.69,331.54c23.92-13.81,42.52-36.82,42.52-36.82"/>
  <path class="st0" d="M56.69,331.54c23.92-13.81,53.15-18.41,53.15-18.41"/>
  <path class="st0" d="M99.21,257.9c-23.92,13.81-53.15,18.41-53.15,18.41"/>
  <path class="st0" d="M99.21,257.9c23.92-13.81,53.15-18.41,53.15-18.41"/>
  <path class="st0" d="M99.21,257.9c-23.92,13.81-42.52,36.82-42.52,36.82"/>
  <path class="st0" d="M99.21,257.9c23.92-13.81,42.52-36.82,42.52-36.82"/>
  <path class="st0" d="M99.21,257.9c23.92,13.81,42.52,36.82,42.52,36.82"/>
  <path class="st0" d="M99.21,257.9c-23.92-13.81-42.52-36.82-42.52-36.82"/>
  <path class="st0" d="M99.21,257.9c23.92,13.81,53.15,18.41,53.15,18.41"/>
  <path class="st0" d="M99.21,257.9c-23.92-13.81-53.15-18.41-53.15-18.41"/>
  <path class="st0" d="M99.21,427.98c10.63-27.62,10.63-55.24,10.63-55.24"/>
  <path class="st0" d="M99.21,427.98c-10.63-27.62-10.63-55.24-10.63-55.24"/>
  <path class="st0" d="M56.69,501.63c10.63-27.62,10.63-55.24,10.63-55.24"/>
  <path class="st0" d="M56.69,501.63c-10.63-27.62-10.63-55.24-10.63-55.24"/>
  <path class="st0" d="M99.21,427.98c-10.63,27.62-10.63,55.24-10.63,55.24"/>
  <path class="st0" d="M99.21,427.98c10.63,27.62,10.63,55.24,10.63,55.24"/>
  <path class="st0" d="M141.73,354.33c-10.63,27.62-10.63,55.24-10.63,55.24"/>
  <path class="st0" d="M141.73,354.33c10.63,27.62,10.63,55.24,10.63,55.24"/>
  <path class="st0" d="M184.25,427.98c-29.23,4.6-53.15,18.41-53.15,18.41"/>
  <path class="st0" d="M184.25,427.98c-18.6,23.01-42.52,36.82-42.52,36.82"/>
  <path class="st0" d="M14.17,427.98c29.23-4.6,53.15-18.41,53.15-18.41"/>
  <path class="st0" d="M14.17,427.98c18.6-23.01,42.52-36.82,42.52-36.82"/>
  <path class="st0" d="M56.69,354.33c18.6,23.01,42.52,36.82,42.52,36.82"/>
  <path class="st0" d="M56.69,354.33c29.23,4.6,53.15,18.41,53.15,18.41"/>
  <path class="st0" d="M141.73,501.62c-18.6-23.01-42.52-36.82-42.52-36.82"/>
  <path class="st0" d="M141.73,501.62c-29.23-4.6-53.15-18.41-53.15-18.41"/>
  <path class="st0" d="M141.73,501.63c-10.63-27.62-10.63-55.24-10.63-55.24"/>
  <path class="st0" d="M141.73,501.63c10.63-27.62,10.63-55.24,10.63-55.24"/>
  <path class="st0" d="M56.69,354.33c10.63,27.62,10.63,55.24,10.63,55.24"/>
  <path class="st0" d="M56.69,354.33c-10.63,27.62-10.63,55.24-10.63,55.24"/>
  <path class="st0" d="M14.17,427.98c29.23,4.6,53.15,18.41,53.15,18.41"/>
  <path class="st0" d="M14.17,427.98c18.6,23.01,42.52,36.82,42.52,36.82"/>
  <path class="st0" d="M184.25,427.98c-29.23-4.6-53.15-18.41-53.15-18.41"/>
  <path class="st0" d="M184.25,427.98c-18.6-23.01-42.52-36.82-42.52-36.82"/>
  <path class="st0" d="M141.73,354.33c-18.6,23.01-42.52,36.82-42.52,36.82"/>
  <path class="st0" d="M141.73,354.33c-29.23,4.6-53.15,18.41-53.15,18.41"/>
  <path class="st0" d="M56.69,501.62c18.6-23.01,42.52-36.82,42.52-36.82"/>
  <path class="st0" d="M56.69,501.62c29.23-4.6,53.15-18.41,53.15-18.41"/>
  <path class="st0" d="M99.21,427.98c-29.23,4.6-53.15,18.41-53.15,18.41"/>
  <path class="st0" d="M99.21,427.98c-18.6,23.01-42.52,36.82-42.52,36.82"/>
  <path class="st0" d="M99.21,427.98c29.23-4.6,53.15-18.41,53.15-18.41"/>
  <path class="st0" d="M99.21,427.98c18.6-23.01,42.52-36.82,42.52-36.82"/>
  <path class="st0" d="M99.21,427.98c18.6,23.01,42.52,36.82,42.52,36.82"/>
  <path class="st0" d="M99.21,427.98c29.23,4.6,53.15,18.41,53.15,18.41"/>
  <path class="st0" d="M99.21,427.98c-18.6-23.01-42.52-36.82-42.52-36.82"/>
  <path class="st0" d="M99.21,427.98c-29.23-4.6-53.15-18.41-53.15-18.41"/>
  <path class="st0" d="M99.21,598.06c15.64-27.64.18-46.08,10.63-55.24"/>
  <path class="st0" d="M99.21,598.06c-15.64-27.64-.18-46.08-10.63-55.24"/>
  <path class="st0" d="M56.69,671.7c15.64-27.64.18-46.08,10.63-55.24"/>
  <path class="st0" d="M56.69,671.7c-15.64-27.64-.18-46.08-10.63-55.24"/>
  <path class="st0" d="M99.21,598.06c-15.64,27.64-.18,46.08-10.63,55.24"/>
  <path class="st0" d="M99.21,598.06c15.64,27.64.18,46.08,10.63,55.24"/>
  <path class="st0" d="M141.73,524.41c-15.64,27.64-.18,46.08-10.63,55.24"/>
  <path class="st0" d="M141.73,524.41c15.64,27.64.18,46.08,10.63,55.24"/>
  <path class="st0" d="M184.25,598.06c-31.76.28-40,22.88-53.15,18.41"/>
  <path class="st0" d="M184.25,598.06c-16.12,27.36-39.82,23.2-42.52,36.82"/>
  <path class="st0" d="M14.17,598.06c31.76-.28,40-22.88,53.15-18.41"/>
  <path class="st0" d="M14.17,598.06c16.12-27.36,39.82-23.2,42.52-36.82"/>
  <path class="st0" d="M56.69,524.41c16.12,27.36,39.82,23.2,42.52,36.82"/>
  <path class="st0" d="M56.69,524.41c31.75.28,40,22.88,53.15,18.41"/>
  <path class="st0" d="M141.73,671.7c-16.12-27.36-39.82-23.2-42.52-36.82"/>
  <path class="st0" d="M141.73,671.7c-31.76-.28-40-22.88-53.15-18.41"/>
  <path class="st0" d="M141.73,671.7c-15.64-27.64-.18-46.08-10.63-55.24"/>
  <path class="st0" d="M141.73,671.7c15.64-27.64.18-46.08,10.63-55.24"/>
  <path class="st0" d="M56.69,524.41c15.64,27.64.18,46.08,10.63,55.24"/>
  <path class="st0" d="M56.69,524.41c-15.64,27.64-.18,46.08-10.63,55.24"/>
  <path class="st0" d="M14.17,598.06c31.76.28,40,22.88,53.15,18.41"/>
  <path class="st0" d="M14.17,598.06c16.12,27.36,39.82,23.2,42.52,36.82"/>
  <path class="st0" d="M184.25,598.06c-31.76-.28-40-22.88-53.15-18.41"/>
  <path class="st0" d="M184.25,598.06c-16.12-27.36-39.82-23.2-42.52-36.82"/>
  <path class="st0" d="M141.73,524.41c-16.12,27.36-39.82,23.2-42.52,36.82"/>
  <path class="st0" d="M141.73,524.41c-31.75.28-40,22.88-53.15,18.41"/>
  <path class="st0" d="M56.69,671.7c16.12-27.36,39.82-23.2,42.52-36.82"/>
  <path class="st0" d="M56.69,671.7c31.76-.28,40-22.88,53.15-18.41"/>
  <path class="st0" d="M99.21,598.06c-31.76.28-40,22.88-53.15,18.41"/>
  <path class="st0" d="M99.21,598.06c-16.12,27.36-39.82,23.2-42.52,36.82"/>
  <path class="st0" d="M99.21,598.06c31.76-.28,40-22.88,53.15-18.41"/>
  <path class="st0" d="M99.21,598.06c16.12-27.36,39.82-23.2,42.52-36.82"/>
  <path class="st0" d="M99.21,598.06c16.12,27.36,39.82,23.2,42.52,36.82"/>
  <path class="st0" d="M99.21,598.06c31.76.28,40,22.88,53.15,18.41"/>
  <path class="st0" d="M99.21,598.06c-16.12-27.36-39.82-23.2-42.52-36.82"/>
  <path class="st0" d="M99.21,598.06c-31.76-.28-40-22.88-53.15-18.41"/>
</svg>