<?xml version="1.0" encoding="UTF-8"?>
<svg id="Ebene_2" xmlns="http://www.w3.org/2000/svg" version="1.1" viewBox="0 0 311.81 70.87">
  <!-- Generator: Adobe Illustrator 29.1.0, SVG Export Plug-In . SVG Version: 2.1.0 Build 142)  -->
  <defs>
    <style>
      .st0 {
        fill: none;
        fill-rule: evenodd;
        stroke: #1d1d1b;
        stroke-linecap: round;
        stroke-miterlimit: 10;
        stroke-width: 1.2px;
      }

      .st1 {
        fill: #1d1d1b;
        font-family: MyriadPro-Regular, 'Myriad Pro';
        font-size: 8px;
      }
    </style>
  </defs>
  <path class="st0" d="M14.17,14.17c3.82,1.75,5.6,5.17,1.59,10.44-.83,1.09.11,2.5,1.86,2.48,2.03-.03,4.28-1.41,4.19.09-.43,6.88,7.74,10.53,13.31,12.12"/>
  <path class="st0" d="M34.59,14.17c3.82,1.75,5.6,5.17,1.59,10.44-.83,1.09.11,2.5,1.86,2.48,2.03-.03,4.28-1.41,4.19.09-.43,6.88,7.74,10.53,13.31,12.12"/>
  <path class="st0" d="M55,14.17c3.82,1.75,5.6,5.17,1.59,10.44-.83,1.09.11,2.5,1.86,2.48,2.03-.03,4.28-1.41,4.19.09-.43,6.88,7.74,10.53,13.31,12.12"/>
  <path class="st0" d="M75.41,14.17c3.82,1.75,5.6,5.17,1.59,10.44-.83,1.09.11,2.5,1.86,2.48,2.03-.03,4.28-1.41,4.19.09-.43,6.88,7.74,10.53,13.31,12.12"/>
  <path class="st0" d="M95.82,14.17c3.82,1.75,5.6,5.17,1.59,10.44-.83,1.09.11,2.5,1.86,2.48,2.03-.03,4.28-1.41,4.19.09-.43,6.88,7.74,10.53,13.31,12.12"/>
  <path class="st0" d="M116.23,14.17c3.82,1.75,5.6,5.17,1.59,10.44-.83,1.09.11,2.5,1.86,2.48,2.03-.03,4.28-1.41,4.19.09-.43,6.88,7.74,10.53,13.31,12.12"/>
  <path class="st0" d="M136.65,14.17c3.82,1.75,5.6,5.17,1.59,10.44-.83,1.09.11,2.5,1.86,2.48,2.03-.03,4.28-1.41,4.19.09-.43,6.88,7.74,10.53,13.31,12.12"/>
  <path class="st0" d="M157.06,14.17c3.82,1.75,5.6,5.17,1.59,10.44-.83,1.09.11,2.5,1.86,2.48,2.03-.03,4.28-1.41,4.19.09-.43,6.88,7.74,10.53,13.31,12.12"/>
  <path class="st0" d="M177.47,14.17c3.82,1.75,5.6,5.17,1.59,10.44-.83,1.09.11,2.5,1.86,2.48,2.03-.03,4.28-1.41,4.19.09-.43,6.88,7.74,10.53,13.31,12.12"/>
  <text class="st1" transform="translate(102.2 62.37)"><tspan x="0" y="0">11</tspan></text>
</svg>