<?xml version="1.0" encoding="UTF-8"?>
<svg xmlns="http://www.w3.org/2000/svg" version="1.1" viewBox="0 0 255.12 56.69">
  <!-- Generator: Adobe Illustrator 29.1.0, SVG Export Plug-In . SVG Version: 2.1.0 Build 142)  -->
  <defs>
    <style>
      .st0 {
        fill: #1d1d1b;
      }

      .st0, .st1, .st2, .st3, .st4 {
        fill-rule: evenodd;
      }

      .st1 {
        stroke-width: 1.2px;
      }

      .st1, .st3 {
        fill: none;
        stroke: #1d1d1b;
        stroke-linecap: round;
        stroke-miterlimit: 10;
      }

      .st2 {
        fill: #fff;
      }

      .st5 {
        display: none;
      }
    </style>
  </defs>
  <g id="Ebene_1" class="st5">
    <path class="st0" d="M118.66,16.08c3.75-.05,5.47,4.15,4.26,7.68-.36,1.06-1.83,2.73-1.26,3.72,1.9.43,3.91-.92,5.28,0,.28.95,0,2.26.3,3.36.67,2.42,2.7,4.75,4.74,5.82,1.77.93,3.46,1.89,5.46,2.52.92.29,2.1.29,2.46,1.14v.42c-1.1,1.43-4.48-.08-5.64-.6-3.11-1.4-6.57-3.54-8.28-6.36-.7-1.15-.44-3.02-1.08-4.2-.98.01-1.38.29-2.16.42-1.99.33-4.02-1.12-3.54-3.24.16-.69.78-.96,1.14-1.44.64-.87,1.48-2.94,1.02-4.56-.58-2.05-2.1-2.46-3.48-3.66v-.48l.24-.36c.18-.06.36-.12.54-.18Z"/>
    <path class="st3" d="M168.77,40.74c-1.1,1.43-4.48-.08-5.64-.6-3.11-1.4-6.57-3.54-8.28-6.36-.7-1.15-.44-3.02-1.08-4.2-.98.01-1.38.29-2.16.42-1.99.33-4.02-1.12-3.54-3.24.16-.69.78-.96,1.14-1.44.64-.87,1.48-2.94,1.02-4.56-.58-2.05-2.1-2.46-3.48-3.66"/>
    <g>
      <path class="st2" d="M39.98,13.46h26.52v29.82h-26.58V13.64c0-.09,0-.17.06-.18ZM46.1,26.3c.13-.24.44-.44.6-.72.09-.16.03-.37.12-.54.08-.17.34-.25.42-.42.14-.28.14-.78.3-1.2.05-.14.25-.28.3-.42.57-1.6.32-3.4-.42-4.56-.18-.28-.32-.62-.48-.78-.11-.1-.35-.12-.48-.24-.23-.2-.33-.56-.54-.72-.43-.33-1.02-.44-1.44-.72-.79-.07-1.34.1-1.62.54.16.64.56.5,1.02.72.21.1.44.44.72.6.16.09.34.05.42.12.04.04.05.26.12.36.1.14.33.25.42.36.75.88,1.3,2.62.9,4.08-.06.23-.29.39-.36.6-.24.67-.33,1.33-.72,1.8-.33.4-.92.72-1.08,1.2-.24.74.08,1.32.18,1.92.33.29.8.44.96.9.51.19,1.16.24,1.68.42.28-.12.67-.13,1.08-.12.42-.36,1.49-.65,1.98-.24-.14,3.04,1.11,4.73,2.7,6.42.44.22.7.62,1.2.78,0,.19.07.29.12.42.76.17,1.29.86,1.98,1.14.14.05.29-.01.42.06.25.14.37.42.6.6.91.68,2.25,1.01,3.18,1.62,1.15.03,2.51.81,3.54.6.22-.04.83-.32.84-.66.02-.68-.93-.62-1.44-.78-.56-.18-1.38-.71-2.1-.66-3.53-1.93-7.56-3.36-8.88-7.5-.59-.77-.64-2.48-.42-3.54-.09-.17-.17-.35-.24-.54-1.34-.69-2.65.51-4.08.42-.41-.03-.74-.3-1.2-.18-.31-.28-.23-.71-.3-1.14Z"/>
      <path class="st2" d="M44.96,27.02c.1-.02.1.06.18.06.02.16-.08.2-.24.18-.03-.13.04-.16.06-.24Z"/>
      <path class="st2" d="M51.44,30.56c-.29.33-.55-.09-.72-.24.02-.86.73-.25.72.24Z"/>
      <path class="st2" d="M53.42,34.04c.05.13.16.21.12.42-.07.07-.21.07-.36.06-.08-.1-.16-.2-.12-.42.07-.07.21-.07.36-.06Z"/>
      <path class="st2" d="M54.32,35.54c.14.03.25.23.12.36-.11,0-.13-.07-.24-.06-.05-.19.09-.19.12-.3Z"/>
      <path class="st2" d="M56.24,36.98h.18c.05.07.08.16.06.3-.18.04-.12.04-.3,0-.02-.14,0-.23.06-.3Z"/>
      <path class="st2" d="M58.94,38.66c-.19.05-.19-.09-.3-.12.03-.2.39-.14.3.12Z"/>
      <path class="st4" d="M46.4,27.44c.46-.12.79.15,1.2.18,1.43.09,2.74-1.11,4.08-.42.07.19.15.37.24.54-.22,1.07-.17,2.77.42,3.54,1.32,4.14,5.35,5.57,8.88,7.5.72-.05,1.54.48,2.1.66.51.16,1.46.09,1.44.78-.01.34-.62.62-.84.66-1.03.21-2.39-.57-3.54-.6-.93-.61-2.27-.94-3.18-1.62-.23-.17-.35-.46-.6-.6-.12-.07-.28,0-.42-.06-.69-.28-1.22-.97-1.98-1.14-.05-.13-.13-.23-.12-.42-.49-.17-.76-.56-1.2-.78-1.59-1.69-2.84-3.38-2.7-6.42-.49-.41-1.56-.12-1.98.24-.41-.01-.8,0-1.08.12-.52-.18-1.17-.23-1.68-.42-.16-.46-.63-.61-.96-.9-.1-.6-.42-1.18-.18-1.92.16-.48.75-.8,1.08-1.2.39-.47.48-1.13.72-1.8.07-.21.3-.37.36-.6.4-1.46-.15-3.2-.9-4.08-.09-.11-.32-.22-.42-.36-.07-.1-.08-.32-.12-.36-.08-.07-.26-.03-.42-.12-.28-.16-.5-.5-.72-.6-.46-.22-.86-.08-1.02-.72.28-.44.83-.61,1.62-.54.42.28,1.01.39,1.44.72.21.16.31.52.54.72.13.12.37.13.48.24.16.16.3.5.48.78.74,1.16.99,2.96.42,4.56-.05.14-.25.28-.3.42-.16.42-.16.92-.3,1.2-.08.17-.34.25-.42.42-.09.17-.03.38-.12.54-.16.29-.47.48-.6.72.07.43-.01.86.3,1.14ZM44.9,27.26c.16.02.26-.02.24-.18-.08,0-.08-.08-.18-.06-.02.08-.09.11-.06.24ZM50.72,30.32c.17.15.43.57.72.24,0-.49-.7-1.1-.72-.24ZM53.06,34.1c-.04.22.04.32.12.42.15,0,.29,0,.36-.06.04-.21-.07-.29-.12-.42-.15,0-.29,0-.36.06ZM54.2,35.84c.11-.01.13.07.24.06.13-.13.02-.33-.12-.36-.03.11-.17.11-.12.3ZM56.18,37.28c.18.04.12.04.3,0,.02-.14,0-.23-.06-.3h-.18c-.05.07-.08.16-.06.3ZM58.64,38.54c.11.03.11.17.3.12.09-.26-.27-.32-.3-.12Z"/>
    </g>
    <path class="st3" d="M106.34,16.61c3.64,1.67,5.34,4.94,1.52,9.97-.79,1.04.11,2.39,1.78,2.37,1.94-.03,4.09-1.34,4,.09-.41,6.57,7.39,10.05,12.71,11.57"/>
  </g>
  <g id="Ebene_2">
    <path class="st1" d="M22.87,10.5c3.64,1.67,5.34,4.93,1.52,9.97-.79,1.04.11,2.39,1.78,2.37,1.94-.03,4.09-1.34,4,.09-.41,6.57,7.39,10.05,12.71,11.57"/>
    <path class="st1" d="M42.35,10.5c3.64,1.67,5.34,4.93,1.52,9.97-.79,1.04.11,2.39,1.78,2.37,1.94-.03,4.08-1.34,4,.09-.41,6.57,7.39,10.05,12.7,11.57"/>
    <path class="st1" d="M61.83,10.5c3.64,1.67,5.34,4.93,1.52,9.97-.79,1.04.11,2.39,1.78,2.37,1.94-.03,4.09-1.34,4,.09-.41,6.57,7.39,10.05,12.71,11.57"/>
    <path class="st1" d="M81.31,10.5c3.64,1.67,5.34,4.93,1.52,9.97-.79,1.04.11,2.39,1.78,2.37,1.94-.03,4.08-1.34,4,.09-.41,6.57,7.39,10.05,12.71,11.57"/>
    <path class="st1" d="M100.79,10.5c3.64,1.67,5.34,4.93,1.52,9.97-.79,1.04.11,2.39,1.78,2.37,1.94-.03,4.09-1.34,4,.09-.41,6.57,7.39,10.05,12.71,11.57"/>
    <path class="st1" d="M120.28,10.5c3.64,1.67,5.34,4.93,1.52,9.97-.79,1.04.11,2.39,1.78,2.37,1.94-.03,4.09-1.34,4,.09-.41,6.57,7.39,10.05,12.7,11.57"/>
    <path class="st1" d="M139.76,10.5c3.64,1.67,5.34,4.93,1.52,9.97-.79,1.04.11,2.39,1.78,2.37,1.94-.03,4.08-1.34,4,.09-.41,6.57,7.39,10.05,12.7,11.57"/>
    <path class="st1" d="M159.24,10.5c3.64,1.67,5.34,4.93,1.52,9.97-.79,1.04.11,2.39,1.78,2.37,1.94-.03,4.08-1.34,4,.09-.41,6.57,7.39,10.05,12.71,11.57"/>
    <path class="st1" d="M178.72,10.5c3.64,1.67,5.34,4.93,1.52,9.97-.79,1.04.11,2.39,1.78,2.37,1.94-.03,4.08-1.34,4,.09-.41,6.57,7.39,10.05,12.71,11.57"/>
  </g>
</svg>