<?xml version="1.0" encoding="UTF-8"?>
<svg id="Ebene_1" xmlns="http://www.w3.org/2000/svg" version="1.1" viewBox="0 0 255.12 56.69">
  <!-- Generator: Adobe Illustrator 29.1.0, SVG Export Plug-In . SVG Version: 2.1.0 Build 142)  -->
  <defs>
    <style>
      .st0 {
        fill: none;
        fill-rule: evenodd;
        stroke: #1d1d1b;
        stroke-linecap: round;
        stroke-miterlimit: 10;
        stroke-width: 1.2px;
      }
    </style>
  </defs>
  <path class="st0" d="M25.54,36.96c.47-.93,2.84-.73,3.84-1.14.62-.38,1.24-.76,1.86-1.14,1.85-1.34,3.86-2.96,5.28-4.74.7-.88,1.25-2.23,2.58-2.46,1.43-.24,2.19,1.03,2.94,1.56,1.35.95,2.25,2.53,3.24,3.84.64.64,1.28,1.28,1.92,1.92.6.77.93,1.43,1.68,2.04.62.5,2.4,2.4,3.66,2.04,2.12-.6,1.05-3.7.36-5.16-2.32-4.91-1.3-7.45,1.2-11.52.85-1.38,1.79-3.15,3.66-3.48,2.73-.48,3.8,3.62,5.16,4.8,1.04.92,2.08,1.84,3.12,2.76,2.09,1.49,4.37,2.69,6.36,4.26,2.23,1.77,3.06,4.7,6.12,5.7,1.21.39,2.3-.32,3.06-.6,2.68-1,4.51-4.04,6.36-6,.81-.86,1.79-2.55,3.78-1.8,1.93.73,5.64,6.31,6.96,8.16.76,1.06,1.89,3.38,4.08,2.7,1.64-.51,1.65-2.34,1.26-4.2-.36-1.72-2.16-4.15-1.68-6.54.59-2.93,3.71-8.97,6.3-9.6.83-.2,1.54.18,1.92.48.66.52.82,1.59,1.26,2.34.7,1.19,1.47,2.28,2.28,3.36,1.05,1.39,3.06,2.22,4.5,3.24,3.12,2.21,5.99,4.09,8.22,7.2.54.75,2.38,1.97,3.84,1.68,2.78-.56,4.67-2.99,6.18-4.86.48-.6,1.4-.94,1.86-1.56.54-.72,1.98-3.24,3.24-3,1.36.26,2.38,1.47,3.12,2.4,1.78,2.22,3.95,4.12,5.64,6.48.65.91,2.1,3.26,3.96,2.04,2.52-1.64-.45-5.9-.9-7.68-.85-3.34,1.2-7.94,2.52-9.66.26-.24.52-.48.78-.72.56-.76.94-1.59,2.04-1.8,2.44-.47,3.79,4.07,4.86,5.4,1.16,1.45,3.25,2.68,4.8,3.72,1.17.79,2.62,1.09,3.72,1.92,1.39,1.04,3.01,2.41,4.08,3.78.79,1.01,1.55,2.31,2.64,3,4.04,2.57,8.55-3.11,10.02-5.46.65-1.04,1.58-3.25,3.66-2.76,1.2.28,2.23,1.98,2.88,2.88,1.58,1.76,3.16,3.52,4.74,5.28.61.79,2.07,3.01,3.78,2.52,3.59-1.03-.82-6.41-.3-9.66.69-4.33,2.25-9.01,5.58-10.74,3.92,0,5,5.3,6.72,7.74,1.47,2.08,4.56,3.09,6.6,4.62,2.16,1.62,3.45,3.92,5.16,6,.77.94,2.34,1.47,3.24,2.28"/>
</svg>