<?xml version="1.0" encoding="UTF-8"?>
<svg id="Ebene_2" xmlns="http://www.w3.org/2000/svg" version="1.1" viewBox="0 0 311.81 70.87">
  <!-- Generator: Adobe Illustrator 29.1.0, SVG Export Plug-In . SVG Version: 2.1.0 Build 142)  -->
  <defs>
    <style>
      .st0 {
        fill: none;
        fill-rule: evenodd;
        stroke: #1d1d1b;
        stroke-linecap: round;
        stroke-miterlimit: 10;
        stroke-width: 1.2px;
      }

      .st1 {
        fill: #1d1d1b;
        font-family: Helvetica, Helvetica;
        font-size: 8px;
      }
    </style>
  </defs>
  <path class="st0" d="M14.17,36.45c2.3,1.15,5.08-.48,6.79-2.08,1.72-1.61,3.13-3.57,4.69-5.33,3.33-3.76,6.95,2.32,8.72,4.78,1.02,1.41,1.93,2.95,3.02,4.3.6.74,1.39,1.39,2.38,1.39,1.2,0,2.11-.76,2.31-1.94.45-2.62-1.26-4.8-1.84-7.23-.52-2.19.43-4.36,1.38-6.3.93-1.9,2.08-3.92,3.72-5.3.7-.59,1.55-1.04,2.49-.8,1.4.36,1.63,1.58,2.19,2.72,1.3,2.67,3.19,4.73,5.72,6.22,2.37,1.4,4.67,3.06,6.76,4.85,1.03.88,1.99,1.83,2.83,2.89.81,1,1.36,1.93,2.71,2.18"/>
  <path class="st0" d="M67.09,36.45c2.3,1.15,5.08-.48,6.79-2.08,1.72-1.61,3.13-3.57,4.69-5.33,3.33-3.76,6.95,2.32,8.72,4.78,1.02,1.41,1.93,2.95,3.02,4.3.6.74,1.39,1.39,2.38,1.39,1.2,0,2.11-.76,2.31-1.94.45-2.62-1.26-4.8-1.84-7.23-.52-2.19.43-4.36,1.38-6.3.93-1.9,2.08-3.92,3.72-5.3.7-.59,1.55-1.04,2.49-.8,1.4.36,1.63,1.58,2.19,2.72,1.3,2.67,3.19,4.73,5.72,6.22,2.37,1.4,4.67,3.06,6.76,4.85,1.03.88,1.99,1.83,2.83,2.89.81,1,1.36,1.93,2.71,2.18"/>
  <path class="st0" d="M120,36.45c2.3,1.15,5.08-.48,6.79-2.08,1.72-1.61,3.13-3.57,4.69-5.33,3.33-3.76,6.95,2.32,8.72,4.78,1.02,1.41,1.93,2.95,3.02,4.3.6.74,1.39,1.39,2.38,1.39,1.2,0,2.11-.76,2.31-1.94.45-2.62-1.26-4.8-1.84-7.23-.52-2.19.43-4.36,1.38-6.3.93-1.9,2.08-3.92,3.72-5.3.7-.59,1.55-1.04,2.49-.8,1.4.36,1.63,1.58,2.18,2.72,1.3,2.67,3.19,4.73,5.72,6.22,2.37,1.4,4.67,3.06,6.76,4.85,1.03.88,1.99,1.83,2.83,2.89.81,1,1.36,1.93,2.71,2.18"/>
  <path class="st0" d="M172.92,36.45c2.3,1.15,5.08-.48,6.79-2.08,1.72-1.61,3.13-3.57,4.69-5.33,3.33-3.76,6.95,2.32,8.72,4.78,1.02,1.41,1.93,2.95,3.02,4.3.6.74,1.39,1.39,2.38,1.39,1.2,0,2.11-.76,2.31-1.94.45-2.62-1.26-4.8-1.84-7.23-.52-2.19.43-4.36,1.38-6.3.93-1.9,2.08-3.92,3.72-5.3.7-.59,1.55-1.04,2.49-.8,1.4.36,1.63,1.58,2.19,2.72,1.3,2.67,3.19,4.73,5.72,6.22,2.37,1.4,4.67,3.06,6.76,4.85,1.03.88,1.99,1.83,2.83,2.89.81,1,1.36,1.93,2.71,2.18"/>
  <text class="st1" transform="translate(116.02 62.44)"><tspan x="0" y="0">12</tspan></text>
</svg>