<?xml version="1.0" encoding="UTF-8"?>
<svg id="Ebene_2" xmlns="http://www.w3.org/2000/svg" version="1.1" viewBox="0 0 311.81 85.04">
  <!-- Generator: Adobe Illustrator 29.1.0, SVG Export Plug-In . SVG Version: 2.1.0 Build 142)  -->
  <defs>
    <style>
      .st0 {
        fill: none;
        stroke: #1d1d1b;
        stroke-linecap: round;
        stroke-miterlimit: 10;
        stroke-width: 1.2px;
      }

      .st1 {
        letter-spacing: .06em;
      }

      .st1, .st2 {
        fill: #1d1d1b;
        font-family: Helvetica, Helvetica;
        font-size: 8px;
      }
    </style>
  </defs>
  <path class="st0" d="M14.17,45.23c2.29-7.49,12.96-10.77,17.84-9.87,20.35,3.74,54.76-.8,51.65-12.28-3.42-12.63-46.3-6.87-51.9,12.78-1.3,4.56-4.26,19.83,24.68,19.83,26.96,0,45.11-27.13,65.62-27.13"/>
  <path class="st0" d="M132.3,43.33c2.76-4.47,10.16-9.63,21.2-8.86,11.31.79,35.28,8.8,55.03-10.83-5.37-11.34-46.75-12.07-60,20.83,4.37,5.36,18.75,11.23,32.75,11.23,22.12,0,35.62-23.87,54-23.87"/>
  <text class="st2" transform="translate(54.47 76.62)"><tspan x="0" y="0">a</tspan></text>
  <text class="st1" transform="translate(174.94 76.62)"><tspan x="0" y="0">b</tspan></text>
  <text class="st1" transform="translate(115.78 76.62)"><tspan x="0" y="0">13</tspan></text>
</svg>