<?xml version="1.0" encoding="UTF-8"?>
<svg id="Pfad" xmlns="http://www.w3.org/2000/svg" version="1.1" viewBox="0 0 255.12 56.69">
  <!-- Generator: Adobe Illustrator 29.1.0, SVG Export Plug-In . SVG Version: 2.1.0 Build 142)  -->
  <defs>
    <style>
      .st0 {
        fill: none;
        stroke: #1d1d1b;
        stroke-linecap: round;
        stroke-miterlimit: 10;
        stroke-width: 1.2px;
      }
    </style>
  </defs>
  <path class="st0" d="M22.28,36.93c2.29-7.49,12.96-10.77,17.84-9.87,20.35,3.74,54.76-.8,51.65-12.28-3.42-12.63-46.3-6.87-51.9,12.78-1.3,4.56-4.26,19.83,24.68,19.83,26.96,0,45.11-27.13,65.62-27.13"/>
  <path class="st0" d="M140.41,35.02c2.76-4.47,10.16-9.63,21.2-8.86,11.31.79,35.28,8.8,55.03-10.83-5.37-11.34-46.75-12.07-60,20.83,4.37,5.36,18.75,11.23,32.75,11.23,22.12,0,35.62-23.87,54-23.87"/>
</svg>