<?xml version="1.0" encoding="UTF-8"?>
<svg xmlns="http://www.w3.org/2000/svg" viewBox="0 0 4270.39 2970.71">
  <defs>
    <style>
      .cls-1 {
        fill: #1d1d1b;
      }

      .cls-2, .cls-3 {
        fill: none;
        stroke: #1d1d1b;
        stroke-miterlimit: 10;
        stroke-width: 12px;
      }

      .cls-3 {
        stroke-linecap: round;
      }
    </style>
  </defs>
  <g id="_135" data-name="135">
    <line class="cls-3" x1="527.33" y1="464.17" x2="1063.29" y2="649.84"/>
    <line class="cls-3" x1="1063.29" y1="649.84" x2="527.33" y2="835.51"/>
    <line class="cls-3" x1="741.71" y1="464.17" x2="205.75" y2="649.84"/>
    <line class="cls-3" x1="205.75" y1="649.84" x2="741.71" y2="835.51"/>
    <line class="cls-3" x1="527.32" y1="835.51" x2="420.13" y2="278.52"/>
    <line class="cls-3" x1="420.13" y1="278.52" x2="848.91" y2="649.84"/>
    <line class="cls-3" x1="420.13" y1="649.84" x2="848.9" y2="1021.16"/>
    <line class="cls-3" x1="848.9" y1="1021.16" x2="741.72" y2="464.17"/>
    <line class="cls-3" x1="848.91" y1="649.84" x2="420.13" y2="1021.17"/>
    <line class="cls-3" x1="420.13" y1="1021.16" x2="527.32" y2="464.17"/>
    <line class="cls-3" x1="741.72" y1="835.51" x2="848.9" y2="278.52"/>
    <line class="cls-3" x1="848.9" y1="278.52" x2="420.13" y2="649.84"/>
    <line class="cls-3" x1="-115.83" y1="92.82" x2="420.13" y2="278.49"/>
    <line class="cls-3" x1="420.13" y1="278.49" x2="-115.83" y2="464.16"/>
    <line class="cls-3" x1="98.56" y1="92.82" x2="-437.4" y2="278.49"/>
    <line class="cls-3" x1="-437.4" y1="278.49" x2="98.56" y2="464.16"/>
    <line class="cls-3" x1="-223.02" y1="-92.83" x2="205.76" y2="278.49"/>
    <line class="cls-3" x1="-223.02" y1="278.49" x2="205.75" y2="649.81"/>
    <line class="cls-3" x1="205.75" y1="649.81" x2="98.56" y2="92.82"/>
    <line class="cls-3" x1="205.76" y1="278.49" x2="-223.02" y2="649.82"/>
    <line class="cls-3" x1="98.56" y1="464.16" x2="205.75" y2="-92.83"/>
    <line class="cls-3" x1="205.75" y1="-92.83" x2="-223.02" y2="278.49"/>
    <line class="cls-3" x1="1063.29" y1="-92.82" x2="527.33" y2="92.85"/>
    <line class="cls-3" x1="205.75" y1="-92.82" x2="741.71" y2="92.85"/>
    <line class="cls-3" x1="527.32" y1="92.85" x2="420.13" y2="-464.14"/>
    <line class="cls-3" x1="420.13" y1="-92.82" x2="848.9" y2="278.5"/>
    <line class="cls-3" x1="848.9" y1="278.5" x2="741.72" y2="-278.49"/>
    <line class="cls-3" x1="848.91" y1="-92.82" x2="420.13" y2="278.51"/>
    <line class="cls-3" x1="420.13" y1="278.5" x2="527.32" y2="-278.49"/>
    <line class="cls-3" x1="741.72" y1="92.85" x2="848.9" y2="-464.14"/>
    <line class="cls-3" x1="1813.63" y1="464.17" x2="2349.59" y2="649.84"/>
    <line class="cls-3" x1="2349.59" y1="649.84" x2="1813.63" y2="835.51"/>
    <line class="cls-3" x1="2028.02" y1="464.17" x2="1492.06" y2="649.84"/>
    <line class="cls-3" x1="1492.06" y1="649.84" x2="2028.02" y2="835.51"/>
    <line class="cls-3" x1="1813.63" y1="835.51" x2="1706.44" y2="278.52"/>
    <line class="cls-3" x1="1706.44" y1="278.52" x2="2135.21" y2="649.84"/>
    <line class="cls-3" x1="1706.43" y1="649.84" x2="2135.21" y2="1021.16"/>
    <line class="cls-3" x1="2135.21" y1="1021.16" x2="2028.02" y2="464.17"/>
    <line class="cls-3" x1="2135.21" y1="649.84" x2="1706.44" y2="1021.17"/>
    <line class="cls-3" x1="1706.44" y1="1021.16" x2="1813.63" y2="464.17"/>
    <line class="cls-3" x1="2028.02" y1="835.51" x2="2135.21" y2="278.52"/>
    <line class="cls-3" x1="2135.21" y1="278.52" x2="1706.43" y2="649.84"/>
    <line class="cls-3" x1="1170.48" y1="92.82" x2="1706.44" y2="278.49"/>
    <line class="cls-3" x1="1706.44" y1="278.49" x2="1170.48" y2="464.16"/>
    <line class="cls-3" x1="1384.86" y1="92.82" x2="848.9" y2="278.49"/>
    <line class="cls-3" x1="848.9" y1="278.49" x2="1384.86" y2="464.16"/>
    <line class="cls-3" x1="1170.47" y1="464.16" x2="1063.29" y2="-92.83"/>
    <line class="cls-3" x1="1063.29" y1="-92.83" x2="1492.06" y2="278.49"/>
    <line class="cls-3" x1="1063.28" y1="278.49" x2="1492.06" y2="649.81"/>
    <line class="cls-3" x1="1492.06" y1="649.81" x2="1384.87" y2="92.82"/>
    <line class="cls-3" x1="1492.06" y1="278.49" x2="1063.29" y2="649.82"/>
    <line class="cls-3" x1="1063.29" y1="649.81" x2="1170.47" y2="92.82"/>
    <line class="cls-3" x1="1384.87" y1="464.16" x2="1492.06" y2="-92.83"/>
    <line class="cls-3" x1="1492.06" y1="-92.83" x2="1063.28" y2="278.49"/>
    <line class="cls-3" x1="2349.59" y1="-92.82" x2="1813.63" y2="92.85"/>
    <line class="cls-3" x1="1492.06" y1="-92.82" x2="2028.02" y2="92.85"/>
    <line class="cls-3" x1="1813.63" y1="92.85" x2="1706.44" y2="-464.14"/>
    <line class="cls-3" x1="1706.43" y1="-92.82" x2="2135.21" y2="278.5"/>
    <line class="cls-3" x1="2135.21" y1="278.5" x2="2028.02" y2="-278.49"/>
    <line class="cls-3" x1="2135.21" y1="-92.82" x2="1706.44" y2="278.51"/>
    <line class="cls-3" x1="1706.44" y1="278.5" x2="1813.63" y2="-278.49"/>
    <line class="cls-3" x1="2028.02" y1="92.85" x2="2135.21" y2="-464.14"/>
    <line class="cls-3" x1="3099.94" y1="464.17" x2="3635.9" y2="649.84"/>
    <line class="cls-3" x1="3635.9" y1="649.84" x2="3099.94" y2="835.51"/>
    <line class="cls-3" x1="3314.32" y1="464.17" x2="2778.36" y2="649.84"/>
    <line class="cls-3" x1="2778.36" y1="649.84" x2="3314.32" y2="835.51"/>
    <line class="cls-3" x1="3099.93" y1="835.51" x2="2992.75" y2="278.52"/>
    <line class="cls-3" x1="2992.75" y1="278.52" x2="3421.52" y2="649.84"/>
    <line class="cls-3" x1="2992.74" y1="649.84" x2="3421.51" y2="1021.16"/>
    <line class="cls-3" x1="3421.51" y1="1021.16" x2="3314.33" y2="464.17"/>
    <line class="cls-3" x1="3421.52" y1="649.84" x2="2992.75" y2="1021.17"/>
    <line class="cls-3" x1="2992.75" y1="1021.16" x2="3099.93" y2="464.17"/>
    <line class="cls-3" x1="3314.33" y1="835.51" x2="3421.51" y2="278.52"/>
    <line class="cls-3" x1="3421.51" y1="278.52" x2="2992.74" y2="649.84"/>
    <line class="cls-3" x1="2456.79" y1="92.82" x2="2992.75" y2="278.49"/>
    <line class="cls-3" x1="2992.75" y1="278.49" x2="2456.78" y2="464.16"/>
    <line class="cls-3" x1="2671.17" y1="92.82" x2="2135.21" y2="278.49"/>
    <line class="cls-3" x1="2135.21" y1="278.49" x2="2671.17" y2="464.16"/>
    <line class="cls-3" x1="2456.78" y1="464.16" x2="2349.59" y2="-92.83"/>
    <line class="cls-3" x1="2349.59" y1="-92.83" x2="2778.37" y2="278.49"/>
    <line class="cls-3" x1="2349.59" y1="278.49" x2="2778.36" y2="649.81"/>
    <line class="cls-3" x1="2778.36" y1="649.81" x2="2671.17" y2="92.82"/>
    <line class="cls-3" x1="2778.37" y1="278.49" x2="2349.59" y2="649.82"/>
    <line class="cls-3" x1="2349.59" y1="649.81" x2="2456.78" y2="92.82"/>
    <line class="cls-3" x1="2671.18" y1="464.16" x2="2778.36" y2="-92.83"/>
    <line class="cls-3" x1="2778.36" y1="-92.83" x2="2349.59" y2="278.49"/>
    <line class="cls-3" x1="3635.9" y1="-92.82" x2="3099.94" y2="92.85"/>
    <line class="cls-3" x1="2778.36" y1="-92.82" x2="3314.32" y2="92.85"/>
    <line class="cls-3" x1="3099.93" y1="92.85" x2="2992.75" y2="-464.14"/>
    <line class="cls-3" x1="2992.74" y1="-92.82" x2="3421.51" y2="278.5"/>
    <line class="cls-3" x1="3421.51" y1="278.5" x2="3314.33" y2="-278.49"/>
    <line class="cls-3" x1="3421.52" y1="-92.82" x2="2992.75" y2="278.51"/>
    <line class="cls-3" x1="2992.75" y1="278.5" x2="3099.93" y2="-278.49"/>
    <line class="cls-3" x1="3314.33" y1="92.85" x2="3421.51" y2="-464.14"/>
    <line class="cls-3" x1="4600.63" y1="464.17" x2="4064.67" y2="649.84"/>
    <line class="cls-3" x1="4064.67" y1="649.84" x2="4600.63" y2="835.51"/>
    <line class="cls-3" x1="3743.09" y1="92.82" x2="4279.05" y2="278.49"/>
    <line class="cls-3" x1="4279.05" y1="278.49" x2="3743.09" y2="464.16"/>
    <line class="cls-3" x1="3957.47" y1="92.82" x2="3421.51" y2="278.49"/>
    <line class="cls-3" x1="3421.51" y1="278.49" x2="3957.47" y2="464.16"/>
    <line class="cls-3" x1="3743.08" y1="464.16" x2="3635.9" y2="-92.83"/>
    <line class="cls-3" x1="3635.9" y1="-92.83" x2="4064.67" y2="278.49"/>
    <line class="cls-3" x1="3635.89" y1="278.49" x2="4064.67" y2="649.81"/>
    <line class="cls-3" x1="4064.67" y1="649.81" x2="3957.48" y2="92.82"/>
    <line class="cls-3" x1="4064.67" y1="278.49" x2="3635.9" y2="649.82"/>
    <line class="cls-3" x1="3635.9" y1="649.81" x2="3743.08" y2="92.82"/>
    <line class="cls-3" x1="3957.48" y1="464.16" x2="4064.67" y2="-92.83"/>
    <line class="cls-3" x1="4064.67" y1="-92.83" x2="3635.89" y2="278.49"/>
    <line class="cls-3" x1="4064.67" y1="-92.82" x2="4600.63" y2="92.85"/>
    <line class="cls-3" x1="527.33" y1="1949.51" x2="1063.29" y2="2135.18"/>
    <line class="cls-3" x1="1063.29" y1="2135.18" x2="527.33" y2="2320.85"/>
    <line class="cls-3" x1="741.71" y1="1949.51" x2="205.75" y2="2135.18"/>
    <line class="cls-3" x1="205.75" y1="2135.18" x2="741.71" y2="2320.85"/>
    <line class="cls-3" x1="527.32" y1="2320.84" x2="420.13" y2="1763.85"/>
    <line class="cls-3" x1="420.13" y1="1763.85" x2="848.91" y2="2135.17"/>
    <line class="cls-3" x1="420.13" y1="2135.18" x2="848.9" y2="2506.5"/>
    <line class="cls-3" x1="848.9" y1="2506.5" x2="741.72" y2="1949.51"/>
    <line class="cls-3" x1="848.91" y1="2135.18" x2="420.13" y2="2506.5"/>
    <line class="cls-3" x1="420.13" y1="2506.5" x2="527.32" y2="1949.51"/>
    <line class="cls-3" x1="741.72" y1="2320.84" x2="848.9" y2="1763.85"/>
    <line class="cls-3" x1="848.9" y1="1763.85" x2="420.13" y2="2135.17"/>
    <line class="cls-3" x1="-115.83" y1="1578.16" x2="420.13" y2="1763.83"/>
    <line class="cls-3" x1="420.13" y1="1763.83" x2="-115.83" y2="1949.5"/>
    <line class="cls-3" x1="98.56" y1="1578.16" x2="-437.4" y2="1763.83"/>
    <line class="cls-3" x1="-437.4" y1="1763.83" x2="98.56" y2="1949.5"/>
    <line class="cls-3" x1="-223.02" y1="1392.5" x2="205.76" y2="1763.82"/>
    <line class="cls-3" x1="-223.02" y1="1763.83" x2="205.75" y2="2135.15"/>
    <line class="cls-3" x1="205.75" y1="2135.15" x2="98.56" y2="1578.16"/>
    <line class="cls-3" x1="205.76" y1="1763.83" x2="-223.02" y2="2135.15"/>
    <line class="cls-3" x1="98.56" y1="1949.49" x2="205.75" y2="1392.5"/>
    <line class="cls-3" x1="205.75" y1="1392.5" x2="-223.02" y2="1763.82"/>
    <line class="cls-3" x1="527.33" y1="1206.85" x2="1063.29" y2="1392.52"/>
    <line class="cls-3" x1="1063.29" y1="1392.52" x2="527.33" y2="1578.19"/>
    <line class="cls-3" x1="741.71" y1="1206.85" x2="205.75" y2="1392.52"/>
    <line class="cls-3" x1="205.75" y1="1392.52" x2="741.71" y2="1578.19"/>
    <line class="cls-3" x1="527.32" y1="1578.18" x2="420.13" y2="1021.19"/>
    <line class="cls-3" x1="420.13" y1="1021.19" x2="848.91" y2="1392.51"/>
    <line class="cls-3" x1="420.13" y1="1392.52" x2="848.9" y2="1763.84"/>
    <line class="cls-3" x1="848.9" y1="1763.84" x2="741.72" y2="1206.85"/>
    <line class="cls-3" x1="848.91" y1="1392.52" x2="420.13" y2="1763.84"/>
    <line class="cls-3" x1="420.13" y1="1763.84" x2="527.32" y2="1206.85"/>
    <line class="cls-3" x1="741.72" y1="1578.18" x2="848.9" y2="1021.19"/>
    <line class="cls-3" x1="848.9" y1="1021.19" x2="420.13" y2="1392.51"/>
    <line class="cls-3" x1="-115.83" y1="835.5" x2="420.13" y2="1021.17"/>
    <line class="cls-3" x1="420.13" y1="1021.17" x2="-115.83" y2="1206.84"/>
    <line class="cls-3" x1="98.56" y1="835.5" x2="-437.4" y2="1021.17"/>
    <line class="cls-3" x1="-437.4" y1="1021.17" x2="98.56" y2="1206.84"/>
    <line class="cls-3" x1="-223.02" y1="649.84" x2="205.76" y2="1021.16"/>
    <line class="cls-3" x1="-223.02" y1="1021.17" x2="205.75" y2="1392.49"/>
    <line class="cls-3" x1="205.75" y1="1392.49" x2="98.56" y2="835.5"/>
    <line class="cls-3" x1="205.76" y1="1021.17" x2="-223.02" y2="1392.49"/>
    <line class="cls-3" x1="98.56" y1="1206.83" x2="205.75" y2="649.84"/>
    <line class="cls-3" x1="205.75" y1="649.84" x2="-223.02" y2="1021.16"/>
    <line class="cls-3" x1="1813.63" y1="1949.51" x2="2349.59" y2="2135.18"/>
    <line class="cls-3" x1="2349.59" y1="2135.18" x2="1813.63" y2="2320.85"/>
    <line class="cls-3" x1="2028.02" y1="1949.51" x2="1492.06" y2="2135.18"/>
    <line class="cls-3" x1="1492.06" y1="2135.18" x2="2028.02" y2="2320.85"/>
    <line class="cls-3" x1="1813.63" y1="2320.84" x2="1706.44" y2="1763.85"/>
    <line class="cls-3" x1="1706.44" y1="1763.85" x2="2135.21" y2="2135.17"/>
    <line class="cls-3" x1="1706.43" y1="2135.18" x2="2135.21" y2="2506.5"/>
    <line class="cls-3" x1="2135.21" y1="2506.5" x2="2028.02" y2="1949.51"/>
    <line class="cls-3" x1="2135.21" y1="2135.18" x2="1706.44" y2="2506.5"/>
    <line class="cls-3" x1="1706.44" y1="2506.5" x2="1813.63" y2="1949.51"/>
    <line class="cls-3" x1="2028.02" y1="2320.84" x2="2135.21" y2="1763.85"/>
    <line class="cls-3" x1="2135.21" y1="1763.85" x2="1706.43" y2="2135.17"/>
    <line class="cls-3" x1="1170.48" y1="1578.16" x2="1706.44" y2="1763.83"/>
    <line class="cls-3" x1="1706.44" y1="1763.83" x2="1170.48" y2="1949.5"/>
    <line class="cls-3" x1="1384.86" y1="1578.16" x2="848.9" y2="1763.83"/>
    <line class="cls-3" x1="848.9" y1="1763.83" x2="1384.86" y2="1949.5"/>
    <line class="cls-3" x1="1170.47" y1="1949.49" x2="1063.29" y2="1392.5"/>
    <line class="cls-3" x1="1063.29" y1="1392.5" x2="1492.06" y2="1763.82"/>
    <line class="cls-3" x1="1063.28" y1="1763.83" x2="1492.06" y2="2135.15"/>
    <line class="cls-3" x1="1492.06" y1="2135.15" x2="1384.87" y2="1578.16"/>
    <line class="cls-3" x1="1492.06" y1="1763.83" x2="1063.29" y2="2135.15"/>
    <line class="cls-3" x1="1063.29" y1="2135.15" x2="1170.47" y2="1578.16"/>
    <line class="cls-3" x1="1384.87" y1="1949.49" x2="1492.06" y2="1392.5"/>
    <line class="cls-3" x1="1492.06" y1="1392.5" x2="1063.28" y2="1763.82"/>
    <line class="cls-3" x1="1813.63" y1="1206.85" x2="2349.59" y2="1392.52"/>
    <line class="cls-3" x1="2349.59" y1="1392.52" x2="1813.63" y2="1578.19"/>
    <line class="cls-3" x1="2028.02" y1="1206.85" x2="1492.06" y2="1392.52"/>
    <line class="cls-3" x1="1492.06" y1="1392.52" x2="2028.02" y2="1578.19"/>
    <line class="cls-3" x1="1813.63" y1="1578.18" x2="1706.44" y2="1021.19"/>
    <line class="cls-3" x1="1706.44" y1="1021.19" x2="2135.21" y2="1392.51"/>
    <line class="cls-3" x1="1706.43" y1="1392.52" x2="2135.21" y2="1763.84"/>
    <line class="cls-3" x1="2135.21" y1="1763.84" x2="2028.02" y2="1206.85"/>
    <line class="cls-3" x1="2135.21" y1="1392.52" x2="1706.44" y2="1763.84"/>
    <line class="cls-3" x1="1706.44" y1="1763.84" x2="1813.63" y2="1206.85"/>
    <line class="cls-3" x1="2028.02" y1="1578.18" x2="2135.21" y2="1021.19"/>
    <line class="cls-3" x1="2135.21" y1="1021.19" x2="1706.43" y2="1392.51"/>
    <line class="cls-3" x1="1170.48" y1="835.5" x2="1706.44" y2="1021.17"/>
    <line class="cls-3" x1="1706.44" y1="1021.17" x2="1170.48" y2="1206.84"/>
    <line class="cls-3" x1="1384.86" y1="835.5" x2="848.9" y2="1021.17"/>
    <line class="cls-3" x1="848.9" y1="1021.17" x2="1384.86" y2="1206.84"/>
    <line class="cls-3" x1="1170.47" y1="1206.83" x2="1063.29" y2="649.84"/>
    <line class="cls-3" x1="1063.29" y1="649.84" x2="1492.06" y2="1021.16"/>
    <line class="cls-3" x1="1063.28" y1="1021.17" x2="1492.06" y2="1392.49"/>
    <line class="cls-3" x1="1492.06" y1="1392.49" x2="1384.87" y2="835.5"/>
    <line class="cls-3" x1="1492.06" y1="1021.17" x2="1063.29" y2="1392.49"/>
    <line class="cls-3" x1="1063.29" y1="1392.49" x2="1170.47" y2="835.5"/>
    <line class="cls-3" x1="1384.87" y1="1206.83" x2="1492.06" y2="649.84"/>
    <line class="cls-3" x1="1492.06" y1="649.84" x2="1063.28" y2="1021.16"/>
    <line class="cls-3" x1="3099.94" y1="1949.51" x2="3635.9" y2="2135.18"/>
    <line class="cls-3" x1="3635.9" y1="2135.18" x2="3099.94" y2="2320.85"/>
    <line class="cls-3" x1="3314.32" y1="1949.51" x2="2778.36" y2="2135.18"/>
    <line class="cls-3" x1="2778.36" y1="2135.18" x2="3314.32" y2="2320.85"/>
    <line class="cls-3" x1="3099.93" y1="2320.84" x2="2992.75" y2="1763.85"/>
    <line class="cls-3" x1="2992.75" y1="1763.85" x2="3421.52" y2="2135.17"/>
    <line class="cls-3" x1="2992.74" y1="2135.18" x2="3421.51" y2="2506.5"/>
    <line class="cls-3" x1="3421.51" y1="2506.5" x2="3314.33" y2="1949.51"/>
    <line class="cls-3" x1="3421.52" y1="2135.18" x2="2992.75" y2="2506.5"/>
    <line class="cls-3" x1="2992.75" y1="2506.5" x2="3099.93" y2="1949.51"/>
    <line class="cls-3" x1="3314.33" y1="2320.84" x2="3421.51" y2="1763.85"/>
    <line class="cls-3" x1="3421.51" y1="1763.85" x2="2992.74" y2="2135.17"/>
    <line class="cls-3" x1="2456.79" y1="1578.16" x2="2992.75" y2="1763.83"/>
    <line class="cls-3" x1="2992.75" y1="1763.83" x2="2456.78" y2="1949.5"/>
    <line class="cls-3" x1="2671.17" y1="1578.16" x2="2135.21" y2="1763.83"/>
    <line class="cls-3" x1="2135.21" y1="1763.83" x2="2671.17" y2="1949.5"/>
    <line class="cls-3" x1="2456.78" y1="1949.49" x2="2349.59" y2="1392.5"/>
    <line class="cls-3" x1="2349.59" y1="1392.5" x2="2778.37" y2="1763.82"/>
    <line class="cls-3" x1="2349.59" y1="1763.83" x2="2778.36" y2="2135.15"/>
    <line class="cls-3" x1="2778.36" y1="2135.15" x2="2671.17" y2="1578.16"/>
    <line class="cls-3" x1="2778.37" y1="1763.83" x2="2349.59" y2="2135.15"/>
    <line class="cls-3" x1="2349.59" y1="2135.15" x2="2456.78" y2="1578.16"/>
    <line class="cls-3" x1="2671.18" y1="1949.49" x2="2778.36" y2="1392.5"/>
    <line class="cls-3" x1="2778.36" y1="1392.5" x2="2349.59" y2="1763.82"/>
    <line class="cls-3" x1="3099.94" y1="1206.85" x2="3635.9" y2="1392.52"/>
    <line class="cls-3" x1="3635.9" y1="1392.52" x2="3099.94" y2="1578.19"/>
    <line class="cls-3" x1="3314.32" y1="1206.85" x2="2778.36" y2="1392.52"/>
    <line class="cls-3" x1="2778.36" y1="1392.52" x2="3314.32" y2="1578.19"/>
    <line class="cls-3" x1="3099.93" y1="1578.18" x2="2992.75" y2="1021.19"/>
    <line class="cls-3" x1="2992.75" y1="1021.19" x2="3421.52" y2="1392.51"/>
    <line class="cls-3" x1="2992.74" y1="1392.52" x2="3421.51" y2="1763.84"/>
    <line class="cls-3" x1="3421.51" y1="1763.84" x2="3314.33" y2="1206.85"/>
    <line class="cls-3" x1="3421.52" y1="1392.52" x2="2992.75" y2="1763.84"/>
    <line class="cls-3" x1="2992.75" y1="1763.84" x2="3099.93" y2="1206.85"/>
    <line class="cls-3" x1="3314.33" y1="1578.18" x2="3421.51" y2="1021.19"/>
    <line class="cls-3" x1="3421.51" y1="1021.19" x2="2992.74" y2="1392.51"/>
    <line class="cls-3" x1="2456.79" y1="835.5" x2="2992.75" y2="1021.17"/>
    <line class="cls-3" x1="2992.75" y1="1021.17" x2="2456.78" y2="1206.84"/>
    <line class="cls-3" x1="2671.17" y1="835.5" x2="2135.21" y2="1021.17"/>
    <line class="cls-3" x1="2135.21" y1="1021.17" x2="2671.17" y2="1206.84"/>
    <line class="cls-3" x1="2456.78" y1="1206.83" x2="2349.59" y2="649.84"/>
    <line class="cls-3" x1="2349.59" y1="649.84" x2="2778.37" y2="1021.16"/>
    <line class="cls-3" x1="2349.59" y1="1021.17" x2="2778.36" y2="1392.49"/>
    <line class="cls-3" x1="2778.36" y1="1392.49" x2="2671.17" y2="835.5"/>
    <line class="cls-3" x1="2778.37" y1="1021.17" x2="2349.59" y2="1392.49"/>
    <line class="cls-3" x1="2349.59" y1="1392.49" x2="2456.78" y2="835.5"/>
    <line class="cls-3" x1="2671.18" y1="1206.83" x2="2778.36" y2="649.84"/>
    <line class="cls-3" x1="2778.36" y1="649.84" x2="2349.59" y2="1021.16"/>
    <line class="cls-3" x1="4600.63" y1="1949.51" x2="4064.67" y2="2135.18"/>
    <line class="cls-3" x1="4064.67" y1="2135.18" x2="4600.63" y2="2320.85"/>
    <line class="cls-3" x1="3743.09" y1="1578.16" x2="4279.05" y2="1763.83"/>
    <line class="cls-3" x1="4279.05" y1="1763.83" x2="3743.09" y2="1949.5"/>
    <line class="cls-3" x1="3957.47" y1="1578.16" x2="3421.51" y2="1763.83"/>
    <line class="cls-3" x1="3421.51" y1="1763.83" x2="3957.47" y2="1949.5"/>
    <line class="cls-3" x1="3743.08" y1="1949.49" x2="3635.9" y2="1392.5"/>
    <line class="cls-3" x1="3635.9" y1="1392.5" x2="4064.67" y2="1763.82"/>
    <line class="cls-3" x1="3635.89" y1="1763.83" x2="4064.67" y2="2135.15"/>
    <line class="cls-3" x1="4064.67" y1="2135.15" x2="3957.48" y2="1578.16"/>
    <line class="cls-3" x1="4064.67" y1="1763.83" x2="3635.9" y2="2135.15"/>
    <line class="cls-3" x1="3635.9" y1="2135.15" x2="3743.08" y2="1578.16"/>
    <line class="cls-3" x1="3957.48" y1="1949.49" x2="4064.67" y2="1392.5"/>
    <line class="cls-3" x1="4064.67" y1="1392.5" x2="3635.89" y2="1763.82"/>
    <line class="cls-3" x1="4600.63" y1="1206.85" x2="4064.67" y2="1392.52"/>
    <line class="cls-3" x1="4064.67" y1="1392.52" x2="4600.63" y2="1578.19"/>
    <line class="cls-3" x1="3743.09" y1="835.5" x2="4279.05" y2="1021.17"/>
    <line class="cls-3" x1="4279.05" y1="1021.17" x2="3743.09" y2="1206.84"/>
    <line class="cls-3" x1="3957.47" y1="835.5" x2="3421.51" y2="1021.17"/>
    <line class="cls-3" x1="3421.51" y1="1021.17" x2="3957.47" y2="1206.84"/>
    <line class="cls-3" x1="3743.08" y1="1206.83" x2="3635.9" y2="649.84"/>
    <line class="cls-3" x1="3635.9" y1="649.84" x2="4064.67" y2="1021.16"/>
    <line class="cls-3" x1="3635.89" y1="1021.17" x2="4064.67" y2="1392.49"/>
    <line class="cls-3" x1="4064.67" y1="1392.49" x2="3957.48" y2="835.5"/>
    <line class="cls-3" x1="4064.67" y1="1021.17" x2="3635.9" y2="1392.49"/>
    <line class="cls-3" x1="3635.9" y1="1392.49" x2="3743.08" y2="835.5"/>
    <line class="cls-3" x1="3957.48" y1="1206.83" x2="4064.67" y2="649.84"/>
    <line class="cls-3" x1="4064.67" y1="649.84" x2="3635.89" y2="1021.16"/>
    <line class="cls-3" x1="-223.02" y1="2877.84" x2="205.76" y2="3249.16"/>
    <line class="cls-3" x1="98.56" y1="3434.83" x2="205.75" y2="2877.84"/>
    <line class="cls-3" x1="205.75" y1="2877.84" x2="-223.02" y2="3249.16"/>
    <line class="cls-3" x1="527.33" y1="2692.18" x2="1063.29" y2="2877.85"/>
    <line class="cls-3" x1="1063.29" y1="2877.85" x2="527.33" y2="3063.52"/>
    <line class="cls-3" x1="741.71" y1="2692.18" x2="205.75" y2="2877.85"/>
    <line class="cls-3" x1="205.75" y1="2877.85" x2="741.71" y2="3063.52"/>
    <line class="cls-3" x1="527.32" y1="3063.52" x2="420.13" y2="2506.53"/>
    <line class="cls-3" x1="420.13" y1="2506.53" x2="848.91" y2="2877.85"/>
    <line class="cls-3" x1="420.13" y1="2877.86" x2="848.9" y2="3249.18"/>
    <line class="cls-3" x1="848.9" y1="3249.18" x2="741.72" y2="2692.19"/>
    <line class="cls-3" x1="848.91" y1="2877.86" x2="420.13" y2="3249.18"/>
    <line class="cls-3" x1="420.13" y1="3249.18" x2="527.32" y2="2692.19"/>
    <line class="cls-3" x1="741.72" y1="3063.52" x2="848.9" y2="2506.53"/>
    <line class="cls-3" x1="848.9" y1="2506.53" x2="420.13" y2="2877.85"/>
    <line class="cls-3" x1="-115.83" y1="2320.83" x2="420.13" y2="2506.5"/>
    <line class="cls-3" x1="420.13" y1="2506.5" x2="-115.83" y2="2692.17"/>
    <line class="cls-3" x1="98.56" y1="2320.83" x2="-437.4" y2="2506.5"/>
    <line class="cls-3" x1="-437.4" y1="2506.5" x2="98.56" y2="2692.17"/>
    <line class="cls-3" x1="-223.02" y1="2135.18" x2="205.76" y2="2506.5"/>
    <line class="cls-3" x1="-223.02" y1="2506.51" x2="205.75" y2="2877.83"/>
    <line class="cls-3" x1="205.75" y1="2877.83" x2="98.56" y2="2320.84"/>
    <line class="cls-3" x1="205.76" y1="2506.51" x2="-223.02" y2="2877.83"/>
    <line class="cls-3" x1="98.56" y1="2692.17" x2="205.75" y2="2135.18"/>
    <line class="cls-3" x1="205.75" y1="2135.18" x2="-223.02" y2="2506.5"/>
    <line class="cls-3" x1="1170.47" y1="3434.83" x2="1063.29" y2="2877.84"/>
    <line class="cls-3" x1="1063.29" y1="2877.84" x2="1492.06" y2="3249.16"/>
    <line class="cls-3" x1="1384.87" y1="3434.83" x2="1492.06" y2="2877.84"/>
    <line class="cls-3" x1="1492.06" y1="2877.84" x2="1063.28" y2="3249.16"/>
    <line class="cls-3" x1="1813.63" y1="2692.18" x2="2349.59" y2="2877.85"/>
    <line class="cls-3" x1="2349.59" y1="2877.85" x2="1813.63" y2="3063.52"/>
    <line class="cls-3" x1="2028.02" y1="2692.18" x2="1492.06" y2="2877.85"/>
    <line class="cls-3" x1="1492.06" y1="2877.85" x2="2028.02" y2="3063.52"/>
    <line class="cls-3" x1="1813.63" y1="3063.52" x2="1706.44" y2="2506.53"/>
    <line class="cls-3" x1="1706.44" y1="2506.53" x2="2135.21" y2="2877.85"/>
    <line class="cls-3" x1="1706.43" y1="2877.86" x2="2135.21" y2="3249.18"/>
    <line class="cls-3" x1="2135.21" y1="3249.18" x2="2028.02" y2="2692.19"/>
    <line class="cls-3" x1="2135.21" y1="2877.86" x2="1706.44" y2="3249.18"/>
    <line class="cls-3" x1="1706.44" y1="3249.18" x2="1813.63" y2="2692.19"/>
    <line class="cls-3" x1="2028.02" y1="3063.52" x2="2135.21" y2="2506.53"/>
    <line class="cls-3" x1="2135.21" y1="2506.53" x2="1706.43" y2="2877.85"/>
    <line class="cls-3" x1="1170.48" y1="2320.83" x2="1706.44" y2="2506.5"/>
    <line class="cls-3" x1="1706.44" y1="2506.5" x2="1170.48" y2="2692.17"/>
    <line class="cls-3" x1="1384.86" y1="2320.83" x2="848.9" y2="2506.5"/>
    <line class="cls-3" x1="848.9" y1="2506.5" x2="1384.86" y2="2692.17"/>
    <line class="cls-3" x1="1170.47" y1="2692.17" x2="1063.29" y2="2135.18"/>
    <line class="cls-3" x1="1063.29" y1="2135.18" x2="1492.06" y2="2506.5"/>
    <line class="cls-3" x1="1063.28" y1="2506.51" x2="1492.06" y2="2877.83"/>
    <line class="cls-3" x1="1492.06" y1="2877.83" x2="1384.87" y2="2320.84"/>
    <line class="cls-3" x1="1492.06" y1="2506.51" x2="1063.29" y2="2877.83"/>
    <line class="cls-3" x1="1063.29" y1="2877.83" x2="1170.47" y2="2320.84"/>
    <line class="cls-3" x1="1384.87" y1="2692.17" x2="1492.06" y2="2135.18"/>
    <line class="cls-3" x1="1492.06" y1="2135.18" x2="1063.28" y2="2506.5"/>
    <line class="cls-3" x1="2456.78" y1="3434.83" x2="2349.59" y2="2877.84"/>
    <line class="cls-3" x1="2349.59" y1="2877.84" x2="2778.37" y2="3249.16"/>
    <line class="cls-3" x1="2671.18" y1="3434.83" x2="2778.36" y2="2877.84"/>
    <line class="cls-3" x1="2778.36" y1="2877.84" x2="2349.59" y2="3249.16"/>
    <line class="cls-3" x1="3099.94" y1="2692.18" x2="3635.9" y2="2877.85"/>
    <line class="cls-3" x1="3635.9" y1="2877.85" x2="3099.94" y2="3063.52"/>
    <line class="cls-3" x1="3314.32" y1="2692.18" x2="2778.36" y2="2877.85"/>
    <line class="cls-3" x1="2778.36" y1="2877.85" x2="3314.32" y2="3063.52"/>
    <line class="cls-3" x1="3099.93" y1="3063.52" x2="2992.75" y2="2506.53"/>
    <line class="cls-3" x1="2992.75" y1="2506.53" x2="3421.52" y2="2877.85"/>
    <line class="cls-3" x1="2992.74" y1="2877.86" x2="3421.51" y2="3249.18"/>
    <line class="cls-3" x1="3421.51" y1="3249.18" x2="3314.33" y2="2692.19"/>
    <line class="cls-3" x1="3421.52" y1="2877.86" x2="2992.75" y2="3249.18"/>
    <line class="cls-3" x1="2992.75" y1="3249.18" x2="3099.93" y2="2692.19"/>
    <line class="cls-3" x1="3314.33" y1="3063.52" x2="3421.51" y2="2506.53"/>
    <line class="cls-3" x1="3421.51" y1="2506.53" x2="2992.74" y2="2877.85"/>
    <line class="cls-3" x1="2456.79" y1="2320.83" x2="2992.75" y2="2506.5"/>
    <line class="cls-3" x1="2992.75" y1="2506.5" x2="2456.78" y2="2692.17"/>
    <line class="cls-3" x1="2671.17" y1="2320.83" x2="2135.21" y2="2506.5"/>
    <line class="cls-3" x1="2135.21" y1="2506.5" x2="2671.17" y2="2692.17"/>
    <line class="cls-3" x1="2456.78" y1="2692.17" x2="2349.59" y2="2135.18"/>
    <line class="cls-3" x1="2349.59" y1="2135.18" x2="2778.37" y2="2506.5"/>
    <line class="cls-3" x1="2349.59" y1="2506.51" x2="2778.36" y2="2877.83"/>
    <line class="cls-3" x1="2778.36" y1="2877.83" x2="2671.17" y2="2320.84"/>
    <line class="cls-3" x1="2778.37" y1="2506.51" x2="2349.59" y2="2877.83"/>
    <line class="cls-3" x1="2349.59" y1="2877.83" x2="2456.78" y2="2320.84"/>
    <line class="cls-3" x1="2671.18" y1="2692.17" x2="2778.36" y2="2135.18"/>
    <line class="cls-3" x1="2778.36" y1="2135.18" x2="2349.59" y2="2506.5"/>
    <line class="cls-3" x1="3743.08" y1="3434.83" x2="3635.9" y2="2877.84"/>
    <line class="cls-3" x1="3635.9" y1="2877.84" x2="4064.67" y2="3249.16"/>
    <line class="cls-3" x1="3957.48" y1="3434.83" x2="4064.67" y2="2877.84"/>
    <line class="cls-3" x1="4064.67" y1="2877.84" x2="3635.89" y2="3249.16"/>
    <line class="cls-3" x1="4600.63" y1="2692.18" x2="4064.67" y2="2877.85"/>
    <line class="cls-3" x1="4064.67" y1="2877.85" x2="4600.63" y2="3063.52"/>
    <line class="cls-3" x1="3743.09" y1="2320.83" x2="4279.05" y2="2506.5"/>
    <line class="cls-3" x1="4279.05" y1="2506.5" x2="3743.09" y2="2692.17"/>
    <line class="cls-3" x1="3957.47" y1="2320.83" x2="3421.51" y2="2506.5"/>
    <line class="cls-3" x1="3421.51" y1="2506.5" x2="3957.47" y2="2692.17"/>
    <line class="cls-3" x1="3743.08" y1="2692.17" x2="3635.9" y2="2135.18"/>
    <line class="cls-3" x1="3635.9" y1="2135.18" x2="4064.67" y2="2506.5"/>
    <line class="cls-3" x1="3635.89" y1="2506.51" x2="4064.67" y2="2877.83"/>
    <line class="cls-3" x1="4064.67" y1="2877.83" x2="3957.48" y2="2320.84"/>
    <line class="cls-3" x1="4064.67" y1="2506.51" x2="3635.9" y2="2877.83"/>
    <line class="cls-3" x1="3635.9" y1="2877.83" x2="3743.08" y2="2320.84"/>
    <line class="cls-3" x1="3957.48" y1="2692.17" x2="4064.67" y2="2135.18"/>
    <line class="cls-3" x1="4064.67" y1="2135.18" x2="3635.89" y2="2506.5"/>
  </g>
  <g id="_2._Sechseck" data-name="2. Sechseck">
    <circle class="cls-1" cx="527.33" cy="464.17" r="21.26"/>
    <circle class="cls-1" cx="312.94" cy="464.17" r="21.26"/>
    <circle class="cls-1" cx="741.71" cy="464.17" r="21.26"/>
    <circle class="cls-1" cx="956.09" cy="464.17" r="21.26"/>
    <circle class="cls-1" cx="527.33" cy="835.51" r="21.26" transform="translate(-407.6818 1154.7438) rotate(-76.5933)"/>
    <circle class="cls-1" cx="312.94" cy="835.51" r="21.26" transform="translate(-572.36 946.2) rotate(-76.59)"/>
    <circle class="cls-1" cx="741.71" cy="835.51" r="21.26" transform="translate(-373.55 769.18) rotate(-45)"/>
    <circle class="cls-1" cx="956.09" cy="835.51" r="21.26" transform="translate(-274.76 523.75) rotate(-26.94)"/>
    <circle class="cls-1" cx="420.13" cy="278.5" r="21.26" transform="translate(-52.22 454.45) rotate(-53.97)"/>
    <circle class="cls-1" cx="848.9" cy="278.5" r="21.26" transform="translate(384.4376 1041.7007) rotate(-76.8395)"/>
    <circle class="cls-1" cx="634.52" cy="278.5" r="21.26" transform="translate(-11.08 530.24) rotate(-45)"/>
    <circle class="cls-1" cx="420.13" cy="1021.18" r="21.26"/>
    <circle class="cls-1" cx="848.9" cy="1021.18" r="21.26"/>
    <circle class="cls-1" cx="634.52" cy="1021.18" r="21.26"/>
    <circle class="cls-1" cx="420.13" cy="649.84" r="21.26" transform="translate(-352.52 607.37) rotate(-53.97)"/>
    <circle class="cls-1" cx="205.75" cy="649.84" r="21.26" transform="translate(-222.61 119.62) rotate(-21.37)"/>
    <circle class="cls-1" cx="1063.29" cy="649.84" r="21.26" transform="translate(-167.75 456.37) rotate(-22.5)"/>
    <circle class="cls-1" cx="848.9" cy="649.84" r="21.26" transform="translate(22.8515 1328.4927) rotate(-76.8395)"/>
  </g>
  <g id="Rahmen">
    <rect class="cls-2" x="0" width="4270.39" height="2970.71"/>
  </g>
</svg>