<?xml version="1.0" encoding="UTF-8"?>
<svg id="Ebene_2" xmlns="http://www.w3.org/2000/svg" version="1.1" viewBox="0 0 311.81 85.04">
  <!-- Generator: Adobe Illustrator 29.1.0, SVG Export Plug-In . SVG Version: 2.1.0 Build 142)  -->
  <defs>
    <style>
      .st0 {
        fill: none;
        stroke: #1d1d1b;
        stroke-linecap: round;
        stroke-miterlimit: 10;
        stroke-width: 1.2px;
      }

      .st1 {
        fill: #1d1d1b;
        font-family: Helvetica, Helvetica;
        font-size: 8px;
      }
    </style>
  </defs>
  <path class="st0" d="M23.47,51.69c0-5.93-9.3-5.26-9.3,1.74,0,3.56,3.46,6.17,6.92,6.17,20.93,0,23.59-45.43,53.18-45.43,16.75,0,22.25,13.08,22.25,23.38,0,9.04-6.63,19.29-18.08,19.29-9.67,0-14.42-7.33-14.42-12.75s3.17-10.75,9.17-10.75,7.67,3.79,7.67,7"/>
  <path class="st0" d="M160.99,40.94c0-13.85,11.22-25.07,25.07-25.07s25.07,11.23,25.07,25.07"/>
  <path class="st0" d="M211.14,40.94c0,9.23-7.48,16.72-16.71,16.72s-16.72-7.48-16.72-16.72"/>
  <path class="st0" d="M177.7,40.94c0-4.62,3.74-8.36,8.36-8.36s8.36,3.74,8.36,8.36"/>
  <path class="st0" d="M160.99,40.94c0,9.23-7.48,16.72-16.71,16.72s-16.72-7.48-16.72-16.72"/>
  <path class="st0" d="M127.56,40.94c0-4.62,3.74-8.36,8.36-8.36s8.36,3.74,8.36,8.36"/>
  <text class="st1" transform="translate(54.47 76.62)"><tspan x="0" y="0">a</tspan></text>
  <text class="st1" transform="translate(167.85 76.62)"><tspan x="0" y="0">b</tspan></text>
  <text class="st1" transform="translate(108.94 76.62)"><tspan x="0" y="0">14</tspan></text>
</svg>