<?xml version="1.0" encoding="UTF-8"?>
<svg xmlns="http://www.w3.org/2000/svg" version="1.1" viewBox="0 0 255.12 56.69">
  <!-- Generator: Adobe Illustrator 29.1.0, SVG Export Plug-In . SVG Version: 2.1.0 Build 142)  -->
  <defs>
    <style>
      .st0, .st1 {
        stroke: #1d1d1b;
        stroke-linecap: round;
        stroke-miterlimit: 10;
        stroke-width: 1.2px;
      }

      .st0, .st1, .st2 {
        fill: none;
      }

      .st0, .st2 {
        fill-rule: evenodd;
      }

      .st3 {
        display: none;
      }
    </style>
  </defs>
  <g id="Ebene_1" class="st3">
    <path class="st0" d="M131.06,20.56c-1.54.08-3.08.16-4.62.24-4,1.17-9.1,2.8-12.36,4.8-5.26,3.23-10.31,6.6-15.72,9.6-1.14.82-2.28,1.64-3.42,2.46-1.44,1-3.07,1.57-4.56,2.52-1.29.82-2.77,1.93-4.26,2.52-3.21,1.26-6.43,2.29-9.78,3.36-2.34.44-4.68.88-7.02,1.32h-2.28c-10.11,1.77-23.04-2.37-26.82-8.46-.78-1.26-1.05-2.75-1.32-4.5.04-.58.08-1.16.12-1.74-.06-.46-.12-.92-.18-1.38l.72-5.28c.45-.33.98-1.79,1.32-2.34.77-1.23,1.69-2.44,2.52-3.72,1.09-1.68,2.73-3.43,4.38-4.56.86-.46,1.72-.92,2.58-1.38.6-.48,1.2-.96,1.8-1.44,4.41-2.48,9.48-3.88,15.24-5.04.32-.06,2.2-.22,2.46-.18.26.04.52.08.78.12.67-.16,1.65-.29,2.52-.36.61-.05,1.39.17,1.92-.06,2,.4,4.41-.15,6.42.24,4.14.81,8.35,1.36,10.5,4.38,1.6,2.25.81,5.91-.54,7.68-3.06,4-8.25,5.95-13.98,7.26-3.43.79-6.84,1.11-10.2,1.68h-3.54c-2.24.39-5.02.21-7.14,0-.6.04-1.2.08-1.8.12-2.92-.57-6.46-1.11-9.54-.9l-6.12.48c-.69-.29-4.12.66-4.86.84-3.6.85-6.73,2.42-8.7,5.04-.74.98-1.37,2.06-2.28,2.88"/>
    <path class="st0" d="M131.06,79.8c-1.54.08-3.08.16-4.62.24-2.77.81-5.53,1.67-8.2,2.79-2.74,1.15-5.24,2.66-7.75,4.24-5.19,3.26-10.58,6.25-15.55,9.83-1.72,1.19-3.71,1.94-5.45,3.1-1.95,1.3-3.92,2.24-6.12,3.03-2.2.79-4.44,1.46-6.67,2.16-2.34.74-4.95.98-7.37,1.43h-2.28c-6.02,1.05-12.34.17-18-2.07-2.75-1.09-5.46-2.55-7.51-4.71-2.09-2.19-2.71-4.97-2.51-7.92-.06-.46-.12-.92-.18-1.38.13-.93.3-1.87.38-2.81.06-.69.02-1.4.21-2.08.18-.63.72-1.16.99-1.77.41-.93.94-1.77,1.53-2.6,1.1-1.53,2.12-3.13,3.4-4.52,1.45-1.58,3.14-2.51,5.01-3.51.6-.48,1.2-.96,1.8-1.44,2.83-1.59,5.9-2.71,9.03-3.58,2.96-.83,6.36-1.99,9.45-1.52,2.59-.61,5.16-.18,7.77-.23,2.72-.05,5.36.36,7.98,1.07,2.15.59,4.48,1.56,5.71,3.52,1.3,2.08.89,4.92-.28,6.96-2.22,3.89-7.02,5.78-11.11,6.97-2.68.78-5.43,1.26-8.18,1.69-1.38.22-2.76.42-4.14.64-1.55.25-3.1.19-4.67.19-2.24.39-5.02.21-7.14,0-.6.04-1.2.08-1.8.12-3.12-.61-6.3-1.05-9.49-.89-1.54.07-3.09.23-4.63.35-1.3.1-2.52-.07-3.8.27-2.66.72-5.37,1.27-7.78,2.67-1.24.72-2.35,1.62-3.23,2.75-.84,1.08-1.55,2.28-2.57,3.2"/>
    <path class="st2" d="M185,10.54c8.32-.09,15.68.3,20.58,4.44,1.15.97,2.1,2.25,3.12,3.36-.05,1.36-1.42,2.2-2.16,2.94-1.79,1.79-3.51,2.86-5.64,4.32-.63.43-1.28,1.08-2.04,1.38-.28.04-.56.08-.84.12-.28.24-.56.48-.84.72-.96.44-1.92.88-2.88,1.32-3.3,1.36-7.2,2-10.86,2.88-2.31.56-4.7.12-7.02.24-8.18.44-14.98-1.21-22.32-2.34-1.91-.29-3.8,4.43-4.32,5.88-.24.68-1.16,1.22-.84,2.4.39,1.42,2.33,1.97,3.48,2.7.91.58,1.99,1.43,2.94,1.86,2.1.96,4.33,1.46,6.54,2.34,2.89,1.15,6.12,2.19,9.42,2.88,2.97.62,6.6.86,9.72.36,1.08-.06,2.16-.12,3.24-.18,2.91-.53,5.79-1.18,8.28-2.1.55-.21,1.07-.11,1.68-.36.3-.24.6-.48.9-.72,4.6-1.94,7.91-4.46,11.58-7.2,1.25-.93,2.7-1.51,3.96-2.46,2.42-1.82,5.04-3.75,7.68-5.34,3.42-2.06,7.36-3.58,11.7-4.62,1.27-.3,3.7-1.03,4.98-.6.18.38.36.76.54,1.14-1.17,1.11-3.65.71-5.52,1.14-2.58.6-5.51,1.38-7.44,2.7-.4.12-.8.24-1.2.36-.22.24-.44.48-.66.72-1.08.8-2.27,1.26-3.42,1.98-.78.58-1.56,1.16-2.34,1.74-.74.34-1.48.68-2.22,1.02-1.4.91-2.74,2.24-4.08,3.24-2.32,1.73-4.74,3.41-7.08,5.04-1.03.71-2.41,1.17-3.6,1.62-.7.4-1.4.8-2.1,1.2-3.41,1.32-7.01,2.29-10.74,3.06-1.65.34-2.88-.14-4.32.12-5.75,1.03-12.22-.75-17.04-2.22-.8-.2-1.6-.4-2.4-.6-1.71-.9-3.92-1.95-5.76-2.64-2.22-.83-7.8-3.68-8.64-5.52-.42-.92.48-1.98.78-2.64.99-2.21,2.13-3.88,3.06-6.06-.02-.04-.04-.08-.06-.12-1.02-.37-4.84.54-5.94.78-1.19.27-2.79.3-3.66.72-2.26,1.09-4.41,2.5-6.36,3.9-.86,1.02-1.72,2.04-2.58,3.06-.77-.02-1.02-.43-1.38-.84.02-.34.06-.35.18-.54,1.12-.43,1.57-1.84,2.46-2.52,2.06-1.59,4.3-3.07,6.9-4.14,2.17-.89,4.72-1.06,6.9-1.56,1.52-.12,3.04-.24,4.56-.36.65-.3.91-1.06,1.32-1.62,1.22-1.38,2.44-2.76,3.66-4.14,1.07-.83,1.99-1.85,3.06-2.64.58-.43,1.27-.45,1.92-.84.6-.54,1.2-1.08,1.8-1.62,1.19-.82,2.65-1.34,3.84-2.1,1.24-.79,3.12-1.45,4.56-1.92.36-.04.72-.08,1.08-.12,2.31-.92,5.22-1.61,7.74-2.46,1.18-.4,3,.1,4.14-.54Z"/>
  </g>
  <g id="Pfad">
    <path class="st1" d="M40.53,43.1c0-5.93-9.3-5.26-9.3,1.74,0,3.56,3.46,6.17,6.92,6.17,20.93,0,23.59-45.43,53.18-45.43,16.75,0,22.25,13.08,22.25,23.38,0,9.04-6.63,19.29-18.08,19.29-9.67,0-14.42-7.33-14.42-12.75s3.17-10.75,9.17-10.75,7.67,3.79,7.67,7"/>
    <path class="st1" d="M172.72,32.35c0-13.85,11.22-25.07,25.07-25.07s25.07,11.23,25.07,25.07"/>
    <path class="st1" d="M222.86,32.35c0,9.23-7.48,16.72-16.71,16.72s-16.72-7.48-16.72-16.72"/>
    <path class="st1" d="M189.43,32.35c0-4.62,3.74-8.36,8.36-8.36s8.36,3.74,8.36,8.36"/>
    <path class="st1" d="M172.72,32.35c0,9.23-7.48,16.72-16.71,16.72s-16.72-7.48-16.72-16.72"/>
    <path class="st1" d="M139.29,32.35c0-4.62,3.74-8.36,8.36-8.36s8.36,3.74,8.36,8.36"/>
  </g>
</svg>