<?xml version="1.0" encoding="UTF-8"?>
<svg xmlns="http://www.w3.org/2000/svg" viewBox="0 0 4270.39 2970.71">
  <defs>
    <style>
      .cls-1 {
        fill: #1d1d1b;
      }

      .cls-2, .cls-3 {
        fill: none;
        stroke: #1d1d1b;
        stroke-miterlimit: 10;
        stroke-width: 12px;
      }

      .cls-3 {
        stroke-linecap: round;
      }
    </style>
  </defs>
  <g id="_143" data-name="143">
    <line class="cls-3" x1="420.13" y1="278.5" x2="634.52" y2="278.5"/>
    <line class="cls-3" x1="848.9" y1="278.5" x2="1063.29" y2="278.5"/>
    <line class="cls-3" x1="420.13" y1="1392.52" x2="634.52" y2="1392.52"/>
    <line class="cls-3" x1="848.9" y1="1392.52" x2="1063.29" y2="1392.52"/>
    <line class="cls-3" x1="420.12" y1="1392.51" x2="312.92" y2="1206.85"/>
    <line class="cls-3" x1="205.73" y1="1021.18" x2="98.54" y2="835.52"/>
    <line class="cls-3" x1="1384.88" y1="835.5" x2="1277.69" y2="649.84"/>
    <line class="cls-3" x1="1170.5" y1="464.18" x2="1063.31" y2="278.51"/>
    <line class="cls-3" x1="1384.88" y1="835.52" x2="1277.69" y2="1021.18"/>
    <line class="cls-3" x1="1170.5" y1="1206.85" x2="1063.31" y2="1392.51"/>
    <line class="cls-3" x1="420.12" y1="278.51" x2="312.92" y2="464.18"/>
    <line class="cls-3" x1="205.73" y1="649.84" x2="98.54" y2="835.5"/>
    <line class="cls-3" x1="-115.88" y1="835.52" x2="98.5" y2="835.52"/>
    <line class="cls-3" x1="420.1" y1="278.5" x2="312.91" y2="92.84"/>
    <line class="cls-3" x1="2349.59" y1="278.5" x2="2563.98" y2="278.5"/>
    <line class="cls-3" x1="2778.36" y1="278.5" x2="2992.75" y2="278.5"/>
    <line class="cls-3" x1="2349.59" y1="1392.52" x2="2563.98" y2="1392.52"/>
    <line class="cls-3" x1="2778.36" y1="1392.52" x2="2992.75" y2="1392.52"/>
    <line class="cls-3" x1="2349.57" y1="1392.51" x2="2242.38" y2="1206.85"/>
    <line class="cls-3" x1="2135.19" y1="1021.18" x2="2028" y2="835.52"/>
    <line class="cls-3" x1="3314.34" y1="835.5" x2="3207.15" y2="649.84"/>
    <line class="cls-3" x1="3099.96" y1="464.18" x2="2992.76" y2="278.51"/>
    <line class="cls-3" x1="3314.34" y1="835.52" x2="3207.15" y2="1021.18"/>
    <line class="cls-3" x1="3099.96" y1="1206.85" x2="2992.76" y2="1392.51"/>
    <line class="cls-3" x1="2349.57" y1="278.51" x2="2242.38" y2="464.18"/>
    <line class="cls-3" x1="2135.19" y1="649.84" x2="2028" y2="835.5"/>
    <line class="cls-3" x1="1384.81" y1="835.52" x2="1599.19" y2="835.52"/>
    <line class="cls-3" x1="1813.58" y1="835.52" x2="2027.96" y2="835.52"/>
    <line class="cls-3" x1="2349.55" y1="278.5" x2="2242.36" y2="92.84"/>
    <line class="cls-3" x1="1170.4" y1="92.84" x2="1063.21" y2="278.5"/>
    <line class="cls-3" x1="4279.03" y1="1392.51" x2="4171.84" y2="1206.85"/>
    <line class="cls-3" x1="4064.65" y1="1021.18" x2="3957.46" y2="835.52"/>
    <line class="cls-3" x1="4279.03" y1="278.51" x2="4171.84" y2="464.18"/>
    <line class="cls-3" x1="4064.65" y1="649.84" x2="3957.46" y2="835.5"/>
    <line class="cls-3" x1="3314.26" y1="835.52" x2="3528.65" y2="835.52"/>
    <line class="cls-3" x1="3743.03" y1="835.52" x2="3957.42" y2="835.52"/>
    <line class="cls-3" x1="4279.01" y1="278.5" x2="4171.82" y2="92.84"/>
    <line class="cls-3" x1="3099.86" y1="92.84" x2="2992.67" y2="278.5"/>
    <line class="cls-3" x1="-115.83" y1="1949.53" x2="98.56" y2="1949.53"/>
    <line class="cls-3" x1="420.15" y1="2506.52" x2="312.96" y2="2320.86"/>
    <line class="cls-3" x1="205.77" y1="2135.2" x2="98.58" y2="1949.54"/>
    <line class="cls-3" x1="420.15" y1="2506.55" x2="312.96" y2="2692.21"/>
    <line class="cls-3" x1="205.77" y1="2877.87" x2="98.58" y2="3063.53"/>
    <line class="cls-3" x1="1384.86" y1="1949.53" x2="1599.25" y2="1949.53"/>
    <line class="cls-3" x1="1813.63" y1="1949.53" x2="2028.02" y2="1949.53"/>
    <line class="cls-3" x1="1384.85" y1="3063.53" x2="1277.65" y2="2877.87"/>
    <line class="cls-3" x1="1170.46" y1="2692.21" x2="1063.27" y2="2506.55"/>
    <line class="cls-3" x1="2349.61" y1="2506.52" x2="2242.42" y2="2320.86"/>
    <line class="cls-3" x1="2135.23" y1="2135.2" x2="2028.04" y2="1949.54"/>
    <line class="cls-3" x1="2349.61" y1="2506.55" x2="2242.42" y2="2692.21"/>
    <line class="cls-3" x1="2135.23" y1="2877.87" x2="2028.04" y2="3063.53"/>
    <line class="cls-3" x1="1384.84" y1="1949.54" x2="1277.65" y2="2135.2"/>
    <line class="cls-3" x1="1170.46" y1="2320.86" x2="1063.27" y2="2506.52"/>
    <line class="cls-3" x1="420.08" y1="2506.55" x2="634.46" y2="2506.55"/>
    <line class="cls-3" x1="848.85" y1="2506.55" x2="1063.23" y2="2506.55"/>
    <line class="cls-3" x1="1384.83" y1="1949.53" x2="1277.63" y2="1763.87"/>
    <line class="cls-3" x1="1170.44" y1="1578.2" x2="1063.25" y2="1392.54"/>
    <line class="cls-3" x1="420.06" y1="1392.54" x2="312.87" y2="1578.2"/>
    <line class="cls-3" x1="205.67" y1="1763.87" x2="98.48" y2="1949.53"/>
    <line class="cls-3" x1="3314.32" y1="1949.53" x2="3528.71" y2="1949.53"/>
    <line class="cls-3" x1="3743.09" y1="1949.53" x2="3957.47" y2="1949.53"/>
    <line class="cls-3" x1="3314.3" y1="3063.53" x2="3207.11" y2="2877.87"/>
    <line class="cls-3" x1="3099.92" y1="2692.21" x2="2992.73" y2="2506.55"/>
    <line class="cls-3" x1="4279.07" y1="2506.52" x2="4171.88" y2="2320.86"/>
    <line class="cls-3" x1="4064.69" y1="2135.2" x2="3957.49" y2="1949.54"/>
    <line class="cls-3" x1="4279.07" y1="2506.55" x2="4171.88" y2="2692.21"/>
    <line class="cls-3" x1="4064.68" y1="2877.87" x2="3957.49" y2="3063.53"/>
    <line class="cls-3" x1="3314.3" y1="1949.54" x2="3207.11" y2="2135.2"/>
    <line class="cls-3" x1="3099.92" y1="2320.86" x2="2992.73" y2="2506.52"/>
    <line class="cls-3" x1="2349.54" y1="2506.55" x2="2563.92" y2="2506.55"/>
    <line class="cls-3" x1="2778.3" y1="2506.55" x2="2992.69" y2="2506.55"/>
    <line class="cls-3" x1="3314.28" y1="1949.53" x2="3207.09" y2="1763.87"/>
    <line class="cls-3" x1="3099.9" y1="1578.2" x2="2992.71" y2="1392.54"/>
    <line class="cls-3" x1="2349.52" y1="1392.54" x2="2242.32" y2="1578.2"/>
    <line class="cls-3" x1="2135.13" y1="1763.87" x2="2027.94" y2="1949.53"/>
    <line class="cls-3" x1="4278.97" y1="1392.54" x2="4171.78" y2="1578.2"/>
    <line class="cls-3" x1="4064.59" y1="1763.87" x2="3957.4" y2="1949.53"/>
  </g>
  <g id="_3._Sechseck" data-name="3. Sechseck">
    <circle class="cls-1" cx="527.33" cy="464.17" r="21.26"/>
    <circle class="cls-1" cx="312.94" cy="464.17" r="21.26"/>
    <circle class="cls-1" cx="741.71" cy="464.17" r="21.26"/>
    <circle class="cls-1" cx="956.09" cy="464.17" r="21.26"/>
    <circle class="cls-1" cx="1170.48" cy="464.17" r="21.26"/>
    <circle class="cls-1" cx="527.33" cy="1206.85" r="21.26" transform="translate(-698.92 726.35) rotate(-45)"/>
    <circle class="cls-1" cx="312.94" cy="1206.85" r="21.26" transform="translate(-761.71 574.76) rotate(-45)"/>
    <circle class="cls-1" cx="741.71" cy="1206.85" r="21.26" transform="translate(-602.3133 1654.3054) rotate(-76.8395)"/>
    <circle class="cls-1" cx="956.09" cy="1206.85" r="21.26" transform="translate(-399.1964 1937.4558) rotate(-79.941)"/>
    <circle class="cls-1" cx="1170.48" cy="1206.85" r="21.26" transform="translate(-372.74 539.79) rotate(-22.5)"/>
    <circle class="cls-1" cx="527.33" cy="835.51" r="21.26" transform="translate(-407.6818 1154.7438) rotate(-76.5933)"/>
    <circle class="cls-1" cx="312.94" cy="835.51" r="21.26" transform="translate(-572.36 946.2) rotate(-76.59)"/>
    <circle class="cls-1" cx="98.56" cy="835.51" r="21.26" transform="translate(-741.89 797.68) rotate(-80.7)"/>
    <circle class="cls-1" cx="956.09" cy="835.51" r="21.26" transform="translate(-274.76 523.75) rotate(-26.94)"/>
    <circle class="cls-1" cx="1170.48" cy="835.51" r="21.26" transform="translate(158.2672 1857.0413) rotate(-80.7825)"/>
    <circle class="cls-1" cx="1384.86" cy="835.51" r="21.26" transform="translate(253.5268 1991.3656) rotate(-76.7174)"/>
    <circle class="cls-1" cx="420.13" cy="278.5" r="21.26" transform="translate(-52.22 454.45) rotate(-53.97)"/>
    <circle class="cls-1" cx="848.9" cy="278.5" r="21.26" transform="translate(384.4376 1041.7007) rotate(-76.8395)"/>
    <circle class="cls-1" cx="1063.29" cy="278.5" r="21.26" transform="translate(-25.64 428.1) rotate(-22.5)"/>
    <circle class="cls-1" cx="634.52" cy="278.5" r="21.26" transform="translate(-11.08 530.24) rotate(-45)"/>
    <circle class="cls-1" cx="420.13" cy="1392.52" r="21.26" transform="translate(-953.14 913.2) rotate(-53.97)"/>
    <circle class="cls-1" cx="848.9" cy="1392.52" r="21.26" transform="translate(-700.3213 1902.0795) rotate(-76.8395)"/>
    <circle class="cls-1" cx="1063.29" cy="1392.52" r="21.26" transform="translate(-451.96 512.9) rotate(-22.5)"/>
    <circle class="cls-1" cx="634.52" cy="1392.52" r="21.26" transform="translate(-798.81 856.53) rotate(-45)"/>
    <circle class="cls-1" cx="420.13" cy="1021.18" r="21.26"/>
    <circle class="cls-1" cx="205.75" cy="1021.18" r="21.26"/>
    <circle class="cls-1" cx="848.9" cy="1021.18" r="21.26"/>
    <circle class="cls-1" cx="1063.29" cy="1021.18" r="21.26"/>
    <circle class="cls-1" cx="1277.67" cy="1021.18" r="21.26"/>
    <circle class="cls-1" cx="634.52" cy="1021.18" r="21.26"/>
    <circle class="cls-1" cx="420.13" cy="649.84" r="21.26" transform="translate(-352.52 607.37) rotate(-53.97)"/>
    <circle class="cls-1" cx="634.52" cy="649.84" r="21.26" transform="translate(-273.66 639.01) rotate(-45)"/>
    <circle class="cls-1" cx="205.75" cy="649.84" r="21.26" transform="translate(-222.61 119.62) rotate(-21.37)"/>
    <circle class="cls-1" cx="1063.29" cy="649.84" r="21.26" transform="translate(-167.75 456.37) rotate(-22.5)"/>
    <circle class="cls-1" cx="1277.67" cy="649.84" r="21.26" transform="translate(-151.43 538.41) rotate(-22.5)"/>
    <circle class="cls-1" cx="848.9" cy="649.84" r="21.26" transform="translate(22.8515 1328.4927) rotate(-76.8395)"/>
  </g>
  <g id="Rahmen">
    <rect class="cls-2" x="0" width="4270.39" height="2970.71"/>
  </g>
</svg>