<?xml version="1.0" encoding="UTF-8"?>
<svg xmlns="http://www.w3.org/2000/svg" viewBox="0 0 4270.39 2970.71">
  <defs>
    <style>
      .cls-1 {
        fill: #1d1d1b;
      }

      .cls-2, .cls-3 {
        fill: none;
        stroke: #1d1d1b;
        stroke-miterlimit: 10;
        stroke-width: 12px;
      }

      .cls-3 {
        stroke-linecap: round;
      }
    </style>
  </defs>
  <g id="_146" data-name="146">
    <line class="cls-3" x1="741.71" y1="464.17" x2="741.71" y2="1206.85"/>
    <line class="cls-3" x1="420.12" y1="1021.18" x2="1063.3" y2="649.84"/>
    <line class="cls-3" x1="1063.3" y1="1021.18" x2="420.12" y2="649.84"/>
    <line class="cls-3" x1="-544.61" y1="464.17" x2="98.57" y2="92.83"/>
    <line class="cls-3" x1="98.57" y1="464.17" x2="-544.61" y2="92.83"/>
    <line class="cls-3" x1="741.71" y1="-649.84" x2="741.71" y2="92.83"/>
    <line class="cls-3" x1="2671.17" y1="464.17" x2="2671.17" y2="1206.85"/>
    <line class="cls-3" x1="2349.58" y1="1021.18" x2="2992.76" y2="649.84"/>
    <line class="cls-3" x1="2992.76" y1="1021.18" x2="2349.58" y2="649.84"/>
    <line class="cls-3" x1="1706.44" y1="-92.83" x2="1706.44" y2="649.84"/>
    <line class="cls-3" x1="1384.85" y1="464.17" x2="2028.03" y2="92.83"/>
    <line class="cls-3" x1="2028.03" y1="464.17" x2="1384.85" y2="92.83"/>
    <line class="cls-3" x1="2671.17" y1="-649.84" x2="2671.17" y2="92.83"/>
    <line class="cls-3" x1="3635.9" y1="-92.83" x2="3635.9" y2="649.84"/>
    <line class="cls-3" x1="3314.31" y1="464.17" x2="3957.49" y2="92.83"/>
    <line class="cls-3" x1="3957.49" y1="464.17" x2="3314.31" y2="92.83"/>
    <line class="cls-3" x1="741.71" y1="2692.21" x2="741.71" y2="3434.88"/>
    <line class="cls-3" x1="420.12" y1="3249.21" x2="1063.3" y2="2877.87"/>
    <line class="cls-3" x1="1063.3" y1="3249.21" x2="420.12" y2="2877.87"/>
    <line class="cls-3" x1="-544.61" y1="2692.21" x2="98.57" y2="2320.87"/>
    <line class="cls-3" x1="98.57" y1="2692.21" x2="-544.61" y2="2320.87"/>
    <line class="cls-3" x1="741.71" y1="1578.19" x2="741.71" y2="2320.87"/>
    <line class="cls-3" x1="420.12" y1="2135.2" x2="1063.3" y2="1763.86"/>
    <line class="cls-3" x1="1063.3" y1="2135.2" x2="420.12" y2="1763.86"/>
    <line class="cls-3" x1="-544.61" y1="1578.19" x2="98.57" y2="1206.85"/>
    <line class="cls-3" x1="98.57" y1="1578.19" x2="-544.61" y2="1206.85"/>
    <line class="cls-3" x1="2671.17" y1="2692.21" x2="2671.17" y2="3434.88"/>
    <line class="cls-3" x1="2349.58" y1="3249.21" x2="2992.76" y2="2877.87"/>
    <line class="cls-3" x1="2992.76" y1="3249.21" x2="2349.58" y2="2877.87"/>
    <line class="cls-3" x1="1706.44" y1="2135.2" x2="1706.44" y2="2877.88"/>
    <line class="cls-3" x1="1384.85" y1="2692.21" x2="2028.03" y2="2320.87"/>
    <line class="cls-3" x1="2028.03" y1="2692.21" x2="1384.85" y2="2320.87"/>
    <line class="cls-3" x1="2671.17" y1="1578.19" x2="2671.17" y2="2320.87"/>
    <line class="cls-3" x1="2349.58" y1="2135.2" x2="2992.76" y2="1763.86"/>
    <line class="cls-3" x1="2992.76" y1="2135.2" x2="2349.58" y2="1763.86"/>
    <line class="cls-3" x1="1706.44" y1="1021.18" x2="1706.44" y2="1763.86"/>
    <line class="cls-3" x1="1384.85" y1="1578.19" x2="2028.03" y2="1206.85"/>
    <line class="cls-3" x1="2028.03" y1="1578.19" x2="1384.85" y2="1206.85"/>
    <line class="cls-3" x1="3635.9" y1="2135.2" x2="3635.9" y2="2877.88"/>
    <line class="cls-3" x1="3314.31" y1="2692.21" x2="3957.49" y2="2320.87"/>
    <line class="cls-3" x1="3957.49" y1="2692.21" x2="3314.31" y2="2320.87"/>
    <line class="cls-3" x1="3635.9" y1="1021.18" x2="3635.9" y2="1763.86"/>
    <line class="cls-3" x1="3314.31" y1="1578.19" x2="3957.49" y2="1206.85"/>
    <line class="cls-3" x1="3957.49" y1="1578.19" x2="3314.31" y2="1206.85"/>
  </g>
  <g id="_3._Sechseck" data-name="3. Sechseck">
    <circle class="cls-1" cx="527.33" cy="464.17" r="21.26"/>
    <circle class="cls-1" cx="312.94" cy="464.17" r="21.26"/>
    <circle class="cls-1" cx="741.71" cy="464.17" r="21.26"/>
    <circle class="cls-1" cx="956.09" cy="464.17" r="21.26"/>
    <circle class="cls-1" cx="1170.48" cy="464.17" r="21.26"/>
    <circle class="cls-1" cx="527.33" cy="1206.85" r="21.26" transform="translate(-698.92 726.35) rotate(-45)"/>
    <circle class="cls-1" cx="312.94" cy="1206.85" r="21.26" transform="translate(-761.71 574.76) rotate(-45)"/>
    <circle class="cls-1" cx="741.71" cy="1206.85" r="21.26" transform="translate(-602.3133 1654.3054) rotate(-76.8395)"/>
    <circle class="cls-1" cx="956.09" cy="1206.85" r="21.26" transform="translate(-399.1964 1937.4558) rotate(-79.941)"/>
    <circle class="cls-1" cx="1170.48" cy="1206.85" r="21.26" transform="translate(-372.74 539.79) rotate(-22.5)"/>
    <circle class="cls-1" cx="527.33" cy="835.51" r="21.26" transform="translate(-407.6818 1154.7438) rotate(-76.5933)"/>
    <circle class="cls-1" cx="312.94" cy="835.51" r="21.26" transform="translate(-572.36 946.2) rotate(-76.59)"/>
    <circle class="cls-1" cx="98.56" cy="835.51" r="21.26" transform="translate(-741.89 797.68) rotate(-80.7)"/>
    <circle class="cls-1" cx="956.09" cy="835.51" r="21.26" transform="translate(-274.76 523.75) rotate(-26.94)"/>
    <circle class="cls-1" cx="1170.48" cy="835.51" r="21.26" transform="translate(158.2672 1857.0413) rotate(-80.7825)"/>
    <circle class="cls-1" cx="1384.86" cy="835.51" r="21.26" transform="translate(253.5268 1991.3656) rotate(-76.7174)"/>
    <circle class="cls-1" cx="420.13" cy="278.5" r="21.26" transform="translate(-52.22 454.45) rotate(-53.97)"/>
    <circle class="cls-1" cx="848.9" cy="278.5" r="21.26" transform="translate(384.4376 1041.7007) rotate(-76.8395)"/>
    <circle class="cls-1" cx="1063.29" cy="278.5" r="21.26" transform="translate(-25.64 428.1) rotate(-22.5)"/>
    <circle class="cls-1" cx="634.52" cy="278.5" r="21.26" transform="translate(-11.08 530.24) rotate(-45)"/>
    <circle class="cls-1" cx="420.13" cy="1392.52" r="21.26" transform="translate(-953.14 913.2) rotate(-53.97)"/>
    <circle class="cls-1" cx="848.9" cy="1392.52" r="21.26" transform="translate(-700.3213 1902.0795) rotate(-76.8395)"/>
    <circle class="cls-1" cx="1063.29" cy="1392.52" r="21.26" transform="translate(-451.96 512.9) rotate(-22.5)"/>
    <circle class="cls-1" cx="634.52" cy="1392.52" r="21.26" transform="translate(-798.81 856.53) rotate(-45)"/>
    <circle class="cls-1" cx="420.13" cy="1021.18" r="21.26"/>
    <circle class="cls-1" cx="205.75" cy="1021.18" r="21.26"/>
    <circle class="cls-1" cx="848.9" cy="1021.18" r="21.26"/>
    <circle class="cls-1" cx="1063.29" cy="1021.18" r="21.26"/>
    <circle class="cls-1" cx="1277.67" cy="1021.18" r="21.26"/>
    <circle class="cls-1" cx="634.52" cy="1021.18" r="21.26"/>
    <circle class="cls-1" cx="420.13" cy="649.84" r="21.26" transform="translate(-352.52 607.37) rotate(-53.97)"/>
    <circle class="cls-1" cx="634.52" cy="649.84" r="21.26" transform="translate(-273.66 639.01) rotate(-45)"/>
    <circle class="cls-1" cx="205.75" cy="649.84" r="21.26" transform="translate(-222.61 119.62) rotate(-21.37)"/>
    <circle class="cls-1" cx="1063.29" cy="649.84" r="21.26" transform="translate(-167.75 456.37) rotate(-22.5)"/>
    <circle class="cls-1" cx="1277.67" cy="649.84" r="21.26" transform="translate(-151.43 538.41) rotate(-22.5)"/>
    <circle class="cls-1" cx="848.9" cy="649.84" r="21.26" transform="translate(22.8515 1328.4927) rotate(-76.8395)"/>
  </g>
  <g id="Rahmen">
    <rect class="cls-2" x="0" width="4270.39" height="2970.71"/>
  </g>
</svg>