<?xml version="1.0" encoding="UTF-8"?>
<svg xmlns="http://www.w3.org/2000/svg" version="1.1" viewBox="0 0 316.92 80">
  <!-- Generator: Adobe Illustrator 29.1.0, SVG Export Plug-In . SVG Version: 2.1.0 Build 142)  -->
  <defs>
    <style>
      .st0, .st1, .st2, .st3, .st4, .st5 {
        fill: none;
      }

      .st1 {
        stroke-dasharray: 2.05 1.54;
      }

      .st1, .st2, .st3, .st4, .st5 {
        stroke: #1d1d1b;
        stroke-linecap: round;
        stroke-miterlimit: 10;
      }

      .st1, .st2, .st4, .st5 {
        stroke-width: .6px;
      }

      .st3 {
        stroke-width: 1.2px;
      }

      .st6, .st7 {
        fill: #1d1d1b;
      }

      .st4 {
        stroke-dasharray: 1.99 1.49;
      }

      .st7 {
        font-family: Stanley-RegularIta, Stanley;
        font-size: 9.7px;
        font-style: italic;
      }

      .st5 {
        stroke-dasharray: 2 1.5;
      }

      .st8 {
        display: none;
      }
    </style>
  </defs>
  <g id="Pfad_Kopie" class="st8">
    <g>
      <path class="st3" d="M98.29,61.66c-2.32.39-4.71.6-7.14.6-18.45,0-34.19-11.65-40.25-27.99-17.97,3.01-32.15,17.17-35.19,35.12"/>
      <path class="st0" d="M50.9,34.28c6.07,16.34,21.8,27.99,40.25,27.99,2.43,0,4.82-.21,7.14-.6"/>
    </g>
    <g>
      <line class="st2" x1="61.99" y1="64.44" x2="61.65" y2="63.5"/>
      <line class="st4" x1="61.14" y1="62.1" x2="43.47" y2="13.73"/>
      <line class="st2" x1="43.21" y1="13.03" x2="42.87" y2="12.09"/>
    </g>
    <g>
      <line class="st2" x1="76.66" y1="29.86" x2="75.68" y2="30.03"/>
      <line class="st1" x1="74.17" y1="30.29" x2="14.92" y2="40.57"/>
      <line class="st2" x1="14.16" y1="40.7" x2="13.17" y2="40.87"/>
    </g>
    <path class="st5" d="M175.26,45.86c0,14.78-11.99,26.77-26.77,26.77s-26.77-11.99-26.77-26.77,11.99-26.77,26.77-26.77,26.77,11.99,26.77,26.77Z"/>
    <path class="st6" d="M149.2,45.86c0,.39-.32.71-.71.71s-.71-.32-.71-.71.32-.71.71-.71.71.32.71.71Z"/>
    <path class="st6" d="M241.71,58.47c0,.39-.32.71-.71.71s-.71-.32-.71-.71.32-.71.71-.71.71.32.71.71Z"/>
    <path class="st6" d="M269.77,58.47c0,.39-.32.71-.71.71s-.71-.32-.71-.71.32-.71.71-.71.71.32.71.71Z"/>
    <line class="st5" x1="148.49" y1="45.86" x2="148.49" y2="19.11"/>
    <path class="st3" d="M140.87,32.49c1.75,0,2.82,1.93,2.81,3.67,0,1.99-1.84,3.84-5.23,3.84-4.21,0-6.13-3.83-6.23-7.94-.16-6.24,4.84-13.39,16.27-13.39,31.48,0,44.25,23.66,46.8,28.42"/>
    <g>
      <path class="st3" d="M228.98,58.47c0-22.13,17.94-40.08,40.08-40.08s40.08,17.94,40.08,40.08"/>
      <path class="st3" d="M253.03,58.47c0,6.64-5.38,12.02-12.02,12.02s-12.02-5.38-12.02-12.02"/>
    </g>
    <text class="st7" transform="translate(6.96 43.58)"><tspan x="0" y="0">a</tspan></text>
    <text class="st7" transform="translate(220.23 60.91)"><tspan x="0" y="0">a</tspan></text>
    <text class="st7" transform="translate(239.01 54.52)"><tspan x="0" y="0">b</tspan></text>
    <text class="st7" transform="translate(266.76 54.52)"><tspan x="0" y="0">c</tspan></text>
    <text class="st7" transform="translate(151.6 48.38)"><tspan x="0" y="0">k</tspan></text>
    <text class="st7" transform="translate(151.6 34.22)"><tspan x="0" y="0">r</tspan></text>
    <text class="st7" transform="translate(39.36 10.3)"><tspan x="0" y="0">b</tspan></text>
  </g>
  <g id="Pfad">
    <g>
      <path class="st3" d="M98.29,61.66c-2.32.39-4.71.6-7.14.6-18.45,0-34.19-11.65-40.25-27.99-17.97,3.01-32.15,17.17-35.19,35.12"/>
      <path class="st0" d="M50.9,34.28c6.07,16.34,21.8,27.99,40.25,27.99,2.43,0,4.82-.21,7.14-.6"/>
    </g>
    <g>
      <line class="st2" x1="61.99" y1="64.44" x2="61.65" y2="63.5"/>
      <line class="st4" x1="61.14" y1="62.1" x2="43.47" y2="13.73"/>
      <line class="st2" x1="43.21" y1="13.03" x2="42.87" y2="12.09"/>
    </g>
    <g>
      <line class="st2" x1="76.66" y1="29.86" x2="75.68" y2="30.03"/>
      <line class="st1" x1="74.17" y1="30.29" x2="14.92" y2="40.57"/>
      <line class="st2" x1="14.16" y1="40.7" x2="13.17" y2="40.87"/>
    </g>
    <path class="st5" d="M175.26,45.86c0,14.78-11.99,26.77-26.77,26.77s-26.77-11.99-26.77-26.77,11.99-26.77,26.77-26.77,26.77,11.99,26.77,26.77Z"/>
    <path class="st6" d="M149.2,45.86c0,.39-.32.71-.71.71s-.71-.32-.71-.71.32-.71.71-.71.71.32.71.71Z"/>
    <path class="st6" d="M241.71,58.47c0,.39-.32.71-.71.71s-.71-.32-.71-.71.32-.71.71-.71.71.32.71.71Z"/>
    <path class="st6" d="M269.77,58.47c0,.39-.32.71-.71.71s-.71-.32-.71-.71.32-.71.71-.71.71.32.71.71Z"/>
    <line class="st5" x1="148.49" y1="45.86" x2="148.49" y2="19.11"/>
    <path class="st3" d="M140.87,32.49c1.75,0,2.82,1.93,2.81,3.67,0,1.99-1.84,3.84-5.23,3.84-4.21,0-6.13-3.83-6.23-7.94-.16-6.24,4.84-13.39,16.27-13.39,31.48,0,44.25,23.66,46.8,28.42"/>
    <g>
      <path class="st3" d="M228.98,58.47c0-22.13,17.94-40.08,40.08-40.08s40.08,17.94,40.08,40.08"/>
      <path class="st3" d="M253.03,58.47c0,6.64-5.38,12.02-12.02,12.02s-12.02-5.38-12.02-12.02"/>
    </g>
    <path class="st6" d="M10.04,41.33h-.02c-.69,1.14-1.52,2.38-2.4,2.38-.39,0-.6-.24-.6-.79,0-1.67,2.1-4.22,3.33-4.22.35,0,.48.16.6.28l.37-.25h.1l-1.03,3.25c-.17.48-.23.83-.23,1.02.35-.21.61-.5.92-.91l.17.16c-.59.83-1.29,1.46-1.78,1.46-.13,0-.2-.09-.2-.24,0-.21.16-.71.36-1.15l.42-.98ZM8.25,43c.52,0,1.79-1.92,2.2-3.37,0,0-.24-.32-.67-.32-.85,0-1.93,2-1.93,3.1,0,.36.13.59.4.59Z"/>
    <path class="st6" d="M223.32,58.66h-.02c-.69,1.15-1.52,2.38-2.4,2.38-.39,0-.6-.24-.6-.79,0-1.67,2.1-4.22,3.33-4.22.35,0,.48.16.6.28l.37-.25h.1l-1.03,3.25c-.16.48-.23.83-.23,1.02.35-.21.61-.5.92-.91l.16.16c-.59.83-1.29,1.47-1.78,1.47-.13,0-.2-.09-.2-.24,0-.21.16-.71.36-1.16l.42-.98ZM221.52,60.33c.52,0,1.79-1.92,2.2-3.37,0,0-.24-.32-.67-.32-.85,0-1.93,2-1.93,3.1,0,.36.13.59.4.59Z"/>
    <path class="st6" d="M240.91,48.22l-.26-.31h-.65l.08-.27,1.74-.1-1.27,4.48h.02c.69-1.14,1.52-2.38,2.4-2.38.39,0,.6.24.6.79,0,1.67-1.9,4.22-3.33,4.22-.38,0-.73-.28-.95-.53l1.63-5.9ZM242.34,50.35c-.52,0-1.79,1.92-2.2,3.37,0,0,.24.32.67.32,1.05,0,1.93-2,1.93-3.1,0-.36-.13-.59-.4-.59Z"/>
    <path class="st6" d="M270.94,50.25c0,.29-.17.57-.36.77h-.6v-.5c0-.26-.11-.37-.32-.37-.95,0-1.86,1.85-1.86,3.12,0,.42.12.75.5.75.46,0,1.16-.38,1.78-1.08l.15.11c-.67.9-1.67,1.61-2.61,1.61-.49,0-.74-.36-.74-.8,0-1.53,1.7-4.2,3.36-4.2.6,0,.72.29.72.61Z"/>
    <path class="st6" d="M156.27,44.18c0,1-1.51,2.09-2.26,2.23.11.44.37,1.04.7,1.45.27-.17.43-.36.81-.8l.15.15c-.31.47-.95,1.27-1.3,1.27-.28,0-.88-1.17-1.14-2.24-.22.46-.6,1.32-.7,2.14h-.74l1.73-6.31-.26-.31h-.65l.08-.27,1.79-.1-1.39,4.52h.02c.83-1.48,1.87-2.42,2.54-2.42.44,0,.63.25.63.68ZM155.42,44.55c0-.26-.1-.34-.29-.34-.3,0-.98.61-1.73,1.69,0,0-.02.04-.05.09.1.1.26.17.48.17.67,0,1.58-1,1.58-1.61Z"/>
    <path class="st6" d="M152.56,34.22h-.74l1.46-4.17-.26-.31h-.65l.08-.27,1.71-.1-.97,2.45h.05c.58-1.05,1.45-2.46,2.21-2.46.32,0,.44.15.49.21l-.4.83h-.03c-.18-.12-.32-.16-.5-.16-.83,0-2.02,2.3-2.45,3.97Z"/>
    <path class="st6" d="M41.26,3.99l-.26-.31h-.65l.08-.27,1.74-.1-1.27,4.48h.02c.69-1.15,1.52-2.38,2.4-2.38.39,0,.6.24.6.79,0,1.67-1.9,4.22-3.33,4.22-.38,0-.73-.28-.95-.53l1.63-5.9ZM42.69,6.12c-.52,0-1.79,1.92-2.2,3.37,0,0,.24.32.67.32,1.05,0,1.93-2,1.93-3.1,0-.36-.13-.59-.4-.59Z"/>
  </g>
</svg>