<?xml version="1.0" encoding="UTF-8"?>
<svg id="Ebene_2" xmlns="http://www.w3.org/2000/svg" version="1.1" viewBox="0 0 311.81 113.39">
  <!-- Generator: Adobe Illustrator 29.1.0, SVG Export Plug-In . SVG Version: 2.1.0 Build 142)  -->
  <defs>
    <style>
      .st0, .st1, .st2, .st3, .st4, .st5 {
        fill: none;
      }

      .st1 {
        stroke-dasharray: 1.99 1.49;
      }

      .st1, .st2, .st3, .st4, .st5 {
        stroke: #1d1d1b;
        stroke-linecap: round;
        stroke-miterlimit: 10;
      }

      .st1, .st2, .st3, .st5 {
        stroke-width: .6px;
      }

      .st2 {
        stroke-dasharray: 2.05 1.54;
      }

      .st4 {
        stroke-width: 1.2px;
      }

      .st6, .st7 {
        fill: #1d1d1b;
      }

      .st5 {
        stroke-dasharray: 2 1.5;
      }

      .st7 {
        font-family: Helvetica, Helvetica;
        font-size: 8px;
      }
    </style>
  </defs>
  <g>
    <path class="st4" d="M96.97,74.07c-2.32.39-4.71.6-7.14.6-18.45,0-34.19-11.65-40.25-27.99-17.97,3.01-32.15,17.17-35.19,35.12"/>
    <path class="st0" d="M49.57,46.69c6.07,16.34,21.8,27.99,40.25,27.99,2.43,0,4.82-.21,7.14-.6"/>
  </g>
  <g>
    <line class="st3" x1="60.67" y1="76.85" x2="60.32" y2="75.91"/>
    <line class="st1" x1="59.81" y1="74.51" x2="42.14" y2="26.14"/>
    <line class="st3" x1="41.88" y1="25.44" x2="41.54" y2="24.5"/>
  </g>
  <g>
    <line class="st3" x1="75.34" y1="42.27" x2="74.35" y2="42.44"/>
    <line class="st2" x1="72.84" y1="42.71" x2="13.59" y2="52.98"/>
    <line class="st3" x1="12.83" y1="53.11" x2="11.85" y2="53.28"/>
  </g>
  <path class="st5" d="M173.93,58.27c0,14.78-11.99,26.77-26.77,26.77s-26.77-11.99-26.77-26.77,11.99-26.77,26.77-26.77,26.77,11.99,26.77,26.77Z"/>
  <path class="st6" d="M147.87,58.27c0,.39-.32.71-.71.71s-.71-.32-.71-.71.32-.71.71-.71.71.32.71.71Z"/>
  <path class="st6" d="M240.39,70.88c0,.39-.32.71-.71.71s-.71-.32-.71-.71.32-.71.71-.71.71.32.71.71Z"/>
  <path class="st6" d="M268.44,70.88c0,.39-.32.71-.71.71s-.71-.32-.71-.71.32-.71.71-.71.71.32.71.71Z"/>
  <line class="st5" x1="147.17" y1="58.27" x2="147.17" y2="31.52"/>
  <path class="st4" d="M139.55,44.9c1.75,0,2.82,1.93,2.81,3.67,0,1.99-1.84,3.84-5.23,3.84-4.21,0-6.13-3.83-6.23-7.94-.16-6.24,4.84-13.39,16.27-13.39,31.48,0,44.25,23.66,46.8,28.42"/>
  <g>
    <path class="st4" d="M227.65,70.88c0-22.13,17.94-40.08,40.08-40.08s40.08,17.94,40.08,40.08"/>
    <path class="st4" d="M251.7,70.88c0,6.64-5.38,12.02-12.02,12.02s-12.02-5.38-12.02-12.02"/>
  </g>
  <text class="st7" transform="translate(4.51 56.04)"><tspan x="0" y="0">a</tspan></text>
  <text class="st7" transform="translate(45.16 104.04)"><tspan x="0" y="0">15</tspan></text>
  <text class="st7" transform="translate(151.46 104.04)"><tspan x="0" y="0">16</tspan></text>
  <text class="st7" transform="translate(264.84 104.04)"><tspan x="0" y="0">17</tspan></text>
  <text class="st7" transform="translate(37.4 21.04)"><tspan x="0" y="0">b</tspan></text>
  <text class="st7" transform="translate(151.09 61.27)"><tspan x="0" y="0">k</tspan></text>
  <text class="st7" transform="translate(218.63 66.94)"><tspan x="0" y="0">a</tspan></text>
  <text class="st7" transform="translate(237.15 66.94)"><tspan x="0" y="0">b</tspan></text>
  <text class="st7" transform="translate(265.64 66.94)"><tspan x="0" y="0">c</tspan></text>
  <text class="st7" transform="translate(151.09 48.45)"><tspan x="0" y="0">r</tspan></text>
</svg>