<?xml version="1.0" encoding="UTF-8"?>
<svg id="Ebene_2" xmlns="http://www.w3.org/2000/svg" version="1.1" viewBox="0 0 311.81 99.21">
  <!-- Generator: Adobe Illustrator 29.1.0, SVG Export Plug-In . SVG Version: 2.1.0 Build 142)  -->
  <defs>
    <style>
      .st0 {
        stroke-width: .6px;
      }

      .st0, .st1 {
        fill: none;
        stroke: #1d1d1b;
        stroke-linecap: round;
        stroke-miterlimit: 10;
      }

      .st1 {
        stroke-width: 1.2px;
      }

      .st2 {
        fill: #1d1d1b;
        font-family: Helvetica, Helvetica;
        font-size: 8px;
      }
    </style>
  </defs>
  <text class="st2" transform="translate(134.3 90.79)"><tspan x="0" y="0">18</tspan></text>
  <path class="st0" d="M63.69,43.84c0,13.67-11.08,24.76-24.76,24.76s-24.75-11.08-24.75-24.76,11.08-24.76,24.75-24.76,24.76,11.08,24.76,24.76Z"/>
  <line class="st0" x1="38.93" y1="19.09" x2="38.93" y2="68.6"/>
  <line class="st0" x1="14.17" y1="43.84" x2="261.73" y2="43.84"/>
  <line class="st0" x1="38.93" y1="19.09" x2="261.73" y2="19.09"/>
  <line class="st0" x1="26.55" y1="22.18" x2="261.73" y2="22.18"/>
  <line class="st0" x1="17.27" y1="31.47" x2="261.73" y2="31.47"/>
  <line class="st0" x1="17.27" y1="56.22" x2="261.73" y2="56.22"/>
  <line class="st0" x1="26.55" y1="65.5" x2="261.73" y2="65.5"/>
  <line class="st0" x1="38.93" y1="68.6" x2="261.73" y2="68.6"/>
  <line class="st0" x1="17.49" y1="56.22" x2="38.93" y2="43.84"/>
  <line class="st0" x1="26.55" y1="65.28" x2="38.93" y2="43.84"/>
  <line class="st0" x1="38.93" y1="43.84" x2="26.55" y2="22.4"/>
  <line class="st0" x1="38.93" y1="43.84" x2="17.49" y2="31.47"/>
  <line class="st0" x1="51.31" y1="31.47" x2="51.31" y2="43.84"/>
  <line class="st0" x1="63.68" y1="22.18" x2="63.68" y2="43.84"/>
  <line class="st0" x1="76.06" y1="19.09" x2="76.06" y2="43.84"/>
  <line class="st0" x1="88.44" y1="22.18" x2="88.44" y2="43.84"/>
  <line class="st0" x1="100.82" y1="31.47" x2="100.82" y2="43.84"/>
  <line class="st0" x1="199.84" y1="31.47" x2="199.84" y2="43.84"/>
  <line class="st0" x1="212.22" y1="22.18" x2="212.22" y2="43.84"/>
  <line class="st0" x1="224.6" y1="19.09" x2="224.6" y2="43.84"/>
  <line class="st0" x1="236.98" y1="22.18" x2="236.98" y2="43.84"/>
  <line class="st0" x1="249.35" y1="31.47" x2="249.35" y2="43.84"/>
  <line class="st0" x1="175.09" y1="56.22" x2="175.09" y2="43.84"/>
  <line class="st0" x1="162.71" y1="65.5" x2="162.71" y2="43.84"/>
  <line class="st0" x1="150.33" y1="68.6" x2="150.33" y2="43.84"/>
  <line class="st0" x1="137.95" y1="65.5" x2="137.95" y2="43.84"/>
  <line class="st0" x1="125.57" y1="56.22" x2="125.57" y2="43.84"/>
  <path class="st1" d="M38.93,43.84c11.6-12.38,23.21-24.75,37.13-24.75,27.85,0,46.42,49.51,74.27,49.51s46.42-49.51,74.27-49.51c13.92,0,25.53,12.38,37.13,24.75"/>
</svg>