<?xml version="1.0" encoding="UTF-8"?>
<svg xmlns="http://www.w3.org/2000/svg" version="1.1" viewBox="0 0 316.92 80">
  <!-- Generator: Adobe Illustrator 29.1.0, SVG Export Plug-In . SVG Version: 2.1.0 Build 142)  -->
  <defs>
    <style>
      .st0 {
        stroke-width: .6px;
      }

      .st0, .st1 {
        fill: none;
        stroke: #1d1d1b;
        stroke-linecap: round;
        stroke-miterlimit: 10;
      }

      .st1 {
        stroke-width: 1.2px;
      }

      .st2 {
        display: none;
      }
    </style>
  </defs>
  <g id="Skala" class="st2">
    <path class="st0" d="M85.08,35.15c0,15.66-12.69,28.35-28.35,28.35s-28.35-12.69-28.35-28.35S41.08,6.81,56.74,6.81s28.35,12.69,28.35,28.35Z"/>
    <line class="st0" x1="56.74" y1="6.81" x2="56.74" y2="63.5"/>
    <line class="st0" x1="28.39" y1="35.15" x2="311.85" y2="35.15"/>
    <line class="st0" x1="56.74" y1="6.81" x2="311.85" y2="6.81"/>
    <line class="st0" x1="42.56" y1="10.35" x2="311.85" y2="10.35"/>
    <line class="st0" x1="31.93" y1="20.98" x2="311.85" y2="20.98"/>
    <line class="st0" x1="31.93" y1="49.33" x2="311.85" y2="49.33"/>
    <line class="st0" x1="42.56" y1="59.96" x2="311.85" y2="59.96"/>
    <line class="st0" x1="56.74" y1="63.5" x2="311.85" y2="63.5"/>
    <line class="st0" x1="32.19" y1="49.33" x2="56.74" y2="35.15"/>
    <line class="st0" x1="42.56" y1="59.7" x2="56.74" y2="35.15"/>
    <line class="st0" x1="56.74" y1="35.15" x2="42.56" y2="10.61"/>
    <line class="st0" x1="56.74" y1="35.15" x2="32.19" y2="20.98"/>
    <line class="st0" x1="70.91" y1="20.98" x2="70.91" y2="35.15"/>
    <line class="st0" x1="85.08" y1="10.35" x2="85.08" y2="35.15"/>
    <line class="st0" x1="99.26" y1="6.81" x2="99.26" y2="35.15"/>
    <line class="st0" x1="113.43" y1="10.35" x2="113.43" y2="35.15"/>
    <line class="st0" x1="127.6" y1="20.98" x2="127.6" y2="35.15"/>
    <line class="st0" x1="240.99" y1="20.98" x2="240.99" y2="35.15"/>
    <line class="st0" x1="255.16" y1="10.35" x2="255.16" y2="35.15"/>
    <line class="st0" x1="269.33" y1="6.81" x2="269.33" y2="35.15"/>
    <line class="st0" x1="283.51" y1="10.35" x2="283.51" y2="35.15"/>
    <line class="st0" x1="297.68" y1="20.98" x2="297.68" y2="35.15"/>
    <line class="st0" x1="212.64" y1="49.33" x2="212.64" y2="35.15"/>
    <line class="st0" x1="198.47" y1="59.96" x2="198.47" y2="35.15"/>
    <line class="st0" x1="184.29" y1="63.5" x2="184.29" y2="35.15"/>
    <line class="st0" x1="170.12" y1="59.96" x2="170.12" y2="35.15"/>
    <line class="st0" x1="155.95" y1="49.33" x2="155.95" y2="35.15"/>
  </g>
  <g id="Kurve" class="st2">
    <path class="st1" d="M56.74,35.15c13.29-14.17,26.57-28.35,42.52-28.35,31.89,0,53.15,56.69,85.04,56.69S237.44,6.81,269.33,6.81c15.94,0,29.23,14.17,42.52,28.34"/>
  </g>
  <g id="Massstab">
    <path class="st0" d="M95.85,35.15c0,13.67-11.08,24.76-24.76,24.76s-24.75-11.08-24.75-24.76,11.08-24.76,24.75-24.76,24.76,11.08,24.76,24.76Z"/>
    <line class="st0" x1="71.1" y1="10.4" x2="71.1" y2="59.91"/>
    <line class="st0" x1="46.34" y1="35.15" x2="293.9" y2="35.15"/>
    <line class="st0" x1="71.1" y1="10.4" x2="293.9" y2="10.4"/>
    <line class="st0" x1="58.72" y1="13.49" x2="293.9" y2="13.49"/>
    <line class="st0" x1="49.44" y1="22.78" x2="293.9" y2="22.78"/>
    <line class="st0" x1="49.44" y1="47.53" x2="293.9" y2="47.53"/>
    <line class="st0" x1="58.72" y1="56.82" x2="293.9" y2="56.82"/>
    <line class="st0" x1="71.1" y1="59.91" x2="293.9" y2="59.91"/>
    <line class="st0" x1="49.66" y1="47.53" x2="71.1" y2="35.15"/>
    <line class="st0" x1="58.72" y1="56.59" x2="71.1" y2="35.15"/>
    <line class="st0" x1="71.1" y1="35.15" x2="58.72" y2="13.71"/>
    <line class="st0" x1="71.1" y1="35.15" x2="49.66" y2="22.78"/>
    <line class="st0" x1="83.48" y1="22.78" x2="83.48" y2="35.15"/>
    <line class="st0" x1="95.85" y1="13.49" x2="95.85" y2="35.15"/>
    <line class="st0" x1="108.23" y1="10.4" x2="108.23" y2="35.15"/>
    <line class="st0" x1="120.61" y1="13.49" x2="120.61" y2="35.15"/>
    <line class="st0" x1="132.99" y1="22.78" x2="132.99" y2="35.15"/>
    <line class="st0" x1="232.01" y1="22.78" x2="232.01" y2="35.15"/>
    <line class="st0" x1="244.39" y1="13.49" x2="244.39" y2="35.15"/>
    <line class="st0" x1="256.77" y1="10.4" x2="256.77" y2="35.15"/>
    <line class="st0" x1="269.15" y1="13.49" x2="269.15" y2="35.15"/>
    <line class="st0" x1="281.52" y1="22.78" x2="281.52" y2="35.15"/>
    <line class="st0" x1="207.26" y1="47.53" x2="207.26" y2="35.15"/>
    <line class="st0" x1="194.88" y1="56.81" x2="194.88" y2="35.15"/>
    <line class="st0" x1="182.5" y1="59.91" x2="182.5" y2="35.15"/>
    <line class="st0" x1="170.12" y1="56.81" x2="170.12" y2="35.15"/>
    <line class="st0" x1="157.74" y1="47.53" x2="157.74" y2="35.15"/>
    <path class="st1" d="M71.1,35.15c11.6-12.38,23.21-24.75,37.13-24.75,27.85,0,46.42,49.51,74.27,49.51s46.42-49.51,74.27-49.51c13.92,0,25.53,12.38,37.13,24.75"/>
  </g>
</svg>