<?xml version="1.0" encoding="UTF-8"?>
<svg id="Ebene_2" xmlns="http://www.w3.org/2000/svg" version="1.1" viewBox="0 0 311.81 170.08">
  <!-- Generator: Adobe Illustrator 29.1.0, SVG Export Plug-In . SVG Version: 2.1.0 Build 142)  -->
  <defs>
    <style>
      .st0 {
        fill: none;
        stroke: #1d1d1b;
        stroke-linecap: round;
        stroke-miterlimit: 10;
        stroke-width: 1.2px;
      }

      .st1 {
        fill: #1d1d1b;
        font-family: Helvetica, Helvetica;
        font-size: 8px;
      }
    </style>
  </defs>
  <text class="st1" transform="translate(297.64 38.35)"><tspan x="0" y="0">a</tspan></text>
  <text class="st1" transform="translate(297.64 106.1)"><tspan x="0" y="0">b</tspan></text>
  <text class="st1" transform="translate(158.54 161.66)"><tspan x="0" y="0">19</tspan></text>
  <path class="st0" d="M283.47,39.33c-10.52,11.22-21.04,22.44-33.66,22.44-25.25,0-42.08-44.88-67.32-44.88h0c-25.25,0-42.08,44.88-67.32,44.88S73.08,16.89,47.83,16.89c-12.62,0-23.14,11.22-33.66,22.44"/>
  <path class="st0" d="M14.17,106.65c0-18.59,15.07-33.66,33.66-33.66s33.66,15.07,33.66,33.66"/>
  <path class="st0" d="M148.82,106.65c0,18.59-15.07,33.66-33.66,33.66s-33.66-15.07-33.66-33.66"/>
  <path class="st0" d="M148.82,106.65c0-18.59,15.07-33.66,33.66-33.66s33.66,15.07,33.66,33.66"/>
  <path class="st0" d="M283.47,106.65c0,18.59-15.07,33.66-33.66,33.66s-33.66-15.07-33.66-33.66"/>
</svg>