<?xml version="1.0" encoding="UTF-8"?>
<svg id="Ebene_1" xmlns="http://www.w3.org/2000/svg" version="1.1" viewBox="0 0 444 201.2">
  <!-- Generator: Adobe Illustrator 29.1.0, SVG Export Plug-In . SVG Version: 2.1.0 Build 142)  -->
  <defs>
    <style>
      .st0 {
        stroke-width: .6px;
      }

      .st0, .st1 {
        fill: none;
        stroke: #1d1d1b;
        stroke-linecap: round;
        stroke-miterlimit: 10;
      }

      .st1 {
        stroke-width: 1.2px;
      }

      .st2 {
        display: none;
      }
    </style>
  </defs>
  <g id="Skala" class="st2">
    <path class="st0" d="M85.08,35.15c0,15.66-12.69,28.35-28.35,28.35s-28.35-12.69-28.35-28.35S41.08,6.81,56.74,6.81s28.35,12.69,28.35,28.35h-.01Z"/>
    <line class="st0" x1="56.74" y1="6.81" x2="56.74" y2="63.5"/>
    <line class="st0" x1="28.39" y1="35.15" x2="311.85" y2="35.15"/>
    <line class="st0" x1="56.74" y1="6.81" x2="311.85" y2="6.81"/>
    <line class="st0" x1="42.56" y1="10.35" x2="311.85" y2="10.35"/>
    <line class="st0" x1="31.93" y1="20.98" x2="311.85" y2="20.98"/>
    <line class="st0" x1="31.93" y1="49.33" x2="311.85" y2="49.33"/>
    <line class="st0" x1="42.56" y1="59.96" x2="311.85" y2="59.96"/>
    <line class="st0" x1="56.74" y1="63.5" x2="311.85" y2="63.5"/>
    <line class="st0" x1="32.19" y1="49.33" x2="56.74" y2="35.15"/>
    <line class="st0" x1="42.56" y1="59.7" x2="56.74" y2="35.15"/>
    <line class="st0" x1="56.74" y1="35.15" x2="42.56" y2="10.61"/>
    <line class="st0" x1="56.74" y1="35.15" x2="32.19" y2="20.98"/>
    <line class="st0" x1="70.91" y1="20.98" x2="70.91" y2="35.15"/>
    <line class="st0" x1="85.08" y1="10.35" x2="85.08" y2="35.15"/>
    <line class="st0" x1="99.26" y1="6.81" x2="99.26" y2="35.15"/>
    <line class="st0" x1="113.43" y1="10.35" x2="113.43" y2="35.15"/>
    <line class="st0" x1="127.6" y1="20.98" x2="127.6" y2="35.15"/>
    <line class="st0" x1="240.99" y1="20.98" x2="240.99" y2="35.15"/>
    <line class="st0" x1="255.16" y1="10.35" x2="255.16" y2="35.15"/>
    <line class="st0" x1="269.33" y1="6.81" x2="269.33" y2="35.15"/>
    <line class="st0" x1="283.51" y1="10.35" x2="283.51" y2="35.15"/>
    <line class="st0" x1="297.68" y1="20.98" x2="297.68" y2="35.15"/>
    <line class="st0" x1="212.64" y1="49.33" x2="212.64" y2="35.15"/>
    <line class="st0" x1="198.47" y1="59.96" x2="198.47" y2="35.15"/>
    <line class="st0" x1="184.29" y1="63.5" x2="184.29" y2="35.15"/>
    <line class="st0" x1="170.12" y1="59.96" x2="170.12" y2="35.15"/>
    <line class="st0" x1="155.95" y1="49.33" x2="155.95" y2="35.15"/>
  </g>
  <g id="Kurve">
    <path class="st1" d="M396.89,35.15c-13.29,14.17-26.58,28.35-42.52,28.35-31.89,0-53.15-56.69-85.04-56.69h0c-31.89,0-53.15,56.69-85.04,56.69S131.15,6.81,99.26,6.81c-15.94,0-29.23,14.17-42.52,28.35"/>
    <path class="st1" d="M56.74,120.19c0-23.48,19.04-42.52,42.52-42.52s42.52,19.04,42.52,42.52"/>
    <path class="st1" d="M226.81,120.19c0,23.48-19.04,42.52-42.52,42.52s-42.52-19.04-42.52-42.52"/>
    <path class="st1" d="M226.81,120.19c0-23.48,19.04-42.52,42.52-42.52s42.52,19.04,42.52,42.52"/>
    <path class="st1" d="M396.89,120.19c0,23.48-19.04,42.52-42.52,42.52s-42.52-19.04-42.52-42.52"/>
  </g>
</svg>