<?xml version="1.0" encoding="UTF-8"?>
<svg id="Ebene_2" xmlns="http://www.w3.org/2000/svg" version="1.1" viewBox="0 0 311.81 56.69">
  <!-- Generator: Adobe Illustrator 29.1.0, SVG Export Plug-In . SVG Version: 2.1.0 Build 142)  -->
  <defs>
    <style>
      .st0 {
        fill: none;
        stroke: #1d1d1b;
        stroke-linecap: round;
        stroke-miterlimit: 10;
        stroke-width: 1.2px;
      }

      .st1 {
        fill: #1d1d1b;
        font-family: Helvetica, Helvetica;
        font-size: 8px;
      }
    </style>
  </defs>
  <text class="st1" transform="translate(108.94 48.27)"><tspan x="0" y="0">20</tspan></text>
  <path class="st0" d="M14.17,28.35c10.63,0,17.72-3.54,10.63-14.18l3.37-3.54c14.35,3.54,14.35,17.72,14.35,17.72"/>
  <path class="st0" d="M70.87,28.35c-10.63,0-17.72-3.54-10.63-14.18l-3.37-3.54c-14.35,3.54-14.35,17.72-14.35,17.72"/>
  <path class="st0" d="M70.87,28.35c10.63,0,17.72-3.54,10.63-14.18l3.37-3.54c14.35,3.54,14.35,17.72,14.35,17.72"/>
  <path class="st0" d="M127.56,28.35c-10.63,0-17.72-3.54-10.63-14.18l-3.37-3.54c-14.35,3.54-14.35,17.72-14.35,17.72"/>
  <path class="st0" d="M127.56,28.35c10.63,0,17.72-3.54,10.63-14.18l3.37-3.54c14.35,3.54,14.35,17.72,14.35,17.72"/>
  <path class="st0" d="M184.25,28.35c-10.63,0-17.72-3.54-10.63-14.18l-3.37-3.54c-14.35,3.54-14.35,17.72-14.35,17.72"/>
  <path class="st0" d="M184.25,28.35c10.63,0,17.72-3.54,10.63-14.18l3.37-3.54c14.35,3.54,14.35,17.72,14.35,17.72"/>
</svg>