<?xml version="1.0" encoding="UTF-8"?>
<svg xmlns="http://www.w3.org/2000/svg" version="1.1" viewBox="0 0 316.92 80">
  <!-- Generator: Adobe Illustrator 29.1.0, SVG Export Plug-In . SVG Version: 2.1.0 Build 142)  -->
  <defs>
    <style>
      .st0 {
        fill: none;
        stroke: #1d1d1b;
        stroke-linecap: round;
        stroke-miterlimit: 10;
        stroke-width: 1.2px;
      }

      .st1 {
        display: none;
      }
    </style>
  </defs>
  <g id="_x32_1">
    <path class="st0" d="M85.08,52.87c-10.63,0-17.72,3.55-10.63,14.18l-3.37,3.54c-14.35-3.54-14.35-17.72-14.35-17.72"/>
    <path class="st0" d="M28.39,52.87c10.63,0,17.72-3.55,10.63-14.18l3.37-3.54c14.35,3.54,14.35,17.72,14.35,17.72"/>
    <path class="st0" d="M141.77,52.87c-10.63,0-17.72,3.55-10.63,14.18l-3.37,3.54c-14.35-3.54-14.35-17.72-14.35-17.72"/>
    <path class="st0" d="M85.08,52.87c10.63,0,17.72-3.55,10.63-14.18l3.37-3.54c14.35,3.54,14.35,17.72,14.35,17.72"/>
    <path class="st0" d="M198.47,52.87c-10.63,0-17.72,3.55-10.63,14.18l-3.37,3.54c-14.35-3.54-14.35-17.72-14.35-17.72"/>
    <path class="st0" d="M141.77,52.87c10.63,0,17.72-3.55,10.63-14.18l3.37-3.54c14.35,3.54,14.35,17.72,14.35,17.72"/>
    <path class="st0" d="M255.16,52.87c-10.63,0-17.72,3.55-10.63,14.18l-3.37,3.54c-14.35-3.54-14.35-17.72-14.35-17.72"/>
    <path class="st0" d="M198.47,52.87c10.63,0,17.72-3.55,10.63-14.18l3.37-3.54c14.35,3.54,14.35,17.72,14.35,17.72"/>
  </g>
  <g id="_x32_0" class="st1">
    <path class="st0" d="M28.39,24.52c10.63,0,17.72-3.54,10.63-14.18l3.37-3.54c14.35,3.54,14.35,17.72,14.35,17.72"/>
    <path class="st0" d="M85.08,24.52c-10.63,0-17.72-3.54-10.63-14.18l-3.37-3.54c-14.35,3.54-14.35,17.72-14.35,17.72"/>
    <path class="st0" d="M85.08,24.52c10.63,0,17.72-3.54,10.63-14.18l3.37-3.54c14.35,3.54,14.35,17.72,14.35,17.72"/>
    <path class="st0" d="M141.78,24.52c-10.63,0-17.72-3.54-10.63-14.18l-3.37-3.54c-14.35,3.54-14.35,17.72-14.35,17.72"/>
    <path class="st0" d="M141.77,24.52c10.63,0,17.72-3.54,10.63-14.18l3.37-3.54c14.35,3.54,14.35,17.72,14.35,17.72"/>
    <path class="st0" d="M198.47,24.52c-10.63,0-17.72-3.54-10.63-14.18l-3.37-3.54c-14.35,3.54-14.35,17.72-14.35,17.72"/>
    <path class="st0" d="M198.47,24.52c10.63,0,17.72-3.54,10.63-14.18l3.37-3.54c14.35,3.54,14.35,17.72,14.35,17.72"/>
  </g>
</svg>