<?xml version="1.0" encoding="UTF-8"?>
<svg id="Ebene_2" xmlns="http://www.w3.org/2000/svg" version="1.1" viewBox="0 0 311.81 113.39">
  <!-- Generator: Adobe Illustrator 29.1.0, SVG Export Plug-In . SVG Version: 2.1.0 Build 142)  -->
  <defs>
    <style>
      .st0, .st1 {
        stroke-width: 1.2px;
      }

      .st0, .st1, .st2 {
        fill: none;
        stroke: #1d1d1b;
        stroke-linecap: round;
      }

      .st0, .st2 {
        stroke-miterlimit: 10;
      }

      .st1 {
        stroke-linejoin: round;
      }

      .st2 {
        stroke-dasharray: 2 1.5;
        stroke-width: .6px;
      }

      .st3 {
        fill: #1d1d1b;
        font-family: Helvetica, Helvetica;
        font-size: 8px;
      }
    </style>
  </defs>
  <text class="st3" transform="translate(41.76 104.96)"><tspan x="0" y="0">22</tspan></text>
  <line class="st0" x1="46.06" y1="10.63" x2="46.06" y2="85.04"/>
  <line class="st2" x1="14.17" y1="81.5" x2="77.95" y2="81.5"/>
  <line class="st2" x1="14.17" y1="77.95" x2="77.95" y2="77.95"/>
  <line class="st2" x1="14.17" y1="53.15" x2="77.95" y2="53.15"/>
  <line class="st2" x1="21.26" y1="38.98" x2="70.87" y2="38.98"/>
  <line class="st2" x1="17.72" y1="28.35" x2="74.41" y2="28.35"/>
  <line class="st2" x1="24.8" y1="21.26" x2="67.32" y2="21.26"/>
  <line class="st2" x1="35.43" y1="60.24" x2="56.69" y2="60.24"/>
  <path class="st1" d="M14.17,81.5v-3.54c12.72,0,10.49-17.72,21.26-17.72l-21.26-7.09,10.63-10.63c-21.26-21.26,7.09-21.26,10.63-24.8,0,0,10.63,0,10.63-3.54"/>
  <path class="st1" d="M77.95,81.5v-3.54c-12.72,0-10.49-17.72-21.26-17.72l21.26-7.09-10.63-10.63c21.26-21.26-7.09-21.26-10.63-24.8,0,0-10.63,0-10.63-3.54"/>
</svg>