<?xml version="1.0" encoding="UTF-8"?>
<svg xmlns="http://www.w3.org/2000/svg" version="1.1" viewBox="0 0 124.02 145.28">
  <!-- Generator: Adobe Illustrator 29.1.0, SVG Export Plug-In . SVG Version: 2.1.0 Build 142)  -->
  <defs>
    <style>
      .st0 {
        stroke-linecap: round;
        stroke-width: 1.2px;
      }

      .st0, .st1 {
        fill: none;
        stroke: #1d1d1b;
        stroke-miterlimit: 10;
      }

      .st2 {
        fill: #1d1d1b;
      }

      .st1 {
        stroke-dasharray: 2 1.5;
        stroke-width: .6px;
      }

      .st3 {
        display: none;
      }
    </style>
  </defs>
  <g id="Ebene_5" class="st3">
    <circle class="st1" cx="63.78" cy="92.13" r="21.26"/>
    <circle class="st1" cx="63.78" cy="92.13" r="21.26"/>
    <path class="st1" d="M99.21,92.13c0,19.57-15.87,35.43-35.43,35.43s-35.43-15.86-35.43-35.43,15.86-35.43,35.43-35.43,35.43,15.86,35.43,35.43Z"/>
    <path class="st1" d="M106.3,92.13c0,23.48-19.04,42.52-42.52,42.52s-42.52-19.04-42.52-42.52,19.04-42.52,42.52-42.52,42.52,19.04,42.52,42.52Z"/>
    <circle class="st1" cx="63.78" cy="92.13" r="56.69"/>
    <circle class="st1" cx="63.78" cy="92.13" r="70.87"/>
  </g>
  <g id="Kurve" class="st3">
    <path class="st0" d="M-7.09,92.13c20.59,0,18.9-11.65,27.02-11.65,5.63,0,9.13,4.42,9.13,4.42-7.8,13.62,13.47,7.23,13.47,7.23h21.26"/>
  </g>
  <g id="Ebene_5_Kopie">
    <path class="st1" d="M63.78,70.87"/>
    <path class="st1" d="M48.64,77.2c3.86-3.91,9.21-6.34,15.14-6.34,4.88,0,9.37,1.64,12.96,4.4"/>
    <path class="st1" d="M45.16,61.98c5.41-3.35,11.79-5.28,18.62-5.28,8.46,0,16.23,2.97,22.32,7.91"/>
    <path class="st1" d="M43.47,54.76c6.04-3.29,12.95-5.16,20.31-5.16,13.92,0,26.27,6.69,34.03,17.02"/>
    <path class="st1" d="M26.55,49.37c9.96-8.68,22.98-13.94,37.23-13.94s26.61,4.99,36.46,13.28"/>
    <path class="st1" d="M14.85,40.86c12.72-12.14,29.95-19.6,48.93-19.6,16.14,0,31.03,5.4,42.94,14.49"/>
    <path class="st1" d="M14.85,40.86c12.72-12.14,29.95-19.6,48.93-19.6,16.14,0,31.03,5.4,42.94,14.49"/>
    <path class="st2" d="M64.49,92.13c0,.39-.32.71-.71.71s-.71-.32-.71-.71.32-.71.71-.71.71.32.71.71Z"/>
  </g>
  <g id="Kurve_Kopie">
    <path class="st0" d="M14.88,40.86c14.04,15.06,21.69,6.16,27.23,12.09,3.84,4.12,2.99,9.69,2.99,9.69-15.28,3.59,3.9,14.78,3.9,14.78"/>
    <path class="st0" d="M106.58,36.11c-12.39,16.45-2.35,22.39-7.24,28.87-3.39,4.5-9.02,4.63-9.02,4.63-6.19-14.42-13.88,6.41-13.88,6.41"/>
  </g>
</svg>