<?xml version="1.0" encoding="UTF-8"?>
<svg id="Ebene_2" xmlns="http://www.w3.org/2000/svg" version="1.1" viewBox="0 0 311.81 113.39">
  <!-- Generator: Adobe Illustrator 29.1.0, SVG Export Plug-In . SVG Version: 2.1.0 Build 142)  -->
  <defs>
    <style>
      .st0 {
        stroke-linecap: round;
        stroke-width: 1.2px;
      }

      .st0, .st1 {
        fill: none;
        stroke: #1d1d1b;
        stroke-miterlimit: 10;
      }

      .st2, .st3 {
        fill: #1d1d1b;
      }

      .st3 {
        font-family: Helvetica, Helvetica;
        font-size: 8px;
      }

      .st1 {
        stroke-dasharray: 2 1.5;
        stroke-width: .6px;
      }
    </style>
  </defs>
  <text class="st3" transform="translate(59.33 104.96)"><tspan x="0" y="0">23</tspan></text>
  <path class="st1" d="M63.1,63.78"/>
  <path class="st1" d="M47.96,70.12c3.86-3.91,9.21-6.34,15.14-6.34,4.88,0,9.37,1.64,12.96,4.4"/>
  <path class="st1" d="M44.48,54.89c5.41-3.35,11.79-5.28,18.62-5.28,8.46,0,16.23,2.97,22.32,7.91"/>
  <path class="st1" d="M42.79,47.68c6.04-3.29,12.95-5.16,20.31-5.16,13.92,0,26.27,6.69,34.03,17.02"/>
  <path class="st1" d="M25.87,42.28c9.96-8.68,22.98-13.94,37.23-13.94s26.61,4.99,36.46,13.28"/>
  <path class="st1" d="M14.17,33.77c12.72-12.14,29.95-19.6,48.93-19.6,16.14,0,31.03,5.4,42.94,14.49"/>
  <path class="st1" d="M14.17,33.77c12.72-12.14,29.95-19.6,48.93-19.6,16.14,0,31.03,5.4,42.94,14.49"/>
  <path class="st2" d="M63.81,85.04c0,.39-.32.71-.71.71s-.71-.32-.71-.71.32-.71.71-.71.71.32.71.71Z"/>
  <path class="st0" d="M14.2,33.77c14.04,15.06,21.69,6.16,27.23,12.09,3.84,4.12,2.99,9.69,2.99,9.69-15.28,3.59,3.9,14.78,3.9,14.78"/>
  <path class="st0" d="M105.9,29.02c-12.39,16.45-2.35,22.39-7.24,28.87-3.39,4.5-9.02,4.63-9.02,4.63-6.19-14.42-13.88,6.41-13.88,6.41"/>
</svg>