<?xml version="1.0" encoding="UTF-8"?>
<svg xmlns="http://www.w3.org/2000/svg" version="1.1" viewBox="0 0 197.89 145.28">
  <!-- Generator: Adobe Illustrator 29.1.0, SVG Export Plug-In . SVG Version: 2.1.0 Build 142)  -->
  <defs>
    <style>
      .st0 {
        stroke-width: .6px;
      }

      .st0, .st1, .st2 {
        fill: none;
        stroke: #1d1d1b;
        stroke-linecap: round;
        stroke-miterlimit: 10;
      }

      .st1 {
        stroke-width: 1.2px;
      }

      .st2 {
        stroke-width: 1.2px;
      }

      .st3 {
        display: none;
      }
    </style>
  </defs>
  <g id="Ebene_2" class="st3">
    <path class="st2" d="M83.93,63.52c1.69.48,2.3,4.65-1.62,5.1-2.62.3-5.37-3.89-3.44-6.79,1.93-2.89,5.5-3.12,7.54-1.89,2.41,1.45,5.72,3.82,5.72,3.82"/>
    <path class="st2" d="M100.33,63.93c-1.69-.48-2.3-4.65,1.62-5.1,2.62-.3,5.37,3.89,3.44,6.79-1.93,2.89-5.5,3.12-7.54,1.89-2.41-1.45-5.72-3.82-5.72-3.82"/>
    <circle class="st0" cx="92.13" cy="63.78" r="14.17" transform="translate(-.83 1.22) rotate(-.75)"/>
    <path class="st2" d="M112.27,91.87c1.69.48,2.3,4.65-1.62,5.1-2.62.3-5.37-3.89-3.44-6.79,1.93-2.89,5.5-3.12,7.54-1.89,2.41,1.45,5.72,3.82,5.72,3.82"/>
    <path class="st2" d="M128.67,92.27c-1.69-.48-2.3-4.65,1.62-5.1,2.62-.3,5.37,3.89,3.44,6.79-1.93,2.89-5.5,3.12-7.54,1.89-2.41-1.45-5.72-3.82-5.72-3.82"/>
    <circle class="st0" cx="120.47" cy="92.13" r="14.17"/>
    <path class="st2" d="M120.21,100.32c.48-1.69,4.65-2.3,5.1,1.62.3,2.62-3.89,5.37-6.79,3.44-2.89-1.93-3.12-5.5-1.89-7.54,1.45-2.41,3.82-5.72,3.82-5.72"/>
    <path class="st2" d="M120.62,83.93c-.48,1.69-4.65,2.3-5.1-1.62-.3-2.62,3.89-5.37,6.79-3.44,2.89,1.93,3.12,5.5,1.89,7.54-1.45,2.41-3.82,5.72-3.82,5.72"/>
    <circle class="st0" cx="120.47" cy="92.13" r="14.17" transform="translate(-1.21 1.61) rotate(-.76)"/>
    <path class="st2" d="M148.67,71.98c.48-1.69,4.65-2.3,5.1,1.62.3,2.62-3.89,5.37-6.79,3.44-2.89-1.93-3.12-5.5-1.89-7.54,1.45-2.41,3.82-5.72,3.82-5.72"/>
    <circle class="st0" cx="148.82" cy="63.78" r="14.17" transform="translate(83.06 211.73) rotate(-89.23)"/>
    <path class="st2" d="M155.99,59.81c-1.7.43-4.31-2.88-1.14-5.23,2.12-1.57,6.6.69,6.37,4.16-.22,3.47-3.21,5.45-5.58,5.41-2.81-.05-6.87-.45-6.87-.45"/>
    <path class="st0" d="M161.09,56.69c3.91,6.78,1.59,15.45-5.19,19.36-6.78,3.91-15.45,1.59-19.36-5.19-3.91-6.78-1.59-15.45,5.19-19.36s15.45-1.59,19.36,5.19Z"/>
    <path class="st2" d="M141.79,59.55c1.22,1.26-.34,5.18-3.96,3.6-2.42-1.05-2.7-6.06.41-7.6,3.12-1.54,6.32.05,7.48,2.13,1.36,2.46,3.05,6.17,3.05,6.17"/>
    <path class="st0" d="M136.54,56.69c3.91-6.78,12.58-9.1,19.36-5.19,6.78,3.91,9.1,12.58,5.19,19.36-3.91,6.78-12.58,9.1-19.36,5.19-6.78-3.91-9.1-12.58-5.19-19.36Z"/>
  </g>
  <g id="Ebene_3">
    <g>
      <path class="st1" d="M18.83,68.41c3.14.9,4.27,8.65-3.02,9.48-4.88.56-9.99-7.24-6.4-12.62,3.59-5.38,10.23-5.8,14.02-3.52,4.48,2.69,10.65,7.11,10.65,7.11"/>
      <path class="st1" d="M49.34,69.16c-3.14-.9-4.27-8.65,3.02-9.49,4.88-.56,9.99,7.24,6.4,12.62-3.59,5.38-10.23,5.8-14.02,3.52-4.48-2.69-10.65-7.11-10.65-7.11"/>
      <circle class="st1" cx="34.08" cy="68.89" r="26.36" transform="translate(-35.04 102.49) rotate(-89.6)"/>
    </g>
    <g>
      <path class="st1" d="M146.18,68.41c3.14.9,4.27,8.65-3.02,9.48-4.88.56-9.99-7.24-6.4-12.62,3.59-5.38,10.23-5.8,14.02-3.52,4.48,2.69,10.65,7.11,10.65,7.11"/>
      <path class="st1" d="M176.68,69.16c-3.14-.9-4.27-8.66,3.02-9.49,4.88-.56,9.99,7.24,6.4,12.62-3.59,5.38-10.23,5.8-14.02,3.52-4.48-2.69-10.65-7.11-10.65-7.11"/>
      <path class="st1" d="M187.8,68.89c0,14.56-11.8,26.36-26.36,26.36s-26.36-11.8-26.36-26.36,11.8-26.36,26.36-26.36,26.36,11.8,26.36,26.36Z"/>
      <path class="st1" d="M160.95,84.14c.9-3.14,8.65-4.27,9.48,3.02.56,4.88-7.24,9.99-12.62,6.4-5.38-3.59-5.8-10.23-3.52-14.02,2.69-4.49,7.11-10.65,7.11-10.65"/>
      <path class="st1" d="M161.7,53.64c-.9,3.14-8.65,4.27-9.48-3.02-.56-4.88,7.24-9.99,12.62-6.4,5.38,3.59,5.8,10.23,3.52,14.02-2.69,4.48-7.11,10.65-7.11,10.65"/>
      <path class="st1" d="M161.43,42.52c14.56,0,26.36,11.8,26.36,26.36s-11.8,26.36-26.36,26.36-26.36-11.8-26.36-26.36,11.8-26.36,26.36-26.36Z"/>
    </g>
    <g>
      <path class="st1" d="M97.49,84.14c.9-3.14,8.65-4.27,9.48,3.02.56,4.88-7.24,9.99-12.62,6.4-5.38-3.59-5.8-10.23-3.52-14.02,2.69-4.49,7.11-10.65,7.11-10.65"/>
      <path class="st1" d="M97.76,95.25c-14.56,0-26.36-11.8-26.36-26.36s11.8-26.36,26.36-26.36,26.36,11.8,26.36,26.36-11.8,26.36-26.36,26.36Z"/>
      <path class="st1" d="M111.1,61.5c-3.17.79-8.02-5.36-2.12-9.73,3.95-2.92,12.27,1.28,11.85,7.73-.42,6.46-5.97,10.14-10.38,10.06-5.23-.09-12.78-.83-12.78-.83"/>
      <path class="st1" d="M120.59,55.7c7.28,12.61,2.96,28.73-9.65,36.01-12.61,7.28-28.73,2.96-36.01-9.65-7.28-12.61-2.96-28.73,9.65-36.01,12.61-7.28,28.73-2.96,36.01,9.65Z"/>
      <path class="st1" d="M84.69,61.03c2.27,2.34-.63,9.63-7.36,6.7-4.5-1.96-5.03-11.27.77-14.13,5.8-2.87,11.76.1,13.91,3.96,2.54,4.57,5.67,11.48,5.67,11.48"/>
      <path class="st1" d="M74.93,55.71c7.28-12.61,23.4-16.93,36.01-9.65,12.61,7.28,16.93,23.4,9.65,36.01-7.28,12.61-23.4,16.93-36.01,9.65-12.61-7.28-16.93-23.4-9.65-36.01Z"/>
    </g>
  </g>
</svg>