<?xml version="1.0" encoding="UTF-8"?>
<svg id="Ebene_2" xmlns="http://www.w3.org/2000/svg" version="1.1" viewBox="0 0 311.81 99.21">
  <!-- Generator: Adobe Illustrator 29.1.0, SVG Export Plug-In . SVG Version: 2.1.0 Build 142)  -->
  <defs>
    <style>
      .st0 {
        stroke-width: .6px;
      }

      .st0, .st1 {
        fill: none;
        stroke: #1d1d1b;
        stroke-linecap: round;
        stroke-miterlimit: 10;
      }

      .st1 {
        stroke-width: 1.2px;
      }

      .st2 {
        fill: #1d1d1b;
        font-family: Helvetica, Helvetica;
        font-size: 8px;
      }
    </style>
  </defs>
  <text class="st2" transform="translate(101.85 90.79)"><tspan x="0" y="0">24</tspan></text>
  <g>
    <path class="st1" d="M25.54,41.79c3.21.92,4.37,8.86-3.09,9.7-4.99.57-10.22-7.41-6.55-12.92,3.67-5.51,10.47-5.93,14.35-3.61,4.59,2.75,10.89,7.28,10.89,7.28"/>
    <path class="st1" d="M56.75,42.56c-3.21-.92-4.37-8.85,3.09-9.71,4.99-.57,10.22,7.41,6.54,12.92-3.67,5.51-10.47,5.93-14.35,3.61-4.59-2.75-10.89-7.28-10.89-7.28"/>
    <circle class="st0" cx="41.15" cy="42.29" r="26.97" transform="translate(-1.42 83.14) rotate(-89.6)"/>
  </g>
  <g>
    <path class="st1" d="M155.84,41.8c3.21.92,4.37,8.85-3.09,9.7-4.99.57-10.22-7.41-6.55-12.91,3.67-5.51,10.47-5.93,14.35-3.61,4.59,2.75,10.89,7.27,10.89,7.27"/>
    <path class="st1" d="M187.05,42.57c-3.21-.92-4.37-8.86,3.09-9.71,4.99-.57,10.22,7.41,6.55,12.92-3.67,5.51-10.47,5.93-14.35,3.6-4.59-2.75-10.89-7.28-10.89-7.28"/>
    <path class="st0" d="M198.43,42.29c0,14.9-12.08,26.97-26.98,26.97s-26.97-12.07-26.97-26.97,12.08-26.97,26.97-26.97,26.98,12.08,26.98,26.97Z"/>
    <path class="st1" d="M170.96,57.89c.92-3.21,8.85-4.37,9.7,3.09.57,4.99-7.41,10.22-12.92,6.54-5.51-3.67-5.93-10.47-3.61-14.35,2.75-4.59,7.27-10.9,7.27-10.9"/>
    <path class="st1" d="M171.73,26.68c-.92,3.21-8.85,4.37-9.7-3.09-.57-4.99,7.41-10.22,12.92-6.55,5.51,3.67,5.93,10.47,3.6,14.35-2.75,4.59-7.28,10.89-7.28,10.89"/>
    <path class="st0" d="M171.45,15.31c14.9,0,26.97,12.08,26.97,26.97s-12.08,26.97-26.97,26.97-26.97-12.08-26.97-26.97,12.08-26.97,26.97-26.97Z"/>
  </g>
  <g>
    <path class="st1" d="M106.02,57.89c.92-3.21,8.85-4.37,9.7,3.09.57,4.99-7.41,10.22-12.92,6.54-5.51-3.67-5.93-10.47-3.61-14.35,2.75-4.59,7.27-10.9,7.27-10.9"/>
    <path class="st0" d="M106.3,69.26c-14.9,0-26.97-12.08-26.97-26.97s12.07-26.97,26.97-26.97,26.97,12.08,26.97,26.97-12.08,26.97-26.97,26.97Z"/>
    <path class="st1" d="M119.95,34.72c-3.24.81-8.21-5.48-2.17-9.95,4.04-2.99,12.55,1.31,12.13,7.91-.43,6.61-6.1,10.37-10.62,10.3-5.35-.09-13.07-.85-13.07-.85"/>
    <path class="st0" d="M129.66,28.8c7.45,12.9,3.03,29.4-9.87,36.85-12.9,7.45-29.4,3.03-36.85-9.87-7.45-12.9-3.03-29.4,9.87-36.85,12.9-7.45,29.4-3.03,36.85,9.87Z"/>
    <path class="st1" d="M92.92,34.24c2.32,2.4-.64,9.85-7.53,6.86-4.61-2-5.14-11.53.79-14.46,5.94-2.93,12.04.1,14.23,4.05,2.6,4.68,5.8,11.75,5.8,11.75"/>
    <path class="st0" d="M82.94,28.8c7.45-12.9,23.94-17.32,36.85-9.87,12.9,7.45,17.32,23.94,9.88,36.85-7.45,12.9-23.94,17.32-36.85,9.87-12.9-7.45-17.32-23.95-9.88-36.85Z"/>
  </g>
</svg>