<?xml version="1.0" encoding="UTF-8"?>
<svg xmlns="http://www.w3.org/2000/svg" version="1.1" viewBox="0 0 197.89 145.28">
  <!-- Generator: Adobe Illustrator 29.1.0, SVG Export Plug-In . SVG Version: 2.1.0 Build 142)  -->
  <defs>
    <style>
      .st0 {
        fill: none;
        stroke: #1d1d1b;
        stroke-linecap: round;
        stroke-linejoin: round;
        stroke-width: 1.2px;
      }

      .st1 {
        display: none;
      }
    </style>
  </defs>
  <g id="_x32_5">
    <path class="st0" d="M63.78,35.43c-14.17,0-10.63,28.35,17.72,10.63,17.52-10.95,31.89-28.35,46.06-10.63"/>
    <path class="st0" d="M127.56,35.43c-14.17,0-10.63,28.35,17.72,10.63,17.52-10.95,31.89-28.35,46.06-10.63"/>
    <path class="st0" d="M191.34,35.43c-13.56,0-10.9,25.95,14.17,12.68"/>
    <path class="st0" d="M.01,51.8c4.18.48,10.03-.94,17.71-5.74,17.52-10.95,31.89-28.35,46.06-10.63"/>
  </g>
  <g id="_x32_6" class="st1">
    <path class="st0" d="M63.78,35.43c-14.17,0-10.63,28.35,17.72,10.63,17.52-10.95,31.89-28.35,46.06-10.63"/>
    <path class="st0" d="M63.78,92.13c-14.17,0-10.63,28.35,17.72,10.63,17.52-10.95,31.89-28.35,46.06-10.63"/>
    <path class="st0" d="M63.78,92.13c14.17,0,10.63-28.35-17.72-10.63-17.52,10.95-31.89,28.35-46.06,10.63"/>
    <path class="st0" d="M127.56,35.43c-14.17,0-10.63,28.35,17.72,10.63,17.52-10.95,31.89-28.35,46.06-10.63"/>
    <path class="st0" d="M191.34,35.43c-13.56,0-10.9,25.95,14.17,12.68"/>
    <path class="st0" d="M.01,51.8c4.18.48,10.03-.94,17.71-5.74,17.52-10.95,31.89-28.35,46.06-10.63"/>
    <path class="st0" d="M12.9,150.11c32.66-23.17,56.93-28.42,64.21-12.09,4.53,10.16-6.37,18.03-13.29,10.85"/>
    <path class="st0" d="M114.7,147.58c-32.66,23.17-56.93,28.42-64.21,12.09-4.53-10.16,6.37-18.03,13.3-10.85"/>
    <path class="st0" d="M111,150.11c32.66-23.17,56.93-28.42,64.22-12.09,4.53,10.16-6.37,18.03-13.3,10.85"/>
    <path class="st0" d="M212.8,147.58c-32.66,23.17-56.93,28.42-64.22,12.09-4.53-10.16,6.37-18.03,13.3-10.85"/>
  </g>
  <g id="_x32_7" class="st1">
    <path class="st0" d="M63.78,63.64c2.05,1.13,3.58,1.14,4.59-.15,1.23-1.58.92-4.18-2.37-5.87-4.49-2.3-10.28.35-12.07,4.86-2.04,5.15-.87,12.01,7.82,15.68,7.82,3.3,20.98-1.34,24.39-11.17,4.02-11.6-1.08-26.33-20.27-29.71-18.28-3.22-37.89,14.48-52.22,26.21"/>
    <path class="st0" d="M63.8,63.68c-2.05-1.13-3.58-1.14-4.59.15-1.23,1.58-.92,4.18,2.37,5.87,4.49,2.3,10.28-.35,12.07-4.86,2.04-5.15.87-12.01-7.82-15.68-7.82-3.3-20.98,1.34-24.39,11.17-4.02,11.6,1.08,26.33,20.27,29.71,18.28,3.22,37.89-14.48,52.22-26.21"/>
    <path class="st0" d="M164.07,63.92c2.05,1.13,3.58,1.14,4.59-.15,1.23-1.58.92-4.18-2.37-5.87-4.49-2.3-10.28.35-12.07,4.86-2.04,5.15-.87,12.01,7.82,15.68,7.82,3.3,20.98-1.34,24.39-11.17,4.02-11.6-1.08-26.33-20.27-29.71-18.28-3.22-37.89,14.48-52.22,26.21"/>
    <path class="st0" d="M164.09,63.96c-2.05-1.13-3.58-1.14-4.59.15-1.23,1.58-.92,4.18,2.37,5.87,4.49,2.3,10.28-.35,12.07-4.86,2.04-5.15.87-12.01-7.82-15.68-7.82-3.3-20.98,1.34-24.38,11.17-4.02,11.6,1.07,26.33,20.27,29.71,18.28,3.22,37.89-14.48,52.22-26.21"/>
  </g>
</svg>