<?xml version="1.0" encoding="UTF-8"?>
<svg id="Ebene_2" xmlns="http://www.w3.org/2000/svg" version="1.1" viewBox="0 0 311.81 99.21">
  <!-- Generator: Adobe Illustrator 29.1.0, SVG Export Plug-In . SVG Version: 2.1.0 Build 142)  -->
  <defs>
    <style>
      .st0 {
        fill: none;
        stroke: #1e1e1c;
        stroke-linecap: round;
        stroke-linejoin: round;
        stroke-width: 1.2px;
      }

      .st1 {
        fill: #1d1d1b;
        font-family: Helvetica, Helvetica;
        font-size: 8px;
      }
    </style>
  </defs>
  <text class="st1" transform="translate(108.94 90.79)"><tspan x="0" y="0">27</tspan></text>
  <g id="_x32_7">
    <path class="st0" d="M62.15,42.67c2.05,1.13,3.58,1.14,4.59-.15,1.23-1.58.92-4.18-2.37-5.87-4.49-2.3-10.28.35-12.07,4.86-2.04,5.15-.87,12.01,7.82,15.68,7.82,3.3,20.98-1.34,24.39-11.17,4.02-11.6-1.08-26.33-20.27-29.71-18.28-3.22-37.89,14.48-52.22,26.21"/>
    <path class="st0" d="M62.17,42.71c-2.05-1.13-3.58-1.14-4.59.15-1.23,1.58-.92,4.18,2.37,5.87,4.49,2.3,10.28-.35,12.07-4.86,2.04-5.15.87-12.01-7.82-15.68-7.82-3.3-20.98,1.34-24.39,11.17-4.02,11.6,1.08,26.33,20.27,29.71,18.28,3.22,37.89-14.48,52.22-26.21"/>
    <path class="st0" d="M162.44,42.95c2.05,1.13,3.58,1.14,4.59-.15,1.23-1.58.92-4.18-2.37-5.87-4.49-2.3-10.28.35-12.07,4.86-2.04,5.15-.87,12.01,7.82,15.68,7.82,3.3,20.98-1.34,24.39-11.17,4.02-11.6-1.08-26.33-20.27-29.71-18.28-3.22-37.89,14.48-52.22,26.21"/>
    <path class="st0" d="M162.46,42.99c-2.05-1.13-3.58-1.14-4.59.15-1.23,1.58-.92,4.18,2.37,5.87,4.49,2.3,10.28-.35,12.07-4.86,2.04-5.15.87-12.01-7.82-15.68-7.82-3.3-20.98,1.34-24.38,11.17-4.02,11.6,1.07,26.33,20.27,29.71,18.28,3.22,37.89-14.48,52.22-26.21"/>
  </g>
</svg>