<?xml version="1.0" encoding="UTF-8"?>
<svg id="Ebene_2" xmlns="http://www.w3.org/2000/svg" version="1.1" viewBox="0 0 311.81 85.04">
  <!-- Generator: Adobe Illustrator 29.1.0, SVG Export Plug-In . SVG Version: 2.1.0 Build 142)  -->
  <defs>
    <style>
      .st0 {
        fill: none;
        stroke: #1e1e1c;
        stroke-linecap: round;
        stroke-miterlimit: 10;
        stroke-width: 1.2px;
      }

      .st1 {
        fill: #1d1d1b;
        font-family: Helvetica, Helvetica;
        font-size: 8px;
      }
    </style>
  </defs>
  <text class="st1" transform="translate(101.85 76.62)"><tspan x="0" y="0">28</tspan></text>
  <g id="_x32_8">
    <polyline class="st0" points="14.18 49.6 17.72 49.6 17.72 14.17 67.33 14.17 67.33 42.51 46.07 42.51 46.07 35.43 38.98 35.43 38.98 49.6 70.87 49.6"/>
    <polyline class="st0" points="14.18 56.69 24.81 56.69 24.81 21.25 60.24 21.25 60.24 35.43 53.15 35.43 53.15 28.34 31.89 28.34 31.89 56.69 70.87 56.69"/>
    <polyline class="st0" points="70.87 49.6 74.41 49.6 74.41 14.17 124.02 14.17 124.02 42.51 102.76 42.51 102.76 35.43 95.67 35.43 95.67 49.6 127.56 49.6"/>
    <polyline class="st0" points="70.87 56.69 81.5 56.69 81.5 21.25 116.93 21.25 116.93 35.43 109.85 35.43 109.85 28.34 88.59 28.34 88.59 56.69 127.56 56.69"/>
    <polyline class="st0" points="127.56 49.6 131.11 49.6 131.11 14.17 180.71 14.17 180.71 42.51 159.45 42.51 159.45 35.43 152.37 35.43 152.37 49.6 187.8 49.6 187.8 14.17 198.43 14.17"/>
    <polyline class="st0" points="127.56 56.69 138.19 56.69 138.19 21.25 173.63 21.25 173.63 35.43 166.54 35.43 166.54 28.34 145.28 28.34 145.28 56.69 194.88 56.69 194.88 21.25 198.43 21.25"/>
  </g>
</svg>