<?xml version="1.0" encoding="UTF-8"?>
<svg xmlns="http://www.w3.org/2000/svg" version="1.1" viewBox="0 0 197.89 145.28">
  <!-- Generator: Adobe Illustrator 29.1.0, SVG Export Plug-In . SVG Version: 2.1.0 Build 142)  -->
  <defs>
    <style>
      .st0 {
        stroke-miterlimit: 10;
      }

      .st0, .st1 {
        fill: none;
        stroke: #1d1d1b;
        stroke-linecap: round;
        stroke-width: 1.2px;
      }

      .st1 {
        stroke-linejoin: round;
      }

      .st2 {
        display: none;
      }
    </style>
  </defs>
  <g id="_x33_2" class="st2">
    <path class="st1" d="M7.14,92.29c16.9,0,52.52-42.16,38.52-52.47-12.7-9.35-41.4,25.99-32.1,33.77,11,9.21,31.45-20.99,26.52-25.4-3.74-3.34-12.16,4.33-17.72,14.65-6.25,11.59-5.18,27.77,8.23,27.77s20.79-18.7,13.13-30.16c-8.28-12.39-19.11-20.7-25.13-15.89-4.19,3.35-5.96,8.4,10.12,25.66,8.53,9.16,14.39,16.59,20.64,20.02,2.41,1.32,4.87,2.05,7.57,2.05"/>
    <path class="st1" d="M56.92,92.29c16.9,0,52.52-42.16,38.52-52.47-12.7-9.35-41.4,25.99-32.1,33.77,11,9.21,31.45-20.99,26.52-25.4-3.74-3.34-12.16,4.33-17.72,14.65-6.25,11.59-5.18,27.77,8.23,27.77s20.79-18.7,13.13-30.16c-8.28-12.39-19.11-20.7-25.13-15.89-4.19,3.35-5.95,8.4,10.12,25.66,8.53,9.16,14.39,16.59,20.63,20.02,2.41,1.32,4.87,2.05,7.57,2.05"/>
    <path class="st1" d="M106.69,92.29c16.9,0,52.52-42.16,38.52-52.47-12.7-9.35-41.4,25.99-32.1,33.77,11,9.21,31.45-20.99,26.52-25.4-3.74-3.34-12.16,4.33-17.72,14.65-6.25,11.59-5.18,27.77,8.23,27.77s20.79-18.7,13.13-30.16c-8.28-12.39-19.11-20.7-25.13-15.89-4.19,3.35-5.96,8.4,10.12,25.66,8.53,9.16,14.39,16.59,20.63,20.02,2.41,1.32,4.87,2.05,7.57,2.05"/>
    <path class="st1" d="M156.46,92.29c16.9,0,52.52-42.16,38.52-52.47-12.7-9.35-41.4,25.99-32.1,33.77,11,9.21,31.45-20.99,26.52-25.4-3.74-3.34-12.16,4.33-17.72,14.65-6.25,11.59-5.18,27.77,8.23,27.77s20.79-18.7,13.13-30.16c-8.28-12.39-19.11-20.7-25.13-15.89-4.19,3.35-5.96,8.4,10.12,25.66,8.53,9.16,14.39,16.59,20.63,20.02,2.41,1.32,4.87,2.05,7.57,2.05"/>
  </g>
  <g id="_x33_1" class="st2">
    <path class="st1" d="M7.14,92.29c16.9,0,52.52-42.16,38.52-52.47-12.7-9.35-41.4,25.99-32.1,33.77,11,9.21,31.45-20.99,26.52-25.4-3.74-3.34-12.16,4.33-17.72,14.65-6.25,11.59-5.18,27.77,8.23,27.77s20.79-18.7,13.13-30.16c-8.28-12.39-19.11-20.7-25.13-15.89-4.19,3.35-5.96,8.4,10.12,25.66,8.53,9.16,14.39,16.59,20.64,20.02,2.41,1.32,4.87,2.05,7.57,2.05"/>
    <path class="st1" d="M56.92,92.29c16.9,0,52.52-42.16,38.52-52.47-12.7-9.35-41.4,25.99-32.1,33.77,11,9.21,31.45-20.99,26.52-25.4-3.74-3.34-12.16,4.33-17.72,14.65-6.25,11.59-5.18,27.77,8.23,27.77s20.79-18.7,13.13-30.16c-8.28-12.39-19.11-20.7-25.13-15.89-4.19,3.35-5.95,8.4,10.12,25.66,8.53,9.16,14.39,16.59,20.63,20.02,2.41,1.32,4.87,2.05,7.57,2.05"/>
    <path class="st1" d="M106.69,92.29c16.9,0,52.52-42.16,38.52-52.47-12.7-9.35-41.4,25.99-32.1,33.77,11,9.21,31.45-20.99,26.52-25.4-3.74-3.34-12.16,4.33-17.72,14.65-6.25,11.59-5.18,27.77,8.23,27.77s20.79-18.7,13.13-30.16c-8.28-12.39-19.11-20.7-25.13-15.89-4.19,3.35-5.96,8.4,10.12,25.66,8.53,9.16,14.39,16.59,20.63,20.02,2.41,1.32,4.87,2.05,7.57,2.05"/>
    <path class="st1" d="M156.46,92.29c16.9,0,52.52-42.16,38.52-52.47-12.7-9.35-41.4,25.99-32.1,33.77,11,9.21,31.45-20.99,26.52-25.4-3.74-3.34-12.16,4.33-17.72,14.65-6.25,11.59-5.18,27.77,8.23,27.77s20.79-18.7,13.13-30.16c-8.28-12.39-19.11-20.7-25.13-15.89-4.19,3.35-5.96,8.4,10.12,25.66,8.53,9.16,14.39,16.59,20.63,20.02,2.41,1.32,4.87,2.05,7.57,2.05"/>
  </g>
  <g id="_x33_0" class="st2">
    <polyline class="st0" points="7.09 -14.17 10.63 -14.17 10.63 -49.61 60.24 -49.61 60.24 -21.26 38.98 -21.26 38.98 -28.35 31.89 -28.35 31.89 -14.17 63.78 -14.17"/>
    <polyline class="st0" points="7.09 -7.09 17.72 -7.09 17.72 -42.52 53.15 -42.52 53.15 -28.35 46.06 -28.35 46.06 -35.43 24.8 -35.43 24.8 -7.09 63.78 -7.09"/>
    <polyline class="st0" points="63.78 -14.17 67.32 -14.17 67.32 -49.61 116.93 -49.61 116.93 -21.26 95.67 -21.26 95.67 -28.35 88.58 -28.35 88.58 -14.17 120.47 -14.17"/>
    <polyline class="st0" points="63.78 -7.09 74.41 -7.09 74.41 -42.52 109.84 -42.52 109.84 -28.35 102.76 -28.35 102.76 -35.43 81.5 -35.43 81.5 -7.09 120.47 -7.09"/>
    <polyline class="st0" points="120.47 -14.17 124.02 -14.17 124.02 -49.61 173.62 -49.61 173.62 -21.26 152.36 -21.26 152.36 -28.35 145.28 -28.35 145.28 -14.17 180.71 -14.17 180.71 -49.61 191.34 -49.61"/>
    <polyline class="st0" points="120.47 -7.09 131.1 -7.09 131.1 -42.52 166.54 -42.52 166.54 -28.35 159.45 -28.35 159.45 -35.43 138.19 -35.43 138.19 -7.09 187.79 -7.09 187.79 -42.52 191.34 -42.52"/>
    <polyline class="st0" points="7.09 63.78 35.43 35.43 63.78 63.78 92.13 35.43 120.47 63.78 148.82 35.43 177.17 63.78 205.51 35.43"/>
    <polyline class="st0" points="7.09 92.13 7.09 120.47 63.78 120.47 63.78 92.13 120.47 92.13 120.47 120.47 177.17 120.47 177.17 92.13 205.51 92.13"/>
    <polyline class="st0" points="7.09 148.82 35.43 148.82 63.78 177.17 92.13 177.17 120.47 148.82 148.82 148.82 177.17 177.17 205.51 177.17"/>
    <polyline class="st0" points="7.09 233.86 7.09 205.51 21.26 191.34 35.43 205.51 35.43 233.86 49.61 248.03 63.78 233.86 63.78 205.51 77.95 191.34 92.13 205.51 92.13 233.86 106.3 248.03 120.47 233.86"/>
    <polyline class="st0" points="120.47 233.86 120.47 205.51 134.65 191.34 148.82 205.51 148.82 233.86 162.99 248.03 177.17 233.86 177.17 205.51 191.34 191.34 205.51 205.51 205.51 233.86"/>
  </g>
  <g id="_x32_9">
    <polyline class="st0" points="7.09 63.78 35.43 35.43 63.78 63.78 92.13 35.43 120.47 63.78 148.82 35.43 177.17 63.78 205.51 35.43"/>
  </g>
  <g id="_x32_8" class="st2">
    <polyline class="st0" points="7.09 85.89 10.63 85.89 10.63 50.46 60.24 50.46 60.24 78.8 38.98 78.8 38.98 71.72 31.89 71.72 31.89 85.89 63.78 85.89"/>
    <polyline class="st0" points="7.09 92.98 17.72 92.98 17.72 57.54 53.15 57.54 53.15 71.72 46.06 71.72 46.06 64.63 24.8 64.63 24.8 92.98 63.78 92.98"/>
    <polyline class="st0" points="63.78 85.89 67.32 85.89 67.32 50.46 116.93 50.46 116.93 78.8 95.67 78.8 95.67 71.72 88.58 71.72 88.58 85.89 120.47 85.89"/>
    <polyline class="st0" points="63.78 92.98 74.41 92.98 74.41 57.54 109.84 57.54 109.84 71.72 102.76 71.72 102.76 64.63 81.5 64.63 81.5 92.98 120.47 92.98"/>
    <polyline class="st0" points="120.47 85.89 124.02 85.89 124.02 50.46 173.62 50.46 173.62 78.8 152.36 78.8 152.36 71.72 145.28 71.72 145.28 85.89 180.71 85.89 180.71 50.46 191.34 50.46"/>
    <polyline class="st0" points="120.47 92.98 131.1 92.98 131.1 57.54 166.54 57.54 166.54 71.72 159.45 71.72 159.45 64.63 138.19 64.63 138.19 92.98 187.79 92.98 187.79 57.54 191.34 57.54"/>
  </g>
</svg>