<?xml version="1.0" encoding="UTF-8"?>
<svg xmlns="http://www.w3.org/2000/svg" viewBox="0 0 4270.39 2970.71">
  <defs>
    <style>
      .cls-1 {
        fill: #1d1d1b;
      }

      .cls-2, .cls-3 {
        fill: none;
        stroke: #1d1d1b;
        stroke-miterlimit: 10;
        stroke-width: 12px;
      }

      .cls-3 {
        stroke-linecap: round;
      }
    </style>
  </defs>
  <g id="_295" data-name="295">
    <line class="cls-3" x1="205.74" y1="649.84" x2="956.09" y2="835.51"/>
    <line class="cls-3" x1="312.93" y1="464.17" x2="1063.28" y2="649.84"/>
    <line class="cls-3" x1="848.89" y1="1021.17" x2="634.52" y2="278.51"/>
    <line class="cls-3" x1="634.5" y1="1021.17" x2="420.12" y2="278.52"/>
    <line class="cls-3" x1="848.89" y1="278.52" x2="312.93" y2="835.5"/>
    <line class="cls-3" x1="956.09" y1="464.18" x2="420.12" y2="1021.17"/>
    <line class="cls-3" x1="-437.41" y1="1021.19" x2="312.93" y2="1206.86"/>
    <line class="cls-3" x1="-330.22" y1="835.52" x2="420.12" y2="1021.19"/>
    <line class="cls-3" x1="205.74" y1="1392.52" x2="-8.64" y2="649.86"/>
    <line class="cls-3" x1="205.74" y1="649.87" x2="-330.23" y2="1206.85"/>
    <line class="cls-3" x1="312.94" y1="835.53" x2="-223.03" y2="1392.52"/>
    <line class="cls-3" x1="205.74" y1="-92.85" x2="956.09" y2="92.82"/>
    <line class="cls-3" x1="848.89" y1="278.48" x2="634.52" y2="-464.17"/>
    <line class="cls-3" x1="634.5" y1="278.48" x2="420.12" y2="-464.17"/>
    <line class="cls-3" x1="848.89" y1="-464.17" x2="312.93" y2="92.81"/>
    <line class="cls-3" x1="956.09" y1="-278.5" x2="420.12" y2="278.48"/>
    <line class="cls-3" x1="-437.41" y1="278.5" x2="312.93" y2="464.17"/>
    <line class="cls-3" x1="-330.22" y1="92.83" x2="420.12" y2="278.5"/>
    <line class="cls-3" x1="205.74" y1="649.83" x2="-8.64" y2="-92.83"/>
    <line class="cls-3" x1="205.74" y1="-92.82" x2="-330.23" y2="464.16"/>
    <line class="cls-3" x1="312.94" y1="92.84" x2="-223.03" y2="649.83"/>
    <line class="cls-3" x1="1492.05" y1="649.84" x2="2242.39" y2="835.51"/>
    <line class="cls-3" x1="1599.24" y1="464.17" x2="2349.58" y2="649.84"/>
    <line class="cls-3" x1="2135.2" y1="1021.17" x2="1920.82" y2="278.51"/>
    <line class="cls-3" x1="1920.81" y1="1021.17" x2="1706.43" y2="278.52"/>
    <line class="cls-3" x1="2135.2" y1="278.52" x2="1599.23" y2="835.5"/>
    <line class="cls-3" x1="2242.4" y1="464.18" x2="1706.43" y2="1021.17"/>
    <line class="cls-3" x1="848.89" y1="1021.19" x2="1599.24" y2="1206.86"/>
    <line class="cls-3" x1="956.09" y1="835.52" x2="1706.43" y2="1021.19"/>
    <line class="cls-3" x1="1492.05" y1="1392.52" x2="1277.67" y2="649.86"/>
    <line class="cls-3" x1="1277.66" y1="1392.52" x2="1063.28" y2="649.87"/>
    <line class="cls-3" x1="1492.05" y1="649.87" x2="956.08" y2="1206.85"/>
    <line class="cls-3" x1="1599.24" y1="835.53" x2="1063.28" y2="1392.52"/>
    <line class="cls-3" x1="1492.05" y1="-92.85" x2="2242.39" y2="92.82"/>
    <line class="cls-3" x1="2135.2" y1="278.48" x2="1920.82" y2="-464.17"/>
    <line class="cls-3" x1="1920.81" y1="278.48" x2="1706.43" y2="-464.17"/>
    <line class="cls-3" x1="2135.2" y1="-464.17" x2="1599.23" y2="92.81"/>
    <line class="cls-3" x1="2242.4" y1="-278.5" x2="1706.43" y2="278.48"/>
    <line class="cls-3" x1="848.89" y1="278.5" x2="1599.24" y2="464.17"/>
    <line class="cls-3" x1="956.09" y1="92.83" x2="1706.43" y2="278.5"/>
    <line class="cls-3" x1="1492.05" y1="649.83" x2="1277.67" y2="-92.83"/>
    <line class="cls-3" x1="1277.66" y1="649.83" x2="1063.28" y2="-92.82"/>
    <line class="cls-3" x1="1492.05" y1="-92.82" x2="956.08" y2="464.16"/>
    <line class="cls-3" x1="1599.24" y1="92.84" x2="1063.28" y2="649.83"/>
    <line class="cls-3" x1="2778.35" y1="649.84" x2="3528.7" y2="835.51"/>
    <line class="cls-3" x1="2885.54" y1="464.17" x2="3635.89" y2="649.84"/>
    <line class="cls-3" x1="3421.5" y1="1021.17" x2="3207.13" y2="278.51"/>
    <line class="cls-3" x1="3207.11" y1="1021.17" x2="2992.74" y2="278.52"/>
    <line class="cls-3" x1="3421.5" y1="278.52" x2="2885.54" y2="835.5"/>
    <line class="cls-3" x1="3528.7" y1="464.18" x2="2992.74" y2="1021.17"/>
    <line class="cls-3" x1="2135.2" y1="1021.19" x2="2885.54" y2="1206.86"/>
    <line class="cls-3" x1="2242.39" y1="835.52" x2="2992.74" y2="1021.19"/>
    <line class="cls-3" x1="2778.35" y1="1392.52" x2="2563.97" y2="649.86"/>
    <line class="cls-3" x1="2563.96" y1="1392.52" x2="2349.58" y2="649.87"/>
    <line class="cls-3" x1="2778.35" y1="649.87" x2="2242.38" y2="1206.85"/>
    <line class="cls-3" x1="2885.55" y1="835.53" x2="2349.58" y2="1392.52"/>
    <line class="cls-3" x1="2778.35" y1="-92.85" x2="3528.7" y2="92.82"/>
    <line class="cls-3" x1="3421.5" y1="278.48" x2="3207.13" y2="-464.17"/>
    <line class="cls-3" x1="3207.11" y1="278.48" x2="2992.74" y2="-464.17"/>
    <line class="cls-3" x1="3421.5" y1="-464.17" x2="2885.54" y2="92.81"/>
    <line class="cls-3" x1="3528.7" y1="-278.5" x2="2992.74" y2="278.48"/>
    <line class="cls-3" x1="2135.2" y1="278.5" x2="2885.54" y2="464.17"/>
    <line class="cls-3" x1="2242.39" y1="92.83" x2="2992.74" y2="278.5"/>
    <line class="cls-3" x1="2778.35" y1="649.83" x2="2563.97" y2="-92.83"/>
    <line class="cls-3" x1="2563.96" y1="649.83" x2="2349.58" y2="-92.82"/>
    <line class="cls-3" x1="2778.35" y1="-92.82" x2="2242.38" y2="464.16"/>
    <line class="cls-3" x1="2885.55" y1="92.84" x2="2349.58" y2="649.83"/>
    <line class="cls-3" x1="4064.66" y1="649.84" x2="4815" y2="835.51"/>
    <line class="cls-3" x1="4171.85" y1="464.17" x2="4922.19" y2="649.84"/>
    <line class="cls-3" x1="4707.81" y1="278.52" x2="4171.84" y2="835.5"/>
    <line class="cls-3" x1="3421.5" y1="1021.19" x2="4171.85" y2="1206.86"/>
    <line class="cls-3" x1="3528.7" y1="835.52" x2="4279.04" y2="1021.19"/>
    <line class="cls-3" x1="4064.66" y1="1392.52" x2="3850.28" y2="649.86"/>
    <line class="cls-3" x1="3850.27" y1="1392.52" x2="3635.89" y2="649.87"/>
    <line class="cls-3" x1="4064.66" y1="649.87" x2="3528.69" y2="1206.85"/>
    <line class="cls-3" x1="4171.86" y1="835.53" x2="3635.89" y2="1392.52"/>
    <line class="cls-3" x1="4064.66" y1="-92.85" x2="4815" y2="92.82"/>
    <line class="cls-3" x1="4707.81" y1="-464.17" x2="4171.84" y2="92.81"/>
    <line class="cls-3" x1="3421.5" y1="278.5" x2="4171.85" y2="464.17"/>
    <line class="cls-3" x1="3528.7" y1="92.83" x2="4279.04" y2="278.5"/>
    <line class="cls-3" x1="4064.66" y1="649.83" x2="3850.28" y2="-92.83"/>
    <line class="cls-3" x1="3850.27" y1="649.83" x2="3635.89" y2="-92.82"/>
    <line class="cls-3" x1="4064.66" y1="-92.82" x2="3528.69" y2="464.16"/>
    <line class="cls-3" x1="4171.86" y1="92.84" x2="3635.89" y2="649.83"/>
    <line class="cls-3" x1="205.74" y1="2135.2" x2="956.09" y2="2320.86"/>
    <line class="cls-3" x1="312.93" y1="1949.53" x2="1063.28" y2="2135.2"/>
    <line class="cls-3" x1="848.89" y1="2506.52" x2="634.52" y2="1763.87"/>
    <line class="cls-3" x1="634.5" y1="2506.52" x2="420.12" y2="1763.87"/>
    <line class="cls-3" x1="848.89" y1="1763.87" x2="312.93" y2="2320.85"/>
    <line class="cls-3" x1="956.09" y1="1949.54" x2="420.12" y2="2506.52"/>
    <line class="cls-3" x1="-437.41" y1="2506.54" x2="312.93" y2="2692.21"/>
    <line class="cls-3" x1="-330.22" y1="2320.88" x2="420.12" y2="2506.54"/>
    <line class="cls-3" x1="205.74" y1="2877.87" x2="-8.64" y2="2135.21"/>
    <line class="cls-3" x1="205.74" y1="2135.22" x2="-330.23" y2="2692.2"/>
    <line class="cls-3" x1="312.94" y1="2320.88" x2="-223.03" y2="2877.87"/>
    <line class="cls-3" x1="205.74" y1="1392.51" x2="956.09" y2="1578.18"/>
    <line class="cls-3" x1="312.93" y1="1206.84" x2="1063.28" y2="1392.51"/>
    <line class="cls-3" x1="848.89" y1="1763.83" x2="634.52" y2="1021.18"/>
    <line class="cls-3" x1="634.5" y1="1763.83" x2="420.12" y2="1021.18"/>
    <line class="cls-3" x1="848.89" y1="1021.18" x2="312.93" y2="1578.16"/>
    <line class="cls-3" x1="956.09" y1="1206.85" x2="420.12" y2="1763.83"/>
    <line class="cls-3" x1="-437.41" y1="1763.86" x2="312.93" y2="1949.53"/>
    <line class="cls-3" x1="-330.22" y1="1578.19" x2="420.12" y2="1763.86"/>
    <line class="cls-3" x1="205.74" y1="2135.18" x2="-8.64" y2="1392.53"/>
    <line class="cls-3" x1="205.74" y1="1392.53" x2="-330.23" y2="1949.51"/>
    <line class="cls-3" x1="312.94" y1="1578.2" x2="-223.03" y2="2135.18"/>
    <line class="cls-3" x1="1492.05" y1="2135.2" x2="2242.39" y2="2320.86"/>
    <line class="cls-3" x1="1599.24" y1="1949.53" x2="2349.58" y2="2135.2"/>
    <line class="cls-3" x1="2135.2" y1="2506.52" x2="1920.82" y2="1763.87"/>
    <line class="cls-3" x1="1920.81" y1="2506.52" x2="1706.43" y2="1763.87"/>
    <line class="cls-3" x1="2135.2" y1="1763.87" x2="1599.23" y2="2320.85"/>
    <line class="cls-3" x1="2242.4" y1="1949.54" x2="1706.43" y2="2506.52"/>
    <line class="cls-3" x1="848.89" y1="2506.54" x2="1599.24" y2="2692.21"/>
    <line class="cls-3" x1="956.09" y1="2320.88" x2="1706.43" y2="2506.54"/>
    <line class="cls-3" x1="1492.05" y1="2877.87" x2="1277.67" y2="2135.21"/>
    <line class="cls-3" x1="1277.66" y1="2877.87" x2="1063.28" y2="2135.22"/>
    <line class="cls-3" x1="1492.05" y1="2135.22" x2="956.08" y2="2692.2"/>
    <line class="cls-3" x1="1599.24" y1="2320.88" x2="1063.28" y2="2877.87"/>
    <line class="cls-3" x1="1492.05" y1="1392.51" x2="2242.39" y2="1578.18"/>
    <line class="cls-3" x1="1599.24" y1="1206.84" x2="2349.58" y2="1392.51"/>
    <line class="cls-3" x1="2135.2" y1="1763.83" x2="1920.82" y2="1021.18"/>
    <line class="cls-3" x1="1920.81" y1="1763.83" x2="1706.43" y2="1021.18"/>
    <line class="cls-3" x1="2135.2" y1="1021.18" x2="1599.23" y2="1578.16"/>
    <line class="cls-3" x1="2242.4" y1="1206.85" x2="1706.43" y2="1763.83"/>
    <line class="cls-3" x1="848.89" y1="1763.86" x2="1599.24" y2="1949.53"/>
    <line class="cls-3" x1="956.09" y1="1578.19" x2="1706.43" y2="1763.86"/>
    <line class="cls-3" x1="1492.05" y1="2135.18" x2="1277.67" y2="1392.53"/>
    <line class="cls-3" x1="1277.66" y1="2135.18" x2="1063.28" y2="1392.53"/>
    <line class="cls-3" x1="1492.05" y1="1392.53" x2="956.08" y2="1949.51"/>
    <line class="cls-3" x1="1599.24" y1="1578.2" x2="1063.28" y2="2135.18"/>
    <line class="cls-3" x1="2778.35" y1="2135.2" x2="3528.7" y2="2320.86"/>
    <line class="cls-3" x1="2885.54" y1="1949.53" x2="3635.89" y2="2135.2"/>
    <line class="cls-3" x1="3421.5" y1="2506.52" x2="3207.13" y2="1763.87"/>
    <line class="cls-3" x1="3207.11" y1="2506.52" x2="2992.74" y2="1763.87"/>
    <line class="cls-3" x1="3421.5" y1="1763.87" x2="2885.54" y2="2320.85"/>
    <line class="cls-3" x1="3528.7" y1="1949.54" x2="2992.74" y2="2506.52"/>
    <line class="cls-3" x1="2135.2" y1="2506.54" x2="2885.54" y2="2692.21"/>
    <line class="cls-3" x1="2242.39" y1="2320.88" x2="2992.74" y2="2506.54"/>
    <line class="cls-3" x1="2778.35" y1="2877.87" x2="2563.97" y2="2135.21"/>
    <line class="cls-3" x1="2563.96" y1="2877.87" x2="2349.58" y2="2135.22"/>
    <line class="cls-3" x1="2778.35" y1="2135.22" x2="2242.38" y2="2692.2"/>
    <line class="cls-3" x1="2885.55" y1="2320.88" x2="2349.58" y2="2877.87"/>
    <line class="cls-3" x1="2778.35" y1="1392.51" x2="3528.7" y2="1578.18"/>
    <line class="cls-3" x1="2885.54" y1="1206.84" x2="3635.89" y2="1392.51"/>
    <line class="cls-3" x1="3421.5" y1="1763.83" x2="3207.13" y2="1021.18"/>
    <line class="cls-3" x1="3207.11" y1="1763.83" x2="2992.74" y2="1021.18"/>
    <line class="cls-3" x1="3421.5" y1="1021.18" x2="2885.54" y2="1578.16"/>
    <line class="cls-3" x1="3528.7" y1="1206.85" x2="2992.74" y2="1763.83"/>
    <line class="cls-3" x1="2135.2" y1="1763.86" x2="2885.54" y2="1949.53"/>
    <line class="cls-3" x1="2242.39" y1="1578.19" x2="2992.74" y2="1763.86"/>
    <line class="cls-3" x1="2778.35" y1="2135.18" x2="2563.97" y2="1392.53"/>
    <line class="cls-3" x1="2563.96" y1="2135.18" x2="2349.58" y2="1392.53"/>
    <line class="cls-3" x1="2778.35" y1="1392.53" x2="2242.38" y2="1949.51"/>
    <line class="cls-3" x1="2885.55" y1="1578.2" x2="2349.58" y2="2135.18"/>
    <line class="cls-3" x1="4064.66" y1="2135.2" x2="4815" y2="2320.86"/>
    <line class="cls-3" x1="4171.85" y1="1949.53" x2="4922.19" y2="2135.2"/>
    <line class="cls-3" x1="4707.81" y1="1763.87" x2="4171.84" y2="2320.85"/>
    <line class="cls-3" x1="3421.5" y1="2506.54" x2="4171.85" y2="2692.21"/>
    <line class="cls-3" x1="3528.7" y1="2320.88" x2="4279.04" y2="2506.54"/>
    <line class="cls-3" x1="4064.66" y1="2877.87" x2="3850.28" y2="2135.21"/>
    <line class="cls-3" x1="3850.27" y1="2877.87" x2="3635.89" y2="2135.22"/>
    <line class="cls-3" x1="4064.66" y1="2135.22" x2="3528.69" y2="2692.2"/>
    <line class="cls-3" x1="4171.86" y1="2320.88" x2="3635.89" y2="2877.87"/>
    <line class="cls-3" x1="4064.66" y1="1392.51" x2="4815" y2="1578.18"/>
    <line class="cls-3" x1="4171.85" y1="1206.84" x2="4922.19" y2="1392.51"/>
    <line class="cls-3" x1="4707.81" y1="1021.18" x2="4171.84" y2="1578.16"/>
    <line class="cls-3" x1="3421.5" y1="1763.86" x2="4171.85" y2="1949.53"/>
    <line class="cls-3" x1="3528.7" y1="1578.19" x2="4279.04" y2="1763.86"/>
    <line class="cls-3" x1="4064.66" y1="2135.18" x2="3850.28" y2="1392.53"/>
    <line class="cls-3" x1="3850.27" y1="2135.18" x2="3635.89" y2="1392.53"/>
    <line class="cls-3" x1="4064.66" y1="1392.53" x2="3528.69" y2="1949.51"/>
    <line class="cls-3" x1="4171.86" y1="1578.2" x2="3635.89" y2="2135.18"/>
    <line class="cls-3" x1="205.74" y1="2877.86" x2="956.09" y2="3063.53"/>
    <line class="cls-3" x1="312.93" y1="2692.19" x2="1063.28" y2="2877.86"/>
    <line class="cls-3" x1="848.89" y1="3249.18" x2="634.52" y2="2506.53"/>
    <line class="cls-3" x1="634.5" y1="3249.19" x2="420.12" y2="2506.53"/>
    <line class="cls-3" x1="848.89" y1="2506.53" x2="312.93" y2="3063.52"/>
    <line class="cls-3" x1="956.09" y1="2692.2" x2="420.12" y2="3249.18"/>
    <line class="cls-3" x1="205.74" y1="3620.53" x2="-8.64" y2="2877.88"/>
    <line class="cls-3" x1="205.74" y1="2877.88" x2="-330.23" y2="3434.87"/>
    <line class="cls-3" x1="1492.05" y1="2877.86" x2="2242.39" y2="3063.53"/>
    <line class="cls-3" x1="1599.24" y1="2692.19" x2="2349.58" y2="2877.86"/>
    <line class="cls-3" x1="2135.2" y1="3249.18" x2="1920.82" y2="2506.53"/>
    <line class="cls-3" x1="1920.81" y1="3249.19" x2="1706.43" y2="2506.53"/>
    <line class="cls-3" x1="2135.2" y1="2506.53" x2="1599.23" y2="3063.52"/>
    <line class="cls-3" x1="2242.4" y1="2692.2" x2="1706.43" y2="3249.18"/>
    <line class="cls-3" x1="1492.05" y1="3620.53" x2="1277.67" y2="2877.88"/>
    <line class="cls-3" x1="1277.66" y1="3620.54" x2="1063.28" y2="2877.88"/>
    <line class="cls-3" x1="1492.05" y1="2877.88" x2="956.08" y2="3434.87"/>
    <line class="cls-3" x1="2778.35" y1="2877.86" x2="3528.7" y2="3063.53"/>
    <line class="cls-3" x1="2885.54" y1="2692.19" x2="3635.89" y2="2877.86"/>
    <line class="cls-3" x1="3421.5" y1="3249.18" x2="3207.13" y2="2506.53"/>
    <line class="cls-3" x1="3207.11" y1="3249.19" x2="2992.74" y2="2506.53"/>
    <line class="cls-3" x1="3421.5" y1="2506.53" x2="2885.54" y2="3063.52"/>
    <line class="cls-3" x1="3528.7" y1="2692.2" x2="2992.74" y2="3249.18"/>
    <line class="cls-3" x1="2778.35" y1="3620.53" x2="2563.97" y2="2877.88"/>
    <line class="cls-3" x1="2563.96" y1="3620.54" x2="2349.58" y2="2877.88"/>
    <line class="cls-3" x1="2778.35" y1="2877.88" x2="2242.38" y2="3434.87"/>
    <line class="cls-3" x1="4064.66" y1="2877.86" x2="4815" y2="3063.53"/>
    <line class="cls-3" x1="4171.85" y1="2692.19" x2="4922.19" y2="2877.86"/>
    <line class="cls-3" x1="4707.81" y1="2506.53" x2="4171.84" y2="3063.52"/>
    <line class="cls-3" x1="4064.66" y1="3620.53" x2="3850.28" y2="2877.88"/>
    <line class="cls-3" x1="3850.27" y1="3620.54" x2="3635.89" y2="2877.88"/>
    <line class="cls-3" x1="4064.66" y1="2877.88" x2="3528.69" y2="3434.87"/>
  </g>
  <g id="_2._Sechseck" data-name="2. Sechseck">
    <circle class="cls-1" cx="527.33" cy="464.17" r="21.26"/>
    <circle class="cls-1" cx="312.94" cy="464.17" r="21.26"/>
    <circle class="cls-1" cx="741.71" cy="464.17" r="21.26"/>
    <circle class="cls-1" cx="956.09" cy="464.17" r="21.26"/>
    <circle class="cls-1" cx="527.33" cy="835.51" r="21.26" transform="translate(-407.6818 1154.7438) rotate(-76.5933)"/>
    <circle class="cls-1" cx="312.94" cy="835.51" r="21.26" transform="translate(-572.36 946.2) rotate(-76.59)"/>
    <circle class="cls-1" cx="741.71" cy="835.51" r="21.26" transform="translate(-373.55 769.18) rotate(-45)"/>
    <circle class="cls-1" cx="956.09" cy="835.51" r="21.26" transform="translate(-274.76 523.75) rotate(-26.94)"/>
    <circle class="cls-1" cx="420.13" cy="278.5" r="21.26" transform="translate(-52.22 454.45) rotate(-53.97)"/>
    <circle class="cls-1" cx="848.9" cy="278.5" r="21.26" transform="translate(384.4376 1041.7007) rotate(-76.8395)"/>
    <circle class="cls-1" cx="634.52" cy="278.5" r="21.26" transform="translate(-11.08 530.24) rotate(-45)"/>
    <circle class="cls-1" cx="420.13" cy="1021.18" r="21.26"/>
    <circle class="cls-1" cx="848.9" cy="1021.18" r="21.26"/>
    <circle class="cls-1" cx="634.52" cy="1021.18" r="21.26"/>
    <circle class="cls-1" cx="420.13" cy="649.84" r="21.26" transform="translate(-352.52 607.37) rotate(-53.97)"/>
    <circle class="cls-1" cx="205.75" cy="649.84" r="21.26" transform="translate(-222.61 119.62) rotate(-21.37)"/>
    <circle class="cls-1" cx="1063.29" cy="649.84" r="21.26" transform="translate(-167.75 456.37) rotate(-22.5)"/>
    <circle class="cls-1" cx="848.9" cy="649.84" r="21.26" transform="translate(22.8515 1328.4927) rotate(-76.8395)"/>
  </g>
  <g id="Rahmen">
    <rect class="cls-2" x="0" width="4270.39" height="2970.71"/>
  </g>
</svg>