<?xml version="1.0" encoding="UTF-8"?>
<svg xmlns="http://www.w3.org/2000/svg" version="1.1" viewBox="0 0 197.89 145.28">
  <!-- Generator: Adobe Illustrator 29.1.0, SVG Export Plug-In . SVG Version: 2.1.0 Build 142)  -->
  <defs>
    <style>
      .st0 {
        stroke-miterlimit: 10;
      }

      .st0, .st1 {
        fill: none;
        stroke: #1d1d1b;
        stroke-linecap: round;
        stroke-width: 1.2px;
      }

      .st1 {
        stroke-linejoin: round;
      }

      .st2 {
        display: none;
      }
    </style>
  </defs>
  <g id="_x33_2" class="st2">
    <path class="st1" d="M7.14,92.29c16.9,0,52.52-42.16,38.52-52.47-12.7-9.35-41.4,25.99-32.1,33.77,11,9.21,31.45-20.99,26.52-25.4-3.74-3.34-12.16,4.33-17.72,14.65-6.25,11.59-5.18,27.77,8.23,27.77s20.79-18.7,13.13-30.16c-8.28-12.39-19.11-20.7-25.13-15.89-4.19,3.35-5.96,8.4,10.12,25.66,8.53,9.16,14.39,16.59,20.64,20.02,2.41,1.32,4.87,2.05,7.57,2.05"/>
    <path class="st1" d="M56.92,92.29c16.9,0,52.52-42.16,38.52-52.47-12.7-9.35-41.4,25.99-32.1,33.77,11,9.21,31.45-20.99,26.52-25.4-3.74-3.34-12.16,4.33-17.72,14.65-6.25,11.59-5.18,27.77,8.23,27.77s20.79-18.7,13.13-30.16c-8.28-12.39-19.11-20.7-25.13-15.89-4.19,3.35-5.95,8.4,10.12,25.66,8.53,9.16,14.39,16.59,20.63,20.02,2.41,1.32,4.87,2.05,7.57,2.05"/>
    <path class="st1" d="M106.69,92.29c16.9,0,52.52-42.16,38.52-52.47-12.7-9.35-41.4,25.99-32.1,33.77,11,9.21,31.45-20.99,26.52-25.4-3.74-3.34-12.16,4.33-17.72,14.65-6.25,11.59-5.18,27.77,8.23,27.77s20.79-18.7,13.13-30.16c-8.28-12.39-19.11-20.7-25.13-15.89-4.19,3.35-5.96,8.4,10.12,25.66,8.53,9.16,14.39,16.59,20.63,20.02,2.41,1.32,4.87,2.05,7.57,2.05"/>
    <path class="st1" d="M156.46,92.29c16.9,0,52.52-42.16,38.52-52.47-12.7-9.35-41.4,25.99-32.1,33.77,11,9.21,31.45-20.99,26.52-25.4-3.74-3.34-12.16,4.33-17.72,14.65-6.25,11.59-5.18,27.77,8.23,27.77s20.79-18.7,13.13-30.16c-8.28-12.39-19.11-20.7-25.13-15.89-4.19,3.35-5.96,8.4,10.12,25.66,8.53,9.16,14.39,16.59,20.63,20.02,2.41,1.32,4.87,2.05,7.57,2.05"/>
  </g>
  <g id="_x33_1" class="st2">
    <path class="st1" d="M7.14,92.29c16.9,0,52.52-42.16,38.52-52.47-12.7-9.35-41.4,25.99-32.1,33.77,11,9.21,31.45-20.99,26.52-25.4-3.74-3.34-12.16,4.33-17.72,14.65-6.25,11.59-5.18,27.77,8.23,27.77s20.79-18.7,13.13-30.16c-8.28-12.39-19.11-20.7-25.13-15.89-4.19,3.35-5.96,8.4,10.12,25.66,8.53,9.16,14.39,16.59,20.64,20.02,2.41,1.32,4.87,2.05,7.57,2.05"/>
    <path class="st1" d="M56.92,92.29c16.9,0,52.52-42.16,38.52-52.47-12.7-9.35-41.4,25.99-32.1,33.77,11,9.21,31.45-20.99,26.52-25.4-3.74-3.34-12.16,4.33-17.72,14.65-6.25,11.59-5.18,27.77,8.23,27.77s20.79-18.7,13.13-30.16c-8.28-12.39-19.11-20.7-25.13-15.89-4.19,3.35-5.95,8.4,10.12,25.66,8.53,9.16,14.39,16.59,20.63,20.02,2.41,1.32,4.87,2.05,7.57,2.05"/>
    <path class="st1" d="M106.69,92.29c16.9,0,52.52-42.16,38.52-52.47-12.7-9.35-41.4,25.99-32.1,33.77,11,9.21,31.45-20.99,26.52-25.4-3.74-3.34-12.16,4.33-17.72,14.65-6.25,11.59-5.18,27.77,8.23,27.77s20.79-18.7,13.13-30.16c-8.28-12.39-19.11-20.7-25.13-15.89-4.19,3.35-5.96,8.4,10.12,25.66,8.53,9.16,14.39,16.59,20.63,20.02,2.41,1.32,4.87,2.05,7.57,2.05"/>
    <path class="st1" d="M156.46,92.29c16.9,0,52.52-42.16,38.52-52.47-12.7-9.35-41.4,25.99-32.1,33.77,11,9.21,31.45-20.99,26.52-25.4-3.74-3.34-12.16,4.33-17.72,14.65-6.25,11.59-5.18,27.77,8.23,27.77s20.79-18.7,13.13-30.16c-8.28-12.39-19.11-20.7-25.13-15.89-4.19,3.35-5.96,8.4,10.12,25.66,8.53,9.16,14.39,16.59,20.63,20.02,2.41,1.32,4.87,2.05,7.57,2.05"/>
  </g>
  <g id="_x33_0">
    <polyline class="st0" points="7.09 92.13 7.09 120.47 63.78 120.47 63.78 92.13 120.47 92.13 120.47 120.47 177.17 120.47 177.17 92.13 205.51 92.13"/>
  </g>
  <g id="_x32_9" class="st2">
    <polyline class="st0" points="7.09 63.78 35.43 35.43 63.78 63.78 92.13 35.43 120.47 63.78 148.82 35.43 177.17 63.78 205.51 35.43"/>
  </g>
  <g id="_x32_8" class="st2">
    <polyline class="st0" points="7.09 85.89 10.63 85.89 10.63 50.46 60.24 50.46 60.24 78.8 38.98 78.8 38.98 71.72 31.89 71.72 31.89 85.89 63.78 85.89"/>
    <polyline class="st0" points="7.09 92.98 17.72 92.98 17.72 57.54 53.15 57.54 53.15 71.72 46.06 71.72 46.06 64.63 24.8 64.63 24.8 92.98 63.78 92.98"/>
    <polyline class="st0" points="63.78 85.89 67.32 85.89 67.32 50.46 116.93 50.46 116.93 78.8 95.67 78.8 95.67 71.72 88.58 71.72 88.58 85.89 120.47 85.89"/>
    <polyline class="st0" points="63.78 92.98 74.41 92.98 74.41 57.54 109.84 57.54 109.84 71.72 102.76 71.72 102.76 64.63 81.5 64.63 81.5 92.98 120.47 92.98"/>
    <polyline class="st0" points="120.47 85.89 124.02 85.89 124.02 50.46 173.62 50.46 173.62 78.8 152.36 78.8 152.36 71.72 145.28 71.72 145.28 85.89 180.71 85.89 180.71 50.46 191.34 50.46"/>
    <polyline class="st0" points="120.47 92.98 131.1 92.98 131.1 57.54 166.54 57.54 166.54 71.72 159.45 71.72 159.45 64.63 138.19 64.63 138.19 92.98 187.79 92.98 187.79 57.54 191.34 57.54"/>
  </g>
</svg>