<?xml version="1.0" encoding="UTF-8"?>
<svg id="Ebene_2" xmlns="http://www.w3.org/2000/svg" version="1.1" viewBox="0 0 311.81 99.21">
  <!-- Generator: Adobe Illustrator 29.1.0, SVG Export Plug-In . SVG Version: 2.1.0 Build 142)  -->
  <defs>
    <style>
      .st0 {
        fill: none;
        stroke: #1e1e1c;
        stroke-linecap: round;
        stroke-linejoin: round;
        stroke-width: 1.2px;
      }

      .st1 {
        fill: #1d1d1b;
        font-family: Helvetica, Helvetica;
        font-size: 8px;
      }
    </style>
  </defs>
  <text class="st1" transform="translate(108.94 90.79)"><tspan x="0" y="0">33</tspan></text>
  <g id="_x33_3">
    <path class="st0" d="M13.51,70.87c16.9,0,52.52-42.16,38.52-52.47-12.7-9.35-41.4,25.99-32.1,33.77,11,9.21,31.45-20.99,26.52-25.4-3.74-3.34-12.16,4.33-17.72,14.65-6.25,11.59-5.18,27.77,8.23,27.77s20.79-18.7,13.13-30.16c-8.28-12.39-19.11-20.7-25.13-15.89-4.19,3.35-5.96,8.4,10.12,25.66,8.53,9.16,14.39,16.59,20.64,20.02,2.41,1.32,4.87,2.05,7.57,2.05"/>
    <path class="st0" d="M63.29,70.87c16.9,0,52.52-42.16,38.52-52.47-12.7-9.35-41.4,25.99-32.1,33.77,11,9.21,31.45-20.99,26.52-25.4-3.74-3.34-12.16,4.33-17.72,14.65-6.25,11.59-5.18,27.77,8.23,27.77s20.79-18.7,13.13-30.16c-8.28-12.39-19.11-20.7-25.13-15.89-4.19,3.35-5.95,8.4,10.12,25.66,8.53,9.16,14.39,16.59,20.63,20.02,2.41,1.32,4.87,2.05,7.57,2.05"/>
    <path class="st0" d="M113.06,70.87c16.9,0,52.52-42.16,38.52-52.47-12.7-9.35-41.4,25.99-32.1,33.77,11,9.21,31.45-20.99,26.52-25.4-3.74-3.34-12.16,4.33-17.72,14.65-6.25,11.59-5.18,27.77,8.23,27.77s20.79-18.7,13.13-30.16c-8.28-12.39-19.11-20.7-25.13-15.89-4.19,3.35-5.96,8.4,10.12,25.66,8.53,9.16,14.39,16.59,20.63,20.02,2.41,1.32,4.87,2.05,7.57,2.05"/>
    <path class="st0" d="M162.83,70.87c16.9,0,52.52-42.16,38.52-52.47-12.7-9.35-41.4,25.99-32.1,33.77,11,9.21,31.45-20.99,26.52-25.4-3.74-3.34-12.16,4.33-17.72,14.65-6.25,11.59-5.18,27.77,8.23,27.77s20.79-18.7,13.13-30.16c-8.28-12.39-19.11-20.7-25.13-15.89-4.19,3.35-5.96,8.4,10.12,25.66,8.53,9.16,14.39,16.59,20.63,20.02,2.41,1.32,4.87,2.05,7.57,2.05"/>
  </g>
</svg>