<?xml version="1.0" encoding="UTF-8"?>
<svg xmlns="http://www.w3.org/2000/svg" version="1.1" viewBox="0 0 311.81 172.65">
  <!-- Generator: Adobe Illustrator 29.1.0, SVG Export Plug-In . SVG Version: 2.1.0 Build 142)  -->
  <defs>
    <style>
      .st0 {
        fill: none;
        stroke: #1d1d1b;
        stroke-linecap: round;
        stroke-miterlimit: 10;
        stroke-width: 1.2px;
      }

      .st1 {
        display: none;
      }
    </style>
  </defs>
  <g id="_x30_.666" class="st1">
    <line class="st0" x1="0" y1="104.31" x2="311.81" y2="104.31"/>
    <line class="st0" x1="0" y1="123.19" x2="311.81" y2="123.19"/>
    <line class="st0" x1="0" y1="135.76" x2="311.81" y2="135.76"/>
    <line class="st0" x1="0" y1="144.13" x2="311.81" y2="144.13"/>
    <line class="st0" x1="0" y1="149.71" x2="311.81" y2="149.71"/>
    <line class="st0" x1="0" y1="153.42" x2="311.81" y2="153.42"/>
    <line class="st0" x1="0" y1="75.96" x2="311.81" y2="75.96"/>
  </g>
  <g id="_x30_.7" class="st1">
    <line class="st0" x1="0" y1="104.31" x2="311.81" y2="104.31"/>
    <line class="st0" x1="0" y1="124.15" x2="311.81" y2="124.15"/>
    <line class="st0" x1="0" y1="138.04" x2="311.81" y2="138.04"/>
    <line class="st0" x1="0" y1="147.76" x2="311.81" y2="147.76"/>
    <line class="st0" x1="0" y1="154.57" x2="311.81" y2="154.57"/>
    <line class="st0" x1="0" y1="159.33" x2="311.81" y2="159.33"/>
    <line class="st0" x1="0" y1="162.67" x2="311.81" y2="162.67"/>
    <line class="st0" x1="0" y1="165" x2="311.81" y2="165"/>
    <line class="st0" x1="0" y1="75.96" x2="311.81" y2="75.96"/>
    <line class="st0" x1="0" y1="35.48" x2="311.81" y2="35.48"/>
  </g>
  <g id="_x30_.75" class="st1">
    <line class="st0" x1="0" y1="46.85" x2="311.81" y2="46.85"/>
    <line class="st0" x1="0" y1="68.11" x2="311.81" y2="68.11"/>
    <line class="st0" x1="0" y1="84.05" x2="311.81" y2="84.05"/>
    <line class="st0" x1="0" y1="96.01" x2="311.81" y2="96.01"/>
    <line class="st0" x1="0" y1="104.98" x2="311.81" y2="104.98"/>
    <line class="st0" x1="0" y1="111.71" x2="311.81" y2="111.71"/>
    <line class="st0" x1="0" y1="116.75" x2="311.81" y2="116.75"/>
    <line class="st0" x1="0" y1="120.53" x2="311.81" y2="120.53"/>
    <line class="st0" x1="0" y1="123.37" x2="311.81" y2="123.37"/>
    <line class="st0" x1="0" y1="18.5" x2="311.81" y2="18.5"/>
  </g>
  <g id="_x30_.8">
    <line class="st0" x1="0" y1="59.27" x2="311.81" y2="59.27"/>
    <line class="st0" x1="0" y1="81.95" x2="311.81" y2="81.95"/>
    <line class="st0" x1="0" y1="100.09" x2="311.81" y2="100.09"/>
    <line class="st0" x1="0" y1="114.6" x2="311.81" y2="114.6"/>
    <line class="st0" x1="0" y1="126.21" x2="311.81" y2="126.21"/>
    <line class="st0" x1="0" y1="135.5" x2="311.81" y2="135.5"/>
    <line class="st0" x1="0" y1="142.93" x2="311.81" y2="142.93"/>
    <line class="st0" x1="0" y1="148.88" x2="311.81" y2="148.88"/>
    <line class="st0" x1="0" y1="153.63" x2="311.81" y2="153.63"/>
    <line class="st0" x1="0" y1="157.44" x2="311.81" y2="157.44"/>
    <line class="st0" x1="0" y1="30.92" x2="311.81" y2="30.92"/>
  </g>
</svg>