<?xml version="1.0" encoding="UTF-8"?>
<svg id="Ebene_2" xmlns="http://www.w3.org/2000/svg" version="1.1" viewBox="0 0 311.81 113.39">
  <!-- Generator: Adobe Illustrator 29.1.0, SVG Export Plug-In . SVG Version: 2.1.0 Build 142)  -->
  <defs>
    <style>
      .st0 {
        fill: none;
        stroke: #1e1e1c;
        stroke-linecap: round;
        stroke-linejoin: round;
        stroke-width: .9px;
      }

      .st1 {
        fill: #1d1d1b;
        font-family: Helvetica, Helvetica;
        font-size: 8px;
      }
    </style>
  </defs>
  <text class="st1" transform="translate(151.46 104.96)"><tspan x="0" y="0">37</tspan></text>
  <g id="Ebene_3">
    <g>
      <path class="st0" d="M198.38,21.35h0c-31.89,0-53.15,56.69-85.04,56.69S60.19,21.35,28.3,21.35"/>
      <path class="st0" d="M198.38,19.55h0c-31.89,0-53.15,43.41-85.04,43.41S60.19,19.55,28.3,19.55"/>
      <path class="st0" d="M198.38,17.76h0"/>
      <path class="st0" d="M198.38,17.76c-31.89,0-53.15,30.12-85.04,30.12S60.19,17.76,28.3,17.76"/>
      <path class="st0" d="M28.3,15.97c31.89,0,53.15,16.83,85.04,16.83s53.15-16.83,85.04-16.83h0"/>
      <path class="st0" d="M198.38,14.17h0c-31.89,0-53.15,3.54-85.04,3.54s-53.15-3.54-85.04-3.54"/>
      <path class="st0" d="M198.42,36.38h0c-31.89,0-53.15,43.4-85.04,43.4S60.23,36.38,28.34,36.38"/>
      <path class="st0" d="M198.42,51.42c-31.89,0-53.15,30.12-85.04,30.12s-53.15-30.12-85.04-30.12"/>
      <path class="st0" d="M198.42,66.46c-31.89,0-53.15,16.83-85.04,16.83s-53.15-16.83-85.04-16.83"/>
      <path class="st0" d="M198.42,81.5c-31.89,0-53.15,3.54-85.04,3.54s-53.15-3.54-85.04-3.54"/>
      <path class="st0" d="M28.3,21.35h0c-4.94,0-9.62,1.36-14.13,3.66"/>
      <path class="st0" d="M14.17,22.36c4.51-1.76,9.19-2.8,14.13-2.8h0"/>
      <path class="st0" d="M14.17,19.71c4.51-1.22,9.19-1.95,14.13-1.95"/>
      <path class="st0" d="M28.3,17.76h0"/>
      <path class="st0" d="M28.3,15.97h0c-4.94,0-9.62.4-14.13,1.09"/>
      <path class="st0" d="M28.3,14.17h0c-4.94,0-9.62.08-14.13.23"/>
      <path class="st0" d="M14.17,39.2c4.52-1.77,9.22-2.82,14.17-2.82h0"/>
      <path class="st0" d="M14.17,53.38c4.52-1.23,9.22-1.96,14.17-1.96"/>
      <path class="st0" d="M14.17,67.55c4.52-.69,9.22-1.09,14.17-1.09"/>
      <path class="st0" d="M14.17,81.73c4.52-.14,9.22-.23,14.17-.23"/>
      <path class="st0" d="M198.38,21.35c31.89,0,53.15,56.69,85.04,56.69,4.97,0,9.68-1.38,14.22-3.7"/>
      <path class="st0" d="M198.38,19.55c31.89,0,53.15,43.41,85.04,43.41,4.97,0,9.68-1.06,14.22-2.84"/>
      <path class="st0" d="M198.38,17.76c31.89,0,53.15,30.12,85.04,30.12,4.97,0,9.68-.73,14.22-1.97"/>
      <path class="st0" d="M198.38,15.97c31.89,0,53.15,16.83,85.04,16.83,4.97,0,9.68-.41,14.22-1.1"/>
      <path class="st0" d="M198.38,14.17c31.89,0,53.15,3.54,85.04,3.54,4.97,0,9.68-.09,14.22-.23"/>
      <path class="st0" d="M198.42,36.38c31.89,0,53.15,43.4,85.04,43.4,4.96,0,9.65-1.05,14.17-2.82"/>
      <path class="st0" d="M198.42,51.42c31.89,0,53.15,30.12,85.04,30.12,4.96,0,9.65-.73,14.17-1.96"/>
      <path class="st0" d="M198.42,66.46c31.89,0,53.15,16.83,85.04,16.83,4.96,0,9.65-.41,14.17-1.09"/>
      <path class="st0" d="M297.63,84.81c-4.52.14-9.22.23-14.17.23-31.89,0-53.15-3.54-85.04-3.54"/>
    </g>
  </g>
</svg>