<?xml version="1.0" encoding="UTF-8"?>
<svg xmlns="http://www.w3.org/2000/svg" version="1.1" viewBox="0 0 340.2 101.54">
  <!-- Generator: Adobe Illustrator 29.1.0, SVG Export Plug-In . SVG Version: 2.1.0 Build 142)  -->
  <defs>
    <style>
      .st0 {
        stroke-width: .6px;
      }

      .st0, .st1 {
        stroke-miterlimit: 10;
      }

      .st0, .st1, .st2 {
        fill: none;
        stroke: #1d1d1b;
        stroke-linecap: round;
      }

      .st1 {
        stroke-width: 1.2px;
      }

      .st2 {
        stroke-linejoin: round;
        stroke-width: .9px;
      }

      .st3 {
        display: none;
      }
    </style>
  </defs>
  <g id="Skala" class="st3">
    <path class="st0" d="M85.08,56.69c0,15.66-12.69,28.35-28.35,28.35s-28.35-12.69-28.35-28.35,12.69-28.35,28.35-28.35,28.35,12.69,28.35,28.35Z"/>
    <line class="st0" x1="56.74" y1="28.35" x2="56.74" y2="85.04"/>
    <line class="st0" x1="28.39" y1="56.69" x2="311.85" y2="56.69"/>
    <line class="st0" x1="56.74" y1="28.35" x2="311.85" y2="28.35"/>
    <line class="st0" x1="42.56" y1="31.89" x2="311.85" y2="31.89"/>
    <line class="st0" x1="31.93" y1="42.52" x2="311.85" y2="42.52"/>
    <line class="st0" x1="31.93" y1="70.87" x2="311.85" y2="70.87"/>
    <line class="st0" x1="42.56" y1="81.5" x2="311.85" y2="81.5"/>
    <line class="st0" x1="56.74" y1="85.04" x2="311.85" y2="85.04"/>
    <line class="st0" x1="32.19" y1="70.87" x2="56.74" y2="56.69"/>
    <line class="st0" x1="42.56" y1="81.24" x2="56.74" y2="56.69"/>
    <line class="st0" x1="56.74" y1="56.69" x2="42.56" y2="32.15"/>
    <line class="st0" x1="56.74" y1="56.69" x2="32.19" y2="42.52"/>
    <line class="st0" x1="70.91" y1="42.52" x2="70.91" y2="56.69"/>
    <line class="st0" x1="85.08" y1="31.89" x2="85.08" y2="56.69"/>
    <line class="st0" x1="99.26" y1="28.35" x2="99.26" y2="56.69"/>
    <line class="st0" x1="113.43" y1="31.89" x2="113.43" y2="56.69"/>
    <line class="st0" x1="127.6" y1="42.52" x2="127.6" y2="56.69"/>
    <line class="st0" x1="240.99" y1="42.52" x2="240.99" y2="56.69"/>
    <line class="st0" x1="255.16" y1="31.89" x2="255.16" y2="56.69"/>
    <line class="st0" x1="269.33" y1="28.35" x2="269.33" y2="56.69"/>
    <line class="st0" x1="283.51" y1="31.89" x2="283.51" y2="56.69"/>
    <line class="st0" x1="297.68" y1="42.52" x2="297.68" y2="56.69"/>
    <line class="st0" x1="212.64" y1="70.87" x2="212.64" y2="56.69"/>
    <line class="st0" x1="198.47" y1="81.5" x2="198.47" y2="56.69"/>
    <line class="st0" x1="184.29" y1="85.04" x2="184.29" y2="56.69"/>
    <line class="st0" x1="170.12" y1="81.5" x2="170.12" y2="56.69"/>
    <line class="st0" x1="155.95" y1="70.87" x2="155.95" y2="56.69"/>
  </g>
  <g id="Kurve" class="st3">
    <g>
      <path class="st1" d="M212.6,21.35h0c-31.89,0-53.15,56.69-85.04,56.69S74.41,21.35,42.52,21.35"/>
      <path class="st1" d="M212.6,19.55h0c-31.89,0-53.15,43.41-85.04,43.41S74.41,19.55,42.52,19.55"/>
      <path class="st1" d="M212.6,17.76h0c-31.89,0-53.15,30.12-85.04,30.12s-53.15-30.12-85.04-30.12"/>
      <path class="st1" d="M212.6,15.97h0c-31.89,0-53.15,16.83-85.04,16.83S74.41,15.97,42.52,15.97"/>
      <path class="st1" d="M212.6,14.17h0c-31.89,0-53.15,3.54-85.04,3.54s-53.15-3.54-85.04-3.54"/>
    </g>
    <g>
      <path class="st1" d="M212.64,36.38h0c-31.89,0-53.15,43.4-85.04,43.4s-53.15-43.4-85.04-43.4"/>
      <path class="st1" d="M212.64,51.42h0c-31.89,0-53.15,30.12-85.04,30.12s-53.15-30.12-85.04-30.12"/>
      <path class="st1" d="M212.64,66.46h0c-31.89,0-53.15,16.83-85.04,16.83s-53.15-16.83-85.04-16.83"/>
      <path class="st1" d="M212.64,81.5h0c-31.89,0-53.15,3.54-85.04,3.54s-53.15-3.54-85.04-3.54"/>
    </g>
    <g>
      <path class="st1" d="M42.52,21.35h0c-31.89,0-53.15,56.69-85.04,56.69S-95.67,21.35-127.56,21.35"/>
      <path class="st1" d="M42.52,19.55h0c-31.89,0-53.15,43.41-85.04,43.41S-95.67,19.55-127.56,19.55"/>
      <path class="st1" d="M42.52,17.76h0c-31.89,0-53.15,30.12-85.04,30.12s-53.15-30.12-85.04-30.12"/>
      <path class="st1" d="M42.52,15.97h0c-31.89,0-53.15,16.83-85.04,16.83S-95.67,15.97-127.56,15.97"/>
      <path class="st1" d="M42.52,14.17h0c-31.89,0-53.15,3.54-85.04,3.54s-53.15-3.54-85.04-3.54"/>
    </g>
    <g>
      <path class="st1" d="M42.56,36.38h0c-31.89,0-53.15,43.4-85.04,43.4s-53.15-43.4-85.04-43.4"/>
      <path class="st1" d="M42.56,51.42h0c-31.89,0-53.15,30.12-85.04,30.12s-53.15-30.12-85.04-30.12"/>
      <path class="st1" d="M42.56,66.46h0c-31.89,0-53.15,16.83-85.04,16.83s-53.15-16.83-85.04-16.83"/>
      <path class="st1" d="M42.56,81.5h0c-31.89,0-53.15,3.54-85.04,3.54s-53.15-3.54-85.04-3.54"/>
    </g>
    <g>
      <path class="st1" d="M382.68,21.35h0c-31.89,0-53.15,56.69-85.04,56.69s-53.15-56.69-85.04-56.69"/>
      <path class="st1" d="M382.68,19.55h0c-31.89,0-53.15,43.41-85.04,43.41s-53.15-43.41-85.04-43.41"/>
      <path class="st1" d="M382.68,17.76h0c-31.89,0-53.15,30.12-85.04,30.12s-53.15-30.12-85.04-30.12"/>
      <path class="st1" d="M382.68,15.97h0c-31.89,0-53.15,16.83-85.04,16.83s-53.15-16.83-85.04-16.83"/>
      <path class="st1" d="M382.68,14.17h0c-31.89,0-53.15,3.54-85.04,3.54s-53.15-3.54-85.04-3.54"/>
    </g>
    <g>
      <path class="st1" d="M382.72,36.38h0c-31.89,0-53.15,43.4-85.04,43.4s-53.15-43.4-85.04-43.4"/>
      <path class="st1" d="M382.72,51.42h0c-31.89,0-53.15,30.12-85.04,30.12s-53.15-30.12-85.04-30.12"/>
      <path class="st1" d="M382.72,66.46h0c-31.89,0-53.15,16.83-85.04,16.83s-53.15-16.83-85.04-16.83"/>
      <path class="st1" d="M382.72,81.5h0c-31.89,0-53.15,3.54-85.04,3.54s-53.15-3.54-85.04-3.54"/>
    </g>
  </g>
  <g id="Ebene_3">
    <g>
      <path class="st2" d="M212.6,21.35h0c-31.89,0-53.15,56.69-85.04,56.69S74.41,21.35,42.52,21.35"/>
      <path class="st2" d="M212.6,19.55h0c-31.89,0-53.15,43.41-85.04,43.41S74.41,19.55,42.52,19.55"/>
      <path class="st2" d="M212.6,17.76h0"/>
      <path class="st2" d="M212.6,17.76c-31.89,0-53.15,30.12-85.04,30.12s-53.15-30.12-85.04-30.12"/>
      <path class="st2" d="M42.52,15.97c31.89,0,53.15,16.83,85.04,16.83s53.15-16.83,85.04-16.83h0"/>
      <path class="st2" d="M212.6,14.17h0c-31.89,0-53.15,3.54-85.04,3.54s-53.15-3.54-85.04-3.54"/>
      <path class="st2" d="M212.64,36.38h0c-31.89,0-53.15,43.4-85.04,43.4s-53.15-43.4-85.04-43.4"/>
      <path class="st2" d="M212.64,51.42c-31.89,0-53.15,30.12-85.04,30.12s-53.15-30.12-85.04-30.12"/>
      <path class="st2" d="M212.64,66.46c-31.89,0-53.15,16.83-85.04,16.83s-53.15-16.83-85.04-16.83"/>
      <path class="st2" d="M212.64,81.5c-31.89,0-53.15,3.54-85.04,3.54s-53.15-3.54-85.04-3.54"/>
      <path class="st2" d="M42.52,21.35h0c-4.94,0-9.62,1.36-14.13,3.66"/>
      <path class="st2" d="M28.39,22.36c4.51-1.76,9.19-2.8,14.13-2.8h0"/>
      <path class="st2" d="M28.39,19.71c4.51-1.22,9.19-1.95,14.13-1.95"/>
      <path class="st2" d="M42.52,17.76h0"/>
      <path class="st2" d="M42.52,15.97h0c-4.94,0-9.62.4-14.13,1.09"/>
      <path class="st2" d="M42.52,14.17h0c-4.94,0-9.62.08-14.13.23"/>
      <path class="st2" d="M28.39,39.2c4.52-1.77,9.22-2.82,14.17-2.82h0"/>
      <path class="st2" d="M28.39,53.38c4.52-1.23,9.22-1.96,14.17-1.96"/>
      <path class="st2" d="M28.39,67.55c4.52-.69,9.22-1.09,14.17-1.09"/>
      <path class="st2" d="M28.39,81.73c4.52-.14,9.22-.23,14.17-.23"/>
      <path class="st2" d="M212.6,21.35c31.89,0,53.15,56.69,85.04,56.69,4.97,0,9.68-1.38,14.22-3.7"/>
      <path class="st2" d="M212.6,19.55c31.89,0,53.15,43.41,85.04,43.41,4.97,0,9.68-1.06,14.22-2.84"/>
      <path class="st2" d="M212.6,17.76c31.89,0,53.15,30.12,85.04,30.12,4.97,0,9.68-.73,14.22-1.97"/>
      <path class="st2" d="M212.6,15.97c31.89,0,53.15,16.83,85.04,16.83,4.97,0,9.68-.41,14.22-1.1"/>
      <path class="st2" d="M212.6,14.17c31.89,0,53.15,3.54,85.04,3.54,4.97,0,9.68-.09,14.22-.23"/>
      <path class="st2" d="M212.64,36.38c31.89,0,53.15,43.4,85.04,43.4,4.96,0,9.65-1.05,14.17-2.82"/>
      <path class="st2" d="M212.64,51.42c31.89,0,53.15,30.12,85.04,30.12,4.96,0,9.65-.73,14.17-1.96"/>
      <path class="st2" d="M212.64,66.46c31.89,0,53.15,16.83,85.04,16.83,4.96,0,9.65-.41,14.17-1.09"/>
      <path class="st2" d="M311.85,84.81c-4.52.14-9.22.23-14.17.23-31.89,0-53.15-3.54-85.04-3.54"/>
    </g>
  </g>
</svg>