<?xml version="1.0" encoding="UTF-8"?>
<svg id="Ebene_2" xmlns="http://www.w3.org/2000/svg" version="1.1" viewBox="0 0 311.81 85.04">
  <!-- Generator: Adobe Illustrator 29.1.0, SVG Export Plug-In . SVG Version: 2.1.0 Build 142)  -->
  <defs>
    <style>
      .st0 {
        stroke-miterlimit: 10;
      }

      .st0, .st1 {
        fill: none;
        stroke: #1e1e1c;
        stroke-linecap: round;
        stroke-width: 1.2px;
      }

      .st1 {
        stroke-linejoin: round;
      }

      .st2 {
        fill: #1d1d1b;
        font-family: Helvetica, Helvetica;
        font-size: 8px;
      }
    </style>
  </defs>
  <text class="st2" transform="translate(137.28 76.62)"><tspan x="0" y="0">38</tspan></text>
  <g id="_x33_8">
    <path class="st1" d="M131.08,56.69c-13.97,0-25.22-14.51-36.93-26.58-8.33-8.59-16.9-15.94-26.85-15.94h0"/>
    <path class="st1" d="M131.11,14.18h0c-13.97,0-25.22,14.5-36.93,26.57-8.33,8.59-16.9,15.94-26.85,15.94"/>
    <g>
      <path class="st0" d="M67.35,14.18h0c-11.95,0-21.91,10.62-31.87,21.24"/>
      <path class="st0" d="M35.48,35.42c-6.88,7.34-13.77,14.68-21.3,18.53"/>
      <path class="st0" d="M14.17,16.91c7.54,3.83,14.42,11.17,21.3,18.51"/>
      <path class="st0" d="M67.38,56.69c-11.96,0-21.93-10.64-31.9-21.27"/>
    </g>
    <g>
      <path class="st0" d="M258.63,56.69c-11.95,0-21.91-10.62-31.87-21.24"/>
      <path class="st0" d="M226.76,35.46c-1.68-1.79-3.37-3.59-5.05-5.33-8.33-8.59-16.9-15.94-26.85-15.94h0c-11.95,0-21.91,10.62-31.87,21.24"/>
      <path class="st0" d="M162.98,35.42c-9.97,10.63-19.94,21.27-31.9,21.27"/>
      <path class="st0" d="M258.66,14.18h0c-11.96,0-21.93,10.64-31.9,21.27"/>
      <path class="st0" d="M131.11,14.18c11.95,0,21.91,10.62,31.87,21.24"/>
      <path class="st0" d="M226.76,35.46c-1.67,1.78-3.34,3.56-5.02,5.29-8.33,8.59-16.9,15.94-26.85,15.94-11.96,0-21.93-10.64-31.9-21.27"/>
      <path class="st0" d="M269.29,53.93c-3.39,1.73-6.91,2.77-10.63,2.77"/>
      <path class="st0" d="M258.7,14.18c3.7,0,7.21,1.03,10.6,2.75"/>
    </g>
  </g>
</svg>