<?xml version="1.0" encoding="UTF-8"?>
<svg xmlns="http://www.w3.org/2000/svg" version="1.1" viewBox="0 0 340.2 101.54">
  <!-- Generator: Adobe Illustrator 29.1.0, SVG Export Plug-In . SVG Version: 2.1.0 Build 142)  -->
  <defs>
    <style>
      .st0 {
        stroke-width: .6px;
      }

      .st0, .st1 {
        stroke-miterlimit: 10;
      }

      .st0, .st1, .st2 {
        fill: none;
        stroke: #1d1d1b;
        stroke-linecap: round;
      }

      .st1, .st2 {
        stroke-width: 1.2px;
      }

      .st2 {
        stroke-linejoin: round;
      }

      .st3 {
        display: none;
      }
    </style>
  </defs>
  <g id="Skala" class="st3">
    <path class="st0" d="M85.08,56.69c0,15.66-12.69,28.35-28.35,28.35s-28.35-12.69-28.35-28.35,12.69-28.35,28.35-28.35,28.35,12.69,28.35,28.35Z"/>
    <line class="st0" x1="56.74" y1="28.35" x2="56.74" y2="85.04"/>
    <line class="st0" x1="28.39" y1="56.69" x2="311.85" y2="56.69"/>
    <line class="st0" x1="56.74" y1="28.35" x2="311.85" y2="28.35"/>
    <line class="st0" x1="42.56" y1="31.89" x2="311.85" y2="31.89"/>
    <line class="st0" x1="31.93" y1="42.52" x2="311.85" y2="42.52"/>
    <line class="st0" x1="31.93" y1="70.87" x2="311.85" y2="70.87"/>
    <line class="st0" x1="42.56" y1="81.5" x2="311.85" y2="81.5"/>
    <line class="st0" x1="56.74" y1="85.04" x2="311.85" y2="85.04"/>
    <line class="st0" x1="32.19" y1="70.87" x2="56.74" y2="56.69"/>
    <line class="st0" x1="42.56" y1="81.24" x2="56.74" y2="56.69"/>
    <line class="st0" x1="56.74" y1="56.69" x2="42.56" y2="32.15"/>
    <line class="st0" x1="56.74" y1="56.69" x2="32.19" y2="42.52"/>
    <line class="st0" x1="70.91" y1="42.52" x2="70.91" y2="56.69"/>
    <line class="st0" x1="85.08" y1="31.89" x2="85.08" y2="56.69"/>
    <line class="st0" x1="99.26" y1="28.35" x2="99.26" y2="56.69"/>
    <line class="st0" x1="113.43" y1="31.89" x2="113.43" y2="56.69"/>
    <line class="st0" x1="127.6" y1="42.52" x2="127.6" y2="56.69"/>
    <line class="st0" x1="240.99" y1="42.52" x2="240.99" y2="56.69"/>
    <line class="st0" x1="255.16" y1="31.89" x2="255.16" y2="56.69"/>
    <line class="st0" x1="269.33" y1="28.35" x2="269.33" y2="56.69"/>
    <line class="st0" x1="283.51" y1="31.89" x2="283.51" y2="56.69"/>
    <line class="st0" x1="297.68" y1="42.52" x2="297.68" y2="56.69"/>
    <line class="st0" x1="212.64" y1="70.87" x2="212.64" y2="56.69"/>
    <line class="st0" x1="198.47" y1="81.5" x2="198.47" y2="56.69"/>
    <line class="st0" x1="184.29" y1="85.04" x2="184.29" y2="56.69"/>
    <line class="st0" x1="170.12" y1="81.5" x2="170.12" y2="56.69"/>
    <line class="st0" x1="155.95" y1="70.87" x2="155.95" y2="56.69"/>
  </g>
  <g id="_x33_8">
    <path class="st2" d="M155.9,85.04c-18.63,0-33.63-19.35-49.24-35.44-11.11-11.45-22.54-21.26-35.8-21.26h0"/>
    <path class="st2" d="M155.94,28.35h0c-18.63,0-33.63,19.34-49.24,35.43-11.11,11.46-22.54,21.26-35.8,21.26"/>
    <g>
      <path class="st1" d="M70.91,28.35h0c-15.94,0-29.22,14.16-42.5,28.32"/>
      <path class="st1" d="M28.41,56.67C19.23,66.46,10.05,76.25,0,81.38"/>
      <path class="st1" d="M0,31.99c10.05,5.11,19.23,14.89,28.41,24.68"/>
      <path class="st1" d="M70.95,85.04c-15.95,0-29.25-14.19-42.54-28.37"/>
    </g>
    <g>
      <path class="st1" d="M325.98,85.04c-15.93,0-29.22-14.16-42.5-28.32"/>
      <path class="st1" d="M283.48,56.72c-2.24-2.39-4.49-4.79-6.74-7.11-11.11-11.45-22.54-21.26-35.8-21.26h0c-15.94,0-29.22,14.16-42.5,28.32"/>
      <path class="st1" d="M198.44,56.67c-13.29,14.18-26.59,28.37-42.54,28.37"/>
      <path class="st1" d="M326.02,28.35h0c-15.95,0-29.25,14.19-42.54,28.37"/>
      <path class="st1" d="M155.94,28.35c15.94,0,29.22,14.16,42.5,28.32"/>
      <path class="st1" d="M283.48,56.72c-2.23,2.38-4.46,4.75-6.7,7.06-11.11,11.46-22.54,21.26-35.8,21.26-15.95,0-29.25-14.19-42.54-28.37"/>
      <path class="st1" d="M340.2,81.35c-4.52,2.31-9.22,3.69-14.18,3.69"/>
      <path class="st1" d="M326.07,28.35c4.94,0,9.62,1.37,14.13,3.67"/>
    </g>
  </g>
  <g id="_x33_9" class="st3">
    <path class="st2" d="M155.9,85.04c-18.63,0-33.63-19.35-49.24-35.44-11.11-11.45-22.54-21.26-35.8-21.26h0"/>
    <path class="st2" d="M155.94,28.35h0c-18.63,0-33.63,19.34-49.24,35.43-11.11,11.46-22.54,21.26-35.8,21.26"/>
    <path class="st2" d="M240.99,283.46c-18.63,0-33.63-19.35-49.24-35.44-11.11-11.45-22.54-21.26-35.8-21.26h0c-31.89,0-53.15,56.69-85.04,56.69-15.95,0-29.23-14.17-42.52-28.35"/>
    <path class="st2" d="M241.03,198.43h0c-18.63,0-33.63,19.34-49.24,35.43-11.11,11.46-22.54,21.26-35.8,21.26-31.89,0-53.15-56.69-85.04-56.69-15.95,0-29.23,14.17-42.52,28.35"/>
    <path class="st1" d="M269.33,170.08c-31.89,0-53.15-56.69-85.04-56.69h0c-31.89,0-53.15,56.69-85.04,56.69"/>
    <polyline class="st1" points=".04 -56.69 14.22 -42.52 28.39 -28.35"/>
    <polyline class="st1" points=".04 -85.04 14.22 -70.87 28.39 -56.69 42.56 -42.52 56.74 -28.35"/>
    <polyline class="st1" points=".04 -113.39 14.22 -99.21 28.39 -85.04 42.56 -70.87 56.74 -56.69 70.91 -42.52 85.08 -28.35"/>
    <polyline class="st1" points="28.39 -113.39 42.56 -99.21 56.74 -85.04 70.91 -70.87 85.08 -56.69 99.26 -42.52 113.43 -28.35"/>
    <polyline class="st1" points="56.74 -113.39 70.91 -99.21 85.08 -85.04 99.26 -70.87 113.43 -56.69 127.6 -42.52 141.77 -28.35"/>
    <polyline class="st1" points="85.08 -113.39 99.26 -99.21 113.43 -85.04 127.6 -70.87 141.77 -56.69 155.95 -42.52 170.12 -28.35"/>
    <polyline class="st1" points="113.43 -113.39 127.6 -99.21 141.77 -85.04 155.95 -70.87 170.12 -56.69 184.29 -42.52 198.47 -28.35"/>
    <polyline class="st1" points="141.77 -113.39 155.95 -99.21 170.12 -85.04 184.29 -70.87 198.47 -56.69 212.64 -42.52 226.81 -28.35"/>
    <polyline class="st1" points="170.12 -113.39 184.29 -99.21 198.47 -85.04 212.64 -70.87 226.81 -56.69"/>
    <polyline class="st1" points="198.46 -113.39 212.64 -99.21 226.81 -85.04"/>
    <polyline class="st1" points="226.81 -56.69 212.64 -42.52 198.46 -28.35"/>
    <polyline class="st1" points="226.81 -85.04 212.64 -70.87 198.46 -56.69 184.29 -42.52 170.12 -28.35"/>
    <polyline class="st1" points="226.81 -113.39 212.64 -99.21 198.46 -85.04 184.29 -70.87 170.12 -56.69 155.94 -42.52 141.77 -28.35"/>
    <polyline class="st1" points="198.46 -113.39 184.29 -99.21 170.12 -85.04 155.94 -70.87 141.77 -56.69 127.6 -42.52 113.43 -28.35"/>
    <polyline class="st1" points="170.12 -113.39 155.94 -99.21 141.77 -85.04 127.6 -70.87 113.43 -56.69 99.25 -42.52 85.08 -28.35"/>
    <polyline class="st1" points="141.77 -113.39 127.6 -99.21 113.43 -85.04 99.25 -70.87 85.08 -56.69 70.91 -42.52 56.73 -28.35"/>
    <polyline class="st1" points="113.43 -113.39 99.25 -99.21 85.08 -85.04 70.91 -70.87 56.73 -56.69 42.56 -42.52 28.39 -28.35"/>
    <polyline class="st1" points="85.08 -113.39 70.91 -99.21 56.73 -85.04 42.56 -70.87 28.39 -56.69 14.22 -42.52 .04 -28.35"/>
    <polyline class="st1" points="56.74 -113.39 42.56 -99.21 28.39 -85.04 14.22 -70.87 .04 -56.69"/>
    <polyline class="st1" points="28.39 -113.39 14.22 -99.21 .04 -85.04"/>
    <polyline class="st1" points="226.82 -56.69 240.99 -42.52 255.16 -28.35"/>
    <polyline class="st1" points="226.82 -85.04 240.99 -70.87 255.16 -56.69 269.34 -42.52 283.51 -28.35"/>
    <polyline class="st1" points="226.82 -113.39 240.99 -99.21 255.16 -85.04 269.34 -70.87 283.51 -56.69 297.68 -42.52 311.85 -28.35"/>
    <polyline class="st1" points="255.16 -113.39 297.68 -70.87 311.85 -56.69 326.03 -42.52 340.2 -28.35"/>
    <polyline class="st1" points="283.51 -113.39 297.68 -99.21 340.2 -56.69"/>
    <polyline class="st1" points="311.85 -113.39 326.03 -99.21 340.2 -85.04"/>
    <path class="st1" d="M311.85-113.39"/>
    <path class="st1" d="M311.85-28.35"/>
    <polyline class="st1" points="283.51 -28.35 297.68 -42.52 311.85 -56.69 340.2 -85.04"/>
    <polyline class="st1" points="311.85 -28.35 326.03 -42.52 340.2 -56.69"/>
    <polyline class="st1" points="340.2 -113.39 297.68 -70.87 283.51 -56.69 269.33 -42.52 255.16 -28.35"/>
    <polyline class="st1" points="311.85 -113.39 297.68 -99.21 283.51 -85.04 269.33 -70.87 255.16 -56.69 240.99 -42.52 226.81 -28.35"/>
    <polyline class="st1" points="283.51 -113.39 269.33 -99.21 255.16 -85.04 240.99 -70.87 226.81 -56.69"/>
    <polyline class="st1" points="255.16 -113.39 240.99 -99.21 226.81 -85.04"/>
    <g>
      <path class="st1" d="M70.91,28.35h0c-15.94,0-29.22,14.16-42.5,28.32"/>
      <path class="st1" d="M28.41,56.67C19.23,66.46,10.05,76.25,0,81.38"/>
      <path class="st1" d="M0,31.99c10.05,5.11,19.23,14.89,28.41,24.68"/>
      <path class="st1" d="M70.95,85.04c-15.95,0-29.25-14.19-42.54-28.37"/>
    </g>
    <g>
      <path class="st1" d="M70.91,156.1c8.82,8.03,18.02,13.98,28.35,13.98"/>
      <path class="st1" d="M70.91,156.1c-9.6-8.75-18.74-19.99-28.35-28.74"/>
      <path class="st1" d="M.04,117.07c4.52-2.31,9.22-3.68,14.17-3.68h0c10.32,0,19.53,5.94,28.35,13.98"/>
      <path class="st1" d="M.04,166.4c4.9-2.5,9.59-6.12,14.17-10.3"/>
      <path class="st1" d="M70.91,113.39h0c-10.32,0-19.53,5.94-28.35,13.98"/>
      <path class="st1" d="M42.56,127.36c-9.6,8.75-18.74,19.98-28.35,28.74"/>
      <path class="st1" d="M14.21,156.1c-4.8-4.38-9.49-9.37-14.17-14.37"/>
      <path class="st1" d="M70.91,156.1c-8.82,8.03-18.02,13.98-28.35,13.98s-19.53-5.94-28.35-13.98"/>
      <path class="st1" d="M127.6,113.39h0c-21.57,0-38.27,25.93-56.69,42.71"/>
    </g>
    <g>
      <path class="st2" d="M28.39,226.77c-4.61,4.92-9.22,9.83-13.94,14.16"/>
      <path class="st2" d="M14.45,240.93c-4.66,4.27-9.43,7.96-14.41,10.51"/>
      <path class="st2" d="M.04,230.43c4.98,2.54,9.75,6.23,14.41,10.49"/>
      <path class="st2" d="M28.44,255.12c-4.62-4.93-9.25-9.86-13.98-14.2"/>
    </g>
    <g>
      <path class="st1" d="M325.98,85.04c-15.93,0-29.22-14.16-42.5-28.32"/>
      <path class="st1" d="M283.48,56.72c-2.24-2.39-4.49-4.79-6.74-7.11-11.11-11.45-22.54-21.26-35.8-21.26h0c-15.94,0-29.22,14.16-42.5,28.32"/>
      <path class="st1" d="M198.44,56.67c-13.29,14.18-26.59,28.37-42.54,28.37"/>
      <path class="st1" d="M326.02,28.35h0c-15.95,0-29.25,14.19-42.54,28.37"/>
      <path class="st1" d="M155.94,28.35c15.94,0,29.22,14.16,42.5,28.32"/>
      <path class="st1" d="M283.48,56.72c-2.23,2.38-4.46,4.75-6.7,7.06-11.11,11.46-22.54,21.26-35.8,21.26-15.95,0-29.25-14.19-42.54-28.37"/>
      <path class="st1" d="M340.2,81.35c-4.52,2.31-9.22,3.69-14.18,3.69"/>
      <path class="st1" d="M326.07,28.35c4.94,0,9.62,1.37,14.13,3.67"/>
    </g>
    <g>
      <path class="st1" d="M269.33,127.36c-8.82-8.04-18.02-13.98-28.35-13.98h0c-21.57,0-38.27,25.93-56.69,42.71"/>
      <path class="st1" d="M340.2,166.4c-4.52,2.31-9.22,3.68-14.17,3.68-21.57,0-38.27-25.93-56.69-42.71"/>
      <path class="st1" d="M184.29,156.1c-8.82,8.03-18.02,13.98-28.35,13.98-31.89,0-53.15-56.69-85.04-56.69"/>
      <path class="st1" d="M269.33,127.36c-18.42,16.79-35.12,42.71-56.69,42.71-10.32,0-19.53-5.94-28.35-13.98"/>
      <path class="st1" d="M326.21,127.53c4.74,4.34,9.37,9.27,13.99,14.2"/>
      <path class="st1" d="M127.6,113.39c21.57,0,38.27,25.93,56.69,42.71"/>
      <path class="st1" d="M326.21,127.53c-8.87-8.12-18.13-14.14-28.53-14.14h0c-10.32,0-19.53,5.94-28.35,13.98"/>
    </g>
    <g>
      <path class="st2" d="M297.49,240.93c-18.34,16.79-35.01,42.54-56.5,42.54"/>
      <path class="st2" d="M340.2,230.45c-4.52-2.31-9.22-3.68-14.17-3.68-10.4,0-19.67,6.03-28.54,14.15"/>
      <path class="st2" d="M241.03,198.43c21.48,0,38.13,25.71,56.46,42.5"/>
      <path class="st2" d="M340.2,251.46c-4.51,2.3-9.19,3.66-14.13,3.66-10.41,0-19.7-6.05-28.58-14.19"/>
    </g>
    <path class="st1" d="M340.2,117.07c-24.58,12.57-43.93,53.01-70.86,53.01"/>
  </g>
  <g id="_x34_0" class="st3">
    <path class="st2" d="M155.9,85.04c-18.63,0-33.63-19.35-49.24-35.44-11.11-11.45-22.54-21.26-35.8-21.26h0"/>
    <path class="st2" d="M155.94,28.35h0c-18.63,0-33.63,19.34-49.24,35.43-11.11,11.46-22.54,21.26-35.8,21.26"/>
    <path class="st2" d="M240.99,283.46c-18.63,0-33.63-19.35-49.24-35.44-11.11-11.45-22.54-21.26-35.8-21.26h0c-31.89,0-53.15,56.69-85.04,56.69-15.95,0-29.23-14.17-42.52-28.35"/>
    <path class="st2" d="M241.03,198.43h0c-18.63,0-33.63,19.34-49.24,35.43-11.11,11.46-22.54,21.26-35.8,21.26-31.89,0-53.15-56.69-85.04-56.69-15.95,0-29.23,14.17-42.52,28.35"/>
    <path class="st1" d="M269.33,170.08c-31.89,0-53.15-56.69-85.04-56.69h0c-31.89,0-53.15,56.69-85.04,56.69"/>
    <polyline class="st1" points=".04 -56.69 14.22 -42.52 28.39 -28.35"/>
    <polyline class="st1" points=".04 -85.04 14.22 -70.87 28.39 -56.69 42.56 -42.52 56.74 -28.35"/>
    <polyline class="st1" points=".04 -113.39 14.22 -99.21 28.39 -85.04 42.56 -70.87 56.74 -56.69 70.91 -42.52 85.08 -28.35"/>
    <polyline class="st1" points="28.39 -113.39 42.56 -99.21 56.74 -85.04 70.91 -70.87 85.08 -56.69 99.26 -42.52 113.43 -28.35"/>
    <polyline class="st1" points="56.74 -113.39 70.91 -99.21 85.08 -85.04 99.26 -70.87 113.43 -56.69 127.6 -42.52 141.77 -28.35"/>
    <polyline class="st1" points="85.08 -113.39 99.26 -99.21 113.43 -85.04 127.6 -70.87 141.77 -56.69 155.95 -42.52 170.12 -28.35"/>
    <polyline class="st1" points="113.43 -113.39 127.6 -99.21 141.77 -85.04 155.95 -70.87 170.12 -56.69 184.29 -42.52 198.47 -28.35"/>
    <polyline class="st1" points="141.77 -113.39 155.95 -99.21 170.12 -85.04 184.29 -70.87 198.47 -56.69 212.64 -42.52 226.81 -28.35"/>
    <polyline class="st1" points="170.12 -113.39 184.29 -99.21 198.47 -85.04 212.64 -70.87 226.81 -56.69"/>
    <polyline class="st1" points="198.46 -113.39 212.64 -99.21 226.81 -85.04"/>
    <polyline class="st1" points="226.81 -56.69 212.64 -42.52 198.46 -28.35"/>
    <polyline class="st1" points="226.81 -85.04 212.64 -70.87 198.46 -56.69 184.29 -42.52 170.12 -28.35"/>
    <polyline class="st1" points="226.81 -113.39 212.64 -99.21 198.46 -85.04 184.29 -70.87 170.12 -56.69 155.94 -42.52 141.77 -28.35"/>
    <polyline class="st1" points="198.46 -113.39 184.29 -99.21 170.12 -85.04 155.94 -70.87 141.77 -56.69 127.6 -42.52 113.43 -28.35"/>
    <polyline class="st1" points="170.12 -113.39 155.94 -99.21 141.77 -85.04 127.6 -70.87 113.43 -56.69 99.25 -42.52 85.08 -28.35"/>
    <polyline class="st1" points="141.77 -113.39 127.6 -99.21 113.43 -85.04 99.25 -70.87 85.08 -56.69 70.91 -42.52 56.73 -28.35"/>
    <polyline class="st1" points="113.43 -113.39 99.25 -99.21 85.08 -85.04 70.91 -70.87 56.73 -56.69 42.56 -42.52 28.39 -28.35"/>
    <polyline class="st1" points="85.08 -113.39 70.91 -99.21 56.73 -85.04 42.56 -70.87 28.39 -56.69 14.22 -42.52 .04 -28.35"/>
    <polyline class="st1" points="56.74 -113.39 42.56 -99.21 28.39 -85.04 14.22 -70.87 .04 -56.69"/>
    <polyline class="st1" points="28.39 -113.39 14.22 -99.21 .04 -85.04"/>
    <polyline class="st1" points="226.82 -56.69 240.99 -42.52 255.16 -28.35"/>
    <polyline class="st1" points="226.82 -85.04 240.99 -70.87 255.16 -56.69 269.34 -42.52 283.51 -28.35"/>
    <polyline class="st1" points="226.82 -113.39 240.99 -99.21 255.16 -85.04 269.34 -70.87 283.51 -56.69 297.68 -42.52 311.85 -28.35"/>
    <polyline class="st1" points="255.16 -113.39 297.68 -70.87 311.85 -56.69 326.03 -42.52 340.2 -28.35"/>
    <polyline class="st1" points="283.51 -113.39 297.68 -99.21 340.2 -56.69"/>
    <polyline class="st1" points="311.85 -113.39 326.03 -99.21 340.2 -85.04"/>
    <path class="st1" d="M311.85-113.39"/>
    <path class="st1" d="M311.85-28.35"/>
    <polyline class="st1" points="283.51 -28.35 297.68 -42.52 311.85 -56.69 340.2 -85.04"/>
    <polyline class="st1" points="311.85 -28.35 326.03 -42.52 340.2 -56.69"/>
    <polyline class="st1" points="340.2 -113.39 297.68 -70.87 283.51 -56.69 269.33 -42.52 255.16 -28.35"/>
    <polyline class="st1" points="311.85 -113.39 297.68 -99.21 283.51 -85.04 269.33 -70.87 255.16 -56.69 240.99 -42.52 226.81 -28.35"/>
    <polyline class="st1" points="283.51 -113.39 269.33 -99.21 255.16 -85.04 240.99 -70.87 226.81 -56.69"/>
    <polyline class="st1" points="255.16 -113.39 240.99 -99.21 226.81 -85.04"/>
    <g>
      <path class="st1" d="M70.91,28.35h0c-15.94,0-29.22,14.16-42.5,28.32"/>
      <path class="st1" d="M28.41,56.67C19.23,66.46,10.05,76.25,0,81.38"/>
      <path class="st1" d="M0,31.99c10.05,5.11,19.23,14.89,28.41,24.68"/>
      <path class="st1" d="M70.95,85.04c-15.95,0-29.25-14.19-42.54-28.37"/>
    </g>
    <g>
      <path class="st1" d="M70.91,156.1c8.82,8.03,18.02,13.98,28.35,13.98"/>
      <path class="st1" d="M70.91,156.1c-9.6-8.75-18.74-19.99-28.35-28.74"/>
      <path class="st1" d="M.04,117.07c4.52-2.31,9.22-3.68,14.17-3.68h0c10.32,0,19.53,5.94,28.35,13.98"/>
      <path class="st1" d="M.04,166.4c4.9-2.5,9.59-6.12,14.17-10.3"/>
      <path class="st1" d="M70.91,113.39h0c-10.32,0-19.53,5.94-28.35,13.98"/>
      <path class="st1" d="M42.56,127.36c-9.6,8.75-18.74,19.98-28.35,28.74"/>
      <path class="st1" d="M14.21,156.1c-4.8-4.38-9.49-9.37-14.17-14.37"/>
      <path class="st1" d="M70.91,156.1c-8.82,8.03-18.02,13.98-28.35,13.98s-19.53-5.94-28.35-13.98"/>
      <path class="st1" d="M127.6,113.39h0c-21.57,0-38.27,25.93-56.69,42.71"/>
    </g>
    <g>
      <path class="st2" d="M28.39,226.77c-4.61,4.92-9.22,9.83-13.94,14.16"/>
      <path class="st2" d="M14.45,240.93c-4.66,4.27-9.43,7.96-14.41,10.51"/>
      <path class="st2" d="M.04,230.43c4.98,2.54,9.75,6.23,14.41,10.49"/>
      <path class="st2" d="M28.44,255.12c-4.62-4.93-9.25-9.86-13.98-14.2"/>
    </g>
    <g>
      <path class="st1" d="M325.98,85.04c-15.93,0-29.22-14.16-42.5-28.32"/>
      <path class="st1" d="M283.48,56.72c-2.24-2.39-4.49-4.79-6.74-7.11-11.11-11.45-22.54-21.26-35.8-21.26h0c-15.94,0-29.22,14.16-42.5,28.32"/>
      <path class="st1" d="M198.44,56.67c-13.29,14.18-26.59,28.37-42.54,28.37"/>
      <path class="st1" d="M326.02,28.35h0c-15.95,0-29.25,14.19-42.54,28.37"/>
      <path class="st1" d="M155.94,28.35c15.94,0,29.22,14.16,42.5,28.32"/>
      <path class="st1" d="M283.48,56.72c-2.23,2.38-4.46,4.75-6.7,7.06-11.11,11.46-22.54,21.26-35.8,21.26-15.95,0-29.25-14.19-42.54-28.37"/>
      <path class="st1" d="M340.2,81.35c-4.52,2.31-9.22,3.69-14.18,3.69"/>
      <path class="st1" d="M326.07,28.35c4.94,0,9.62,1.37,14.13,3.67"/>
    </g>
    <g>
      <path class="st1" d="M269.33,127.36c-8.82-8.04-18.02-13.98-28.35-13.98h0c-21.57,0-38.27,25.93-56.69,42.71"/>
      <path class="st1" d="M340.2,166.4c-4.52,2.31-9.22,3.68-14.17,3.68-21.57,0-38.27-25.93-56.69-42.71"/>
      <path class="st1" d="M184.29,156.1c-8.82,8.03-18.02,13.98-28.35,13.98-31.89,0-53.15-56.69-85.04-56.69"/>
      <path class="st1" d="M269.33,127.36c-18.42,16.79-35.12,42.71-56.69,42.71-10.32,0-19.53-5.94-28.35-13.98"/>
      <path class="st1" d="M326.21,127.53c4.74,4.34,9.37,9.27,13.99,14.2"/>
      <path class="st1" d="M127.6,113.39c21.57,0,38.27,25.93,56.69,42.71"/>
      <path class="st1" d="M326.21,127.53c-8.87-8.12-18.13-14.14-28.53-14.14h0c-10.32,0-19.53,5.94-28.35,13.98"/>
    </g>
    <g>
      <path class="st2" d="M297.49,240.93c-18.34,16.79-35.01,42.54-56.5,42.54"/>
      <path class="st2" d="M340.2,230.45c-4.52-2.31-9.22-3.68-14.17-3.68-10.4,0-19.67,6.03-28.54,14.15"/>
      <path class="st2" d="M241.03,198.43c21.48,0,38.13,25.71,56.46,42.5"/>
      <path class="st2" d="M340.2,251.46c-4.51,2.3-9.19,3.66-14.13,3.66-10.41,0-19.7-6.05-28.58-14.19"/>
    </g>
    <path class="st1" d="M340.2,117.07c-24.58,12.57-43.93,53.01-70.86,53.01"/>
  </g>
  <g id="_x34_1" class="st3">
    <path class="st2" d="M155.9,85.04c-18.63,0-33.63-19.35-49.24-35.44-11.11-11.45-22.54-21.26-35.8-21.26h0"/>
    <path class="st2" d="M155.94,28.35h0c-18.63,0-33.63,19.34-49.24,35.43-11.11,11.46-22.54,21.26-35.8,21.26"/>
    <path class="st2" d="M240.99,283.46c-18.63,0-33.63-19.35-49.24-35.44-11.11-11.45-22.54-21.26-35.8-21.26h0c-31.89,0-53.15,56.69-85.04,56.69-15.95,0-29.23-14.17-42.52-28.35"/>
    <path class="st2" d="M241.03,198.43h0c-18.63,0-33.63,19.34-49.24,35.43-11.11,11.46-22.54,21.26-35.8,21.26-31.89,0-53.15-56.69-85.04-56.69-15.95,0-29.23,14.17-42.52,28.35"/>
    <path class="st1" d="M269.33,170.08c-31.89,0-53.15-56.69-85.04-56.69h0c-31.89,0-53.15,56.69-85.04,56.69"/>
    <polyline class="st1" points=".04 -56.69 14.22 -42.52 28.39 -28.35"/>
    <polyline class="st1" points=".04 -85.04 14.22 -70.87 28.39 -56.69 42.56 -42.52 56.74 -28.35"/>
    <polyline class="st1" points=".04 -113.39 14.22 -99.21 28.39 -85.04 42.56 -70.87 56.74 -56.69 70.91 -42.52 85.08 -28.35"/>
    <polyline class="st1" points="28.39 -113.39 42.56 -99.21 56.74 -85.04 70.91 -70.87 85.08 -56.69 99.26 -42.52 113.43 -28.35"/>
    <polyline class="st1" points="56.74 -113.39 70.91 -99.21 85.08 -85.04 99.26 -70.87 113.43 -56.69 127.6 -42.52 141.77 -28.35"/>
    <polyline class="st1" points="85.08 -113.39 99.26 -99.21 113.43 -85.04 127.6 -70.87 141.77 -56.69 155.95 -42.52 170.12 -28.35"/>
    <polyline class="st1" points="113.43 -113.39 127.6 -99.21 141.77 -85.04 155.95 -70.87 170.12 -56.69 184.29 -42.52 198.47 -28.35"/>
    <polyline class="st1" points="141.77 -113.39 155.95 -99.21 170.12 -85.04 184.29 -70.87 198.47 -56.69 212.64 -42.52 226.81 -28.35"/>
    <polyline class="st1" points="170.12 -113.39 184.29 -99.21 198.47 -85.04 212.64 -70.87 226.81 -56.69"/>
    <polyline class="st1" points="198.46 -113.39 212.64 -99.21 226.81 -85.04"/>
    <polyline class="st1" points="226.81 -56.69 212.64 -42.52 198.46 -28.35"/>
    <polyline class="st1" points="226.81 -85.04 212.64 -70.87 198.46 -56.69 184.29 -42.52 170.12 -28.35"/>
    <polyline class="st1" points="226.81 -113.39 212.64 -99.21 198.46 -85.04 184.29 -70.87 170.12 -56.69 155.94 -42.52 141.77 -28.35"/>
    <polyline class="st1" points="198.46 -113.39 184.29 -99.21 170.12 -85.04 155.94 -70.87 141.77 -56.69 127.6 -42.52 113.43 -28.35"/>
    <polyline class="st1" points="170.12 -113.39 155.94 -99.21 141.77 -85.04 127.6 -70.87 113.43 -56.69 99.25 -42.52 85.08 -28.35"/>
    <polyline class="st1" points="141.77 -113.39 127.6 -99.21 113.43 -85.04 99.25 -70.87 85.08 -56.69 70.91 -42.52 56.73 -28.35"/>
    <polyline class="st1" points="113.43 -113.39 99.25 -99.21 85.08 -85.04 70.91 -70.87 56.73 -56.69 42.56 -42.52 28.39 -28.35"/>
    <polyline class="st1" points="85.08 -113.39 70.91 -99.21 56.73 -85.04 42.56 -70.87 28.39 -56.69 14.22 -42.52 .04 -28.35"/>
    <polyline class="st1" points="56.74 -113.39 42.56 -99.21 28.39 -85.04 14.22 -70.87 .04 -56.69"/>
    <polyline class="st1" points="28.39 -113.39 14.22 -99.21 .04 -85.04"/>
    <polyline class="st1" points="226.82 -56.69 240.99 -42.52 255.16 -28.35"/>
    <polyline class="st1" points="226.82 -85.04 240.99 -70.87 255.16 -56.69 269.34 -42.52 283.51 -28.35"/>
    <polyline class="st1" points="226.82 -113.39 240.99 -99.21 255.16 -85.04 269.34 -70.87 283.51 -56.69 297.68 -42.52 311.85 -28.35"/>
    <polyline class="st1" points="255.16 -113.39 297.68 -70.87 311.85 -56.69 326.03 -42.52 340.2 -28.35"/>
    <polyline class="st1" points="283.51 -113.39 297.68 -99.21 340.2 -56.69"/>
    <polyline class="st1" points="311.85 -113.39 326.03 -99.21 340.2 -85.04"/>
    <path class="st1" d="M311.85-113.39"/>
    <path class="st1" d="M311.85-28.35"/>
    <polyline class="st1" points="283.51 -28.35 297.68 -42.52 311.85 -56.69 340.2 -85.04"/>
    <polyline class="st1" points="311.85 -28.35 326.03 -42.52 340.2 -56.69"/>
    <polyline class="st1" points="340.2 -113.39 297.68 -70.87 283.51 -56.69 269.33 -42.52 255.16 -28.35"/>
    <polyline class="st1" points="311.85 -113.39 297.68 -99.21 283.51 -85.04 269.33 -70.87 255.16 -56.69 240.99 -42.52 226.81 -28.35"/>
    <polyline class="st1" points="283.51 -113.39 269.33 -99.21 255.16 -85.04 240.99 -70.87 226.81 -56.69"/>
    <polyline class="st1" points="255.16 -113.39 240.99 -99.21 226.81 -85.04"/>
    <g>
      <path class="st1" d="M70.91,28.35h0c-15.94,0-29.22,14.16-42.5,28.32"/>
      <path class="st1" d="M28.41,56.67C19.23,66.46,10.05,76.25,0,81.38"/>
      <path class="st1" d="M0,31.99c10.05,5.11,19.23,14.89,28.41,24.68"/>
      <path class="st1" d="M70.95,85.04c-15.95,0-29.25-14.19-42.54-28.37"/>
    </g>
    <g>
      <path class="st1" d="M70.91,156.1c8.82,8.03,18.02,13.98,28.35,13.98"/>
      <path class="st1" d="M70.91,156.1c-9.6-8.75-18.74-19.99-28.35-28.74"/>
      <path class="st1" d="M.04,117.07c4.52-2.31,9.22-3.68,14.17-3.68h0c10.32,0,19.53,5.94,28.35,13.98"/>
      <path class="st1" d="M.04,166.4c4.9-2.5,9.59-6.12,14.17-10.3"/>
      <path class="st1" d="M70.91,113.39h0c-10.32,0-19.53,5.94-28.35,13.98"/>
      <path class="st1" d="M42.56,127.36c-9.6,8.75-18.74,19.98-28.35,28.74"/>
      <path class="st1" d="M14.21,156.1c-4.8-4.38-9.49-9.37-14.17-14.37"/>
      <path class="st1" d="M70.91,156.1c-8.82,8.03-18.02,13.98-28.35,13.98s-19.53-5.94-28.35-13.98"/>
      <path class="st1" d="M127.6,113.39h0c-21.57,0-38.27,25.93-56.69,42.71"/>
    </g>
    <g>
      <path class="st2" d="M28.39,226.77c-4.61,4.92-9.22,9.83-13.94,14.16"/>
      <path class="st2" d="M14.45,240.93c-4.66,4.27-9.43,7.96-14.41,10.51"/>
      <path class="st2" d="M.04,230.43c4.98,2.54,9.75,6.23,14.41,10.49"/>
      <path class="st2" d="M28.44,255.12c-4.62-4.93-9.25-9.86-13.98-14.2"/>
    </g>
    <g>
      <path class="st1" d="M325.98,85.04c-15.93,0-29.22-14.16-42.5-28.32"/>
      <path class="st1" d="M283.48,56.72c-2.24-2.39-4.49-4.79-6.74-7.11-11.11-11.45-22.54-21.26-35.8-21.26h0c-15.94,0-29.22,14.16-42.5,28.32"/>
      <path class="st1" d="M198.44,56.67c-13.29,14.18-26.59,28.37-42.54,28.37"/>
      <path class="st1" d="M326.02,28.35h0c-15.95,0-29.25,14.19-42.54,28.37"/>
      <path class="st1" d="M155.94,28.35c15.94,0,29.22,14.16,42.5,28.32"/>
      <path class="st1" d="M283.48,56.72c-2.23,2.38-4.46,4.75-6.7,7.06-11.11,11.46-22.54,21.26-35.8,21.26-15.95,0-29.25-14.19-42.54-28.37"/>
      <path class="st1" d="M340.2,81.35c-4.52,2.31-9.22,3.69-14.18,3.69"/>
      <path class="st1" d="M326.07,28.35c4.94,0,9.62,1.37,14.13,3.67"/>
    </g>
    <g>
      <path class="st1" d="M269.33,127.36c-8.82-8.04-18.02-13.98-28.35-13.98h0c-21.57,0-38.27,25.93-56.69,42.71"/>
      <path class="st1" d="M340.2,166.4c-4.52,2.31-9.22,3.68-14.17,3.68-21.57,0-38.27-25.93-56.69-42.71"/>
      <path class="st1" d="M184.29,156.1c-8.82,8.03-18.02,13.98-28.35,13.98-31.89,0-53.15-56.69-85.04-56.69"/>
      <path class="st1" d="M269.33,127.36c-18.42,16.79-35.12,42.71-56.69,42.71-10.32,0-19.53-5.94-28.35-13.98"/>
      <path class="st1" d="M326.21,127.53c4.74,4.34,9.37,9.27,13.99,14.2"/>
      <path class="st1" d="M127.6,113.39c21.57,0,38.27,25.93,56.69,42.71"/>
      <path class="st1" d="M326.21,127.53c-8.87-8.12-18.13-14.14-28.53-14.14h0c-10.32,0-19.53,5.94-28.35,13.98"/>
    </g>
    <g>
      <path class="st2" d="M297.49,240.93c-18.34,16.79-35.01,42.54-56.5,42.54"/>
      <path class="st2" d="M340.2,230.45c-4.52-2.31-9.22-3.68-14.17-3.68-10.4,0-19.67,6.03-28.54,14.15"/>
      <path class="st2" d="M241.03,198.43c21.48,0,38.13,25.71,56.46,42.5"/>
      <path class="st2" d="M340.2,251.46c-4.51,2.3-9.19,3.66-14.13,3.66-10.41,0-19.7-6.05-28.58-14.19"/>
    </g>
    <path class="st1" d="M340.2,117.07c-24.58,12.57-43.93,53.01-70.86,53.01"/>
  </g>
</svg>