<?xml version="1.0" encoding="UTF-8"?>
<svg id="Ebene_2" xmlns="http://www.w3.org/2000/svg" version="1.1" viewBox="0 0 311.81 85.04">
  <!-- Generator: Adobe Illustrator 29.1.0, SVG Export Plug-In . SVG Version: 2.1.0 Build 142)  -->
  <defs>
    <style>
      .st0 {
        fill: none;
        stroke: #1e1e1c;
        stroke-linecap: round;
        stroke-miterlimit: 10;
        stroke-width: 1.2px;
      }

      .st1 {
        fill: #1d1d1b;
        font-family: Helvetica, Helvetica;
        font-size: 8px;
      }
    </style>
  </defs>
  <text class="st1" transform="translate(137.28 76.62)"><tspan x="0" y="0">39</tspan></text>
  <g id="_x33_9">
    <path class="st0" d="M216.11,56.69c-23.91,0-39.86-42.51-63.77-42.51h0c-23.91,0-39.86,42.51-63.77,42.51"/>
    <g>
      <path class="st0" d="M67.32,46.21c6.61,6.02,13.51,10.48,21.26,10.48"/>
      <path class="st0" d="M67.32,46.21c-7.2-6.56-14.05-14.99-21.26-21.55"/>
      <path class="st0" d="M14.17,16.94c3.39-1.73,6.91-2.76,10.63-2.76h0c7.74,0,14.65,4.45,21.26,10.48"/>
      <path class="st0" d="M14.17,53.93c3.67-1.87,7.19-4.59,10.63-7.72"/>
      <path class="st0" d="M67.32,14.18h0c-7.74,0-14.65,4.45-21.26,10.48"/>
      <path class="st0" d="M46.06,24.66c-7.2,6.56-14.05,14.98-21.26,21.55"/>
      <path class="st0" d="M24.8,46.21c-3.6-3.28-7.12-7.03-10.63-10.78"/>
      <path class="st0" d="M67.32,46.21c-6.61,6.02-13.51,10.48-21.26,10.48s-14.65-4.45-21.26-10.48"/>
      <path class="st0" d="M109.83,14.18h0c-16.18,0-28.7,19.45-42.51,32.03"/>
    </g>
    <g>
      <path class="st0" d="M216.11,24.66c-6.61-6.03-13.51-10.48-21.26-10.48h0c-16.18,0-28.7,19.45-42.51,32.03"/>
      <path class="st0" d="M269.26,53.93c-3.39,1.73-6.91,2.76-10.63,2.76-16.18,0-28.7-19.45-42.51-32.03"/>
      <path class="st0" d="M152.34,46.21c-6.61,6.02-13.51,10.48-21.26,10.48-23.91,0-39.86-42.51-63.77-42.51"/>
      <path class="st0" d="M216.11,24.66c-13.81,12.59-26.34,32.03-42.51,32.03-7.74,0-14.65-4.45-21.26-10.48"/>
      <path class="st0" d="M258.77,24.78c3.55,3.25,7.03,6.95,10.49,10.65"/>
      <path class="st0" d="M109.83,14.18c16.18,0,28.7,19.45,42.51,32.03"/>
      <path class="st0" d="M258.77,24.78c-6.65-6.09-13.6-10.6-21.39-10.6h0c-7.74,0-14.65,4.45-21.26,10.48"/>
    </g>
    <path class="st0" d="M269.26,16.94c-18.43,9.43-32.94,39.75-53.14,39.75"/>
  </g>
</svg>