<?xml version="1.0" encoding="UTF-8"?>
<svg id="Ebene_2" xmlns="http://www.w3.org/2000/svg" version="1.1" viewBox="0 0 311.81 110.76">
  <!-- Generator: Adobe Illustrator 29.1.0, SVG Export Plug-In . SVG Version: 2.1.0 Build 142)  -->
  <defs>
    <style>
      .st0 {
        fill: none;
        stroke: #1e1e1c;
        stroke-linecap: round;
        stroke-miterlimit: 10;
        stroke-width: 1.2px;
      }

      .st1 {
        fill: #1d1d1b;
        font-family: Helvetica, Helvetica;
        font-size: 8px;
      }
    </style>
  </defs>
  <text class="st1" transform="translate(137.28 97.59)"><tspan x="0" y="0">40</tspan></text>
  <g id="_x34_0">
    <polyline class="st0" points="14.17 56.46 24.81 67.09 35.43 77.72"/>
    <polyline class="st0" points="14.17 35.2 24.81 45.83 35.43 56.46 46.06 67.09 56.7 77.72"/>
    <polyline class="st0" points="14.17 13.94 24.81 24.57 35.43 35.2 46.06 45.83 56.7 56.46 67.32 67.09 77.95 77.72"/>
    <polyline class="st0" points="35.43 13.94 46.06 24.57 56.7 35.2 67.32 45.83 77.95 56.46 88.59 67.09 99.21 77.72"/>
    <polyline class="st0" points="56.7 13.94 67.32 24.57 77.95 35.2 88.59 45.83 99.21 56.46 109.84 67.09 120.47 77.72"/>
    <polyline class="st0" points="77.95 13.94 88.59 24.57 99.21 35.2 109.84 45.83 120.47 56.46 131.1 67.09 141.73 77.72"/>
    <polyline class="st0" points="99.21 13.94 109.84 24.57 120.47 35.2 131.1 45.83 141.73 56.46 152.36 67.09 162.99 77.72"/>
    <polyline class="st0" points="120.47 13.94 131.1 24.57 141.73 35.2 152.36 45.83 162.99 56.46 173.62 67.09 184.25 77.72"/>
    <polyline class="st0" points="141.73 13.94 152.36 24.57 162.99 35.2 173.62 45.83 184.25 56.46"/>
    <polyline class="st0" points="162.99 13.94 173.62 24.57 184.25 35.2"/>
    <polyline class="st0" points="184.25 56.46 173.62 67.09 162.99 77.72"/>
    <polyline class="st0" points="184.25 35.2 173.62 45.83 162.99 56.46 152.36 67.09 141.73 77.72"/>
    <polyline class="st0" points="184.25 13.94 173.62 24.57 162.99 35.2 152.36 45.83 141.73 56.46 131.1 67.09 120.47 77.72"/>
    <polyline class="st0" points="162.99 13.94 152.36 24.57 141.73 35.2 131.1 45.83 120.47 56.46 109.84 67.09 99.21 77.72"/>
    <polyline class="st0" points="141.73 13.94 131.1 24.57 120.47 35.2 109.84 45.83 99.21 56.46 88.58 67.09 77.95 77.72"/>
    <polyline class="st0" points="120.47 13.94 109.84 24.57 99.21 35.2 88.58 45.83 77.95 56.46 67.32 67.09 56.69 77.72"/>
    <polyline class="st0" points="99.21 13.94 88.58 24.57 77.95 35.2 67.32 45.83 56.69 56.46 46.06 67.09 35.43 77.72"/>
    <polyline class="st0" points="77.95 13.94 67.32 24.57 56.69 35.2 46.06 45.83 35.43 56.46 24.81 67.09 14.17 77.72"/>
    <polyline class="st0" points="56.7 13.94 46.06 24.57 35.43 35.2 24.81 45.83 14.17 56.46"/>
    <polyline class="st0" points="35.43 13.94 24.81 24.57 14.17 35.2"/>
    <polyline class="st0" points="184.26 56.46 194.88 67.09 205.51 77.72"/>
    <polyline class="st0" points="184.26 35.2 194.88 45.83 205.51 56.46 216.15 67.09 226.77 77.72"/>
    <polyline class="st0" points="184.26 13.94 194.88 24.57 205.51 35.2 216.15 45.83 226.77 56.46 237.4 67.09 248.03 77.72"/>
    <polyline class="st0" points="205.51 13.94 237.4 45.83 248.03 56.46 258.66 67.09 269.29 77.72"/>
    <polyline class="st0" points="226.77 13.94 237.4 24.57 269.29 56.46"/>
    <polyline class="st0" points="248.03 13.94 258.66 24.57 269.29 35.2"/>
    <path class="st0" d="M248.03,13.94"/>
    <path class="st0" d="M248.03,77.72"/>
    <polyline class="st0" points="226.77 77.72 237.4 67.09 248.03 56.46 269.29 35.2"/>
    <polyline class="st0" points="248.03 77.72 258.66 67.09 269.29 56.46"/>
    <polyline class="st0" points="269.29 13.94 237.4 45.83 226.77 56.46 216.14 67.09 205.51 77.72"/>
    <polyline class="st0" points="248.03 13.94 237.4 24.57 226.77 35.2 216.14 45.83 205.51 56.46 194.88 67.09 184.25 77.72"/>
    <polyline class="st0" points="226.77 13.94 216.14 24.57 205.51 35.2 194.88 45.83 184.25 56.46"/>
    <polyline class="st0" points="205.51 13.94 194.88 24.57 184.25 35.2"/>
  </g>
</svg>