<?xml version="1.0" encoding="UTF-8"?>
<svg id="Ebene_2" xmlns="http://www.w3.org/2000/svg" version="1.1" viewBox="0 0 311.81 96.26">
  <!-- Generator: Adobe Illustrator 29.1.0, SVG Export Plug-In . SVG Version: 2.1.0 Build 142)  -->
  <defs>
    <style>
      .st0 {
        fill: none;
        stroke: #1e1e1c;
        stroke-linecap: round;
        stroke-linejoin: round;
        stroke-width: 1.2px;
      }

      .st1 {
        fill: #1d1d1b;
        font-family: Helvetica, Helvetica;
        font-size: 8px;
      }
    </style>
  </defs>
  <text class="st1" transform="translate(137.28 87.96)"><tspan x="0" y="0">41</tspan></text>
  <g id="_x34_1">
    <path class="st0" d="M194.88,77.95c-13.97,0-25.22-14.51-36.93-26.58-8.33-8.59-16.91-15.95-26.85-15.95h0c-23.92,0-39.86,42.52-63.78,42.52-11.96,0-21.92-10.63-31.89-21.26"/>
    <path class="st0" d="M194.91,14.17h0c-13.97,0-25.22,14.51-36.93,26.57-8.33,8.6-16.91,15.95-26.85,15.95-23.92,0-39.86-42.52-63.78-42.52-11.96,0-21.92,10.63-31.89,21.26"/>
    <g>
      <path class="st0" d="M35.43,35.43c-3.46,3.69-6.92,7.37-10.46,10.62"/>
      <path class="st0" d="M24.98,46.05c-3.5,3.2-7.07,5.97-10.81,7.88"/>
      <path class="st0" d="M14.17,38.18c3.74,1.91,7.31,4.67,10.81,7.87"/>
      <path class="st0" d="M35.47,56.69c-3.47-3.7-6.94-7.4-10.49-10.65"/>
    </g>
    <g>
      <path class="st0" d="M237.26,46.05c-13.76,12.59-26.26,31.91-42.38,31.91"/>
      <path class="st0" d="M269.29,38.19c-3.39-1.73-6.92-2.76-10.63-2.76-7.8,0-14.75,4.52-21.41,10.61"/>
      <path class="st0" d="M194.91,14.17c16.11,0,28.6,19.28,42.35,31.88"/>
      <path class="st0" d="M269.29,53.95c-3.38,1.73-6.89,2.75-10.6,2.75-7.81,0-14.78-4.54-21.44-10.64"/>
    </g>
  </g>
</svg>