<?xml version="1.0" encoding="UTF-8"?>
<svg id="Ebene_2" xmlns="http://www.w3.org/2000/svg" version="1.1" viewBox="0 0 311.81 85.04">
  <!-- Generator: Adobe Illustrator 29.1.0, SVG Export Plug-In . SVG Version: 2.1.0 Build 142)  -->
  <defs>
    <style>
      .st0 {
        fill: none;
        stroke: #1e1e1c;
        stroke-linecap: round;
        stroke-linejoin: round;
        stroke-width: 1.2px;
      }

      .st1 {
        fill: #1d1d1b;
        font-family: Helvetica, Helvetica;
        font-size: 8px;
      }
    </style>
  </defs>
  <text class="st1" transform="translate(123.11 76.62)"><tspan x="0" y="0">42</tspan></text>
  <g id="_x34_2">
    <path class="st0" d="M14.91,27.85c6.5-7.94,22.97-19.46,37.75-6.23,9.05,8.1-3.48,24.7-7.55,10.06-1.36-4.87-11.06-4.18-7.82,6.99,2.79,9.63-8.95,9.86-7.75,3.88,3.05-15.05-11.56-14.04-11.56,1.12,0,13.25,23.07,15.05,33.82,7.23"/>
    <path class="st0" d="M14.17,54.38c2.8-.78,5.38-1.95,7.49-3.48"/>
    <path class="st0" d="M15.1,16.96c2.49.96,4.98,2.47,7.43,4.67,9.05,8.1-3.48,24.7-7.55,10.06"/>
    <path class="st0" d="M21.66,50.9c10.12-7.72,16.85-15.11,23.35-23.05,6.5-7.94,22.97-19.46,37.75-6.23,9.05,8.1-3.48,24.7-7.55,10.06-1.36-4.87-11.06-4.18-7.82,6.99,2.79,9.63-8.95,9.86-7.75,3.88,3.05-15.05-11.56-14.04-11.56,1.12,0,13.25,23.07,15.05,33.82,7.23"/>
    <path class="st0" d="M81.9,50.9c10.12-7.72,16.85-15.11,23.35-23.05s22.97-19.46,37.75-6.23c9.05,8.1-3.48,24.7-7.55,10.06-1.36-4.87-11.06-4.18-7.82,6.99,2.79,9.63-8.95,9.86-7.75,3.88,3.05-15.05-11.56-14.04-11.56,1.12,0,13.25,23.07,15.05,33.82,7.23"/>
    <path class="st0" d="M142.12,50.9c10.12-7.72,16.85-15.11,23.35-23.05s22.97-19.46,37.75-6.23c9.05,8.1-3.48,24.7-7.55,10.06-1.36-4.87-11.06-4.18-7.82,6.99,2.79,9.63-8.95,9.86-7.75,3.88,3.05-15.05-11.56-14.04-11.56,1.12,0,13.25,23.07,15.05,33.82,7.23"/>
    <path class="st0" d="M240.7,38.15c-.41-10.25-11.97-7.96-11.97,5.52,0,6.31,5.23,10.02,11.86,11.33"/>
    <path class="st0" d="M202.32,50.9c10.12-7.72,16.85-15.11,23.35-23.05,3.18-3.87,8.72-8.6,15.27-10.88"/>
    <path class="st0" d="M232.62,50.9c2.96-2.26,5.64-4.49,8.1-6.72"/>
    <path class="st0" d="M51.83,50.9c10.12-7.72,16.85-15.11,23.35-23.05s22.97-19.46,37.75-6.23c9.05,8.1-3.48,24.7-7.55,10.06-1.36-4.87-11.06-4.18-7.82,6.99,2.79,9.63-8.95,9.86-7.75,3.88,3.05-15.05-11.56-14.04-11.56,1.12,0,13.25,23.07,15.05,33.82,7.23"/>
    <path class="st0" d="M112.18,50.9c10.12-7.72,16.85-15.11,23.35-23.05s22.97-19.46,37.75-6.23c9.05,8.1-3.48,24.7-7.55,10.06-1.36-4.87-11.06-4.18-7.82,6.99,2.79,9.63-8.95,9.86-7.75,3.88,3.05-15.05-11.56-14.04-11.56,1.12,0,13.25,23.07,15.05,33.82,7.23"/>
    <path class="st0" d="M172.37,50.9c10.12-7.72,16.85-15.11,23.35-23.05,6.5-7.94,22.97-19.46,37.75-6.23,9.05,8.1-3.48,24.7-7.55,10.06-1.36-4.87-11.06-4.18-7.82,6.99,2.79,9.63-8.95,9.86-7.75,3.88,3.05-15.05-11.56-14.04-11.56,1.12,0,13.25,23.07,15.05,33.82,7.23"/>
  </g>
</svg>