<?xml version="1.0" encoding="UTF-8"?>
<svg id="Ebene_2" xmlns="http://www.w3.org/2000/svg" version="1.1" viewBox="0 0 311.81 113.39">
  <!-- Generator: Adobe Illustrator 29.1.0, SVG Export Plug-In . SVG Version: 2.1.0 Build 142)  -->
  <defs>
    <style>
      .st0 {
        fill: none;
        stroke: #1e1e1c;
        stroke-linecap: round;
        stroke-linejoin: round;
        stroke-width: 1.2px;
      }

      .st1 {
        fill: #1d1d1b;
        font-family: Helvetica, Helvetica;
        font-size: 8px;
      }
    </style>
  </defs>
  <text class="st1" transform="translate(108.94 104.96)"><tspan x="0" y="0">43</tspan></text>
  <g id="_x34_3">
    <path class="st0" d="M107.26,56.09c5.98-9.35,20.66-15.88,37.93,6.02,9.71,12.32,15.21,4.18,27.47,22.93,0,0,10.33-16.2-9.42-28.95"/>
    <path class="st0" d="M163.22,56.09c5.98-9.35,20.66-15.88,37.93,6.02,4.33,5.49,7.82,6.92,11.45,8.48"/>
    <path class="st0" d="M51.23,56.09c5.98-9.35,20.66-15.88,37.93,6.02,9.71,12.32,15.21,4.18,27.47,22.93,0,0,10.33-16.2-9.42-28.95"/>
    <path class="st0" d="M14.14,47.83c5.69,1.3,12.18,5.51,19.09,14.27,9.71,12.32,15.21,4.18,27.47,22.93,0,0,10.33-16.2-9.42-28.95"/>
    <path class="st0" d="M107.26,45.61c5.98,9.35,20.66,15.88,37.93-6.02,9.71-12.32,15.21-4.19,27.47-22.93,0,0,10.33,16.2-9.42,28.95"/>
    <path class="st0" d="M163.22,45.61c5.98,9.35,20.66,15.88,37.93-6.02,4.33-5.49,7.82-6.92,11.45-8.48"/>
    <path class="st0" d="M51.23,45.61c5.98,9.35,20.66,15.88,37.93-6.02,9.71-12.32,15.21-4.19,27.47-22.93,0,0,10.33,16.2-9.42,28.95"/>
    <path class="st0" d="M14.14,53.87c5.69-1.3,12.18-5.51,19.09-14.27,9.71-12.32,15.21-4.19,27.47-22.93,0,0,10.33,16.2-9.42,28.95"/>
  </g>
</svg>