<?xml version="1.0" encoding="UTF-8"?>
<svg id="Ebene_2" xmlns="http://www.w3.org/2000/svg" version="1.1" viewBox="0 0 311.81 106.14">
  <!-- Generator: Adobe Illustrator 29.1.0, SVG Export Plug-In . SVG Version: 2.1.0 Build 142)  -->
  <defs>
    <style>
      .st0 {
        fill: none;
        stroke: #1e1e1c;
        stroke-linecap: round;
        stroke-linejoin: round;
        stroke-width: 1.2px;
      }

      .st1 {
        fill: #1d1d1b;
        font-family: Helvetica, Helvetica;
        font-size: 8px;
      }
    </style>
  </defs>
  <text class="st1" transform="translate(108.94 97.88)"><tspan x="0" y="0">44</tspan></text>
  <g id="_x34_4">
    <path class="st0" d="M69.44,43.05c.82,5.88,6.53,7.08,10.44,1.5l21.9-27.68c5.38-6.53,13.82.08,8.27,7.1l-29.85,41.76c-5.55,7.5,4.1,15.98,10.45,7.18l23.81-32.3c7.5-10.6,13.96-10.24,15.25-2.78.26,1.51.91,4.62,1.02,5.22"/>
    <path class="st0" d="M130.73,43.05c.82,5.88,6.52,7.08,10.44,1.5l21.9-27.68c5.38-6.53,13.82.08,8.27,7.1l-29.85,41.76c-5.55,7.5,4.1,15.98,10.45,7.18l23.81-32.3c7.5-10.6,13.96-10.24,15.25-2.78.26,1.51.91,4.62,1.02,5.22"/>
    <path class="st0" d="M192.01,43.05c.82,5.88,6.52,7.08,10.44,1.5"/>
    <path class="st0" d="M14.17,47.98c1.5-.39,3.07-1.51,4.42-3.44l21.9-27.68c5.38-6.53,13.82.08,8.27,7.1l-29.85,41.76c-5.55,7.5,4.1,15.98,10.45,7.18l23.81-32.3c7.5-10.6,13.96-10.24,15.25-2.78.26,1.51.91,4.62,1.02,5.22"/>
    <path class="st0" d="M192.01,43.05c.82,5.88,6.52,7.08,10.44,1.5l10.15-12.83"/>
    <path class="st0" d="M69.44,47.78c.82-5.88,6.53-7.08,10.44-1.5l21.9,27.68c5.38,6.53,13.82-.08,8.27-7.1l-29.85-41.76c-5.55-7.5,4.1-15.98,10.45-7.18l23.81,32.3c7.5,10.6,13.96,10.24,15.25,2.78.26-1.51.91-4.62,1.02-5.22"/>
    <path class="st0" d="M130.73,47.78c.82-5.88,6.52-7.08,10.44-1.5l21.9,27.68c5.38,6.53,13.82-.08,8.27-7.1l-29.85-41.76c-5.55-7.5,4.1-15.98,10.45-7.18l23.81,32.3c7.5,10.6,13.96,10.24,15.25,2.78.26-1.51.91-4.62,1.02-5.22"/>
    <path class="st0" d="M192.01,47.78c.82-5.88,6.52-7.08,10.44-1.5"/>
    <path class="st0" d="M14.17,42.85c1.5.39,3.07,1.51,4.42,3.44l21.9,27.68c5.38,6.53,13.82-.08,8.27-7.1L18.91,25.11c-5.55-7.5,4.1-15.98,10.45-7.18l23.81,32.3c7.5,10.6,13.96,10.24,15.25,2.78.26-1.51.91-4.62,1.02-5.22"/>
    <path class="st0" d="M192.01,47.78c.82-5.88,6.52-7.08,10.44-1.5l10.15,12.83"/>
  </g>
</svg>