<?xml version="1.0" encoding="UTF-8"?>
<svg id="Ebene_2" xmlns="http://www.w3.org/2000/svg" version="1.1" viewBox="0 0 311.81 93.9">
  <!-- Generator: Adobe Illustrator 29.1.0, SVG Export Plug-In . SVG Version: 2.1.0 Build 142)  -->
  <defs>
    <style>
      .st0 {
        fill: none;
        stroke: #1e1e1c;
        stroke-linecap: round;
        stroke-linejoin: round;
        stroke-width: 1.2px;
      }

      .st1 {
        fill: #1d1d1b;
        font-family: Helvetica, Helvetica;
        font-size: 8px;
      }
    </style>
  </defs>
  <text class="st1" transform="translate(116.02 85.41)"><tspan x="0" y="0">45</tspan></text>
  <g id="_x34_5">
    <path class="st0" d="M176.5,48.54c-9.67,3.45-22.67,14.35-33.4,16.86-13.24,3.11-24.16-4.64-24.16-15.76,0-11.68,15.68-12.6,15.68-2.79,0,6.26-8.38,4.99-8.38,1.68"/>
    <path class="st0" d="M226.76,48.54c-9.67,3.45-22.66,14.35-33.4,16.86-13.24,3.11-24.16-4.64-24.16-15.76,0-11.68,15.68-12.6,15.68-2.79,0,6.26-8.38,4.99-8.38,1.68"/>
    <path class="st0" d="M126.19,48.54c-9.67,3.45-22.66,14.35-33.4,16.86-13.24,3.11-24.16-4.64-24.16-15.76,0-11.68,15.68-12.6,15.68-2.79,0,6.26-8.38,4.99-8.38,1.68"/>
    <path class="st0" d="M75.91,48.54c-9.67,3.45-22.67,14.35-33.4,16.86-13.24,3.11-24.16-4.64-24.16-15.76,0-11.68,15.68-12.6,15.68-2.79,0,6.26-8.38,4.99-8.38,1.68"/>
    <path class="st0" d="M25.6,48.54c-3.47,1.24-7.37,3.42-11.43,5.85"/>
    <path class="st0" d="M201.2,31.72c-9.67-3.45-22.66-14.35-33.4-16.86-13.24-3.11-24.16,4.64-24.16,15.76,0,11.68,15.68,12.6,15.68,2.79,0-6.26-8.38-4.99-8.38-1.68"/>
    <path class="st0" d="M226.77,18.24c-2.99-1.51-5.93-2.71-8.7-3.37-13.24-3.11-24.16,4.64-24.16,15.76,0,11.68,15.68,12.6,15.68,2.79,0-6.26-8.38-4.99-8.38-1.68"/>
    <path class="st0" d="M150.89,31.72c-9.67-3.45-22.66-14.35-33.4-16.86-13.24-3.11-24.16,4.64-24.16,15.76,0,11.68,15.68,12.6,15.68,2.79,0-6.26-8.38-4.99-8.38-1.68"/>
    <path class="st0" d="M100.61,31.72c-9.67-3.45-22.66-14.35-33.4-16.86-13.24-3.11-24.16,4.64-24.16,15.76,0,11.68,15.68,12.6,15.68,2.79,0-6.26-8.38-4.99-8.38-1.68"/>
    <path class="st0" d="M50.3,31.72c-9.67-3.45-22.67-14.35-33.4-16.86"/>
  </g>
</svg>