<?xml version="1.0" encoding="UTF-8"?>
<svg id="Ebene_2" xmlns="http://www.w3.org/2000/svg" version="1.1" viewBox="0 0 311.81 99.21">
  <!-- Generator: Adobe Illustrator 29.1.0, SVG Export Plug-In . SVG Version: 2.1.0 Build 142)  -->
  <defs>
    <style>
      .st0 {
        fill: none;
        stroke: #1e1e1c;
        stroke-linecap: round;
        stroke-linejoin: round;
        stroke-width: 1.2px;
      }

      .st1 {
        fill: #1d1d1b;
        font-family: Helvetica, Helvetica;
        font-size: 8px;
      }
    </style>
  </defs>
  <text class="st1" transform="translate(116.02 90.79)"><tspan x="0" y="0">46</tspan></text>
  <g id="_x34_6">
    <path class="st0" d="M92.94,35.97c4.5,7.04,15.55,11.95,28.55-4.53,7.3-9.27,11.44-3.15,20.67-17.26,0,0,7.78,12.2-7.08,21.79"/>
    <path class="st0" d="M134.96,35.97c4.5,7.04,15.55,11.95,28.54-4.53,7.3-9.27,11.44-3.15,20.68-17.26,0,0,7.78,12.2-7.09,21.79"/>
    <path class="st0" d="M177.1,36.03c4.5,7.04,15.55,11.95,28.54-4.53,7.31-9.27,11.45-3.15,20.68-17.26"/>
    <path class="st0" d="M50.78,35.97c4.5,7.04,15.55,11.95,28.55-4.53,7.3-9.27,11.44-3.15,20.67-17.26,0,0,7.78,12.2-7.08,21.79"/>
    <path class="st0" d="M14.17,41.12c5.62,2.92,13.84,1.97,23.02-9.69,7.3-9.27,11.44-3.15,20.67-17.26,0,0,7.78,12.2-7.08,21.79"/>
    <path class="st0" d="M158.47,49.07c-4.5-7.04-15.55-11.95-28.55,4.53-7.3,9.27-11.45,3.15-20.68,17.26,0,0-7.78-12.2,7.09-21.79"/>
    <path class="st0" d="M116.45,49.07c-4.5-7.04-15.55-11.95-28.55,4.53-7.3,9.27-11.44,3.15-20.68,17.26,0,0-7.78-12.2,7.09-21.79"/>
    <path class="st0" d="M74.31,49.02c-4.5-7.04-15.55-11.95-28.55,4.53-7.31,9.27-11.45,3.15-20.68,17.26,0,0-7.78-12.2,7.08-21.79"/>
    <path class="st0" d="M32.16,49.02c-3.2-5.02-9.74-8.95-17.95-4.83"/>
    <path class="st0" d="M200.63,49.07c-4.5-7.04-15.55-11.95-28.55,4.53-7.3,9.27-11.44,3.15-20.67,17.26,0,0-7.78-12.2,7.09-21.79"/>
    <path class="st0" d="M226.32,43.57c-3.7,1.47-7.8,4.57-12.1,10.03-7.3,9.27-11.44,3.15-20.67,17.26,0,0-7.78-12.2,7.09-21.79"/>
  </g>
</svg>