<?xml version="1.0" encoding="UTF-8"?>
<svg xmlns="http://www.w3.org/2000/svg" version="1.1" viewBox="0 0 340.2 101.54">
  <!-- Generator: Adobe Illustrator 29.1.0, SVG Export Plug-In . SVG Version: 2.1.0 Build 142)  -->
  <defs>
    <style>
      .st0 {
        stroke-miterlimit: 10;
        stroke-width: .6px;
      }

      .st0, .st1 {
        fill: none;
        stroke: #1d1d1b;
        stroke-linecap: round;
      }

      .st1 {
        stroke-linejoin: round;
        stroke-width: 1.2px;
      }

      .st2 {
        display: none;
      }
    </style>
  </defs>
  <g id="Skala" class="st2">
    <path class="st0" d="M85.08,56.69c0,15.66-12.69,28.35-28.35,28.35s-28.35-12.69-28.35-28.35,12.69-28.35,28.35-28.35,28.35,12.69,28.35,28.35Z"/>
    <line class="st0" x1="56.74" y1="28.35" x2="56.74" y2="85.04"/>
    <line class="st0" x1="28.39" y1="56.69" x2="311.85" y2="56.69"/>
    <line class="st0" x1="56.74" y1="28.35" x2="311.85" y2="28.35"/>
    <line class="st0" x1="42.56" y1="31.89" x2="311.85" y2="31.89"/>
    <line class="st0" x1="31.93" y1="42.52" x2="311.85" y2="42.52"/>
    <line class="st0" x1="31.93" y1="70.87" x2="311.85" y2="70.87"/>
    <line class="st0" x1="42.56" y1="81.5" x2="311.85" y2="81.5"/>
    <line class="st0" x1="56.74" y1="85.04" x2="311.85" y2="85.04"/>
    <line class="st0" x1="32.19" y1="70.87" x2="56.74" y2="56.69"/>
    <line class="st0" x1="42.56" y1="81.24" x2="56.74" y2="56.69"/>
    <line class="st0" x1="56.74" y1="56.69" x2="42.56" y2="32.15"/>
    <line class="st0" x1="56.74" y1="56.69" x2="32.19" y2="42.52"/>
    <line class="st0" x1="70.91" y1="42.52" x2="70.91" y2="56.69"/>
    <line class="st0" x1="85.08" y1="31.89" x2="85.08" y2="56.69"/>
    <line class="st0" x1="99.26" y1="28.35" x2="99.26" y2="56.69"/>
    <line class="st0" x1="113.43" y1="31.89" x2="113.43" y2="56.69"/>
    <line class="st0" x1="127.6" y1="42.52" x2="127.6" y2="56.69"/>
    <line class="st0" x1="240.99" y1="42.52" x2="240.99" y2="56.69"/>
    <line class="st0" x1="255.16" y1="31.89" x2="255.16" y2="56.69"/>
    <line class="st0" x1="269.33" y1="28.35" x2="269.33" y2="56.69"/>
    <line class="st0" x1="283.51" y1="31.89" x2="283.51" y2="56.69"/>
    <line class="st0" x1="297.68" y1="42.52" x2="297.68" y2="56.69"/>
    <line class="st0" x1="212.64" y1="70.87" x2="212.64" y2="56.69"/>
    <line class="st0" x1="198.47" y1="81.5" x2="198.47" y2="56.69"/>
    <line class="st0" x1="184.29" y1="85.04" x2="184.29" y2="56.69"/>
    <line class="st0" x1="170.12" y1="81.5" x2="170.12" y2="56.69"/>
    <line class="st0" x1="155.95" y1="70.87" x2="155.95" y2="56.69"/>
  </g>
  <g id="_x34_7_x5F_78_x25_">
    <path class="st1" d="M66.64,47.42c-2.76,11.06,11.06,11.06,22.11,0"/>
    <path class="st1" d="M110.86,47.42c2.76-11.06-11.06-11.06-22.11,0"/>
    <path class="st1" d="M110.86,47.42c-2.76,11.06,11.05,11.06,22.11,0"/>
    <path class="st1" d="M155.08,47.42c2.77-11.06-11.05-11.06-22.11,0"/>
    <path class="st1" d="M155.08,47.42c-2.76,11.06,11.05,11.06,22.11,0"/>
    <path class="st1" d="M199.3,47.42c2.76-11.06-11.05-11.06-22.11,0"/>
    <path class="st1" d="M199.3,47.42c-2.76,11.06,11.06,11.06,22.11,0"/>
    <path class="st1" d="M243.52,47.42c2.76-11.06-11.06-11.06-22.11,0"/>
    <path class="st1" d="M270.61,43.27c-1.68,1.15-3.36,2.53-4.98,4.15"/>
    <path class="st1" d="M243.52,47.42c-2.76,11.06,11.06,11.06,22.11,0"/>
    <path class="st1" d="M88.75,61.24c-2.76-11.06,11.06-11.06,22.11,0"/>
    <path class="st1" d="M265.63,61.24c-1.35-5.38,1.24-8.15,5.53-8.29"/>
    <path class="st1" d="M132.97,61.24c2.76,11.05-11.06,11.05-22.11,0"/>
    <path class="st1" d="M88.75,61.24c2.76,11.05-11.06,11.05-22.11,0"/>
    <path class="st1" d="M132.97,61.24c-2.76-11.06,11.06-11.06,22.11,0"/>
    <path class="st1" d="M177.19,61.24c2.76,11.05-11.05,11.05-22.11,0"/>
    <path class="st1" d="M177.19,61.24c-2.77-11.06,11.05-11.06,22.11,0"/>
    <path class="st1" d="M221.41,61.24c2.76,11.05-11.06,11.05-22.11,0"/>
    <path class="st1" d="M221.41,61.24c-2.76-11.06,11.05-11.06,22.11,0"/>
    <path class="st1" d="M265.63,61.24c2.77,11.05-11.05,11.05-22.11,0"/>
  </g>
  <g id="_x34_6" class="st2">
    <path class="st1" d="M139.72,41.49c4.66,7.3,16.12,12.39,29.59-4.69,7.57-9.61,11.86-3.26,21.42-17.89,0,0,8.06,12.64-7.34,22.58"/>
    <path class="st1" d="M183.27,41.49c4.66,7.3,16.12,12.39,29.58-4.69,7.57-9.61,11.86-3.26,21.43-17.89,0,0,8.06,12.64-7.35,22.58"/>
    <path class="st1" d="M226.95,41.55c4.66,7.3,16.12,12.39,29.58-4.69,7.58-9.61,11.87-3.26,21.43-17.89"/>
    <path class="st1" d="M96.02,41.49c4.66,7.3,16.12,12.39,29.59-4.69,7.57-9.61,11.86-3.26,21.42-17.89,0,0,8.06,12.64-7.34,22.58"/>
    <path class="st1" d="M58.08,46.83c5.82,3.03,14.34,2.04,23.86-10.04,7.57-9.61,11.86-3.26,21.42-17.89,0,0,8.06,12.64-7.34,22.58"/>
    <path class="st1" d="M207.64,55.07c-4.66-7.3-16.12-12.39-29.59,4.69-7.57,9.61-11.87,3.26-21.43,17.89,0,0-8.06-12.64,7.35-22.58"/>
    <path class="st1" d="M164.09,55.07c-4.66-7.3-16.12-12.39-29.59,4.69-7.57,9.61-11.86,3.26-21.43,17.89,0,0-8.06-12.64,7.35-22.58"/>
    <path class="st1" d="M120.41,55.02c-4.66-7.3-16.12-12.39-29.59,4.69-7.58,9.61-11.87,3.26-21.43,17.89,0,0-8.06-12.64,7.34-22.58"/>
    <path class="st1" d="M76.72,55.02c-3.32-5.2-10.1-9.28-18.6-5.01"/>
    <path class="st1" d="M251.34,55.07c-4.66-7.3-16.12-12.39-29.59,4.69-7.57,9.61-11.86,3.26-21.42,17.89,0,0-8.06-12.64,7.35-22.58"/>
    <path class="st1" d="M277.96,49.37c-3.84,1.52-8.08,4.74-12.54,10.4-7.57,9.61-11.86,3.26-21.42,17.89,0,0-8.06-12.64,7.35-22.58"/>
  </g>
  <g id="_x34_5" class="st2">
    <path class="st1" d="M203.76,63.89c-9.12,3.25-21.38,13.53-31.5,15.9-12.49,2.93-22.79-4.38-22.79-14.86,0-11.02,14.79-11.88,14.79-2.63,0,5.9-7.9,4.71-7.9,1.58"/>
    <path class="st1" d="M251.16,63.89c-9.12,3.25-21.37,13.53-31.5,15.9-12.49,2.93-22.79-4.38-22.79-14.86,0-11.02,14.79-11.88,14.79-2.63,0,5.9-7.9,4.71-7.9,1.58"/>
    <path class="st1" d="M156.31,63.89c-9.12,3.25-21.37,13.53-31.5,15.9-12.49,2.93-22.79-4.38-22.79-14.86,0-11.02,14.79-11.88,14.79-2.63,0,5.9-7.9,4.71-7.9,1.58"/>
    <path class="st1" d="M108.89,63.89c-9.12,3.25-21.38,13.53-31.5,15.9-12.49,2.93-22.79-4.38-22.79-14.86,0-11.02,14.79-11.88,14.79-2.63,0,5.9-7.9,4.71-7.9,1.58"/>
    <path class="st1" d="M61.44,63.89c-3.27,1.17-6.95,3.23-10.78,5.52"/>
    <path class="st1" d="M227.05,48.03c-9.12-3.25-21.37-13.53-31.5-15.9-12.49-2.93-22.79,4.38-22.79,14.86,0,11.02,14.79,11.88,14.79,2.63,0-5.9-7.9-4.71-7.9-1.58"/>
    <path class="st1" d="M251.17,35.31c-2.82-1.42-5.59-2.56-8.21-3.18-12.49-2.93-22.79,4.38-22.79,14.86,0,11.02,14.79,11.88,14.79,2.63,0-5.9-7.9-4.71-7.9-1.58"/>
    <path class="st1" d="M179.6,48.03c-9.12-3.25-21.37-13.53-31.5-15.9-12.49-2.93-22.79,4.38-22.79,14.86,0,11.02,14.79,11.88,14.79,2.63,0-5.9-7.9-4.71-7.9-1.58"/>
    <path class="st1" d="M132.18,48.03c-9.12-3.25-21.37-13.53-31.5-15.9-12.49-2.93-22.79,4.38-22.79,14.86,0,11.02,14.79,11.88,14.79,2.63,0-5.9-7.9-4.71-7.9-1.58"/>
    <path class="st1" d="M84.73,48.03c-9.12-3.25-21.38-13.53-31.5-15.9"/>
  </g>
  <g id="_x34_4" class="st2">
    <path class="st1" d="M111.95,47.22c.79,5.67,6.3,6.83,10.07,1.45l21.13-26.71c5.19-6.3,13.33.08,7.98,6.85l-28.8,40.29c-5.35,7.24,3.96,15.42,10.08,6.93l22.97-31.16c7.24-10.23,13.47-9.88,14.71-2.68.25,1.46.88,4.46.98,5.04"/>
    <path class="st1" d="M171.08,47.22c.79,5.67,6.29,6.83,10.07,1.45l21.13-26.71c5.19-6.3,13.33.08,7.98,6.85l-28.8,40.29c-5.35,7.24,3.96,15.42,10.08,6.93l22.97-31.16c7.24-10.23,13.47-9.88,14.71-2.68.25,1.46.88,4.46.98,5.04"/>
    <path class="st1" d="M230.21,47.22c.79,5.67,6.29,6.83,10.07,1.45"/>
    <path class="st1" d="M58.63,51.98c1.45-.38,2.96-1.46,4.26-3.32l21.13-26.71c5.19-6.3,13.33.08,7.98,6.85l-28.8,40.29c-5.35,7.24,3.96,15.42,10.08,6.93l22.97-31.16c7.24-10.23,13.47-9.88,14.71-2.68.25,1.46.88,4.46.98,5.04"/>
    <path class="st1" d="M230.21,47.22c.79,5.67,6.29,6.83,10.07,1.45l9.79-12.38"/>
    <path class="st1" d="M111.95,51.79c.79-5.67,6.3-6.83,10.07-1.45l21.13,26.71c5.19,6.3,13.33-.08,7.98-6.85l-28.8-40.29c-5.35-7.24,3.96-15.42,10.08-6.93l22.97,31.16c7.24,10.23,13.47,9.88,14.71,2.68.25-1.46.88-4.46.98-5.04"/>
    <path class="st1" d="M171.08,51.79c.79-5.67,6.29-6.83,10.07-1.45l21.13,26.71c5.19,6.3,13.33-.08,7.98-6.85l-28.8-40.29c-5.35-7.24,3.96-15.42,10.08-6.93l22.97,31.16c7.24,10.23,13.47,9.88,14.71,2.68.25-1.46.88-4.46.98-5.04"/>
    <path class="st1" d="M230.21,51.79c.79-5.67,6.29-6.83,10.07-1.45"/>
    <path class="st1" d="M58.63,47.03c1.45.38,2.96,1.46,4.26,3.32l21.13,26.71c5.19,6.3,13.33-.08,7.98-6.85l-28.8-40.29c-5.35-7.24,3.96-15.42,10.08-6.93l22.97,31.16c7.24,10.23,13.47,9.88,14.71,2.68.25-1.46.88-4.46.98-5.04"/>
    <path class="st1" d="M230.21,51.79c.79-5.67,6.29-6.83,10.07-1.45l9.79,12.38"/>
  </g>
  <g id="_x34_3" class="st2">
    <path class="st1" d="M160.25,47.04c5.98-9.35,20.66-15.88,37.93,6.02,9.71,12.32,15.21,4.18,27.47,22.93,0,0,10.33-16.2-9.42-28.95"/>
    <path class="st1" d="M216.21,47.04c5.98-9.35,20.66-15.88,37.93,6.02,4.33,5.49,7.82,6.92,11.45,8.48"/>
    <path class="st1" d="M104.22,47.04c5.98-9.35,20.66-15.88,37.93,6.02,9.71,12.32,15.21,4.18,27.47,22.93,0,0,10.33-16.2-9.42-28.95"/>
    <path class="st1" d="M67.13,38.78c5.69,1.3,12.18,5.51,19.09,14.27,9.71,12.32,15.21,4.18,27.47,22.93,0,0,10.33-16.2-9.42-28.95"/>
    <path class="st1" d="M160.25,36.56c5.98,9.35,20.66,15.88,37.93-6.02,9.71-12.32,15.21-4.19,27.47-22.93,0,0,10.33,16.2-9.42,28.95"/>
    <path class="st1" d="M216.21,36.56c5.98,9.35,20.66,15.88,37.93-6.02,4.33-5.49,7.82-6.92,11.45-8.48"/>
    <path class="st1" d="M104.22,36.56c5.98,9.35,20.66,15.88,37.93-6.02,9.71-12.32,15.21-4.19,27.47-22.93,0,0,10.33,16.2-9.42,28.95"/>
    <path class="st1" d="M67.13,44.82c5.69-1.3,12.18-5.51,19.09-14.27,9.71-12.32,15.21-4.19,27.47-22.93,0,0,10.33,16.2-9.42,28.95"/>
  </g>
  <g id="_x34_2" class="st2">
    <path class="st1" d="M30.16,30.96c6.37-7.78,22.5-19.06,36.98-6.1,8.86,7.93-3.41,24.19-7.4,9.85-1.33-4.77-10.83-4.09-7.66,6.85,2.73,9.43-8.77,9.66-7.59,3.8,2.99-14.74-11.32-13.75-11.32,1.1,0,12.98,22.6,14.74,33.13,7.08"/>
    <path class="st1" d="M29.44,56.95c2.74-.76,5.27-1.91,7.34-3.41"/>
    <path class="st1" d="M30.35,20.29c2.44.94,4.88,2.42,7.28,4.57,8.86,7.93-3.41,24.19-7.4,9.85"/>
    <path class="st1" d="M36.77,53.54c9.91-7.56,16.5-14.8,22.87-22.58,6.37-7.78,22.5-19.06,36.98-6.1,8.86,7.93-3.41,24.19-7.4,9.85-1.33-4.77-10.83-4.09-7.66,6.85,2.73,9.43-8.77,9.66-7.59,3.8,2.99-14.74-11.32-13.75-11.32,1.1,0,12.98,22.6,14.74,33.13,7.08"/>
    <path class="st1" d="M95.78,53.54c9.91-7.56,16.5-14.8,22.87-22.58,6.37-7.78,22.5-19.06,36.98-6.1,8.86,7.93-3.41,24.19-7.4,9.85-1.33-4.77-10.83-4.09-7.66,6.85,2.73,9.43-8.77,9.66-7.59,3.8,2.99-14.74-11.32-13.75-11.32,1.1,0,12.98,22.6,14.74,33.13,7.08"/>
    <path class="st1" d="M154.76,53.54c9.91-7.56,16.5-14.8,22.87-22.58,6.37-7.78,22.5-19.06,36.98-6.1,8.86,7.93-3.41,24.19-7.4,9.85-1.33-4.77-10.83-4.09-7.66,6.85,2.73,9.43-8.77,9.66-7.59,3.8,2.99-14.74-11.32-13.75-11.32,1.1,0,12.98,22.6,14.74,33.13,7.08"/>
    <path class="st1" d="M251.32,41.05c-.4-10.04-11.72-7.8-11.72,5.41,0,6.18,5.12,9.81,11.62,11.1"/>
    <path class="st1" d="M213.73,53.54c9.91-7.56,16.5-14.8,22.87-22.58,3.11-3.79,8.54-8.42,14.96-10.66"/>
    <path class="st1" d="M243.41,53.54c2.9-2.21,5.52-4.4,7.93-6.58"/>
    <path class="st1" d="M66.32,53.54c9.91-7.56,16.5-14.8,22.87-22.58,6.37-7.78,22.5-19.06,36.98-6.1,8.86,7.93-3.41,24.19-7.4,9.85-1.33-4.77-10.83-4.09-7.66,6.85,2.73,9.43-8.77,9.66-7.59,3.8,2.99-14.74-11.32-13.75-11.32,1.1,0,12.98,22.6,14.74,33.13,7.08"/>
    <path class="st1" d="M125.44,53.54c9.91-7.56,16.5-14.8,22.87-22.58,6.37-7.78,22.5-19.06,36.98-6.1,8.86,7.93-3.41,24.19-7.4,9.85-1.33-4.77-10.83-4.09-7.66,6.85,2.73,9.43-8.77,9.66-7.59,3.8,2.99-14.74-11.32-13.75-11.32,1.1,0,12.98,22.6,14.74,33.13,7.08"/>
    <path class="st1" d="M184.39,53.54c9.91-7.56,16.5-14.8,22.87-22.58,6.37-7.78,22.5-19.06,36.98-6.1,8.86,7.93-3.41,24.19-7.4,9.85-1.33-4.77-10.83-4.09-7.66,6.85,2.73,9.43-8.77,9.66-7.59,3.8,2.99-14.74-11.32-13.75-11.32,1.1,0,12.98,22.6,14.74,33.13,7.08"/>
  </g>
</svg>