<?xml version="1.0" encoding="UTF-8"?>
<svg id="Ebene_2" xmlns="http://www.w3.org/2000/svg" version="1.1" viewBox="0 0 311.81 75.12">
  <!-- Generator: Adobe Illustrator 29.1.0, SVG Export Plug-In . SVG Version: 2.1.0 Build 142)  -->
  <defs>
    <style>
      .st0 {
        fill: none;
        stroke: #1f1f1d;
        stroke-linecap: round;
        stroke-linejoin: round;
        stroke-width: 1.2px;
      }

      .st1 {
        fill: #1d1d1b;
        font-family: Helvetica, Helvetica;
        font-size: 8px;
      }
    </style>
  </defs>
  <text class="st1" transform="translate(116.02 66.41)"><tspan x="0" y="0">47</tspan></text>
  <g id="_x34_7_x5F_78_x25_">
    <path class="st0" d="M14.54,22.78c-2.86,11.48,11.48,11.48,22.94,0"/>
    <path class="st0" d="M60.43,22.78c2.86-11.48-11.48-11.48-22.94,0"/>
    <path class="st0" d="M60.43,22.78c-2.86,11.48,11.46,11.48,22.94,0"/>
    <path class="st0" d="M106.31,22.78c2.87-11.48-11.46-11.48-22.94,0"/>
    <path class="st0" d="M106.31,22.78c-2.86,11.48,11.46,11.48,22.94,0"/>
    <path class="st0" d="M152.2,22.78c2.86-11.48-11.46-11.48-22.94,0"/>
    <path class="st0" d="M152.2,22.78c-2.86,11.48,11.48,11.48,22.94,0"/>
    <path class="st0" d="M198.09,22.78c2.86-11.48-11.48-11.48-22.94,0"/>
    <path class="st0" d="M226.2,18.47c-1.75,1.19-3.48,2.63-5.16,4.31"/>
    <path class="st0" d="M198.09,22.78c-2.86,11.48,11.48,11.48,22.94,0"/>
    <path class="st0" d="M37.48,37.12c-2.86-11.48,11.48-11.48,22.94,0"/>
    <path class="st0" d="M221.03,37.12c-1.4-5.58,1.29-8.45,5.74-8.6"/>
    <path class="st0" d="M83.37,37.12c2.86,11.46-11.48,11.46-22.94,0"/>
    <path class="st0" d="M37.48,37.12c2.86,11.46-11.48,11.46-22.94,0"/>
    <path class="st0" d="M83.37,37.12c-2.86-11.48,11.48-11.48,22.94,0"/>
    <path class="st0" d="M129.26,37.12c2.86,11.46-11.46,11.46-22.94,0"/>
    <path class="st0" d="M129.26,37.12c-2.87-11.48,11.46-11.48,22.94,0"/>
    <path class="st0" d="M175.15,37.12c2.86,11.46-11.48,11.46-22.94,0"/>
    <path class="st0" d="M175.15,37.12c-2.86-11.48,11.46-11.48,22.94,0"/>
    <path class="st0" d="M221.03,37.12c2.87,11.46-11.46,11.46-22.94,0"/>
  </g>
</svg>