<?xml version="1.0" encoding="UTF-8"?>
<svg id="Ebene_2" xmlns="http://www.w3.org/2000/svg" version="1.1" viewBox="0 0 311.81 70.87">
  <!-- Generator: Adobe Illustrator 29.1.0, SVG Export Plug-In . SVG Version: 2.1.0 Build 142)  -->
  <defs>
    <style>
      .st0 {
        fill: none;
        stroke: #1e1e1c;
        stroke-linecap: round;
        stroke-linejoin: round;
        stroke-width: 1.2px;
      }

      .st1 {
        fill: #1d1d1b;
        font-family: Helvetica, Helvetica;
        font-size: 8px;
      }
    </style>
  </defs>
  <text class="st1" transform="translate(108.94 62.45)"><tspan x="0" y="0">47</tspan></text>
  <g id="_x34_7_x5F_78_x25_">
    <path class="st0" d="M14.52,22.21c-2.67,10.71,10.71,10.71,21.41,0"/>
    <path class="st0" d="M57.35,22.21c2.67-10.71-10.71-10.71-21.41,0"/>
    <path class="st0" d="M57.35,22.21c-2.67,10.71,10.7,10.71,21.41,0"/>
    <path class="st0" d="M100.17,22.21c2.68-10.71-10.7-10.71-21.41,0"/>
    <path class="st0" d="M100.17,22.21c-2.67,10.71,10.7,10.71,21.41,0"/>
    <path class="st0" d="M143,22.21c2.67-10.71-10.7-10.71-21.41,0"/>
    <path class="st0" d="M143,22.21c-2.67,10.71,10.71,10.71,21.41,0"/>
    <path class="st0" d="M185.83,22.21c2.67-10.71-10.71-10.71-21.41,0"/>
    <path class="st0" d="M212.07,18.19c-1.63,1.11-3.25,2.45-4.82,4.02"/>
    <path class="st0" d="M185.83,22.21c-2.67,10.71,10.71,10.71,21.41,0"/>
    <path class="st0" d="M35.93,35.59c-2.67-10.71,10.71-10.71,21.41,0"/>
    <path class="st0" d="M207.24,35.59c-1.31-5.21,1.2-7.89,5.36-8.03"/>
    <path class="st0" d="M78.76,35.59c2.67,10.7-10.71,10.7-21.41,0"/>
    <path class="st0" d="M35.93,35.59c2.67,10.7-10.71,10.7-21.41,0"/>
    <path class="st0" d="M78.76,35.59c-2.67-10.71,10.71-10.71,21.41,0"/>
    <path class="st0" d="M121.59,35.59c2.67,10.7-10.7,10.7-21.41,0"/>
    <path class="st0" d="M121.59,35.59c-2.68-10.71,10.7-10.71,21.41,0"/>
    <path class="st0" d="M164.42,35.59c2.67,10.7-10.71,10.7-21.41,0"/>
    <path class="st0" d="M164.42,35.59c-2.67-10.71,10.7-10.71,21.41,0"/>
    <path class="st0" d="M207.24,35.59c2.68,10.7-10.7,10.7-21.41,0"/>
  </g>
</svg>