<?xml version="1.0" encoding="UTF-8"?>
<svg xmlns="http://www.w3.org/2000/svg" version="1.1" viewBox="0 0 188 118.5">
  <!-- Generator: Adobe Illustrator 29.1.0, SVG Export Plug-In . SVG Version: 2.1.0 Build 142)  -->
  <defs>
    <style>
      .st0 {
        fill-rule: evenodd;
      }

      .st1 {
        display: none;
      }
    </style>
  </defs>
  <g id="_x34_8">
    <path class="st0" d="M93.7,10.25c.01,1.53-.22,3.29.42,4.26-.09.96.16,2.5.06,3.72-.03.43-.59,1.95.3,1.86.77-.08.16-1.44.12-1.86-.04-.51.31-.99.3-1.5,0-.21-.18-.52-.18-.78-.01-.97.53-2.4.48-3.78,0-.28-.12-.57-.12-.84,0-1.11.47-2.9.96-3.24.53-.36,1.84-.13,2.34.18.7.44.68,1.27,1.02,2.16.19.5.76.88.96,1.38.09.21.05.46.12.72.08.28.27.51.3.72.4,2.93-1.31,4.38-1.92,6.66.21.67.43,1.33.6,2.04,1.22.52,2.38,1.14,3.66,1.68.56.23,1.23.31,1.8.6.98.49,1.81,1.08,2.82,1.26.9.16,1.99-.04,2.88-.24.54-.12.9-.45,1.68-.36.22.02.42.2.66.24.75.13,1.15.13,1.68.54.2.56.99,1.06,1.44,1.68.4.55.63,1.46,1.02,2.1.21.34.63.66.66.96.03.24-.18.49-.18.72,0,.18.17.89.3,1.2.19.46.77.75.9,1.26.08.31-.04.77.06,1.02.17.44.7.54.66,1.02-.05.52-.83.64-.9,1.02.35,1.55,1.05,2.75,3.06,2.64.28.54.91.73,1.38,1.08.41-.07.81-.09,1.02.18-.02.38-.31.87.12,1.02.76-.39,1.84-1.1,2.76-.48.25.17.33.64.54.9.23.28.64.37.72.66.1.39-.12.69-.24,1.02.17.39.34.78.6,1.08.46,0,.68.24,1.02.36.03.88,1.36.71,1.26,1.44-.08.61-1.25.29-1.5.9.36.46.64,1,.78,1.68.58.08,1.23.09,1.56.42.08.24.16.48.12.84.44.34.48.92.72,1.38.14.26.38.32.66.6.23.23.25.48.48.6.16.09.39.06.54.12.46.18.66.73,1.2.84.22.6.31,1.33.6,1.86-.02.26-.31.25-.3.54.46.85-.32,1.45-.6,2.1.29.64-.08,1.14-.48,1.44-.17,1.92-.66,3.37-.9,5.1-.34.19-.38.64-.6.9-.13.15-.38.2-.54.36-.63.65-.87,1.62-1.38,1.98-.83.58-2.3.04-2.04,1.56.05.27.33.5.42.78.05.15-.03.28,0,.48.03.19.2.35.24.54.07.37.09.93.06,1.26-.1,1.16-.46,2.42-1.08,3.48v.48c-.82,1.04-1.96,1.76-3.06,2.52-.66.08-1.29.13-1.92.36-.45.17-.83.64-1.32.84-.31.13-.64.1-.9.24-.47.25-.85.65-1.32.9-.45.24-1,.38-1.5.6-.8.35-1.49.72-2.52,1.02-1.49.43-3.02,1.19-5.16,1.02-.81.39-1.52.82-2.4.96-.59.09-1.35.16-1.92.12-.65-.04-1.24-.47-1.92-.54-1.25-.12-2.02.68-2.94,1.02-.49.61-.7,1.82-.36,2.76,1.42.27,2.53.78,3.84,1.32.65.26,1.36.71,1.92.78.34.04.67-.07,1.02-.06.34.01.68.17,1.02.18,1,.02,2.24.32,3.36.18.57-.07,1.14-.3,1.74-.36.35-.04.73.04,1.08,0,.52-.07,1.06-.37,1.62-.48.56-.11,1.17,0,1.62-.12.46-.12.6-.37,1.26-.48.72-.12,1.32-.42,2.04-.72,1.84-.75,3.68-1.27,5.22-2.28.21-.31.58-.46.84-.72,1.69-.47,3.65-.67,5.4-1.08.25-.03.29-.27.42-.42.63-.07,1.06-.26,1.38-.66.28-.34.24-.8.42-1.14.24-.47.91-1.1,1.26-1.62.42-.62.91-1.23,1.32-1.86.69-.07,1.01-.82,1.62-1.14.84-.44,1.99-.21,2.64-.96.4-.51.43-1.15.9-1.86.31-.47,1.16-.96,1.26-1.5.08-.45-.29-.91-.3-1.38-.01-.96,1.48-1.73,1.5-2.64,0-.35-.26-.65-.3-.96-.06-.55.23-1.04.24-1.56.01-.78-.44-1.51-.42-2.34.02-.76.09-1.86.18-2.64.11-.96.72-1.47,1.02-2.28.15-.4.15-.99.36-1.38.21-.38,1.02-.83,1.14-1.32.19-.76-.36-1.43-.42-2.04-.16-1.52.53-2.3.9-3.42.48-.47,1-.65,1.68-1.2.34-.27.77-.68,1.08-.78.27-.09.56,0,.84-.06.67-.15,1.12-.83,2.28-.66.4.06.69.44,1.14.48.32.03.65-.22,1.02-.24.5-.03,1.17.2,1.86.24.99.06,1.79,0,2.88.12.42.05.81.34,1.2.36.33.02.74-.26,1.14-.3.33-.03.74.2,1.2.24.59.05,1.27-.12,1.74-.06.57.07,1.03.33,1.5.3.93-.06,1.74-.74,2.7-.66.21.02.42.18.66.24.61.15,1.33.19,1.8.42.16.08.28.31.48.42.29.17.66.21.84.36.88.74,1.16,2.18,1.2,3.72-.71,1-1.79,1.43-3.18,1.38-.55-.02-1.06-.4-1.56-.42-.7-.02-1.63.17-2.34.24-.59.06-1.09-.19-1.68-.18-.77,0-1.6.42-2.34.54-.84.13-1.6.14-2.04.72-.11.31.06.54.12.84.81-.09,1.71.04,2.58-.06.35-.04.53-.32.84-.42.23-.07.53-.02.84-.06.4-.05.84-.23,1.14-.24.83-.03,2.17.16,2.22,1.02.04.78-.76.77-1.44.96-.79.22-1.5.82-2.28.96-.12.28-.4.51-.48.78-.47,1.5.82,2.08,1.14,3.48.22.98-.24,1.67-.96,2.22-.33,1.77-1.34,2.86-2.1,4.2-.37.21-.82.2-.9.6-.24,1.22,2.82.3,2.28,1.98-.47.59-1.26.86-1.98,1.2-.56-.06-.98-1.05-1.5-.42-.18.39.47.44.48.84-.07.23-.39.21-.48.42.57,1.26-.25,3-.12,4.44-.23.25-.7.26-.84.6.83,1.33,1.33,5.19-1.38,4.02-.52-.4-.37-1.04-.48-1.62-.11-.62-.63-1.16-.72-1.74-.97.38-2.42,1.05-3-.12-.36-.72.21-1.92-.42-2.58-.85-.09-.94.94-.72,1.56-.2.29-.27.64-.18,1.08-.18.2-.24.52-.42.72.22.97-.27,1.69-.3,2.4-.02.54.36.79.48,1.26.09.34-.15.63.12.9.04.58-.46.71-.54,1.2-.04.29.22.54.18.9-.01.11-.58,1.25-.78,1.38-.54.35-1.3-.19-1.5-.54-.17-.31-.16-.69-.24-1.2-.07-.44-.25-.9-.24-1.2.02-.65.69-1.09.72-1.8.02-.41-.34-.75-.42-1.26-.15-.99-.25-2.24-.96-2.46-.78.37-.66,1.14-1.14,1.5-.39.29-.71.06-1.38.18-.86.15-1.31,1.1-1.44,1.98-.08.54.19,1.22-.06,1.74-.15.31-.61.24-.72.66.54.45,1.54.74,1.5,1.8-.02.52-.44,1.23-1.2,1.2-.73-.03-1.33-1.3-1.98-.24-.11.48.53.71.42,1.38-.35.27-.99.25-1.26.6.01.39.67.13.9.3,1.03.5.34,2.18-.78,2.1.41,1.19-1.04,2.3-1.86,1.44-.69-.72-.92-2.51-1.26-3.42-.16-.16-.26-.38-.54-.42-.33.23.34.34.18.78-.21.28-.66.25-1.08.18-.32.22-.34.74-.66.96-.52.06-.96.1-1.2-.24.22-.66-.26-1.14-.36-1.68-.03-.18.05-.41,0-.6-.14-.53-.56-.89-.12-1.56-.75-.89-1.29.68-2.1.78-.29.03-.57-.17-.84-.18-.42-.02-.92.11-1.5.18-.57.07-.84.4-1.44.66-.37.16-.79.16-1.14.3-1.07.43-2.18,1.08-3.3,1.56-.25.11-.59.11-.84.24-.2.1-.35.32-.54.42-1.02.56-2.13.75-3.06,1.2-1.12-.37-2.31.54-3.6.48-.58-.03-1.15-.08-1.8.12-.25.08-.45.29-.72.36-.3.07-.69-.02-1.02.06-.62.14-1.96.49-2.94.36-.36-.05-.73-.32-1.14-.36-.63-.06-1.18.13-1.74,0-.22-.05-.44-.19-.66-.24-.71-.18-1.08-.38-1.68-.6-.53-.19-.97-.3-1.74-.3-.23-.35-.67-.27-1.26-.42-.72-.18-1.6-.83-2.64-.72-.69.07-.8.73-1.32,1.08-.27,1.43-.44,2.58-.78,4.02-.14.58-.21.95-.3,1.74-.03.23-.18.46-.18.66,0,.55.4,1,.54,1.5.09.33.04.74.12,1.14.24,1.22.99,2.47,1.08,3.42.12,1.23.11,2.41-.78,2.94-1.58.94-3.18-.18-3.66-1.62-.1-.3-.06-.71-.12-1.08-.09-.57-.23-1.14-.24-1.68-.02-1.06.28-2.18.24-3.24-.03-.74-.28-1.34-.36-1.92-.12-.88.02-1.58-.42-2.1-.67.07-.49.99-.9,1.32.24,1.08-.39,2.05-.24,3.3.12,1.01.52,2.03.36,3-.03.2-.24.36-.3.6-.13.55-.01,1.26-.18,1.8-.24.76-1.27,1.96-2.16,1.98-.14,0-1.12-.15-1.38-.3-.84-.49-.91-2.6-.6-3.78.09-.35.42-.64.54-1.02.42-1.38.49-3.06,1.02-4.32-.16-.59-.1-1.22-.24-1.86-.09-.39-.34-.73-.42-1.08-.15-.7.01-1.41-.54-1.86.46-1.07-.49-2.63-1.32-2.7-.44-.04-1.32.44-2.04.6-.26.06-.51,0-.72.06-.45.11-.79.46-1.14.54-.62.15-1.23.08-1.86.36-.51.22-.91.46-1.68.6-.86.15-1.57.15-2.58.3-.66.1-1.29.34-1.92.3-.78-.05-1.54-.33-2.16-.48-3.5-.83-7.67-.68-10.38-2.58-1.4-.54-2.83-1.05-4.02-1.8-.96-.17-1.8-.48-2.46-.96-.65.1-1.23-.21-1.8-.18-.28.01-.52.2-.78.18-.78-.06-1.1-.86-1.68-1.26-.27.02-.62.21-.66.48-.07.46.49.7.18,1.32-.06.12-.25.2-.3.36-.04.15.09.37.06.54-.03.2-.28.36-.3.48-.07.34.18.61,0,.96-.33.23-.65.5-1.08.36-.43-.14-.29-.72-.6-.96-.37-.09-1,.14-1.2-.24-.06-.56.68-.32.66-.84-.45-.55-.9.55-1.38.72-.02.26.18.3.12.6-.2.46-.56.79-.42,1.44-.51.39-.41,1.24-1.08,1.38-.93.19-1.57-.72-1.38-1.62-.79-.17-1.54-.82-1.26-1.56.23-.63,1.06-.23,1.44-.78-.33-.53-1.19-.21-1.32-.84-.1-.5.39-.76.48-1.32-.3-.15-.53-.41-.9-.36-.58.07-.91,1.28-1.92.66-.96-.59-.21-2.53.9-2.82-.16-.38-.39-.43-.54-.78-.21-.51-.05-1.04-.12-1.62-.12-.99-.84-1.67-1.5-2.1-.36-.03-.58.1-.84.06-.91-.15-1.07-1.67-1.68-1.74-.88-.1-.46,1.43-1.08,1.74-.03.27.12.36.18.54-.2.64-.49.99-.42,1.74.06.61.64.94.66,1.44,0,.25-.22.5-.3.96-.09.53.02,1.1-.12,1.44-.45,1.1-1.86.5-2.16-.42-.12-.39.03-.91-.06-1.32-.08-.35-.43-.62-.48-.9-.12-.74.34-1.56.6-1.98-.26-.82-.13-1.69-.24-2.46-.1-.68-.68-1.17-.66-2.1,0-.25.21-.53.18-.78-.05-.47-.51-.85-.84-.78-.46.09-.24.45-.3.96-.02.2-.17.38-.18.54-.03.39.13.57.06.84-.09.35-.72,1-1.14,1.02-.25,0-.34-.24-.66-.3-.15-.03-.36.09-.48.06-.29-.08-.46-.42-.78-.48-.21.15-.26.46-.24.84-.74.38-.19,1.56-.6,2.22-.4.64-1.53.71-2.1.12-.52-1.13-.16-2.89.48-3.72-.18-.48-.9-.42-1.08-.9-.13-.43.13-.71.12-1.08,0-.15-.16-.27-.18-.48-.02-.15.09-.29.06-.42-.12-.51-.61-.91,0-1.26-.58-.44.25-.98-.36-1.44.16-.35.42-.88-.06-1.08-.53.06-.58.58-1.14.6-.57.02-1.93-1.06-1.92-1.56,0-.39.72-.73,1.2-.84.51-.12.93.11,1.02-.42.12-.72-1.33-1.22-1.5-1.62-.25-.58.01-1.1-.72-1.26-.21-.93-.31-1.28-.66-1.92-.31-.56-.97-1.04-1.02-1.92-.05-.78.27-1.23.6-1.74.1-.16.42-.48.48-.72.15-.62-.12-1.43-.24-2.04-.37-.48-1.1-.58-1.86-.9-.21-.09-.36-.31-.54-.36-.65-.2-1.58-.22-1.56-1.02,0-.4.29-.4.48-.72.69-.32,1.48-.17,2.34-.06.43.05.91-.03,1.2.06.33.1.52.43.78.48.16.03.72-.15,1.14-.12.62.04,1.54.66,1.74-.12.05-.19-.05-.56-.24-.78-.52-.62-1.4-.24-2.52-.54-.5-.14-.93-.51-1.32-.54-.38-.03-.72.16-1.08.18-.68.04-1.63.05-2.22-.06-.29-.06-.52-.24-.78-.24-.85,0-1.45.8-2.7.48-.66-.17-2.14-1.03-2.28-1.62-.06-.25.1-.41.12-.72.12-1.81,1.08-2.84,2.76-3.6,1.15-.52,2.41-.73,3.96-.36.47.11.85.49,1.2.48.25,0,.35-.23.6-.3.38-.11.98.03,1.62,0,.57-.03,1.36-.24,2.04-.18.21.02.39.17.6.18.6.04,1.28-.32,1.98-.42.63-.09,1.27.05,1.92.06.39,0,.82-.18,1.2-.18.45,0,.74.17,1.14-.12,1.2.75,2.2-.64,3.72-.12.32.11.49.47.96.6,1.08-.15,1.92.43,2.22,1.26,1.15-.06,1.43,1.01,1.8,1.92.16.4.4.69.42.9.03.25-.17.53-.18.84,0,.19.14.38.12.54-.03.24-.23.43-.3.66-.16.52-.03,1.09-.24,1.5.06.38.64.24.84.48-.02.71.81.99.96,1.62.05.23-.08.53,0,.78.1.31.43.45.54.66.33.64.19,1.48.24,2.4.04.69.23,1.43.18,2.04-.05.69-.38,1.32-.3,2.04.04.38.39.76.36,1.14-.03.37-.59.74-.6,1.08-.01.4.52.67.42,1.08.41.45,1.15.71,1.26,1.32.1.59-.45,1.11-.36,1.68.09.59.88.97,1.26,1.5.66.94.52,2.08,1.62,2.46.23.08.44-.04.66,0,.41.07,1.11.36,1.5.6.24.14.39.42.66.6.2.13.49.18.66.3.26.19.33.54.6.9.2.28.57.44.72.66.09.13.05.34.12.48.29.56.88,1.13,1.44,1.44-.21.78.12,1.27.9,1.62.16.07.37.03.54.12.29.15.55.61.9.72.7.22,1.55.21,2.34.3.81.1,1.56.46,2.22.42.68.31,1.18,1.05,1.86,1.38.67.33,1.44.43,2.16.72.12.05.22.18.36.24.34.15.61.19.84.48,1.52.35,2.98.9,4.5,1.5.33.13.83-.04,1.32,0,.73.07,1.19.5,2.1.6,1.51.17,3.33.48,4.86.42.36-.02.74-.18,1.14-.24.86-.12,1.82.02,2.52-.12.89-.17,1.71-.84,2.58-1.2,1.06-.44,2.34-.44,3.06-1.32.21-1.69-.49-2.36-1.68-2.82-.49-.19-.96-.46-1.2-.48-.66-.06-1.16.42-1.92.48-1.07.09-2.19-.13-3.06-.36-.68-.18-1.33-.63-2.16-.66-.2,0-.41.08-.6.06-.8-.09-1.63-.44-2.46-.6-.83-.16-1.75-.31-2.46-.54-.35-.11-.64-.45-1.02-.6-.46-.18-.79-.2-1.2-.42-.93-.49-1.66-.9-2.4-1.5-.95-.05-1.43-.57-1.98-1.02-.72-.24-1.56-.36-2.52-.36-1.2-1.05-2.74-2-3.3-3.72-.13-.41-.11-.92-.24-1.38-.15-.54-.5-1.19-.18-1.98-.77-1.4,1.02-2,.42-3.42-.9-.38-1.77-.38-2.34-1.08-.21-.25-.32-.64-.54-.96-.44-.63-1.26-1.45-1.62-2.16-.2-1.09-.28-2.25-.54-3.48-.04-.19-.2-.33-.24-.54-.04-.2.05-.38,0-.54-.08-.26-.37-.46-.48-.72-.38-.87-.15-1.99-.84-2.52.3-.56-.25-1.57.54-1.8-.26-.77.05-1,.54-1.44.18-.16.37-.46.54-.54.2-.09.41-.03.6-.12.3-.14.85-.63,1.08-1.02.09-.16.08-.43.18-.66.12-.29.39-.55.48-.78.29-.75.28-1.45,1.32-1.08.8-.32.63-1.61,1.32-2.04-.29-.53-1.4-.24-1.44-1.02.2-.22.47-.37.9-.36.08-.5.38-.78.66-1.08.32.02.6,0,.78-.12.13-.39.39-.6.42-1.02.03-.35-.19-.66-.12-1.02.14-.66,1.03-.82,1.14-1.5.84-.66,2.07-.4,2.76.3.39-.13.17-.61.18-1.02.81-.39,1.9-.5,2.4-1.2.75.08,1.51-.08,2.04-.66.44-.48.99-1.4.78-2.1-.11-.36-.61-.65-.6-1.02.02-.53.73-.55.78-.96-.44-.98.29-1.51.78-1.92-.08-.66.12-1.04.42-1.32-.52-1.12.34-1.82.78-2.7.31-.62.66-1.14.84-1.74.72-.44,1.27-1.46,2.22-1.8.41-.14,1.11-.37,1.56-.36.51,0,1.01.37,1.5.48,1.05.25,2.37.44,3.54.12,1.03-.29,1.91-1.18,3-1.56.2-.07.41-.05.6-.12.96-.35,1.85-1.06,2.82-1.32.45-.12.87,0,1.26-.36.04-1.2.46-1.92.24-2.94-.22-1.03-1.07-1.66-1.38-2.64-.17-.54-.26-1.31-.24-1.98.05-1.66.59-3.48,1.68-4.56-.14-1.46,2.08-2.54,3.06-1.62.52.49.24,1.5.78,2.04ZM86.56,25.67c-.87.56-1.85,1-2.7,1.5-.28.17-.6.39-.84.48-.95.33-1.6-.02-2.4-.12-.25-.03-.56.03-.84,0-.69-.07-1.35-.41-1.92-.42-.77-.02-1.94.08-2.4.54-.13.13-.19.41-.36.66-.17.25-.44.42-.54.6-.15.27-.16.75-.3,1.08-.11.27-.27.41-.3.6-.04.25.08.46.06.66-.1.96-1.32,1.31-.72,2.64.29.09.73.03.9.24-.03.55.32.91.18,1.26-.17.44-.69.21-1.02.6.02.48.4.6.84.66.35-.36.78-.76.48-1.44.25-.16.4-.75.96-.84.34-.06.64.19,1.08.18.81-.02,1.23-.77,1.92-.66.28.05.52.28.54.54.06.78-1.07.7-1.08,1.56-.46.16-.67.57-1.26.6-.52.25-.38,1.17-1.14,1.44-.15.05-.41-.04-.6,0-.61.14-1.5,1.18-1.5,1.44,0,.42.94,1.13,1.68.96.42-.1.45-.73,1.08-.48.7.44-.38.93-.24,1.38.12.4.74.25,1.2.42-.04.48.64.53.96.9.22.26.16.77.48.96.63.38,1.88-.07,2.76.24.41.14.71.65,1.14.6.77-.09.46-1.58,1.26-1.8.24-.06.53.12.9-.06,0-.54-.06-1.07-.12-1.68-.09-.89-.55-1.69-.66-2.52-.03-.21.04-.45,0-.66-.05-.24-.25-.48-.3-.72-.21-.99.04-1.85.12-2.7.06-.63-.09-1.27,0-1.68.17-.71.67-1.35.78-2.1.57-.89,1.29-1.71,1.86-2.52.26-.36.46-.79.72-1.08.6-.66,1.72-.88,1.8-1.98-.82-.74-1.73.25-2.46.72ZM114.94,31.55c-.1-.39.1-.79-.06-1.38-.04-.16-.28-.38-.42-.66-.29-.56-.63-1.46-.9-1.74-.92-.97-3.15-.31-4.32-.24-.36.02-.68-.05-1.02,0-.53.08-.97.36-1.38.36-.88,0-1.4-.63-2.04-.9-.27-.11-.59-.12-.84-.24-.38-.19-.59-.58-.9-.78-.14-.09-.38-.09-.54-.18-.46-.26-.87-.7-1.32-.9-.48-.21-1.34-.49-1.38.3-.04.69.92.97,1.38,1.44.34.35.7.9,1.08,1.38.36.46.76.89,1.14,1.32.44.49.67,1.16.96,1.8.19.42.47.88.54,1.2.15.67.06,1.4.06,1.98,0,.37.15.72.18,1.08.08,1.11-.17,2.03-.3,3.12-.08.65-.5,1.22-.6,1.86-.03.19.08.41.06.6-.02.19-.19.35-.24.54-.1.39-.09.75-.12,1.14.27.12.67.04.96,0,.61.29.58,1.22,1.02,1.68.96.01,1.52-.65,2.46-.66.42,0,.88.25,1.32.18.64-.11.54-.65.84-1.02.16-.2.52-.17.72-.36.25-.25.01-.53.36-.66.42-.03.84.02,1.08-.3.12-.6-.28-.68-.3-1.14.42-.61.92.12,1.38.12.31,0,1.14-.36,1.26-.6.48-.95-.79-1.28-1.08-1.8-1.07.23-1.45-.64-1.74-1.38-.95-.09-1.18-.63-1.74-1.2-.37-.37-.89-.58-.84-1.02.13-1.15,1.87-.02,2.52.06.44.05.83-.13,1.32-.06.71.34.37,2.24,1.26,2.28.33.01.73-.34.72-.84-.31-.34-.78.05-.96-.42-.17-.43.12-1.02.3-1.38.27-.07.68,0,.84-.18.48-1.36-.54-1.71-.72-2.4ZM74.26,65.75c.38.51,1.25.52,1.68,1.02.21.24.52.73.48,1.2-.07.92-1.52,1.29-2.4,1.38-.38.04-.9.09-1.26.12-.81.06-.67,0-1.08.6-.37.54-1.15,1.56-1.14,2.22,0,.61.69,1.18.48,1.92.63.66,1.02,1.74,1.86,2.16.45.23,1.19.29,1.74.54.24.11.39.29.6.36.18.06.46.06.72.12.42.1.81.4,1.08.48.76.21,1.69.25,2.58.54.22.07.39.24.6.3.45.13.9.03,1.32.06.35.03.68.17,1.02.18.36,0,.84-.16,1.32-.18.56-.02,1.04.14,1.38,0,.38-.15.97-1.17,1.2-1.62.12-.23.31-.48.36-.66.04-.13-.09-.3-.06-.48.02-.09.19-.17.24-.3.06-.16.01-.36.06-.48.2-.5.6-.88.6-1.26,0-.17-.22-.49-.3-.84-.21-.97-.5-1.51-.66-2.4-.23-1.25-.09-2.62-.24-3.9-.16-1.41-1.13-2.39-1.38-3.42-.14-.59-.11-1.15-.3-1.62-.49-1.22-1.83-1.49-3.48-1.62-2.46-.2-4.05,1.05-5.04,2.28-1.46.5-3.09,1.81-1.98,3.3ZM102.94,65.51c-.13.37-.43.67-.48.96-.06.36.09.75.06,1.2-.13,1.73-.38,3.39-.84,4.74-.08.24-.25.46-.3.66-.29,1.17.03,1.33.36,2.16.38.94.53,1.61.96,2.4.2.36.57.99.78,1.08.33.15,1.01.03,1.62.06,1.15.05,2.36.19,3.42-.06.28-.07.53-.26.84-.36.94-.29,2.08-.37,3-.66.25-.08.46-.27.72-.36.3-.1.63-.08.9-.18,1-.38,1.8-1.04,2.64-1.38.67-.72.92-1.61,1.2-2.52.12-.37.38-.72.36-1.2-.02-.34-.21-.47-.36-.9-.34-.98-.38-1.5-1.44-1.68-1.46-.25-3.33-.13-3.78-1.2-.75-1.76,1.16-1.66,1.92-2.52.92-1.03.17-2.09-.72-2.7-.34-.23-.8-.28-1.08-.48-.32-.23-.38-.72-.66-.96-.14-.12-.47-.19-.72-.36-.21-.14-.4-.37-.6-.48-1.5-.79-3.28-.48-5.1-.36-1.12.58-1.9,1.5-1.86,3.24-.41.44-.59,1.17-.84,1.86Z"/>
  </g>
  <g id="_x34_8_glatter" class="st1">
    <path class="st0" d="M93.7,10.25c.01,1.53-.22,3.29.42,4.26-.14,1.45.23,2.88-.06,4.33-.06.32-.25,1.08.19,1.23.63.21.64-.53.56-.92-.12-.63-.29-1.03-.08-1.68.26-.78-.08-1.44.04-2.24.13-.87.37-1.72.41-2.61.05-.99-.15-1.83.08-2.82.35-1.51.98-2.23,2.6-1.75,1.4.42,1.27,2.21,2.11,3.2.93,1.09,1,3.08.64,4.4-.41,1.49-1.37,2.76-1.77,4.26.21.67.43,1.33.6,2.04,1.36.58,2.67,1.41,4.09,1.83,1.33.4,2.45,1.21,3.76,1.61,2.45.73,5.06-1.48,7.32.28.36,1.01,1.51,1.64,1.95,2.7.28.67.61,1.15,1.03,1.73.3.42-.07,1.06.06,1.58.15.6.38.93.78,1.38.47.52.16.98.38,1.55.16.42.92.7.58,1.25-.19.31-.75.42-.82.79.35,1.55,1.05,2.75,3.06,2.64.28.54.91.73,1.38,1.08.41-.07.81-.09,1.02.18-.02.38-.31.87.12,1.02.73-.38,2.36-1.35,2.96-.23.56,1.03,1.25,1.09.82,2.33.17.39.34.78.6,1.08.46,0,.68.24,1.02.36.02.79,1.04.62,1.24,1.23.26.79-1.26.56-1.48,1.11.36.46.64,1,.78,1.68.58.08,1.23.09,1.56.42.08.24.16.48.12.84.44.34.48.92.72,1.38.2.38.67.55.9.94.25.42.69.26,1.03.52.31.24.53.61.95.69.22.6.31,1.33.6,1.86-.02.26-.31.25-.3.54.46.85-.32,1.45-.6,2.1.29.64-.08,1.14-.48,1.44-.17,1.92-.66,3.37-.9,5.1-.44.24-.39.84-.86,1.08-.65.33-.9,1.15-1.28,1.73-.57.88-1.83.43-2.33,1.19-.29.44-.06.94.19,1.32.22.33.38,1.19.42,1.59.15,1.51-.3,3.14-1.06,4.43v.48c-.82,1.04-1.96,1.76-3.06,2.52-2.56.33-4.63,1.91-6.96,2.94-2.33,1.03-5.07,2.25-7.68,2.04-1.41.68-3.08,1.45-4.71,1.01-.83-.22-1.5-.63-2.39-.41-.76.18-1.36.69-2.08.96-.49.61-.7,1.82-.36,2.76,1.03.2,2.02.57,2.99.97.91.37,2.1,1.23,3.11,1.13,1.01-.09,2.07.13,3.09.24,1.35.15,2.4-.17,3.71-.3,2.06-.22,4-.63,6-1.17,2.23-.61,4.9-1.64,6.84-2.91.21-.31.58-.46.84-.72,1.69-.47,3.65-.67,5.4-1.08.25-.03.29-.27.42-.42,1.5-.17,1.28-1.13,1.99-2.1.78-1.07,1.67-2.06,2.39-3.18.8-.08,1.2-1.03,1.95-1.28.76-.25,1.74-.16,2.31-.82.33-.42.44-.97.67-1.44.28-.59.76-.92,1.19-1.39.47-.53.25-.95.06-1.55-.17-.56.11-1.01.46-1.43.28-.33.6-.64.82-1.03.34-.6-.07-.91-.14-1.49-.08-.67.32-1.27.21-1.95-.1-.66-.41-1.27-.39-1.95.03-1.18-.05-2.62.53-3.69.28-.51.64-.98.76-1.56.12-.58.17-1.04.63-1.45,1-.91.79-1.44.43-2.65-.41-1.34.43-2.52.83-3.73.63-.63,2.26-2.04,3.18-2.02,1.04.03,1.89-1.13,2.99-.59.6.3.85.45,1.52.22.71-.24,1.5.12,2.22.16.79.04,1.57.01,2.36.07.93.07,1.54.53,2.46.21.69-.24,1.35.18,2.05.14.75-.04,1.34-.08,2.07.13,1.28.37,2.55-1,3.73-.44.58.27,1.23.26,1.83.44.51.15.88.58,1.4.77,1.29.49,1.4,2.73,1.43,3.84-.57.79-1.43,1.24-2.38,1.35-1.23.14-2.26-.47-3.52-.31-1.27.17-2.58-.2-3.8.14-.94.26-2.8.27-3.44,1.1-.11.31.06.54.12.84.68-.08,1.37,0,2.05-.02.64-.02.82-.28,1.37-.46.91-.29,2.29-.43,3.23-.17.67.18,1.55,1.15.52,1.59-.44.19-.93.21-1.38.4-.63.27-1.21.7-1.89.82-.23.57-.62.83-.58,1.52.04.55.35,1.01.64,1.46.8,1.25.91,2.54-.36,3.51-.33,1.77-1.34,2.86-2.1,4.2-2.71,1.57,1.94.85,1.38,2.58-.47.59-1.26.86-1.98,1.2-.56-.06-.98-1.05-1.5-.42-.18.39.47.44.48.84-.07.23-.39.21-.48.42.57,1.26-.25,3-.12,4.44-.23.25-.7.26-.84.6.83,1.33,1.33,5.19-1.38,4.02-.51-.39-.38-1.07-.48-1.62-.11-.63-.63-1.11-.72-1.74-.78.31-2.09.97-2.8.18-.74-.81.14-2.09-.62-2.88-.85-.09-.94.94-.72,1.56-.2.29-.27.64-.18,1.08-.18.2-.24.52-.42.72.19.86-.27,1.57-.3,2.4-.01.37.19.63.35.94.2.37-.04.93.25,1.22.03.51-.47.73-.54,1.2-.09.61.25.83-.07,1.45-.18.35-.37.87-.81.94-.59.08-1.21-.42-1.34-.98-.13-.61-.38-1.45-.36-2.07.02-.68.69-1.12.72-1.8.03-.59-.43-1.41-.53-2.03-.09-.55-.21-1.49-.85-1.69-.67.32-.6,1.1-1.14,1.5-.58.43-1.4-.04-2.02.48-.57.48-.86,1.37-.81,2.1.03.43.14.9-.05,1.31-.15.33-.61.27-.72.66.78.66,2.2,1.4,1.18,2.6-1.01,1.18-2.11-1.06-2.86.16-.11.48.53.71.42,1.38-.35.27-.99.25-1.26.6.01.39.67.13.9.3,1.03.5.34,2.18-.78,2.1.36,1.03-.95,2.39-1.86,1.44-.84-.88-.85-2.34-1.26-3.42-.16-.16-.26-.38-.54-.42-.33.23.34.34.18.78-.21.28-.66.25-1.08.18-.32.22-.34.74-.66.96-.52.06-.96.1-1.2-.24.39-1.17-1.21-2.72-.48-3.84-.72-.86-1.38.7-2.1.78-.63.07-1.24-.17-1.92-.06-.74.12-1.19.43-1.86.72-.67.29-1.39.39-2.07.71-.79.38-1.56.8-2.37,1.14-1.45.61-3,1.17-4.44,1.86-.64-.21-1.32,0-1.94.18-.88.26-1.63.25-2.54.27-.73.02-1.29.53-1.97.54-.7,0-1.34.2-2.03.31-.63.1-1.36.21-1.97-.03-.87-.34-1.64-.05-2.51-.25-1.4-.34-2.6-1.14-4.08-1.14-.25-.38-.88-.33-1.26-.42-.48-.12-.92-.37-1.39-.54-1.47-.52-1.55.22-2.57.9-.27,1.45-.54,2.9-.86,4.35-.12.57-.12,1.2-.33,1.75-.25.67.29,1.21.46,1.82.15.52.08,1.07.23,1.6.21.75.55,1.46.79,2.2.32.99.51,2.7-.34,3.5-.89.84-2.28.63-3.11-.15-.98-.92-1-2.37-1.14-3.62-.16-1.36.37-2.71.17-4.08-.1-.65-.32-1.26-.36-1.92-.04-.56.01-1.22-.38-1.67-.67.07-.49.99-.9,1.32.21.95-.25,1.89-.26,2.84-.02,1.08.9,2.76.24,3.74-.52.78-.09,1.84-.61,2.67-.4.64-1.18,1.51-2.03,1.41-1.8-.21-2.12-1.44-2-3.13.08-1.04.69-1.81.91-2.82.24-1.15.34-2.37.8-3.46-.24-.89-.15-1.73-.54-2.59-.31-.69-.02-1.68-.66-2.21.36-.84-.11-1.98-.82-2.49-.86-.62-2,.42-2.92.43-.49,0-.8.25-1.22.46-.64.34-1.45.17-2.12.46-1.11.49-2.13.67-3.33.79-1.5.14-2.71.56-4.21.15-1.27-.35-2.55-.57-3.85-.75-2.47-.35-5.22-.57-7.33-2.04-1.4-.54-2.83-1.05-4.02-1.8-.96-.17-1.8-.48-2.46-.96-.47.07-.91-.08-1.37-.15-.46-.07-.78.18-1.21.15-.77-.06-1.11-.86-1.68-1.26-1.22.11-.18,1.18-.48,1.8-.21.42-.16.44-.24.9-.09.17-.19.33-.3.48-.06.34.17.63,0,.96-.32.22-.66.5-1.08.36-.44-.14-.29-.71-.6-.96-.37-.09-1,.14-1.2-.24-.06-.56.68-.32.66-.84-.45-.55-.9.55-1.38.72-.02.26.18.3.12.6-.2.46-.56.79-.42,1.44-.48.36-.41,1.25-1.08,1.38-.95.19-1.56-.77-1.38-1.62-.68-.15-1.56-.75-1.26-1.56.23-.62,1.09-.28,1.44-.78-.28-.44-.87-.25-1.2-.6-.45-.48.28-1.09.36-1.56-.59-.29-.9-.53-1.43-.02-.42.4-.83.67-1.39.32-1.1-.68-.06-2.57.9-2.82-.13-.31-.41-.47-.54-.78-.21-.52-.06-1.08-.12-1.62-.11-.91-.76-1.62-1.5-2.1-.49-.04-.88.2-1.3-.17-.41-.36-.54-.92-.89-1.31-.88-.99-.98,1.33-1.4,1.55-.03.27.12.36.18.54-.14.44-.38.86-.42,1.33-.06.69.33.99.59,1.57.22.49-.25,1.12-.27,1.64-.02.53.07,1.18-.45,1.51-1.18.75-1.85-.93-1.82-1.77.02-.68-.57-1.04-.52-1.71.04-.58.32-1.12.62-1.61-.21-.64-.16-1.32-.2-1.99-.03-.69-.33-1.14-.56-1.77-.24-.65.24-1.36-.06-1.91-.17-.3-.99-.79-1.03-.13-.06.92.08,2.14-.7,2.77-.8.65-1.7-.32-2.48-.45-.21.15-.26.46-.24.84-.67.35-.33,1.37-.49,1.95-.25.94-1.61,1.01-2.21.39-.52-1.13-.16-2.89.48-3.72-.18-.48-.9-.42-1.08-.9-.12-.39.13-.7.12-1.08,0-.27-.23-.4-.14-.7.16-.54-.67-1.05.03-1.46-.58-.44.25-.98-.36-1.44.16-.35.42-.88-.06-1.08-.38.04-.54.39-.86.54-.42.19-.87-.1-1.21-.33-.9-.62-1.43-1.43-.11-1.91.32-.12.95,0,1.21-.24.41-.37-.11-.9-.39-1.11-.28-.21-.83-.43-.98-.78-.22-.5-.05-1.11-.72-1.26-.15-.67-.32-1.31-.66-1.92-.36-.66-.97-1.11-1.02-1.92-.05-.73.31-1.39.76-1.94.63-.78.26-1.67.08-2.56-.33-.43-.93-.56-1.41-.73-.46-.16-.81-.5-1.28-.61-1.25-.29-1.38-.66-.79-1.66.95-.44,2.19-.06,3.2-.04.51.01.68.44,1.12.52.36.06.77-.14,1.14-.12.49.03,1.54.66,1.74-.12.28-1.1-1.21-1.16-1.86-1.19-.87-.04-1.76-.81-2.59-.64-.96.19-1.96.28-2.93.09-.55-.11-.82-.32-1.38-.12-.42.15-.82.37-1.27.42-.88.11-1.76-.39-2.44-.9-1.32-.99-.36-3.23.69-4.16,1.43-1.26,4.01-2.04,5.81-1.18.26.12.56.37.87.36.47-.01.77-.36,1.31-.33.98.06,2.34-.44,3.25-.06.91.38,2.23-.42,3.23-.34.63.05,1.16.06,1.78-.06.5-.1,1.09.15,1.53-.17.77.48,1.57.03,2.35-.15,1.12-.27,1.41.38,2.33.63,1.08-.15,1.92.43,2.22,1.26,1.34-.08,1.67,1.65,2.14,2.58.12.2.12.42,0,.64-.16.47.07.57.02.98-.05.38-.33.65-.37,1.06-.04.36,0,.77-.17,1.1.06.38.64.24.84.48-.01.47.36.76.64,1.08.45.5.07,1.14.48,1.59.9.99.54,2.38.71,3.64.16,1.13-.55,2.6-.09,3.62.35.78.14.92-.27,1.58-.34.55.45.82.33,1.34.39.43,1.15.68,1.26,1.32.12.68-.64,1.28-.26,1.96.34.61,1.02.91,1.35,1.54.34.66.43,1.56,1.1,1.99.52.33,1.3.2,1.9.46.63.28,1.35.79,1.9,1.19.29.21.4.62.6.9.2.27.54.38.72.66.5.76.65,1.42,1.56,1.92-.16.59.03,1.1.55,1.43.55.35,1.01.47,1.54.89.53.41,1.48.34,2.11.39.9.07,1.8.52,2.7.47,1.01.47,1.58,1.36,2.7,1.69.73.21,2,.5,2.52,1.13,1.02.24,2.01.56,3,.92.5.19,1,.38,1.5.58.51.2,1.13-.08,1.67.06,1.89.48,3.69.88,5.66.96.89.04,1.65-.23,2.52-.28,1.03-.06,1.99.08,2.96-.38.82-.4,1.55-.89,2.44-1.13.82-.23,1.76-.38,2.33-1.08.24-1.88-.87-2.45-2.38-3.12-.9-.4-1.53.23-2.42.3-1.11.09-2.35-.08-3.4-.47-.89-.33-1.52-.39-2.42-.49-1.24-.14-2.5-.59-3.73-.84-.99-.2-1.69-.77-2.63-1.04-1.14-.33-2.25-1.04-3.18-1.78-.95-.05-1.43-.57-1.98-1.02-.72-.24-1.56-.36-2.52-.36-.96-.84-2.05-1.57-2.77-2.64-.42-.63-.58-1.25-.68-1.99-.11-.84-.62-1.59-.27-2.45-.77-1.4,1.02-2,.42-3.42-.89-.37-2.03-.42-2.52-1.37-.54-1.03-1.45-1.8-1.98-2.83-.28-1.49-.31-3.15-.78-4.56-.17-.52-.57-.81-.67-1.4-.11-.62-.1-1.41-.65-1.84.3-.56-.25-1.57.54-1.8-.54-1.6,1.79-1.94,2.54-2.82.66-.77.78-3.33,2.2-2.82.8-.32.63-1.61,1.32-2.04-.29-.53-1.4-.24-1.44-1.02.2-.22.47-.37.9-.36.08-.5.38-.78.66-1.08.32.02.6,0,.78-.12.12-.36.39-.63.42-1.02.03-.35-.19-.67-.12-1.02.14-.67,1.03-.82,1.14-1.5.84-.66,2.07-.4,2.76.3.39-.13.17-.61.18-1.02.81-.39,1.9-.5,2.4-1.2,1.35.14,2.47-.7,2.81-2.01.19-.73-.2-.94-.52-1.5-.38-.68.65-.71.71-1.22-.44-.98.29-1.51.78-1.92-.08-.66.12-1.04.42-1.32-.67-1.44,1.22-3.12,1.62-4.44,1.28-.79,1.78-1.86,3.41-2.13.71-.12,1.21.29,1.87.45.86.2,1.75.34,2.64.27,1.63-.12,2.66-1.58,4.2-1.77.82-.1,1.57-.71,2.3-1.07.6-.29,1.6-.22,2.07-.67.04-1.11.55-2.21.13-3.31-.36-.94-1.14-1.62-1.36-2.62-.45-2.02.03-4.69,1.53-6.19-.1-1.1,1.08-1.93,2.08-1.96,1.62-.04.97,1.58,1.76,2.38.01,1.53-.54-.54,0,0ZM86.56,25.67c-1.12.72-3.03,2.15-4.41,2.12-1.68-.04-3.36-.79-5.03-.66-.64.05-1.53.14-1.83.81-.18.4-.54.61-.74.98-.24.45-.21.96-.48,1.41-.32.52.02,1.1-.37,1.67-.43.62-.75,1.13-.41,1.9.29.09.73.03.9.24-.02.4.33.87.18,1.26-.16.42-.75.28-1.02.6.02.48.4.6.84.66.35-.36.78-.76.48-1.44.48-.31.55-1,1.29-.82.89.22,1.25,0,2.04-.39.49-.24,1.38-.04,1.13.68-.19.58-1.04.58-1.05,1.3-.46.16-.67.57-1.26.6-.6.28-.44,1.2-1.14,1.44-.28.1-.55-.06-.84.09-.37.19-.69.5-.95.82-.47.57-.25.98.39,1.32.99.52,1.31-.6,2.05-.31.48.3.08.67-.13.98-.5.75.7.67,1.09.82-.04.4.47.54.73.71.38.25.33.6.53.95.42.78,2.22.18,2.94.44.67.24,1.32,1.12,1.69,0,.1-.31.16-.66.35-.93.33-.47.83-.11,1.26-.32-.03-1.93-.68-3.75-1.08-5.58-.23-1.07.16-2.1.13-3.17-.02-.58-.09-1.08.12-1.63.22-.56.56-1.08.65-1.68.72-1.13,1.6-2.15,2.33-3.27.57-.87,1.96-1.14,2.04-2.31-.82-.74-1.73.25-2.46.72-.87.56.73-.47,0,0ZM114.94,31.55c-.08-.31.01-.65,0-.97-.02-.49-.27-.66-.48-1.07-.32-.62-.52-1.53-1.14-1.94-1.3-.86-3.18.02-4.6-.05-.8-.04-1.5.51-2.29.32-.37-.09-.7-.29-1.01-.5-.47-.31-.96-.35-1.45-.59-1.07-.53-2.37-2.3-3.73-2.08-1.36.22,1.52,2.63,1.77,2.97,1.09,1.47,2.51,2.82,2.92,4.69.17.78-.05,1.57.1,2.35.2,1.01.13,1.92-.03,2.93-.28,1.74-.9,3.29-1.03,5.04.27.12.67.04.96,0,.61.29.58,1.22,1.02,1.68.63,0,1.15-.32,1.73-.52.74-.26,1.33.17,2.05.04.58-.1.53-.65.84-1.02.18-.22.52-.16.72-.36.21-.21.04-.54.36-.66.42-.03.84.02,1.08-.3.12-.6-.28-.68-.3-1.14.32-.47.73-.12,1.1.05.44.2,1.04-.11,1.39-.38.97-.73-.65-1.46-.93-1.95-1.07.23-1.45-.64-1.74-1.38-.66-.06-3.25-1.93-2.39-2.62.37-.3,1.05.01,1.42.15.82.31,1.39.13,2.23.25.55.26.52,1.25.7,1.75.29.82,1.3.55,1.28-.31-.28-.31-.79.02-.96-.42-.18-.45.1-.99.3-1.38.27-.07.68,0,.84-.18.48-1.36-.54-1.71-.72-2.4-.1-.39.18.69,0,0ZM74.26,65.75c.65.87,2.27.7,2.16,2.22-.09,1.18-1.95,1.33-2.81,1.42-1.36.14-1.55.11-2.31,1.24-.32.47-.76,1.07-.75,1.66,0,.69.69,1.19.48,1.92.58.61.89,1.45,1.57,1.97.69.53,1.64.42,2.34.92.33.23.63.19,1.01.29.52.13.94.46,1.47.57.58.12,1.17.18,1.74.32.52.13.95.47,1.49.49.93.03,1.82.21,2.74.05.74-.13,1.67.28,2.22-.37.43-.5,1.01-1.33,1.2-1.97.08-.3.07-.48.18-.78.15-.42.18-.74.44-1.16.42-.69-.08-1.57-.31-2.28-.31-1-.53-1.94-.57-2.99-.04-1.07.07-2.22-.28-3.25-.31-.91-.97-1.69-1.2-2.62-.21-.88-.11-1.78-.88-2.42-.78-.65-1.93-.74-2.9-.82-2.01-.16-3.8.73-5.04,2.28-1.46.5-3.09,1.81-1.98,3.3.38.51-1.11-1.49,0,0ZM102.94,65.51c-.17.49-.54.77-.48,1.33.06.64.04,1.22-.03,1.86-.14,1.25-.34,2.52-.75,3.71-.34.98-.54,1.53-.08,2.5.52,1.12.78,2.31,1.48,3.36.58.87,2.08.51,3.01.56,1.41.08,2.36-.27,3.68-.59,1.15-.28,2.2-.53,3.31-.91.6-.2,1.14-.25,1.71-.56.61-.33,1.18-.74,1.83-1,.78-.85,1.18-2.19,1.5-3.28.2-.67-.48-2.46-1.12-2.82-.92-.52-2.23-.3-3.23-.57-.83-.22-1.87-1.25-1.13-2.13.49-.59,1.37-.65,1.88-1.22,1.14-1.28-.29-2.58-1.47-3.02-.6-.22-.56-.75-.99-1.12-.41-.35-1.22-.83-1.74-1.03-1.48-.58-3.15-.27-4.68-.17-1.12.58-1.9,1.5-1.86,3.24-.41.44-.59,1.17-.84,1.86-.13.37.25-.69,0,0Z"/>
  </g>
</svg>