<?xml version="1.0" encoding="UTF-8"?>
<svg id="Ebene_2" xmlns="http://www.w3.org/2000/svg" version="1.1" viewBox="0 0 311.81 62.17">
  <!-- Generator: Adobe Illustrator 29.1.0, SVG Export Plug-In . SVG Version: 2.1.0 Build 142)  -->
  <defs>
    <style>
      .st0 {
        fill: #010101;
      }

      .st1 {
        fill: #1d1d1b;
        font-family: Helvetica, Helvetica;
        font-size: 8px;
      }
    </style>
  </defs>
  <text class="st1" transform="translate(108.94 53.66)"><tspan x="0" y="0">49</tspan></text>
  <g id="_x34_9">
    <path class="st0" d="M14.52,30.45c2.12,1.58,5.63,3.23,9.54,2.9,3.62-.31,4.95-1.52,7.05-1.52,3.61,0,5.61,2.5,6.8,1.32,1.95-1.95-2.7-5.23-2.35-6.01.89-1.93,3.14-1.59,2.87-4.49-.2-2.06-1.76-4.79-4.9-6.53-2.73-1.51-2.32-2.58-3.93-1.53-.84.54-.48,4.63-3.86,5.16-4.75.76-6.48-1.1-7.22.29-1.09,2.06,2.19,2.56,2.19,5.16,0,2.96-3.43,3.74-5.33,3.91-.97.08-1.68.72-.85,1.34h-.02Z"/>
    <path class="st0" d="M43.57,30.45c2.12,1.58,5.63,3.23,9.54,2.9,3.62-.31,4.95-1.52,7.05-1.52,3.61,0,5.61,2.5,6.8,1.32,1.95-1.95-2.7-5.23-2.35-6.01.89-1.93,3.14-1.59,2.87-4.49-.2-2.06-1.76-4.79-4.9-6.53-2.73-1.51-2.32-2.58-3.93-1.53-.84.54-.48,4.63-3.86,5.16-4.75.76-6.48-1.1-7.22.29-1.09,2.06,2.19,2.56,2.19,5.16,0,2.96-3.43,3.74-5.33,3.91-.97.08-1.68.72-.85,1.34h-.02Z"/>
    <path class="st0" d="M72.62,30.45c2.12,1.58,5.63,3.23,9.54,2.9,3.62-.31,4.95-1.52,7.05-1.52,3.61,0,5.61,2.5,6.8,1.32,1.95-1.95-2.7-5.23-2.35-6.01.89-1.93,3.14-1.59,2.87-4.49-.2-2.06-1.76-4.79-4.9-6.53-2.73-1.51-2.32-2.58-3.93-1.53-.84.54-.48,4.63-3.86,5.16-4.75.76-6.48-1.1-7.22.29-1.09,2.06,2.19,2.56,2.19,5.16,0,2.96-3.43,3.74-5.33,3.91-.97.08-1.68.72-.85,1.34h-.02Z"/>
    <path class="st0" d="M101.69,30.45c2.12,1.58,5.63,3.23,9.54,2.9,3.62-.31,4.95-1.52,7.05-1.52,3.61,0,5.61,2.5,6.8,1.32,1.95-1.95-2.7-5.23-2.35-6.01.88-1.93,3.14-1.59,2.87-4.49-.2-2.06-1.76-4.79-4.9-6.53-2.73-1.51-2.32-2.58-3.93-1.53-.84.54-.48,4.63-3.86,5.16-4.75.76-6.48-1.1-7.22.29-1.09,2.06,2.19,2.56,2.19,5.16,0,2.96-3.43,3.74-5.33,3.91-.97.08-1.68.72-.85,1.34h-.02Z"/>
    <path class="st0" d="M130.74,30.45c2.12,1.58,5.63,3.23,9.54,2.9,3.62-.31,4.95-1.52,7.05-1.52,3.61,0,5.61,2.5,6.8,1.32,1.95-1.95-2.7-5.23-2.35-6.01.88-1.93,3.14-1.59,2.87-4.49-.2-2.06-1.76-4.79-4.9-6.53-2.73-1.51-2.32-2.58-3.93-1.53-.84.54-.48,4.63-3.86,5.16-4.75.76-6.48-1.1-7.22.29-1.09,2.06,2.19,2.56,2.19,5.16,0,2.96-3.43,3.74-5.33,3.91-.97.08-1.68.72-.85,1.34h-.02Z"/>
    <path class="st0" d="M159.8,30.45c2.12,1.58,5.63,3.23,9.54,2.9,3.62-.31,4.95-1.52,7.05-1.52,3.61,0,5.61,2.5,6.8,1.32,1.95-1.95-2.7-5.23-2.35-6.01.88-1.93,3.14-1.59,2.87-4.49-.2-2.06-1.76-4.79-4.9-6.53-2.73-1.51-2.32-2.58-3.93-1.53-.84.54-.48,4.63-3.86,5.16-4.75.76-6.48-1.1-7.22.29-1.09,2.06,2.19,2.56,2.19,5.16,0,2.96-3.43,3.74-5.33,3.91-.97.08-1.68.72-.85,1.34h-.02Z"/>
    <path class="st0" d="M188.85,30.71c2.12,1.58,5.63,3.23,9.54,2.9,3.62-.31,4.95-1.52,7.05-1.52,3.61,0,5.61,2.5,6.8,1.32,1.95-1.95-2.7-5.23-2.35-6.01.88-1.93,3.14-1.59,2.87-4.49-.2-2.06-1.76-4.79-4.9-6.53-2.73-1.51-2.32-2.58-3.93-1.53-.84.54-.48,4.63-3.86,5.16-4.75.76-6.48-1.1-7.22.29-1.09,2.06,2.19,2.56,2.19,5.16,0,2.96-3.43,3.74-5.33,3.91-.97.08-1.68.72-.85,1.34h-.02Z"/>
  </g>
</svg>