<?xml version="1.0" encoding="UTF-8"?>
<svg id="Ebene_2" xmlns="http://www.w3.org/2000/svg" version="1.1" viewBox="0 0 255.12 141.73">
  <!-- Generator: Adobe Illustrator 29.1.0, SVG Export Plug-In . SVG Version: 2.1.0 Build 142)  -->
  <defs>
    <style>
      .st0 {
        fill: none;
        stroke: #1d1d1b;
        stroke-linecap: round;
        stroke-miterlimit: 10;
        stroke-width: 1.2px;
      }
    </style>
  </defs>
  <rect class="st0" x="25.51" y="12.62" width="175.75" height="25.51"/>
  <line class="st0" x1="40.16" y1="12.62" x2="40.16" y2="38.13"/>
  <line class="st0" x1="54.8" y1="12.62" x2="54.8" y2="38.13"/>
  <line class="st0" x1="69.45" y1="12.62" x2="69.45" y2="38.13"/>
  <line class="st0" x1="84.09" y1="12.62" x2="84.09" y2="38.13"/>
  <line class="st0" x1="98.74" y1="12.62" x2="98.74" y2="38.13"/>
  <line class="st0" x1="113.39" y1="12.62" x2="113.39" y2="38.13"/>
  <line class="st0" x1="128.03" y1="12.62" x2="128.03" y2="38.13"/>
  <line class="st0" x1="142.68" y1="12.62" x2="142.68" y2="38.13"/>
  <line class="st0" x1="157.32" y1="12.62" x2="157.32" y2="38.13"/>
  <line class="st0" x1="171.97" y1="12.62" x2="171.97" y2="38.13"/>
  <line class="st0" x1="186.62" y1="12.62" x2="186.62" y2="38.13"/>
  <rect class="st0" x="25.51" y="97.66" width="175.75" height="25.51"/>
  <line class="st0" x1="78.03" y1="97.66" x2="78.03" y2="123.17"/>
  <line class="st0" x1="116.22" y1="97.66" x2="116.22" y2="123.17"/>
  <line class="st0" x1="143.71" y1="97.66" x2="143.71" y2="123.17"/>
  <line class="st0" x1="163.51" y1="97.66" x2="163.51" y2="123.17"/>
  <line class="st0" x1="177.76" y1="97.66" x2="177.76" y2="123.17"/>
  <line class="st0" x1="188.03" y1="97.66" x2="188.03" y2="123.17"/>
  <line class="st0" x1="195.42" y1="97.66" x2="195.42" y2="123.17"/>
  <rect class="st0" x="25.51" y="55.14" width="175.75" height="25.51"/>
  <line class="st0" x1="42.22" y1="55.14" x2="42.22" y2="80.65"/>
  <line class="st0" x1="50.67" y1="55.14" x2="50.67" y2="80.65"/>
  <line class="st0" x1="73.58" y1="55.14" x2="73.58" y2="80.65"/>
  <line class="st0" x1="91.33" y1="55.14" x2="91.33" y2="80.65"/>
  <line class="st0" x1="96.67" y1="55.14" x2="96.67" y2="80.65"/>
  <line class="st0" x1="113.39" y1="55.14" x2="113.39" y2="80.65"/>
  <line class="st0" x1="128.03" y1="55.14" x2="128.03" y2="80.65"/>
  <line class="st0" x1="150.94" y1="55.14" x2="150.94" y2="80.65"/>
  <line class="st0" x1="180.42" y1="55.14" x2="180.42" y2="80.65"/>
</svg>