<?xml version="1.0" encoding="UTF-8"?>
<svg id="Ebene_2" xmlns="http://www.w3.org/2000/svg" version="1.1" viewBox="0 0 311.81 141.73">
  <!-- Generator: Adobe Illustrator 29.1.0, SVG Export Plug-In . SVG Version: 2.1.0 Build 142)  -->
  <defs>
    <style>
      .st0 {
        fill: none;
        stroke: #1e1e1c;
        stroke-linecap: round;
        stroke-miterlimit: 10;
        stroke-width: 1.2px;
      }

      .st1 {
        fill: #1d1d1b;
        font-family: Helvetica, Helvetica;
        font-size: 8px;
      }
    </style>
  </defs>
  <rect class="st0" x="14.17" y="14.17" width="184.25" height="26.74"/>
  <line class="st0" x1="29.53" y1="14.17" x2="29.53" y2="40.92"/>
  <line class="st0" x1="44.88" y1="14.17" x2="44.88" y2="40.92"/>
  <line class="st0" x1="60.24" y1="14.17" x2="60.24" y2="40.92"/>
  <line class="st0" x1="75.59" y1="14.17" x2="75.59" y2="40.92"/>
  <line class="st0" x1="90.95" y1="14.17" x2="90.95" y2="40.92"/>
  <line class="st0" x1="106.3" y1="14.17" x2="106.3" y2="40.92"/>
  <line class="st0" x1="121.65" y1="14.17" x2="121.65" y2="40.92"/>
  <line class="st0" x1="137.01" y1="14.17" x2="137.01" y2="40.92"/>
  <line class="st0" x1="152.36" y1="14.17" x2="152.36" y2="40.92"/>
  <line class="st0" x1="167.72" y1="14.17" x2="167.72" y2="40.92"/>
  <line class="st0" x1="183.08" y1="14.17" x2="183.08" y2="40.92"/>
  <rect class="st0" x="14.17" y="99.21" width="184.25" height="26.74"/>
  <line class="st0" x1="69.23" y1="99.21" x2="69.23" y2="125.96"/>
  <line class="st0" x1="109.27" y1="99.21" x2="109.27" y2="125.96"/>
  <line class="st0" x1="138.09" y1="99.21" x2="138.09" y2="125.96"/>
  <line class="st0" x1="158.85" y1="99.21" x2="158.85" y2="125.96"/>
  <line class="st0" x1="173.79" y1="99.21" x2="173.79" y2="125.96"/>
  <line class="st0" x1="184.56" y1="99.21" x2="184.56" y2="125.96"/>
  <line class="st0" x1="192.3" y1="99.21" x2="192.3" y2="125.96"/>
  <rect class="st0" x="14.17" y="56.69" width="184.25" height="26.74"/>
  <line class="st0" x1="31.69" y1="56.69" x2="31.69" y2="83.44"/>
  <line class="st0" x1="40.55" y1="56.69" x2="40.55" y2="83.44"/>
  <line class="st0" x1="64.57" y1="56.69" x2="64.57" y2="83.44"/>
  <line class="st0" x1="83.18" y1="56.69" x2="83.18" y2="83.44"/>
  <line class="st0" x1="88.78" y1="56.69" x2="88.78" y2="83.44"/>
  <line class="st0" x1="106.3" y1="56.69" x2="106.3" y2="83.44"/>
  <line class="st0" x1="121.65" y1="56.69" x2="121.65" y2="83.44"/>
  <line class="st0" x1="145.67" y1="56.69" x2="145.67" y2="83.44"/>
  <line class="st0" x1="176.58" y1="56.69" x2="176.58" y2="83.44"/>
  <text class="st1" transform="translate(212.6 19.93)"><tspan x="0" y="0">5</tspan></text>
  <text class="st1" transform="translate(212.6 62.44)"><tspan x="0" y="0">6</tspan></text>
  <text class="st1" transform="translate(212.6 104.96)"><tspan x="0" y="0">7</tspan></text>
</svg>