<?xml version="1.0" encoding="UTF-8"?>
<svg id="Ebene_2" xmlns="http://www.w3.org/2000/svg" version="1.1" viewBox="0 0 311.81 66.04">
  <!-- Generator: Adobe Illustrator 29.1.0, SVG Export Plug-In . SVG Version: 2.1.0 Build 142)  -->
  <defs>
    <style>
      .st0 {
        fill: #010101;
      }

      .st1 {
        fill: #1d1d1b;
        font-family: Helvetica, Helvetica;
        font-size: 8px;
      }
    </style>
  </defs>
  <text class="st1" transform="translate(108.94 57.63)"><tspan x="0" y="0">50</tspan></text>
  <g id="_x35_0">
    <path class="st0" d="M168.81,28.08c2.14-.72,7.3-1.23,7.2.53-.24,4.23-5.35,5.07-5.35,6.27,0,1.91,7.11,2.08,11.49-.2,3.67-1.91,4.6-5.31,5.87-6.25,1.29-.95,1.97-.74,3.55-.96,1.63-.23,1.95-2.95,0-2.95s-3.14-.64-3.14-1.52c0-1.26,1.44-1.47,1.44-2.83,0-4.18-6.31-5.59-10.52-5.98-.87-.08-1.21.17-1.21.17l-.23.14c-1.5.94,1.23,4.48-.06,6.44-2.64,4-7.02,4.06-8.56,2.96l-.48,4.18Z"/>
    <path class="st0" d="M129.44,28.08c2.14-.72,7.3-1.23,7.2.53-.24,4.23-5.35,5.07-5.35,6.27,0,1.91,7.11,2.08,11.49-.2,3.67-1.91,4.6-5.31,5.87-6.25,1.29-.95,1.97-.74,3.55-.96,1.63-.23,1.95-2.95,0-2.95s-3.14-.64-3.14-1.52c0-1.26,1.44-1.47,1.44-2.83,0-4.18-6.31-5.59-10.52-5.98-.87-.08-1.21.17-1.21.17l-.23.14c-1.5.94,1.23,4.48-.06,6.44-2.64,4-7.02,4.06-8.56,2.96l-.48,4.18Z"/>
    <path class="st0" d="M149.12,28.08c2.14-.72,7.3-1.23,7.2.53-.24,4.23-5.35,5.07-5.35,6.27,0,1.91,7.11,2.08,11.49-.2,3.67-1.91,4.6-5.31,5.87-6.25,1.29-.95,1.97-.74,3.55-.96,1.63-.23,1.95-2.95,0-2.95s-3.14-.64-3.14-1.52c0-1.26,1.44-1.47,1.44-2.83,0-4.18-6.31-5.59-10.52-5.98-.87-.08-1.21.17-1.21.17l-.23.14c-1.5.94,1.23,4.48-.06,6.44-2.64,4-7.02,4.06-8.56,2.96l-.48,4.18Z"/>
    <path class="st0" d="M188.49,28.08c2.14-.72,7.3-1.23,7.2.53-.24,4.23-5.35,5.07-5.35,6.27,0,1.91,7.11,2.08,11.49-.2,3.67-1.91,4.6-5.31,5.87-6.25,1.29-.95,1.97-.74,3.55-.96,1.63-.23,1.95-2.95,0-2.95s-3.14-.64-3.14-1.52c0-1.26,1.44-1.47,1.44-2.83,0-4.18-6.31-5.59-10.52-5.98-.87-.08-1.21.17-1.21.17l-.23.14c-1.5.94,1.23,4.48-.06,6.44-2.64,4-7.02,4.06-8.56,2.96l-.48,4.18Z"/>
    <path class="st0" d="M90.07,28.08c2.14-.72,7.3-1.23,7.2.53-.24,4.23-5.35,5.07-5.35,6.27,0,1.91,7.11,2.08,11.49-.2,3.67-1.91,4.6-5.31,5.88-6.25,1.29-.95,1.97-.74,3.55-.96,1.63-.23,1.95-2.95,0-2.95s-3.14-.64-3.14-1.52c0-1.26,1.44-1.47,1.44-2.83,0-4.18-6.31-5.59-10.52-5.98-.87-.08-1.21.17-1.21.17l-.23.14c-1.5.94,1.23,4.48-.06,6.44-2.64,4-7.02,4.06-8.56,2.96l-.48,4.18h-.01Z"/>
    <path class="st0" d="M109.75,28.08c2.14-.72,7.3-1.23,7.2.53-.24,4.23-5.35,5.07-5.35,6.27,0,1.91,7.11,2.08,11.49-.2,3.67-1.91,4.6-5.31,5.87-6.25,1.29-.95,1.97-.74,3.55-.96,1.63-.23,1.95-2.95,0-2.95s-3.14-.64-3.14-1.52c0-1.26,1.44-1.47,1.44-2.83,0-4.18-6.31-5.59-10.52-5.98-.87-.08-1.21.17-1.21.17l-.23.14c-1.5.94,1.23,4.48-.06,6.44-2.64,4-7.02,4.06-8.56,2.96l-.48,4.18Z"/>
    <path class="st0" d="M50.7,28.08c2.14-.72,7.3-1.23,7.2.53-.24,4.23-5.35,5.07-5.35,6.27,0,1.91,7.11,2.08,11.49-.2,3.67-1.91,4.6-5.31,5.87-6.25,1.29-.95,1.97-.74,3.55-.96,1.62-.23,1.95-2.95,0-2.95s-3.14-.64-3.14-1.52c0-1.26,1.44-1.47,1.44-2.83,0-4.18-6.31-5.59-10.52-5.98-.87-.08-1.21.17-1.21.17l-.23.14c-1.5.94,1.23,4.48-.06,6.44-2.64,4-7.02,4.06-8.56,2.96l-.48,4.18h0Z"/>
    <path class="st0" d="M70.38,28.08c2.14-.72,7.3-1.23,7.2.53-.24,4.23-5.35,5.07-5.35,6.27,0,1.91,7.11,2.08,11.49-.2,3.67-1.91,4.6-5.31,5.87-6.25,1.29-.95,1.97-.74,3.55-.96,1.63-.23,1.95-2.95,0-2.95s-3.14-.64-3.14-1.52c0-1.26,1.44-1.47,1.44-2.83,0-4.18-6.31-5.59-10.52-5.98-.87-.08-1.21.17-1.21.17l-.23.14c-1.5.94,1.23,4.48-.06,6.44-2.64,4-7.02,4.06-8.56,2.96,0,0-.48,4.18-.48,4.18Z"/>
    <path class="st0" d="M11.32,28.08c2.14-.72,7.3-1.23,7.2.53-.24,4.23-5.35,5.07-5.35,6.27,0,1.91,7.11,2.08,11.49-.2,3.67-1.91,4.6-5.31,5.87-6.25,1.29-.95,1.97-.74,3.55-.96,1.63-.23,1.95-2.95,0-2.95s-3.14-.64-3.14-1.52c0-1.26,1.44-1.47,1.44-2.83,0-4.18-6.31-5.59-10.52-5.98-.87-.08-1.21.17-1.21.17l-.23.14c-1.5.94,1.23,4.48-.06,6.44-2.64,4-7.02,4.06-8.56,2.96l-.48,4.18Z"/>
    <path class="st0" d="M31.01,28.08c2.14-.72,7.3-1.23,7.2.53-.24,4.23-5.35,5.07-5.35,6.27,0,1.91,7.11,2.08,11.49-.2,3.67-1.91,4.6-5.31,5.87-6.25,1.29-.95,1.97-.74,3.55-.96,1.63-.23,1.95-2.95,0-2.95s-3.14-.64-3.14-1.52c0-1.26,1.44-1.47,1.44-2.83,0-4.18-6.31-5.59-10.52-5.98-.87-.08-1.21.17-1.21.17l-.23.14c-1.5.94,1.23,4.48-.06,6.44-2.64,4-7.02,4.06-8.56,2.96,0,0-.48,4.18-.48,4.18Z"/>
  </g>
</svg>