<?xml version="1.0" encoding="UTF-8"?>
<svg xmlns="http://www.w3.org/2000/svg" version="1.1" viewBox="0 0 220.5 41.5">
  <!-- Generator: Adobe Illustrator 29.1.0, SVG Export Plug-In . SVG Version: 2.1.0 Build 142)  -->
  <defs>
    <style>
      .st0 {
        display: none;
      }
    </style>
  </defs>
  <g id="_x35_0">
    <path d="M179.74,22.98c2.14-.72,7.3-1.23,7.2.53-.24,4.23-5.35,5.07-5.35,6.27,0,1.91,7.11,2.08,11.49-.2,3.67-1.91,4.6-5.31,5.87-6.25,1.29-.95,1.97-.74,3.55-.96,1.63-.23,1.95-2.95,0-2.95s-3.14-.64-3.14-1.52c0-1.26,1.44-1.47,1.44-2.83,0-4.18-6.31-5.59-10.52-5.98-.87-.08-1.21.17-1.21.17l-.23.14c-1.5.94,1.23,4.48-.06,6.44-2.64,4-7.02,4.06-8.56,2.96l-.48,4.18Z"/>
    <path d="M140.37,22.98c2.14-.72,7.3-1.23,7.2.53-.24,4.23-5.35,5.07-5.35,6.27,0,1.91,7.11,2.08,11.49-.2,3.67-1.91,4.6-5.31,5.87-6.25,1.29-.95,1.97-.74,3.55-.96,1.63-.23,1.95-2.95,0-2.95s-3.14-.64-3.14-1.52c0-1.26,1.44-1.47,1.44-2.83,0-4.18-6.31-5.59-10.52-5.98-.87-.08-1.21.17-1.21.17l-.23.14c-1.5.94,1.23,4.48-.06,6.44-2.64,4-7.02,4.06-8.56,2.96l-.48,4.18Z"/>
    <path d="M160.05,22.98c2.14-.72,7.3-1.23,7.2.53-.24,4.23-5.35,5.07-5.35,6.27,0,1.91,7.11,2.08,11.49-.2,3.67-1.91,4.6-5.31,5.87-6.25,1.29-.95,1.97-.74,3.55-.96,1.63-.23,1.95-2.95,0-2.95s-3.14-.64-3.14-1.52c0-1.26,1.44-1.47,1.44-2.83,0-4.18-6.31-5.59-10.52-5.98-.87-.08-1.21.17-1.21.17l-.23.14c-1.5.94,1.23,4.48-.06,6.44-2.64,4-7.02,4.06-8.56,2.96l-.48,4.18Z"/>
    <path d="M199.42,22.98c2.14-.72,7.3-1.23,7.2.53-.24,4.23-5.35,5.07-5.35,6.27,0,1.91,7.11,2.08,11.49-.2,3.67-1.91,4.6-5.31,5.87-6.25,1.29-.95,1.97-.74,3.55-.96,1.63-.23,1.95-2.95,0-2.95s-3.14-.64-3.14-1.52c0-1.26,1.44-1.47,1.44-2.83,0-4.18-6.31-5.59-10.52-5.98-.87-.08-1.21.17-1.21.17l-.23.14c-1.5.94,1.23,4.48-.06,6.44-2.64,4-7.02,4.06-8.56,2.96l-.48,4.18Z"/>
    <path d="M101,22.98c2.14-.72,7.3-1.23,7.2.53-.24,4.23-5.35,5.07-5.35,6.27,0,1.91,7.11,2.08,11.49-.2,3.67-1.91,4.6-5.31,5.88-6.25,1.29-.95,1.97-.74,3.55-.96,1.63-.23,1.95-2.95,0-2.95s-3.14-.64-3.14-1.52c0-1.26,1.44-1.47,1.44-2.83,0-4.18-6.31-5.59-10.52-5.98-.87-.08-1.21.17-1.21.17l-.23.14c-1.5.94,1.23,4.48-.06,6.44-2.64,4-7.02,4.06-8.56,2.96l-.48,4.18Z"/>
    <path d="M120.68,22.98c2.14-.72,7.3-1.23,7.2.53-.24,4.23-5.35,5.07-5.35,6.27,0,1.91,7.11,2.08,11.49-.2,3.67-1.91,4.6-5.31,5.87-6.25,1.29-.95,1.97-.74,3.55-.96,1.63-.23,1.95-2.95,0-2.95s-3.14-.64-3.14-1.52c0-1.26,1.44-1.47,1.44-2.83,0-4.18-6.31-5.59-10.52-5.98-.87-.08-1.21.17-1.21.17l-.23.14c-1.5.94,1.23,4.48-.06,6.44-2.64,4-7.02,4.06-8.56,2.96l-.48,4.18Z"/>
    <path d="M61.63,22.98c2.14-.72,7.3-1.23,7.2.53-.24,4.23-5.35,5.07-5.35,6.27,0,1.91,7.11,2.08,11.49-.2,3.67-1.91,4.6-5.31,5.87-6.25,1.29-.95,1.97-.74,3.55-.96,1.62-.23,1.95-2.95,0-2.95s-3.14-.64-3.14-1.52c0-1.26,1.44-1.47,1.44-2.83,0-4.18-6.31-5.59-10.52-5.98-.87-.08-1.21.17-1.21.17l-.23.14c-1.5.94,1.23,4.48-.06,6.44-2.64,4-7.02,4.06-8.56,2.96l-.48,4.18Z"/>
    <path d="M81.31,22.98c2.14-.72,7.3-1.23,7.2.53-.24,4.23-5.35,5.07-5.35,6.27,0,1.91,7.11,2.08,11.49-.2,3.67-1.91,4.6-5.31,5.87-6.25,1.29-.95,1.97-.74,3.55-.96,1.63-.23,1.95-2.95,0-2.95s-3.14-.64-3.14-1.52c0-1.26,1.44-1.47,1.44-2.83,0-4.18-6.31-5.59-10.52-5.98-.87-.08-1.21.17-1.21.17l-.23.14c-1.5.94,1.23,4.48-.06,6.44-2.64,4-7.02,4.06-8.56,2.96l-.48,4.18Z"/>
    <path d="M22.25,22.98c2.14-.72,7.3-1.23,7.2.53-.24,4.23-5.35,5.07-5.35,6.27,0,1.91,7.11,2.08,11.49-.2,3.67-1.91,4.6-5.31,5.87-6.25,1.29-.95,1.97-.74,3.55-.96,1.63-.23,1.95-2.95,0-2.95s-3.14-.64-3.14-1.52c0-1.26,1.44-1.47,1.44-2.83,0-4.18-6.31-5.59-10.52-5.98-.87-.08-1.21.17-1.21.17l-.23.14c-1.5.94,1.23,4.48-.06,6.44-2.64,4-7.02,4.06-8.56,2.96l-.48,4.18Z"/>
    <path d="M41.94,22.98c2.14-.72,7.3-1.23,7.2.53-.24,4.23-5.35,5.07-5.35,6.27,0,1.91,7.11,2.08,11.49-.2,3.67-1.91,4.6-5.31,5.87-6.25,1.29-.95,1.97-.74,3.55-.96,1.63-.23,1.95-2.95,0-2.95s-3.14-.64-3.14-1.52c0-1.26,1.44-1.47,1.44-2.83,0-4.18-6.31-5.59-10.52-5.98-.87-.08-1.21.17-1.21.17l-.23.14c-1.5.94,1.23,4.48-.06,6.44-2.64,4-7.02,4.06-8.56,2.96l-.48,4.18Z"/>
  </g>
  <g id="_x34_9" class="st0">
    <path d="M11.33,25.95c2.1,1.57,5.59,3.21,9.47,2.88,3.59-.31,4.91-1.51,7-1.51,3.58,0,5.57,2.48,6.75,1.31,1.94-1.94-2.68-5.19-2.33-5.96.88-1.92,3.12-1.58,2.85-4.46-.2-2.04-1.75-4.75-4.86-6.48-2.71-1.5-2.3-2.56-3.9-1.52-.83.54-.48,4.59-3.83,5.12-4.71.75-6.43-1.09-7.17.29-1.08,2.04,2.17,2.54,2.17,5.12,0,2.94-3.4,3.71-5.29,3.88-.96.08-1.67.71-.84,1.33Z"/>
    <path d="M40.16,25.95c2.1,1.57,5.59,3.21,9.47,2.88,3.59-.31,4.91-1.51,7-1.51,3.58,0,5.57,2.48,6.75,1.31,1.94-1.94-2.68-5.19-2.33-5.96.88-1.92,3.12-1.58,2.85-4.46-.2-2.04-1.75-4.75-4.86-6.48-2.71-1.5-2.3-2.56-3.9-1.52-.83.54-.48,4.59-3.83,5.12-4.71.75-6.43-1.09-7.17.29-1.08,2.04,2.17,2.54,2.17,5.12,0,2.94-3.4,3.71-5.29,3.88-.96.08-1.67.71-.84,1.33Z"/>
    <path d="M68.99,25.95c2.1,1.57,5.59,3.21,9.47,2.88,3.59-.31,4.91-1.51,7-1.51,3.58,0,5.57,2.48,6.75,1.31,1.94-1.94-2.68-5.19-2.33-5.96.88-1.92,3.12-1.58,2.85-4.46-.2-2.04-1.75-4.75-4.86-6.48-2.71-1.5-2.3-2.56-3.9-1.52-.83.54-.48,4.59-3.83,5.12-4.71.75-6.43-1.09-7.17.29-1.08,2.04,2.17,2.54,2.17,5.12,0,2.94-3.4,3.71-5.29,3.88-.96.08-1.67.71-.84,1.33Z"/>
    <path d="M97.83,25.95c2.1,1.57,5.59,3.21,9.47,2.88,3.59-.31,4.91-1.51,7-1.51,3.58,0,5.57,2.48,6.75,1.31,1.94-1.94-2.68-5.19-2.33-5.96.87-1.92,3.12-1.58,2.85-4.46-.2-2.04-1.75-4.75-4.86-6.48-2.71-1.5-2.3-2.56-3.9-1.52-.83.54-.48,4.59-3.83,5.12-4.71.75-6.43-1.09-7.17.29-1.08,2.04,2.17,2.54,2.17,5.12,0,2.94-3.4,3.71-5.29,3.88-.96.08-1.67.71-.84,1.33Z"/>
    <path d="M126.66,25.95c2.1,1.57,5.59,3.21,9.47,2.88,3.59-.31,4.91-1.51,7-1.51,3.58,0,5.57,2.48,6.75,1.31,1.94-1.94-2.68-5.19-2.33-5.96.87-1.92,3.12-1.58,2.85-4.46-.2-2.04-1.75-4.75-4.86-6.48-2.71-1.5-2.3-2.56-3.9-1.52-.83.54-.48,4.59-3.83,5.12-4.71.75-6.43-1.09-7.17.29-1.08,2.04,2.17,2.54,2.17,5.12,0,2.94-3.4,3.71-5.29,3.88-.96.08-1.67.71-.84,1.33Z"/>
    <path d="M155.5,25.95c2.1,1.57,5.59,3.21,9.47,2.88,3.59-.31,4.91-1.51,7-1.51,3.58,0,5.57,2.48,6.75,1.31,1.94-1.94-2.68-5.19-2.33-5.96.87-1.92,3.12-1.58,2.85-4.46-.2-2.04-1.75-4.75-4.86-6.48-2.71-1.5-2.3-2.56-3.9-1.52-.83.54-.48,4.59-3.83,5.12-4.71.75-6.43-1.09-7.17.29-1.08,2.04,2.17,2.54,2.17,5.12,0,2.94-3.4,3.71-5.29,3.88-.96.08-1.67.71-.84,1.33Z"/>
    <path d="M184.33,26.2c2.1,1.57,5.59,3.21,9.47,2.88,3.59-.31,4.91-1.51,7-1.51,3.58,0,5.57,2.48,6.75,1.31,1.94-1.94-2.68-5.19-2.33-5.96.87-1.92,3.12-1.58,2.85-4.46-.2-2.04-1.75-4.75-4.86-6.48-2.71-1.5-2.3-2.56-3.9-1.52-.83.54-.48,4.59-3.83,5.12-4.71.75-6.43-1.09-7.17.29-1.08,2.04,2.17,2.54,2.17,5.12,0,2.94-3.4,3.71-5.29,3.88-.96.08-1.67.71-.84,1.33Z"/>
  </g>
</svg>