<?xml version="1.0" encoding="UTF-8"?>
<svg xmlns="http://www.w3.org/2000/svg" version="1.1" viewBox="0 0 230.33 118.5">
  <!-- Generator: Adobe Illustrator 29.1.0, SVG Export Plug-In . SVG Version: 2.1.0 Build 142)  -->
  <defs>
    <style>
      .st0 {
        display: none;
      }
    </style>
  </defs>
  <g id="_x35_3a" class="st0">
    <g>
      <path d="M110.36,46.01l-10.57-10.57c-2.77-2.77-2.77-7.25,0-10.02,2.77-2.77,7.25-2.77,10.02,0l1.77,1.77"/>
      <path d="M109.88,46.01l10.57-10.57c2.77-2.77,2.77-7.25,0-10.02-2.77-2.77-7.25-2.77-10.02,0l-1.77,1.77"/>
      <path d="M110.12,60.54c-.98,0-1.77-.79-1.77-1.77l-5.32-21.26,7.09,1.77"/>
      <path d="M110.12,60.54c.98,0,1.77-.79,1.77-1.77l5.32-21.26-7.09,1.77"/>
    </g>
    <g>
      <path d="M30.64,46.01l-10.57-10.57c-2.77-2.77-2.77-7.25,0-10.02,2.77-2.77,7.25-2.77,10.02,0l1.77,1.77"/>
      <path d="M30.16,46.01l10.57-10.57c2.77-2.77,2.77-7.25,0-10.02-2.77-2.77-7.25-2.77-10.02,0l-1.77,1.77"/>
      <path d="M30.4,60.54c-.98,0-1.77-.79-1.77-1.77l-5.32-21.26,7.09,1.77"/>
      <path d="M30.4,60.54c.98,0,1.77-.79,1.77-1.77l5.32-21.26-7.09,1.77"/>
    </g>
    <g>
      <path d="M30.16,71.54l10.57,10.57c2.77,2.77,2.77,7.26,0,10.02-2.77,2.77-7.25,2.77-10.02,0l-1.77-1.77"/>
      <path d="M30.64,71.54l-10.57,10.57c-2.77,2.77-2.77,7.26,0,10.02,2.77,2.77,7.25,2.77,10.02,0l1.77-1.77"/>
      <path d="M30.4,57c.98,0,1.77.79,1.77,1.77l5.32,21.26-7.09-1.77"/>
      <path d="M30.4,57c-.98,0-1.77.79-1.77,1.77l-5.32,21.26,7.09-1.77"/>
    </g>
    <g>
      <path d="M186.54,46.01l-10.57-10.57c-2.77-2.77-2.77-7.25,0-10.02,2.77-2.77,7.25-2.77,10.02,0l1.77,1.77"/>
      <path d="M186.06,46.01l10.57-10.57c2.77-2.77,2.77-7.25,0-10.02-2.77-2.77-7.25-2.77-10.02,0l-1.77,1.77"/>
      <path d="M186.3,60.54c-.98,0-1.77-.79-1.77-1.77l-5.32-21.26,7.09,1.77"/>
      <path d="M186.3,60.54c.98,0,1.77-.79,1.77-1.77l5.32-21.26-7.09,1.77"/>
    </g>
    <g>
      <path d="M174.24,54.6l-13.31,6.78c-3.49,1.78-7.76.39-9.53-3.1-1.78-3.49-.39-7.75,3.1-9.53l2.23-1.14"/>
      <path d="M174.09,55.06l-6.79-13.31c-1.78-3.49-6.04-4.87-9.53-3.1-3.49,1.78-4.87,6.04-3.1,9.53l1.14,2.23"/>
      <path d="M187.99,59.32c-.3.93-1.3,1.44-2.23,1.14l-21.86-1.51,3.87-6.19"/>
      <path d="M187.99,59.32c.3-.93-.21-1.93-1.14-2.23l-18.58-11.62-.5,7.29"/>
    </g>
    <g>
      <path d="M178.6,68.96l2.34,14.76c.61,3.87-2.02,7.5-5.89,8.11-3.87.61-7.5-2.03-8.11-5.89l-.39-2.47"/>
      <path d="M179,69.25l-14.76,2.34c-3.87.61-6.5,4.24-5.89,8.11.61,3.87,4.24,6.5,8.11,5.89l2.47-.39"/>
      <path d="M187.35,57.34c.79.58.97,1.68.39,2.47l-8.2,20.32-4.69-5.6"/>
      <path d="M187.35,57.34c-.79-.58-1.9-.4-2.47.39l-16.8,14.08,6.78,2.73"/>
    </g>
    <g>
      <path d="M193.61,69.25l14.76,2.34c3.87.61,6.51,4.24,5.89,8.11-.61,3.87-4.24,6.5-8.11,5.89l-2.47-.39"/>
      <path d="M194,68.96l-2.34,14.76c-.61,3.87,2.03,7.5,5.89,8.11,3.87.61,7.5-2.03,8.11-5.89l.39-2.47"/>
      <path d="M185.26,57.34c.79-.58,1.9-.4,2.47.39l16.8,14.07-6.78,2.73"/>
      <path d="M185.26,57.34c-.79.58-.97,1.68-.39,2.47l8.2,20.32,4.69-5.6"/>
    </g>
    <g>
      <path d="M198.52,55.06l6.79-13.31c1.78-3.49,6.04-4.88,9.53-3.1,3.49,1.78,4.87,6.04,3.1,9.53l-1.14,2.23"/>
      <path d="M198.37,54.6l13.32,6.78c3.49,1.78,7.76.39,9.53-3.1,1.78-3.49.39-7.75-3.1-9.53l-2.23-1.14"/>
      <path d="M184.62,59.32c-.3-.93.21-1.93,1.14-2.23l18.58-11.63.5,7.29"/>
      <path d="M184.62,59.32c.3.93,1.3,1.44,2.23,1.14l21.86-1.51-3.88-6.19"/>
    </g>
    <g>
      <path d="M98.94,64.95l-3.87,14.43c-1.01,3.78-4.9,6.02-8.68,5.01-3.78-1.01-6.02-4.9-5.01-8.68l.65-2.42"/>
      <path d="M99.19,65.37l-14.44-3.87c-3.78-1.01-7.67,1.23-8.68,5.01-1.01,3.78,1.23,7.67,5.01,8.68l2.42.65"/>
      <path d="M111.66,57.89c.49.85.2,1.93-.65,2.42l-15.75,15.23-2.01-7.02"/>
      <path d="M111.66,57.89c-.49-.85-1.57-1.14-2.42-.65l-21.07,6.03,5.08,5.25"/>
    </g>
    <g>
      <path d="M121.06,65.37l14.43-3.87c3.78-1.01,7.67,1.23,8.68,5.01,1.01,3.78-1.23,7.67-5.01,8.68l-2.42.65"/>
      <path d="M121.3,64.95l3.87,14.43c1.01,3.78,4.9,6.03,8.68,5.01,3.78-1.01,6.02-4.9,5.01-8.68l-.65-2.42"/>
      <path d="M108.59,57.89c.49-.85,1.57-1.14,2.42-.65l21.07,6.03-5.08,5.25"/>
      <path d="M108.59,57.89c-.49.85-.2,1.93.65,2.42l15.75,15.23,2.01-7.02"/>
    </g>
  </g>
  <g id="_x35_3b" class="st0">
    <g>
      <path d="M110.36,46.01l-10.57-10.57c-2.77-2.77-2.77-7.25,0-10.02,2.77-2.77,7.25-2.77,10.02,0l1.77,1.77"/>
      <path d="M109.88,46.01l10.57-10.57c2.77-2.77,2.77-7.25,0-10.02-2.77-2.77-7.25-2.77-10.02,0l-1.77,1.77"/>
      <path d="M110.12,60.54c-.98,0-1.77-.79-1.77-1.77l-3.54-19.49h5.32"/>
      <path d="M110.12,60.54c.98,0,1.77-.79,1.77-1.77l3.54-19.49h-5.32"/>
    </g>
    <g>
      <path d="M32.41,46.01l-10.57-10.57c-2.77-2.77-2.77-7.25,0-10.02,2.77-2.77,7.25-2.77,10.02,0l1.77,1.77"/>
      <path d="M31.93,46.01l10.57-10.57c2.77-2.77,2.77-7.25,0-10.02-2.77-2.77-7.25-2.77-10.02,0l-1.77,1.77"/>
      <path d="M32.17,60.54c-.98,0-1.77-.79-1.77-1.77l-3.54-19.49h5.32"/>
      <path d="M32.17,60.54c.98,0,1.77-.79,1.77-1.77l3.54-19.49h-5.32"/>
    </g>
    <g>
      <path d="M31.93,71.54l10.57,10.57c2.77,2.77,2.77,7.25,0,10.02-2.77,2.77-7.25,2.77-10.02,0l-1.77-1.77"/>
      <path d="M32.41,71.54l-10.57,10.57c-2.77,2.77-2.77,7.25,0,10.02,2.77,2.77,7.25,2.77,10.02,0l1.77-1.77"/>
      <path d="M32.17,57c.98,0,1.77.79,1.77,1.77l3.54,19.49h-5.32"/>
      <path d="M32.17,57c-.98,0-1.77.79-1.77,1.77l-3.54,19.49h5.32"/>
    </g>
    <g>
      <path d="M98.94,64.95l-3.87,14.43c-1.01,3.78-4.9,6.02-8.68,5.01-3.78-1.01-6.02-4.9-5.01-8.68l.65-2.42"/>
      <path d="M99.19,65.37l-14.44-3.87c-3.78-1.01-7.67,1.23-8.68,5.01-1.01,3.78,1.23,7.67,5.01,8.68l2.42.65"/>
      <path d="M111.66,57.89c.49.85.2,1.93-.65,2.42l-15.11,12.81-2.66-4.6"/>
      <path d="M111.66,57.89c-.49-.85-1.57-1.14-2.42-.65l-18.65,6.67,2.66,4.6"/>
    </g>
    <g>
      <path d="M121.06,65.37l14.44-3.87c3.78-1.01,7.67,1.23,8.68,5.01,1.01,3.78-1.23,7.67-5.01,8.68l-2.42.65"/>
      <path d="M121.3,64.95l3.87,14.43c1.01,3.78,4.9,6.03,8.68,5.01,3.78-1.01,6.02-4.9,5.01-8.68l-.65-2.42"/>
      <path d="M108.59,57.89c.49-.85,1.57-1.14,2.42-.65l18.65,6.67-2.66,4.6"/>
      <path d="M108.59,57.89c-.49.85-.2,1.93.65,2.42l15.11,12.81,2.66-4.6"/>
    </g>
    <g>
      <path d="M186.54,46.01l-10.57-10.57c-2.77-2.77-2.77-7.25,0-10.02,2.77-2.77,7.25-2.77,10.02,0l1.77,1.77"/>
      <path d="M186.06,46.01l10.57-10.57c2.77-2.77,2.77-7.25,0-10.02-2.77-2.77-7.25-2.77-10.02,0l-1.77,1.77"/>
      <path d="M186.3,60.54c-.98,0-1.77-.79-1.77-1.77l-3.54-19.49h5.32"/>
      <path d="M186.3,60.54c.98,0,1.77-.79,1.77-1.77l3.54-19.49h-5.32"/>
    </g>
    <g>
      <path d="M174.24,54.6l-13.31,6.78c-3.49,1.78-7.76.39-9.53-3.1-1.78-3.49-.39-7.75,3.1-9.53l2.23-1.14"/>
      <path d="M174.09,55.06l-6.79-13.31c-1.78-3.49-6.04-4.87-9.53-3.1-3.49,1.78-4.87,6.04-3.1,9.53l1.14,2.23"/>
      <path d="M187.99,59.32c-.3.93-1.3,1.44-2.23,1.14l-19.63-2.65,1.64-5.06"/>
      <path d="M187.99,59.32c.3-.93-.21-1.93-1.14-2.23l-17.44-9.39-1.64,5.06"/>
    </g>
    <g>
      <path d="M178.6,68.96l2.34,14.76c.61,3.87-2.02,7.5-5.89,8.11-3.87.61-7.5-2.02-8.11-5.89l-.39-2.47"/>
      <path d="M179,69.24l-14.76,2.34c-3.87.61-6.5,4.24-5.89,8.11.61,3.87,4.24,6.5,8.11,5.89l2.47-.39"/>
      <path d="M187.35,57.34c.79.58.97,1.68.39,2.47l-8.59,17.85-4.3-3.12"/>
      <path d="M187.35,57.34c-.79-.58-1.9-.4-2.47.39l-14.32,13.68,4.3,3.12"/>
    </g>
    <g>
      <path d="M193.61,69.24l14.76,2.34c3.87.61,6.5,4.24,5.89,8.11-.61,3.87-4.24,6.5-8.11,5.89l-2.47-.39"/>
      <path d="M194,68.96l-2.34,14.76c-.61,3.87,2.02,7.5,5.89,8.11,3.87.61,7.5-2.03,8.11-5.89l.39-2.47"/>
      <path d="M185.26,57.34c.79-.58,1.9-.4,2.47.39l14.32,13.68-4.3,3.12"/>
      <path d="M185.26,57.34c-.79.58-.97,1.68-.39,2.47l8.59,17.85,4.3-3.12"/>
    </g>
    <g>
      <path d="M198.52,55.06l6.79-13.31c1.78-3.49,6.04-4.88,9.53-3.1,3.49,1.78,4.88,6.04,3.1,9.53l-1.14,2.23"/>
      <path d="M198.37,54.6l13.31,6.78c3.49,1.78,7.76.39,9.53-3.1,1.78-3.49.39-7.76-3.1-9.53l-2.23-1.14"/>
      <path d="M184.62,59.32c-.3-.93.21-1.93,1.14-2.23l17.44-9.39,1.64,5.05"/>
      <path d="M184.62,59.32c.3.93,1.3,1.44,2.23,1.14l19.63-2.65-1.64-5.06"/>
    </g>
  </g>
  <g id="_x35_1-52">
    <g>
      <path d="M60.01,67.88c13.43,19.75,32.67,9.09,32.67,6.35,0-.61-.3-1.1-1.08-1.28-16.78-3.78-14.1-14.48-23.69-24.35-2.34-2.41-17.25,5.53-7.9,19.28Z"/>
      <path d="M49.32,40.84c-13.43-19.75-32.67-9.09-32.67-6.35,0,.61.3,1.1,1.09,1.28,16.78,3.78,14.1,14.48,23.69,24.35,2.34,2.41,17.25-5.53,7.9-19.28Z"/>
      <path d="M68.19,49.02c19.75-13.43,9.09-32.67,6.35-32.67-.61,0-1.1.3-1.28,1.09-3.78,16.78-14.48,14.1-24.35,23.69-2.41,2.34,5.53,17.25,19.28,7.9Z"/>
      <path d="M41.14,59.7c-19.75,13.43-9.09,32.67-6.35,32.67.61,0,1.1-.3,1.28-1.08,3.78-16.78,14.48-14.1,24.35-23.69,2.41-2.34-5.53-17.25-19.28-7.9Z"/>
      <path d="M63.36,53.88c0,4.99-4.04,9.03-9.03,9.03s-9.03-4.04-9.03-9.03,4.04-9.03,9.03-9.03,9.03,4.04,9.03,9.03Z"/>
    </g>
    <path d="M158.94,35.25c2.69,0,1.69-5.06,15.23-.56,4.99,1.66,8.49-4.37,13.52-1.62.69.38,1.87-.04,1.5-1.56-.56-2.31-2.19-3.5-2.19-4.31,0-1.38,2.26-1.05,2.94-2.89,1.81-4.94-6.41-8.16-7.12-10.36-.07-.22-1.31-.3-1.92,1.32-.33.86.86,5.68-10.01,5.18-1.23-.06-2.83.8-.81,2.69,7.69,7.19-8.85,2.94-12.06,11.06-.38.96.94,1.06.94,1.06Z"/>
    <path d="M206.52,67.99c-2.69,0-1.69,5.06-15.23.56-4.99-1.66-8.49,4.37-13.52,1.62-.69-.38-1.87.04-1.5,1.56.56,2.31,2.19,3.5,2.19,4.31,0,1.38-2.26,1.05-2.94,2.89-1.81,4.94,6.41,8.16,7.12,10.36.07.22,1.31.3,1.92-1.32.33-.87-.86-5.68,10.01-5.18,1.23.06,2.83-.8.81-2.69-7.69-7.19,8.85-2.94,12.06-11.06.38-.96-.94-1.06-.94-1.06Z"/>
    <path d="M166.36,75.41c0-2.69-5.06-1.69-.56-15.23,1.66-4.99-4.37-8.49-1.62-13.52.37-.69-.04-1.87-1.56-1.5-2.31.56-3.5,2.19-4.31,2.19-1.37,0-1.05-2.26-2.89-2.94-4.94-1.81-8.16,6.41-10.36,7.12-.22.07-.3,1.31,1.32,1.92.87.33,5.68-.86,5.18,10.01-.06,1.23.8,2.84,2.69.81,7.19-7.69,2.94,8.85,11.06,12.06.96.38,1.06-.94,1.06-.94Z"/>
    <path d="M199.1,27.83c0,2.69,5.06,1.69.56,15.23-1.66,4.99,4.37,8.49,1.62,13.52-.37.69.04,1.87,1.56,1.5,2.31-.56,3.5-2.19,4.31-2.19,1.37,0,1.05,2.26,2.89,2.94,4.94,1.81,8.16-6.41,10.36-7.12.22-.07.3-1.31-1.32-1.92-.87-.33-5.68.86-5.18-10.01.06-1.23-.8-2.84-2.69-.81-7.19,7.69-2.94-8.85-11.06-12.06-.96-.38-1.06.94-1.06.94Z"/>
  </g>
</svg>