<?xml version="1.0" encoding="UTF-8"?>
<svg id="Ebene_2" xmlns="http://www.w3.org/2000/svg" version="1.1" viewBox="0 0 311.81 118.76">
  <!-- Generator: Adobe Illustrator 29.1.0, SVG Export Plug-In . SVG Version: 2.1.0 Build 142)  -->
  <defs>
    <style>
      .st0 {
        fill: #010101;
      }

      .st1 {
        fill: #1d1d1b;
        font-family: Helvetica, Helvetica;
        font-size: 8px;
      }
    </style>
  </defs>
  <text class="st1" transform="translate(47.99 110.35)"><tspan x="0" y="0">51</tspan></text>
  <text class="st1" transform="translate(175.55 110.35)"><tspan x="0" y="0">52</tspan></text>
  <g id="_x35_1-52">
    <g>
      <path class="st0" d="M57.53,68.22c13.43,19.75,32.67,9.09,32.67,6.35,0-.61-.3-1.1-1.08-1.28-16.78-3.78-14.1-14.48-23.69-24.35-2.34-2.41-17.25,5.53-7.9,19.28h0Z"/>
      <path class="st0" d="M46.84,41.18c-13.43-19.75-32.67-9.09-32.67-6.35,0,.61.3,1.1,1.09,1.28,16.78,3.78,14.1,14.48,23.69,24.35,2.34,2.41,17.25-5.53,7.9-19.28h-.01Z"/>
      <path class="st0" d="M65.71,49.36c19.75-13.43,9.09-32.67,6.35-32.67-.61,0-1.1.3-1.28,1.09-3.78,16.78-14.48,14.1-24.35,23.69-2.41,2.34,5.53,17.25,19.28,7.9h0Z"/>
      <path class="st0" d="M38.66,60.04c-19.75,13.43-9.09,32.67-6.35,32.67.61,0,1.1-.3,1.28-1.08,3.78-16.78,14.48-14.1,24.35-23.69,2.41-2.34-5.53-17.25-19.28-7.9h0Z"/>
      <path class="st0" d="M60.88,54.22c0,4.99-4.04,9.03-9.03,9.03s-9.03-4.04-9.03-9.03,4.04-9.03,9.03-9.03,9.03,4.04,9.03,9.03Z"/>
    </g>
    <path class="st0" d="M156.46,35.59c2.69,0,1.69-5.06,15.23-.56,4.99,1.66,8.49-4.37,13.52-1.62.69.38,1.87-.04,1.5-1.56-.56-2.31-2.19-3.5-2.19-4.31,0-1.38,2.26-1.05,2.94-2.89,1.81-4.94-6.41-8.16-7.12-10.36-.07-.22-1.31-.3-1.92,1.32-.33.86.86,5.68-10.01,5.18-1.23-.06-2.83.8-.81,2.69,7.69,7.19-8.85,2.94-12.06,11.06-.38.96.94,1.06.94,1.06h-.02Z"/>
    <path class="st0" d="M204.04,68.33c-2.69,0-1.69,5.06-15.23.56-4.99-1.66-8.49,4.37-13.52,1.62-.69-.38-1.87.04-1.5,1.56.56,2.31,2.19,3.5,2.19,4.31,0,1.38-2.26,1.05-2.94,2.89-1.81,4.94,6.41,8.16,7.12,10.36.07.22,1.31.3,1.92-1.32.33-.87-.86-5.68,10.01-5.18,1.23.06,2.83-.8.81-2.69-7.69-7.19,8.85-2.94,12.06-11.06.38-.96-.94-1.06-.94-1.06h.02Z"/>
    <path class="st0" d="M163.88,75.75c0-2.69-5.06-1.69-.56-15.23,1.66-4.99-4.37-8.49-1.62-13.52.37-.69-.04-1.87-1.56-1.5-2.31.56-3.5,2.19-4.31,2.19-1.37,0-1.05-2.26-2.89-2.94-4.94-1.81-8.16,6.41-10.36,7.12-.22.07-.3,1.31,1.32,1.92.87.33,5.68-.86,5.18,10.01-.06,1.23.8,2.84,2.69.81,7.19-7.69,2.94,8.85,11.06,12.06.96.38,1.06-.94,1.06-.94v.02Z"/>
    <path class="st0" d="M196.62,28.17c0,2.69,5.06,1.69.56,15.23-1.66,4.99,4.37,8.49,1.62,13.52-.37.69.04,1.87,1.56,1.5,2.31-.56,3.5-2.19,4.31-2.19,1.37,0,1.05,2.26,2.89,2.94,4.94,1.81,8.16-6.41,10.36-7.12.22-.07.3-1.31-1.32-1.92-.87-.33-5.68.86-5.18-10.01.06-1.23-.8-2.84-2.69-.81-7.19,7.69-2.94-8.85-11.06-12.06-.96-.38-1.06.94-1.06.94v-.02Z"/>
  </g>
</svg>