<?xml version="1.0" encoding="UTF-8"?>
<svg id="Ebene_2" xmlns="http://www.w3.org/2000/svg" version="1.1" viewBox="0 0 311.81 113.39">
  <!-- Generator: Adobe Illustrator 29.1.0, SVG Export Plug-In . SVG Version: 2.1.0 Build 142)  -->
  <defs>
    <style>
      .st0 {
        fill: #010101;
      }

      .st1 {
        fill: #1d1d1b;
        font-family: Helvetica, Helvetica;
        font-size: 8px;
      }
    </style>
  </defs>
  <text class="st1" transform="translate(108.94 104.96)"><tspan x="0" y="0">53</tspan></text>
  <g id="_x35_3a">
    <g>
      <path class="st0" d="M113.72,36.84l-10.57-10.57c-2.77-2.77-2.77-7.25,0-10.02s7.25-2.77,10.02,0l1.77,1.77"/>
      <path class="st0" d="M113.24,36.84l10.57-10.57c2.77-2.77,2.77-7.25,0-10.02s-7.25-2.77-10.02,0l-1.77,1.77"/>
      <path class="st0" d="M113.48,51.37c-.98,0-1.77-.79-1.77-1.77l-5.32-21.26,7.09,1.77"/>
      <path class="st0" d="M113.48,51.37c.98,0,1.77-.79,1.77-1.77l5.32-21.26-7.09,1.77"/>
    </g>
    <g>
      <path class="st0" d="M26.82,36.84l-10.57-10.57c-2.77-2.77-2.77-7.25,0-10.02s7.25-2.77,10.02,0l1.77,1.77"/>
      <path class="st0" d="M26.34,36.84l10.57-10.57c2.77-2.77,2.77-7.25,0-10.02s-7.25-2.77-10.02,0l-1.77,1.77"/>
      <path class="st0" d="M26.58,51.37c-.98,0-1.77-.79-1.77-1.77l-5.32-21.26,7.09,1.77"/>
      <path class="st0" d="M26.58,51.37c.98,0,1.77-.79,1.77-1.77l5.32-21.26-7.09,1.77"/>
    </g>
    <g>
      <path class="st0" d="M26.34,62.37l10.57,10.57c2.77,2.77,2.77,7.26,0,10.02-2.77,2.77-7.25,2.77-10.02,0l-1.77-1.77"/>
      <path class="st0" d="M26.82,62.37l-10.57,10.57c-2.77,2.77-2.77,7.26,0,10.02,2.77,2.77,7.25,2.77,10.02,0l1.77-1.77"/>
      <path class="st0" d="M26.58,47.83c.98,0,1.77.79,1.77,1.77l5.32,21.26-7.09-1.77"/>
      <path class="st0" d="M26.58,47.83c-.98,0-1.77.79-1.77,1.77l-5.32,21.26,7.09-1.77"/>
    </g>
    <g>
      <path class="st0" d="M211.44,36.84l-10.57-10.57c-2.77-2.77-2.77-7.25,0-10.02s7.25-2.77,10.02,0l1.77,1.77"/>
      <path class="st0" d="M210.96,36.84l10.57-10.57c2.77-2.77,2.77-7.25,0-10.02s-7.25-2.77-10.02,0l-1.77,1.77"/>
      <path class="st0" d="M211.2,51.37c-.98,0-1.77-.79-1.77-1.77l-5.32-21.26,7.09,1.77"/>
      <path class="st0" d="M211.2,51.37c.98,0,1.77-.79,1.77-1.77l5.32-21.26-7.09,1.77"/>
    </g>
    <g>
      <path class="st0" d="M199.14,45.43l-13.31,6.78c-3.49,1.78-7.76.39-9.53-3.1-1.78-3.49-.39-7.75,3.1-9.53l2.23-1.14"/>
      <path class="st0" d="M198.99,45.89l-6.79-13.31c-1.78-3.49-6.04-4.87-9.53-3.1-3.49,1.78-4.87,6.04-3.1,9.53l1.14,2.23"/>
      <path class="st0" d="M212.89,50.15c-.3.93-1.3,1.44-2.23,1.14l-21.86-1.51,3.87-6.19"/>
      <path class="st0" d="M212.89,50.15c.3-.93-.21-1.93-1.14-2.23l-18.58-11.62-.5,7.29"/>
    </g>
    <g>
      <path class="st0" d="M203.5,59.79l2.34,14.76c.61,3.87-2.02,7.5-5.89,8.11s-7.5-2.03-8.11-5.89l-.39-2.47"/>
      <path class="st0" d="M203.9,60.08l-14.76,2.34c-3.87.61-6.5,4.24-5.89,8.11s4.24,6.5,8.11,5.89l2.47-.39"/>
      <path class="st0" d="M212.25,48.17c.79.58.97,1.68.39,2.47l-8.2,20.32-4.69-5.6"/>
      <path class="st0" d="M212.25,48.17c-.79-.58-1.9-.4-2.47.39l-16.8,14.08,6.78,2.73"/>
    </g>
    <g>
      <path class="st0" d="M218.51,60.08l14.76,2.34c3.87.61,6.51,4.24,5.89,8.11-.61,3.87-4.24,6.5-8.11,5.89l-2.47-.39"/>
      <path class="st0" d="M218.9,59.79l-2.34,14.76c-.61,3.87,2.03,7.5,5.89,8.11,3.87.61,7.5-2.03,8.11-5.89l.39-2.47"/>
      <path class="st0" d="M210.16,48.17c.79-.58,1.9-.4,2.47.39l16.8,14.07-6.78,2.73"/>
      <path class="st0" d="M210.16,48.17c-.79.58-.97,1.68-.39,2.47l8.2,20.32,4.69-5.6"/>
    </g>
    <g>
      <path class="st0" d="M223.42,45.89l6.79-13.31c1.78-3.49,6.04-4.88,9.53-3.1,3.49,1.78,4.87,6.04,3.1,9.53l-1.14,2.23"/>
      <path class="st0" d="M223.27,45.43l13.32,6.78c3.49,1.78,7.76.39,9.53-3.1,1.78-3.49.39-7.75-3.1-9.53l-2.23-1.14"/>
      <path class="st0" d="M209.52,50.15c-.3-.93.21-1.93,1.14-2.23l18.58-11.63.5,7.29"/>
      <path class="st0" d="M209.52,50.15c.3.93,1.3,1.44,2.23,1.14l21.86-1.51-3.88-6.19"/>
    </g>
    <g>
      <path class="st0" d="M102.3,55.78l-3.87,14.43c-1.01,3.78-4.9,6.02-8.68,5.01-3.78-1.01-6.02-4.9-5.01-8.68l.65-2.42"/>
      <path class="st0" d="M102.55,56.2l-14.44-3.87c-3.78-1.01-7.67,1.23-8.68,5.01s1.23,7.67,5.01,8.68l2.42.65"/>
      <path class="st0" d="M115.02,48.72c.49.85.2,1.93-.65,2.42l-15.75,15.23-2.01-7.02"/>
      <path class="st0" d="M115.02,48.72c-.49-.85-1.57-1.14-2.42-.65l-21.07,6.03,5.08,5.25"/>
    </g>
    <g>
      <path class="st0" d="M124.42,56.2l14.43-3.87c3.78-1.01,7.67,1.23,8.68,5.01s-1.23,7.67-5.01,8.68l-2.42.65"/>
      <path class="st0" d="M124.66,55.78l3.87,14.43c1.01,3.78,4.9,6.03,8.68,5.01,3.78-1.01,6.02-4.9,5.01-8.68l-.65-2.42"/>
      <path class="st0" d="M111.95,48.72c.49-.85,1.57-1.14,2.42-.65l21.07,6.03-5.08,5.25"/>
      <path class="st0" d="M111.95,48.72c-.49.85-.2,1.93.65,2.42l15.75,15.23,2.01-7.02"/>
    </g>
  </g>
</svg>