<?xml version="1.0" encoding="UTF-8"?>
<svg id="Ebene_2" xmlns="http://www.w3.org/2000/svg" version="1.1" viewBox="0 0 311.81 113.39">
  <!-- Generator: Adobe Illustrator 29.1.0, SVG Export Plug-In . SVG Version: 2.1.0 Build 142)  -->
  <defs>
    <style>
      .st0 {
        fill: none;
        stroke: #1e1e1c;
        stroke-miterlimit: 10;
        stroke-width: 1.2px;
      }

      .st1 {
        fill: #1d1d1b;
        font-family: Helvetica, Helvetica;
        font-size: 8px;
      }
    </style>
  </defs>
  <text class="st1" transform="translate(123.11 104.96)"><tspan x="0" y="0">54</tspan></text>
  <g id="_x35_4">
    <g>
      <path class="st0" d="M104.4,43.02c7.2-9.22,14.4-18.44,23.05-18.44,17.28,0,28.82,36.87,46.1,36.87s28.81-36.88,46.1-36.88h0c7.85,0,14.52,7.61,21.07,15.92"/>
      <path class="st0" d="M104.4,43.02c-7.2,9.22-14.4,18.44-23.05,18.44-17.28,0-28.81-36.87-46.1-36.87h0c-7.85,0-14.52,7.61-21.08,15.92"/>
      <path class="st0" d="M211.38,14.17c-13.06,8.56-23.45,34.11-37.84,34.11s-24.79-25.55-37.85-34.11"/>
      <path class="st0" d="M119.19,14.17c-5.21,3.42-10.01,9.54-14.79,15.68"/>
      <path class="st0" d="M227.9,14.17c4.5,2.95,8.68,7.91,12.81,13.16"/>
      <path class="st0" d="M104.4,29.85c-7.2,9.22-14.4,18.44-23.05,18.44-14.39,0-24.79-25.55-37.84-34.11"/>
      <path class="st0" d="M26.99,14.17c-4.49,2.95-8.68,7.92-12.81,13.16"/>
      <path class="st0" d="M106.36,14.17c-.66.83-1.31,1.67-1.96,2.51"/>
      <path class="st0" d="M198.56,14.17c-7.87,9.97-15.58,20.95-25.02,20.95s-17.15-10.97-25.02-20.95"/>
      <path class="st0" d="M104.4,16.68c-7.2,9.22-14.4,18.44-23.05,18.44-9.43,0-17.15-10.97-25.02-20.95"/>
      <path class="st0" d="M159.42,14.17c4.4,4.54,9.01,7.78,14.12,7.78s9.72-3.22,14.12-7.78"/>
      <path class="st0" d="M67.22,14.17c4.4,4.54,9.01,7.78,14.12,7.78s9.72-3.22,14.12-7.78"/>
      <path class="st0" d="M104.4,56.19c7.2-9.22,14.4-18.44,23.05-18.44,17.28,0,28.81,36.87,46.1,36.87s28.81-36.88,46.1-36.88h0c7.85,0,14.52,7.61,21.07,15.92"/>
      <path class="st0" d="M104.4,56.19c-7.2,9.22-14.4,18.44-23.05,18.44-17.28,0-28.81-36.87-46.1-36.87h0c-7.85,0-14.52,7.61-21.08,15.92"/>
      <path class="st0" d="M104.4,69.36c7.2-9.22,14.4-18.44,23.05-18.44,14.39,0,24.79,25.55,37.84,34.11"/>
      <path class="st0" d="M181.8,85.04c13.06-8.56,23.45-34.11,37.84-34.11h0c7.85,0,14.52,7.61,21.07,15.92"/>
      <path class="st0" d="M73.09,85.04c-13.06-8.56-23.45-34.11-37.84-34.11h0c-7.85,0-14.52,7.61-21.08,15.92"/>
      <path class="st0" d="M89.6,85.04c5.21-3.42,10.01-9.54,14.79-15.68"/>
      <path class="st0" d="M194.63,85.04c7.87-9.97,15.58-20.95,25.02-20.95h0c7.85,0,14.52,7.61,21.07,15.92"/>
      <path class="st0" d="M104.4,82.53c7.2-9.22,14.4-18.44,23.05-18.44,9.43,0,17.15,10.97,25.02,20.95"/>
      <path class="st0" d="M104.4,82.53c-.65.84-1.31,1.67-1.97,2.51"/>
      <path class="st0" d="M60.27,85.04c-7.87-9.97-15.58-20.95-25.02-20.95h0c-7.85,0-14.52,7.61-21.08,15.92"/>
      <path class="st0" d="M233.77,85.04c-4.4-4.54-9.01-7.78-14.12-7.78h0c-5.11,0-9.72,3.22-14.12,7.78"/>
      <path class="st0" d="M141.58,85.04c-4.4-4.54-9.01-7.78-14.12-7.78s-9.72,3.22-14.12,7.78"/>
      <path class="st0" d="M49.37,85.04c-4.4-4.54-9.01-7.78-14.12-7.78h0c-5.11,0-9.72,3.22-14.12,7.78"/>
      <line class="st0" x1="113.32" y1="85.04" x2="141.58" y2="85.04"/>
      <line class="st0" x1="60.27" y1="85.04" x2="73.09" y2="85.04"/>
      <line class="st0" x1="14.17" y1="40.5" x2="14.17" y2="53.68"/>
      <line class="st0" x1="106.36" y1="14.17" x2="119.19" y2="14.17"/>
      <line class="st0" x1="14.17" y1="53.68" x2="14.17" y2="66.84"/>
      <line class="st0" x1="21.12" y1="85.04" x2="49.37" y2="85.04"/>
      <line class="st0" x1="89.6" y1="85.04" x2="102.43" y2="85.04"/>
      <line class="st0" x1="187.67" y1="14.17" x2="159.42" y2="14.17"/>
      <line class="st0" x1="198.56" y1="14.17" x2="211.38" y2="14.17"/>
      <line class="st0" x1="240.71" y1="53.67" x2="240.71" y2="40.5"/>
      <line class="st0" x1="14.17" y1="40.5" x2="14.17" y2="27.33"/>
      <line class="st0" x1="152.46" y1="85.04" x2="165.28" y2="85.04"/>
      <line class="st0" x1="205.51" y1="85.04" x2="233.77" y2="85.04"/>
      <line class="st0" x1="194.63" y1="85.04" x2="181.8" y2="85.04"/>
      <line class="st0" x1="240.71" y1="80.01" x2="240.71" y2="66.84"/>
      <line class="st0" x1="95.48" y1="14.17" x2="67.22" y2="14.17"/>
      <line class="st0" x1="194.63" y1="85.04" x2="205.51" y2="85.04"/>
      <polyline class="st0" points="240.71 80.01 240.71 85.04 233.77 85.04"/>
      <line class="st0" x1="240.71" y1="27.33" x2="240.71" y2="40.5"/>
      <line class="st0" x1="240.71" y1="53.67" x2="240.71" y2="66.84"/>
      <line class="st0" x1="181.8" y1="85.04" x2="165.28" y2="85.04"/>
      <polyline class="st0" points="14.17 80.01 14.17 85.04 21.12 85.04"/>
      <line class="st0" x1="14.17" y1="66.84" x2="14.17" y2="80.01"/>
      <line class="st0" x1="211.38" y1="14.17" x2="227.9" y2="14.17"/>
      <line class="st0" x1="102.43" y1="85.04" x2="113.32" y2="85.04"/>
      <line class="st0" x1="60.27" y1="85.04" x2="49.37" y2="85.04"/>
      <line class="st0" x1="152.46" y1="85.04" x2="141.58" y2="85.04"/>
      <line class="st0" x1="148.53" y1="14.17" x2="135.69" y2="14.17"/>
      <line class="st0" x1="106.36" y1="14.17" x2="95.48" y2="14.17"/>
      <line class="st0" x1="26.99" y1="14.17" x2="43.5" y2="14.17"/>
      <line class="st0" x1="56.33" y1="14.17" x2="67.22" y2="14.17"/>
      <line class="st0" x1="56.33" y1="14.17" x2="43.5" y2="14.17"/>
      <polyline class="st0" points="26.99 14.17 14.17 14.17 14.17 27.33"/>
      <line class="st0" x1="198.56" y1="14.17" x2="187.67" y2="14.17"/>
      <line class="st0" x1="148.53" y1="14.17" x2="159.42" y2="14.17"/>
      <line class="st0" x1="89.6" y1="85.04" x2="73.09" y2="85.04"/>
      <polyline class="st0" points="240.71 27.33 240.71 14.17 227.9 14.17"/>
      <line class="st0" x1="119.19" y1="14.17" x2="135.69" y2="14.17"/>
    </g>
  </g>
</svg>