<?xml version="1.0" encoding="UTF-8"?>
<svg id="Ebene_2" xmlns="http://www.w3.org/2000/svg" version="1.1" viewBox="0 0 311.81 113.39">
  <!-- Generator: Adobe Illustrator 29.1.0, SVG Export Plug-In . SVG Version: 2.1.0 Build 142)  -->
  <defs>
    <style>
      .st0 {
        fill: none;
        stroke: #1e1e1c;
        stroke-miterlimit: 10;
        stroke-width: 1.2px;
      }

      .st1 {
        fill: #1d1d1b;
        font-family: Helvetica, Helvetica;
        font-size: 8px;
      }
    </style>
  </defs>
  <text class="st1" transform="translate(123.11 104.96)"><tspan x="0" y="0">55</tspan></text>
  <g id="_x35_5">
    <g>
      <path class="st0" d="M73.66,43.02c7.2-9.22,14.4-18.43,23.04-18.43,17.28,0,28.8,36.87,46.1,36.87s28.8-36.88,46.1-36.88h0c17.28,0,28.8,36.88,46.1,36.88,1.97,0,3.87-.48,5.7-1.34"/>
      <path class="st0" d="M73.65,43.02c-7.2,9.22-14.4,18.43-23.04,18.43-13.87,0-24.03-23.73-36.43-33.11"/>
      <path class="st0" d="M80.77,14.18c-5.21,3.42-10.01,9.54-14.79,15.67"/>
      <path class="st0" d="M240.68,41.27c-4.18,4.14-8.56,7.02-13.39,7.02-14.39,0-24.79-25.55-37.83-34.11"/>
      <path class="st0" d="M97.27,14.18c13.05,8.56,23.45,34.11,37.84,34.11s24.78-25.55,37.83-34.11"/>
      <path class="st0" d="M65.97,29.86c-7.2,9.22-14.4,18.43-23.04,18.43-10.92,0-19.54-14.7-28.76-25.53"/>
      <path class="st0" d="M240.68,19.21c-6.55,8.31-13.22,15.92-21.07,15.92-9.43,0-17.14-10.97-25.01-20.94"/>
      <path class="st0" d="M60.26,14.18c-.66.83-1.31,1.67-1.96,2.51"/>
      <path class="st0" d="M152.44,14.18c-7.87,9.97-15.58,20.94-25.01,20.94s-17.14-10.97-25.01-20.94"/>
      <path class="st0" d="M58.29,16.69c-7.2,9.22-14.4,18.43-23.04,18.43-7.85,0-14.52-7.61-21.07-15.92"/>
      <path class="st0" d="M105.62,14.18c4.4,4.54,9.01,7.78,14.12,7.78s9.72-3.22,14.12-7.78"/>
      <path class="st0" d="M197.8,14.18c4.4,4.54,9.01,7.78,14.12,7.78s9.72-3.22,14.12-7.78"/>
      <path class="st0" d="M14.17,14.93c4.18,4.14,8.56,7.02,13.39,7.02,5.11,0,9.72-3.22,14.12-7.78"/>
      <path class="st0" d="M81.33,56.2c7.2-9.22,14.4-18.43,23.04-18.43,17.28,0,28.8,36.87,46.1,36.87s28.8-36.88,46.1-36.88h0c16.61,0,27.91,34.07,44.12,36.71"/>
      <path class="st0" d="M81.33,56.19c-7.2,9.22-14.4,18.43-23.04,18.43-16.62,0-27.91-34.06-44.12-36.69"/>
      <path class="st0" d="M149.9,85.04c-13.05-8.56-23.45-34.11-37.83-34.11-8.64,0-15.84,9.22-23.04,18.43"/>
      <path class="st0" d="M166.41,85.04c13.05-8.56,23.45-34.11,37.83-34.11h0c13.87,0,24.03,23.74,36.43,33.12"/>
      <path class="st0" d="M14.17,52.26c1.84-.85,3.74-1.34,5.7-1.34h0c14.39,0,24.78,25.55,37.83,34.11"/>
      <path class="st0" d="M89.02,69.36c-4.79,6.13-9.58,12.26-14.79,15.67"/>
      <path class="st0" d="M186.92,85.04c7.87-9.97,15.58-20.94,25.01-20.94h0c9.43,0,17.14,10.97,25.01,20.94"/>
      <path class="st0" d="M96.7,82.53c7.2-9.22,14.4-18.43,23.04-18.43,9.43,0,17.14,10.97,25.01,20.94"/>
      <path class="st0" d="M14.17,71.12c4.18-4.14,8.56-7.02,13.39-7.02h0c9.43,0,17.14,10.97,25.01,20.94"/>
      <path class="st0" d="M94.73,85.04c.66-.84,1.31-1.67,1.97-2.51"/>
      <path class="st0" d="M233.74,85.04c-4.4-4.54-9.01-7.78-14.12-7.78h0c-5.11,0-9.72,3.22-14.12,7.78"/>
      <path class="st0" d="M141.55,85.04c-4.4-4.54-9.01-7.78-14.12-7.78s-9.72,3.22-14.12,7.78"/>
      <path class="st0" d="M49.37,85.04c-4.4-4.54-9.01-7.78-14.12-7.78h0c-5.11,0-9.72,3.22-14.12,7.78"/>
      <line class="st0" x1="14.17" y1="28.34" x2="14.17" y2="37.93"/>
      <line class="st0" x1="133.88" y1="14.18" x2="105.62" y2="14.18"/>
      <line class="st0" x1="194.6" y1="14.18" x2="189.46" y2="14.18"/>
      <line class="st0" x1="14.17" y1="22.76" x2="14.17" y2="28.34"/>
      <line class="st0" x1="14.17" y1="19.21" x2="14.17" y2="22.76"/>
      <line class="st0" x1="152.44" y1="14.18" x2="172.95" y2="14.18"/>
      <line class="st0" x1="102.41" y1="14.18" x2="97.27" y2="14.18"/>
      <line class="st0" x1="14.17" y1="14.93" x2="14.17" y2="19.21"/>
      <line class="st0" x1="14.17" y1="37.93" x2="14.17" y2="52.26"/>
      <line class="st0" x1="52.58" y1="85.04" x2="57.71" y2="85.04"/>
      <line class="st0" x1="205.49" y1="85.04" x2="233.74" y2="85.04"/>
      <line class="st0" x1="240.68" y1="84.05" x2="240.68" y2="74.47"/>
      <line class="st0" x1="240.68" y1="74.47" x2="240.68" y2="60.13"/>
      <line class="st0" x1="113.3" y1="85.04" x2="141.55" y2="85.04"/>
      <line class="st0" x1="240.68" y1="60.13" x2="240.68" y2="41.27"/>
      <line class="st0" x1="14.17" y1="52.26" x2="14.17" y2="71.12"/>
      <line class="st0" x1="226.06" y1="14.18" x2="197.8" y2="14.18"/>
      <line class="st0" x1="21.11" y1="85.04" x2="49.37" y2="85.04"/>
      <line class="st0" x1="240.68" y1="41.27" x2="240.68" y2="19.21"/>
      <polyline class="st0" points="240.68 19.21 240.68 14.18 226.06 14.18"/>
      <line class="st0" x1="80.77" y1="14.18" x2="60.26" y2="14.18"/>
      <line class="st0" x1="172.95" y1="14.18" x2="189.46" y2="14.18"/>
      <line class="st0" x1="194.6" y1="14.18" x2="197.8" y2="14.18"/>
      <line class="st0" x1="152.44" y1="14.18" x2="133.88" y2="14.18"/>
      <line class="st0" x1="52.58" y1="85.04" x2="49.37" y2="85.04"/>
      <line class="st0" x1="186.92" y1="85.04" x2="205.49" y2="85.04"/>
      <line class="st0" x1="102.41" y1="14.18" x2="105.62" y2="14.18"/>
      <line class="st0" x1="94.73" y1="85.04" x2="113.3" y2="85.04"/>
      <line class="st0" x1="144.76" y1="85.04" x2="141.55" y2="85.04"/>
      <line class="st0" x1="236.94" y1="85.04" x2="233.74" y2="85.04"/>
      <line class="st0" x1="74.22" y1="85.04" x2="57.71" y2="85.04"/>
      <line class="st0" x1="94.73" y1="85.04" x2="74.22" y2="85.04"/>
      <line class="st0" x1="144.76" y1="85.04" x2="149.9" y2="85.04"/>
      <polyline class="st0" points="240.68 84.05 240.68 85.04 236.94 85.04"/>
      <line class="st0" x1="80.77" y1="14.18" x2="97.27" y2="14.18"/>
      <line class="st0" x1="60.26" y1="14.18" x2="41.69" y2="14.18"/>
      <polyline class="st0" points="14.17 71.12 14.17 85.04 21.11 85.04"/>
      <polyline class="st0" points="14.17 14.93 14.17 14.18 41.69 14.18"/>
      <line class="st0" x1="166.41" y1="85.04" x2="186.92" y2="85.04"/>
      <line class="st0" x1="166.41" y1="85.04" x2="149.9" y2="85.04"/>
    </g>
  </g>
</svg>