<?xml version="1.0" encoding="UTF-8"?>
<svg id="Ebene_2" xmlns="http://www.w3.org/2000/svg" version="1.1" viewBox="0 0 311.81 113.39">
  <!-- Generator: Adobe Illustrator 29.1.0, SVG Export Plug-In . SVG Version: 2.1.0 Build 142)  -->
  <defs>
    <style>
      .st0 {
        fill: none;
        stroke: #1e1e1c;
        stroke-miterlimit: 10;
        stroke-width: 1.2px;
      }

      .st1 {
        fill: #1d1d1b;
        font-family: Helvetica, Helvetica;
        font-size: 8px;
      }
    </style>
  </defs>
  <text class="st1" transform="translate(123.11 104.96)"><tspan x="0" y="0">57</tspan></text>
  <g id="_x35_6">
    <g>
      <path class="st0" d="M240.68,45.54c-3.12,3.96-6.27,7.76-9.56,10.65"/>
      <path class="st0" d="M185.03,29.85c2.69,2.36,5.27,5.31,7.82,8.47"/>
      <path class="st0" d="M200.28,47.72c-2.48-3.07-4.94-6.32-7.42-9.39"/>
      <path class="st0" d="M223.32,60.88c2.71-.83,5.3-2.5,7.8-4.7"/>
      <path class="st0" d="M150.47,43.01c3.78-4.83,7.55-9.66,11.54-13.17"/>
      <path class="st0" d="M185.03,29.85c-3.61-3.18-7.4-5.27-11.51-5.27-1.26,0-2.5.2-3.72.57"/>
      <path class="st0" d="M169.81,25.16c-2.71.83-5.3,2.5-7.8,4.69"/>
      <path class="st0" d="M208.11,56.19c3.61,3.18,7.4,5.27,11.51,5.27,1.26,0,2.5-.2,3.72-.57"/>
      <path class="st0" d="M208.11,56.19c-2.69-2.36-5.27-5.31-7.82-8.47"/>
      <path class="st0" d="M108.09,47.72c2.56,3.16,5.15,6.11,7.82,8.47"/>
      <path class="st0" d="M100.67,38.32c2.49,3.07,4.94,6.33,7.42,9.39"/>
      <path class="st0" d="M150.47,43.01c-3.77,4.83-7.55,9.66-11.54,13.17"/>
      <path class="st0" d="M38.95,60.88c-1.21.37-2.44.57-3.72.57-4.11,0-7.9-2.09-11.51-5.27"/>
      <path class="st0" d="M23.73,56.19c-2.69-2.36-5.27-5.31-7.82-8.47"/>
      <path class="st0" d="M14.17,45.54c.58.73,1.15,1.46,1.74,2.17"/>
      <path class="st0" d="M38.95,60.88c2.71-.83,5.3-2.5,7.8-4.7"/>
      <path class="st0" d="M77.62,25.16c-2.71.83-5.3,2.5-7.8,4.69"/>
      <path class="st0" d="M100.67,38.32c-2.56-3.16-5.14-6.11-7.82-8.47"/>
      <path class="st0" d="M92.84,29.85c-3.61-3.18-7.4-5.27-11.51-5.27h0c-1.26,0-2.51.2-3.72.57"/>
      <path class="st0" d="M46.75,56.19c7.96-7.01,15.11-19.33,23.07-26.34"/>
      <path class="st0" d="M115.92,56.19c3.61,3.18,7.4,5.27,11.5,5.27,1.26,0,2.51-.2,3.72-.57"/>
      <path class="st0" d="M131.14,60.88c2.71-.83,5.3-2.5,7.8-4.7"/>
      <path class="st0" d="M200.28,47.72c-1.21.37-2.44.57-3.72.57-4.11,0-7.9-2.09-11.51-5.27"/>
      <path class="st0" d="M177.23,34.55c2.56,3.16,5.15,6.11,7.82,8.47"/>
      <path class="st0" d="M208.07,43.01c-2.5,2.2-5.08,3.87-7.8,4.69"/>
      <path class="st0" d="M169.81,25.16c-2.56-3.16-5.14-6.11-7.82-8.47"/>
      <path class="st0" d="M177.23,34.55c-2.48-3.07-4.94-6.32-7.42-9.39"/>
      <path class="st0" d="M127.43,29.85c3.77-4.83,7.55-9.66,11.54-13.17"/>
      <path class="st0" d="M138.97,16.68c1.07-.94,2.16-1.78,3.25-2.51"/>
      <path class="st0" d="M158.72,14.17c1.11.72,2.19,1.57,3.26,2.51"/>
      <path class="st0" d="M231.15,16.68c1.07-.94,2.16-1.78,3.25-2.51"/>
      <path class="st0" d="M208.07,43.01c7.97-7.01,15.11-19.33,23.08-26.34"/>
      <path class="st0" d="M15.91,47.72c-.58.18-1.15.31-1.74.4"/>
      <path class="st0" d="M108.09,47.72c2.71-.83,5.3-2.5,7.8-4.69"/>
      <path class="st0" d="M23.71,43.01c7.97-7.01,15.11-19.33,23.08-26.34"/>
      <path class="st0" d="M69.8,16.68c-1.07-.94-2.16-1.78-3.26-2.51"/>
      <path class="st0" d="M92.87,43.01c-2.68-2.36-5.27-5.31-7.82-8.47"/>
      <path class="st0" d="M77.62,25.16c2.49,3.07,4.94,6.33,7.42,9.39"/>
      <path class="st0" d="M92.87,43.01c3.61,3.18,7.4,5.27,11.51,5.27,1.26,0,2.5-.2,3.72-.57"/>
      <path class="st0" d="M127.43,29.85c-3.77,4.83-7.55,9.66-11.54,13.18"/>
      <path class="st0" d="M46.78,16.68c1.07-.94,2.16-1.78,3.25-2.51"/>
      <path class="st0" d="M77.62,25.16c-2.56-3.16-5.14-6.11-7.82-8.47"/>
      <path class="st0" d="M23.71,43.01c-2.5,2.2-5.08,3.87-7.8,4.69"/>
      <path class="st0" d="M185.03,29.85c4.67-4.12,9.07-10.05,13.5-15.67"/>
      <path class="st0" d="M154.19,21.37c-1.9-2.35-3.78-4.8-5.68-7.2"/>
      <path class="st0" d="M106.34,14.17c-.66.83-1.31,1.67-1.96,2.51"/>
      <path class="st0" d="M177.23,34.55c-1.21.37-2.44.57-3.72.57-4.11,0-7.9-2.09-11.51-5.27"/>
      <path class="st0" d="M154.19,21.37c2.56,3.16,5.15,6.11,7.82,8.47"/>
      <path class="st0" d="M177.23,34.55c2.71-.83,5.3-2.5,7.8-4.69"/>
      <path class="st0" d="M85.05,34.55c2.71-.83,5.3-2.5,7.8-4.69"/>
      <path class="st0" d="M69.82,29.85c3.61,3.18,7.4,5.27,11.51,5.27,1.26,0,2.5-.2,3.72-.57"/>
      <path class="st0" d="M62.01,21.37c-1.9-2.35-3.78-4.8-5.68-7.2"/>
      <path class="st0" d="M104.38,16.68c-3.77,4.83-7.55,9.66-11.54,13.18"/>
      <path class="st0" d="M62.01,21.37c2.56,3.16,5.14,6.11,7.82,8.47"/>
      <path class="st0" d="M136.35,14.17c.86.89,1.74,1.73,2.62,2.51"/>
      <path class="st0" d="M138.97,16.68c3.61,3.18,7.4,5.27,11.51,5.27,1.26,0,2.5-.2,3.71-.57"/>
      <path class="st0" d="M154.19,21.37c2.71-.83,5.3-2.5,7.8-4.69"/>
      <path class="st0" d="M228.54,14.17c.86.89,1.74,1.73,2.62,2.51"/>
      <path class="st0" d="M240.68,21.78c-3.35-.55-6.5-2.43-9.53-5.1"/>
      <path class="st0" d="M164.6,14.17c-.86.89-1.74,1.73-2.62,2.51"/>
      <path class="st0" d="M44.17,14.17c.86.89,1.74,1.73,2.62,2.51"/>
      <path class="st0" d="M69.8,16.68c-2.5,2.2-5.08,3.87-7.8,4.69"/>
      <path class="st0" d="M46.78,16.68c3.61,3.18,7.4,5.27,11.51,5.27,1.26,0,2.5-.2,3.71-.57"/>
      <path class="st0" d="M69.8,16.68c.88-.78,1.76-1.62,2.62-2.51"/>
      <path class="st0" d="M240.68,74.46c-3.36-.55-6.5-2.43-9.53-5.1"/>
      <path class="st0" d="M208.07,43.01c-3.61-3.18-7.4-5.27-11.51-5.27-1.26,0-2.5.2-3.72.57"/>
      <path class="st0" d="M185.05,43.01c-3.99,3.5-7.76,8.33-11.54,13.17"/>
      <path class="st0" d="M192.85,38.32c-2.71.83-5.3,2.5-7.8,4.69"/>
      <path class="st0" d="M215.89,51.49c2.49,3.07,4.94,6.33,7.43,9.39"/>
      <path class="st0" d="M215.89,51.49c-2.56-3.16-5.14-6.11-7.82-8.47"/>
      <path class="st0" d="M223.32,60.88c2.56,3.16,5.14,6.11,7.82,8.47"/>
      <path class="st0" d="M173.51,56.18c-3.77,4.83-7.55,9.66-11.53,13.17"/>
      <path class="st0" d="M23.71,43.01c2.68,2.36,5.27,5.31,7.82,8.47"/>
      <path class="st0" d="M154.19,74.05c2.71-.83,5.3-2.5,7.8-4.69"/>
      <path class="st0" d="M62.01,74.05c2.71-.83,5.3-2.5,7.8-4.69"/>
      <path class="st0" d="M38.95,60.88c-2.49-3.07-4.94-6.33-7.42-9.39"/>
      <path class="st0" d="M123.71,51.49c-2.56-3.16-5.15-6.11-7.82-8.47"/>
      <path class="st0" d="M131.14,60.88c-2.48-3.07-4.94-6.32-7.42-9.39"/>
      <path class="st0" d="M38.95,60.88c2.56,3.16,5.14,6.11,7.82,8.47"/>
      <path class="st0" d="M100.67,38.32c-2.71.83-5.3,2.5-7.8,4.69"/>
      <path class="st0" d="M23.71,43.01c-3.03-2.66-6.18-4.55-9.53-5.09"/>
      <path class="st0" d="M131.14,60.88c2.56,3.16,5.15,6.11,7.82,8.47"/>
      <path class="st0" d="M138.97,69.36c3.61,3.18,7.4,5.27,11.51,5.27,1.27,0,2.51-.2,3.72-.58"/>
      <path class="st0" d="M46.78,69.36c3.61,3.18,7.4,5.27,11.51,5.27,1.27,0,2.51-.2,3.72-.58"/>
      <path class="st0" d="M92.87,43.01c-7.97,7.01-15.11,19.33-23.07,26.34"/>
      <path class="st0" d="M100.67,38.32c1.21-.37,2.44-.57,3.72-.57h0c4.11,0,7.9,2.09,11.51,5.27"/>
      <path class="st0" d="M208.11,56.19c-7.97,7.02-15.11,19.33-23.07,26.34"/>
      <path class="st0" d="M146.76,64.66c-2.56-3.16-5.15-6.11-7.82-8.47"/>
      <path class="st0" d="M154.19,74.05c-2.48-3.07-4.94-6.33-7.42-9.39"/>
      <path class="st0" d="M138.94,56.19c-3.61-3.18-7.4-5.27-11.5-5.27-1.27,0-2.51.2-3.72.58"/>
      <path class="st0" d="M154.19,74.05c2.56,3.16,5.14,6.11,7.82,8.47"/>
      <path class="st0" d="M104.38,69.36c3.77-4.83,7.55-9.66,11.53-13.17"/>
      <path class="st0" d="M115.92,56.19c2.5-2.2,5.08-3.87,7.8-4.7"/>
      <path class="st0" d="M238.94,64.65c.58.72,1.16,1.44,1.74,2.17"/>
      <path class="st0" d="M162.01,82.52c1.07.94,2.16,1.78,3.25,2.51"/>
      <path class="st0" d="M215.89,51.49c-2.71.83-5.3,2.5-7.8,4.7"/>
      <path class="st0" d="M185.03,82.53c-1.07.94-2.16,1.78-3.25,2.51"/>
      <path class="st0" d="M215.89,51.49c1.21-.37,2.45-.58,3.72-.58h0c4.11,0,7.9,2.09,11.5,5.27"/>
      <path class="st0" d="M238.94,64.65c-2.56-3.16-5.15-6.11-7.82-8.47"/>
      <path class="st0" d="M62.01,74.05c2.56,3.16,5.14,6.11,7.82,8.47"/>
      <path class="st0" d="M54.57,64.65c-2.56-3.16-5.15-6.11-7.82-8.47"/>
      <path class="st0" d="M73.08,85.03c-1.11-.72-2.18-1.57-3.25-2.51"/>
      <path class="st0" d="M92.84,82.52c-1.07.94-2.16,1.78-3.25,2.51"/>
      <path class="st0" d="M31.53,51.49c-2.71.83-5.3,2.5-7.8,4.7"/>
      <path class="st0" d="M46.75,56.19c-3.61-3.18-7.4-5.27-11.5-5.27h0c-1.27,0-2.51.2-3.72.57"/>
      <path class="st0" d="M104.38,69.36c-3.77,4.83-7.55,9.66-11.54,13.18"/>
      <path class="st0" d="M54.57,64.65c2.49,3.07,4.94,6.33,7.42,9.39"/>
      <path class="st0" d="M23.73,56.19c-3.29,2.89-6.44,6.69-9.56,10.65"/>
      <path class="st0" d="M138.97,69.36c2.5-2.2,5.08-3.87,7.8-4.7"/>
      <path class="st0" d="M217.65,85.03c4.44-5.62,8.83-11.56,13.5-15.67"/>
      <path class="st0" d="M240.68,64.25c-.59.09-1.16.23-1.74.4"/>
      <path class="st0" d="M169.81,77.83c1.9,2.35,3.78,4.8,5.68,7.2"/>
      <path class="st0" d="M231.15,69.36c2.5-2.2,5.08-3.87,7.8-4.7"/>
      <path class="st0" d="M161.98,69.36c-3.61-3.18-7.4-5.27-11.51-5.27-1.26,0-2.5.2-3.72.57"/>
      <path class="st0" d="M127.43,82.52c3.77-4.83,7.55-9.66,11.53-13.17"/>
      <path class="st0" d="M169.81,77.83c-2.56-3.16-5.15-6.11-7.82-8.47"/>
      <path class="st0" d="M54.57,64.65c-2.71.83-5.3,2.5-7.8,4.7"/>
      <path class="st0" d="M77.62,77.83c-2.56-3.16-5.14-6.11-7.82-8.47"/>
      <path class="st0" d="M54.57,64.65c1.21-.37,2.44-.57,3.72-.57h0c4.11,0,7.9,2.09,11.51,5.27"/>
      <path class="st0" d="M77.62,77.83c1.9,2.35,3.78,4.8,5.68,7.2"/>
      <path class="st0" d="M46.78,69.36c-4.67,4.12-9.06,10.05-13.5,15.67"/>
      <path class="st0" d="M127.43,82.52c-.65.84-1.31,1.67-1.97,2.51"/>
      <path class="st0" d="M162.01,82.52c2.5-2.2,5.08-3.87,7.8-4.69"/>
      <path class="st0" d="M187.65,85.03c-.86-.89-1.74-1.73-2.61-2.51"/>
      <path class="st0" d="M162.01,82.52c-.88.77-1.76,1.62-2.62,2.51"/>
      <path class="st0" d="M185.03,82.53c-3.61-3.18-7.4-5.27-11.51-5.27-1.26,0-2.5.2-3.72.57"/>
      <path class="st0" d="M77.62,77.83c-2.71.83-5.3,2.5-7.8,4.69"/>
      <path class="st0" d="M67.21,85.03c.86-.89,1.74-1.73,2.62-2.51"/>
      <path class="st0" d="M95.46,85.03c-.86-.89-1.74-1.73-2.62-2.51"/>
      <path class="st0" d="M92.84,82.52c-3.61-3.18-7.4-5.27-11.51-5.27h0c-1.26,0-2.5.2-3.72.57"/>
      <line class="st0" x1="50.04" y1="14.17" x2="56.32" y2="14.17"/>
      <polyline class="st0" points="14.17 37.92 14.17 14.17 44.17 14.17"/>
      <line class="st0" x1="14.17" y1="45.54" x2="14.17" y2="48.12"/>
      <polyline class="st0" points="33.28 85.03 14.17 85.03 14.17 66.84"/>
      <line class="st0" x1="106.34" y1="14.17" x2="72.42" y2="14.17"/>
      <line class="st0" x1="142.22" y1="14.17" x2="148.51" y2="14.17"/>
      <line class="st0" x1="106.34" y1="14.17" x2="136.35" y2="14.17"/>
      <line class="st0" x1="67.21" y1="85.03" x2="73.08" y2="85.03"/>
      <line class="st0" x1="148.51" y1="14.17" x2="158.72" y2="14.17"/>
      <line class="st0" x1="14.17" y1="66.84" x2="14.17" y2="48.12"/>
      <line class="st0" x1="95.46" y1="85.03" x2="89.59" y2="85.03"/>
      <line class="st0" x1="14.17" y1="37.92" x2="14.17" y2="45.54"/>
      <line class="st0" x1="198.53" y1="14.17" x2="164.6" y2="14.17"/>
      <line class="st0" x1="240.68" y1="64.25" x2="240.68" y2="66.84"/>
      <line class="st0" x1="83.3" y1="85.03" x2="73.08" y2="85.03"/>
      <line class="st0" x1="89.59" y1="85.03" x2="83.3" y2="85.03"/>
      <line class="st0" x1="164.6" y1="14.17" x2="158.72" y2="14.17"/>
      <line class="st0" x1="56.32" y1="14.17" x2="66.54" y2="14.17"/>
      <line class="st0" x1="72.42" y1="14.17" x2="66.54" y2="14.17"/>
      <line class="st0" x1="187.65" y1="85.03" x2="181.77" y2="85.03"/>
      <line class="st0" x1="44.17" y1="14.17" x2="50.04" y2="14.17"/>
      <line class="st0" x1="175.48" y1="85.03" x2="165.26" y2="85.03"/>
      <line class="st0" x1="125.46" y1="85.03" x2="95.46" y2="85.03"/>
      <line class="st0" x1="181.77" y1="85.03" x2="175.48" y2="85.03"/>
      <line class="st0" x1="159.39" y1="85.03" x2="165.26" y2="85.03"/>
      <line class="st0" x1="240.68" y1="74.46" x2="240.68" y2="66.84"/>
      <line class="st0" x1="33.28" y1="85.03" x2="67.21" y2="85.03"/>
      <polyline class="st0" points="240.68 21.78 240.68 14.17 234.4 14.17"/>
      <line class="st0" x1="240.68" y1="45.54" x2="240.68" y2="64.25"/>
      <polyline class="st0" points="217.65 85.03 240.68 85.03 240.68 74.46"/>
      <line class="st0" x1="136.35" y1="14.17" x2="142.22" y2="14.17"/>
      <line class="st0" x1="198.53" y1="14.17" x2="228.54" y2="14.17"/>
      <line class="st0" x1="125.46" y1="85.03" x2="159.39" y2="85.03"/>
      <line class="st0" x1="217.65" y1="85.03" x2="187.65" y2="85.03"/>
      <line class="st0" x1="240.68" y1="45.54" x2="240.68" y2="21.78"/>
      <line class="st0" x1="234.4" y1="14.17" x2="228.54" y2="14.17"/>
    </g>
  </g>
</svg>