<?xml version="1.0" encoding="UTF-8"?>
<svg id="Ebene_2" xmlns="http://www.w3.org/2000/svg" version="1.1" viewBox="0 0 311.81 113.39">
  <!-- Generator: Adobe Illustrator 29.1.0, SVG Export Plug-In . SVG Version: 2.1.0 Build 142)  -->
  <defs>
    <style>
      .st0 {
        fill: none;
        stroke: #1d1d1b;
        stroke-miterlimit: 10;
        stroke-width: 1.2px;
      }

      .st1 {
        fill: #1d1d1b;
        font-family: Helvetica, Helvetica;
        font-size: 8px;
      }
    </style>
  </defs>
  <text class="st1" transform="translate(123.11 104.96)"><tspan x="0" y="0">57</tspan></text>
  <g>
    <path class="st0" d="M191.32,49.61c3.54-4.22,7-8.96,10.54-13.17"/>
    <path class="st0" d="M109.66,36.44c-1.77,2.11-3.52,4.35-5.27,6.59"/>
    <path class="st0" d="M237.41,36.44c1.1,1.31,2.2,2.68,3.29,4.07"/>
    <path class="st0" d="M109.66,36.44c5.52-6.57,11.23-11.85,17.78-11.85s12.26,5.29,17.78,11.85"/>
    <path class="st0" d="M201.86,36.43c5.52-6.57,11.23-11.85,17.78-11.85h0c6.54,0,12.26,5.29,17.78,11.86"/>
    <path class="st0" d="M191.32,49.61c-5.52,6.57-11.24,11.85-17.78,11.85s-12.26-5.28-17.78-11.85"/>
    <path class="st0" d="M145.22,36.44c3.54,4.21,7,8.96,10.54,13.17"/>
    <path class="st0" d="M63.56,49.61c-3.54-4.22-7-8.96-10.54-13.17"/>
    <path class="st0" d="M53.02,36.44c-5.52-6.57-11.24-11.85-17.78-11.85h0c-6.54,0-12.26,5.28-17.78,11.85"/>
    <path class="st0" d="M99.12,49.6c1.77-2.11,3.52-4.35,5.27-6.58"/>
    <path class="st0" d="M99.12,49.6c-5.52,6.57-11.24,11.86-17.78,11.86s-12.26-5.28-17.78-11.85"/>
    <path class="st0" d="M14.17,40.5c1.09-1.39,2.19-2.75,3.29-4.06"/>
    <path class="st0" d="M155.76,23.27c3.08-3.66,6.22-6.92,9.52-9.09"/>
    <path class="st0" d="M63.57,23.27c-1.77,2.11-3.52,4.34-5.27,6.58"/>
    <path class="st0" d="M191.32,23.26c-3.08-3.66-6.21-6.92-9.52-9.09"/>
    <path class="st0" d="M63.57,23.27c3.08-3.66,6.22-6.92,9.53-9.1"/>
    <path class="st0" d="M109.66,36.44c5.52,6.57,11.24,11.85,17.78,11.85s12.26-5.28,17.78-11.85"/>
    <path class="st0" d="M237.41,36.44c1.1-1.31,2.2-2.68,3.29-4.07"/>
    <path class="st0" d="M89.6,14.17c3.31,2.17,6.45,5.43,9.52,9.09"/>
    <path class="st0" d="M109.66,36.44c-3.54-4.22-7-8.96-10.54-13.17"/>
    <path class="st0" d="M191.32,23.26c3.54,4.21,7,8.96,10.54,13.17"/>
    <path class="st0" d="M145.22,36.44c3.54-4.21,7-8.96,10.54-13.17"/>
    <path class="st0" d="M201.86,36.43c5.52,6.57,11.24,11.85,17.78,11.85s12.26-5.28,17.78-11.85"/>
    <path class="st0" d="M53.02,36.44c-5.52,6.57-11.23,11.85-17.78,11.85s-12.26-5.29-17.78-11.85"/>
    <path class="st0" d="M53.02,36.44c1.77-2.11,3.52-4.35,5.27-6.59"/>
    <path class="st0" d="M14.17,32.37c1.09,1.38,2.19,2.75,3.29,4.06"/>
    <path class="st0" d="M191.32,23.26c-5.52,6.57-11.23,11.85-17.78,11.85s-12.26-5.28-17.78-11.85"/>
    <path class="st0" d="M155.76,23.27c-2.43-2.9-4.83-6.04-7.24-9.09"/>
    <path class="st0" d="M191.32,23.26c2.43-2.9,4.83-6.04,7.23-9.09"/>
    <path class="st0" d="M104.39,16.68c.65-.84,1.31-1.68,1.97-2.51"/>
    <path class="st0" d="M99.12,23.26c1.77-2.11,3.52-4.35,5.27-6.59"/>
    <path class="st0" d="M63.57,23.27c5.52,6.57,11.23,11.85,17.78,11.85s12.26-5.29,17.78-11.86"/>
    <path class="st0" d="M63.57,23.27c-2.43-2.9-4.83-6.04-7.24-9.1"/>
    <path class="st0" d="M205.51,14.17c4.4,4.55,9.01,7.77,14.13,7.77s9.72-3.23,14.13-7.77"/>
    <path class="st0" d="M113.31,14.17c4.4,4.55,9.01,7.77,14.13,7.77s9.72-3.23,14.13-7.77"/>
    <path class="st0" d="M49.37,14.17c-4.4,4.55-9.01,7.77-14.13,7.77s-9.72-3.23-14.13-7.77"/>
    <path class="st0" d="M109.66,62.78c5.52,6.57,11.24,11.85,17.78,11.85s12.26-5.28,17.78-11.85"/>
    <path class="st0" d="M99.12,49.6c-5.52-6.57-11.23-11.85-17.78-11.85s-12.26,5.29-17.78,11.86"/>
    <path class="st0" d="M201.86,62.78c5.52,6.57,11.24,11.86,17.78,11.86s12.26-5.28,17.78-11.85"/>
    <path class="st0" d="M145.22,62.78c3.54-4.21,7-8.96,10.54-13.17"/>
    <path class="st0" d="M237.41,62.78c1.1-1.31,2.2-2.68,3.29-4.07"/>
    <path class="st0" d="M191.32,49.61c-5.52-6.57-11.23-11.85-17.78-11.85h0c-6.54,0-12.26,5.29-17.78,11.85"/>
    <path class="st0" d="M63.56,49.61c-1.77,2.11-3.52,4.34-5.27,6.58"/>
    <path class="st0" d="M99.12,49.6c3.54,4.22,7,8.96,10.54,13.17"/>
    <path class="st0" d="M191.32,49.61c3.54,4.21,7,8.96,10.54,13.17"/>
    <path class="st0" d="M53.02,62.78c-5.52,6.57-11.23,11.85-17.78,11.85s-12.26-5.29-17.78-11.86"/>
    <path class="st0" d="M14.17,58.71c1.09,1.38,2.19,2.75,3.29,4.06"/>
    <path class="st0" d="M53.02,62.78c1.77-2.11,3.52-4.35,5.27-6.59"/>
    <path class="st0" d="M165.28,85.04c-3.31-2.17-6.45-5.43-9.52-9.09"/>
    <path class="st0" d="M181.79,85.04c3.31-2.17,6.45-5.43,9.52-9.09"/>
    <path class="st0" d="M109.66,62.78c-1.77,2.11-3.52,4.35-5.27,6.59"/>
    <path class="st0" d="M237.41,62.78c1.1,1.31,2.2,2.68,3.29,4.07"/>
    <path class="st0" d="M145.22,62.78c3.54,4.21,7,8.96,10.54,13.17"/>
    <path class="st0" d="M201.86,62.78c5.52-6.57,11.23-11.85,17.78-11.85h0c6.54,0,12.26,5.29,17.78,11.86"/>
    <path class="st0" d="M109.66,62.78c5.52-6.57,11.23-11.85,17.78-11.85s12.26,5.29,17.78,11.85"/>
    <path class="st0" d="M191.32,75.95c3.54-4.21,7-8.96,10.54-13.17"/>
    <path class="st0" d="M99.12,75.94c-3.08,3.66-6.22,6.92-9.52,9.09"/>
    <path class="st0" d="M104.39,69.36c-1.75,2.24-3.5,4.48-5.27,6.58"/>
    <path class="st0" d="M14.17,66.84c1.09-1.38,2.19-2.75,3.29-4.06"/>
    <path class="st0" d="M53.02,62.78c-5.52-6.57-11.24-11.85-17.78-11.85h0c-6.54,0-12.26,5.28-17.78,11.85"/>
    <path class="st0" d="M53.02,62.78c3.54,4.22,7,8.96,10.54,13.17"/>
    <path class="st0" d="M73.09,85.04c-3.31-2.17-6.45-5.43-9.52-9.09"/>
    <path class="st0" d="M99.12,75.94c-5.52-6.57-11.23-11.85-17.78-11.85s-12.26,5.29-17.78,11.86"/>
    <path class="st0" d="M191.32,75.95c2.43,2.9,4.83,6.04,7.24,9.09"/>
    <path class="st0" d="M106.36,85.04c-2.41-3.05-4.8-6.2-7.24-9.09"/>
    <path class="st0" d="M191.32,75.95c-5.52-6.57-11.23-11.85-17.78-11.85h0c-6.54,0-12.26,5.29-17.78,11.85"/>
    <path class="st0" d="M63.56,75.95c-1.77,2.11-3.52,4.34-5.27,6.58"/>
    <path class="st0" d="M155.76,75.95c-2.43,2.9-4.83,6.04-7.23,9.09"/>
    <path class="st0" d="M58.3,82.53c-.66.84-1.31,1.68-1.97,2.51"/>
    <path class="st0" d="M233.76,85.04c-4.4-4.55-9.01-7.77-14.13-7.77h0c-5.11,0-9.72,3.23-14.13,7.77"/>
    <path class="st0" d="M141.57,85.04c-4.4-4.55-9.01-7.77-14.13-7.77s-9.72,3.23-14.13,7.77"/>
    <path class="st0" d="M49.37,85.04c-4.4-4.55-9.01-7.77-14.13-7.77h0c-5.11,0-9.72,3.23-14.13,7.77"/>
    <line class="st0" x1="89.6" y1="85.04" x2="73.09" y2="85.04"/>
    <polyline class="st0" points="14.17 66.84 14.17 85.04 21.12 85.04"/>
    <line class="st0" x1="73.09" y1="14.17" x2="89.6" y2="14.17"/>
    <line class="st0" x1="49.37" y1="14.17" x2="56.33" y2="14.17"/>
    <line class="st0" x1="49.37" y1="85.04" x2="56.33" y2="85.04"/>
    <line class="st0" x1="89.6" y1="85.04" x2="106.36" y2="85.04"/>
    <line class="st0" x1="113.31" y1="14.17" x2="141.57" y2="14.17"/>
    <line class="st0" x1="106.36" y1="85.04" x2="113.31" y2="85.04"/>
    <line class="st0" x1="148.53" y1="85.04" x2="141.57" y2="85.04"/>
    <line class="st0" x1="141.57" y1="14.17" x2="148.52" y2="14.17"/>
    <line class="st0" x1="181.79" y1="14.17" x2="165.28" y2="14.17"/>
    <line class="st0" x1="148.52" y1="14.17" x2="165.28" y2="14.17"/>
    <polyline class="st0" points="21.12 14.17 14.17 14.17 14.17 32.37"/>
    <line class="st0" x1="73.09" y1="14.17" x2="56.33" y2="14.17"/>
    <line class="st0" x1="14.17" y1="58.71" x2="14.17" y2="66.84"/>
    <line class="st0" x1="14.17" y1="32.37" x2="14.17" y2="40.5"/>
    <line class="st0" x1="49.37" y1="85.04" x2="21.12" y2="85.04"/>
    <line class="st0" x1="181.79" y1="85.04" x2="165.28" y2="85.04"/>
    <line class="st0" x1="73.09" y1="85.04" x2="56.33" y2="85.04"/>
    <line class="st0" x1="49.37" y1="14.17" x2="21.12" y2="14.17"/>
    <line class="st0" x1="14.17" y1="40.5" x2="14.17" y2="58.71"/>
    <polyline class="st0" points="233.76 14.17 240.71 14.17 240.71 32.37"/>
    <line class="st0" x1="240.71" y1="40.5" x2="240.71" y2="58.71"/>
    <line class="st0" x1="198.55" y1="14.17" x2="205.51" y2="14.17"/>
    <line class="st0" x1="113.31" y1="14.17" x2="106.36" y2="14.17"/>
    <line class="st0" x1="89.6" y1="14.17" x2="106.36" y2="14.17"/>
    <line class="st0" x1="181.79" y1="14.17" x2="198.55" y2="14.17"/>
    <line class="st0" x1="240.71" y1="66.84" x2="240.71" y2="58.71"/>
    <line class="st0" x1="113.31" y1="85.04" x2="141.57" y2="85.04"/>
    <line class="st0" x1="181.79" y1="85.04" x2="198.55" y2="85.04"/>
    <line class="st0" x1="148.53" y1="85.04" x2="165.28" y2="85.04"/>
    <line class="st0" x1="205.51" y1="85.04" x2="198.55" y2="85.04"/>
    <line class="st0" x1="240.71" y1="40.5" x2="240.71" y2="32.37"/>
    <line class="st0" x1="205.51" y1="85.04" x2="233.76" y2="85.04"/>
    <line class="st0" x1="205.51" y1="14.17" x2="233.76" y2="14.17"/>
    <polyline class="st0" points="240.71 66.84 240.71 85.04 233.76 85.04"/>
  </g>
</svg>