<?xml version="1.0" encoding="UTF-8"?>
<svg xmlns="http://www.w3.org/2000/svg" version="1.1" viewBox="0 0 243.78 76.26">
  <!-- Generator: Adobe Illustrator 29.1.0, SVG Export Plug-In . SVG Version: 2.1.0 Build 142)  -->
  <defs>
    <style>
      .st0 {
        fill: none;
        stroke: #1d1d1b;
        stroke-miterlimit: 10;
        stroke-width: 1.2px;
      }

      .st1 {
        display: none;
      }
    </style>
  </defs>
  <g id="_x35_4" class="st1">
    <g>
      <path class="st0" d="M97.09,31.04c7.75-9.92,15.5-19.84,24.8-19.84,18.6,0,31.01,39.68,49.61,39.68s31-39.69,49.61-39.69h0c8.45,0,15.62,8.19,22.67,17.13"/>
      <path class="st0" d="M97.09,31.04c-7.75,9.92-15.5,19.84-24.8,19.84-18.6,0-31-39.68-49.61-39.68h0C14.23,11.2,7.06,19.39,0,28.33"/>
      <path class="st0" d="M212.22,0c-14.05,9.21-25.24,36.71-40.72,36.71S144.82,9.21,130.77,0"/>
      <path class="st0" d="M113.01,0c-5.61,3.68-10.77,10.27-15.92,16.87"/>
      <path class="st0" d="M229.99,0c4.84,3.17,9.34,8.51,13.79,14.16"/>
      <path class="st0" d="M97.09,16.87c-7.75,9.92-15.5,19.84-24.8,19.84-15.49,0-26.68-27.5-40.72-36.71"/>
      <path class="st0" d="M13.79,0C8.96,3.17,4.45,8.52,0,14.16"/>
      <path class="st0" d="M99.2,0c-.71.89-1.41,1.8-2.11,2.7"/>
      <path class="st0" d="M198.42,0c-8.47,10.73-16.77,22.54-26.92,22.54s-18.45-11.81-26.92-22.54"/>
      <path class="st0" d="M97.09,2.7c-7.75,9.92-15.5,19.84-24.8,19.84-10.15,0-18.45-11.81-26.92-22.54"/>
      <path class="st0" d="M156.3,0c4.74,4.89,9.7,8.37,15.2,8.37s10.46-3.47,15.2-8.37"/>
      <path class="st0" d="M57.08,0c4.74,4.89,9.7,8.37,15.2,8.37s10.46-3.47,15.2-8.37"/>
      <path class="st0" d="M97.09,45.22c7.75-9.92,15.5-19.84,24.8-19.84,18.6,0,31,39.68,49.61,39.68s31-39.69,49.61-39.69h0c8.45,0,15.62,8.19,22.67,17.13"/>
      <path class="st0" d="M97.09,45.21c-7.75,9.92-15.5,19.84-24.8,19.84-18.6,0-31-39.68-49.61-39.68h0c-8.45,0-15.62,8.19-22.68,17.13"/>
      <path class="st0" d="M97.09,59.39c7.75-9.92,15.5-19.84,24.8-19.84,15.49,0,26.68,27.5,40.72,36.71"/>
      <path class="st0" d="M180.38,76.26c14.05-9.21,25.24-36.71,40.72-36.71h0c8.45,0,15.62,8.19,22.67,17.13"/>
      <path class="st0" d="M63.4,76.26c-14.05-9.21-25.24-36.71-40.72-36.71h0c-8.45,0-15.62,8.19-22.68,17.13"/>
      <path class="st0" d="M81.17,76.26c5.61-3.68,10.77-10.27,15.92-16.87"/>
      <path class="st0" d="M194.19,76.26c8.47-10.73,16.77-22.54,26.92-22.54h0c8.45,0,15.62,8.19,22.67,17.13"/>
      <path class="st0" d="M97.09,73.56c7.75-9.92,15.5-19.84,24.8-19.84,10.15,0,18.45,11.81,26.92,22.54"/>
      <path class="st0" d="M97.09,73.56c-.7.9-1.41,1.8-2.12,2.7"/>
      <path class="st0" d="M49.6,76.26c-8.47-10.73-16.77-22.54-26.92-22.54h0c-8.45,0-15.62,8.19-22.68,17.13"/>
      <path class="st0" d="M236.31,76.26c-4.74-4.89-9.7-8.37-15.2-8.37h0c-5.5,0-10.46,3.47-15.2,8.37"/>
      <path class="st0" d="M137.1,76.26c-4.74-4.89-9.7-8.37-15.2-8.37s-10.46,3.47-15.2,8.37"/>
      <path class="st0" d="M37.88,76.26c-4.74-4.89-9.7-8.37-15.2-8.37h0c-5.5,0-10.46,3.47-15.2,8.37"/>
      <line class="st0" x1="106.69" y1="76.26" x2="137.1" y2="76.26"/>
      <line class="st0" x1="49.6" y1="76.26" x2="63.4" y2="76.26"/>
      <line class="st0" x1="0" y1="28.33" x2="0" y2="42.51"/>
      <line class="st0" x1="99.2" x2="113.01"/>
      <line class="st0" x1="0" y1="42.51" x2="0" y2="56.68"/>
      <line class="st0" x1="7.48" y1="76.26" x2="37.88" y2="76.26"/>
      <line class="st0" x1="81.17" y1="76.26" x2="94.97" y2="76.26"/>
      <line class="st0" x1="186.7" x2="156.3"/>
      <line class="st0" x1="198.42" x2="212.22"/>
      <line class="st0" x1="243.78" y1="42.5" x2="243.78" y2="28.33"/>
      <line class="st0" x1="0" y1="28.33" x2="0" y2="14.16"/>
      <line class="st0" x1="148.81" y1="76.26" x2="162.61" y2="76.26"/>
      <line class="st0" x1="205.9" y1="76.26" x2="236.31" y2="76.26"/>
      <line class="st0" x1="194.19" y1="76.26" x2="180.38" y2="76.26"/>
      <line class="st0" x1="243.78" y1="70.85" x2="243.78" y2="56.68"/>
      <line class="st0" x1="87.49" x2="57.08"/>
      <line class="st0" x1="194.19" y1="76.26" x2="205.9" y2="76.26"/>
      <polyline class="st0" points="243.78 70.85 243.78 76.26 236.31 76.26"/>
      <line class="st0" x1="243.78" y1="14.16" x2="243.78" y2="28.33"/>
      <line class="st0" x1="243.78" y1="42.5" x2="243.78" y2="56.68"/>
      <line class="st0" x1="180.38" y1="76.26" x2="162.61" y2="76.26"/>
      <polyline class="st0" points="0 70.85 0 76.26 7.48 76.26"/>
      <line class="st0" x1="0" y1="56.68" x2="0" y2="70.85"/>
      <line class="st0" x1="212.22" x2="229.99"/>
      <line class="st0" x1="94.97" y1="76.26" x2="106.69" y2="76.26"/>
      <line class="st0" x1="49.6" y1="76.26" x2="37.88" y2="76.26"/>
      <line class="st0" x1="148.81" y1="76.26" x2="137.1" y2="76.26"/>
      <line class="st0" x1="144.58" x2="130.77"/>
      <line class="st0" x1="99.2" x2="87.49"/>
      <line class="st0" x1="13.79" x2="31.56"/>
      <line class="st0" x1="45.37" x2="57.08"/>
      <line class="st0" x1="45.37" x2="31.56"/>
      <polyline class="st0" points="13.79 0 0 0 0 14.16"/>
      <line class="st0" x1="198.42" x2="186.7"/>
      <line class="st0" x1="144.58" x2="156.3"/>
      <line class="st0" x1="81.17" y1="76.26" x2="63.4" y2="76.26"/>
      <polyline class="st0" points="243.78 14.16 243.78 0 229.99 0"/>
      <line class="st0" x1="113.01" x2="130.77"/>
    </g>
  </g>
  <g id="_x35_5" class="st1">
    <g>
      <path class="st0" d="M64.02,31.04c7.75-9.92,15.5-19.84,24.8-19.84,18.6,0,31,39.68,49.61,39.68s31-39.69,49.61-39.69h0c18.6,0,31,39.69,49.61,39.69,2.12,0,4.16-.52,6.14-1.44"/>
      <path class="st0" d="M64.01,31.04c-7.75,9.92-15.5,19.84-24.8,19.84C24.28,50.89,13.35,25.34,0,15.24"/>
      <path class="st0" d="M71.67,0c-5.61,3.68-10.77,10.27-15.92,16.87"/>
      <path class="st0" d="M243.78,29.15c-4.5,4.46-9.21,7.56-14.41,7.56-15.49,0-26.68-27.5-40.72-36.71"/>
      <path class="st0" d="M89.43,0c14.05,9.21,25.24,36.71,40.73,36.71S156.83,9.21,170.88,0"/>
      <path class="st0" d="M55.75,16.87c-7.75,9.92-15.5,19.84-24.8,19.84C19.2,36.71,9.92,20.89,0,9.23"/>
      <path class="st0" d="M243.78,5.41c-7.05,8.94-14.23,17.13-22.68,17.13-10.15,0-18.45-11.81-26.92-22.54"/>
      <path class="st0" d="M49.6,0c-.71.89-1.41,1.8-2.11,2.7"/>
      <path class="st0" d="M148.81,0c-8.47,10.73-16.77,22.54-26.92,22.54S103.44,10.73,94.97,0"/>
      <path class="st0" d="M47.48,2.7c-7.75,9.92-15.5,19.84-24.8,19.84C14.23,22.54,7.05,14.35,0,5.41"/>
      <path class="st0" d="M98.42,0c4.74,4.89,9.7,8.37,15.2,8.37s10.46-3.47,15.2-8.37"/>
      <path class="st0" d="M197.63,0c4.74,4.89,9.7,8.37,15.2,8.37s10.46-3.47,15.2-8.37"/>
      <path class="st0" d="M0,.8c4.5,4.46,9.21,7.56,14.41,7.56,5.5,0,10.46-3.47,15.2-8.37"/>
      <path class="st0" d="M72.28,45.22c7.75-9.92,15.5-19.84,24.8-19.84,18.6,0,31,39.68,49.61,39.68s31-39.69,49.61-39.69h0c17.88,0,30.04,36.67,47.48,39.51"/>
      <path class="st0" d="M72.28,45.21c-7.75,9.92-15.5,19.84-24.8,19.84C29.59,65.06,17.44,28.39,0,25.56"/>
      <path class="st0" d="M146.08,76.26c-14.05-9.21-25.24-36.71-40.72-36.71-9.3,0-17.05,9.92-24.8,19.84"/>
      <path class="st0" d="M163.85,76.26c14.05-9.21,25.24-36.71,40.72-36.71h0c14.93,0,25.86,25.55,39.21,35.65"/>
      <path class="st0" d="M0,40.98c1.98-.91,4.02-1.44,6.14-1.44h0c15.49,0,26.67,27.5,40.72,36.71"/>
      <path class="st0" d="M80.55,59.39c-5.15,6.6-10.31,13.19-15.92,16.87"/>
      <path class="st0" d="M185.92,76.26c8.47-10.73,16.77-22.54,26.92-22.54h0c10.15,0,18.45,11.81,26.92,22.54"/>
      <path class="st0" d="M88.82,73.56c7.75-9.92,15.5-19.84,24.8-19.84,10.15,0,18.45,11.81,26.92,22.54"/>
      <path class="st0" d="M0,61.28c4.5-4.46,9.21-7.56,14.41-7.56h0c10.15,0,18.45,11.81,26.92,22.54"/>
      <path class="st0" d="M86.7,76.26c.71-.9,1.41-1.8,2.12-2.7"/>
      <path class="st0" d="M236.31,76.26c-4.74-4.89-9.7-8.37-15.2-8.37h0c-5.5,0-10.46,3.47-15.2,8.37"/>
      <path class="st0" d="M137.09,76.26c-4.74-4.89-9.7-8.37-15.2-8.37s-10.46,3.47-15.2,8.37"/>
      <path class="st0" d="M37.88,76.26c-4.74-4.89-9.7-8.37-15.2-8.37h0c-5.5,0-10.46,3.47-15.2,8.37"/>
      <line class="st0" x1="0" y1="15.24" x2="0" y2="25.56"/>
      <line class="st0" x1="128.83" x2="98.42"/>
      <line class="st0" x1="194.18" x2="188.65"/>
      <line class="st0" x1="0" y1="9.23" x2="0" y2="15.24"/>
      <line class="st0" x1="0" y1="5.41" x2="0" y2="9.23"/>
      <line class="st0" x1="148.81" x2="170.88"/>
      <line class="st0" x1="94.97" x2="89.43"/>
      <line class="st0" x1="0" y1=".8" x2="0" y2="5.41"/>
      <line class="st0" x1="0" y1="25.56" x2="0" y2="40.98"/>
      <line class="st0" x1="41.33" y1="76.26" x2="46.86" y2="76.26"/>
      <line class="st0" x1="205.9" y1="76.26" x2="236.31" y2="76.26"/>
      <line class="st0" x1="243.78" y1="75.19" x2="243.78" y2="64.88"/>
      <line class="st0" x1="243.78" y1="64.88" x2="243.78" y2="49.45"/>
      <line class="st0" x1="106.69" y1="76.26" x2="137.09" y2="76.26"/>
      <line class="st0" x1="243.78" y1="49.45" x2="243.78" y2="29.15"/>
      <line class="st0" x1="0" y1="40.98" x2="0" y2="61.28"/>
      <line class="st0" x1="228.04" x2="197.63"/>
      <line class="st0" x1="7.47" y1="76.26" x2="37.88" y2="76.26"/>
      <line class="st0" x1="243.78" y1="29.15" x2="243.78" y2="5.41"/>
      <polyline class="st0" points="243.78 5.41 243.78 0 228.04 0"/>
      <line class="st0" x1="71.67" x2="49.6"/>
      <line class="st0" x1="170.88" x2="188.65"/>
      <line class="st0" x1="194.18" x2="197.63"/>
      <line class="st0" x1="148.81" x2="128.83"/>
      <line class="st0" x1="41.33" y1="76.26" x2="37.88" y2="76.26"/>
      <line class="st0" x1="185.92" y1="76.26" x2="205.9" y2="76.26"/>
      <line class="st0" x1="94.97" x2="98.42"/>
      <line class="st0" x1="86.7" y1="76.26" x2="106.69" y2="76.26"/>
      <line class="st0" x1="140.54" y1="76.26" x2="137.09" y2="76.26"/>
      <line class="st0" x1="239.75" y1="76.26" x2="236.31" y2="76.26"/>
      <line class="st0" x1="64.63" y1="76.26" x2="46.86" y2="76.26"/>
      <line class="st0" x1="86.7" y1="76.26" x2="64.63" y2="76.26"/>
      <line class="st0" x1="140.54" y1="76.26" x2="146.08" y2="76.26"/>
      <polyline class="st0" points="243.78 75.19 243.78 76.26 239.75 76.26"/>
      <line class="st0" x1="71.67" x2="89.43"/>
      <line class="st0" x1="49.6" x2="29.61"/>
      <polyline class="st0" points="0 61.28 0 76.26 7.47 76.26"/>
      <polyline class="st0" points="0 .8 0 0 29.61 0"/>
      <line class="st0" x1="163.85" y1="76.26" x2="185.92" y2="76.26"/>
      <line class="st0" x1="163.85" y1="76.26" x2="146.08" y2="76.26"/>
    </g>
  </g>
  <g id="_x35_6" class="st1">
    <g>
      <path class="st0" d="M243.78,33.76c-3.36,4.26-6.75,8.35-10.29,11.46"/>
      <path class="st0" d="M183.88,16.87c2.89,2.54,5.67,5.72,8.42,9.12"/>
      <path class="st0" d="M200.3,36.1c-2.67-3.3-5.32-6.8-7.99-10.11"/>
      <path class="st0" d="M225.1,50.27c2.92-.89,5.7-2.69,8.39-5.06"/>
      <path class="st0" d="M146.69,31.04c4.07-5.2,8.13-10.4,12.42-14.17"/>
      <path class="st0" d="M183.88,16.87c-3.89-3.42-7.96-5.67-12.39-5.67-1.36,0-2.69.22-4,.61"/>
      <path class="st0" d="M167.5,11.82c-2.92.89-5.7,2.69-8.39,5.05"/>
      <path class="st0" d="M208.72,45.22c3.89,3.42,7.96,5.67,12.39,5.67,1.36,0,2.69-.22,4-.61"/>
      <path class="st0" d="M208.72,45.22c-2.89-2.54-5.67-5.72-8.42-9.12"/>
      <path class="st0" d="M101.08,36.1c2.75,3.4,5.54,6.58,8.42,9.12"/>
      <path class="st0" d="M93.09,25.99c2.68,3.3,5.32,6.81,7.99,10.11"/>
      <path class="st0" d="M146.69,31.04c-4.06,5.2-8.13,10.4-12.42,14.17"/>
      <path class="st0" d="M26.67,50.27c-1.3.4-2.63.61-4,.61-4.42,0-8.5-2.25-12.39-5.67"/>
      <path class="st0" d="M10.29,45.22c-2.89-2.54-5.67-5.72-8.42-9.12"/>
      <path class="st0" d="M0,33.76c.62.79,1.24,1.57,1.87,2.34"/>
      <path class="st0" d="M26.67,50.27c2.92-.89,5.7-2.69,8.39-5.06"/>
      <path class="st0" d="M68.28,11.82c-2.92.89-5.7,2.69-8.39,5.05"/>
      <path class="st0" d="M93.09,25.99c-2.75-3.4-5.53-6.58-8.42-9.12"/>
      <path class="st0" d="M84.67,16.87c-3.89-3.42-7.96-5.67-12.39-5.67h0c-1.36,0-2.7.22-4,.61"/>
      <path class="st0" d="M35.06,45.22c8.57-7.54,16.26-20.8,24.83-28.35"/>
      <path class="st0" d="M109.5,45.22c3.89,3.42,7.96,5.67,12.38,5.67,1.36,0,2.7-.22,4-.61"/>
      <path class="st0" d="M125.89,50.27c2.92-.89,5.7-2.69,8.39-5.06"/>
      <path class="st0" d="M200.3,36.1c-1.3.4-2.63.61-4,.61-4.42,0-8.5-2.25-12.39-5.67"/>
      <path class="st0" d="M175.49,21.93c2.75,3.4,5.54,6.58,8.42,9.12"/>
      <path class="st0" d="M208.68,31.04c-2.69,2.37-5.47,4.17-8.39,5.05"/>
      <path class="st0" d="M167.5,11.82c-2.75-3.4-5.53-6.58-8.42-9.12"/>
      <path class="st0" d="M175.49,21.93c-2.67-3.3-5.32-6.8-7.99-10.11"/>
      <path class="st0" d="M121.89,16.87c4.06-5.2,8.13-10.4,12.42-14.17"/>
      <path class="st0" d="M134.31,2.7c1.15-1.01,2.32-1.92,3.5-2.7"/>
      <path class="st0" d="M155.57,0c1.19.78,2.36,1.69,3.51,2.7"/>
      <path class="st0" d="M233.52,2.7c1.15-1.01,2.32-1.92,3.5-2.7"/>
      <path class="st0" d="M208.68,31.04c8.58-7.54,16.26-20.8,24.84-28.35"/>
      <path class="st0" d="M1.87,36.1c-.62.19-1.24.33-1.87.43"/>
      <path class="st0" d="M101.08,36.1c2.92-.89,5.7-2.69,8.39-5.05"/>
      <path class="st0" d="M10.26,31.04c8.58-7.54,16.26-20.8,24.84-28.35"/>
      <path class="st0" d="M59.87,2.7c-1.15-1.01-2.32-1.92-3.51-2.7"/>
      <path class="st0" d="M84.7,31.04c-2.88-2.54-5.67-5.72-8.42-9.12"/>
      <path class="st0" d="M68.28,11.82c2.68,3.3,5.32,6.81,7.99,10.11"/>
      <path class="st0" d="M84.7,31.04c3.89,3.42,7.96,5.67,12.39,5.67,1.36,0,2.69-.22,4-.61"/>
      <path class="st0" d="M121.89,16.87c-4.06,5.2-8.13,10.4-12.42,14.18"/>
      <path class="st0" d="M35.09,2.7c1.15-1.01,2.32-1.92,3.5-2.7"/>
      <path class="st0" d="M68.28,11.82c-2.75-3.4-5.53-6.58-8.42-9.12"/>
      <path class="st0" d="M10.26,31.04c-2.69,2.37-5.47,4.17-8.39,5.05"/>
      <path class="st0" d="M183.88,16.87c5.03-4.43,9.76-10.82,14.53-16.87"/>
      <path class="st0" d="M150.69,7.75c-2.05-2.53-4.07-5.17-6.11-7.75"/>
      <path class="st0" d="M99.2,0c-.71.89-1.41,1.8-2.11,2.7"/>
      <path class="st0" d="M175.49,21.93c-1.3.4-2.63.61-4,.61-4.42,0-8.5-2.25-12.39-5.67"/>
      <path class="st0" d="M150.69,7.75c2.75,3.4,5.54,6.58,8.42,9.12"/>
      <path class="st0" d="M175.49,21.93c2.92-.89,5.7-2.69,8.39-5.05"/>
      <path class="st0" d="M76.28,21.93c2.92-.89,5.7-2.69,8.39-5.05"/>
      <path class="st0" d="M59.89,16.87c3.89,3.42,7.96,5.67,12.39,5.67,1.36,0,2.69-.22,4-.61"/>
      <path class="st0" d="M51.48,7.75c-2.05-2.53-4.07-5.17-6.11-7.75"/>
      <path class="st0" d="M97.09,2.7c-4.06,5.2-8.13,10.4-12.42,14.18"/>
      <path class="st0" d="M51.48,7.75c2.75,3.4,5.53,6.58,8.42,9.12"/>
      <path class="st0" d="M131.49,0c.93.96,1.87,1.86,2.82,2.7"/>
      <path class="st0" d="M134.31,2.7c3.89,3.42,7.96,5.67,12.39,5.67,1.36,0,2.69-.22,3.99-.61"/>
      <path class="st0" d="M150.69,7.75c2.92-.89,5.7-2.69,8.39-5.05"/>
      <path class="st0" d="M230.71,0c.93.96,1.87,1.86,2.82,2.7"/>
      <path class="st0" d="M243.78,8.19c-3.61-.59-7-2.62-10.26-5.49"/>
      <path class="st0" d="M161.9,0c-.93.96-1.87,1.86-2.82,2.7"/>
      <path class="st0" d="M32.28,0c.93.96,1.87,1.86,2.82,2.7"/>
      <path class="st0" d="M59.87,2.7c-2.69,2.37-5.47,4.17-8.39,5.05"/>
      <path class="st0" d="M35.09,2.7c3.89,3.42,7.96,5.67,12.39,5.67,1.36,0,2.69-.22,3.99-.61"/>
      <path class="st0" d="M59.87,2.7c.95-.84,1.89-1.74,2.82-2.7"/>
      <path class="st0" d="M243.78,64.88c-3.62-.59-7-2.62-10.26-5.49"/>
      <path class="st0" d="M208.68,31.04c-3.89-3.42-7.96-5.67-12.39-5.67-1.36,0-2.69.22-4,.61"/>
      <path class="st0" d="M183.91,31.04c-4.29,3.77-8.35,8.97-12.42,14.17"/>
      <path class="st0" d="M192.3,25.99c-2.92.89-5.7,2.69-8.39,5.05"/>
      <path class="st0" d="M217.1,40.16c2.68,3.3,5.32,6.81,8,10.11"/>
      <path class="st0" d="M217.1,40.16c-2.75-3.4-5.53-6.58-8.42-9.12"/>
      <path class="st0" d="M225.1,50.27c2.75,3.4,5.53,6.58,8.42,9.12"/>
      <path class="st0" d="M171.49,45.21c-4.06,5.2-8.13,10.4-12.41,14.17"/>
      <path class="st0" d="M10.26,31.04c2.88,2.54,5.67,5.72,8.42,9.12"/>
      <path class="st0" d="M150.69,64.44c2.92-.89,5.7-2.69,8.39-5.05"/>
      <path class="st0" d="M51.48,64.44c2.92-.89,5.7-2.69,8.39-5.05"/>
      <path class="st0" d="M26.67,50.27c-2.68-3.3-5.32-6.81-7.99-10.11"/>
      <path class="st0" d="M117.89,40.16c-2.75-3.4-5.54-6.58-8.42-9.12"/>
      <path class="st0" d="M125.89,50.27c-2.67-3.3-5.32-6.8-7.99-10.11"/>
      <path class="st0" d="M26.67,50.27c2.75,3.4,5.53,6.58,8.42,9.12"/>
      <path class="st0" d="M93.09,25.99c-2.92.89-5.7,2.69-8.39,5.05"/>
      <path class="st0" d="M10.26,31.04C7,28.18,3.61,26.14,0,25.56"/>
      <path class="st0" d="M125.89,50.27c2.75,3.4,5.54,6.58,8.42,9.12"/>
      <path class="st0" d="M134.31,59.39c3.89,3.42,7.96,5.67,12.39,5.67,1.37,0,2.7-.22,4-.62"/>
      <path class="st0" d="M35.09,59.39c3.89,3.42,7.96,5.67,12.39,5.67,1.37,0,2.7-.22,4-.62"/>
      <path class="st0" d="M84.7,31.04c-8.58,7.54-16.26,20.8-24.83,28.35"/>
      <path class="st0" d="M93.09,25.99c1.3-.4,2.63-.61,4-.61h0c4.42,0,8.5,2.25,12.39,5.67"/>
      <path class="st0" d="M208.72,45.22c-8.58,7.55-16.26,20.8-24.83,28.35"/>
      <path class="st0" d="M142.7,54.34c-2.75-3.4-5.54-6.58-8.42-9.12"/>
      <path class="st0" d="M150.69,64.44c-2.67-3.3-5.32-6.81-7.99-10.11"/>
      <path class="st0" d="M134.28,45.22c-3.89-3.42-7.96-5.67-12.38-5.67-1.37,0-2.7.22-4,.62"/>
      <path class="st0" d="M150.69,64.44c2.75,3.4,5.53,6.58,8.42,9.12"/>
      <path class="st0" d="M97.09,59.39c4.06-5.2,8.13-10.4,12.41-14.17"/>
      <path class="st0" d="M109.5,45.22c2.69-2.37,5.47-4.17,8.39-5.06"/>
      <path class="st0" d="M241.91,54.33c.62.77,1.25,1.55,1.87,2.34"/>
      <path class="st0" d="M159.11,73.56c1.15,1.01,2.32,1.92,3.5,2.7"/>
      <path class="st0" d="M217.1,40.16c-2.92.89-5.7,2.69-8.39,5.06"/>
      <path class="st0" d="M183.88,73.57c-1.15,1.01-2.32,1.92-3.5,2.7"/>
      <path class="st0" d="M217.1,40.16c1.3-.4,2.64-.62,4-.62h0c4.42,0,8.5,2.25,12.38,5.67"/>
      <path class="st0" d="M241.91,54.33c-2.75-3.4-5.54-6.58-8.42-9.12"/>
      <path class="st0" d="M51.48,64.44c2.75,3.4,5.53,6.58,8.42,9.12"/>
      <path class="st0" d="M43.48,54.33c-2.75-3.4-5.54-6.58-8.42-9.12"/>
      <path class="st0" d="M63.4,76.26c-1.19-.78-2.35-1.69-3.5-2.7"/>
      <path class="st0" d="M84.67,73.56c-1.15,1.01-2.32,1.92-3.5,2.7"/>
      <path class="st0" d="M18.68,40.16c-2.92.89-5.7,2.69-8.39,5.06"/>
      <path class="st0" d="M35.06,45.22c-3.89-3.42-7.96-5.67-12.38-5.67h0c-1.37,0-2.7.22-4,.61"/>
      <path class="st0" d="M97.09,59.39c-4.06,5.2-8.13,10.4-12.42,14.18"/>
      <path class="st0" d="M43.48,54.33c2.68,3.3,5.32,6.81,7.99,10.11"/>
      <path class="st0" d="M10.29,45.22C6.75,48.33,3.36,52.42,0,56.68"/>
      <path class="st0" d="M134.31,59.39c2.69-2.37,5.47-4.17,8.39-5.06"/>
      <path class="st0" d="M218.99,76.26c4.78-6.05,9.5-12.44,14.53-16.87"/>
      <path class="st0" d="M243.78,53.9c-.63.1-1.25.25-1.87.43"/>
      <path class="st0" d="M167.5,68.51c2.05,2.53,4.07,5.17,6.11,7.75"/>
      <path class="st0" d="M233.52,59.39c2.69-2.37,5.47-4.17,8.39-5.06"/>
      <path class="st0" d="M159.08,59.39c-3.89-3.42-7.96-5.67-12.39-5.67-1.36,0-2.69.22-4,.61"/>
      <path class="st0" d="M121.89,73.56c4.06-5.2,8.13-10.4,12.41-14.17"/>
      <path class="st0" d="M167.5,68.51c-2.75-3.4-5.54-6.58-8.42-9.12"/>
      <path class="st0" d="M43.48,54.33c-2.92.89-5.7,2.69-8.39,5.06"/>
      <path class="st0" d="M68.29,68.51c-2.75-3.4-5.53-6.58-8.42-9.12"/>
      <path class="st0" d="M43.48,54.33c1.3-.4,2.63-.61,4-.61h0c4.42,0,8.5,2.25,12.39,5.67"/>
      <path class="st0" d="M68.29,68.51c2.05,2.53,4.07,5.17,6.11,7.75"/>
      <path class="st0" d="M35.09,59.39c-5.03,4.43-9.75,10.82-14.53,16.87"/>
      <path class="st0" d="M121.89,73.56c-.7.9-1.41,1.8-2.12,2.7"/>
      <path class="st0" d="M159.11,73.56c2.69-2.37,5.47-4.17,8.39-5.05"/>
      <path class="st0" d="M186.7,76.26c-.93-.96-1.87-1.86-2.81-2.7"/>
      <path class="st0" d="M159.11,73.56c-.95.83-1.89,1.74-2.82,2.7"/>
      <path class="st0" d="M183.88,73.57c-3.89-3.42-7.96-5.67-12.39-5.67-1.36,0-2.69.22-4,.61"/>
      <path class="st0" d="M68.29,68.51c-2.92.89-5.7,2.69-8.39,5.05"/>
      <path class="st0" d="M57.08,76.26c.93-.96,1.87-1.86,2.82-2.7"/>
      <path class="st0" d="M87.49,76.26c-.93-.96-1.87-1.86-2.82-2.7"/>
      <path class="st0" d="M84.67,73.56c-3.89-3.42-7.96-5.67-12.39-5.67h0c-1.36,0-2.69.22-4,.61"/>
      <line class="st0" x1="38.6" x2="45.36"/>
      <polyline class="st0" points="0 25.56 0 0 32.28 0"/>
      <line class="st0" x1="0" y1="33.76" x2="0" y2="36.53"/>
      <polyline class="st0" points="20.56 76.26 0 76.26 0 56.68"/>
      <line class="st0" x1="99.2" x2="62.69"/>
      <line class="st0" x1="137.81" x2="144.58"/>
      <line class="st0" x1="99.2" x2="131.49"/>
      <line class="st0" x1="57.08" y1="76.26" x2="63.4" y2="76.26"/>
      <line class="st0" x1="144.58" x2="155.57"/>
      <line class="st0" x1="0" y1="56.68" x2="0" y2="36.53"/>
      <line class="st0" x1="87.49" y1="76.26" x2="81.17" y2="76.26"/>
      <line class="st0" x1="0" y1="25.56" x2="0" y2="33.76"/>
      <line class="st0" x1="198.41" x2="161.9"/>
      <line class="st0" x1="243.78" y1="53.9" x2="243.78" y2="56.68"/>
      <line class="st0" x1="74.4" y1="76.26" x2="63.4" y2="76.26"/>
      <line class="st0" x1="81.17" y1="76.26" x2="74.4" y2="76.26"/>
      <line class="st0" x1="161.9" x2="155.57"/>
      <line class="st0" x1="45.36" x2="56.36"/>
      <line class="st0" x1="62.69" x2="56.36"/>
      <line class="st0" x1="186.7" y1="76.26" x2="180.38" y2="76.26"/>
      <line class="st0" x1="32.28" x2="38.6"/>
      <line class="st0" x1="173.61" y1="76.26" x2="162.61" y2="76.26"/>
      <line class="st0" x1="119.77" y1="76.26" x2="87.49" y2="76.26"/>
      <line class="st0" x1="180.38" y1="76.26" x2="173.61" y2="76.26"/>
      <line class="st0" x1="156.29" y1="76.26" x2="162.61" y2="76.26"/>
      <line class="st0" x1="243.78" y1="64.88" x2="243.78" y2="56.68"/>
      <line class="st0" x1="20.56" y1="76.26" x2="57.08" y2="76.26"/>
      <polyline class="st0" points="243.78 8.19 243.78 0 237.02 0"/>
      <line class="st0" x1="243.78" y1="33.76" x2="243.78" y2="53.9"/>
      <polyline class="st0" points="218.99 76.26 243.78 76.26 243.78 64.88"/>
      <line class="st0" x1="131.49" x2="137.81"/>
      <line class="st0" x1="198.41" x2="230.71"/>
      <line class="st0" x1="119.77" y1="76.26" x2="156.29" y2="76.26"/>
      <line class="st0" x1="218.99" y1="76.26" x2="186.7" y2="76.26"/>
      <line class="st0" x1="243.78" y1="33.76" x2="243.78" y2="8.19"/>
      <line class="st0" x1="237.02" x2="230.71"/>
    </g>
  </g>
  <g id="_x35_7">
    <g>
      <path class="st0" d="M190.63,38.13c3.81-4.54,7.53-9.64,11.34-14.17"/>
      <path class="st0" d="M102.76,23.96c-1.91,2.27-3.79,4.68-5.67,7.09"/>
      <path class="st0" d="M240.23,23.96c1.19,1.41,2.37,2.88,3.54,4.37"/>
      <path class="st0" d="M102.76,23.96c5.94-7.07,12.09-12.75,19.13-12.75s13.2,5.69,19.13,12.76"/>
      <path class="st0" d="M201.97,23.96c5.94-7.07,12.09-12.75,19.13-12.75h0c7.04,0,13.2,5.69,19.13,12.76"/>
      <path class="st0" d="M190.63,38.13c-5.94,7.07-12.09,12.76-19.13,12.76s-13.19-5.69-19.13-12.75"/>
      <path class="st0" d="M141.02,23.96c3.81,4.54,7.53,9.64,11.34,14.17"/>
      <path class="st0" d="M53.15,38.13c-3.81-4.54-7.53-9.64-11.34-14.17"/>
      <path class="st0" d="M41.81,23.96c-5.94-7.07-12.09-12.76-19.13-12.76h0c-7.04,0-13.19,5.69-19.13,12.75"/>
      <path class="st0" d="M91.41,38.13c1.9-2.27,3.79-4.68,5.67-7.09"/>
      <path class="st0" d="M91.41,38.13c-5.94,7.07-12.09,12.76-19.13,12.76s-13.19-5.69-19.13-12.75"/>
      <path class="st0" d="M0,28.33c1.18-1.49,2.36-2.96,3.54-4.37"/>
      <path class="st0" d="M152.36,9.79c3.31-3.94,6.69-7.45,10.25-9.79"/>
      <path class="st0" d="M53.15,9.79c-1.9,2.27-3.79,4.67-5.67,7.08"/>
      <path class="st0" d="M190.63,9.78c-3.31-3.94-6.69-7.45-10.25-9.78"/>
      <path class="st0" d="M53.15,9.79c3.31-3.94,6.69-7.45,10.25-9.79"/>
      <path class="st0" d="M102.76,23.96c5.94,7.07,12.09,12.76,19.13,12.76s13.19-5.69,19.13-12.75"/>
      <path class="st0" d="M240.23,23.96c1.19-1.41,2.37-2.88,3.54-4.38"/>
      <path class="st0" d="M81.17,0c3.56,2.33,6.94,5.84,10.25,9.78"/>
      <path class="st0" d="M102.76,23.96c-3.81-4.54-7.53-9.64-11.34-14.17"/>
      <path class="st0" d="M190.63,9.78c3.81,4.54,7.53,9.64,11.34,14.17"/>
      <path class="st0" d="M141.02,23.96c3.81-4.54,7.53-9.64,11.34-14.17"/>
      <path class="st0" d="M201.97,23.96c5.94,7.07,12.09,12.76,19.13,12.76s13.19-5.69,19.13-12.75"/>
      <path class="st0" d="M41.81,23.96c-5.94,7.07-12.09,12.75-19.13,12.75s-13.2-5.69-19.13-12.76"/>
      <path class="st0" d="M41.81,23.96c1.91-2.27,3.79-4.68,5.67-7.09"/>
      <path class="st0" d="M0,19.58c1.18,1.49,2.36,2.96,3.54,4.37"/>
      <path class="st0" d="M190.63,9.78c-5.94,7.07-12.09,12.76-19.13,12.76s-13.19-5.69-19.13-12.75"/>
      <path class="st0" d="M152.36,9.79c-2.62-3.12-5.2-6.5-7.79-9.79"/>
      <path class="st0" d="M190.63,9.78c2.62-3.12,5.19-6.5,7.79-9.78"/>
      <path class="st0" d="M97.09,2.7c.7-.9,1.41-1.8,2.11-2.7"/>
      <path class="st0" d="M91.41,9.78c1.9-2.27,3.79-4.68,5.67-7.09"/>
      <path class="st0" d="M53.15,9.79c5.94,7.07,12.09,12.75,19.13,12.75s13.2-5.69,19.13-12.76"/>
      <path class="st0" d="M53.15,9.79c-2.62-3.12-5.2-6.5-7.79-9.79"/>
      <path class="st0" d="M205.9,0c4.74,4.89,9.7,8.37,15.2,8.37s10.46-3.47,15.2-8.37"/>
      <path class="st0" d="M106.69,0c4.74,4.89,9.7,8.37,15.2,8.37s10.46-3.47,15.2-8.37"/>
      <path class="st0" d="M37.88,0c-4.74,4.89-9.7,8.37-15.2,8.37S12.21,4.89,7.47,0"/>
      <path class="st0" d="M102.76,52.3c5.94,7.07,12.09,12.76,19.13,12.76s13.19-5.69,19.13-12.75"/>
      <path class="st0" d="M91.41,38.13c-5.94-7.07-12.09-12.75-19.13-12.75s-13.2,5.69-19.13,12.76"/>
      <path class="st0" d="M201.97,52.3c5.94,7.07,12.09,12.76,19.13,12.76s13.19-5.69,19.13-12.75"/>
      <path class="st0" d="M141.02,52.31c3.81-4.54,7.53-9.64,11.34-14.17"/>
      <path class="st0" d="M240.23,52.31c1.19-1.41,2.37-2.88,3.54-4.38"/>
      <path class="st0" d="M190.63,38.13c-5.94-7.07-12.09-12.75-19.13-12.75h0c-7.04,0-13.2,5.69-19.13,12.76"/>
      <path class="st0" d="M53.15,38.13c-1.9,2.27-3.79,4.67-5.67,7.08"/>
      <path class="st0" d="M91.41,38.13c3.81,4.54,7.53,9.64,11.34,14.17"/>
      <path class="st0" d="M190.63,38.13c3.81,4.54,7.53,9.64,11.34,14.17"/>
      <path class="st0" d="M41.81,52.31c-5.94,7.07-12.09,12.75-19.13,12.75s-13.2-5.69-19.13-12.76"/>
      <path class="st0" d="M0,47.93c1.18,1.49,2.36,2.96,3.54,4.37"/>
      <path class="st0" d="M41.81,52.31c1.91-2.27,3.79-4.68,5.67-7.09"/>
      <path class="st0" d="M162.61,76.26c-3.56-2.33-6.94-5.84-10.25-9.78"/>
      <path class="st0" d="M180.38,76.26c3.56-2.34,6.94-5.84,10.25-9.79"/>
      <path class="st0" d="M102.76,52.3c-1.91,2.27-3.79,4.68-5.67,7.09"/>
      <path class="st0" d="M240.23,52.31c1.19,1.41,2.37,2.88,3.54,4.37"/>
      <path class="st0" d="M141.02,52.31c3.81,4.54,7.53,9.64,11.34,14.17"/>
      <path class="st0" d="M201.97,52.3c5.94-7.07,12.09-12.75,19.13-12.75h0c7.04,0,13.2,5.69,19.13,12.76"/>
      <path class="st0" d="M102.76,52.3c5.94-7.07,12.09-12.75,19.13-12.75s13.2,5.69,19.13,12.76"/>
      <path class="st0" d="M190.63,66.47c3.81-4.54,7.53-9.64,11.34-14.17"/>
      <path class="st0" d="M91.41,66.47c-3.31,3.94-6.69,7.45-10.25,9.79"/>
      <path class="st0" d="M97.08,59.39c-1.88,2.41-3.77,4.82-5.67,7.09"/>
      <path class="st0" d="M0,56.67c1.18-1.49,2.36-2.96,3.54-4.37"/>
      <path class="st0" d="M41.81,52.31c-5.94-7.07-12.09-12.76-19.13-12.76h0c-7.04,0-13.19,5.68-19.13,12.75"/>
      <path class="st0" d="M41.81,52.31c3.81,4.54,7.53,9.64,11.34,14.17"/>
      <path class="st0" d="M63.4,76.26c-3.56-2.33-6.94-5.84-10.25-9.78"/>
      <path class="st0" d="M91.41,66.47c-5.94-7.07-12.09-12.75-19.13-12.75s-13.2,5.69-19.13,12.76"/>
      <path class="st0" d="M190.63,66.47c2.62,3.12,5.2,6.5,7.79,9.79"/>
      <path class="st0" d="M99.2,76.26c-2.59-3.29-5.17-6.67-7.79-9.79"/>
      <path class="st0" d="M190.63,66.47c-5.94-7.07-12.09-12.75-19.13-12.75h0c-7.04,0-13.2,5.69-19.13,12.76"/>
      <path class="st0" d="M53.15,66.48c-1.9,2.27-3.79,4.67-5.67,7.08"/>
      <path class="st0" d="M152.36,66.48c-2.62,3.12-5.19,6.5-7.78,9.78"/>
      <path class="st0" d="M47.48,73.56c-.71.9-1.41,1.8-2.12,2.7"/>
      <path class="st0" d="M236.3,76.26c-4.74-4.89-9.7-8.37-15.2-8.37h0c-5.5,0-10.46,3.47-15.2,8.37"/>
      <path class="st0" d="M137.09,76.26c-4.74-4.89-9.7-8.37-15.2-8.37s-10.46,3.47-15.2,8.37"/>
      <path class="st0" d="M37.88,76.26c-4.74-4.89-9.7-8.37-15.2-8.37h0c-5.5,0-10.46,3.47-15.2,8.37"/>
      <line class="st0" x1="81.16" y1="76.26" x2="63.4" y2="76.26"/>
      <polyline class="st0" points="0 56.67 0 76.26 7.47 76.26"/>
      <line class="st0" x1="63.4" x2="81.17"/>
      <line class="st0" x1="37.88" x2="45.36"/>
      <line class="st0" x1="37.88" y1="76.26" x2="45.37" y2="76.26"/>
      <line class="st0" x1="81.16" y1="76.26" x2="99.2" y2="76.26"/>
      <line class="st0" x1="106.69" x2="137.1"/>
      <line class="st0" x1="99.2" y1="76.26" x2="106.69" y2="76.26"/>
      <line class="st0" x1="144.58" y1="76.26" x2="137.09" y2="76.26"/>
      <line class="st0" x1="137.1" x2="144.58"/>
      <line class="st0" x1="180.38" x2="162.61"/>
      <line class="st0" x1="144.58" x2="162.61"/>
      <polyline class="st0" points="7.47 0 0 0 0 19.58"/>
      <line class="st0" x1="63.4" x2="45.36"/>
      <line class="st0" x1="0" y1="47.93" x2="0" y2="56.67"/>
      <line class="st0" x1="0" y1="19.58" x2="0" y2="28.33"/>
      <line class="st0" x1="37.88" y1="76.26" x2="7.47" y2="76.26"/>
      <line class="st0" x1="180.38" y1="76.26" x2="162.61" y2="76.26"/>
      <line class="st0" x1="63.4" y1="76.26" x2="45.37" y2="76.26"/>
      <line class="st0" x1="37.88" x2="7.47"/>
      <line class="st0" x1="0" y1="28.33" x2="0" y2="47.93"/>
      <polyline class="st0" points="236.31 0 243.78 0 243.78 19.58"/>
      <line class="st0" x1="243.78" y1="28.33" x2="243.78" y2="47.93"/>
      <line class="st0" x1="198.41" x2="205.9"/>
      <line class="st0" x1="106.69" x2="99.2"/>
      <line class="st0" x1="81.17" x2="99.2"/>
      <line class="st0" x1="180.38" x2="198.41"/>
      <line class="st0" x1="243.78" y1="56.68" x2="243.78" y2="47.93"/>
      <line class="st0" x1="106.69" y1="76.26" x2="137.09" y2="76.26"/>
      <line class="st0" x1="180.38" y1="76.26" x2="198.42" y2="76.26"/>
      <line class="st0" x1="144.58" y1="76.26" x2="162.61" y2="76.26"/>
      <line class="st0" x1="205.9" y1="76.26" x2="198.42" y2="76.26"/>
      <line class="st0" x1="243.78" y1="28.33" x2="243.78" y2="19.58"/>
      <line class="st0" x1="205.9" y1="76.26" x2="236.3" y2="76.26"/>
      <line class="st0" x1="205.9" x2="236.31"/>
      <polyline class="st0" points="243.78 56.68 243.78 76.26 236.3 76.26"/>
    </g>
  </g>
</svg>