<?xml version="1.0" encoding="UTF-8"?>
<svg id="Ebene_2" xmlns="http://www.w3.org/2000/svg" version="1.1" viewBox="0 0 311.81 127.56">
  <!-- Generator: Adobe Illustrator 29.1.0, SVG Export Plug-In . SVG Version: 2.1.0 Build 142)  -->
  <defs>
    <style>
      .st0 {
        fill: #1e1e1c;
        font-family: Helvetica, Helvetica;
        font-size: 8px;
      }

      .st0, .st1 {
        isolation: isolate;
      }

      .st2 {
        stroke-linecap: round;
        stroke-linejoin: round;
      }

      .st2, .st3 {
        fill: none;
        stroke: #1f1f1d;
        stroke-width: 1.2px;
      }

      .st3 {
        stroke-miterlimit: 10;
      }
    </style>
  </defs>
  <g class="st1">
    <text class="st0" transform="translate(123.11 119.14)"><tspan x="0" y="0">58</tspan></text>
  </g>
  <g id="_x35_8_x5F_rein">
    <g>
      <path class="st3" d="M14.21,16.36h0"/>
      <path class="st3" d="M14.21,16.36s.02-.04.03-.06"/>
      <path class="st2" d="M14.2,22.37c3.24.75,11.78-3.43,19.83-6.01"/>
      <path class="st2" d="M49.09,16.36c-5.7,11.51,7.63,3.91,19.82,0"/>
      <path class="st3" d="M49.09,16.36s.02-.04.03-.06"/>
      <path class="st3" d="M83.97,16.36s.02-.04.03-.06"/>
      <path class="st2" d="M83.97,16.36c-5.7,11.51,7.63,3.91,19.82,0"/>
      <path class="st3" d="M118.86,16.36s.02-.04.03-.06"/>
      <path class="st2" d="M118.86,16.36c-5.7,11.51,7.63,3.91,19.82,0"/>
      <path class="st2" d="M153.74,16.36c-5.7,11.51,7.63,3.91,19.82,0"/>
      <path class="st3" d="M153.74,16.36s.02-.04.03-.06"/>
      <path class="st3" d="M188.62,16.36s.02-.04.03-.06"/>
      <path class="st2" d="M188.62,16.36c-5.7,11.51,7.63,3.91,19.82,0"/>
      <line class="st3" x1="14.2" y1="51.25" x2="14.2" y2="51.25"/>
      <path class="st2" d="M14.2,57.32c5.8,1.28,28.15-12.86,34.88-6.08"/>
      <path class="st2" d="M49.09,51.25c-8.72,17.5,26.16-8.78,34.88,0"/>
      <path class="st2" d="M83.97,51.25c-8.72,17.5,26.16-8.78,34.88,0"/>
      <path class="st2" d="M153.74,51.25c-8.72-8.78-43.6,17.5-34.88,0"/>
      <path class="st2" d="M153.74,51.25c-8.72,17.5,26.16-8.78,34.88,0"/>
      <path class="st2" d="M223.5,51.25c-8.72-8.78-43.6,17.5-34.88,0"/>
      <path class="st2" d="M49.06,86.16s.02.02.03.03"/>
      <path class="st2" d="M49.06,86.16c-6.77-6.71-29.06,7.38-34.85,6.11"/>
      <path class="st2" d="M83.97,86.19l-.03-.03"/>
      <path class="st2" d="M83.94,86.16c-8.77-8.69-43.56,17.51-34.85.03"/>
      <path class="st2" d="M118.82,86.16l.03.03"/>
      <path class="st2" d="M83.97,86.19c-8.71,17.48,26.08-8.72,34.85-.03"/>
      <path class="st2" d="M153.71,86.16c-8.77-8.69-43.56,17.51-34.85.03"/>
      <path class="st2" d="M153.74,86.19s-.02-.02-.03-.03"/>
      <path class="st2" d="M153.74,86.19c-8.71,17.48,26.08-8.72,34.85-.03"/>
      <path class="st2" d="M188.59,86.16s.02.02.03.03"/>
      <path class="st2" d="M223.5,86.19s-.02-.02-.03-.03"/>
      <path class="st2" d="M223.47,86.16h0"/>
      <path class="st2" d="M223.46,86.15c-8.79-8.66-43.55,17.52-34.84.04"/>
      <path class="st2" d="M66.53,33.81c-8.72-8.78-43.6,17.5-34.88,0"/>
      <path class="st2" d="M66.53,33.81c-8.72,17.5,26.16-8.78,34.88,0"/>
      <line class="st2" x1="101.41" y1="33.81" x2="101.41" y2="33.81"/>
      <path class="st2" d="M101.41,33.81c-8.72,17.5,26.16-8.78,34.88,0"/>
      <path class="st2" d="M171.18,33.81c-8.72-8.78-43.6,17.5-34.88,0"/>
      <path class="st2" d="M171.18,33.81c-8.72,17.5,26.16-8.78,34.88,0"/>
      <path class="st2" d="M240.94,33.81c-8.72-8.78-43.6,17.5-34.88,0"/>
      <path class="st2" d="M66.5,68.72l.03.03"/>
      <path class="st2" d="M31.65,68.75c-8.71,17.48,26.08-8.72,34.85-.03"/>
      <path class="st2" d="M101.41,68.75l-.03-.03"/>
      <path class="st2" d="M66.53,68.75c-8.71,17.48,26.08-8.72,34.85-.03"/>
      <path class="st2" d="M136.3,68.75s-.02-.02-.03-.03"/>
      <path class="st2" d="M101.41,68.75c-8.71,17.48,26.08-8.72,34.85-.03"/>
      <path class="st2" d="M136.3,68.75c-8.71,17.48,26.08-8.72,34.85-.03"/>
      <path class="st2" d="M171.18,68.75s-.02-.02-.03-.03"/>
      <path class="st2" d="M171.18,68.75c-8.71,17.48,26.08-8.72,34.85-.03"/>
      <path class="st2" d="M206.06,68.75s-.02-.02-.03-.03"/>
      <path class="st3" d="M240.91,68.72s.02.02.03.03"/>
      <path class="st2" d="M206.06,68.75c-8.71,17.48,26.08-8.72,34.85-.03"/>
      <path class="st2" d="M223.44,51.31c-5.33,10.77,6.03,4.78,17.51.77"/>
      <path class="st2" d="M223.44,51.31s.02-.04.03-.07"/>
      <line class="st2" x1="31.65" y1="33.81" x2="49.09" y2="16.36"/>
      <line class="st2" x1="31.65" y1="33.81" x2="31.65" y2="33.81"/>
      <line class="st2" x1="66.53" y1="33.81" x2="83.97" y2="16.36"/>
      <line class="st2" x1="101.41" y1="33.81" x2="101.41" y2="33.81"/>
      <line class="st2" x1="101.41" y1="33.81" x2="118.85" y2="16.36"/>
      <line class="st2" x1="136.3" y1="33.81" x2="153.74" y2="16.36"/>
      <line class="st2" x1="171.18" y1="33.81" x2="188.62" y2="16.36"/>
      <line class="st3" x1="223.5" y1="16.36" x2="223.44" y2="16.42"/>
      <line class="st2" x1="206.06" y1="33.81" x2="223.44" y2="16.42"/>
      <line class="st3" x1="14.2" y1="51.25" x2="14.2" y2="51.25"/>
      <line class="st2" x1="14.2" y1="51.25" x2="31.65" y2="33.81"/>
      <line class="st3" x1="14.2" y1="51.25" x2="14.2" y2="51.25"/>
      <line class="st2" x1="66.53" y1="33.81" x2="49.09" y2="51.25"/>
      <line class="st2" x1="101.41" y1="33.81" x2="83.97" y2="51.25"/>
      <line class="st2" x1="136.3" y1="33.81" x2="118.85" y2="51.25"/>
      <line class="st2" x1="171.18" y1="33.81" x2="153.74" y2="51.25"/>
      <line class="st2" x1="206.06" y1="33.81" x2="188.62" y2="51.25"/>
      <line class="st2" x1="223.5" y1="51.25" x2="240.94" y2="33.81"/>
      <line class="st2" x1="49.09" y1="51.25" x2="31.65" y2="68.69"/>
      <line class="st2" x1="66.53" y1="68.69" x2="83.97" y2="51.25"/>
      <line class="st2" x1="101.41" y1="68.69" x2="118.85" y2="51.25"/>
      <line class="st2" x1="153.74" y1="51.25" x2="136.3" y2="68.69"/>
      <line class="st2" x1="188.62" y1="51.25" x2="171.18" y2="68.69"/>
      <line class="st2" x1="223.44" y1="51.31" x2="206.06" y2="68.69"/>
      <line class="st2" x1="223.44" y1="51.31" x2="223.5" y2="51.25"/>
      <path class="st2" d="M223.44,86.2c-5.33,10.77,6.03,4.78,17.51.77"/>
      <path class="st2" d="M223.44,86.2s.02-.03.02-.05"/>
      <path class="st2" d="M223.47,86.13v.02"/>
      <line class="st2" x1="223.5" y1="86.13" x2="223.47" y2="86.16"/>
      <line class="st2" x1="223.44" y1="86.2" x2="223.47" y2="86.16"/>
      <line class="st2" x1="223.44" y1="86.2" x2="210.42" y2="99.21"/>
      <line class="st3" x1="14.2" y1="86.13" x2="14.2" y2="86.13"/>
      <line class="st2" x1="31.65" y1="68.69" x2="31.61" y2="68.72"/>
      <line class="st2" x1="14.2" y1="86.13" x2="31.61" y2="68.72"/>
      <line class="st2" x1="66.5" y1="68.72" x2="66.53" y2="68.69"/>
      <line class="st2" x1="49.09" y1="86.13" x2="66.5" y2="68.72"/>
      <line class="st2" x1="101.38" y1="68.72" x2="101.41" y2="68.69"/>
      <line class="st2" x1="83.97" y1="86.13" x2="101.38" y2="68.72"/>
      <line class="st2" x1="118.85" y1="86.13" x2="136.26" y2="68.72"/>
      <line class="st2" x1="136.26" y1="68.72" x2="136.3" y2="68.69"/>
      <line class="st2" x1="153.74" y1="86.13" x2="171.15" y2="68.72"/>
      <line class="st2" x1="171.15" y1="68.72" x2="171.18" y2="68.69"/>
      <line class="st2" x1="206.06" y1="68.69" x2="206.03" y2="68.72"/>
      <line class="st2" x1="188.62" y1="86.13" x2="206.03" y2="68.72"/>
      <line class="st3" x1="240.94" y1="68.69" x2="240.91" y2="68.72"/>
      <line class="st2" x1="223.5" y1="86.13" x2="240.91" y2="68.72"/>
      <line class="st2" x1="49.09" y1="86.13" x2="49.06" y2="86.16"/>
      <line class="st2" x1="49.06" y1="86.16" x2="36.01" y2="99.21"/>
      <path class="st3" d="M223.5,16.3s-.02.04-.03.06"/>
      <path class="st3" d="M223.47,16.36s-.02.04-.03.06"/>
      <path class="st2" d="M240.94,17.15c-11.45,4-22.76,9.96-17.5-.73"/>
      <line class="st3" x1="14.2" y1="51.25" x2="14.2" y2="51.25"/>
      <path class="st3" d="M14.2,51.25h0"/>
      <path class="st3" d="M14.2,86.19h0"/>
      <path class="st3" d="M14.17,86.16s.02.02.03.03"/>
      <path class="st2" d="M14.2,34.66c7.04-2.46,14.13-4.19,17.44-.85"/>
      <path class="st2" d="M31.65,33.81h0"/>
      <path class="st2" d="M31.61,68.72c-3.33-3.3-10.39-1.57-17.41.88"/>
      <path class="st2" d="M31.61,68.72s.02.02.03.03"/>
      <line class="st3" x1="14.2" y1="51.25" x2="14.2" y2="51.25"/>
      <line class="st3" x1="14.17" y1="86.16" x2="14.2" y2="86.13"/>
      <line class="st2" x1="83.94" y1="86.16" x2="70.89" y2="99.21"/>
      <line class="st2" x1="83.94" y1="86.16" x2="83.97" y2="86.13"/>
      <line class="st2" x1="118.82" y1="86.16" x2="105.77" y2="99.21"/>
      <line class="st2" x1="118.85" y1="86.13" x2="118.82" y2="86.16"/>
      <line class="st2" x1="153.71" y1="86.16" x2="153.74" y2="86.13"/>
      <line class="st2" x1="153.71" y1="86.16" x2="140.66" y2="99.21"/>
      <line class="st2" x1="188.59" y1="86.16" x2="175.54" y2="99.21"/>
      <line class="st2" x1="188.62" y1="86.13" x2="188.59" y2="86.16"/>
      <line class="st3" x1="223.47" y1="16.36" x2="223.5" y2="16.36"/>
      <line class="st3" x1="49.09" y1="16.36" x2="34.03" y2="16.36"/>
      <line class="st3" x1="240.94" y1="68.69" x2="240.94" y2="52.09"/>
      <line class="st3" x1="14.2" y1="34.66" x2="14.2" y2="22.37"/>
      <line class="st3" x1="240.94" y1="86.97" x2="240.94" y2="68.75"/>
      <polyline class="st3" points="240.94 17.15 240.94 16.36 223.5 16.36"/>
      <line class="st3" x1="14.2" y1="51.25" x2="14.2" y2="34.66"/>
      <line class="st3" x1="208.45" y1="16.36" x2="188.62" y2="16.36"/>
      <line class="st3" x1="68.91" y1="16.36" x2="49.09" y2="16.36"/>
      <line class="st3" x1="140.66" y1="99.21" x2="105.77" y2="99.21"/>
      <line class="st3" x1="118.85" y1="16.36" x2="103.8" y2="16.36"/>
      <line class="st3" x1="240.94" y1="17.15" x2="240.94" y2="33.81"/>
      <line class="st3" x1="153.74" y1="16.36" x2="153.74" y2="16.36"/>
      <line class="st3" x1="153.74" y1="16.36" x2="138.68" y2="16.36"/>
      <line class="st3" x1="173.56" y1="16.36" x2="153.74" y2="16.36"/>
      <line class="st3" x1="240.94" y1="52.09" x2="240.94" y2="33.81"/>
      <line class="st3" x1="70.89" y1="99.21" x2="105.77" y2="99.21"/>
      <polyline class="st3" points="210.42 99.21 240.94 99.21 240.94 86.97"/>
      <line class="st3" x1="118.86" y1="16.36" x2="138.68" y2="16.36"/>
      <line class="st3" x1="188.62" y1="16.36" x2="188.62" y2="16.36"/>
      <polyline class="st3" points="14.2 92.27 14.2 99.21 36.01 99.21"/>
      <line class="st3" x1="70.89" y1="99.21" x2="36.01" y2="99.21"/>
      <line class="st3" x1="240.94" y1="68.69" x2="240.94" y2="68.75"/>
      <line class="st3" x1="173.56" y1="16.36" x2="188.62" y2="16.36"/>
      <line class="st3" x1="14.2" y1="92.27" x2="14.2" y2="86.19"/>
      <path class="st3" d="M34.03,16.36"/>
      <line class="st3" x1="14.2" y1="86.13" x2="14.2" y2="86.13"/>
      <line class="st3" x1="14.2" y1="57.32" x2="14.2" y2="51.25"/>
      <line class="st3" x1="14.21" y1="16.36" x2="14.2" y2="16.36"/>
      <line class="st3" x1="14.2" y1="51.25" x2="14.2" y2="51.25"/>
      <line class="st3" x1="140.66" y1="99.21" x2="175.54" y2="99.21"/>
      <line class="st3" x1="14.2" y1="69.6" x2="14.2" y2="57.32"/>
      <line class="st3" x1="14.2" y1="51.25" x2="14.2" y2="51.25"/>
      <line class="st3" x1="83.97" y1="16.36" x2="83.97" y2="16.36"/>
      <line class="st3" x1="14.2" y1="16.36" x2="14.2" y2="16.37"/>
      <line class="st3" x1="118.86" y1="16.36" x2="118.85" y2="16.36"/>
      <line class="st3" x1="14.2" y1="69.6" x2="14.2" y2="86.13"/>
      <polyline class="st3" points="34.03 16.36 14.2 16.37 14.2 22.37"/>
      <line class="st3" x1="49.09" y1="16.36" x2="49.09" y2="16.36"/>
      <line class="st3" x1="103.8" y1="16.36" x2="83.97" y2="16.36"/>
      <line class="st3" x1="210.42" y1="99.21" x2="175.54" y2="99.21"/>
      <line class="st3" x1="68.91" y1="16.36" x2="83.97" y2="16.36"/>
      <line class="st3" x1="223.47" y1="16.36" x2="208.45" y2="16.36"/>
      <line class="st3" x1="14.2" y1="86.13" x2="14.2" y2="86.19"/>
    </g>
  </g>
</svg>