<?xml version="1.0" encoding="UTF-8"?>
<svg id="Ebene_2" xmlns="http://www.w3.org/2000/svg" version="1.1" viewBox="0 0 311.81 170.08">
  <!-- Generator: Adobe Illustrator 29.1.0, SVG Export Plug-In . SVG Version: 2.1.0 Build 142)  -->
  <defs>
    <style>
      .st0 {
        stroke-miterlimit: 10;
      }

      .st0, .st1 {
        fill: none;
        stroke: #1e1e1c;
        stroke-width: 1.2px;
      }

      .st1 {
        stroke-linecap: round;
        stroke-linejoin: round;
      }

      .st2 {
        fill: #1d1d1b;
        font-family: Helvetica, Helvetica;
        font-size: 8px;
      }
    </style>
  </defs>
  <text class="st2" transform="translate(123.11 119.14)"><tspan x="0" y="0">58</tspan></text>
  <g id="_x35_8_x5F_rein">
    <g>
      <path class="st0" d="M14.21,14.23s0,0,0,0"/>
      <path class="st0" d="M14.21,14.23s.02-.04.03-.06"/>
      <path class="st1" d="M14.2,20.24c3.24.75,11.78-3.43,19.83-6.01"/>
      <path class="st1" d="M49.09,14.23c-5.7,11.51,7.63,3.91,19.82,0"/>
      <path class="st0" d="M49.09,14.23s.02-.04.03-.06"/>
      <path class="st0" d="M83.97,14.23s.02-.04.03-.06"/>
      <path class="st1" d="M83.97,14.23c-5.7,11.51,7.63,3.91,19.82,0"/>
      <path class="st0" d="M118.86,14.23s.02-.04.03-.06"/>
      <path class="st1" d="M118.86,14.23c-5.7,11.51,7.63,3.91,19.82,0"/>
      <path class="st1" d="M153.74,14.23c-5.7,11.51,7.63,3.91,19.82,0"/>
      <path class="st0" d="M153.74,14.23s.02-.04.03-.06"/>
      <path class="st0" d="M188.62,14.23s.02-.04.03-.06"/>
      <path class="st1" d="M188.62,14.23c-5.7,11.51,7.63,3.91,19.82,0"/>
      <line class="st0" x1="14.2" y1="49.12" x2="14.2" y2="49.12"/>
      <path class="st1" d="M14.2,55.19c5.8,1.28,28.15-12.86,34.88-6.08"/>
      <path class="st1" d="M49.09,49.12c-8.72,17.5,26.16-8.78,34.88,0"/>
      <path class="st1" d="M83.97,49.12c-8.72,17.5,26.16-8.78,34.88,0"/>
      <path class="st1" d="M153.74,49.12c-8.72-8.78-43.6,17.5-34.88,0"/>
      <path class="st1" d="M153.74,49.12c-8.72,17.5,26.16-8.78,34.88,0"/>
      <path class="st1" d="M223.5,49.12c-8.72-8.78-43.6,17.5-34.88,0"/>
      <path class="st1" d="M49.06,84.03s.02.02.03.03"/>
      <path class="st1" d="M49.06,84.03c-6.77-6.71-29.06,7.38-34.85,6.11"/>
      <path class="st1" d="M83.97,84.06s-.02-.02-.03-.03"/>
      <path class="st1" d="M83.94,84.03c-8.77-8.69-43.56,17.51-34.85.03"/>
      <path class="st1" d="M118.82,84.03s.02.02.03.03"/>
      <path class="st1" d="M83.97,84.06c-8.71,17.48,26.08-8.72,34.85-.03"/>
      <path class="st1" d="M153.71,84.03c-8.77-8.69-43.56,17.51-34.85.03"/>
      <path class="st1" d="M153.74,84.06s-.02-.02-.03-.03"/>
      <path class="st1" d="M153.74,84.06c-8.71,17.48,26.08-8.72,34.85-.03"/>
      <path class="st1" d="M188.59,84.03s.02.02.03.03"/>
      <path class="st1" d="M223.5,84.06s-.02-.02-.03-.03"/>
      <path class="st1" d="M223.47,84.03s0,0-.01-.01"/>
      <path class="st1" d="M223.46,84.02c-8.79-8.66-43.55,17.52-34.84.04"/>
      <path class="st1" d="M66.53,31.68c-8.72-8.78-43.6,17.5-34.88,0"/>
      <path class="st1" d="M66.53,31.68c-8.72,17.5,26.16-8.78,34.88,0"/>
      <line class="st1" x1="101.41" y1="31.68" x2="101.41" y2="31.68"/>
      <path class="st1" d="M101.41,31.68c-8.72,17.5,26.16-8.78,34.88,0"/>
      <path class="st1" d="M171.18,31.68c-8.72-8.78-43.6,17.5-34.88,0"/>
      <path class="st1" d="M171.18,31.68c-8.72,17.5,26.16-8.78,34.88,0"/>
      <path class="st1" d="M240.94,31.68c-8.72-8.78-43.6,17.5-34.88,0"/>
      <path class="st1" d="M66.5,66.59s.02.02.03.03"/>
      <path class="st1" d="M31.65,66.62c-8.71,17.48,26.08-8.72,34.85-.03"/>
      <path class="st1" d="M101.41,66.62s-.02-.02-.03-.03"/>
      <path class="st1" d="M66.53,66.62c-8.71,17.48,26.08-8.72,34.85-.03"/>
      <path class="st1" d="M136.3,66.62s-.02-.02-.03-.03"/>
      <path class="st1" d="M101.41,66.62c-8.71,17.48,26.08-8.72,34.85-.03"/>
      <path class="st1" d="M136.3,66.62c-8.71,17.48,26.08-8.72,34.85-.03"/>
      <path class="st1" d="M171.18,66.62s-.02-.02-.03-.03"/>
      <path class="st1" d="M171.18,66.62c-8.71,17.48,26.08-8.72,34.85-.03"/>
      <path class="st1" d="M206.06,66.62s-.02-.02-.03-.03"/>
      <path class="st0" d="M240.91,66.59s.02.02.03.03"/>
      <path class="st1" d="M206.06,66.62c-8.71,17.48,26.08-8.72,34.85-.03"/>
      <path class="st1" d="M223.44,49.18c-5.33,10.77,6.03,4.78,17.51.77"/>
      <path class="st1" d="M223.44,49.18s.02-.04.03-.07"/>
      <line class="st1" x1="31.65" y1="31.68" x2="49.09" y2="14.23"/>
      <line class="st1" x1="31.65" y1="31.68" x2="31.65" y2="31.68"/>
      <line class="st1" x1="66.53" y1="31.68" x2="83.97" y2="14.23"/>
      <line class="st1" x1="101.41" y1="31.68" x2="101.41" y2="31.68"/>
      <line class="st1" x1="101.41" y1="31.68" x2="118.85" y2="14.23"/>
      <line class="st1" x1="136.3" y1="31.68" x2="153.74" y2="14.23"/>
      <line class="st1" x1="171.18" y1="31.68" x2="188.62" y2="14.23"/>
      <line class="st0" x1="223.5" y1="14.23" x2="223.44" y2="14.29"/>
      <line class="st1" x1="206.06" y1="31.68" x2="223.44" y2="14.29"/>
      <line class="st0" x1="14.2" y1="49.12" x2="14.2" y2="49.12"/>
      <line class="st1" x1="14.2" y1="49.12" x2="31.65" y2="31.68"/>
      <line class="st0" x1="14.2" y1="49.12" x2="14.2" y2="49.12"/>
      <line class="st1" x1="66.53" y1="31.68" x2="49.09" y2="49.12"/>
      <line class="st1" x1="101.41" y1="31.68" x2="83.97" y2="49.12"/>
      <line class="st1" x1="136.3" y1="31.68" x2="118.85" y2="49.12"/>
      <line class="st1" x1="171.18" y1="31.68" x2="153.74" y2="49.12"/>
      <line class="st1" x1="206.06" y1="31.68" x2="188.62" y2="49.12"/>
      <line class="st1" x1="223.5" y1="49.12" x2="240.94" y2="31.68"/>
      <line class="st1" x1="49.09" y1="49.12" x2="31.65" y2="66.56"/>
      <line class="st1" x1="66.53" y1="66.56" x2="83.97" y2="49.12"/>
      <line class="st1" x1="101.41" y1="66.56" x2="118.85" y2="49.12"/>
      <line class="st1" x1="153.74" y1="49.12" x2="136.3" y2="66.56"/>
      <line class="st1" x1="188.62" y1="49.12" x2="171.18" y2="66.56"/>
      <line class="st1" x1="223.44" y1="49.18" x2="206.06" y2="66.56"/>
      <line class="st1" x1="223.44" y1="49.18" x2="223.5" y2="49.12"/>
      <path class="st1" d="M223.44,84.07c-5.33,10.77,6.03,4.78,17.51.77"/>
      <path class="st1" d="M223.44,84.07s.02-.03.02-.05"/>
      <path class="st1" d="M223.47,84s0,.01,0,.02"/>
      <line class="st1" x1="223.5" y1="84" x2="223.47" y2="84.03"/>
      <line class="st1" x1="223.44" y1="84.07" x2="223.47" y2="84.03"/>
      <line class="st1" x1="223.44" y1="84.07" x2="210.42" y2="97.08"/>
      <line class="st0" x1="14.2" y1="84" x2="14.2" y2="84"/>
      <line class="st1" x1="31.65" y1="66.56" x2="31.61" y2="66.59"/>
      <line class="st1" x1="14.2" y1="84" x2="31.61" y2="66.59"/>
      <line class="st1" x1="66.5" y1="66.59" x2="66.53" y2="66.56"/>
      <line class="st1" x1="49.09" y1="84" x2="66.5" y2="66.59"/>
      <line class="st1" x1="101.38" y1="66.59" x2="101.41" y2="66.56"/>
      <line class="st1" x1="83.97" y1="84" x2="101.38" y2="66.59"/>
      <line class="st1" x1="118.85" y1="84" x2="136.26" y2="66.59"/>
      <line class="st1" x1="136.26" y1="66.59" x2="136.3" y2="66.56"/>
      <line class="st1" x1="153.74" y1="84" x2="171.15" y2="66.59"/>
      <line class="st1" x1="171.15" y1="66.59" x2="171.18" y2="66.56"/>
      <line class="st1" x1="206.06" y1="66.56" x2="206.03" y2="66.59"/>
      <line class="st1" x1="188.62" y1="84" x2="206.03" y2="66.59"/>
      <line class="st0" x1="240.94" y1="66.56" x2="240.91" y2="66.59"/>
      <line class="st1" x1="223.5" y1="84" x2="240.91" y2="66.59"/>
      <line class="st1" x1="49.09" y1="84" x2="49.06" y2="84.03"/>
      <line class="st1" x1="49.06" y1="84.03" x2="36.01" y2="97.08"/>
      <path class="st0" d="M223.5,14.17s-.02.04-.03.06"/>
      <path class="st0" d="M223.47,14.23s-.02.04-.03.06"/>
      <path class="st1" d="M240.94,15.02c-11.45,4-22.76,9.96-17.5-.73"/>
      <line class="st0" x1="14.2" y1="49.12" x2="14.2" y2="49.12"/>
      <path class="st0" d="M14.2,49.12h0"/>
      <path class="st0" d="M14.2,84.06h0"/>
      <path class="st0" d="M14.17,84.03s.02.02.03.03"/>
      <path class="st1" d="M14.2,32.53c7.04-2.46,14.13-4.19,17.44-.85"/>
      <path class="st1" d="M31.65,31.68h0"/>
      <path class="st1" d="M31.61,66.59c-3.33-3.3-10.39-1.57-17.41.88"/>
      <path class="st1" d="M31.61,66.59s.02.02.03.03"/>
      <line class="st0" x1="14.2" y1="49.12" x2="14.2" y2="49.12"/>
      <line class="st0" x1="14.17" y1="84.03" x2="14.2" y2="84"/>
      <line class="st1" x1="83.94" y1="84.03" x2="70.89" y2="97.08"/>
      <line class="st1" x1="83.94" y1="84.03" x2="83.97" y2="84"/>
      <line class="st1" x1="118.82" y1="84.03" x2="105.77" y2="97.08"/>
      <line class="st1" x1="118.85" y1="84" x2="118.82" y2="84.03"/>
      <line class="st1" x1="153.71" y1="84.03" x2="153.74" y2="84"/>
      <line class="st1" x1="153.71" y1="84.03" x2="140.66" y2="97.08"/>
      <line class="st1" x1="188.59" y1="84.03" x2="175.54" y2="97.08"/>
      <line class="st1" x1="188.62" y1="84" x2="188.59" y2="84.03"/>
      <line class="st0" x1="223.47" y1="14.23" x2="223.5" y2="14.23"/>
      <line class="st0" x1="49.09" y1="14.23" x2="34.03" y2="14.23"/>
      <line class="st0" x1="240.94" y1="66.56" x2="240.94" y2="49.96"/>
      <line class="st0" x1="14.2" y1="32.53" x2="14.2" y2="20.24"/>
      <line class="st0" x1="240.94" y1="84.84" x2="240.94" y2="66.62"/>
      <polyline class="st0" points="240.94 15.02 240.94 14.23 223.5 14.23"/>
      <line class="st0" x1="14.2" y1="49.12" x2="14.2" y2="32.53"/>
      <line class="st0" x1="208.45" y1="14.23" x2="188.62" y2="14.23"/>
      <line class="st0" x1="68.91" y1="14.23" x2="49.09" y2="14.23"/>
      <line class="st0" x1="140.66" y1="97.08" x2="105.77" y2="97.08"/>
      <line class="st0" x1="118.85" y1="14.23" x2="103.8" y2="14.23"/>
      <line class="st0" x1="240.94" y1="15.02" x2="240.94" y2="31.68"/>
      <line class="st0" x1="153.74" y1="14.23" x2="153.74" y2="14.23"/>
      <line class="st0" x1="153.74" y1="14.23" x2="138.68" y2="14.23"/>
      <line class="st0" x1="173.56" y1="14.23" x2="153.74" y2="14.23"/>
      <line class="st0" x1="240.94" y1="49.96" x2="240.94" y2="31.68"/>
      <line class="st0" x1="70.89" y1="97.08" x2="105.77" y2="97.08"/>
      <polyline class="st0" points="210.42 97.08 240.94 97.08 240.94 84.84"/>
      <line class="st0" x1="118.86" y1="14.23" x2="138.68" y2="14.23"/>
      <line class="st0" x1="188.62" y1="14.23" x2="188.62" y2="14.23"/>
      <polyline class="st0" points="14.2 90.14 14.2 97.08 36.01 97.08"/>
      <line class="st0" x1="70.89" y1="97.08" x2="36.01" y2="97.08"/>
      <line class="st0" x1="240.94" y1="66.56" x2="240.94" y2="66.62"/>
      <line class="st0" x1="173.56" y1="14.23" x2="188.62" y2="14.23"/>
      <line class="st0" x1="14.2" y1="90.14" x2="14.2" y2="84.06"/>
      <path class="st0" d="M34.03,14.23"/>
      <line class="st0" x1="14.2" y1="84" x2="14.2" y2="84"/>
      <line class="st0" x1="14.2" y1="55.19" x2="14.2" y2="49.12"/>
      <line class="st0" x1="14.21" y1="14.23" x2="14.2" y2="14.23"/>
      <line class="st0" x1="14.2" y1="49.12" x2="14.2" y2="49.12"/>
      <line class="st0" x1="140.66" y1="97.08" x2="175.54" y2="97.08"/>
      <line class="st0" x1="14.2" y1="67.47" x2="14.2" y2="55.19"/>
      <line class="st0" x1="14.2" y1="49.12" x2="14.2" y2="49.12"/>
      <line class="st0" x1="83.97" y1="14.23" x2="83.97" y2="14.23"/>
      <line class="st0" x1="14.2" y1="14.23" x2="14.2" y2="14.24"/>
      <line class="st0" x1="118.86" y1="14.23" x2="118.85" y2="14.23"/>
      <line class="st0" x1="14.2" y1="67.47" x2="14.2" y2="84"/>
      <polyline class="st0" points="34.03 14.23 14.2 14.24 14.2 20.24"/>
      <line class="st0" x1="49.09" y1="14.23" x2="49.09" y2="14.23"/>
      <line class="st0" x1="103.8" y1="14.23" x2="83.97" y2="14.23"/>
      <line class="st0" x1="210.42" y1="97.08" x2="175.54" y2="97.08"/>
      <line class="st0" x1="68.91" y1="14.23" x2="83.97" y2="14.23"/>
      <line class="st0" x1="223.47" y1="14.23" x2="208.45" y2="14.23"/>
      <line class="st0" x1="14.2" y1="84" x2="14.2" y2="84.06"/>
    </g>
  </g>
</svg>