<?xml version="1.0" encoding="UTF-8"?>
<svg id="Ebene_2" xmlns="http://www.w3.org/2000/svg" version="1.1" viewBox="0 0 311.81 170.08">
  <!-- Generator: Adobe Illustrator 29.1.0, SVG Export Plug-In . SVG Version: 2.1.0 Build 142)  -->
  <defs>
    <style>
      .st0 {
        stroke-miterlimit: 10;
      }

      .st0, .st1 {
        fill: none;
        stroke: #1e1e1c;
        stroke-width: 1.2px;
      }

      .st1 {
        stroke-linecap: round;
        stroke-linejoin: round;
      }

      .st2 {
        fill: #1d1d1b;
        font-family: Helvetica, Helvetica;
        font-size: 8px;
      }
    </style>
  </defs>
  <text class="st2" transform="translate(123.11 119.14)"><tspan x="0" y="0">59</tspan></text>
  <g id="_x35_9_x5F_rein">
    <g>
      <path class="st1" d="M31.62,31.62h0"/>
      <path class="st1" d="M31.62,31.62c-8.72,17.5,26.17-8.78,34.89,0"/>
      <path class="st1" d="M66.51,31.62h0"/>
      <path class="st1" d="M66.51,31.62c-8.72,17.5,26.17-8.78,34.89,0"/>
      <path class="st1" d="M101.39,31.62h0"/>
      <path class="st1" d="M66.51,31.62h0"/>
      <path class="st1" d="M136.28,31.62c-8.72-8.78-43.61,17.5-34.89,0"/>
      <path class="st1" d="M136.28,31.62c-8.72,17.5,26.17-8.78,34.89,0"/>
      <path class="st1" d="M136.28,31.62h0"/>
      <path class="st1" d="M171.17,31.62c-8.72,17.5,26.17-8.78,34.89,0"/>
      <path class="st1" d="M171.17,31.62h0"/>
      <path class="st1" d="M206.06,31.62h0"/>
      <path class="st1" d="M206.06,31.62c-8.72,17.5,26.17-8.78,34.89,0"/>
      <path class="st1" d="M66.46,66.53s.03.03.04.04"/>
      <path class="st1" d="M31.62,66.57c-8.71,17.48,26.06-8.7,34.85-.04"/>
      <path class="st1" d="M66.51,66.57c-8.71,17.48,26.06-8.7,34.85-.04"/>
      <path class="st1" d="M101.39,66.57s-.03-.03-.04-.04"/>
      <path class="st1" d="M136.24,66.53s.03.03.04.04"/>
      <path class="st1" d="M101.39,66.57c-8.71,17.48,26.06-8.7,34.85-.04"/>
      <path class="st1" d="M136.28,66.57c-8.71,17.48,26.06-8.7,34.85-.04"/>
      <path class="st1" d="M171.13,66.53s.03.03.04.04"/>
      <path class="st1" d="M206.06,66.57s-.03-.03-.04-.04"/>
      <path class="st1" d="M171.17,66.57c-8.71,17.48,26.06-8.7,34.85-.04"/>
      <path class="st0" d="M240.95,66.57s-.03-.03-.04-.04"/>
      <path class="st1" d="M206.06,66.57c-8.71,17.48,26.06-8.7,34.85-.04"/>
      <line class="st0" x1="49.06" y1="14.17" x2="49.06" y2="14.17"/>
      <path class="st1" d="M49.06,14.17c-5.81,11.66,7.72,3.89,19.99,0"/>
      <line class="st0" x1="49.06" y1="14.17" x2="49.06" y2="14.17"/>
      <line class="st0" x1="83.95" y1="14.17" x2="83.95" y2="14.17"/>
      <path class="st1" d="M83.95,14.17c-5.81,11.66,7.72,3.89,19.99,0"/>
      <path class="st1" d="M118.84,14.17c-5.81,11.66,7.72,3.89,19.99,0"/>
      <line class="st0" x1="118.84" y1="14.17" x2="118.84" y2="14.17"/>
      <line class="st0" x1="153.73" y1="14.17" x2="153.73" y2="14.17"/>
      <line class="st0" x1="153.73" y1="14.17" x2="153.73" y2="14.17"/>
      <path class="st1" d="M153.73,14.17c-5.81,11.66,7.72,3.89,19.99,0"/>
      <line class="st0" x1="188.61" y1="14.17" x2="188.61" y2="14.17"/>
      <line class="st0" x1="188.61" y1="14.17" x2="188.61" y2="14.17"/>
      <path class="st1" d="M188.61,14.17c-5.81,11.66,7.72,3.89,19.99,0"/>
      <path class="st1" d="M223.5,14.17c-5.41,10.85,5.95,4.87,17.44.85"/>
      <line class="st0" x1="223.5" y1="14.17" x2="223.5" y2="14.17"/>
      <path class="st1" d="M83.91,49.08c-8.79-8.66-43.56,17.52-34.85.04"/>
      <path class="st1" d="M83.91,49.08s.03.03.04.04"/>
      <path class="st1" d="M118.8,49.08s.03.03.04.04"/>
      <path class="st1" d="M83.95,49.12c-8.71,17.48,26.06-8.7,34.85-.04"/>
      <path class="st1" d="M118.84,49.12c-8.71,17.48,26.06-8.7,34.85-.04"/>
      <path class="st1" d="M153.68,49.08s.03.03.04.04"/>
      <path class="st1" d="M188.61,49.12s-.03-.03-.04-.04"/>
      <path class="st1" d="M153.73,49.12c-8.71,17.48,26.06-8.7,34.85-.04"/>
      <path class="st1" d="M223.5,49.12s-.03-.03-.04-.04"/>
      <path class="st1" d="M188.61,49.12c-8.71,17.48,26.06-8.7,34.85-.04"/>
      <path class="st1" d="M223.5,49.12c-5.41,10.85,5.95,4.87,17.44.85"/>
      <path class="st1" d="M83.95,84.07s-.05-.05-.08-.08"/>
      <path class="st1" d="M49.06,84.07c-8.7,17.45,25.95-8.62,34.81-.08"/>
      <path class="st1" d="M118.84,84.07s-.05-.05-.08-.08"/>
      <path class="st1" d="M118.76,83.99c-8.86-8.54-43.5,17.53-34.81.08"/>
      <path class="st1" d="M153.64,83.99s.05.05.08.08"/>
      <path class="st1" d="M118.84,84.07c-8.7,17.45,25.95-8.62,34.81-.08"/>
      <path class="st1" d="M188.53,83.99c-8.86-8.54-43.5,17.53-34.81.08"/>
      <path class="st1" d="M188.53,83.99s.05.05.08.08"/>
      <path class="st1" d="M223.5,84.07s-.05-.05-.08-.08"/>
      <path class="st1" d="M188.61,84.07c-8.7,17.45,25.95-8.62,34.81-.08"/>
      <path class="st1" d="M223.5,84.07c-5.41,10.85,5.95,4.87,17.44.85"/>
      <path class="st1" d="M66.51,31.62h0"/>
      <path class="st1" d="M66.51,31.62c-8.72,4.36-17.44,8.72-17.44,17.44"/>
      <path class="st1" d="M83.95,49.06c0-8.72,8.72-13.08,17.44-17.44"/>
      <path class="st1" d="M118.84,49.06c0-8.72,8.72-13.08,17.44-17.44"/>
      <path class="st1" d="M136.28,31.62h0"/>
      <path class="st1" d="M171.17,31.62h0"/>
      <path class="st1" d="M153.73,49.06c0-8.72,8.72-13.08,17.44-17.44"/>
      <path class="st1" d="M188.61,49.06c0-8.72,8.72-13.08,17.44-17.44"/>
      <path class="st1" d="M240.95,31.62c-8.72,4.36-17.44,8.72-17.44,17.44"/>
      <path class="st1" d="M66.46,66.53s.03-.01.04-.02"/>
      <path class="st1" d="M66.46,66.53c-8.71,4.35-17.4,8.71-17.4,17.42"/>
      <path class="st1" d="M101.35,66.53s.03-.01.04-.02"/>
      <path class="st1" d="M83.95,83.95c0-8.71,8.69-13.07,17.4-17.42"/>
      <path class="st1" d="M136.24,66.53c-8.71,4.35-17.4,8.71-17.4,17.42"/>
      <path class="st1" d="M136.24,66.53s.03-.01.04-.02"/>
      <path class="st1" d="M171.13,66.53s.03-.01.04-.02"/>
      <path class="st1" d="M153.73,83.95c0-8.71,8.69-13.07,17.4-17.42"/>
      <path class="st1" d="M206.06,66.51s-.03.01-.04.02"/>
      <path class="st1" d="M206.02,66.53c-8.71,4.35-17.4,8.72-17.4,17.42"/>
      <path class="st0" d="M240.9,66.53s.03-.01.04-.02"/>
      <path class="st1" d="M223.5,83.95c0-8.71,8.69-13.07,17.4-17.42"/>
      <line class="st0" x1="49.06" y1="14.17" x2="49.06" y2="14.17"/>
      <path class="st1" d="M49.06,14.17c-8.72,4.36-17.44,8.72-17.44,17.44"/>
      <path class="st1" d="M66.51,31.62h0"/>
      <path class="st1" d="M83.95,14.17c-8.72,4.36-17.44,8.72-17.44,17.44"/>
      <path class="st1" d="M101.39,31.62c0-8.72,8.72-13.08,17.44-17.44"/>
      <path class="st1" d="M101.39,31.62h0"/>
      <line class="st0" x1="153.73" y1="14.17" x2="153.73" y2="14.17"/>
      <path class="st1" d="M136.28,31.62c0-8.72,8.72-13.08,17.44-17.44"/>
      <line class="st0" x1="188.61" y1="14.17" x2="188.61" y2="14.17"/>
      <path class="st1" d="M188.61,14.17c-8.72,4.36-17.44,8.72-17.44,17.44"/>
      <path class="st1" d="M206.06,31.62c0-8.72,8.72-13.08,17.44-17.44"/>
      <path class="st1" d="M206.06,31.62h0"/>
      <path class="st1" d="M49.02,49.08s.03-.01.04-.02"/>
      <path class="st1" d="M31.62,66.51c0-8.71,8.69-13.07,17.4-17.42"/>
      <path class="st1" d="M31.62,31.62c-3.31-3.34-10.4-1.61-17.44.85"/>
      <path class="st1" d="M31.58,66.53c-3.33-3.28-10.39-1.56-17.4.89"/>
      <path class="st1" d="M31.58,66.53s.03.03.04.04"/>
      <path class="st1" d="M34.16,14.17c-8.07,2.56-16.69,6.8-19.99,6.08"/>
      <path class="st0" d="M14.17,14.17h0"/>
      <path class="st1" d="M49.02,49.08s.03.03.04.04"/>
      <path class="st1" d="M49.02,49.08c-6.79-6.69-29.05,7.39-34.85,6.12"/>
      <path class="st1" d="M48.98,83.99s.05.05.08.08"/>
      <path class="st1" d="M48.98,83.99c-6.83-6.59-29.02,7.43-34.81,6.16"/>
      <path class="st1" d="M31.62,31.62h0"/>
      <path class="st1" d="M31.62,31.62c-8.72,4.36-17.44,8.72-17.44,17.44"/>
      <path class="st1" d="M31.58,66.53c-8.71,4.35-17.4,8.71-17.4,17.42"/>
      <path class="st1" d="M31.58,66.53s.03-.01.04-.02"/>
      <path class="st0" d="M14.17,14.17h0"/>
      <path class="st1" d="M83.91,49.08s.03-.01.04-.02"/>
      <path class="st1" d="M83.91,49.08c-8.71,4.35-17.4,8.72-17.4,17.42"/>
      <path class="st1" d="M118.8,49.08s.03-.01.04-.02"/>
      <path class="st1" d="M118.8,49.08c-8.71,4.35-17.4,8.72-17.4,17.42"/>
      <path class="st1" d="M153.68,49.08s.03-.01.04-.02"/>
      <path class="st1" d="M153.68,49.08c-8.71,4.35-17.4,8.72-17.4,17.42"/>
      <path class="st1" d="M188.57,49.08c-8.71,4.35-17.4,8.72-17.4,17.42"/>
      <path class="st1" d="M188.61,49.06s-.03.01-.04.02"/>
      <path class="st1" d="M223.46,49.08c-8.71,4.35-17.4,8.72-17.4,17.42"/>
      <path class="st1" d="M223.5,49.06s-.03.01-.04.02"/>
      <path class="st1" d="M48.98,83.99s.05-.03.08-.04"/>
      <path class="st1" d="M48.98,83.99c-7.11,3.55-14.19,7.11-16.55,13.04"/>
      <path class="st1" d="M83.87,83.99c-7.11,3.55-14.19,7.11-16.55,13.04"/>
      <path class="st1" d="M83.87,83.99s.05-.03.08-.04"/>
      <path class="st1" d="M118.76,83.99c-7.11,3.55-14.19,7.11-16.55,13.04"/>
      <path class="st1" d="M118.76,83.99l.08-.04"/>
      <path class="st1" d="M153.64,83.99c-7.1,3.55-14.19,7.11-16.55,13.04"/>
      <path class="st1" d="M153.64,83.99l.08-.04"/>
      <path class="st1" d="M188.53,83.99c-7.11,3.55-14.19,7.11-16.55,13.04"/>
      <path class="st1" d="M188.53,83.99l.08-.04"/>
      <path class="st1" d="M223.42,83.99s.05-.03.08-.04"/>
      <path class="st1" d="M223.42,83.99c-7.11,3.55-14.19,7.11-16.55,13.04"/>
      <line class="st0" x1="14.17" y1="67.42" x2="14.17" y2="84.07"/>
      <line class="st0" x1="32.43" y1="97.03" x2="67.32" y2="97.03"/>
      <line class="st0" x1="240.95" y1="49.97" x2="240.95" y2="31.62"/>
      <line class="st0" x1="14.17" y1="84.07" x2="14.17" y2="90.15"/>
      <line class="st0" x1="240.95" y1="84.92" x2="240.95" y2="66.57"/>
      <line class="st0" x1="171.99" y1="97.03" x2="206.87" y2="97.03"/>
      <line class="st0" x1="102.21" y1="97.03" x2="137.1" y2="97.03"/>
      <line class="st0" x1="173.71" y1="14.17" x2="188.61" y2="14.17"/>
      <line class="st0" x1="188.61" y1="14.17" x2="188.61" y2="14.17"/>
      <line class="st0" x1="14.17" y1="49.12" x2="14.17" y2="49.06"/>
      <polyline class="st0" points="14.17 20.25 14.17 14.17 34.16 14.17 49.06 14.17"/>
      <line class="st0" x1="14.17" y1="32.47" x2="14.17" y2="49.06"/>
      <line class="st0" x1="14.17" y1="67.42" x2="14.17" y2="55.2"/>
      <line class="st0" x1="188.61" y1="14.17" x2="208.6" y2="14.17"/>
      <line class="st0" x1="223.5" y1="14.17" x2="223.5" y2="14.17"/>
      <line class="st0" x1="14.17" y1="55.2" x2="14.17" y2="49.12"/>
      <line class="st0" x1="102.21" y1="97.03" x2="67.32" y2="97.03"/>
      <polyline class="st0" points="14.17 90.15 14.17 97.03 32.43 97.03"/>
      <line class="st0" x1="171.99" y1="97.03" x2="137.1" y2="97.03"/>
      <path class="st0" d="M34.16,14.17"/>
      <polyline class="st0" points="240.95 84.92 240.95 97.03 206.87 97.03"/>
      <line class="st0" x1="14.17" y1="32.47" x2="14.17" y2="20.25"/>
      <line class="st0" x1="240.95" y1="15.02" x2="240.95" y2="31.62"/>
      <line class="st0" x1="240.95" y1="49.97" x2="240.95" y2="66.57"/>
      <line class="st0" x1="83.95" y1="14.17" x2="83.95" y2="14.17"/>
      <line class="st0" x1="138.82" y1="14.17" x2="118.84" y2="14.17"/>
      <line class="st0" x1="153.73" y1="14.17" x2="153.73" y2="14.17"/>
      <line class="st0" x1="223.5" y1="14.17" x2="208.6" y2="14.17"/>
      <line class="st0" x1="118.84" y1="14.17" x2="103.94" y2="14.17"/>
      <polyline class="st0" points="240.95 15.02 240.95 14.17 223.5 14.17"/>
      <line class="st0" x1="69.05" y1="14.17" x2="49.06" y2="14.17"/>
      <line class="st0" x1="118.84" y1="14.17" x2="118.84" y2="14.17"/>
      <line class="st0" x1="173.71" y1="14.17" x2="153.73" y2="14.17"/>
      <line class="st0" x1="138.82" y1="14.17" x2="153.73" y2="14.17"/>
      <line class="st0" x1="83.95" y1="14.17" x2="69.05" y2="14.17"/>
      <line class="st0" x1="83.95" y1="14.17" x2="103.94" y2="14.17"/>
      <line class="st0" x1="49.06" y1="14.17" x2="49.06" y2="14.17"/>
    </g>
  </g>
</svg>