<?xml version="1.0" encoding="UTF-8"?>
<svg id="Ebene_2" xmlns="http://www.w3.org/2000/svg" version="1.1" viewBox="0 0 311.81 127.56">
  <!-- Generator: Adobe Illustrator 29.1.0, SVG Export Plug-In . SVG Version: 2.1.0 Build 142)  -->
  <defs>
    <style>
      .st0 {
        fill: #1e1e1c;
        font-family: Helvetica, Helvetica;
        font-size: 8px;
      }

      .st0, .st1 {
        isolation: isolate;
      }

      .st2 {
        stroke-linecap: round;
        stroke-linejoin: round;
      }

      .st2, .st3 {
        fill: none;
        stroke: #1f1f1d;
        stroke-width: 1.2px;
      }

      .st3 {
        stroke-miterlimit: 10;
      }
    </style>
  </defs>
  <g class="st1">
    <text class="st0" transform="translate(123.11 119.14)"><tspan x="0" y="0">59</tspan></text>
  </g>
  <g id="_x35_9_x5F_rein">
    <g>
      <path class="st2" d="M31.62,33.8h0"/>
      <path class="st2" d="M31.62,33.8c-8.72,17.5,26.17-8.78,34.89,0"/>
      <path class="st2" d="M66.51,33.8h0"/>
      <path class="st2" d="M66.51,33.8c-8.72,17.5,26.17-8.78,34.89,0"/>
      <path class="st2" d="M101.39,33.8h0"/>
      <path class="st2" d="M66.51,33.8h0"/>
      <path class="st2" d="M136.28,33.8c-8.72-8.78-43.61,17.5-34.89,0"/>
      <path class="st2" d="M136.28,33.8c-8.72,17.5,26.17-8.78,34.89,0"/>
      <path class="st2" d="M136.28,33.8h0"/>
      <path class="st2" d="M171.17,33.8c-8.72,17.5,26.17-8.78,34.89,0"/>
      <path class="st2" d="M171.17,33.8h0"/>
      <path class="st2" d="M206.06,33.8h0"/>
      <path class="st2" d="M206.06,33.8c-8.72,17.5,26.17-8.78,34.89,0"/>
      <path class="st2" d="M66.46,68.71l.04.04"/>
      <path class="st2" d="M31.62,68.75c-8.71,17.48,26.06-8.7,34.85-.04"/>
      <path class="st2" d="M66.51,68.75c-8.71,17.48,26.06-8.7,34.85-.04"/>
      <path class="st2" d="M101.39,68.75l-.04-.04"/>
      <path class="st2" d="M136.24,68.71s.03.03.04.04"/>
      <path class="st2" d="M101.39,68.75c-8.71,17.48,26.06-8.7,34.85-.04"/>
      <path class="st2" d="M136.28,68.75c-8.71,17.48,26.06-8.7,34.85-.04"/>
      <path class="st2" d="M171.13,68.71s.03.03.04.04"/>
      <path class="st2" d="M206.06,68.75s-.03-.03-.04-.04"/>
      <path class="st2" d="M171.17,68.75c-8.71,17.48,26.06-8.7,34.85-.04"/>
      <path class="st3" d="M240.95,68.75s-.03-.03-.04-.04"/>
      <path class="st2" d="M206.06,68.75c-8.71,17.48,26.06-8.7,34.85-.04"/>
      <line class="st3" x1="49.06" y1="16.35" x2="49.06" y2="16.35"/>
      <path class="st2" d="M49.06,16.35c-5.81,11.66,7.72,3.89,19.99,0"/>
      <line class="st3" x1="49.06" y1="16.35" x2="49.06" y2="16.35"/>
      <line class="st3" x1="83.95" y1="16.35" x2="83.95" y2="16.35"/>
      <path class="st2" d="M83.95,16.35c-5.81,11.66,7.72,3.89,19.99,0"/>
      <path class="st2" d="M118.84,16.35c-5.81,11.66,7.72,3.89,19.99,0"/>
      <line class="st3" x1="118.84" y1="16.35" x2="118.84" y2="16.35"/>
      <line class="st3" x1="153.73" y1="16.35" x2="153.73" y2="16.35"/>
      <line class="st3" x1="153.73" y1="16.35" x2="153.73" y2="16.35"/>
      <path class="st2" d="M153.73,16.35c-5.81,11.66,7.72,3.89,19.99,0"/>
      <line class="st3" x1="188.61" y1="16.35" x2="188.61" y2="16.35"/>
      <line class="st3" x1="188.61" y1="16.35" x2="188.61" y2="16.35"/>
      <path class="st2" d="M188.61,16.35c-5.81,11.66,7.72,3.89,19.99,0"/>
      <path class="st2" d="M223.5,16.35c-5.41,10.85,5.95,4.87,17.44.85"/>
      <line class="st3" x1="223.5" y1="16.35" x2="223.5" y2="16.35"/>
      <path class="st2" d="M83.91,51.26c-8.79-8.66-43.56,17.52-34.85.04"/>
      <path class="st2" d="M83.91,51.26l.04.04"/>
      <path class="st2" d="M118.8,51.26l.04.04"/>
      <path class="st2" d="M83.95,51.3c-8.71,17.48,26.06-8.7,34.85-.04"/>
      <path class="st2" d="M118.84,51.3c-8.71,17.48,26.06-8.7,34.85-.04"/>
      <path class="st2" d="M153.68,51.26s.03.03.04.04"/>
      <path class="st2" d="M188.61,51.3s-.03-.03-.04-.04"/>
      <path class="st2" d="M153.73,51.3c-8.71,17.48,26.06-8.7,34.85-.04"/>
      <path class="st2" d="M223.5,51.3s-.03-.03-.04-.04"/>
      <path class="st2" d="M188.61,51.3c-8.71,17.48,26.06-8.7,34.85-.04"/>
      <path class="st2" d="M223.5,51.3c-5.41,10.85,5.95,4.87,17.44.85"/>
      <path class="st2" d="M83.95,86.25l-.08-.08"/>
      <path class="st2" d="M49.06,86.25c-8.7,17.45,25.95-8.62,34.81-.08"/>
      <path class="st2" d="M118.84,86.25l-.08-.08"/>
      <path class="st2" d="M118.76,86.17c-8.86-8.54-43.5,17.53-34.81.08"/>
      <path class="st2" d="M153.64,86.17l.08.08"/>
      <path class="st2" d="M118.84,86.25c-8.7,17.45,25.95-8.62,34.81-.08"/>
      <path class="st2" d="M188.53,86.17c-8.86-8.54-43.5,17.53-34.81.08"/>
      <path class="st2" d="M188.53,86.17l.08.08"/>
      <path class="st2" d="M223.5,86.25l-.08-.08"/>
      <path class="st2" d="M188.61,86.25c-8.7,17.45,25.95-8.62,34.81-.08"/>
      <path class="st2" d="M223.5,86.25c-5.41,10.85,5.95,4.87,17.44.85"/>
      <path class="st2" d="M66.51,33.8h0"/>
      <path class="st2" d="M66.51,33.8c-8.72,4.36-17.44,8.72-17.44,17.44"/>
      <path class="st2" d="M83.95,51.24c0-8.72,8.72-13.08,17.44-17.44"/>
      <path class="st2" d="M118.84,51.24c0-8.72,8.72-13.08,17.44-17.44"/>
      <path class="st2" d="M136.28,33.8h0"/>
      <path class="st2" d="M171.17,33.8h0"/>
      <path class="st2" d="M153.73,51.24c0-8.72,8.72-13.08,17.44-17.44"/>
      <path class="st2" d="M188.61,51.24c0-8.72,8.72-13.08,17.44-17.44"/>
      <path class="st2" d="M240.95,33.8c-8.72,4.36-17.44,8.72-17.44,17.44"/>
      <path class="st2" d="M66.46,68.71s.03-.01.04-.02"/>
      <path class="st2" d="M66.46,68.71c-8.71,4.35-17.4,8.71-17.4,17.42"/>
      <path class="st2" d="M101.35,68.71s.03-.01.04-.02"/>
      <path class="st2" d="M83.95,86.13c0-8.71,8.69-13.07,17.4-17.42"/>
      <path class="st2" d="M136.24,68.71c-8.71,4.35-17.4,8.71-17.4,17.42"/>
      <path class="st2" d="M136.24,68.71s.03-.01.04-.02"/>
      <path class="st2" d="M171.13,68.71s.03-.01.04-.02"/>
      <path class="st2" d="M153.73,86.13c0-8.71,8.69-13.07,17.4-17.42"/>
      <path class="st2" d="M206.06,68.69s-.03.01-.04.02"/>
      <path class="st2" d="M206.02,68.71c-8.71,4.35-17.4,8.72-17.4,17.42"/>
      <path class="st3" d="M240.9,68.71s.03-.01.04-.02"/>
      <path class="st2" d="M223.5,86.13c0-8.71,8.69-13.07,17.4-17.42"/>
      <line class="st3" x1="49.06" y1="16.35" x2="49.06" y2="16.35"/>
      <path class="st2" d="M49.06,16.35c-8.72,4.36-17.44,8.72-17.44,17.44"/>
      <path class="st2" d="M66.51,33.8h0"/>
      <path class="st2" d="M83.95,16.35c-8.72,4.36-17.44,8.72-17.44,17.44"/>
      <path class="st2" d="M101.39,33.8c0-8.72,8.72-13.08,17.44-17.44"/>
      <path class="st2" d="M101.39,33.8h0"/>
      <line class="st3" x1="153.73" y1="16.35" x2="153.73" y2="16.35"/>
      <path class="st2" d="M136.28,33.8c0-8.72,8.72-13.08,17.44-17.44"/>
      <line class="st3" x1="188.61" y1="16.35" x2="188.61" y2="16.35"/>
      <path class="st2" d="M188.61,16.35c-8.72,4.36-17.44,8.72-17.44,17.44"/>
      <path class="st2" d="M206.06,33.8c0-8.72,8.72-13.08,17.44-17.44"/>
      <path class="st2" d="M206.06,33.8h0"/>
      <path class="st2" d="M49.02,51.26s.03,0,.04-.02"/>
      <path class="st2" d="M31.62,68.69c0-8.71,8.69-13.07,17.4-17.42"/>
      <path class="st2" d="M31.62,33.8c-3.31-3.34-10.4-1.61-17.44.85"/>
      <path class="st2" d="M31.58,68.71c-3.33-3.28-10.39-1.56-17.4.89"/>
      <path class="st2" d="M31.58,68.71s.03.03.04.04"/>
      <path class="st2" d="M34.16,16.35c-8.07,2.56-16.69,6.8-19.99,6.08"/>
      <path class="st3" d="M14.17,16.35h0"/>
      <path class="st2" d="M49.02,51.26l.04.04"/>
      <path class="st2" d="M49.02,51.26c-6.79-6.69-29.05,7.39-34.85,6.12"/>
      <path class="st2" d="M48.98,86.17s.05.05.08.08"/>
      <path class="st2" d="M48.98,86.17c-6.83-6.59-29.02,7.43-34.81,6.16"/>
      <path class="st2" d="M31.62,33.8h0"/>
      <path class="st2" d="M31.62,33.8c-8.72,4.36-17.44,8.72-17.44,17.44"/>
      <path class="st2" d="M31.58,68.71c-8.71,4.35-17.4,8.71-17.4,17.42"/>
      <path class="st2" d="M31.58,68.71s.03-.01.04-.02"/>
      <path class="st3" d="M14.17,16.35h0"/>
      <path class="st2" d="M83.91,51.26s.03,0,.04-.02"/>
      <path class="st2" d="M83.91,51.26c-8.71,4.35-17.4,8.72-17.4,17.42"/>
      <path class="st2" d="M118.8,51.26s.03,0,.04-.02"/>
      <path class="st2" d="M118.8,51.26c-8.71,4.35-17.4,8.72-17.4,17.42"/>
      <path class="st2" d="M153.68,51.26s.03,0,.04-.02"/>
      <path class="st2" d="M153.68,51.26c-8.71,4.35-17.4,8.72-17.4,17.42"/>
      <path class="st2" d="M188.57,51.26c-8.71,4.35-17.4,8.72-17.4,17.42"/>
      <path class="st2" d="M188.61,51.24s-.03,0-.04.02"/>
      <path class="st2" d="M223.46,51.26c-8.71,4.35-17.4,8.72-17.4,17.42"/>
      <path class="st2" d="M223.5,51.24s-.03,0-.04.02"/>
      <path class="st2" d="M48.98,86.17s.05-.03.08-.04"/>
      <path class="st2" d="M48.98,86.17c-7.11,3.55-14.19,7.11-16.55,13.04"/>
      <path class="st2" d="M83.87,86.17c-7.11,3.55-14.19,7.11-16.55,13.04"/>
      <path class="st2" d="M83.87,86.17s.05-.03.08-.04"/>
      <path class="st2" d="M118.76,86.17c-7.11,3.55-14.19,7.11-16.55,13.04"/>
      <path class="st2" d="M118.76,86.17l.08-.04"/>
      <path class="st2" d="M153.64,86.17c-7.1,3.55-14.19,7.11-16.55,13.04"/>
      <path class="st2" d="M153.64,86.17l.08-.04"/>
      <path class="st2" d="M188.53,86.17c-7.11,3.55-14.19,7.11-16.55,13.04"/>
      <path class="st2" d="M188.53,86.17l.08-.04"/>
      <path class="st2" d="M223.42,86.17s.05-.03.08-.04"/>
      <path class="st2" d="M223.42,86.17c-7.11,3.55-14.19,7.11-16.55,13.04"/>
      <line class="st3" x1="14.17" y1="69.6" x2="14.17" y2="86.25"/>
      <line class="st3" x1="32.43" y1="99.21" x2="67.32" y2="99.21"/>
      <line class="st3" x1="240.95" y1="52.15" x2="240.95" y2="33.8"/>
      <line class="st3" x1="14.17" y1="86.25" x2="14.17" y2="92.33"/>
      <line class="st3" x1="240.95" y1="87.1" x2="240.95" y2="68.75"/>
      <line class="st3" x1="171.99" y1="99.21" x2="206.87" y2="99.21"/>
      <line class="st3" x1="102.21" y1="99.21" x2="137.1" y2="99.21"/>
      <line class="st3" x1="173.71" y1="16.35" x2="188.61" y2="16.35"/>
      <line class="st3" x1="188.61" y1="16.35" x2="188.61" y2="16.35"/>
      <line class="st3" x1="14.17" y1="51.3" x2="14.17" y2="51.24"/>
      <polyline class="st3" points="14.17 22.43 14.17 16.35 34.16 16.35 49.06 16.35"/>
      <line class="st3" x1="14.17" y1="34.65" x2="14.17" y2="51.24"/>
      <line class="st3" x1="14.17" y1="69.6" x2="14.17" y2="57.38"/>
      <line class="st3" x1="188.61" y1="16.35" x2="208.6" y2="16.35"/>
      <line class="st3" x1="223.5" y1="16.35" x2="223.5" y2="16.35"/>
      <line class="st3" x1="14.17" y1="57.38" x2="14.17" y2="51.3"/>
      <line class="st3" x1="102.21" y1="99.21" x2="67.32" y2="99.21"/>
      <polyline class="st3" points="14.17 92.33 14.17 99.21 32.43 99.21"/>
      <line class="st3" x1="171.99" y1="99.21" x2="137.1" y2="99.21"/>
      <path class="st3" d="M34.16,16.35"/>
      <polyline class="st3" points="240.95 87.1 240.95 99.21 206.87 99.21"/>
      <line class="st3" x1="14.17" y1="34.65" x2="14.17" y2="22.43"/>
      <line class="st3" x1="240.95" y1="17.2" x2="240.95" y2="33.8"/>
      <line class="st3" x1="240.95" y1="52.15" x2="240.95" y2="68.75"/>
      <line class="st3" x1="83.95" y1="16.35" x2="83.95" y2="16.35"/>
      <line class="st3" x1="138.82" y1="16.35" x2="118.84" y2="16.35"/>
      <line class="st3" x1="153.73" y1="16.35" x2="153.73" y2="16.35"/>
      <line class="st3" x1="223.5" y1="16.35" x2="208.6" y2="16.35"/>
      <line class="st3" x1="118.84" y1="16.35" x2="103.94" y2="16.35"/>
      <polyline class="st3" points="240.95 17.2 240.95 16.35 223.5 16.35"/>
      <line class="st3" x1="69.05" y1="16.35" x2="49.06" y2="16.35"/>
      <line class="st3" x1="118.84" y1="16.35" x2="118.84" y2="16.35"/>
      <line class="st3" x1="173.71" y1="16.35" x2="153.73" y2="16.35"/>
      <line class="st3" x1="138.82" y1="16.35" x2="153.73" y2="16.35"/>
      <line class="st3" x1="83.95" y1="16.35" x2="69.05" y2="16.35"/>
      <line class="st3" x1="83.95" y1="16.35" x2="103.94" y2="16.35"/>
      <line class="st3" x1="49.06" y1="16.35" x2="49.06" y2="16.35"/>
    </g>
  </g>
</svg>