<?xml version="1.0" encoding="UTF-8"?>
<svg xmlns="http://www.w3.org/2000/svg" version="1.1" viewBox="0 0 4827.4 1763.86">
  <!-- Generator: Adobe Illustrator 29.1.0, SVG Export Plug-In . SVG Version: 2.1.0 Build 142)  -->
  <defs>
    <style>
      .st0 {
        stroke-width: .2px;
      }

      .st0, .st1 {
        stroke-miterlimit: 10;
      }

      .st0, .st1, .st2 {
        fill: none;
        stroke: #1d1d1b;
      }

      .st3 {
        fill: #1d1d1b;
      }

      .st1, .st2 {
        stroke-width: 12px;
      }

      .st2 {
        stroke-linecap: round;
        stroke-linejoin: round;
      }

      .st4 {
        display: none;
      }
    </style>
  </defs>
  <g id="_x37_5" class="st4">
    <path class="st2" d="M185.67,0S46.42-92.83,46.42-139.25s278.5-417.76,278.5-464.17-139.25-139.25-139.25-139.25"/>
    <path class="st2" d="M928.35,0s-139.25-92.83-139.25-139.25,278.5-417.76,278.5-464.17-139.25-139.25-139.25-139.25"/>
    <path class="st2" d="M557.01,0s139.25-92.83,139.25-139.25-278.5-417.76-278.5-464.17,139.25-139.25,139.25-139.25"/>
    <path class="st2" d="M928.35,0s-92.83,139.25-139.25,139.25S371.34-139.25,324.92-139.25,185.67,0,185.67,0"/>
    <path class="st2" d="M928.35-742.68s-92.83,139.25-139.25,139.25-417.76-278.5-464.17-278.5-139.25,139.25-139.25,139.25"/>
    <path class="st2" d="M928.35-371.34s-92.83-139.25-139.25-139.25S371.34-232.09,324.92-232.09s-139.25-139.25-139.25-139.25"/>
    <path class="st2" d="M1671.02,0s-139.25-92.83-139.25-139.25,278.5-417.76,278.5-464.17-139.25-139.25-139.25-139.25"/>
    <path class="st2" d="M1299.68,0s139.25-92.83,139.25-139.25-278.5-417.76-278.5-464.17,139.25-139.25,139.25-139.25"/>
    <path class="st2" d="M1671.02,0s-92.83,139.25-139.25,139.25-417.76-278.5-464.17-278.5S928.35,0,928.35,0"/>
    <path class="st2" d="M1671.02-742.68s-92.83,139.25-139.25,139.25-417.76-278.5-464.17-278.5-139.25,139.25-139.25,139.25"/>
    <path class="st2" d="M1671.02-371.34s-92.83-139.25-139.25-139.25-417.76,278.5-464.17,278.5-139.25-139.25-139.25-139.25"/>
    <path class="st2" d="M2413.7,0s-139.25-92.83-139.25-139.25,278.5-417.76,278.5-464.17-139.25-139.25-139.25-139.25"/>
    <path class="st2" d="M2042.36,0s139.25-92.83,139.25-139.25-278.5-417.76-278.5-464.17,139.25-139.25,139.25-139.25"/>
    <path class="st2" d="M2413.7,0s-92.83,139.25-139.25,139.25-417.76-278.5-464.17-278.5S1671.02,0,1671.02,0"/>
    <path class="st2" d="M2413.7-742.68s-92.83,139.25-139.25,139.25-417.76-278.5-464.17-278.5-139.25,139.25-139.25,139.25"/>
    <path class="st2" d="M2413.7-371.34s-92.83-139.25-139.25-139.25-417.76,278.5-464.17,278.5-139.25-139.25-139.25-139.25"/>
    <path class="st2" d="M3156.38,0s-139.25-92.83-139.25-139.25,278.5-417.76,278.5-464.17-139.25-139.25-139.25-139.25"/>
    <path class="st2" d="M2785.04,0s139.25-92.83,139.25-139.25-278.5-417.76-278.5-464.17,139.25-139.25,139.25-139.25"/>
    <path class="st2" d="M3156.38,0s-92.83,139.25-139.25,139.25-417.76-278.5-464.17-278.5S2413.7,0,2413.7,0"/>
    <path class="st2" d="M3156.38-742.68s-92.83,139.25-139.25,139.25-417.76-278.5-464.17-278.5-139.25,139.25-139.25,139.25"/>
    <path class="st2" d="M3156.38-371.34s-92.83-139.25-139.25-139.25-417.76,278.5-464.17,278.5-139.25-139.25-139.25-139.25"/>
    <path class="st2" d="M3899.06,0s-139.25-92.83-139.25-139.25,278.5-417.76,278.5-464.17-139.25-139.25-139.25-139.25"/>
    <path class="st2" d="M3527.72,0s139.25-92.83,139.25-139.25-278.5-417.76-278.5-464.17,139.25-139.25,139.25-139.25"/>
    <path class="st2" d="M3899.06,0s-92.83,139.25-139.25,139.25-417.76-278.5-464.17-278.5S3156.38,0,3156.38,0"/>
    <path class="st2" d="M3899.06-742.68s-92.83,139.25-139.25,139.25-417.76-278.5-464.17-278.5-139.25,139.25-139.25,139.25"/>
    <path class="st2" d="M3899.06-371.34s-92.83-139.25-139.25-139.25-417.76,278.5-464.17,278.5-139.25-139.25-139.25-139.25"/>
    <path class="st2" d="M185.67,742.68s-139.25-92.83-139.25-139.25S324.92,185.67,324.92,139.25,185.67,0,185.67,0"/>
    <path class="st2" d="M928.35,742.68s-139.25-92.83-139.25-139.25,278.5-417.76,278.5-464.17S928.35,0,928.35,0"/>
    <path class="st2" d="M557.01,742.68s139.25-92.83,139.25-139.25S417.76,185.67,417.76,139.25,557.01,0,557.01,0"/>
    <path class="st2" d="M928.35,742.68s-92.83,139.25-139.25,139.25-417.76-278.5-464.17-278.5-139.25,139.25-139.25,139.25"/>
    <path class="st2" d="M928.35,371.34s-92.83-139.25-139.25-139.25-417.76,278.5-464.17,278.5-139.25-139.25-139.25-139.25"/>
    <path class="st2" d="M1671.02,742.68s-139.25-92.83-139.25-139.25,278.5-417.76,278.5-464.17S1671.02,0,1671.02,0"/>
    <path class="st2" d="M1299.68,742.68s139.25-92.83,139.25-139.25-278.5-417.76-278.5-464.17S1299.68,0,1299.68,0"/>
    <path class="st2" d="M1671.02,742.68s-92.83,139.25-139.25,139.25-417.76-278.5-464.17-278.5-139.25,139.25-139.25,139.25"/>
    <path class="st2" d="M1671.02,371.34s-92.83-139.25-139.25-139.25-417.76,278.5-464.17,278.5-139.25-139.25-139.25-139.25"/>
    <path class="st2" d="M2413.7,742.68s-139.25-92.83-139.25-139.25,278.5-417.76,278.5-464.17S2413.7,0,2413.7,0"/>
    <path class="st2" d="M2042.36,742.68s139.25-92.83,139.25-139.25-278.5-417.76-278.5-464.17S2042.36,0,2042.36,0"/>
    <path class="st2" d="M2413.7,742.68s-92.83,139.25-139.25,139.25-417.76-278.5-464.17-278.5-139.25,139.25-139.25,139.25"/>
    <path class="st2" d="M2413.7,371.34s-92.83-139.25-139.25-139.25-417.76,278.5-464.17,278.5-139.25-139.25-139.25-139.25"/>
    <path class="st2" d="M3156.38,742.68s-139.25-92.83-139.25-139.25,278.5-417.76,278.5-464.17S3156.38,0,3156.38,0"/>
    <path class="st2" d="M2785.04,742.68s139.25-92.83,139.25-139.25-278.5-417.76-278.5-464.17S2785.04,0,2785.04,0"/>
    <path class="st2" d="M3156.38,742.68s-92.83,139.25-139.25,139.25-417.76-278.5-464.17-278.5-139.25,139.25-139.25,139.25"/>
    <path class="st2" d="M3156.38,371.34s-92.83-139.25-139.25-139.25-417.76,278.5-464.17,278.5-139.25-139.25-139.25-139.25"/>
    <path class="st2" d="M3899.06,742.68s-139.25-92.83-139.25-139.25,278.5-417.76,278.5-464.17S3899.06,0,3899.06,0"/>
    <path class="st2" d="M3527.72,742.68s139.25-92.83,139.25-139.25-278.5-417.76-278.5-464.17S3527.72,0,3527.72,0"/>
    <path class="st2" d="M3899.06,742.68s-92.83,139.25-139.25,139.25-417.76-278.5-464.17-278.5-139.25,139.25-139.25,139.25"/>
    <path class="st2" d="M3899.06,371.34s-92.83-139.25-139.25-139.25-417.76,278.5-464.17,278.5-139.25-139.25-139.25-139.25"/>
    <path class="st2" d="M185.67,1485.35s-139.25-92.83-139.25-139.25,278.5-417.76,278.5-464.17-139.25-139.25-139.25-139.25"/>
    <path class="st2" d="M928.35,1485.35s-139.25-92.83-139.25-139.25,278.5-417.76,278.5-464.17-139.25-139.25-139.25-139.25"/>
    <path class="st2" d="M557.01,1485.35s139.25-92.83,139.25-139.25-278.5-417.76-278.5-464.17,139.25-139.25,139.25-139.25"/>
    <path class="st2" d="M928.35,1485.35s-92.83,139.25-139.25,139.25-417.76-278.5-464.17-278.5-139.25,139.25-139.25,139.25"/>
    <path class="st2" d="M928.35,1114.02s-92.83-139.25-139.25-139.25-417.76,278.5-464.17,278.5-139.25-139.25-139.25-139.25"/>
    <path class="st2" d="M1671.02,1485.35s-139.25-92.83-139.25-139.25,278.5-417.76,278.5-464.17-139.25-139.25-139.25-139.25"/>
    <path class="st2" d="M1299.68,1485.35s139.25-92.83,139.25-139.25-278.5-417.76-278.5-464.17,139.25-139.25,139.25-139.25"/>
    <path class="st2" d="M1671.02,1485.35s-92.83,139.25-139.25,139.25-417.76-278.5-464.17-278.5-139.25,139.25-139.25,139.25"/>
    <path class="st2" d="M1671.02,1114.02s-92.83-139.25-139.25-139.25-417.76,278.5-464.17,278.5-139.25-139.25-139.25-139.25"/>
    <path class="st2" d="M2413.7,1485.35s-139.25-92.83-139.25-139.25,278.5-417.76,278.5-464.17-139.25-139.25-139.25-139.25"/>
    <path class="st2" d="M2042.36,1485.35s139.25-92.83,139.25-139.25-278.5-417.76-278.5-464.17,139.25-139.25,139.25-139.25"/>
    <path class="st2" d="M2413.7,1485.35s-92.83,139.25-139.25,139.25-417.76-278.5-464.17-278.5-139.25,139.25-139.25,139.25"/>
    <path class="st2" d="M2413.7,1114.02s-92.83-139.25-139.25-139.25-417.76,278.5-464.17,278.5-139.25-139.25-139.25-139.25"/>
    <path class="st2" d="M3156.38,1485.35s-139.25-92.83-139.25-139.25,278.5-417.76,278.5-464.17-139.25-139.25-139.25-139.25"/>
    <path class="st2" d="M2785.04,1485.35s139.25-92.83,139.25-139.25-278.5-417.76-278.5-464.17,139.25-139.25,139.25-139.25"/>
    <path class="st2" d="M3156.38,1485.35s-92.83,139.25-139.25,139.25-417.76-278.5-464.17-278.5-139.25,139.25-139.25,139.25"/>
    <path class="st2" d="M3156.38,1114.02s-92.83-139.25-139.25-139.25-417.76,278.5-464.17,278.5-139.25-139.25-139.25-139.25"/>
    <path class="st2" d="M3899.06,1485.35s-139.25-92.83-139.25-139.25,278.5-417.76,278.5-464.17-139.25-139.25-139.25-139.25"/>
    <path class="st2" d="M3527.72,1485.35s139.25-92.83,139.25-139.25-278.5-417.76-278.5-464.17,139.25-139.25,139.25-139.25"/>
    <path class="st2" d="M3899.06,1485.35s-92.83,139.25-139.25,139.25-417.76-278.5-464.17-278.5-139.25,139.25-139.25,139.25"/>
    <path class="st2" d="M3899.06,1114.02s-92.83-139.25-139.25-139.25-417.76,278.5-464.17,278.5-139.25-139.25-139.25-139.25"/>
  </g>
  <g id="_x36_0" class="st4">
    <path class="st2" d="M992.01,1021.3c-44.84-95.22-321.6,185.67-428.78,0"/>
    <path class="st2" d="M1206.23,278.26c-44.84-95.22-321.6,185.67-428.78,0"/>
    <path class="st2" d="M1206.41,278.65"/>
    <path class="st2" d="M563.24,1021.32"/>
    <path class="st2" d="M992,1021.32c107.19,108.75,321.6,0,214.39-185.67"/>
    <path class="st2" d="M563.22,464.31c107.19,108.75,321.6,0,214.39-185.67"/>
    <path class="st2" d="M1206.39,278.64c-107.19,185.67-100.76,371.34,0,557.01"/>
    <path class="st2" d="M564.29,464.31c-107.19,185.67-100.76,371.34,0,557.01"/>
    <path class="st2" d="M348.77,1207.07c-44.84-95.22-321.6,185.67-428.78,0"/>
    <path class="st2" d="M562.99,464.03c-44.84-95.22-321.6,185.67-428.78,0"/>
    <path class="st2" d="M563.17,464.42"/>
    <path class="st2" d="M-80,1207.09"/>
    <path class="st2" d="M348.76,1207.09c107.19,108.75,321.6,0,214.39-185.67"/>
    <path class="st2" d="M-80.02,650.08c107.19,108.75,321.6,0,214.39-185.67"/>
    <path class="st2" d="M-78.95,650.08c-107.19,185.67-100.76,371.34,0,557.01"/>
    <path class="st2" d="M777.62,1763.97c-44.84-95.22-321.6,185.67-428.78,0"/>
    <path class="st2" d="M348.85,1763.98"/>
    <path class="st2" d="M777.62,1763.98c107.19,108.75,321.6,0,214.39-185.67"/>
    <path class="st2" d="M992.01,1021.3c-107.19,185.67-100.76,371.34,0,557.01"/>
    <path class="st2" d="M349.9,1206.97c-107.19,185.67-100.76,371.34,0,557.01"/>
    <path class="st2" d="M134.38,1949.73c-44.84-95.22-321.6,185.67-428.78,0"/>
    <path class="st2" d="M-294.39,1949.75"/>
    <path class="st2" d="M134.38,1949.75c107.19,108.75,321.6,0,214.39-185.67"/>
    <path class="st2" d="M-293.34,1392.74c-107.19,185.67-100.76,371.34,0,557.01"/>
    <path class="st2" d="M1419.52-464.51c-44.84-95.22-321.6,185.67-428.78,0"/>
    <path class="st2" d="M1419.71-464.12"/>
    <path class="st2" d="M1205.3,278.55c107.19,108.75,321.6,0,214.39-185.67"/>
    <path class="st2" d="M776.52-278.46c107.19,108.75,321.6,0,214.39-185.67"/>
    <path class="st2" d="M1419.69-464.13c-107.19,185.67-100.76,371.34,0,557.01"/>
    <path class="st2" d="M777.58-278.46c-107.19,185.67-100.76,371.34,0,557.01"/>
    <path class="st2" d="M776.28-278.74c-44.84-95.22-321.6,185.67-428.78,0"/>
    <path class="st2" d="M776.47-278.35"/>
    <path class="st2" d="M133.28-92.69c107.19,108.75,321.6,0,214.39-185.67"/>
    <path class="st2" d="M134.35-92.69c-107.19,185.67-100.76,371.34,0,557.01"/>
    <path class="st2" d="M2063.1,1392.53c-44.84-95.22-321.6,185.67-428.78,0"/>
    <path class="st2" d="M2277.33,649.48c-44.84-95.22-321.6,185.67-428.78,0"/>
    <path class="st2" d="M2277.51,649.87"/>
    <path class="st2" d="M1634.33,1392.55"/>
    <path class="st2" d="M2063.1,1392.55c107.19,108.75,321.6,0,214.39-185.67"/>
    <path class="st2" d="M1634.32,835.54c107.19,108.75,321.6,0,214.39-185.67"/>
    <path class="st2" d="M2277.49,649.87c-107.19,185.67-100.76,371.34,0,557.01"/>
    <path class="st2" d="M1635.39,835.54c-107.19,185.67-100.75,371.34,0,557.01"/>
    <path class="st2" d="M1419.87,1578.3c-44.84-95.22-321.6,185.67-428.78,0"/>
    <path class="st2" d="M1634.09,835.25c-44.84-95.23-321.6,185.67-428.78,0"/>
    <path class="st2" d="M1634.27,835.64"/>
    <path class="st2" d="M991.1,1578.31"/>
    <path class="st2" d="M1419.86,1578.31c107.19,108.75,321.6,0,214.39-185.67"/>
    <path class="st2" d="M992.15,1021.3c-107.19,185.67-100.76,371.34,0,557.01"/>
    <path class="st2" d="M1848.72,2135.19c-44.84-95.22-321.6,185.67-428.78,0"/>
    <path class="st2" d="M1419.95,2135.21"/>
    <path class="st2" d="M1848.72,2135.21c107.19,108.75,321.6,0,214.39-185.67"/>
    <path class="st2" d="M2063.1,1392.53c-107.19,185.67-100.75,371.34,0,557.01"/>
    <path class="st2" d="M1421,1578.2c-107.19,185.67-100.75,371.34,0,557.01"/>
    <path class="st2" d="M1205.48,2320.96c-44.84-95.22-321.6,185.67-428.78,0"/>
    <path class="st2" d="M1659.51,1949.75"/>
    <path class="st2" d="M1205.48,2320.97c107.19,108.75,321.6,0,214.39-185.67"/>
    <path class="st2" d="M777.76,1763.97c-107.19,185.67-100.76,371.34,0,557.01"/>
    <path class="st2" d="M2490.62-93.29c-44.84-95.22-321.6,185.67-428.78,0"/>
    <path class="st2" d="M3373.61-464.12"/>
    <path class="st2" d="M2276.4,649.77c107.19,108.75,321.6,0,214.39-185.67"/>
    <path class="st2" d="M1847.62,92.77c107.19,108.75,321.6,0,214.39-185.67"/>
    <path class="st2" d="M2061.93-649.42c-107.19,185.67-100.75,371.34,0,557.01"/>
    <path class="st2" d="M1848.68,92.77c-107.19,185.67-100.76,371.34,0,557.01"/>
    <path class="st2" d="M1847.38,92.48c-44.84-95.22-321.6,185.67-428.78,0"/>
    <path class="st2" d="M1847.57,92.87"/>
    <path class="st2" d="M3349.12,1020.88c-44.84-95.22-321.6,185.67-428.78,0"/>
    <path class="st2" d="M3563.34,277.84c-44.84-95.22-321.6,185.67-428.78,0"/>
    <path class="st2" d="M3563.52,278.23"/>
    <path class="st2" d="M2920.35,1020.9"/>
    <path class="st2" d="M3349.12,1020.9c107.19,108.75,321.6,0,214.39-185.67"/>
    <path class="st2" d="M2920.34,463.89c107.19,108.75,321.6,0,214.39-185.67"/>
    <path class="st2" d="M3563.51,278.22c-107.2,185.67-100.76,371.34,0,557.01"/>
    <path class="st2" d="M2921.4,463.89c-107.19,185.67-100.75,371.34,0,557.01"/>
    <path class="st2" d="M2705.88,1206.65c-44.84-95.22-321.6,185.67-428.78,0"/>
    <path class="st2" d="M2920.1,463.6c-44.84-95.22-321.6,185.67-428.78,0"/>
    <path class="st2" d="M2920.28,463.99"/>
    <path class="st2" d="M2277.11,1206.66"/>
    <path class="st2" d="M2705.88,1206.66c107.19,108.75,321.6,0,214.39-185.67"/>
    <path class="st2" d="M3134.73,1763.54c-44.84-95.22-321.6,185.67-428.78,0"/>
    <path class="st2" d="M2705.96,1763.56"/>
    <path class="st2" d="M3134.73,1763.56c107.19,108.75,321.6,0,214.39-185.67"/>
    <path class="st2" d="M3349.12,1020.88c-107.19,185.67-100.75,371.34,0,557.01"/>
    <path class="st2" d="M2707.01,1206.55c-107.19,185.67-100.76,371.34,0,557.01"/>
    <path class="st2" d="M2491.49,1949.31c-44.84-95.22-321.6,185.67-428.78,0"/>
    <path class="st2" d="M2062.72,1949.33"/>
    <path class="st2" d="M2491.49,1949.33c107.19,108.75,321.6,0,214.39-185.67"/>
    <path class="st2" d="M3776.64-464.94c-44.84-95.22-321.6,185.67-428.78,0"/>
    <path class="st2" d="M3776.82-464.55"/>
    <path class="st2" d="M3562.42,278.13c107.19,108.75,321.6,0,214.39-185.67"/>
    <path class="st2" d="M3133.63-278.88c107.19,108.75,321.6,0,214.39-185.67"/>
    <path class="st2" d="M3776.8-464.55c-107.19,185.67-100.76,371.34,0,557.01"/>
    <path class="st2" d="M3134.7-278.88c-107.2,185.67-100.76,371.34,0,557.01"/>
    <path class="st2" d="M3133.4-279.17c-44.84-95.22-321.6,185.67-428.78,0"/>
    <path class="st2" d="M3133.58-278.78"/>
    <path class="st2" d="M2490.4-93.11c107.19,108.75,321.6,0,214.39-185.67"/>
    <path class="st2" d="M2491.46-93.11c-107.2,185.67-100.76,371.34,0,557.01"/>
    <path class="st2" d="M4420.22,1392.1c-44.84-95.22-321.6,185.67-428.78,0"/>
    <path class="st2" d="M4634.44,649.06c-44.84-95.22-321.6,185.67-428.78,0"/>
    <path class="st2" d="M4634.62,649.45"/>
    <path class="st2" d="M3991.45,1392.12"/>
    <path class="st2" d="M4420.22,1392.12c107.19,108.75,321.6,0,214.39-185.67"/>
    <path class="st2" d="M3991.44,835.11c107.19,108.75,321.6,0,214.39-185.67"/>
    <path class="st2" d="M4634.61,649.44c-107.2,185.67-100.76,371.34,0,557.01"/>
    <path class="st2" d="M3992.5,835.11c-107.19,185.67-100.75,371.34,0,557.01"/>
    <path class="st2" d="M3776.98,1577.87c-44.84-95.22-321.6,185.67-428.78,0"/>
    <path class="st2" d="M3991.2,834.83c-44.84-95.22-321.6,185.67-428.78,0"/>
    <path class="st2" d="M3991.38,835.22"/>
    <path class="st2" d="M3348.21,1577.89"/>
    <path class="st2" d="M3776.98,1577.89c107.19,108.75,321.6,0,214.39-185.67"/>
    <path class="st2" d="M3349.26,1020.88c-107.2,185.67-100.76,371.34,0,557.01"/>
    <path class="st2" d="M4205.83,2134.77c-44.84-95.22-321.6,185.67-428.78,0"/>
    <path class="st2" d="M3777.06,2134.78"/>
    <path class="st2" d="M4205.83,2134.78c107.19,108.75,321.6,0,214.39-185.67"/>
    <path class="st2" d="M4420.22,1392.1c-107.19,185.67-100.75,371.34,0,557.01"/>
    <path class="st2" d="M3778.11,1577.77c-107.19,185.67-100.76,371.34,0,557.01"/>
    <path class="st2" d="M3562.59,2320.53c-44.84-95.22-321.6,185.67-428.78,0"/>
    <path class="st2" d="M4016.62,1949.33"/>
    <path class="st2" d="M3562.59,2320.55c107.19,108.75,321.6,0,214.39-185.67"/>
    <path class="st2" d="M3134.87,1763.54c-107.2,185.67-100.76,371.34,0,557.01"/>
    <path class="st2" d="M4847.74-93.71c-44.84-95.22-321.6,185.67-428.78,0"/>
    <path class="st2" d="M5730.72-464.55"/>
    <path class="st2" d="M4633.52,649.35c107.19,108.75,321.6,0,214.39-185.67"/>
    <path class="st2" d="M4204.73,92.34c107.19,108.75,321.6,0,214.39-185.67"/>
    <path class="st2" d="M4419.05-649.84c-107.19,185.67-100.76,371.34,0,557.01"/>
    <path class="st2" d="M4205.8,92.34c-107.2,185.67-100.76,371.34,0,557.01"/>
    <path class="st2" d="M4204.5,92.06c-44.84-95.22-321.6,185.67-428.78,0"/>
    <path class="st2" d="M4204.68,92.45"/>
  </g>
  <g id="_x36_0_x5F_rein" class="st4">
    <g>
      <path class="st2" d="M563.23,1021.31c107.18,185.66,383.94-95.23,428.78,0"/>
      <path class="st2" d="M777.44,278.27c107.18,185.66,383.94-95.23,428.78,0"/>
      <path class="st2" d="M992,1021.32s.06.06.09.09"/>
      <path class="st2" d="M1212.1,846.05c93.44,179.23-114.81,281.92-220.01,175.36"/>
      <path class="st2" d="M1212.1,846.05c-1.79-3.44-3.68-6.9-5.7-10.4"/>
      <path class="st2" d="M777.62,278.64c106.98,185.28-106.3,293.95-213.71,186.34"/>
      <path class="st2" d="M563.9,464.99c-.23-.23-.46-.45-.68-.67"/>
      <path class="st2" d="M1206.03,279.28c.12-.21.24-.42.36-.63"/>
      <path class="st2" d="M1206.39,835.65c-100.64-185.46-107.17-370.92-.36-556.38"/>
      <path class="st2" d="M563.9,464.99c.13-.22.25-.45.38-.67"/>
      <path class="st2" d="M563.9,464.99c-106.79,185.44-100.25,370.89.38,556.33"/>
      <path class="st2" d="M185.67,1229.49c76.78-32.45,143.07-64.94,163.1-22.41"/>
      <path class="st2" d="M185.67,515.66c125.96,65.28,338.51-134.05,377.32-51.63"/>
      <path class="st2" d="M563.16,1021.42c106.98,185.28-106.3,293.95-213.71,186.35"/>
      <path class="st2" d="M348.76,1207.09c.23.23.46.45.68.68"/>
      <path class="st2" d="M992.01,1578.31c2.13,3.7,4.13,7.36,6.01,10.99"/>
      <path class="st2" d="M998.02,1589.3c15.29,29.52,22.41,56.96,23.14,81.72"/>
      <path class="st2" d="M992.01,1021.3c-107.19,185.67-100.76,371.34,0,557.01"/>
      <path class="st2" d="M349.45,1207.77c.15-.26.3-.53.45-.79"/>
      <path class="st2" d="M349.45,1207.77c-88.88,154.42-99.18,308.84-42.01,463.25"/>
      <path class="st2" d="M1206.03,279.28c105.4,105.49,312.6,2.88,219.36-175.99"/>
      <path class="st2" d="M1206.03,279.28c-.24-.24-.49-.48-.73-.73"/>
      <path class="st2" d="M1425.4,103.29c-1.79-3.44-3.69-6.91-5.71-10.41"/>
      <path class="st2" d="M1377.26,0c11.47,30.96,25.63,61.92,42.43,92.88"/>
      <path class="st2" d="M777.59,278.55C727.2,185.7,700.4,92.85,699.6,0"/>
      <path class="st2" d="M1634.32,1392.54c107.18,185.66,383.94-95.23,428.78,0"/>
      <path class="st2" d="M1848.54,649.49c107.18,185.66,383.94-95.23,428.78,0"/>
      <path class="st2" d="M2280.66,1212.53c-1.03-1.88-2.07-3.76-3.17-5.65"/>
      <path class="st2" d="M2280.66,1212.53c99.67,182.21-111.47,287.66-217.56,180.02"/>
      <path class="st2" d="M1635,836.21c-.23-.23-.46-.45-.68-.67"/>
      <path class="st2" d="M1848.71,649.87c106.98,185.28-106.3,293.95-213.71,186.35"/>
      <path class="st2" d="M2277.13,650.5c.12-.21.24-.42.36-.63"/>
      <path class="st2" d="M2277.49,1206.88c-100.64-185.46-107.17-370.92-.36-556.38"/>
      <path class="st2" d="M1635.39,835.54c-.13.22-.25.45-.38.67"/>
      <path class="st2" d="M1635,836.21c-106.79,185.44-100.25,370.89.38,556.33"/>
      <path class="st2" d="M1419.87,1578.3c-43.9-93.24-310.15,174.09-421.85,11.01"/>
      <path class="st2" d="M998.02,1589.3c-2.38-3.47-4.7-7.13-6.93-11"/>
      <path class="st2" d="M1212.1,846.05c-2.33-3.41-4.6-6.99-6.79-10.79"/>
      <path class="st2" d="M1212.1,846.05c111.62,163.52,378.07-104.07,421.99-10.8"/>
      <path class="st2" d="M1634.26,1392.64c106.98,185.28-106.3,293.95-213.71,186.35"/>
      <path class="st2" d="M1420.55,1578.99c-.23-.23-.46-.45-.69-.68"/>
      <path class="st2" d="M992.15,1021.3s-.04.07-.06.1"/>
      <path class="st2" d="M992.09,1021.41c-107.13,185.64-100.68,371.27.06,556.91"/>
      <path class="st2" d="M2063.1,1392.53c-53.6,92.83-78.78,185.66-77.98,278.49"/>
      <path class="st2" d="M1421,1578.2c-.15.26-.3.53-.45.79"/>
      <path class="st2" d="M1420.55,1578.99c-17.66,30.68-32.2,61.35-43.75,92.03"/>
      <path class="st2" d="M2490.79,464.11c106.96,185.25-106.23,293.92-213.66,186.4"/>
      <path class="st2" d="M2277.13,650.5c-.24-.24-.49-.48-.73-.73"/>
      <path class="st2" d="M1848.3,93.44C1936.12,181.42,2094.69,124.83,2091.16,0"/>
      <path class="st2" d="M1848.3,93.44c-.23-.23-.46-.45-.68-.68"/>
      <path class="st2" d="M1848.3,93.44c.13-.23.25-.45.38-.67"/>
      <path class="st2" d="M1848.69,649.77c-100.63-185.45-107.17-370.89-.38-556.33"/>
      <path class="st2" d="M1425.4,103.29c111.62,163.5,378.06-104.08,421.98-10.81"/>
      <path class="st2" d="M1425.4,103.29c-2.33-3.42-4.6-7-6.8-10.8"/>
      <path class="st2" d="M2920.34,1020.89c107.18,185.66,383.94-95.23,428.78,0"/>
      <path class="st2" d="M3134.56,277.84c107.18,185.66,383.94-95.23,428.78,0"/>
      <path class="st2" d="M3569.21,845.63c93.43,179.23-114.81,281.91-220.01,175.35"/>
      <path class="st2" d="M3349.12,1020.9s.06.06.09.09"/>
      <path class="st2" d="M3569.21,845.63c-1.79-3.44-3.68-6.91-5.7-10.4"/>
      <path class="st2" d="M3134.73,278.22c106.98,185.28-106.3,293.95-213.71,186.34"/>
      <path class="st2" d="M2921.02,464.56c-.23-.23-.46-.45-.68-.67"/>
      <path class="st2" d="M3563.51,835.23c-100.64-185.46-107.17-370.92-.36-556.38"/>
      <path class="st2" d="M3563.15,278.85c.12-.21.24-.42.36-.63"/>
      <path class="st2" d="M2921.02,464.56c.13-.22.25-.45.38-.67"/>
      <path class="st2" d="M2921.02,464.56c-106.79,185.44-100.25,370.89.38,556.33"/>
      <path class="st2" d="M2280.66,1212.53c-1.21-1.91-2.4-3.85-3.56-5.87"/>
      <path class="st2" d="M2280.66,1212.53c109.62,173.7,380.87-100.07,425.22-5.88"/>
      <path class="st2" d="M2491.32,463.61c107.18,185.66,383.94-95.23,428.78,0"/>
      <path class="st2" d="M2705.88,1206.66c.23.23.46.45.68.68"/>
      <path class="st2" d="M2920.27,1021c106.98,185.28-106.3,293.95-213.71,186.35"/>
      <path class="st2" d="M3349.12,1577.89c2.13,3.7,4.12,7.36,6.01,10.99"/>
      <path class="st2" d="M3355.13,1588.88c15.38,29.69,22.49,57.28,23.15,82.15"/>
      <path class="st2" d="M3349.12,1020.88c-107.19,185.67-100.75,371.34,0,557.01"/>
      <path class="st2" d="M2706.56,1207.34c-88.96,154.56-99.19,309.12-41.85,463.68"/>
      <path class="st2" d="M2706.56,1207.34c.15-.26.3-.53.45-.79"/>
      <path class="st2" d="M3782.51,102.85c-1.79-3.44-3.68-6.9-5.7-10.4"/>
      <path class="st2" d="M3563.15,278.85c-.24-.24-.49-.48-.73-.73"/>
      <path class="st2" d="M3563.15,278.85c105.4,105.5,312.6,2.87,219.36-176"/>
      <path class="st2" d="M3734.53,0c11.44,30.82,25.55,61.64,42.27,92.46"/>
      <path class="st2" d="M3134.7,278.13C3084.39,185.42,3057.6,92.71,3056.72,0"/>
      <path class="st2" d="M2491.46,463.89C2407.55,309.26,2389.07,154.63,2447.15,0"/>
      <path class="st2" d="M3991.44,1392.11c24.06,41.68,56.67,59.84,93.29,64.02"/>
      <path class="st2" d="M3992.12,835.79c26.55,26.6,59.56,39.99,92.61,42.27"/>
      <path class="st2" d="M3992.12,835.79c-.23-.23-.46-.45-.68-.67"/>
      <path class="st2" d="M3992.12,835.79c.13-.22.25-.45.38-.67"/>
      <path class="st2" d="M3992.12,835.79c-106.79,185.44-100.25,370.89.38,556.33"/>
      <path class="st2" d="M3776.98,1577.87c-43.9-93.24-310.15,174.09-421.85,11"/>
      <path class="st2" d="M3355.13,1588.88c-2.38-3.47-4.7-7.13-6.93-11"/>
      <path class="st2" d="M3569.21,845.63c-2.33-3.41-4.6-7-6.79-10.79"/>
      <path class="st2" d="M3569.21,845.63c111.62,163.51,378.07-104.08,421.99-10.8"/>
      <path class="st2" d="M3991.37,1392.22c106.98,185.28-106.3,293.95-213.71,186.35"/>
      <path class="st2" d="M3777.66,1578.57c-.23-.23-.46-.45-.68-.68"/>
      <path class="st2" d="M3349.2,1020.98c-107.13,185.63-100.68,371.27.06,556.91"/>
      <path class="st2" d="M3349.26,1020.88s-.04.07-.06.1"/>
      <path class="st2" d="M3778.11,1577.77c-.15.26-.3.53-.45.79"/>
      <path class="st2" d="M3777.66,1578.57c-17.74,30.82-32.34,61.64-43.91,92.46"/>
      <path class="st2" d="M3782.51,102.85c70.62,103.46,203.21,34.36,302.22-6.76"/>
      <path class="st2" d="M3782.51,102.85c-2.33-3.41-4.6-6.99-6.79-10.79"/>
      <polyline class="st1" points="185.67 515.66 185.67 0 699.6 0"/>
      <line class="st1" x1="185.67" y1="1229.49" x2="185.67" y2="515.66"/>
      <line class="st1" x1="4084.72" y1="96.1" x2="4084.72" y2="878.05"/>
      <line class="st1" x1="1021.16" y1="1671.02" x2="1376.8" y2="1671.02"/>
      <line class="st1" x1="3378.28" y1="1671.02" x2="3733.76" y2="1671.02"/>
      <polyline class="st1" points="4084.72 1456.13 4084.72 1671.02 3733.76 1671.02"/>
      <line class="st1" x1="307.44" y1="1671.02" x2="1021.16" y2="1671.02"/>
      <line class="st1" x1="699.6" y1="0" x2="1377.26" y2="0"/>
      <line class="st1" x1="1376.8" y1="1671.02" x2="1985.12" y2="1671.02"/>
      <line class="st1" x1="2664.71" y1="1671.02" x2="1985.12" y2="1671.02"/>
      <line class="st1" x1="2091.16" y1="0" x2="1377.26" y2="0"/>
      <line class="st1" x1="2091.16" y1="0" x2="2447.15" y2="0"/>
      <line class="st1" x1="2447.15" y1="0" x2="3056.72" y2="0"/>
      <polyline class="st1" points="4084.72 96.1 4084.72 0 3734.53 0"/>
      <line class="st1" x1="4084.72" y1="878.05" x2="4084.72" y2="1456.13"/>
      <line class="st1" x1="2664.71" y1="1671.02" x2="3378.28" y2="1671.02"/>
      <polyline class="st1" points="185.67 1229.49 185.67 1671.02 307.44 1671.02"/>
      <line class="st1" x1="3056.72" y1="0" x2="3734.53" y2="0"/>
    </g>
  </g>
  <g id="Rahmen" class="st4">
    <rect class="st1" x="185.67" y="0" width="3899.05" height="1671.02"/>
  </g>
  <g id="_x36_0_Kopie" class="st4">
    <g>
      <path class="st1" d="M656.06,1002.62c107.18,185.66,383.94-95.23,428.78,0"/>
      <path class="st1" d="M870.28,259.57c107.18,185.66,383.94-95.23,428.78,0"/>
      <path class="st1" d="M1084.84,1002.63s.06.06.09.09"/>
      <path class="st1" d="M1304.93,827.36c93.44,179.24-114.81,281.92-220.01,175.36"/>
      <path class="st1" d="M1304.93,827.36c-1.79-3.44-3.68-6.9-5.7-10.4"/>
      <path class="st1" d="M656.74,446.3c-.23-.23-.46-.45-.68-.67"/>
      <path class="st1" d="M870.45,259.95c106.98,185.28-106.3,293.95-213.71,186.34"/>
      <path class="st1" d="M1298.87,260.58c.12-.21.24-.42.36-.63"/>
      <path class="st1" d="M1299.23,816.96c-100.64-185.46-107.17-370.92-.36-556.38"/>
      <path class="st1" d="M656.74,446.3c.13-.22.25-.45.38-.67"/>
      <path class="st1" d="M657.12,1002.63c-100.63-185.45-107.17-370.89-.38-556.33"/>
      <path class="st1" d="M441.6,1188.38c-44.84-95.22-321.6,185.67-428.78,0"/>
      <path class="st1" d="M655.82,445.34c-44.84-95.22-321.6,185.67-428.78,0"/>
      <path class="st1" d="M442.28,1189.08c-.23-.23-.46-.45-.68-.68"/>
      <path class="st1" d="M655.99,1002.73c106.98,185.28-106.3,293.95-213.71,186.35"/>
      <path class="st1" d="M227.21,445.72c106.98,185.28-106.3,293.95-213.71,186.34"/>
      <path class="st1" d="M13.5,632.06c-.23-.23-.46-.45-.68-.67"/>
      <path class="st1" d="M13.5,632.06c.13-.22.25-.45.38-.67"/>
      <path class="st1" d="M13.5,632.06c-11.47,19.91-21.63,39.83-30.51,59.74"/>
      <path class="st1" d="M13.88,1188.4c-11.55-21.29-21.85-42.58-30.89-63.86"/>
      <path class="st1" d="M1084.84,1002.61c-86.41,149.67-98.96,299.35-47.81,449.02"/>
      <path class="st1" d="M442.28,1189.08c-50.38,87.52-75.5,175.04-77.42,262.56"/>
      <path class="st1" d="M442.73,1188.28c-.15.26-.3.53-.45.79"/>
      <path class="st1" d="M1298.87,260.58c-.24-.24-.49-.48-.73-.73"/>
      <path class="st1" d="M1518.23,84.6c-1.79-3.44-3.69-6.91-5.71-10.41"/>
      <path class="st1" d="M1298.87,260.58c105.4,105.49,312.6,2.88,219.36-175.99"/>
      <path class="st1" d="M1482.19,11.63c8.91,20.85,19.02,41.7,30.34,62.56"/>
      <path class="st1" d="M870.42,259.86c-44.9-82.74-71.05-165.48-76.78-248.23"/>
      <path class="st1" d="M172.59,11.63c-45.15,144.66-23.91,289.33,54.59,433.99"/>
      <path class="st1" d="M2155.94,1373.84c-44.84-95.22-321.6,185.67-428.78,0"/>
      <path class="st1" d="M2370.16,630.79c-44.84-95.22-321.6,185.67-428.78,0"/>
      <path class="st1" d="M2373.5,1193.84c-1.03-1.88-2.07-3.76-3.17-5.65"/>
      <path class="st1" d="M2373.5,1193.84c99.67,182.21-111.47,287.66-217.56,180.02"/>
      <path class="st1" d="M1727.84,817.52c-.23-.23-.46-.45-.68-.67"/>
      <path class="st1" d="M1941.55,631.18c106.98,185.28-106.3,293.96-213.71,186.34"/>
      <path class="st1" d="M2369.97,631.81c-106.81,185.46-100.28,370.92.36,556.38"/>
      <path class="st1" d="M2370.33,631.18c-.12.21-.24.42-.36.63"/>
      <path class="st1" d="M1727.84,817.52c-106.79,185.44-100.25,370.89.38,556.33"/>
      <path class="st1" d="M1727.84,817.52c.13-.23.25-.45.38-.67"/>
      <path class="st1" d="M1304.93,827.36c-2.33-3.41-4.6-6.99-6.79-10.79"/>
      <path class="st1" d="M1304.93,827.36c111.62,163.52,378.07-104.07,421.99-10.8"/>
      <path class="st1" d="M1755.04,1451.63c-3.08-23.86-11.91-49.91-27.95-77.68"/>
      <path class="st1" d="M1084.98,1002.61s-.04.07-.06.1"/>
      <path class="st1" d="M1084.92,1002.71c-86.36,149.64-98.89,299.28-47.75,448.92"/>
      <path class="st1" d="M2117.63,1451.63c10.59-25.93,23.34-51.86,38.31-77.79"/>
      <path class="st1" d="M2369.97,631.81c107.43,107.52,320.62-1.15,213.66-186.4"/>
      <path class="st1" d="M2369.97,631.81c-.24-.24-.49-.48-.73-.73"/>
      <path class="st1" d="M1941.14,74.75c80.35,80.5,219.92,39.97,240.39-63.12"/>
      <path class="st1" d="M1941.14,74.75c-.23-.23-.46-.45-.68-.68"/>
      <path class="st1" d="M1941.14,74.75c.13-.23.25-.45.38-.67"/>
      <path class="st1" d="M1941.52,631.08c-100.63-185.45-107.17-370.89-.38-556.33"/>
      <path class="st1" d="M1518.23,84.6c111.62,163.5,378.06-104.08,421.98-10.81"/>
      <path class="st1" d="M1518.23,84.6c-2.33-3.42-4.6-7-6.8-10.8"/>
      <path class="st1" d="M3013.17,1002.2c107.18,185.66,383.94-95.23,428.78,0"/>
      <path class="st1" d="M3227.39,259.15c107.18,185.66,383.94-95.23,428.78,0"/>
      <path class="st1" d="M3662.05,826.94c-1.79-3.44-3.68-6.91-5.7-10.4"/>
      <path class="st1" d="M3662.05,826.94c93.43,179.23-114.81,281.91-220.01,175.36"/>
      <path class="st1" d="M3441.95,1002.21s.06.06.09.09"/>
      <path class="st1" d="M3227.56,259.53c106.98,185.28-106.3,293.95-213.71,186.34"/>
      <path class="st1" d="M3013.85,445.87c-.23-.23-.45-.45-.68-.67"/>
      <path class="st1" d="M3655.98,260.16c.12-.21.24-.42.36-.63"/>
      <path class="st1" d="M3655.98,260.16c-106.82,185.46-100.28,370.92.36,556.38"/>
      <path class="st1" d="M3013.85,445.87c.13-.22.25-.45.38-.67"/>
      <path class="st1" d="M3013.85,445.87c-106.79,185.44-100.25,370.89.38,556.33"/>
      <path class="st1" d="M2369.93,1187.96c1.17,2.02,2.36,3.96,3.56,5.87"/>
      <path class="st1" d="M2373.5,1193.84c109.62,173.7,380.87-100.07,425.22-5.88"/>
      <path class="st1" d="M3012.93,444.91c-44.84-95.22-321.6,185.67-428.78,0"/>
      <path class="st1" d="M3013.1,1002.3c106.98,185.28-106.3,293.95-213.71,186.35"/>
      <path class="st1" d="M2799.4,1188.65c-.23-.23-.46-.45-.68-.68"/>
      <path class="st1" d="M3441.95,1002.19c-86.49,149.81-98.99,299.63-47.66,449.44"/>
      <path class="st1" d="M2721.97,1451.63c1.84-87.66,26.97-175.32,77.42-262.98"/>
      <path class="st1" d="M2799.85,1187.86c-.15.26-.3.53-.45.79"/>
      <path class="st1" d="M3655.98,260.16c-.24-.24-.49-.48-.73-.73"/>
      <path class="st1" d="M3875.34,84.16c-1.79-3.44-3.68-6.9-5.7-10.4"/>
      <path class="st1" d="M3655.98,260.16c105.4,105.5,312.6,2.87,219.36-176"/>
      <path class="st1" d="M3839.48,11.63c8.87,20.71,18.92,41.42,30.16,62.13"/>
      <path class="st1" d="M3227.53,259.43c-44.82-82.6-70.96-165.2-76.75-247.8"/>
      <path class="st1" d="M2529.57,11.63c-44.97,144.52-23.7,289.04,54.72,433.57"/>
      <path class="st1" d="M4513.05,1373.41c-44.84-95.22-321.6,185.67-428.78,0"/>
      <path class="st1" d="M4298.49,630.37c80.62,139.66,257.19,15.33,358.83-14.33"/>
      <path class="st1" d="M4513.05,1373.43c40.5,41.09,96.29,51.12,144.27,37.7"/>
      <path class="st1" d="M4084.95,817.09c107.41,107.61,320.69-1.06,213.71-186.34"/>
      <path class="st1" d="M4084.95,817.09c-.23-.23-.46-.45-.68-.67"/>
      <path class="st1" d="M4084.95,817.09c.13-.22.25-.45.38-.67"/>
      <path class="st1" d="M4084.95,817.09c-106.79,185.45-100.25,370.89.38,556.33"/>
      <path class="st1" d="M3655.25,816.14c2.19,3.8,4.46,7.38,6.79,10.79"/>
      <path class="st1" d="M3662.05,826.94c111.62,163.52,378.07-104.08,421.99-10.8"/>
      <path class="st1" d="M4112.2,1451.63c-3.03-23.98-11.87-50.17-28-78.11"/>
      <path class="st1" d="M3442.1,1002.19s-.04.07-.06.1"/>
      <path class="st1" d="M3442.04,1002.29c-86.44,149.78-98.92,299.56-47.61,449.34"/>
      <path class="st1" d="M4474.56,1451.63c10.62-26.07,23.44-52.15,38.49-78.22"/>
      <path class="st1" d="M4297.57,73.65c.23.23.46.45.68.68"/>
      <path class="st1" d="M4538.55,11.63c-20.77,102.77-160.07,143.08-240.3,62.69"/>
      <path class="st1" d="M4298.25,74.32c-106.79,185.44-100.25,370.89.38,556.33"/>
      <path class="st1" d="M4298.63,73.65c-.13.23-.25.45-.38.67"/>
      <path class="st1" d="M3875.34,84.16c111.62,163.52,378.07-104.07,421.99-10.8"/>
      <path class="st1" d="M3875.34,84.16c-2.33-3.41-4.6-6.99-6.79-10.79"/>
      <line class="st1" x1="3394.43" y1="1451.63" x2="4112.2" y2="1451.63"/>
      <line class="st1" x1="2117.63" y1="1451.63" x2="2721.97" y2="1451.63"/>
      <line class="st1" x1="2721.97" y1="1451.63" x2="3394.29" y2="1451.63"/>
      <polyline class="st1" points="4474.56 1451.63 4657.32 1451.63 4657.32 1411.13"/>
      <line class="st1" x1="3394.29" y1="1451.63" x2="3394.43" y2="1451.63"/>
      <line class="st1" x1="2117.63" y1="1451.63" x2="1755.04" y2="1451.63"/>
      <polyline class="st1" points="-17.01 691.81 -17.01 11.63 172.59 11.63"/>
      <line class="st1" x1="-17.01" y1="1124.54" x2="-17.01" y2="691.81"/>
      <line class="st1" x1="793.64" y1="11.63" x2="172.59" y2="11.63"/>
      <line class="st1" x1="2181.53" y1="11.63" x2="2529.57" y2="11.63"/>
      <line class="st1" x1="4657.32" y1="993.79" x2="4657.32" y2="816.99"/>
      <line class="st1" x1="4474.56" y1="1451.63" x2="4112.2" y2="1451.63"/>
      <line class="st1" x1="4657.32" y1="1411.13" x2="4657.32" y2="993.79"/>
      <line class="st1" x1="793.64" y1="11.63" x2="1482.19" y2="11.63"/>
      <line class="st1" x1="4657.32" y1="616.05" x2="4657.32" y2="816.99"/>
      <line class="st1" x1="2181.53" y1="11.63" x2="1482.19" y2="11.63"/>
      <line class="st1" x1="364.87" y1="1451.63" x2="1037.03" y2="1451.63"/>
      <polyline class="st1" points="4538.55 11.63 4657.32 11.63 4657.32 616.05"/>
      <line class="st1" x1="3150.78" y1="11.63" x2="3839.48" y2="11.63"/>
      <polyline class="st1" points="-17.01 1124.54 -17.01 1451.63 364.87 1451.63"/>
      <line class="st1" x1="1037.17" y1="1451.63" x2="1037.03" y2="1451.63"/>
      <line class="st1" x1="2529.57" y1="11.63" x2="3150.78" y2="11.63"/>
      <line class="st1" x1="4538.55" y1="11.63" x2="3839.48" y2="11.63"/>
      <line class="st1" x1="1037.17" y1="1451.63" x2="1755.04" y2="1451.63"/>
    </g>
  </g>
  <g id="_x35_9" class="st4">
    <path class="st2" d="M371.34-372.63c-185.67,372.63,557.01-186.96,742.68,0"/>
    <path class="st2" d="M1114.02-372.63c-185.67,372.63,557.01-186.96,742.68,0"/>
    <path class="st2" d="M1856.69-372.63c-185.67,372.63,557.01-186.96,742.68,0"/>
    <path class="st2" d="M2599.37-372.63c-185.67,372.63,557.01-186.96,742.68,0"/>
    <path class="st2" d="M3342.05-372.63c-185.67,372.63,557.01-186.96,742.68,0"/>
    <path class="st2" d="M4084.72-372.63c-185.67,372.63,557.01-186.96,742.68,0"/>
    <path class="st2" d="M371.34,371.34c-185.67,372.63,557.01-186.96,742.68,0"/>
    <path class="st2" d="M1114.02,371.34c-185.67,372.63,557.01-186.96,742.68,0"/>
    <path class="st2" d="M1856.69,371.34c-185.67,372.63,557.01-186.96,742.68,0"/>
    <path class="st2" d="M2599.37,371.34c-185.67,372.63,557.01-186.96,742.68,0"/>
    <path class="st2" d="M3342.05,371.34c-185.67,372.63,557.01-186.96,742.68,0"/>
    <path class="st2" d="M4084.72,371.34c-185.67,372.63,557.01-186.96,742.68,0"/>
    <path class="st2" d="M371.34,1115.3c-185.67,372.63,557.01-186.96,742.68,0"/>
    <path class="st2" d="M1114.02,1115.3c-185.67,372.63,557.01-186.96,742.68,0"/>
    <path class="st2" d="M1856.69,1115.3c-185.67,372.63,557.01-186.96,742.68,0"/>
    <path class="st2" d="M2599.37,1115.3c-185.67,372.63,557.01-186.96,742.68,0"/>
    <path class="st2" d="M3342.05,1115.3c-185.67,372.63,557.01-186.96,742.68,0"/>
    <path class="st2" d="M4084.72,1115.3c-185.67,372.63,557.01-186.96,742.68,0"/>
    <path class="st2" d="M742.68,0C557.01,372.62,1299.68-186.96,1485.35,0"/>
    <path class="st2" d="M1485.35,0C1299.68,372.62,2042.36-186.96,2228.03,0"/>
    <path class="st2" d="M2228.03,0C2042.36,372.62,2785.04-186.96,2970.71,0"/>
    <path class="st2" d="M2970.71,0C2785.04,372.62,3527.72-186.96,3713.38,0"/>
    <path class="st2" d="M3713.38,0c-185.67,372.63,557.01-186.96,742.68,0"/>
    <path class="st2" d="M4456.06,0c-185.67,372.63,557.01-186.96,742.68,0"/>
    <path class="st2" d="M742.68,743.96c-185.67,372.62,557.01-186.96,742.68,0"/>
    <path class="st2" d="M1485.35,743.96c-185.67,372.62,557.01-186.96,742.68,0"/>
    <path class="st2" d="M2228.03,743.96c-185.67,372.62,557.01-186.96,742.68,0"/>
    <path class="st2" d="M2970.71,743.96c-185.67,372.62,557.01-186.96,742.68,0"/>
    <path class="st2" d="M3713.38,743.96c-185.67,372.62,557.01-186.96,742.68,0"/>
    <path class="st2" d="M4456.06,743.96c-185.67,372.62,557.01-186.96,742.68,0"/>
    <path class="st2" d="M742.68,1487.93c-185.67,372.62,557.01-186.96,742.68,0"/>
    <path class="st2" d="M1485.35,1487.93c-185.67,372.62,557.01-186.96,742.68,0"/>
    <path class="st2" d="M2228.03,1487.93c-185.67,372.62,557.01-186.96,742.68,0"/>
    <path class="st2" d="M2970.71,1487.93c-185.67,372.62,557.01-186.96,742.68,0"/>
    <path class="st2" d="M3713.38,1487.93c-185.67,372.62,557.01-186.96,742.68,0"/>
    <path class="st2" d="M4456.06,1487.93c-185.67,372.62,557.01-186.96,742.68,0"/>
    <path class="st2" d="M1114.02-371.34C928.35-278.5,742.68-185.67,742.68,0"/>
    <path class="st2" d="M1856.69-371.34C1671.02-278.5,1485.35-185.67,1485.35,0"/>
    <path class="st2" d="M2599.37-371.34C2413.7-278.5,2228.03-185.67,2228.03,0"/>
    <path class="st2" d="M3342.05-371.34C3156.38-278.5,2970.71-185.67,2970.71,0"/>
    <path class="st2" d="M4084.72-371.34C3899.05-278.5,3713.38-185.67,3713.38,0"/>
    <path class="st2" d="M4827.4-371.34C4641.73-278.5,4456.06-185.67,4456.06,0"/>
    <path class="st2" d="M1114.02,371.34c-185.67,92.83-371.34,185.67-371.34,371.34"/>
    <path class="st2" d="M1856.69,371.34c-185.67,92.83-371.34,185.67-371.34,371.34"/>
    <path class="st2" d="M2599.37,371.34c-185.67,92.83-371.34,185.67-371.34,371.34"/>
    <path class="st2" d="M3342.05,371.34c-185.67,92.83-371.34,185.67-371.34,371.34"/>
    <path class="st2" d="M4084.72,371.34c-185.67,92.83-371.34,185.67-371.34,371.34"/>
    <path class="st2" d="M4827.4,371.34c-185.67,92.83-371.34,185.67-371.34,371.34"/>
    <path class="st2" d="M1114.02,1114.02c-185.67,92.83-371.34,185.67-371.34,371.34"/>
    <path class="st2" d="M1856.69,1114.02c-185.67,92.83-371.34,185.67-371.34,371.34"/>
    <path class="st2" d="M2599.37,1114.02c-185.67,92.83-371.34,185.67-371.34,371.34"/>
    <path class="st2" d="M3342.05,1114.02c-185.67,92.83-371.34,185.67-371.34,371.34"/>
    <path class="st2" d="M4084.72,1114.02c-185.67,92.83-371.34,185.67-371.34,371.34"/>
    <path class="st2" d="M4827.4,1114.02c-185.67,92.83-371.34,185.67-371.34,371.34"/>
    <path class="st2" d="M742.68-742.68c-185.67,92.83-371.34,185.67-371.34,371.34"/>
    <path class="st2" d="M1485.35-742.68c-185.67,92.83-371.34,185.67-371.34,371.34"/>
    <path class="st2" d="M2228.03-742.68c-185.67,92.83-371.34,185.67-371.34,371.34"/>
    <path class="st2" d="M2970.71-742.68c-185.67,92.83-371.34,185.67-371.34,371.34"/>
    <path class="st2" d="M3713.38-742.68c-185.67,92.83-371.34,185.67-371.34,371.34"/>
    <path class="st2" d="M4456.06-742.68c-185.67,92.83-371.34,185.67-371.34,371.34"/>
    <path class="st2" d="M742.68,0c-185.67,92.83-371.34,185.67-371.34,371.34"/>
    <path class="st2" d="M1485.35,0c-185.67,92.83-371.34,185.67-371.34,371.34"/>
    <path class="st2" d="M2228.03,0c-185.67,92.83-371.34,185.67-371.34,371.34"/>
    <path class="st2" d="M2970.71,0c-185.67,92.83-371.34,185.67-371.34,371.34"/>
    <path class="st2" d="M3713.38,0c-185.67,92.83-371.34,185.67-371.34,371.34"/>
    <path class="st2" d="M4456.06,0c-185.67,92.83-371.34,185.67-371.34,371.34"/>
    <path class="st2" d="M742.68,742.67c-185.67,92.84-371.34,185.67-371.34,371.34"/>
    <path class="st2" d="M-371.34-372.63c-185.67,372.63,557.01-186.96,742.68,0"/>
    <path class="st2" d="M-371.34,371.34c-185.67,372.63,557.01-186.96,742.68,0"/>
    <path class="st2" d="M-371.34,1115.3c-185.67,372.63,557.01-186.96,742.68,0"/>
    <path class="st2" d="M0,0C-185.67,372.62,557.01-186.96,742.68,0"/>
    <path class="st2" d="M0,743.96c-185.67,372.62,557.01-186.96,742.68,0"/>
    <path class="st2" d="M0,1487.93c-185.67,372.62,557.01-186.96,742.68,0"/>
    <path class="st2" d="M371.34-371.34C185.67-278.5,0-185.67,0,0"/>
    <path class="st2" d="M371.34,371.34C185.67,464.17,0,557.01,0,742.67"/>
    <path class="st2" d="M371.34,1114.02C185.67,1206.85,0,1299.69,0,1485.35"/>
    <path class="st2" d="M0-742.68c-185.67,92.83-371.34,185.67-371.34,371.34"/>
    <path class="st2" d="M0,0c-185.67,92.83-371.34,185.67-371.34,371.34"/>
    <path class="st2" d="M0,742.67c-185.67,92.84-371.34,185.67-371.34,371.34"/>
    <path class="st2" d="M1485.35,742.67c-185.67,92.84-371.34,185.67-371.34,371.34"/>
    <path class="st2" d="M2228.03,742.67c-185.67,92.84-371.34,185.67-371.34,371.34"/>
    <path class="st2" d="M2970.71,742.67c-185.67,92.84-371.34,185.67-371.34,371.34"/>
    <path class="st2" d="M3713.38,742.67c-185.67,92.84-371.34,185.67-371.34,371.34"/>
    <path class="st2" d="M4456.06,742.67c-185.67,92.84-371.34,185.67-371.34,371.34"/>
    <path class="st2" d="M742.68,1485.35c-185.67,92.84-371.34,185.67-371.34,371.34"/>
    <path class="st2" d="M1485.35,1485.35c-185.67,92.84-371.34,185.67-371.34,371.34"/>
    <path class="st2" d="M2228.03,1485.35c-185.67,92.84-371.34,185.67-371.34,371.34"/>
    <path class="st2" d="M2970.71,1485.35c-185.67,92.84-371.34,185.67-371.34,371.34"/>
    <path class="st2" d="M3713.38,1485.35c-185.67,92.84-371.34,185.67-371.34,371.34"/>
    <path class="st2" d="M4456.06,1485.35c-185.67,92.84-371.34,185.67-371.34,371.34"/>
    <rect class="st2" x="0" width="4827.4" height="1763.86"/>
  </g>
  <g id="_x35_9_x5F_rein">
    <g>
      <path class="st2" d="M371.34,371.34s0,0,0,0"/>
      <path class="st2" d="M371.34,371.34c-185.67,372.62,557.01-186.96,742.68,0"/>
      <path class="st2" d="M1114.02,371.34s0,0,0,0"/>
      <path class="st2" d="M1114.01,371.34c-185.67,372.62,557.01-186.96,742.68,0"/>
      <path class="st2" d="M1856.69,371.34s0,0,0,0"/>
      <path class="st2" d="M1114.01,371.34s0,0,0,0"/>
      <path class="st2" d="M2599.37,371.34c-185.67-186.96-928.35,372.63-742.68,0"/>
      <path class="st2" d="M2599.37,371.34c-185.67,372.62,557.01-186.96,742.68,0"/>
      <path class="st2" d="M2599.37,371.34h0"/>
      <path class="st2" d="M3342.05,371.34c-185.67,372.62,557-186.95,742.68,0"/>
      <path class="st2" d="M3342.05,371.34h0"/>
      <path class="st2" d="M4084.72,371.34s0,0,0,0"/>
      <path class="st2" d="M4084.72,371.34c-185.67,372.63,557.01-186.96,742.68,0"/>
      <path class="st2" d="M1113.15,1114.45c.29.28.58.56.87.85"/>
      <path class="st2" d="M371.34,1115.3c-185.38,372.05,554.72-185.22,741.81-.85"/>
      <path class="st2" d="M1114.02,1115.3c-185.38,372.05,554.72-185.22,741.81-.85"/>
      <path class="st2" d="M1856.69,1115.3c-.29-.29-.58-.57-.87-.85"/>
      <path class="st2" d="M2598.5,1114.45c.29.28.58.56.87.85"/>
      <path class="st2" d="M1856.69,1115.3c-185.38,372.05,554.72-185.22,741.81-.85"/>
      <path class="st2" d="M2599.37,1115.3c-185.38,372.05,554.72-185.22,741.81-.85"/>
      <path class="st2" d="M3341.18,1114.45c.29.28.58.56.87.85"/>
      <path class="st2" d="M4084.72,1115.3c-.29-.29-.58-.57-.87-.85"/>
      <path class="st2" d="M3342.05,1115.3c-185.38,372.05,554.71-185.22,741.81-.85"/>
      <path class="st1" d="M4827.4,1115.3c-.29-.29-.58-.57-.87-.85"/>
      <path class="st2" d="M4084.72,1115.3c-185.38,372.05,554.71-185.22,741.81-.85"/>
      <line class="st1" x1="742.68" x2="742.68"/>
      <path class="st2" d="M742.68,0c-123.64,248.13,164.38,82.9,425.46,0"/>
      <line class="st1" x1="742.68" x2="742.68" y2="0"/>
      <line class="st1" x1="1485.35" x2="1485.35" y2="0"/>
      <path class="st2" d="M1485.35,0c-123.64,248.13,164.38,82.9,425.46,0"/>
      <path class="st2" d="M2228.03,0c-123.64,248.13,164.38,82.9,425.45,0"/>
      <line class="st1" x1="2228.03" x2="2228.03" y2="0"/>
      <line class="st1" x1="2970.71" x2="2970.71"/>
      <line class="st1" x1="2970.71" x2="2970.71" y2="0"/>
      <path class="st2" d="M2970.71,0c-123.64,248.13,164.38,82.9,425.46,0"/>
      <line class="st1" x1="3713.38" x2="3713.38"/>
      <line class="st1" x1="3713.38" x2="3713.38" y2="0"/>
      <path class="st2" d="M3713.38,0c-123.64,248.13,164.38,82.9,425.46,0"/>
      <path class="st2" d="M4456.06,0c-115.13,231.06,126.7,103.68,371.34,18.11"/>
      <line class="st1" x1="4456.06" x2="4456.06" y2="0"/>
      <path class="st2" d="M1484.48,743.11c-187.1-184.37-927.19,372.9-741.81.85"/>
      <path class="st2" d="M1484.48,743.11c.29.29.58.56.87.85"/>
      <path class="st2" d="M2227.16,743.11c.29.29.58.56.87.85"/>
      <path class="st2" d="M1485.35,743.96c-185.38,372.05,554.71-185.22,741.81-.85"/>
      <path class="st2" d="M2228.03,743.96c-185.38,372.05,554.71-185.22,741.81-.85"/>
      <path class="st2" d="M2969.84,743.11c.29.29.58.56.87.85"/>
      <path class="st2" d="M3713.38,743.96c-.29-.29-.58-.57-.87-.85"/>
      <path class="st2" d="M2970.71,743.96c-185.38,372.05,554.71-185.22,741.81-.85"/>
      <path class="st2" d="M4456.06,743.96c-.29-.29-.58-.57-.87-.85"/>
      <path class="st2" d="M3713.38,743.96c-185.38,372.05,554.71-185.22,741.81-.85"/>
      <path class="st2" d="M4456.06,743.96c-115.13,231.06,126.7,103.68,371.34,18.11"/>
      <path class="st2" d="M1485.35,1487.93c-.57-.58-1.15-1.14-1.74-1.7"/>
      <path class="st2" d="M742.68,1487.93c-185.1,371.48,552.43-183.51,740.94-1.7"/>
      <path class="st2" d="M2228.03,1487.93c-.57-.58-1.16-1.14-1.74-1.7"/>
      <path class="st2" d="M2226.29,1486.22c-188.51-181.8-926.04,373.18-740.94,1.7"/>
      <path class="st2" d="M2968.97,1486.22c.58.56,1.17,1.13,1.74,1.7"/>
      <path class="st2" d="M2228.03,1487.93c-185.1,371.48,552.43-183.51,740.94-1.7"/>
      <path class="st2" d="M3711.65,1486.22c-188.51-181.8-926.04,373.18-740.94,1.7"/>
      <path class="st2" d="M3711.65,1486.22c.58.56,1.17,1.13,1.74,1.7"/>
      <path class="st2" d="M4456.06,1487.93c-.57-.58-1.16-1.14-1.74-1.7"/>
      <path class="st2" d="M3713.38,1487.93c-185.1,371.47,552.43-183.5,740.94-1.7"/>
      <path class="st2" d="M4456.06,1487.93c-115.13,231.06,126.7,103.68,371.34,18.12"/>
      <path class="st2" d="M1114.01,371.34h0"/>
      <path class="st2" d="M1114.01,371.34c-185.67,92.83-371.34,185.67-371.34,371.34"/>
      <path class="st2" d="M1485.35,742.67c0-185.67,185.67-278.5,371.34-371.34"/>
      <path class="st2" d="M2228.03,742.67c0-185.67,185.67-278.5,371.34-371.34"/>
      <path class="st2" d="M2599.37,371.34h0"/>
      <path class="st2" d="M3342.05,371.34h0"/>
      <path class="st2" d="M2970.71,742.67c0-185.67,185.67-278.5,371.34-371.34"/>
      <path class="st2" d="M3713.38,742.67c0-185.67,185.67-278.5,371.34-371.34"/>
      <path class="st2" d="M4827.4,371.34c-185.67,92.83-371.34,185.67-371.34,371.34"/>
      <path class="st2" d="M1113.15,1114.45c.29-.15.58-.29.87-.43"/>
      <path class="st2" d="M1113.15,1114.45c-185.38,92.69-370.47,185.52-370.47,370.9"/>
      <path class="st2" d="M1855.82,1114.45c.29-.14.58-.29.87-.43"/>
      <path class="st2" d="M1485.35,1485.35c0-185.38,185.09-278.21,370.47-370.9"/>
      <path class="st2" d="M2598.5,1114.45c-185.38,92.69-370.47,185.52-370.47,370.9"/>
      <path class="st2" d="M2598.5,1114.45c.29-.15.58-.29.87-.43"/>
      <path class="st2" d="M3341.18,1114.45c.29-.15.58-.29.87-.43"/>
      <path class="st2" d="M2970.71,1485.35c0-185.38,185.09-278.21,370.47-370.9"/>
      <path class="st2" d="M4084.72,1114.02c-.29.14-.58.29-.87.43"/>
      <path class="st2" d="M4083.85,1114.45c-185.38,92.69-370.47,185.53-370.47,370.9"/>
      <path class="st1" d="M4826.53,1114.45c.29-.14.58-.29.87-.43"/>
      <path class="st2" d="M4456.06,1485.35c0-185.38,185.09-278.21,370.47-370.9"/>
      <line class="st1" x1="742.68" x2="742.68"/>
      <path class="st2" d="M742.68,0c-185.67,92.83-371.34,185.67-371.34,371.34"/>
      <path class="st2" d="M1114.01,371.34h0"/>
      <path class="st2" d="M1485.35,0c-185.67,92.83-371.34,185.67-371.34,371.34"/>
      <path class="st2" d="M1856.69,371.34c0-185.67,185.67-278.5,371.34-371.34"/>
      <path class="st2" d="M1856.69,371.34h0"/>
      <line class="st1" x1="2970.71" x2="2970.71"/>
      <path class="st2" d="M2599.37,371.34c0-185.67,185.67-278.5,371.34-371.34"/>
      <line class="st1" x1="3713.38" x2="3713.38"/>
      <path class="st2" d="M3713.38,0c-185.67,92.83-371.34,185.67-371.34,371.34"/>
      <path class="st2" d="M4084.72,371.34c0-185.67,185.67-278.5,371.34-371.34"/>
      <path class="st2" d="M4084.72,371.34h0"/>
      <path class="st2" d="M741.81,743.11c.29-.15.58-.29.87-.44"/>
      <path class="st2" d="M371.34,1114.02c0-185.38,185.09-278.21,370.47-370.91"/>
      <path class="st2" d="M371.34,371.34C300.8,300.31,149.88,337.03,0,389.45"/>
      <path class="st2" d="M370.47,1114.45C299.57,1044.58,149.27,1081.21,0,1133.42"/>
      <path class="st2" d="M370.47,1114.45c.29.28.58.56.87.85"/>
      <path class="st2" d="M425.45,0C253.62,54.56,70.12,144.78,0,129.35"/>
      <path class="st1" d="M0,0s0,0,0,0"/>
      <path class="st2" d="M741.81,743.11c.29.29.58.56.87.85"/>
      <path class="st2" d="M741.81,743.11C597.36,600.77,123.33,900.46,0,873.31"/>
      <path class="st2" d="M740.94,1486.22c.58.56,1.17,1.13,1.74,1.7"/>
      <path class="st2" d="M740.94,1486.22C595.47,1345.93,123.09,1644.37,0,1617.28"/>
      <path class="st2" d="M371.34,371.34h0"/>
      <path class="st2" d="M371.34,371.34C185.67,464.17,0,557.01,0,742.67"/>
      <path class="st2" d="M370.47,1114.45C185.09,1207.14,0,1299.97,0,1485.35"/>
      <path class="st2" d="M370.47,1114.45c.29-.15.58-.29.87-.43"/>
      <path class="st1" d="M0,0h0"/>
      <path class="st2" d="M1484.48,743.11c.29-.14.58-.29.87-.44"/>
      <path class="st2" d="M1484.48,743.11c-185.38,92.69-370.47,185.53-370.47,370.91"/>
      <path class="st2" d="M2227.16,743.11c.29-.14.58-.29.87-.44"/>
      <path class="st2" d="M2227.16,743.11c-185.38,92.69-370.47,185.53-370.47,370.91"/>
      <path class="st2" d="M2969.84,743.11c.29-.15.58-.29.87-.44"/>
      <path class="st2" d="M2969.84,743.11c-185.38,92.69-370.47,185.53-370.47,370.91"/>
      <path class="st2" d="M3712.51,743.11c-185.38,92.69-370.47,185.53-370.47,370.91"/>
      <path class="st2" d="M3713.38,742.67c-.29.15-.58.29-.87.44"/>
      <path class="st2" d="M4455.19,743.11c-185.38,92.69-370.47,185.53-370.47,370.91"/>
      <path class="st2" d="M4456.06,742.67c-.29.14-.58.29-.87.43"/>
      <path class="st2" d="M740.94,1486.22c.58-.29,1.16-.58,1.74-.87"/>
      <path class="st2" d="M740.94,1486.22c-151.25,75.62-302.1,151.44-352.21,277.64"/>
      <path class="st2" d="M1483.62,1486.22c-151.25,75.62-302.1,151.44-352.21,277.64"/>
      <path class="st2" d="M1483.62,1486.22c.58-.29,1.16-.58,1.74-.87"/>
      <path class="st2" d="M2226.29,1486.22c-151.25,75.62-302.1,151.44-352.21,277.64"/>
      <path class="st2" d="M2226.29,1486.22c.58-.29,1.16-.58,1.74-.87"/>
      <path class="st2" d="M2968.97,1486.22c-151.24,75.62-302.1,151.44-352.21,277.64"/>
      <path class="st2" d="M2968.97,1486.22c.58-.29,1.16-.58,1.74-.87"/>
      <path class="st2" d="M3711.65,1486.22c-151.25,75.62-302.1,151.44-352.21,277.64"/>
      <path class="st2" d="M3711.65,1486.22c.58-.29,1.16-.58,1.74-.87"/>
      <path class="st2" d="M4454.32,1486.22c.58-.29,1.16-.58,1.74-.87"/>
      <path class="st2" d="M4454.32,1486.22c-151.25,75.62-302.1,151.44-352.21,277.64"/>
      <line class="st1" x1="0" y1="1133.42" x2="0" y2="1487.93"/>
      <line class="st1" x1="388.73" y1="1763.86" x2="1131.4" y2="1763.86"/>
      <line class="st1" x1="4827.4" y1="762.08" x2="4827.4" y2="371.34"/>
      <line class="st1" x1="0" y1="1487.93" x2="0" y2="1617.28"/>
      <line class="st1" x1="4827.4" y1="1506.04" x2="4827.4" y2="1115.3"/>
      <line class="st1" x1="3359.43" y1="1763.86" x2="4102.11" y2="1763.86"/>
      <line class="st1" x1="1874.08" y1="1763.86" x2="2616.76" y2="1763.86"/>
      <line class="st1" x1="3396.16" x2="3713.38"/>
      <line class="st1" x1="3713.38" x2="3713.38"/>
      <line class="st1" x1="0" y1="743.96" x2="0" y2="742.67"/>
      <polyline class="st1" points="0 129.35 0 0 425.45 0 742.68 0"/>
      <line class="st1" x1="0" y1="389.45" x2="0" y2="742.67"/>
      <line class="st1" x1="0" y1="1133.42" x2="0" y2="873.31"/>
      <line class="st1" x1="3713.38" x2="4138.84"/>
      <line class="st1" x1="4456.06" x2="4456.06"/>
      <line class="st1" x1="0" y1="873.31" x2="0" y2="743.96"/>
      <line class="st1" x1="1874.08" y1="1763.86" x2="1131.4" y2="1763.86"/>
      <polyline class="st1" points="0 1617.28 0 1763.86 388.73 1763.86"/>
      <line class="st1" x1="3359.43" y1="1763.86" x2="2616.76" y2="1763.86"/>
      <path class="st1" d="M425.45,0"/>
      <polyline class="st1" points="4827.4 1506.04 4827.4 1763.86 4102.11 1763.86"/>
      <line class="st1" x1="0" y1="389.45" x2="0" y2="129.35"/>
      <line class="st1" x1="4827.4" y1="18.11" x2="4827.4" y2="371.34"/>
      <line class="st1" x1="4827.4" y1="762.08" x2="4827.4" y2="1115.3"/>
      <line class="st1" x1="1485.35" x2="1485.35"/>
      <line class="st1" x1="2653.48" x2="2228.03"/>
      <line class="st1" x1="2970.71" x2="2970.71"/>
      <line class="st1" x1="4456.06" x2="4138.84"/>
      <line class="st1" x1="2228.03" x2="1910.81"/>
      <polyline class="st1" points="4827.4 18.11 4827.4 0 4456.06 0"/>
      <line class="st1" x1="1168.13" x2="742.68"/>
      <line class="st1" x1="2228.03" x2="2228.03"/>
      <line class="st1" x1="3396.16" x2="2970.71"/>
      <line class="st1" x1="2653.48" x2="2970.71"/>
      <line class="st1" x1="1485.35" x2="1168.13"/>
      <line class="st1" x1="1485.35" x2="1910.81"/>
      <line class="st1" x1="742.68" x2="742.68"/>
    </g>
  </g>
  <g id="_x35_8" class="st4">
    <path class="st2" d="M.71-1.29c-185.67,372.63,557.01-186.96,742.68,0"/>
    <path class="st2" d="M743.38-1.29c-185.67,372.63,557.01-186.96,742.68,0"/>
    <path class="st2" d="M1486.06-1.29c-185.67,372.63,557.01-186.96,742.68,0"/>
    <path class="st2" d="M2228.74-1.29c-185.67,372.63,557.01-186.96,742.68,0"/>
    <path class="st2" d="M2971.42-1.29c-185.67,372.63,557.01-186.96,742.68,0"/>
    <path class="st2" d="M3714.09-1.29c-185.67,372.63,557.01-186.96,742.68,0"/>
    <path class="st2" d="M0,742.68c-185.67,372.62,557.01-186.96,742.68,0"/>
    <path class="st2" d="M742.68,742.68c-185.67,372.62,557.01-186.96,742.68,0"/>
    <path class="st2" d="M1485.35,742.68c-185.67,372.62,557.01-186.96,742.68,0"/>
    <path class="st2" d="M2228.03,742.68c-185.67,372.62,557.01-186.96,742.68,0"/>
    <path class="st2" d="M2970.71,742.68c-185.67,372.62,557.01-186.96,742.68,0"/>
    <path class="st2" d="M3713.39,742.68c-185.67,372.62,557.01-186.96,742.68,0"/>
    <path class="st2" d="M0,1486.64c-185.67,372.62,557.01-186.96,742.68,0"/>
    <path class="st2" d="M742.68,1486.64c-185.67,372.62,557.01-186.96,742.68,0"/>
    <path class="st2" d="M1485.35,1486.64c-185.67,372.62,557.01-186.96,742.68,0"/>
    <path class="st2" d="M2228.03,1486.64c-185.67,372.62,557.01-186.96,742.68,0"/>
    <path class="st2" d="M2970.71,1486.64c-185.67,372.62,557.01-186.96,742.68,0"/>
    <path class="st2" d="M3713.39,1486.64c-185.67,372.62,557.01-186.96,742.68,0"/>
    <path class="st2" d="M371.34,371.34c-185.67,372.63,557.01-186.96,742.68,0"/>
    <path class="st2" d="M1114.02,371.34c-185.67,372.63,557.01-186.96,742.68,0"/>
    <path class="st2" d="M1856.69,371.34c-185.67,372.63,557.01-186.96,742.68,0"/>
    <path class="st2" d="M2599.37,371.34c-185.67,372.63,557.01-186.96,742.68,0"/>
    <path class="st2" d="M3342.05,371.34c-185.67,372.63,557.01-186.96,742.68,0"/>
    <path class="st2" d="M4084.72,371.34c-185.67,372.63,557.01-186.96,742.68,0"/>
    <path class="st2" d="M371.34,1115.3c-185.67,372.62,557.01-186.96,742.68,0"/>
    <path class="st2" d="M1114.02,1115.3c-185.67,372.62,557.01-186.96,742.68,0"/>
    <path class="st2" d="M1856.69,1115.3c-185.67,372.62,557.01-186.96,742.68,0"/>
    <path class="st2" d="M2599.37,1115.3c-185.67,372.62,557.01-186.96,742.68,0"/>
    <path class="st2" d="M3342.05,1115.3c-185.67,372.62,557.01-186.96,742.68,0"/>
    <path class="st2" d="M4084.72,1115.3c-185.67,372.62,557.01-186.96,742.68,0"/>
    <path class="st2" d="M372.04,1859.26c-185.67,372.62,557.01-186.96,742.68,0"/>
    <path class="st2" d="M1114.72,1859.26c-185.67,372.62,557.01-186.96,742.68,0"/>
    <path class="st2" d="M1857.4,1859.26c-185.67,372.62,557.01-186.96,742.68,0"/>
    <path class="st2" d="M2600.08,1859.26c-185.67,372.62,557.01-186.96,742.68,0"/>
    <path class="st2" d="M3342.75,1859.26c-185.67,372.62,557.01-186.96,742.68,0"/>
    <path class="st2" d="M4455.36,742.68c-185.67,372.62,557.01-186.96,742.68,0"/>
    <path class="st2" d="M4084.72,1859.26c-185.67,372.62,557.01-186.96,742.68,0"/>
    <line class="st2" x1="743.38" y1="0" x2="1114.72" y2="-371.34"/>
    <line class="st2" x1="1486.06" y1="0" x2="1857.4" y2="-371.34"/>
    <line class="st2" x1="2228.74" y1="0" x2="2600.08" y2="-371.34"/>
    <line class="st2" x1="2971.42" y1="0" x2="3342.75" y2="-371.34"/>
    <line class="st2" x1="3714.09" y1="0" x2="4085.43" y2="-371.34"/>
    <line class="st2" x1="4456.77" y1="0" x2="4828.11" y2="-371.34"/>
    <line class="st2" x1="371.34" y1="371.34" x2="742.68" y2="0"/>
    <line class="st2" x1="1114.02" y1="371.34" x2="1485.35" y2="0"/>
    <line class="st2" x1="1856.69" y1="371.34" x2="2228.03" y2="0"/>
    <line class="st2" x1="2599.37" y1="371.34" x2="2970.71" y2="0"/>
    <line class="st2" x1="3342.05" y1="371.34" x2="3713.38" y2="0"/>
    <line class="st2" x1="4084.72" y1="371.34" x2="4456.06" y2="0"/>
    <line class="st2" x1="0" y1="742.68" x2="371.34" y2="371.34"/>
    <line class="st2" x1="742.68" y1="742.68" x2="1114.02" y2="371.34"/>
    <line class="st2" x1="1485.35" y1="742.68" x2="1856.69" y2="371.34"/>
    <line class="st2" x1="2228.03" y1="742.68" x2="2599.37" y2="371.34"/>
    <line class="st2" x1="2970.71" y1="742.68" x2="3342.05" y2="371.34"/>
    <line class="st2" x1="3713.39" y1="742.68" x2="4084.72" y2="371.34"/>
    <line class="st2" x1="4456.06" y1="742.68" x2="4827.4" y2="371.34"/>
    <line class="st2" x1="371.34" y1="1114.02" x2="742.68" y2="742.68"/>
    <line class="st2" x1="1114.02" y1="1114.02" x2="1485.35" y2="742.68"/>
    <line class="st2" x1="1856.69" y1="1114.02" x2="2228.03" y2="742.68"/>
    <line class="st2" x1="2599.37" y1="1114.02" x2="2970.71" y2="742.68"/>
    <line class="st2" x1="3342.05" y1="1114.02" x2="3713.38" y2="742.68"/>
    <line class="st2" x1="4084.72" y1="1114.02" x2="4456.06" y2="742.68"/>
    <path class="st2" d="M4455.36,1485.35c-185.67,372.62,557.01-186.96,742.68,0"/>
    <line class="st2" x1="4084.72" y1="1856.69" x2="4456.06" y2="1485.35"/>
    <line class="st2" x1="0" y1="1485.35" x2="371.34" y2="1114.02"/>
    <line class="st2" x1="742.68" y1="1485.35" x2="1114.02" y2="1114.02"/>
    <line class="st2" x1="1485.35" y1="1485.35" x2="1856.69" y2="1114.02"/>
    <line class="st2" x1="2228.03" y1="1485.35" x2="2599.37" y2="1114.02"/>
    <line class="st2" x1="2970.71" y1="1485.35" x2="3342.05" y2="1114.02"/>
    <line class="st2" x1="3713.39" y1="1485.35" x2="4084.72" y2="1114.02"/>
    <line class="st2" x1="4456.06" y1="1485.35" x2="4827.4" y2="1114.02"/>
    <line class="st2" x1="371.34" y1="1856.69" x2="742.68" y2="1485.35"/>
    <path class="st2" d="M-741.97-1.29C-927.64,371.34-184.96-188.24.71-1.29"/>
    <path class="st2" d="M4456.06-1.29c-185.67,372.63,557.01-186.96,742.68,0"/>
    <path class="st2" d="M-742.68,742.68C-928.35,1115.3-185.67,555.72,0,742.68"/>
    <path class="st2" d="M-742.68,1486.64C-928.35,1859.26-185.67,1299.68,0,1486.64"/>
    <path class="st2" d="M-371.34,371.34c-185.67,372.63,557.01-186.96,742.68,0"/>
    <path class="st2" d="M-371.34,1115.3c-185.67,372.62,557.01-186.96,742.68,0"/>
    <path class="st2" d="M-370.63,1859.26c-185.67,372.62,557.01-186.96,742.68,0"/>
    <line class="st2" x1="-371.34" y1="371.34" y2="0"/>
    <line class="st2" x1="-742.68" y1="742.68" x2="-371.34" y2="371.34"/>
    <line class="st2" x1="-371.34" y1="1114.02" y2="742.68"/>
    <path class="st2" d="M-1114.02,371.34c-185.67,372.63,557.01-186.96,742.68,0"/>
    <path class="st2" d="M-1114.02,1115.3c-185.67,372.62,557.01-186.96,742.68,0"/>
    <line class="st2" x1="-1114.02" y1="1114.02" x2="-742.68" y2="742.68"/>
    <line class="st2" x1="-742.68" y1="1485.35" x2="-371.34" y2="1114.02"/>
    <line class="st2" x1="-371.34" y1="1856.69" y2="1485.35"/>
    <line class="st2" x1="1114.02" y1="1856.69" x2="1485.35" y2="1485.35"/>
    <line class="st2" x1="1856.69" y1="1856.69" x2="2228.03" y2="1485.35"/>
    <line class="st2" x1="2599.37" y1="1856.69" x2="2970.71" y2="1485.35"/>
    <line class="st2" x1="3342.05" y1="1856.69" x2="3713.38" y2="1485.35"/>
    <rect class="st2" y="0" width="4827.4" height="1763.86"/>
  </g>
  <g id="_x35_8_x5F_rein" class="st4">
    <g>
      <path class="st1" d="M.07,0s-.05.1-.07.15"/>
      <path class="st1" d="M.07,0c.21-.43.42-.85.63-1.29"/>
      <path class="st2" d="M0,127.91C69.05,143.98,250.89,54.87,422.13,0"/>
      <path class="st2" d="M742.75,0C621.39,244.99,905.27,83.16,1164.81,0"/>
      <path class="st1" d="M742.75,0c.21-.43.42-.85.63-1.29"/>
      <path class="st1" d="M1485.43,0c.21-.43.42-.85.63-1.29"/>
      <path class="st2" d="M1485.43,0C1364.07,244.99,1647.94,83.16,1907.48,0"/>
      <path class="st1" d="M2228.1,0c.21-.43.42-.85.63-1.29"/>
      <path class="st2" d="M2228.1,0c-121.36,244.99,162.52,83.16,422.06,0"/>
      <path class="st2" d="M2970.78,0c-121.36,244.99,162.52,83.16,422.06,0"/>
      <path class="st1" d="M2970.78,0c.21-.43.42-.85.63-1.29"/>
      <path class="st1" d="M3713.46,0c.21-.43.42-.85.63-1.29"/>
      <path class="st2" d="M3713.46,0c-121.36,244.99,162.52,83.16,422.06,0"/>
      <line class="st1" x1="0" y1="742.68" x2="0" y2="742.68"/>
      <path class="st2" d="M0,872.03c123.58,27.2,599.27-273.75,742.68-129.35"/>
      <path class="st2" d="M742.68,742.68c-185.67,372.62,557.01-186.96,742.68,0"/>
      <path class="st2" d="M1485.35,742.68c-185.67,372.62,557.01-186.96,742.68,0"/>
      <path class="st2" d="M2970.71,742.68c-185.67-186.96-928.35,372.62-742.68,0"/>
      <path class="st2" d="M2970.71,742.68c-185.67,372.62,557.01-186.96,742.68,0"/>
      <path class="st2" d="M4456.06,742.68c-185.67-186.96-928.35,372.62-742.68,0"/>
      <path class="st2" d="M742.03,1486c.22.21.44.42.65.64"/>
      <path class="st2" d="M742.03,1486C597.85,1343.14,123.4,1643.15,0,1615.99"/>
      <path class="st2" d="M1485.35,1486.64c-.21-.22-.43-.42-.65-.64"/>
      <path class="st2" d="M1484.7,1486c-186.73-185.02-927.48,372.83-742.03.64"/>
      <path class="st2" d="M2227.38,1486c.22.21.44.42.65.64"/>
      <path class="st2" d="M1485.35,1486.64c-185.46,372.2,555.29-185.66,742.03-.64"/>
      <path class="st2" d="M2970.06,1486c-186.74-185.02-927.48,372.83-742.03.64"/>
      <path class="st2" d="M2970.71,1486.64c-.21-.22-.43-.42-.65-.64"/>
      <path class="st2" d="M2970.71,1486.64c-185.46,372.2,555.29-185.66,742.03-.64"/>
      <path class="st2" d="M3712.74,1486c.22.21.44.42.65.64"/>
      <path class="st2" d="M4456.06,1486.64c-.21-.22-.43-.42-.65-.64"/>
      <path class="st2" d="M4455.41,1486c-.08-.08-.17-.17-.25-.25"/>
      <path class="st2" d="M4455.16,1485.75c-187.15-184.27-927.15,372.91-741.77.89"/>
      <path class="st2" d="M1114.02,371.34c-185.67-186.96-928.35,372.63-742.68,0"/>
      <path class="st2" d="M1114.02,371.34c-185.67,372.63,557.01-186.96,742.68,0"/>
      <line class="st2" x1="1856.69" y1="371.34" x2="1856.69" y2="371.34"/>
      <path class="st2" d="M1856.69,371.34c-185.67,372.63,557.01-186.96,742.68,0"/>
      <path class="st2" d="M3342.05,371.34c-185.67-186.96-928.35,372.63-742.68,0"/>
      <path class="st2" d="M3342.05,371.34c-185.67,372.63,557.01-186.96,742.68,0"/>
      <path class="st2" d="M4827.4,371.34c-185.67-186.96-928.35,372.63-742.68,0"/>
      <path class="st2" d="M1113.37,1114.67c.22.21.43.42.65.64"/>
      <path class="st2" d="M371.34,1115.3c-185.46,372.2,555.29-185.66,742.03-.64"/>
      <path class="st2" d="M1856.69,1115.3c-.21-.22-.43-.42-.65-.64"/>
      <path class="st2" d="M1114.02,1115.3c-185.46,372.2,555.29-185.66,742.03-.64"/>
      <path class="st2" d="M2599.37,1115.3c-.21-.22-.43-.42-.65-.64"/>
      <path class="st2" d="M1856.69,1115.3c-185.46,372.2,555.29-185.66,742.03-.64"/>
      <path class="st2" d="M2599.37,1115.3c-185.46,372.2,555.29-185.66,742.03-.64"/>
      <path class="st2" d="M3342.05,1115.3c-.21-.22-.43-.42-.65-.64"/>
      <path class="st2" d="M3342.05,1115.3c-185.46,372.2,555.29-185.66,742.03-.64"/>
      <path class="st2" d="M4084.72,1115.3c-.21-.22-.43-.42-.65-.64"/>
      <path class="st1" d="M4826.75,1114.67c.21.21.43.42.65.64"/>
      <path class="st2" d="M4084.72,1115.3c-185.46,372.2,555.29-185.66,742.03-.64"/>
      <path class="st2" d="M4454.67,744.07c-113.57,229.37,128.35,101.87,372.73,16.48"/>
      <path class="st2" d="M4454.67,744.07c.23-.46.45-.92.69-1.39"/>
      <line class="st2" x1="371.34" y1="371.34" x2="742.68" y2="0"/>
      <line class="st2" x1="371.34" y1="371.34" x2="371.34" y2="371.34"/>
      <line class="st2" x1="1114.02" y1="371.34" x2="1485.35" y2="0"/>
      <line class="st2" x1="1856.69" y1="371.34" x2="1856.69" y2="371.34"/>
      <line class="st2" x1="1856.69" y1="371.34" x2="2228.03" y2="0"/>
      <line class="st2" x1="2599.37" y1="371.34" x2="2970.71" y2="0"/>
      <line class="st2" x1="3342.05" y1="371.34" x2="3713.38" y2="0"/>
      <line class="st1" x1="4456.06" y1="0" x2="4454.81" y2="1.25"/>
      <line class="st2" x1="4084.72" y1="371.34" x2="4454.81" y2="1.25"/>
      <line class="st1" y1="742.68" x2="0" y2="742.68"/>
      <line class="st2" y1="742.68" x2="371.34" y2="371.34"/>
      <line class="st1" y1="742.68" y2="742.68"/>
      <line class="st2" x1="1114.02" y1="371.34" x2="742.68" y2="742.68"/>
      <line class="st2" x1="1856.69" y1="371.34" x2="1485.35" y2="742.68"/>
      <line class="st2" x1="2599.37" y1="371.34" x2="2228.03" y2="742.68"/>
      <line class="st2" x1="3342.05" y1="371.34" x2="2970.71" y2="742.68"/>
      <line class="st2" x1="4084.72" y1="371.34" x2="3713.39" y2="742.68"/>
      <line class="st2" x1="4456.06" y1="742.68" x2="4827.4" y2="371.34"/>
      <line class="st2" x1="742.68" y1="742.68" x2="371.34" y2="1114.02"/>
      <line class="st2" x1="1114.02" y1="1114.02" x2="1485.35" y2="742.68"/>
      <line class="st2" x1="1856.69" y1="1114.02" x2="2228.03" y2="742.68"/>
      <line class="st2" x1="2970.71" y1="742.68" x2="2599.37" y2="1114.02"/>
      <line class="st2" x1="3713.38" y1="742.68" x2="3342.05" y2="1114.02"/>
      <line class="st2" x1="4454.67" y1="744.07" x2="4084.72" y2="1114.02"/>
      <line class="st2" x1="4454.67" y1="744.07" x2="4456.06" y2="742.68"/>
      <path class="st2" d="M4454.67,1486.75c-113.56,229.36,128.35,101.86,372.73,16.47"/>
      <path class="st2" d="M4454.67,1486.75c.17-.33.33-.66.49-1"/>
      <path class="st2" d="M4455.36,1485.35c-.07.13-.13.27-.2.4"/>
      <line class="st2" x1="4456.06" y1="1485.35" x2="4455.41" y2="1486"/>
      <line class="st2" x1="4454.67" y1="1486.75" x2="4455.41" y2="1486"/>
      <line class="st2" x1="4454.67" y1="1486.75" x2="4177.56" y2="1763.86"/>
      <line class="st1" y1="1485.35" x2="0" y2="1485.35"/>
      <line class="st2" x1="371.34" y1="1114.02" x2="370.69" y2="1114.67"/>
      <line class="st2" y1="1485.35" x2="370.69" y2="1114.67"/>
      <line class="st2" x1="1113.37" y1="1114.67" x2="1114.02" y2="1114.02"/>
      <line class="st2" x1="742.68" y1="1485.35" x2="1113.37" y2="1114.67"/>
      <line class="st2" x1="1856.04" y1="1114.67" x2="1856.69" y2="1114.02"/>
      <line class="st2" x1="1485.35" y1="1485.35" x2="1856.04" y2="1114.67"/>
      <line class="st2" x1="2228.03" y1="1485.35" x2="2598.72" y2="1114.67"/>
      <line class="st2" x1="2598.72" y1="1114.67" x2="2599.37" y2="1114.02"/>
      <line class="st2" x1="2970.71" y1="1485.35" x2="3341.4" y2="1114.67"/>
      <line class="st2" x1="3341.4" y1="1114.67" x2="3342.05" y2="1114.02"/>
      <line class="st2" x1="4084.72" y1="1114.02" x2="4084.07" y2="1114.67"/>
      <line class="st2" x1="3713.39" y1="1485.35" x2="4084.07" y2="1114.67"/>
      <line class="st1" x1="4827.4" y1="1114.02" x2="4826.75" y2="1114.67"/>
      <line class="st2" x1="4456.06" y1="1485.35" x2="4826.75" y2="1114.67"/>
      <line class="st2" x1="742.68" y1="1485.35" x2="742.03" y2="1486"/>
      <line class="st2" x1="742.03" y1="1486" x2="464.17" y2="1763.86"/>
      <path class="st1" d="M4456.06-1.29c-.22.43-.42.86-.63,1.29"/>
      <path class="st1" d="M4455.43,0c-.21.42-.41.83-.62,1.25"/>
      <path class="st2" d="M4827.4,16.83c-243.73,85.25-484.67,212-372.59-15.58"/>
      <line class="st1" y1="742.68" y2="742.68"/>
      <path class="st1" d="M0,742.68s0,0,0,0"/>
      <path class="st1" d="M0,1486.64s0,0,0,0"/>
      <path class="st1" d="M-.65,1486c.22.21.44.42.65.63"/>
      <path class="st2" d="M0,389.45c149.88-52.42,300.8-89.14,371.34-18.11"/>
      <path class="st2" d="M371.34,371.34s0,0,0,0"/>
      <path class="st2" d="M370.69,1114.67c-70.81-70.16-221.27-33.51-370.69,18.75"/>
      <path class="st2" d="M370.69,1114.67c.22.21.44.42.65.64"/>
      <line class="st1" x1="0" y1="742.68" y2="742.68"/>
      <line class="st1" x1="-.65" y1="1486" y2="1485.35"/>
      <line class="st2" x1="1484.7" y1="1486" x2="1206.85" y2="1763.86"/>
      <line class="st2" x1="1484.7" y1="1486" x2="1485.35" y2="1485.35"/>
      <line class="st2" x1="2227.38" y1="1486" x2="1949.53" y2="1763.86"/>
      <line class="st2" x1="2228.03" y1="1485.35" x2="2227.38" y2="1486"/>
      <line class="st2" x1="2970.06" y1="1486" x2="2970.71" y2="1485.35"/>
      <line class="st2" x1="2970.06" y1="1486" x2="2692.2" y2="1763.86"/>
      <line class="st2" x1="3712.74" y1="1486" x2="3434.88" y2="1763.86"/>
      <line class="st2" x1="3713.38" y1="1485.35" x2="3712.74" y2="1486"/>
      <line class="st1" x1="4455.43" y1="0" x2="4456.06" y2="0"/>
      <line class="st1" x1="742.68" y1="0" x2="422.13" y2="0"/>
      <line class="st1" x1="4827.4" y1="1114.02" x2="4827.4" y2="760.54"/>
      <line class="st1" y1="389.45" y2="127.91"/>
      <line class="st1" x1="4827.4" y1="1503.22" x2="4827.4" y2="1115.3"/>
      <polyline class="st1" points="4827.4 16.83 4827.4 0 4456.06 0"/>
      <line class="st1" y1="742.68" y2="389.45"/>
      <line class="st1" x1="4135.52" y1="0" x2="3713.46" y2="0"/>
      <line class="st1" x1="1164.81" y1="0" x2="742.75" y2="0"/>
      <line class="st1" x1="2692.2" y1="1763.86" x2="1949.53" y2="1763.86"/>
      <line class="st1" x1="2228.03" y1="0" x2="1907.48" y2="0"/>
      <line class="st1" x1="4827.4" y1="16.83" x2="4827.4" y2="371.34"/>
      <line class="st1" x1="2970.71" y1="0" x2="2970.78" y2="0"/>
      <line class="st1" x1="2970.71" y1="0" x2="2650.16" y2="0"/>
      <line class="st1" x1="3392.84" y1="0" x2="2970.78" y2="0"/>
      <line class="st1" x1="4827.4" y1="760.54" x2="4827.4" y2="371.34"/>
      <line class="st1" x1="1206.85" y1="1763.86" x2="1949.53" y2="1763.86"/>
      <polyline class="st1" points="4177.56 1763.86 4827.4 1763.86 4827.4 1503.22"/>
      <line class="st1" x1="2228.1" y1="0" x2="2650.16" y2="0"/>
      <line class="st1" x1="3713.38" y1="0" x2="3713.46" y2="0"/>
      <polyline class="st1" points="0 1615.99 0 1763.86 464.17 1763.86"/>
      <line class="st1" x1="1206.85" y1="1763.86" x2="464.17" y2="1763.86"/>
      <line class="st1" x1="4827.4" y1="1114.02" x2="4827.4" y2="1115.3"/>
      <line class="st1" x1="3392.84" y1="0" x2="3713.38" y2="0"/>
      <line class="st1" y1="1615.99" y2="1486.64"/>
      <path class="st1" d="M422.13,0"/>
      <line class="st1" y1="1485.35" y2="1485.35"/>
      <line class="st1" y1="872.03" y2="742.68"/>
      <line class="st1" x1=".07" y1="0" y2="0"/>
      <line class="st1" y1="742.68" y2="742.68"/>
      <line class="st1" x1="2692.2" y1="1763.86" x2="3434.88" y2="1763.86"/>
      <line class="st1" y1="1133.42" y2="872.03"/>
      <line class="st1" y1="742.68" y2="742.68"/>
      <line class="st1" x1="1485.35" y1="0" x2="1485.43" y2="0"/>
      <line class="st1" y1="0" y2=".15"/>
      <line class="st1" x1="2228.1" y1="0" x2="2228.03" y2="0"/>
      <line class="st1" y1="1133.42" y2="1485.35"/>
      <polyline class="st1" points="422.13 0 0 .15 0 127.91"/>
      <line class="st1" x1="742.68" y1="0" x2="742.75" y2="0"/>
      <line class="st1" x1="1907.48" y1="0" x2="1485.43" y2="0"/>
      <line class="st1" x1="4177.56" y1="1763.86" x2="3434.88" y2="1763.86"/>
      <line class="st1" x1="1164.81" y1="0" x2="1485.35" y2="0"/>
      <line class="st1" x1="4455.43" y1="0" x2="4135.52" y2="0"/>
      <line class="st1" y1="1485.35" y2="1486.64"/>
    </g>
  </g>
  <g id="_x34_._Quadrat" class="st4">
    <circle class="st3" cx="557.01" cy="-464.17" r="21.26"/>
    <circle class="st3" cx="742.68" cy="-464.17" r="21.26"/>
    <circle class="st3" cx="557.01" cy="-278.5" r="21.26" transform="translate(360.08 312.29) rotate(-45)"/>
    <circle class="st3" cx="742.68" cy="-278.5" r="21.26" transform="translate(239.87 334.94) rotate(-30.1)"/>
    <circle class="st3" cx="928.35" cy="-464.17" r="21.26"/>
    <circle class="st3" cx="928.35" cy="-278.5" r="21.26" transform="translate(968.3 689.89) rotate(-75.66)"/>
    <circle class="st3" cx="557.01" cy="-92.83" r="21.26" transform="translate(518.16 470.52) rotate(-76.59)"/>
    <circle class="st3" cx="742.68" cy="-92.83" r="21.26" transform="translate(697.03 654.23) rotate(-79.38)"/>
    <circle class="st3" cx="928.35" cy="-92.83" r="21.26" transform="translate(400.93 676.76) rotate(-49.87)"/>
    <circle class="st3" cx="1114.02" cy="-464.17" r="21.26"/>
    <circle class="st3" cx="1114.02" cy="-278.5" r="21.26" transform="translate(523.22 706.16) rotate(-45)"/>
    <circle class="st3" cx="1114.02" cy="-92.83" r="21.26" transform="translate(946.02 1012.35) rotate(-76.59)"/>
    <circle class="st3" cx="557.01" cy="92.83" r="21.26" transform="translate(97.5 421.05) rotate(-45)"/>
    <circle class="st3" cx="1299.68" cy="-464.17" r="21.26"/>
    <circle class="st3" cx="557.01" cy="278.49" r="21.26"/>
    <circle class="st3" cx="742.68" cy="278.49" r="21.26"/>
    <circle class="st3" cx="928.35" cy="278.49" r="21.26"/>
    <circle class="st3" cx="1114.02" cy="278.49" r="21.26"/>
    <circle class="st3" cx="1299.68" cy="278.49" r="21.26"/>
    <circle class="st3" cx="1299.68" cy="-278.5" r="21.26" transform="translate(577.6 837.44) rotate(-45)"/>
    <circle class="st3" cx="1299.68" cy="-92.83" r="21.26" transform="translate(1091.43 1193.41) rotate(-76.72)"/>
    <circle class="st3" cx="1299.68" cy="92.83" r="21.26" transform="translate(315.02 946.2) rotate(-45)"/>
    <circle class="st3" cx="742.68" cy="92.83" r="21.26" transform="translate(53.61 385.03) rotate(-30.1)"/>
    <circle class="st3" cx="928.35" cy="92.83" r="21.26" transform="translate(608.52 969.28) rotate(-75.66)"/>
    <circle class="st3" cx="1114.02" cy="92.83" r="21.26" transform="translate(260.64 814.92) rotate(-45)"/>
  </g>
  <g id="_x28_50_x25__x29_" class="st4">
    <rect class="st0" x="185.67" y="-742.68" width="4270.39" height="2970.71"/>
  </g>
</svg>