<?xml version="1.0" encoding="UTF-8"?>
<svg id="Ebene_2" xmlns="http://www.w3.org/2000/svg" version="1.1" viewBox="0 0 311.81 141.73">
  <!-- Generator: Adobe Illustrator 29.1.0, SVG Export Plug-In . SVG Version: 2.1.0 Build 142)  -->
  <defs>
    <style>
      .st0 {
        stroke-miterlimit: 10;
      }

      .st0, .st1 {
        fill: none;
        stroke: #1e1e1c;
        stroke-width: 1.2px;
      }

      .st1 {
        stroke-linecap: round;
        stroke-linejoin: round;
      }

      .st2 {
        fill: #1d1d1b;
        font-family: Helvetica, Helvetica;
        font-size: 8px;
      }
    </style>
  </defs>
  <text class="st2" transform="translate(123.11 133.31)"><tspan x="0" y="0">60</tspan></text>
  <g id="_x36_0_x5F_rein">
    <g>
      <path class="st1" d="M36.13,75.6c6.23,10.8,22.33-5.54,24.94,0"/>
      <path class="st1" d="M48.59,32.38c6.23,10.8,22.33-5.54,24.94,0"/>
      <path class="st1" d="M61.07,75.6h0"/>
      <path class="st1" d="M73.87,65.4c5.43,10.42-6.68,16.4-12.8,10.2"/>
      <path class="st1" d="M73.87,65.4c-.1-.2-.21-.4-.33-.6"/>
      <path class="st1" d="M48.6,32.4c6.22,10.78-6.18,17.1-12.43,10.84"/>
      <path class="st1" d="M36.17,43.24s-.03-.03-.04-.04"/>
      <path class="st1" d="M73.52,32.44s.01-.02.02-.04"/>
      <path class="st1" d="M73.54,64.8c-5.85-10.79-6.23-21.57-.02-32.36"/>
      <path class="st1" d="M36.17,43.24s.01-.03.02-.04"/>
      <path class="st1" d="M36.17,43.24c-6.21,10.79-5.83,21.57.02,32.36"/>
      <path class="st1" d="M14.17,87.71c4.47-1.89,8.32-3.78,9.49-1.3"/>
      <path class="st1" d="M14.17,46.19c7.33,3.8,19.69-7.8,21.95-3"/>
      <path class="st1" d="M36.13,75.6c6.22,10.78-6.18,17.1-12.43,10.84"/>
      <path class="st1" d="M23.66,86.4s.03.03.04.04"/>
      <path class="st1" d="M61.07,107.99c.12.22.24.43.35.64"/>
      <path class="st1" d="M61.42,108.63c.89,1.72,1.3,3.31,1.35,4.75"/>
      <path class="st1" d="M61.07,75.6c-6.23,10.8-5.86,21.6,0,32.4"/>
      <path class="st1" d="M23.7,86.44s.02-.03.03-.05"/>
      <path class="st1" d="M23.7,86.44c-5.17,8.98-5.77,17.96-2.44,26.94"/>
      <path class="st1" d="M73.52,32.44c6.13,6.14,18.18.17,12.76-10.24"/>
      <path class="st1" d="M73.52,32.44s-.03-.03-.04-.04"/>
      <path class="st1" d="M86.28,22.21c-.1-.2-.21-.4-.33-.61"/>
      <path class="st1" d="M83.48,16.2c.67,1.8,1.49,3.6,2.47,5.4"/>
      <path class="st1" d="M48.6,32.4c-2.93-5.4-4.49-10.8-4.54-16.2"/>
      <path class="st1" d="M98.43,97.19c6.23,10.8,22.33-5.54,24.94,0"/>
      <path class="st1" d="M110.89,53.97c6.23,10.8,22.33-5.54,24.94,0"/>
      <path class="st1" d="M136.02,86.72c-.06-.11-.12-.22-.18-.33"/>
      <path class="st1" d="M136.02,86.72c5.8,10.6-6.48,16.73-12.65,10.47"/>
      <path class="st1" d="M98.47,64.83s-.03-.03-.04-.04"/>
      <path class="st1" d="M110.9,53.99c6.22,10.78-6.18,17.1-12.43,10.84"/>
      <path class="st1" d="M135.81,54.03s.01-.02.02-.04"/>
      <path class="st1" d="M135.84,86.39c-5.85-10.79-6.23-21.57-.02-32.36"/>
      <path class="st1" d="M98.49,64.79s-.01.03-.02.04"/>
      <path class="st1" d="M98.47,64.83c-6.21,10.79-5.83,21.57.02,32.36"/>
      <path class="st1" d="M85.96,107.99c-2.55-5.42-18.04,10.13-24.54.64"/>
      <path class="st1" d="M61.42,108.63c-.14-.2-.27-.41-.4-.64"/>
      <path class="st1" d="M73.87,65.4c-.14-.2-.27-.41-.39-.63"/>
      <path class="st1" d="M73.87,65.4c6.49,9.51,21.99-6.05,24.54-.63"/>
      <path class="st1" d="M98.42,97.19c6.22,10.78-6.18,17.1-12.43,10.84"/>
      <path class="st1" d="M85.99,108.03s-.03-.03-.04-.04"/>
      <path class="st1" d="M61.08,75.6s0,0,0,0"/>
      <path class="st1" d="M61.08,75.6c-6.23,10.8-5.86,21.59,0,32.39"/>
      <path class="st1" d="M123.37,97.19c-3.12,5.4-4.58,10.8-4.54,16.2"/>
      <path class="st1" d="M86.02,107.99s-.02.03-.03.05"/>
      <path class="st1" d="M85.99,108.03c-1.03,1.78-1.87,3.57-2.54,5.35"/>
      <path class="st1" d="M148.24,43.19c6.22,10.77-6.18,17.09-12.43,10.84"/>
      <path class="st1" d="M135.81,54.03s-.03-.03-.04-.04"/>
      <path class="st1" d="M110.87,21.63c5.11,5.12,14.33,1.83,14.12-5.43"/>
      <path class="st1" d="M110.87,21.63s-.03-.03-.04-.04"/>
      <path class="st1" d="M110.87,21.63s.01-.03.02-.04"/>
      <path class="st1" d="M110.9,53.99c-5.85-10.79-6.23-21.57-.02-32.36"/>
      <path class="st1" d="M86.28,22.21c6.49,9.51,21.99-6.05,24.54-.63"/>
      <path class="st1" d="M86.28,22.21c-.14-.2-.27-.41-.4-.63"/>
      <path class="st1" d="M173.22,75.57c6.23,10.8,22.33-5.54,24.94,0"/>
      <path class="st1" d="M185.68,32.36c6.23,10.8,22.33-5.54,24.94,0"/>
      <path class="st1" d="M210.96,65.38c5.43,10.42-6.68,16.4-12.8,10.2"/>
      <path class="st1" d="M198.16,75.57s0,0,0,0"/>
      <path class="st1" d="M210.96,65.38c-.1-.2-.21-.4-.33-.6"/>
      <path class="st1" d="M185.69,32.38c6.22,10.78-6.18,17.1-12.43,10.84"/>
      <path class="st1" d="M173.26,43.22s-.03-.03-.04-.04"/>
      <path class="st1" d="M210.63,64.78c-5.85-10.79-6.23-21.57-.02-32.36"/>
      <path class="st1" d="M210.61,32.42s.01-.02.02-.04"/>
      <path class="st1" d="M173.26,43.22s.01-.03.02-.04"/>
      <path class="st1" d="M173.26,43.22c-6.21,10.79-5.83,21.57.02,32.36"/>
      <path class="st1" d="M136.02,86.72c-.07-.11-.14-.22-.21-.34"/>
      <path class="st1" d="M136.02,86.72c6.38,10.1,22.15-5.82,24.73-.34"/>
      <path class="st1" d="M148.27,43.16c6.23,10.8,22.33-5.54,24.94,0"/>
      <path class="st1" d="M160.75,86.38s.03.03.04.04"/>
      <path class="st1" d="M173.22,75.58c6.22,10.78-6.18,17.1-12.43,10.84"/>
      <path class="st1" d="M198.16,107.97c.12.22.24.43.35.64"/>
      <path class="st1" d="M198.51,108.61c.89,1.73,1.31,3.33,1.35,4.78"/>
      <path class="st1" d="M198.16,75.57c-6.23,10.8-5.86,21.6,0,32.4"/>
      <path class="st1" d="M160.79,86.42c-5.17,8.99-5.77,17.98-2.43,26.97"/>
      <path class="st1" d="M160.79,86.42s.02-.03.03-.05"/>
      <path class="st1" d="M223.37,22.18c-.1-.2-.21-.4-.33-.6"/>
      <path class="st1" d="M210.61,32.42s-.03-.03-.04-.04"/>
      <path class="st1" d="M210.61,32.42c6.13,6.14,18.18.17,12.76-10.24"/>
      <path class="st1" d="M220.58,16.2c.67,1.79,1.49,3.59,2.46,5.38"/>
      <path class="st1" d="M185.69,32.37c-2.93-5.39-4.48-10.78-4.54-16.18"/>
      <path class="st1" d="M148.28,43.18c-4.88-8.99-5.96-17.99-2.58-26.98"/>
      <path class="st1" d="M235.52,97.16c1.4,2.42,3.3,3.48,5.43,3.72"/>
      <path class="st1" d="M235.56,64.81c1.54,1.55,3.46,2.33,5.39,2.46"/>
      <path class="st1" d="M235.56,64.81s-.03-.03-.04-.04"/>
      <path class="st1" d="M235.56,64.81s.01-.03.02-.04"/>
      <path class="st1" d="M235.56,64.81c-6.21,10.79-5.83,21.57.02,32.36"/>
      <path class="st1" d="M223.05,107.97c-2.55-5.42-18.04,10.13-24.54.64"/>
      <path class="st1" d="M198.51,108.61c-.14-.2-.27-.41-.4-.64"/>
      <path class="st1" d="M210.96,65.38c-.14-.2-.27-.41-.39-.63"/>
      <path class="st1" d="M210.96,65.38c6.49,9.51,21.99-6.05,24.54-.63"/>
      <path class="st1" d="M235.52,97.17c6.22,10.78-6.18,17.1-12.43,10.84"/>
      <path class="st1" d="M223.09,108.01s-.03-.03-.04-.04"/>
      <path class="st1" d="M198.17,75.58c-6.23,10.8-5.86,21.59,0,32.39"/>
      <path class="st1" d="M198.17,75.57s0,0,0,0"/>
      <path class="st1" d="M223.11,107.96s-.02.03-.03.05"/>
      <path class="st1" d="M223.09,108.01c-1.03,1.79-1.88,3.59-2.55,5.38"/>
      <path class="st1" d="M223.37,22.18c4.11,6.02,11.82,2,17.58-.39"/>
      <path class="st1" d="M223.37,22.18c-.14-.2-.27-.41-.39-.63"/>
      <polyline class="st0" points="14.17 46.19 14.17 16.2 44.06 16.2"/>
      <line class="st0" x1="14.17" y1="87.71" x2="14.17" y2="46.19"/>
      <line class="st0" x1="240.94" y1="21.79" x2="240.94" y2="67.27"/>
      <line class="st0" x1="62.77" y1="113.39" x2="83.45" y2="113.39"/>
      <line class="st0" x1="199.86" y1="113.39" x2="220.53" y2="113.39"/>
      <polyline class="st0" points="240.94 100.89 240.94 113.39 220.53 113.39"/>
      <line class="st0" x1="21.26" y1="113.39" x2="62.77" y2="113.39"/>
      <line class="st0" x1="44.06" y1="16.2" x2="83.48" y2="16.2"/>
      <line class="st0" x1="83.45" y1="113.39" x2="118.83" y2="113.39"/>
      <line class="st0" x1="158.36" y1="113.39" x2="118.83" y2="113.39"/>
      <line class="st0" x1="125" y1="16.2" x2="83.48" y2="16.2"/>
      <line class="st0" x1="125" y1="16.2" x2="145.7" y2="16.2"/>
      <line class="st0" x1="145.7" y1="16.2" x2="181.16" y2="16.2"/>
      <polyline class="st0" points="240.94 21.79 240.94 16.2 220.58 16.2"/>
      <line class="st0" x1="240.94" y1="67.27" x2="240.94" y2="100.89"/>
      <line class="st0" x1="158.36" y1="113.39" x2="199.86" y2="113.39"/>
      <polyline class="st0" points="14.17 87.71 14.17 113.39 21.26 113.39"/>
      <line class="st0" x1="181.16" y1="16.2" x2="220.58" y2="16.2"/>
    </g>
  </g>
</svg>