<?xml version="1.0" encoding="UTF-8"?>
<svg id="Ebene_2" xmlns="http://www.w3.org/2000/svg" version="1.1" viewBox="0 0 311.81 155.91">
  <!-- Generator: Adobe Illustrator 29.1.0, SVG Export Plug-In . SVG Version: 2.1.0 Build 142)  -->
  <defs>
    <style>
      .st0 {
        fill: none;
        stroke: #1e1e1c;
        stroke-miterlimit: 10;
        stroke-width: 1.2px;
      }

      .st1 {
        fill: #1d1d1b;
        font-family: Helvetica, Helvetica;
        font-size: 8px;
      }
    </style>
  </defs>
  <text class="st1" transform="translate(130.2 147.48)"><tspan x="0" y="0">62</tspan></text>
  <g id="_x36_2_x5F_rein">
    <g>
      <path class="st0" d="M142.68,14.17c0,12.05,12.05,8.03,32.13,0"/>
      <path class="st0" d="M78.42,14.17c0,12.05,12.05,8.03,32.13,0"/>
      <path class="st0" d="M206.93,14.17c0,12.05,12.05,8.03,32.13,0"/>
      <path class="st0" d="M14.17,14.17c0,12.05,12.05,8.03,32.13,0"/>
      <path class="st0" d="M206.93,46.3c-20.08,8.03-32.13,12.05-32.13,0s-12.05-8.03-32.13,0"/>
      <line class="st0" x1="78.42" y1="46.3" x2="78.42" y2="46.3"/>
      <path class="st0" d="M142.68,46.3c-20.08,8.03-32.13,12.05-32.13,0s-12.05-8.03-32.13,0"/>
      <line class="st0" x1="142.68" y1="46.3" x2="142.68" y2="46.3"/>
      <path class="st0" d="M206.93,46.3c20.08-8.03,32.13-12.05,32.13,0,0,8.36,5.8,8.98,16.06,5.9"/>
      <line class="st0" x1="206.93" y1="46.3" x2="206.93" y2="46.3"/>
      <line class="st0" x1="78.42" y1="46.3" x2="78.42" y2="46.3"/>
      <path class="st0" d="M78.42,46.3c-20.08,8.03-32.13,12.05-32.13,0s-12.05-8.03-32.13,0"/>
      <path class="st0" d="M142.68,110.55c20.08-8.03,32.13-12.05,32.13,0s12.05,8.03,32.13,0"/>
      <path class="st0" d="M142.68,110.55h0"/>
      <path class="st0" d="M78.42,110.55c20.08-8.03,32.13-12.05,32.13,0s12.05,8.03,32.13,0"/>
      <path class="st0" d="M206.93,110.55c20.08-8.03,32.13-12.05,32.13,0,0,8.36,5.8,8.98,16.06,5.9"/>
      <line class="st0" x1="78.42" y1="110.55" x2="78.42" y2="110.55"/>
      <path class="st0" d="M14.17,110.55c20.08-8.03,32.13-12.05,32.13,0s12.05,8.03,32.13,0"/>
      <path class="st0" d="M174.8,78.43h0"/>
      <path class="st0" d="M174.8,78.43c-20.08,8.03-32.13,12.05-32.13,0s-12.05-8.03-32.13,0"/>
      <path class="st0" d="M110.55,78.43h0"/>
      <path class="st0" d="M110.55,78.43c-20.08,8.03-32.13,12.05-32.13,0s-12.05-8.03-32.13,0"/>
      <path class="st0" d="M174.8,78.43c20.08-8.03,32.13-12.05,32.13,0s12.05,8.03,32.13,0"/>
      <path class="st0" d="M46.3,78.43h0"/>
      <path class="st0" d="M46.3,78.43c-20.08,8.03-32.13,12.05-32.13,0v-.02"/>
      <path class="st0" d="M239.05,78.43c6.15-2.46,11.54-4.54,16.06-5.9"/>
      <path class="st0" d="M14.17,46.3h0"/>
      <path class="st0" d="M14.17,46.3c4.02-20.08,28.11-12.05,32.13-32.13"/>
      <path class="st0" d="M78.42,46.3c4.02-20.08,28.11-12.05,32.13-32.13"/>
      <path class="st0" d="M46.3,78.43h0"/>
      <path class="st0" d="M46.3,78.43c-4.02,20.08-28.11,12.05-32.13,32.13"/>
      <path class="st0" d="M142.68,46.3c4.02-20.08,28.11-12.05,32.13-32.13"/>
      <path class="st0" d="M110.55,78.43c-4.02,20.08-28.11,12.05-32.13,32.13"/>
      <line class="st0" x1="110.55" y1="78.43" x2="110.55" y2="78.43"/>
      <path class="st0" d="M206.93,46.3c4.02-20.08,28.11-12.05,32.13-32.13"/>
      <path class="st0" d="M174.8,78.43h0"/>
      <path class="st0" d="M174.8,78.43c-4.02,20.08-28.11,12.05-32.13,32.13"/>
      <path class="st0" d="M206.93,110.55c4.02-20.08,28.11-12.05,32.13-32.13"/>
      <line class="st0" x1="14.17" y1="78.41" x2="14.17" y2="110.55"/>
      <line class="st0" x1="14.17" y1="46.3" x2="14.17" y2="78.41"/>
      <line class="st0" x1="239.05" y1="14.17" x2="239.05" y2="14.17"/>
      <line class="st0" x1="206.93" y1="14.17" x2="174.8" y2="14.17"/>
      <line class="st0" x1="174.8" y1="14.17" x2="142.68" y2="14.17"/>
      <line class="st0" x1="110.55" y1="14.17" x2="110.55" y2="14.17"/>
      <polyline class="st0" points="14.17 110.55 14.17 126.61 62.36 126.61"/>
      <line class="st0" x1="174.8" y1="14.17" x2="174.8" y2="14.17"/>
      <line class="st0" x1="142.68" y1="14.17" x2="110.55" y2="14.17"/>
      <line class="st0" x1="239.05" y1="14.17" x2="206.93" y2="14.17"/>
      <line class="st0" x1="110.55" y1="14.17" x2="78.42" y2="14.17"/>
      <line class="st0" x1="255.12" y1="116.45" x2="255.12" y2="72.53"/>
      <path class="st0" d="M46.3,14.17"/>
      <line class="st0" x1="78.42" y1="14.17" x2="46.3" y2="14.17"/>
      <line class="st0" x1="46.3" y1="14.17" x2="46.3" y2="14.17"/>
      <line class="st0" x1="190.87" y1="126.61" x2="126.61" y2="126.61"/>
      <polyline class="st0" points="255.12 116.45 255.12 126.61 190.87 126.61"/>
      <line class="st0" x1="126.61" y1="126.61" x2="62.36" y2="126.61"/>
      <line class="st0" x1="255.12" y1="52.2" x2="255.12" y2="62.36"/>
      <line class="st0" x1="255.12" y1="62.36" x2="255.12" y2="72.53"/>
      <polyline class="st0" points="255.12 52.2 255.12 14.17 239.05 14.17"/>
      <polyline class="st0" points="46.3 14.17 46.3 14.17 14.17 14.17 14.17 46.3"/>
      <line class="st0" x1="78.42" y1="46.3" x2="78.42" y2="46.3"/>
      <path class="st0" d="M78.42,46.3c-4.02,20.08-28.11,12.05-32.13,32.13"/>
      <line class="st0" x1="78.42" y1="46.3" x2="78.42" y2="46.3"/>
      <path class="st0" d="M142.68,46.3h0"/>
      <path class="st0" d="M142.68,46.3c-4.02,20.08-28.11,12.05-32.13,32.13"/>
      <line class="st0" x1="206.93" y1="46.3" x2="206.93" y2="46.3"/>
      <path class="st0" d="M206.93,46.3c-4.02,20.08-28.11,12.05-32.13,32.13"/>
      <path class="st0" d="M255.12,62.36c-7.03,3.01-14.06,6.02-16.06,16.06"/>
      <path class="st0" d="M78.42,110.55c-2.01,10.04-9.04,13.05-16.06,16.06"/>
      <line class="st0" x1="78.42" y1="110.55" x2="78.42" y2="110.55"/>
      <line class="st0" x1="142.68" y1="110.55" x2="142.68" y2="110.55"/>
      <path class="st0" d="M142.68,110.55c-2.01,10.04-9.04,13.05-16.06,16.06"/>
      <path class="st0" d="M206.93,110.55c-2.01,10.04-9.04,13.05-16.06,16.06"/>
    </g>
  </g>
</svg>