<?xml version="1.0" encoding="UTF-8"?>
<svg id="Ebene_2" xmlns="http://www.w3.org/2000/svg" version="1.1" viewBox="0 0 311.81 146.72">
  <!-- Generator: Adobe Illustrator 29.1.0, SVG Export Plug-In . SVG Version: 2.1.0 Build 142)  -->
  <defs>
    <style>
      .st0 {
        stroke-miterlimit: 10;
      }

      .st0, .st1 {
        fill: none;
        stroke: #1e1e1c;
        stroke-width: 1.2px;
      }

      .st1 {
        stroke-linecap: round;
        stroke-linejoin: round;
      }

      .st2 {
        fill: #1d1d1b;
        font-family: Helvetica, Helvetica;
        font-size: 8px;
      }
    </style>
  </defs>
  <text class="st2" transform="translate(130.2 138.41)"><tspan x="0" y="0">63</tspan></text>
  <g id="_x36_3_x5F_rein">
    <g>
      <line class="st0" x1="169.07" y1="117.44" x2="134.65" y2="117.44"/>
      <line class="st0" x1="100.23" y1="14.17" x2="134.65" y2="14.17"/>
      <line class="st0" x1="169.07" y1="14.17" x2="134.65" y2="14.17"/>
      <line class="st0" x1="169.07" y1="117.44" x2="203.49" y2="117.44"/>
      <line class="st0" x1="237.91" y1="117.44" x2="203.49" y2="117.44"/>
      <line class="st0" x1="237.91" y1="14.17" x2="203.49" y2="14.17"/>
      <line class="st0" x1="169.07" y1="14.17" x2="203.49" y2="14.17"/>
      <line class="st0" x1="14.17" y1="81.45" x2="14.17" y2="100.23"/>
      <line class="st0" x1="31.38" y1="117.44" x2="65.8" y2="117.44"/>
      <line class="st0" x1="31.38" y1="14.17" x2="65.8" y2="14.17"/>
      <line class="st0" x1="14.17" y1="65.8" x2="14.17" y2="50.16"/>
      <line class="st0" x1="100.23" y1="117.44" x2="134.65" y2="117.44"/>
      <line class="st0" x1="100.23" y1="14.17" x2="65.8" y2="14.17"/>
      <line class="st0" x1="100.23" y1="117.44" x2="65.8" y2="117.44"/>
      <line class="st0" x1="65.8" y1="117.44" x2="65.8" y2="117.44"/>
      <line class="st0" x1="134.65" y1="117.44" x2="134.65" y2="117.44"/>
      <line class="st0" x1="169.07" y1="14.17" x2="169.07" y2="14.17"/>
      <line class="st0" x1="255.12" y1="115.87" x2="255.12" y2="100.23"/>
      <line class="st0" x1="203.49" y1="117.44" x2="203.49" y2="117.44"/>
      <line class="st0" x1="31.38" y1="14.17" x2="31.38" y2="14.17"/>
      <line class="st0" x1="100.23" y1="14.17" x2="100.23" y2="14.17"/>
      <line class="st0" x1="14.17" y1="31.38" x2="14.17" y2="50.16"/>
      <polyline class="st0" points="255.12 115.87 255.12 117.44 237.91 117.44"/>
      <line class="st0" x1="255.12" y1="47.03" x2="255.12" y2="65.8"/>
      <line class="st0" x1="255.12" y1="31.38" x2="255.12" y2="15.74"/>
      <line class="st0" x1="255.12" y1="31.38" x2="255.12" y2="47.03"/>
      <line class="st0" x1="237.91" y1="14.17" x2="237.91" y2="14.17"/>
      <line class="st0" x1="255.12" y1="65.8" x2="255.12" y2="84.58"/>
      <polyline class="st0" points="255.12 15.74 255.12 14.17 237.91 14.17"/>
      <line class="st0" x1="255.12" y1="100.23" x2="255.12" y2="84.58"/>
      <line class="st0" x1="14.17" y1="81.45" x2="14.17" y2="65.8"/>
      <polyline class="st0" points="31.38 14.17 14.17 14.17 14.17 31.38"/>
      <polyline class="st0" points="31.38 117.44 14.17 117.44 14.17 100.23"/>
      <path class="st1" d="M65.8,48.6h0"/>
      <path class="st1" d="M31.38,83.01c4.3-21.51,30.12-12.91,34.42-34.42"/>
      <path class="st1" d="M100.23,48.59c-4.3,21.51-30.12,12.91-34.42,34.42"/>
      <line class="st1" x1="100.23" y1="48.59" x2="100.23" y2="48.59"/>
      <path class="st1" d="M134.65,48.6h0"/>
      <path class="st1" d="M100.23,83.01c4.3-21.51,30.12-12.91,34.42-34.42"/>
      <line class="st1" x1="169.07" y1="48.59" x2="169.07" y2="48.59"/>
      <path class="st1" d="M169.07,48.59c-4.3,21.51-30.12,12.91-34.42,34.42"/>
      <path class="st1" d="M203.49,48.6h0"/>
      <path class="st1" d="M169.07,83.01c4.3-21.51,30.12-12.91,34.42-34.42"/>
      <path class="st1" d="M237.91,48.59c-4.3,21.51-30.12,12.91-34.42,34.42"/>
      <line class="st1" x1="237.91" y1="48.59" x2="237.91" y2="48.59"/>
      <path class="st1" d="M255.12,65.8c-7.53,3.23-15.06,6.45-17.21,17.21"/>
      <line class="st0" x1="65.8" y1="14.17" x2="65.8" y2="14.17"/>
      <path class="st1" d="M31.38,48.59c4.3-21.51,30.12-12.91,34.42-34.42"/>
      <line class="st0" x1="100.23" y1="14.17" x2="100.23" y2="14.17"/>
      <path class="st0" d="M100.23,14.17h0"/>
      <path class="st1" d="M100.23,14.17c-4.3,21.51-30.12,12.91-34.42,34.42"/>
      <path class="st1" d="M100.23,48.59c4.3-21.51,30.12-12.91,34.42-34.42"/>
      <line class="st0" x1="134.65" y1="14.17" x2="134.65" y2="14.17"/>
      <path class="st1" d="M169.07,14.17c-4.3,21.51-30.12,12.91-34.42,34.42"/>
      <path class="st0" d="M169.07,14.17h0"/>
      <line class="st0" x1="169.07" y1="14.17" x2="169.07" y2="14.17"/>
      <line class="st1" x1="31.38" y1="48.59" x2="31.38" y2="48.59"/>
      <path class="st1" d="M31.38,48.59c-2.15,10.76-9.68,13.98-17.21,17.21"/>
      <path class="st1" d="M31.38,14.17c-2.15,10.76-9.68,13.98-17.21,17.21"/>
      <path class="st0" d="M31.38,14.17h0"/>
      <line class="st0" x1="31.38" y1="14.17" x2="31.38" y2="14.17"/>
      <line class="st0" x1="203.49" y1="14.17" x2="203.49" y2="14.17"/>
      <path class="st1" d="M169.07,48.59c4.3-21.51,30.12-12.91,34.42-34.42"/>
      <path class="st1" d="M237.91,14.17c-4.3,21.51-30.12,12.91-34.42,34.42"/>
      <line class="st0" x1="237.91" y1="14.17" x2="237.91" y2="14.17"/>
      <path class="st0" d="M237.91,14.17h0"/>
      <path class="st1" d="M255.12,31.38c-7.53,3.23-15.06,6.45-17.21,17.21"/>
      <path class="st0" d="M65.8,117.44h0"/>
      <path class="st0" d="M134.65,117.44h0"/>
      <path class="st0" d="M203.49,117.44h0"/>
      <line class="st1" x1="65.8" y1="83.01" x2="65.8" y2="83.01"/>
      <path class="st1" d="M31.38,117.44c4.3-21.51,30.12-12.91,34.42-34.42"/>
      <path class="st1" d="M65.8,117.44c4.3-21.51,30.12-12.91,34.42-34.42"/>
      <path class="st1" d="M100.23,83.01h0"/>
      <path class="st1" d="M100.23,117.44c4.3-21.51,30.12-12.91,34.42-34.42"/>
      <line class="st1" x1="134.65" y1="83.01" x2="134.65" y2="83.01"/>
      <path class="st1" d="M169.07,83.01h0"/>
      <path class="st1" d="M134.65,117.44c4.3-21.51,30.12-12.91,34.42-34.42"/>
      <path class="st1" d="M31.38,83.01c-2.15,10.76-9.68,13.98-17.21,17.21"/>
      <path class="st1" d="M31.38,83.01h0"/>
      <path class="st1" d="M169.07,117.44c4.3-21.51,30.12-12.91,34.42-34.42"/>
      <line class="st1" x1="203.49" y1="83.01" x2="203.49" y2="83.01"/>
      <path class="st1" d="M237.91,83.01h0"/>
      <path class="st1" d="M203.49,117.44c4.3-21.51,30.12-12.91,34.42-34.42"/>
      <path class="st1" d="M255.12,100.23c-7.53,3.23-15.06,6.45-17.21,17.21"/>
      <line class="st1" x1="35.69" y1="22.78" x2="35.69" y2="22.78"/>
      <line class="st0" x1="31.38" y1="14.17" x2="31.38" y2="14.17"/>
      <line class="st1" x1="31.38" y1="14.17" x2="35.69" y2="22.78"/>
      <path class="st1" d="M35.69,22.78c8.6-8.6,21.51-8.6,30.12-8.6"/>
      <line class="st1" x1="35.69" y1="22.78" x2="35.69" y2="22.78"/>
      <line class="st1" x1="104.53" y1="22.78" x2="104.53" y2="22.78"/>
      <line class="st0" x1="100.23" y1="14.17" x2="100.23" y2="14.17"/>
      <line class="st1" x1="100.23" y1="14.17" x2="104.53" y2="22.78"/>
      <line class="st1" x1="104.53" y1="22.78" x2="104.53" y2="22.78"/>
      <path class="st1" d="M104.53,22.78c8.6-8.6,21.51-8.6,30.12-8.6"/>
      <line class="st1" x1="169.07" y1="14.17" x2="173.37" y2="22.78"/>
      <line class="st1" x1="173.37" y1="22.78" x2="173.37" y2="22.78"/>
      <line class="st0" x1="169.07" y1="14.17" x2="169.07" y2="14.17"/>
      <path class="st1" d="M173.37,22.78c8.61-8.6,21.51-8.6,30.12-8.6"/>
      <path class="st1" d="M173.37,22.78h0"/>
      <line class="st1" x1="242.21" y1="22.78" x2="242.21" y2="22.78"/>
      <line class="st1" x1="237.91" y1="14.17" x2="242.21" y2="22.78"/>
      <line class="st0" x1="237.91" y1="14.17" x2="237.91" y2="14.17"/>
      <path class="st1" d="M242.21,22.78c3.73-3.73,8.26-5.84,12.91-7.04"/>
      <path class="st1" d="M242.21,22.78h0"/>
      <path class="st1" d="M27.08,74.41c-3.73,3.73-8.26,5.84-12.91,7.04"/>
      <line class="st1" x1="35.69" y1="91.62" x2="31.38" y2="83.01"/>
      <line class="st1" x1="27.08" y1="74.41" x2="31.38" y2="83.01"/>
      <line class="st1" x1="35.69" y1="91.62" x2="35.69" y2="91.62"/>
      <path class="st1" d="M35.69,91.62h0"/>
      <path class="st1" d="M65.8,83.01c-8.6,0-21.51,0-30.12,8.6"/>
      <path class="st1" d="M95.92,74.41c-8.6,8.6-21.51,8.6-30.12,8.6"/>
      <line class="st1" x1="65.8" y1="83.01" x2="65.8" y2="83.01"/>
      <line class="st1" x1="100.23" y1="83.02" x2="95.92" y2="74.41"/>
      <line class="st1" x1="104.53" y1="91.62" x2="100.23" y2="83.02"/>
      <line class="st1" x1="104.53" y1="91.62" x2="104.53" y2="91.62"/>
      <path class="st1" d="M104.53,91.62h0"/>
      <path class="st1" d="M134.65,83.01c-8.6,0-21.51,0-30.12,8.6"/>
      <path class="st1" d="M134.65,83.01h0"/>
      <path class="st1" d="M164.76,74.41c-8.6,8.6-21.51,8.6-30.12,8.6"/>
      <line class="st1" x1="164.76" y1="74.41" x2="169.07" y2="83.02"/>
      <line class="st1" x1="173.37" y1="91.62" x2="173.37" y2="91.62"/>
      <line class="st1" x1="173.37" y1="91.62" x2="169.07" y2="83.02"/>
      <line class="st1" x1="173.37" y1="91.62" x2="173.37" y2="91.62"/>
      <path class="st1" d="M203.49,83.01c-8.6,0-21.51,0-30.12,8.6"/>
      <path class="st1" d="M233.6,74.41c-8.61,8.6-21.51,8.6-30.12,8.6"/>
      <path class="st1" d="M203.49,83.01h0"/>
      <line class="st1" x1="242.21" y1="91.62" x2="242.21" y2="91.62"/>
      <line class="st1" x1="237.91" y1="83.02" x2="242.21" y2="91.62"/>
      <line class="st1" x1="233.6" y1="74.41" x2="237.91" y2="83.02"/>
      <path class="st1" d="M242.21,91.62h0"/>
      <path class="st1" d="M242.21,91.62c3.73-3.73,8.26-5.84,12.91-7.04"/>
      <path class="st1" d="M31.38,48.6c-4.88,0-11.14,0-17.21,1.57"/>
      <line class="st1" x1="31.38" y1="48.59" x2="31.38" y2="48.59"/>
      <path class="st1" d="M61.5,39.99c-8.6,8.61-21.51,8.6-30.12,8.6"/>
      <line class="st1" x1="65.8" y1="48.6" x2="70.11" y2="57.2"/>
      <line class="st1" x1="61.5" y1="39.99" x2="65.8" y2="48.6"/>
      <line class="st1" x1="70.11" y1="57.2" x2="70.11" y2="57.2"/>
      <line class="st1" x1="70.11" y1="57.2" x2="70.11" y2="57.2"/>
      <path class="st1" d="M100.23,48.6c-8.6,0-21.51,0-30.12,8.6"/>
      <path class="st1" d="M130.34,39.99c-8.6,8.6-21.51,8.6-30.12,8.6"/>
      <path class="st1" d="M100.23,48.59h0"/>
      <line class="st1" x1="134.65" y1="48.6" x2="138.95" y2="57.2"/>
      <line class="st1" x1="130.34" y1="39.99" x2="134.65" y2="48.6"/>
      <line class="st1" x1="138.95" y1="57.2" x2="138.95" y2="57.2"/>
      <path class="st1" d="M169.07,48.6c-8.6,0-21.51,0-30.12,8.6"/>
      <path class="st1" d="M138.95,57.2h0"/>
      <path class="st1" d="M169.07,48.59c8.6,0,21.51,0,30.12-8.6"/>
      <path class="st1" d="M169.07,48.59h0"/>
      <line class="st1" x1="203.49" y1="48.6" x2="207.79" y2="57.2"/>
      <line class="st1" x1="199.18" y1="39.99" x2="203.49" y2="48.6"/>
      <line class="st1" x1="207.79" y1="57.2" x2="207.79" y2="57.2"/>
      <path class="st1" d="M207.79,57.2h0"/>
      <path class="st1" d="M237.91,48.6c-8.6,0-21.51,0-30.12,8.6"/>
      <path class="st1" d="M255.12,47.03c-6.07,1.57-12.33,1.57-17.21,1.57"/>
      <path class="st1" d="M237.91,48.59h0"/>
      <path class="st1" d="M61.5,108.83c-8.6,8.6-21.51,8.6-30.12,8.6"/>
      <line class="st1" x1="65.8" y1="117.44" x2="61.5" y2="108.83"/>
      <line class="st0" x1="65.8" y1="117.44" x2="65.8" y2="117.44"/>
      <path class="st1" d="M130.34,108.83c-8.6,8.6-21.51,8.6-30.12,8.6"/>
      <line class="st0" x1="134.65" y1="117.44" x2="134.65" y2="117.44"/>
      <line class="st1" x1="134.65" y1="117.44" x2="130.34" y2="108.83"/>
      <path class="st1" d="M169.07,117.44c8.6,0,21.51,0,30.12-8.6"/>
      <line class="st1" x1="203.49" y1="117.44" x2="199.18" y2="108.83"/>
      <line class="st0" x1="203.49" y1="117.44" x2="203.49" y2="117.44"/>
    </g>
  </g>
</svg>