<?xml version="1.0" encoding="UTF-8"?>
<svg id="Ebene_2" xmlns="http://www.w3.org/2000/svg" version="1.1" viewBox="0 0 311.81 146.64">
  <!-- Generator: Adobe Illustrator 29.1.0, SVG Export Plug-In . SVG Version: 2.1.0 Build 142)  -->
  <defs>
    <style>
      .st0 {
        fill: none;
        stroke: #1e1e1c;
        stroke-miterlimit: 10;
        stroke-width: 1.2px;
      }

      .st1 {
        fill: #1d1d1b;
        font-family: Helvetica, Helvetica;
        font-size: 8px;
      }
    </style>
  </defs>
  <text class="st1" transform="translate(130.2 138.13)"><tspan x="0" y="0">64</tspan></text>
  <g id="_x36_4_x5F_rein">
    <g>
      <path class="st0" d="M65.8,14.17h0"/>
      <path class="st0" d="M47.63,14.17c5.78,4.13,11.29,6.88,18.17,0"/>
      <path class="st0" d="M99.26,14.17c5.78,4.13,11.29,6.88,18.17,0"/>
      <path class="st0" d="M117.44,14.17h0"/>
      <path class="st0" d="M150.89,14.17c5.78,4.13,11.29,6.88,18.17,0"/>
      <line class="st0" x1="169.07" y1="14.17" x2="169.07" y2="14.17"/>
      <path class="st0" d="M202.52,14.17c5.78,4.13,11.29,6.88,18.17,0"/>
      <line class="st0" x1="220.7" y1="14.17" x2="220.7" y2="14.17"/>
      <path class="st0" d="M65.8,48.59c-17.21,17.21-25.82-25.82-51.63,0"/>
      <path class="st0" d="M65.8,48.59c25.82-25.82,34.42,17.21,51.63,0"/>
      <path class="st0" d="M169.07,48.59c-17.21,17.21-25.82-25.82-51.63,0"/>
      <path class="st0" d="M169.07,48.59c25.82-25.82,34.42,17.21,51.63,0"/>
      <path class="st0" d="M255.12,49.27c-8.96-6.15-18.36-16.74-34.42-.68"/>
      <path class="st0" d="M14.17,83.01c25.82-25.82,34.42,17.21,51.63,0"/>
      <path class="st0" d="M65.8,83.01c25.82-25.82,34.42,17.21,51.63,0"/>
      <path class="st0" d="M117.44,83.01c25.82-25.82,34.42,17.21,51.63,0"/>
      <path class="st0" d="M169.07,83.01c25.82-25.82,34.42,17.21,51.63,0"/>
      <path class="st0" d="M220.7,83.01c16.06-16.06,25.46-5.47,34.42.68"/>
      <path class="st0" d="M47.63,117.44c-8.67-6.2-17.97-15.49-33.46,0"/>
      <path class="st0" d="M99.26,117.44c-8.67-6.2-17.97-15.49-33.46,0"/>
      <path class="st0" d="M150.89,117.44c-8.67-6.2-17.97-15.49-33.46,0"/>
      <path class="st0" d="M202.52,117.44c-8.67-6.2-17.97-15.49-33.46,0"/>
      <path class="st0" d="M254.16,117.44c-8.67-6.2-17.97-15.49-33.46,0"/>
      <path class="st0" d="M65.8,48.59c4.3-8.6,8.6-21.51,0-34.42"/>
      <path class="st0" d="M65.8,83.01c4.3-8.6,8.6-21.51,0-34.42"/>
      <path class="st0" d="M65.8,117.44c4.3-8.6,8.6-21.51,0-34.42"/>
      <path class="st0" d="M14.17,14.17c8.6,12.91,4.3,25.82,0,34.42"/>
      <path class="st0" d="M14.17,83.01c4.3-8.6,8.6-21.51,0-34.42"/>
      <path class="st0" d="M14.17,117.44c4.3-8.6,8.6-21.51,0-34.42"/>
      <path class="st0" d="M117.44,14.17c8.6,12.91,4.3,25.82,0,34.42"/>
      <path class="st0" d="M117.44,83.01c4.3-8.6,8.6-21.51,0-34.42"/>
      <path class="st0" d="M117.44,117.44c4.3-8.6,8.6-21.51,0-34.42"/>
      <path class="st0" d="M169.07,48.59c4.3-8.6,8.6-21.51,0-34.42"/>
      <path class="st0" d="M169.07,83.01c4.3-8.6,8.6-21.51,0-34.42"/>
      <path class="st0" d="M169.07,117.44c4.3-8.6,8.6-21.51,0-34.42"/>
      <path class="st0" d="M220.7,14.17c8.61,12.91,4.3,25.82,0,34.42"/>
      <path class="st0" d="M220.7,83.01c4.3-8.6,8.61-21.51,0-34.42"/>
      <path class="st0" d="M220.7,117.44c4.3-8.6,8.61-21.51,0-34.42"/>
      <line class="st0" x1="169.07" y1="14.17" x2="150.89" y2="14.17"/>
      <line class="st0" x1="255.12" y1="49.27" x2="255.12" y2="14.85"/>
      <line class="st0" x1="220.7" y1="14.17" x2="202.52" y2="14.17"/>
      <line class="st0" x1="14.17" y1="117.44" x2="14.17" y2="117.44"/>
      <line class="st0" x1="47.63" y1="14.17" x2="65.8" y2="14.17"/>
      <line class="st0" x1="117.44" y1="14.17" x2="99.26" y2="14.17"/>
      <polyline class="st0" points="14.17 83.01 14.17 117.44 47.63 117.44"/>
      <line class="st0" x1="65.8" y1="117.44" x2="47.63" y2="117.44"/>
      <line class="st0" x1="65.8" y1="117.44" x2="99.26" y2="117.44"/>
      <line class="st0" x1="14.17" y1="48.6" x2="14.17" y2="48.59"/>
      <line class="st0" x1="14.17" y1="14.17" x2="14.17" y2="48.59"/>
      <polyline class="st0" points="47.63 14.17 14.17 14.17 14.17 18.48"/>
      <line class="st0" x1="14.17" y1="83.01" x2="14.17" y2="48.6"/>
      <line class="st0" x1="14.17" y1="83.01" x2="14.17" y2="83.01"/>
      <line class="st0" x1="255.12" y1="83.69" x2="255.12" y2="49.27"/>
      <line class="st0" x1="169.07" y1="14.17" x2="202.52" y2="14.17"/>
      <path class="st0" d="M14.17,83.01"/>
      <line class="st0" x1="220.7" y1="14.17" x2="254.16" y2="14.17"/>
      <polyline class="st0" points="255.12 14.85 255.12 14.17 254.16 14.17"/>
      <line class="st0" x1="117.44" y1="14.17" x2="117.44" y2="14.17"/>
      <line class="st0" x1="117.44" y1="14.17" x2="150.89" y2="14.17"/>
      <line class="st0" x1="220.7" y1="117.44" x2="254.16" y2="117.44"/>
      <line class="st0" x1="169.07" y1="14.17" x2="169.07" y2="14.17"/>
      <line class="st0" x1="220.7" y1="14.17" x2="220.7" y2="14.17"/>
      <line class="st0" x1="202.52" y1="117.44" x2="220.7" y2="117.44"/>
      <polyline class="st0" points="255.12 83.69 255.12 117.44 254.16 117.44"/>
      <line class="st0" x1="65.8" y1="14.17" x2="65.8" y2="14.17"/>
      <line class="st0" x1="117.44" y1="117.44" x2="150.89" y2="117.44"/>
      <line class="st0" x1="169.07" y1="117.44" x2="150.89" y2="117.44"/>
      <line class="st0" x1="65.8" y1="14.17" x2="99.26" y2="14.17"/>
      <line class="st0" x1="99.26" y1="117.44" x2="117.44" y2="117.44"/>
      <line class="st0" x1="169.07" y1="117.44" x2="202.52" y2="117.44"/>
    </g>
  </g>
</svg>