<?xml version="1.0" encoding="UTF-8"?>
<svg id="Ebene_2" xmlns="http://www.w3.org/2000/svg" version="1.1" viewBox="0 0 311.81 146.59">
  <!-- Generator: Adobe Illustrator 29.1.0, SVG Export Plug-In . SVG Version: 2.1.0 Build 142)  -->
  <defs>
    <style>
      .st0 {
        stroke-miterlimit: 10;
      }

      .st0, .st1 {
        fill: none;
        stroke: #1e1e1c;
        stroke-width: 1.2px;
      }

      .st2 {
        fill: #1e1e1c;
        font-family: Helvetica, Helvetica;
        font-size: 8px;
      }

      .st2, .st3 {
        isolation: isolate;
      }

      .st1 {
        stroke-linecap: round;
        stroke-linejoin: round;
      }
    </style>
  </defs>
  <g class="st3">
    <text class="st2" transform="translate(130.2 138.13)"><tspan x="0" y="0">65</tspan></text>
  </g>
  <g id="_x36_5_x5F_rein">
    <path class="st0" d="M14.17,14.17h0"/>
    <line class="st1" x1="48.59" y1="14.17" x2="52.9" y2="22.78"/>
    <line class="st1" x1="52.9" y1="22.78" x2="52.9" y2="22.78"/>
    <path class="st1" d="M83.02,14.17c-8.6,0-21.51,0-30.12,8.6"/>
    <line class="st1" x1="52.9" y1="22.78" x2="52.9" y2="22.78"/>
    <path class="st0" d="M83.02,14.17h0"/>
    <line class="st1" x1="117.44" y1="14.17" x2="121.74" y2="22.78"/>
    <line class="st1" x1="121.74" y1="22.78" x2="121.74" y2="22.78"/>
    <path class="st1" d="M151.86,14.17c-8.6,0-21.51,0-30.12,8.6"/>
    <path class="st1" d="M121.74,22.78h0"/>
    <path class="st0" d="M151.86,14.17h0"/>
    <line class="st1" x1="186.28" y1="14.17" x2="190.58" y2="22.78"/>
    <line class="st1" x1="190.58" y1="22.78" x2="190.58" y2="22.78"/>
    <path class="st1" d="M220.7,14.17c-8.6,0-21.51,0-30.12,8.6"/>
    <path class="st1" d="M190.58,22.78h0"/>
    <line class="st0" x1="220.7" y1="14.17" x2="220.7" y2="14.17"/>
    <line class="st0" x1="255.12" y1="14.17" x2="255.12" y2="14.17"/>
    <path class="st1" d="M14.17,48.59c8.6,0,21.51,0,30.12-8.6"/>
    <path class="st0" d="M14.17,48.59h0"/>
    <line class="st1" x1="52.9" y1="57.2" x2="44.29" y2="39.99"/>
    <line class="st1" x1="52.9" y1="57.2" x2="52.9" y2="57.2"/>
    <path class="st1" d="M52.9,57.2c8.6-8.6,21.51-8.6,30.12-8.6"/>
    <line class="st1" x1="52.9" y1="57.2" x2="52.9" y2="57.2"/>
    <path class="st1" d="M83.02,48.59h0"/>
    <path class="st1" d="M83.02,48.59c8.6,0,21.51,0,30.12-8.6"/>
    <line class="st1" x1="121.74" y1="57.2" x2="113.13" y2="39.99"/>
    <line class="st1" x1="121.74" y1="57.2" x2="121.74" y2="57.2"/>
    <path class="st1" d="M121.74,57.2h0"/>
    <path class="st1" d="M151.86,48.59c-8.6,0-21.51,0-30.12,8.6"/>
    <path class="st1" d="M151.86,48.59c8.6,0,21.51,0,30.12-8.6"/>
    <path class="st1" d="M151.86,48.59h0"/>
    <line class="st1" x1="190.58" y1="57.2" x2="190.58" y2="57.2"/>
    <line class="st1" x1="190.58" y1="57.2" x2="181.97" y2="39.99"/>
    <path class="st1" d="M190.58,57.2h0"/>
    <path class="st1" d="M220.7,48.59c-8.6,0-21.51,0-30.12,8.6"/>
    <path class="st1" d="M220.7,48.59c8.6,0,21.51,0,30.12-8.6"/>
    <line class="st1" x1="220.7" y1="48.59" x2="220.7" y2="48.59"/>
    <line class="st1" x1="255.12" y1="48.59" x2="250.82" y2="39.99"/>
    <line class="st0" x1="14.17" y1="83.01" x2="14.17" y2="83.01"/>
    <path class="st1" d="M14.17,83.01c8.6,0,21.51,0,30.12-8.6"/>
    <line class="st1" x1="52.9" y1="91.62" x2="44.29" y2="74.41"/>
    <line class="st1" x1="52.9" y1="91.62" x2="52.9" y2="91.62"/>
    <path class="st1" d="M52.9,91.62c8.6-8.6,21.51-8.6,30.12-8.6"/>
    <path class="st1" d="M52.9,91.62h0"/>
    <path class="st1" d="M83.02,83.01c8.6,0,21.51,0,30.12-8.6"/>
    <line class="st1" x1="83.02" y1="83.01" x2="83.02" y2="83.01"/>
    <line class="st1" x1="121.74" y1="91.62" x2="113.13" y2="74.41"/>
    <line class="st1" x1="121.74" y1="91.62" x2="121.74" y2="91.62"/>
    <path class="st1" d="M121.74,91.62h0"/>
    <path class="st1" d="M121.74,91.62c8.6-8.6,21.51-8.6,30.12-8.6"/>
    <path class="st1" d="M151.86,83.01h0"/>
    <path class="st1" d="M151.86,83.01c8.6,0,21.51,0,30.12-8.6"/>
    <line class="st1" x1="190.58" y1="91.62" x2="190.58" y2="91.62"/>
    <line class="st1" x1="190.58" y1="91.62" x2="181.97" y2="74.41"/>
    <path class="st1" d="M190.58,91.62h0"/>
    <path class="st1" d="M190.58,91.62c8.6-8.6,21.51-8.6,30.12-8.6"/>
    <path class="st1" d="M220.7,83.01c8.6,0,21.51,0,30.12-8.6"/>
    <line class="st1" x1="220.7" y1="83.01" x2="220.7" y2="83.01"/>
    <line class="st1" x1="255.12" y1="83.01" x2="250.82" y2="74.41"/>
    <path class="st1" d="M14.17,117.43c8.6,0,21.51,0,30.12-8.6"/>
    <line class="st0" x1="14.17" y1="117.43" x2="14.17" y2="117.43"/>
    <line class="st1" x1="44.29" y1="108.83" x2="48.59" y2="117.43"/>
    <line class="st0" x1="83.02" y1="117.43" x2="83.02" y2="117.43"/>
    <line class="st0" x1="83.02" y1="117.43" x2="83.02" y2="117.43"/>
    <path class="st1" d="M113.13,108.83c-8.6,8.6-21.51,8.6-30.12,8.6"/>
    <line class="st1" x1="117.44" y1="117.43" x2="113.13" y2="108.83"/>
    <line class="st0" x1="151.86" y1="117.43" x2="151.86" y2="117.43"/>
    <path class="st1" d="M181.97,108.83c-8.6,8.6-21.51,8.6-30.12,8.6"/>
    <path class="st0" d="M151.86,117.43h0"/>
    <line class="st1" x1="186.28" y1="117.43" x2="181.97" y2="108.83"/>
    <path class="st0" d="M220.7,117.43h0"/>
    <path class="st1" d="M250.82,108.83c-8.6,8.6-21.51,8.6-30.12,8.6"/>
    <line class="st0" x1="220.7" y1="117.43" x2="220.7" y2="117.43"/>
    <line class="st1" x1="250.82" y1="108.83" x2="255.12" y2="117.43"/>
    <line class="st0" x1="151.86" y1="14.17" x2="151.86" y2="14.17"/>
    <line class="st0" x1="151.86" y1="14.17" x2="151.86" y2="14.17"/>
    <path class="st1" d="M151.86,14.17c-12.91,12.91,12.91,21.51,0,34.42"/>
    <path class="st1" d="M151.86,48.59h0"/>
    <line class="st1" x1="151.86" y1="83.01" x2="151.86" y2="83.01"/>
    <path class="st1" d="M151.86,48.59c-12.91,12.91,12.91,21.51,0,34.42"/>
    <line class="st0" x1="151.86" y1="117.43" x2="151.86" y2="117.43"/>
    <path class="st1" d="M151.86,83.01c-12.91,12.91,12.91,21.51,0,34.42"/>
    <path class="st0" d="M151.86,117.43h0"/>
    <line class="st0" x1="220.7" y1="14.17" x2="220.7" y2="14.17"/>
    <path class="st0" d="M220.7,14.17h0"/>
    <path class="st1" d="M220.7,48.59h0"/>
    <path class="st1" d="M220.7,14.17c-12.91,12.91,12.91,21.51,0,34.42"/>
    <line class="st1" x1="220.7" y1="83.01" x2="220.7" y2="83.01"/>
    <path class="st1" d="M220.7,48.59c-12.91,12.91,12.91,21.51,0,34.42"/>
    <path class="st1" d="M220.7,83.01c-12.91,12.91,12.91,21.51,0,34.42"/>
    <line class="st0" x1="220.7" y1="117.43" x2="220.7" y2="117.43"/>
    <path class="st0" d="M220.7,117.43h0"/>
    <line class="st0" x1="83.02" y1="14.17" x2="83.02" y2="14.17"/>
    <line class="st0" x1="83.02" y1="14.17" x2="83.02" y2="14.17"/>
    <path class="st1" d="M83.02,14.17c-12.91,12.91,12.91,21.51,0,34.42"/>
    <path class="st1" d="M83.02,48.59h0"/>
    <path class="st1" d="M83.02,48.59c-12.91,12.91,12.91,21.51,0,34.42"/>
    <line class="st1" x1="83.02" y1="83.01" x2="83.02" y2="83.01"/>
    <path class="st1" d="M83.02,83.01c-12.91,12.91,12.91,21.51,0,34.42"/>
    <line class="st0" x1="83.02" y1="117.43" x2="83.02" y2="117.43"/>
    <path class="st0" d="M83.02,117.43h0"/>
    <line class="st0" x1="14.17" y1="14.17" x2="14.17" y2="14.17"/>
    <line class="st0" x1="14.17" y1="14.17" x2="14.17" y2="14.17"/>
    <path class="st0" d="M14.17,48.59h0"/>
    <path class="st1" d="M14.17,48.59c6.45-6.45,3.23-11.83,0-17.21"/>
    <line class="st0" x1="14.17" y1="14.17" x2="14.17" y2="14.17"/>
    <line class="st0" x1="14.17" y1="48.59" x2="14.17" y2="48.59"/>
    <path class="st1" d="M14.17,83.01c6.45-6.45,3.23-11.83,0-17.21"/>
    <line class="st0" x1="14.17" y1="83.01" x2="14.17" y2="83.01"/>
    <line class="st0" x1="14.17" y1="117.43" x2="14.17" y2="117.43"/>
    <path class="st1" d="M14.17,117.43c6.45-6.45,3.23-11.83,0-17.21"/>
    <path class="st0" d="M14.17,83.01h0"/>
    <line class="st0" x1="220.7" y1="117.43" x2="186.28" y2="117.43"/>
    <line class="st0" x1="14.17" y1="117.43" x2="14.17" y2="117.43"/>
    <line class="st0" x1="151.86" y1="117.43" x2="117.44" y2="117.43"/>
    <line class="st0" x1="151.86" y1="14.17" x2="186.28" y2="14.17"/>
    <line class="st0" x1="83.02" y1="14.17" x2="83.02" y2="14.17"/>
    <line class="st0" x1="83.02" y1="14.17" x2="117.44" y2="14.17"/>
    <line class="st0" x1="83.02" y1="117.43" x2="48.59" y2="117.43"/>
    <line class="st0" x1="14.17" y1="14.17" x2="48.59" y2="14.17"/>
    <line class="st0" x1="14.17" y1="14.17" x2="14.17" y2="14.17"/>
    <polyline class="st0" points="255.12 14.17 255.12 14.17 255.12 14.17"/>
    <line class="st0" x1="220.7" y1="14.17" x2="220.7" y2="14.17"/>
    <polyline class="st0" points="220.7 14.17 255.12 14.17 255.12 48.59 255.12 83.01 255.12 100.22 255.12 117.43 246.51 117.43"/>
    <line class="st0" x1="14.17" y1="65.8" x2="14.17" y2="48.59"/>
    <path class="st0" d="M255.12,48.59"/>
    <line class="st0" x1="220.7" y1="117.43" x2="255.12" y2="117.43"/>
    <path class="st0" d="M14.17,31.38"/>
    <line class="st0" x1="14.17" y1="83.01" x2="14.17" y2="83.01"/>
    <line class="st0" x1="220.7" y1="14.17" x2="186.28" y2="14.17"/>
    <line class="st0" x1="14.17" y1="48.59" x2="14.17" y2="48.59"/>
    <path class="st0" d="M14.17,14.17h0Z"/>
    <line class="st0" x1="14.17" y1="100.22" x2="14.17" y2="83.01"/>
    <line class="st0" x1="83.02" y1="117.43" x2="117.44" y2="117.43"/>
    <line class="st0" x1="83.02" y1="117.43" x2="83.02" y2="117.43"/>
    <path class="st0" d="M48.59,117.43"/>
    <polyline class="st0" points="14.17 48.59 14.17 31.38 14.17 14.17 18.48 14.17"/>
    <line class="st0" x1="151.86" y1="14.17" x2="151.86" y2="14.17"/>
    <line class="st0" x1="83.02" y1="14.17" x2="48.59" y2="14.17"/>
    <line class="st0" x1="151.86" y1="117.43" x2="186.28" y2="117.43"/>
    <line class="st0" x1="220.7" y1="117.43" x2="220.7" y2="117.43"/>
    <path class="st0" d="M255.12,117.43"/>
    <line class="st0" x1="151.86" y1="117.43" x2="151.86" y2="117.43"/>
    <line class="st0" x1="14.17" y1="83.01" x2="14.17" y2="65.8"/>
    <line class="st0" x1="151.86" y1="14.17" x2="117.44" y2="14.17"/>
    <polyline class="st0" points="52.9 117.43 14.17 117.43 14.17 100.22"/>
  </g>
</svg>