<?xml version="1.0" encoding="UTF-8"?>
<svg id="Ebene_2" xmlns="http://www.w3.org/2000/svg" version="1.1" viewBox="0 0 311.81 146.59">
  <!-- Generator: Adobe Illustrator 29.1.0, SVG Export Plug-In . SVG Version: 2.1.0 Build 142)  -->
  <defs>
    <style>
      .st0 {
        fill: none;
        stroke: #1e1e1c;
        stroke-miterlimit: 10;
        stroke-width: 1.2px;
      }

      .st1 {
        fill: #1e1e1c;
        font-family: Helvetica, Helvetica;
        font-size: 8px;
      }

      .st1, .st2 {
        isolation: isolate;
      }
    </style>
  </defs>
  <g class="st2">
    <text class="st1" transform="translate(130.2 138.13)"><tspan x="0" y="0">66</tspan></text>
  </g>
  <g id="_x36_6_x5F_rein">
    <g>
      <line class="st0" x1="151.86" y1="14.17" x2="151.86" y2="14.17"/>
      <line class="st0" x1="151.86" y1="14.17" x2="151.86" y2="14.17"/>
      <line class="st0" x1="151.86" y1="31.38" x2="151.86" y2="31.38"/>
      <path class="st0" d="M151.86,48.59c6.45-6.45,3.23-11.83,0-17.21"/>
      <path class="st0" d="M151.86,48.59h0"/>
      <path class="st0" d="M151.86,14.17c-6.45,6.45-3.23,11.83,0,17.21"/>
      <path class="st0" d="M151.86,83.01h0"/>
      <path class="st0" d="M151.86,65.8c-3.23-5.38-6.45-10.76,0-17.21"/>
      <path class="st0" d="M151.86,65.8c3.23,5.38,6.45,10.76,0,17.21"/>
      <path class="st0" d="M151.86,83.01c-6.45,6.45-3.23,11.83,0,17.21"/>
      <path class="st0" d="M151.86,117.43h0"/>
      <path class="st0" d="M151.86,117.43c6.45-6.45,3.23-11.83,0-17.21"/>
      <path class="st0" d="M220.7,14.17h0"/>
      <path class="st0" d="M220.7,31.38c-3.23-5.38-6.45-10.76,0-17.21"/>
      <path class="st0" d="M220.7,48.59h0"/>
      <path class="st0" d="M220.7,48.59c6.45-6.45,3.23-11.83,0-17.21"/>
      <path class="st0" d="M220.7,83.01h0"/>
      <path class="st0" d="M220.7,83.01c6.45-6.45,3.23-11.83,0-17.21"/>
      <path class="st0" d="M220.7,65.8c-3.23-5.38-6.45-10.76,0-17.21"/>
      <path class="st0" d="M220.7,83.01c-6.45,6.45-3.23,11.83,0,17.21"/>
      <path class="st0" d="M220.7,100.22c3.23,5.38,6.45,10.76,0,17.21"/>
      <path class="st0" d="M220.7,117.43h0"/>
      <path class="st0" d="M83.02,48.59c6.45-6.45,3.23-11.83,0-17.21"/>
      <path class="st0" d="M83.02,14.17h0"/>
      <path class="st0" d="M83.02,31.38c-3.23-5.38-6.45-10.76,0-17.21"/>
      <line class="st0" x1="83.02" y1="48.59" x2="83.02" y2="48.59"/>
      <path class="st0" d="M83.02,83.01c6.45-6.45,3.23-11.83,0-17.21"/>
      <line class="st0" x1="83.02" y1="83.01" x2="83.02" y2="83.01"/>
      <path class="st0" d="M83.02,65.8c-3.23-5.38-6.45-10.76,0-17.21"/>
      <path class="st0" d="M83.02,117.43h0"/>
      <path class="st0" d="M83.02,100.22c3.23,5.38,6.45,10.76,0,17.21"/>
      <path class="st0" d="M83.02,83.01c-6.45,6.45-3.23,11.83,0,17.21"/>
      <path class="st0" d="M14.17,31.38c3.23,5.38,6.45,10.76,0,17.21"/>
      <path class="st0" d="M14.17,48.59h0"/>
      <path class="st0" d="M14.17,83.01h0"/>
      <path class="st0" d="M14.17,83.01c6.45-6.45,3.23-11.83,0-17.21"/>
      <path class="st0" d="M14.17,117.43c6.45-6.45,3.23-11.83,0-17.21"/>
      <line class="st0" x1="14.17" y1="117.43" x2="14.17" y2="117.43"/>
      <line class="st0" x1="186.28" y1="48.59" x2="186.28" y2="48.59"/>
      <path class="st0" d="M186.28,14.17h0"/>
      <path class="st0" d="M186.28,48.59c6.45-6.45,3.23-11.83,0-17.21"/>
      <path class="st0" d="M186.28,14.17c-6.45,6.45-3.23,11.83,0,17.21"/>
      <path class="st0" d="M186.28,65.8c-3.23-5.38-6.45-10.76,0-17.21"/>
      <path class="st0" d="M186.28,83.01c6.45-6.45,3.23-11.83,0-17.21"/>
      <line class="st0" x1="186.28" y1="83.01" x2="186.28" y2="83.01"/>
      <path class="st0" d="M186.28,100.22c-3.23-5.38-6.45-10.76,0-17.21"/>
      <line class="st0" x1="186.28" y1="117.43" x2="186.28" y2="117.43"/>
      <path class="st0" d="M186.28,100.22c3.23,5.38,6.45,10.76,0,17.21"/>
      <path class="st0" d="M255.12,48.59h0"/>
      <path class="st0" d="M255.12,31.38h0"/>
      <line class="st0" x1="255.12" y1="14.17" x2="255.12" y2="14.17"/>
      <path class="st0" d="M255.12,31.38c-3.23-5.38-6.45-10.76,0-17.21"/>
      <line class="st0" x1="255.12" y1="48.59" x2="255.12" y2="48.59"/>
      <path class="st0" d="M255.12,65.8h0"/>
      <path class="st0" d="M255.12,65.8c-3.23-5.38-6.45-10.76,0-17.21"/>
      <path class="st0" d="M255.12,83.01h0"/>
      <line class="st0" x1="255.12" y1="83.01" x2="255.12" y2="83.01"/>
      <path class="st0" d="M255.12,100.22h0"/>
      <line class="st0" x1="255.12" y1="117.43" x2="255.12" y2="117.43"/>
      <path class="st0" d="M255.12,117.43h0"/>
      <path class="st0" d="M255.12,100.22c-3.23-5.38-6.45-10.76,0-17.21"/>
      <path class="st0" d="M117.44,48.59h0"/>
      <path class="st0" d="M117.44,31.38c3.23,5.38,6.45,10.76,0,17.21"/>
      <path class="st0" d="M117.44,31.38c-3.23-5.38-6.45-10.76,0-17.21"/>
      <path class="st0" d="M117.44,14.17h0"/>
      <path class="st0" d="M117.44,83.01c6.45-6.45,3.23-11.83,0-17.21"/>
      <line class="st0" x1="117.44" y1="83.01" x2="117.44" y2="83.01"/>
      <path class="st0" d="M117.44,48.59c-6.45,6.45-3.23,11.83,0,17.21"/>
      <path class="st0" d="M117.44,117.43c6.45-6.45,3.23-11.83,0-17.21"/>
      <path class="st0" d="M117.44,100.22c-3.23-5.38-6.45-10.76,0-17.21"/>
      <line class="st0" x1="117.44" y1="117.43" x2="117.44" y2="117.43"/>
      <path class="st0" d="M48.59,31.38c-3.23-5.38-6.45-10.76,0-17.21"/>
      <path class="st0" d="M48.59,48.59h0"/>
      <path class="st0" d="M48.59,48.59c6.45-6.45,3.23-11.83,0-17.21"/>
      <path class="st0" d="M48.59,14.17h0"/>
      <path class="st0" d="M48.59,65.8c-3.23-5.38-6.45-10.76,0-17.21"/>
      <path class="st0" d="M48.59,83.01c6.45-6.45,3.23-11.83,0-17.21"/>
      <path class="st0" d="M48.59,83.01h0"/>
      <line class="st0" x1="48.59" y1="117.43" x2="48.59" y2="117.43"/>
      <path class="st0" d="M48.59,100.22c-3.23-5.38-6.45-10.76,0-17.21"/>
      <path class="st0" d="M48.59,100.22c3.23,5.38,6.45,10.76,0,17.21"/>
      <path class="st0" d="M83.02,48.59c21.51-8.6,27.97-4.3,34.42,0"/>
      <path class="st0" d="M151.86,48.59c-21.51,8.61-27.97,4.3-34.42,0"/>
      <line class="st0" x1="83.02" y1="48.59" x2="83.02" y2="48.59"/>
      <line class="st0" x1="151.86" y1="48.59" x2="151.86" y2="48.59"/>
      <path class="st0" d="M151.86,48.59c21.51-8.6,27.97-4.3,34.42,0"/>
      <path class="st0" d="M186.28,48.59c6.45,4.3,12.91,8.6,34.42,0"/>
      <path class="st0" d="M255.12,48.59h0"/>
      <path class="st0" d="M220.7,48.59h0"/>
      <path class="st0" d="M220.7,48.59c21.51-8.6,27.97-4.3,34.42,0"/>
      <path class="st0" d="M48.59,48.59c6.45,4.3,12.91,8.61,34.42,0"/>
      <path class="st0" d="M14.17,48.59h0"/>
      <path class="st0" d="M48.59,48.59c-6.45-4.3-12.91-8.6-34.42,0"/>
      <path class="st0" d="M83.02,65.8c21.51-8.6,27.97-4.3,34.42,0"/>
      <line class="st0" x1="151.86" y1="65.8" x2="151.86" y2="65.8"/>
      <path class="st0" d="M151.86,65.8c-21.51,8.61-27.97,4.3-34.42,0"/>
      <path class="st0" d="M186.28,65.8c6.45,4.3,12.91,8.61,34.42,0"/>
      <line class="st0" x1="220.7" y1="65.8" x2="220.7" y2="65.8"/>
      <path class="st0" d="M151.86,65.8c21.51-8.6,27.97-4.3,34.42,0"/>
      <path class="st0" d="M220.7,65.8c21.51-8.6,27.97-4.3,34.42,0"/>
      <path class="st0" d="M255.12,65.8h0"/>
      <line class="st0" x1="83.02" y1="65.8" x2="83.02" y2="65.8"/>
      <path class="st0" d="M48.59,65.8c6.45,4.3,12.91,8.61,34.42,0"/>
      <path class="st0" d="M48.59,65.8c-6.45-4.3-12.91-8.6-34.42,0"/>
      <line class="st0" x1="83.02" y1="83.01" x2="83.02" y2="83.01"/>
      <path class="st0" d="M83.02,83.01c21.51-8.6,27.97-4.3,34.42,0"/>
      <path class="st0" d="M151.86,83.01c-21.51,8.61-27.97,4.3-34.42,0"/>
      <path class="st0" d="M151.86,83.01c21.51-8.6,27.97-4.3,34.42,0"/>
      <path class="st0" d="M186.28,83.01c6.45,4.3,12.91,8.6,34.42,0"/>
      <line class="st0" x1="151.86" y1="83.01" x2="151.86" y2="83.01"/>
      <line class="st0" x1="255.12" y1="83.01" x2="255.12" y2="83.01"/>
      <path class="st0" d="M220.7,83.01c21.51-8.6,27.97-4.3,34.42,0"/>
      <path class="st0" d="M220.7,83.01h0"/>
      <path class="st0" d="M14.17,83.01c21.51-8.6,27.97-4.3,34.42,0"/>
      <path class="st0" d="M48.59,83.01c6.45,4.3,12.91,8.61,34.42,0"/>
      <path class="st0" d="M14.17,83.01h0"/>
      <line class="st0" x1="151.86" y1="100.22" x2="151.86" y2="100.22"/>
      <path class="st0" d="M151.86,100.22c-21.51,8.61-27.97,4.3-34.42,0"/>
      <path class="st0" d="M117.44,100.22c-6.45-4.3-12.91-8.6-34.42,0"/>
      <path class="st0" d="M220.7,100.22c-21.51,8.61-27.97,4.3-34.42,0"/>
      <path class="st0" d="M220.7,100.22h0"/>
      <path class="st0" d="M151.86,100.22c21.51-8.6,27.97-4.3,34.42,0"/>
      <path class="st0" d="M255.12,100.22c-6.45-4.3-12.91-8.6-34.42,0"/>
      <path class="st0" d="M255.12,100.22h0"/>
      <path class="st0" d="M83.02,100.22h0"/>
      <path class="st0" d="M48.59,100.22c-6.45-4.3-12.91-8.6-34.42,0"/>
      <path class="st0" d="M48.59,100.22c6.45,4.3,12.91,8.61,34.42,0"/>
      <path class="st0" d="M151.86,117.43h0"/>
      <path class="st0" d="M117.44,117.43c-6.45-4.3-12.91-8.6-34.42,0"/>
      <line class="st0" x1="117.44" y1="117.43" x2="117.44" y2="117.43"/>
      <path class="st0" d="M83.02,117.43h0"/>
      <path class="st0" d="M151.86,117.43h0"/>
      <path class="st0" d="M186.28,117.43h0"/>
      <path class="st0" d="M220.7,117.43h0"/>
      <path class="st0" d="M151.86,117.43c21.51-8.6,27.97-4.3,34.42,0"/>
      <path class="st0" d="M220.7,117.43h0"/>
      <path class="st0" d="M255.12,117.43c-6.45-4.3-12.91-8.6-34.42,0"/>
      <line class="st0" x1="255.12" y1="117.43" x2="255.12" y2="117.43"/>
      <line class="st0" x1="48.59" y1="117.43" x2="48.59" y2="117.43"/>
      <line class="st0" x1="14.17" y1="117.43" x2="14.17" y2="117.43"/>
      <path class="st0" d="M83.02,117.43h0"/>
      <path class="st0" d="M14.17,117.43c21.51-8.6,27.97-4.3,34.42,0"/>
      <line class="st0" x1="151.86" y1="31.38" x2="151.86" y2="31.38"/>
      <path class="st0" d="M83.02,31.38c21.51-8.6,27.97-4.3,34.42,0"/>
      <path class="st0" d="M151.86,31.38c-21.51,8.6-27.97,4.3-34.42,0"/>
      <path class="st0" d="M186.28,31.38c6.45,4.3,12.91,8.6,34.42,0"/>
      <path class="st0" d="M151.86,31.38c21.51-8.6,27.97-4.3,34.42,0"/>
      <line class="st0" x1="220.7" y1="31.38" x2="220.7" y2="31.38"/>
      <line class="st0" x1="151.86" y1="31.38" x2="151.86" y2="31.38"/>
      <path class="st0" d="M220.7,31.38c21.51-8.6,27.97-4.3,34.42,0"/>
      <path class="st0" d="M255.12,31.38h0"/>
      <path class="st0" d="M48.59,31.38c6.45,4.3,12.91,8.61,34.42,0"/>
      <path class="st0" d="M48.59,31.38c-6.45-4.3-12.91-8.6-34.42,0"/>
      <line class="st0" x1="83.02" y1="31.38" x2="83.02" y2="31.38"/>
      <path class="st0" d="M151.86,14.17c-21.51,8.6-27.97,4.3-34.42,0"/>
      <path class="st0" d="M83.02,14.17h0"/>
      <line class="st0" x1="151.86" y1="14.17" x2="151.86" y2="14.17"/>
      <path class="st0" d="M117.44,14.17h0"/>
      <path class="st0" d="M186.28,14.17c6.45,4.3,12.91,8.61,34.42,0"/>
      <line class="st0" x1="220.7" y1="14.17" x2="220.7" y2="14.17"/>
      <line class="st0" x1="186.28" y1="14.17" x2="186.28" y2="14.17"/>
      <line class="st0" x1="151.86" y1="14.17" x2="151.86" y2="14.17"/>
      <line class="st0" x1="151.86" y1="14.17" x2="151.86" y2="14.17"/>
      <path class="st0" d="M220.7,14.17h0"/>
      <line class="st0" x1="255.12" y1="14.17" x2="255.12" y2="14.17"/>
      <path class="st0" d="M255.12,14.17h0"/>
      <path class="st0" d="M48.59,14.17c6.45,4.3,12.91,8.61,34.42,0"/>
      <path class="st0" d="M48.59,14.17h0"/>
      <path class="st0" d="M83.02,14.17h0"/>
      <line class="st0" x1="14.17" y1="14.17" x2="14.17" y2="14.17"/>
      <line class="st0" x1="83.02" y1="14.17" x2="83.02" y2="14.17"/>
      <line class="st0" x1="14.17" y1="14.17" x2="14.17" y2="14.17"/>
      <line class="st0" x1="255.12" y1="100.23" x2="255.12" y2="117.43"/>
      <polyline class="st0" points="255.12 117.43 255.12 117.43 255.12 117.43"/>
      <line class="st0" x1="255.12" y1="65.8" x2="255.12" y2="83.01"/>
      <line class="st0" x1="14.17" y1="83.01" x2="14.17" y2="65.8"/>
      <line class="st0" x1="151.86" y1="14.17" x2="117.44" y2="14.17"/>
      <line class="st0" x1="220.7" y1="117.43" x2="186.28" y2="117.43"/>
      <line class="st0" x1="151.86" y1="117.43" x2="151.86" y2="117.43"/>
      <line class="st0" x1="255.12" y1="117.43" x2="255.12" y2="117.43"/>
      <line class="st0" x1="14.17" y1="31.38" x2="14.17" y2="31.38"/>
      <line class="st0" x1="117.44" y1="14.17" x2="117.44" y2="14.17"/>
      <line class="st0" x1="151.86" y1="14.17" x2="186.28" y2="14.17"/>
      <line class="st0" x1="14.17" y1="65.8" x2="14.17" y2="65.8"/>
      <line class="st0" x1="14.17" y1="83.01" x2="14.17" y2="83.01"/>
      <line class="st0" x1="14.17" y1="83.01" x2="14.17" y2="100.22"/>
      <line class="st0" x1="14.17" y1="100.22" x2="14.17" y2="100.22"/>
      <line class="st0" x1="14.17" y1="48.59" x2="14.17" y2="65.8"/>
      <line class="st0" x1="48.59" y1="117.43" x2="14.17" y2="117.43"/>
      <line class="st0" x1="14.17" y1="14.17" x2="14.17" y2="14.17"/>
      <line class="st0" x1="255.12" y1="100.22" x2="255.12" y2="100.23"/>
      <line class="st0" x1="83.02" y1="117.43" x2="117.44" y2="117.43"/>
      <line class="st0" x1="186.28" y1="14.17" x2="186.28" y2="14.17"/>
      <line class="st0" x1="14.17" y1="117.43" x2="14.17" y2="117.43"/>
      <line class="st0" x1="83.02" y1="117.43" x2="48.59" y2="117.43"/>
      <line class="st0" x1="255.12" y1="100.22" x2="255.12" y2="83.01"/>
      <line class="st0" x1="255.12" y1="83.01" x2="255.12" y2="83.01"/>
      <line class="st0" x1="83.02" y1="14.17" x2="117.44" y2="14.17"/>
      <line class="st0" x1="220.7" y1="14.17" x2="186.28" y2="14.17"/>
      <line class="st0" x1="48.59" y1="14.17" x2="14.17" y2="14.17"/>
      <line class="st0" x1="14.17" y1="117.43" x2="14.17" y2="100.22"/>
      <line class="st0" x1="220.7" y1="117.43" x2="220.7" y2="117.43"/>
      <line class="st0" x1="83.02" y1="14.17" x2="48.59" y2="14.17"/>
      <line class="st0" x1="151.86" y1="14.17" x2="151.86" y2="14.17"/>
      <line class="st0" x1="151.86" y1="117.43" x2="117.44" y2="117.43"/>
      <line class="st0" x1="14.17" y1="48.59" x2="14.17" y2="48.59"/>
      <line class="st0" x1="14.17" y1="31.38" x2="14.17" y2="14.17"/>
      <line class="st0" x1="186.28" y1="117.43" x2="186.28" y2="117.43"/>
      <line class="st0" x1="117.44" y1="117.43" x2="117.44" y2="117.43"/>
      <line class="st0" x1="14.17" y1="31.38" x2="14.17" y2="48.59"/>
      <line class="st0" x1="255.12" y1="48.59" x2="255.12" y2="65.8"/>
      <line class="st0" x1="255.12" y1="31.38" x2="255.12" y2="48.59"/>
      <line class="st0" x1="255.12" y1="48.59" x2="255.12" y2="48.59"/>
      <line class="st0" x1="220.7" y1="14.17" x2="220.7" y2="14.17"/>
      <line class="st0" x1="255.12" y1="65.8" x2="255.12" y2="65.8"/>
      <line class="st0" x1="220.7" y1="14.17" x2="255.12" y2="14.17"/>
      <polyline class="st0" points="255.12 14.17 255.12 14.17 255.12 14.17"/>
      <line class="st0" x1="255.12" y1="14.17" x2="255.12" y2="14.17"/>
      <line class="st0" x1="83.02" y1="117.43" x2="83.02" y2="117.43"/>
      <line class="st0" x1="255.12" y1="31.38" x2="255.12" y2="14.17"/>
      <line class="st0" x1="220.7" y1="117.43" x2="255.12" y2="117.43"/>
      <line class="st0" x1="151.86" y1="117.43" x2="186.28" y2="117.43"/>
      <line class="st0" x1="48.59" y1="14.17" x2="48.59" y2="14.17"/>
      <line class="st0" x1="255.12" y1="31.38" x2="255.12" y2="31.38"/>
      <line class="st0" x1="48.59" y1="117.43" x2="48.59" y2="117.43"/>
    </g>
  </g>
</svg>