<?xml version="1.0" encoding="UTF-8"?>
<svg id="Ebene_2" xmlns="http://www.w3.org/2000/svg" version="1.1" viewBox="0 0 311.81 146.59">
  <!-- Generator: Adobe Illustrator 29.1.0, SVG Export Plug-In . SVG Version: 2.1.0 Build 142)  -->
  <defs>
    <style>
      .st0 {
        stroke-miterlimit: 10;
      }

      .st0, .st1 {
        fill: none;
        stroke: #1e1e1c;
        stroke-width: 1.22px;
      }

      .st2 {
        fill: #1e1e1c;
        font-family: Helvetica, Helvetica;
        font-size: 8px;
      }

      .st2, .st3 {
        isolation: isolate;
      }

      .st1 {
        stroke-linecap: round;
        stroke-linejoin: round;
      }
    </style>
  </defs>
  <g class="st3">
    <text class="st2" transform="translate(130.2 138.13)"><tspan x="0" y="0">67</tspan></text>
  </g>
  <g id="_x36_7_x5F_rein">
    <g>
      <path class="st1" d="M151.86,48.59h0"/>
      <path class="st1" d="M151.86,14.17c-12.91,12.91,12.91,21.51,0,34.42"/>
      <path class="st1" d="M151.86,83.01c12.91-12.91-12.91-21.51,0-34.42"/>
      <path class="st1" d="M151.86,83.01h0"/>
      <path class="st0" d="M151.86,117.43h0"/>
      <path class="st1" d="M151.86,83.01c-12.91,12.91,12.91,21.51,0,34.42"/>
      <path class="st1" d="M220.7,48.59h0"/>
      <path class="st1" d="M220.7,48.59c12.91-12.91-12.91-21.51,0-34.42"/>
      <path class="st1" d="M220.7,48.59c-12.91,12.91,12.91,21.51,0,34.42"/>
      <path class="st1" d="M220.7,83.01h0"/>
      <path class="st0" d="M220.7,117.43h0"/>
      <path class="st1" d="M220.7,117.43c12.91-12.91-12.91-21.51,0-34.42"/>
      <path class="st1" d="M83.01,14.17c-12.91,12.91,12.91,21.51,0,34.42"/>
      <path class="st1" d="M83.01,48.59h0"/>
      <path class="st1" d="M83.01,48.59c-12.91,12.91,12.91,21.51,0,34.42"/>
      <path class="st1" d="M83.01,83.01h0"/>
      <path class="st0" d="M83.01,117.43h0"/>
      <path class="st1" d="M83.01,83.01c-12.91,12.91,12.91,21.51,0,34.42"/>
      <path class="st0" d="M14.17,48.59h0"/>
      <path class="st1" d="M14.17,48.59c6.45-6.45,3.23-11.83,0-17.21"/>
      <path class="st1" d="M14.17,65.8c3.23,5.38,6.45,10.76,0,17.21"/>
      <path class="st0" d="M14.17,83.01h0"/>
      <path class="st1" d="M14.17,117.43c6.45-6.45,3.23-11.83,0-17.21"/>
      <path class="st0" d="M14.17,117.43h0"/>
      <path class="st0" d="M255.12,14.17h0"/>
      <path class="st0" d="M253.21,46.34c.51.74,1.14,1.49,1.91,2.26"/>
      <path class="st0" d="M255.12,14.18h0"/>
      <path class="st1" d="M255.12,31.38c-2.84,4.74-5.69,9.48-1.91,14.95"/>
      <path class="st0" d="M253.21,80.76c.51.74,1.14,1.49,1.91,2.26"/>
      <path class="st1" d="M255.12,65.8c-2.84,4.74-5.69,9.48-1.91,14.95"/>
      <path class="st0" d="M255.12,48.59h0"/>
      <path class="st0" d="M255.12,48.6h0"/>
      <path class="st0" d="M255.12,83.02h0"/>
      <path class="st0" d="M255.12,83.01h0"/>
      <path class="st1" d="M255.12,100.22c-2.84,4.74-5.69,9.48-1.91,14.95"/>
      <path class="st0" d="M253.21,115.18c.51.74,1.14,1.49,1.91,2.26"/>
      <path class="st0" d="M255.12,117.44s0,0,0,0"/>
      <path class="st0" d="M188.18,16.43c-.51-.74-1.14-1.49-1.9-2.25"/>
      <path class="st1" d="M184.37,46.34c-7.56-10.95,11.37-18.96,3.81-29.91"/>
      <path class="st0" d="M186.27,14.17h0"/>
      <path class="st1" d="M184.37,46.34c.51.74,1.14,1.49,1.9,2.26"/>
      <path class="st1" d="M184.37,80.76c.51.74,1.14,1.49,1.91,2.26"/>
      <path class="st1" d="M188.18,50.85c-.51-.74-1.14-1.49-1.9-2.25"/>
      <path class="st1" d="M184.37,80.76c-7.56-10.95,11.37-18.96,3.81-29.91"/>
      <path class="st1" d="M186.27,48.59s0,0,0,0"/>
      <path class="st1" d="M186.27,117.43c-.77-.77-1.4-1.52-1.91-2.26"/>
      <path class="st1" d="M186.27,83.01h0"/>
      <path class="st1" d="M188.18,85.27c7.57,10.95-11.37,18.96-3.81,29.91"/>
      <path class="st1" d="M188.18,85.27c-.51-.74-1.14-1.49-1.9-2.25"/>
      <path class="st0" d="M186.27,117.43h0"/>
      <path class="st0" d="M117.43,14.17h0"/>
      <path class="st0" d="M119.34,16.43c-.51-.74-1.14-1.49-1.9-2.25"/>
      <path class="st1" d="M115.53,46.34c.51.74,1.14,1.49,1.91,2.26"/>
      <path class="st1" d="M115.53,46.34c-7.56-10.95,11.37-18.96,3.81-29.91"/>
      <path class="st1" d="M115.53,80.76c.51.74,1.14,1.49,1.91,2.26"/>
      <path class="st1" d="M117.43,48.59s0,0,0,0"/>
      <path class="st1" d="M115.53,80.76c-7.56-10.95,11.38-18.96,3.81-29.91"/>
      <path class="st1" d="M119.34,50.85c-.51-.74-1.14-1.49-1.9-2.25"/>
      <path class="st1" d="M117.43,83.01h0"/>
      <path class="st1" d="M119.34,85.27c-.51-.74-1.14-1.49-1.9-2.25"/>
      <path class="st1" d="M115.53,115.18c.51.74,1.14,1.49,1.91,2.26"/>
      <path class="st1" d="M119.34,85.27c7.57,10.95-11.37,18.96-3.81,29.91"/>
      <path class="st0" d="M117.43,117.43h0"/>
      <path class="st0" d="M48.59,14.17h0"/>
      <path class="st1" d="M46.69,46.34c.51.74,1.14,1.49,1.9,2.26"/>
      <path class="st1" d="M46.69,46.34c-7.56-10.95,11.37-18.96,3.81-29.91"/>
      <path class="st0" d="M50.5,16.43c-.51-.74-1.14-1.49-1.9-2.25"/>
      <path class="st1" d="M48.59,48.59h0"/>
      <path class="st1" d="M46.69,80.76c-7.56-10.95,11.37-18.96,3.81-29.91"/>
      <path class="st1" d="M46.69,80.76c.51.74,1.14,1.49,1.9,2.26"/>
      <path class="st1" d="M50.5,50.85c-.51-.74-1.14-1.49-1.9-2.25"/>
      <path class="st1" d="M50.5,85.27c-.51-.74-1.14-1.49-1.9-2.25"/>
      <path class="st1" d="M46.69,115.18c.51.74,1.14,1.49,1.91,2.26"/>
      <path class="st1" d="M46.69,115.18c-7.56-10.95,11.38-18.96,3.81-29.91"/>
      <path class="st1" d="M48.59,83.01s0,0,0,0"/>
      <path class="st0" d="M48.59,117.43s0,0,0,0"/>
      <path class="st0" d="M48.59,14.17h0"/>
      <path class="st1" d="M50.5,16.43c4.06,4.33,10.38,6.97,32.52-2.25"/>
      <path class="st0" d="M50.5,16.43c-.68-.72-1.29-1.49-1.9-2.25"/>
      <path class="st1" d="M119.34,16.43c4.06,4.33,10.38,6.97,32.52-2.25"/>
      <path class="st0" d="M119.34,16.43c-.68-.72-1.29-1.49-1.9-2.25"/>
      <path class="st0" d="M117.44,14.18s0,0,0,0"/>
      <path class="st0" d="M188.18,16.43c-.68-.72-1.29-1.49-1.9-2.25"/>
      <path class="st1" d="M188.18,16.43c4.06,4.33,10.38,6.97,32.52-2.25"/>
      <path class="st0" d="M186.28,14.18h0"/>
      <path class="st1" d="M50.5,50.85c-.68-.72-1.29-1.49-1.9-2.25"/>
      <path class="st1" d="M46.69,46.34c.68.72,1.29,1.49,1.91,2.26"/>
      <path class="st0" d="M14.17,48.59h0"/>
      <path class="st1" d="M50.5,50.85c4.06,4.33,10.38,6.97,32.52-2.25"/>
      <path class="st1" d="M46.69,46.34c-4.06-4.33-10.38-6.96-32.51,2.26"/>
      <path class="st1" d="M115.53,46.34c.68.72,1.29,1.49,1.91,2.26"/>
      <path class="st1" d="M115.53,46.34c-4.06-4.33-10.39-6.96-32.51,2.26"/>
      <path class="st1" d="M119.34,50.85c4.06,4.33,10.38,6.97,32.52-2.25"/>
      <path class="st1" d="M119.34,50.85c-.67-.72-1.29-1.48-1.9-2.25"/>
      <path class="st1" d="M83.01,48.59h0"/>
      <path class="st1" d="M220.7,48.59c-22.13,9.22-28.45,6.58-32.52,2.25"/>
      <path class="st1" d="M184.37,46.34c-4.06-4.33-10.39-6.96-32.51,2.26"/>
      <path class="st1" d="M184.37,46.34c.68.72,1.29,1.49,1.91,2.26"/>
      <path class="st1" d="M188.18,50.85c-.67-.72-1.29-1.49-1.9-2.25"/>
      <path class="st1" d="M151.86,48.59h0"/>
      <path class="st0" d="M255.12,48.6s0,0,0,0"/>
      <path class="st1" d="M220.7,48.59c22.13-9.22,28.45-6.58,32.51-2.26"/>
      <path class="st1" d="M220.7,48.59h0"/>
      <path class="st0" d="M255.12,48.59c-.61-.77-1.23-1.54-1.91-2.26"/>
      <path class="st1" d="M50.5,85.27c4.06,4.33,10.38,6.97,32.52-2.25"/>
      <path class="st1" d="M46.69,80.76c-4.06-4.33-10.39-6.96-32.51,2.26"/>
      <path class="st1" d="M50.5,85.27c-.67-.72-1.29-1.48-1.9-2.25"/>
      <path class="st1" d="M46.69,80.76c.68.72,1.29,1.49,1.91,2.26"/>
      <path class="st0" d="M14.17,83.01h0"/>
      <path class="st1" d="M83.01,83.01h0"/>
      <path class="st1" d="M117.44,83.02c.61.77,1.23,1.53,1.9,2.25"/>
      <path class="st1" d="M115.53,80.76c-4.06-4.33-10.39-6.96-32.51,2.26"/>
      <path class="st1" d="M115.53,80.76c.68.72,1.29,1.49,1.91,2.26"/>
      <path class="st1" d="M119.34,85.27c4.06,4.33,10.38,6.97,32.52-2.25"/>
      <path class="st1" d="M188.18,85.27c4.06,4.33,10.38,6.97,32.52-2.25"/>
      <path class="st1" d="M184.37,80.76c.68.72,1.29,1.49,1.91,2.26"/>
      <path class="st1" d="M151.86,83.01h0"/>
      <path class="st1" d="M184.37,80.76c-4.06-4.33-10.39-6.96-32.51,2.26"/>
      <path class="st1" d="M188.18,85.27c-.67-.72-1.29-1.48-1.9-2.25"/>
      <path class="st0" d="M253.21,80.76c.68.72,1.29,1.49,1.91,2.26"/>
      <path class="st1" d="M220.7,83.01c22.13-9.22,28.45-6.58,32.51-2.26"/>
      <path class="st0" d="M255.12,83.02s0,0,0,0"/>
      <path class="st1" d="M220.7,83.01h0"/>
      <path class="st0" d="M83.01,117.43h0"/>
      <path class="st0" d="M48.6,117.44s0,0,0,0"/>
      <path class="st1" d="M46.69,115.18c.68.72,1.29,1.49,1.91,2.26"/>
      <path class="st1" d="M46.69,115.18c-4.06-4.33-10.39-6.96-32.51,2.26"/>
      <path class="st0" d="M14.17,117.43h0"/>
      <path class="st1" d="M115.53,115.18c-4.06-4.33-10.39-6.96-32.51,2.26"/>
      <path class="st0" d="M83.01,117.43h0"/>
      <path class="st0" d="M117.44,117.44h0"/>
      <path class="st1" d="M115.53,115.18c.68.72,1.29,1.49,1.91,2.26"/>
      <path class="st0" d="M151.86,117.43h0"/>
      <path class="st0" d="M151.86,117.43h0"/>
      <path class="st1" d="M186.28,117.43c-.61-.77-1.23-1.54-1.91-2.26"/>
      <path class="st0" d="M220.69,117.43h0"/>
      <path class="st0" d="M186.28,117.44s0,0,0,0"/>
      <path class="st1" d="M184.37,115.18c-4.06-4.33-10.39-6.96-32.51,2.26"/>
      <path class="st0" d="M255.12,117.43c-.61-.77-1.23-1.54-1.91-2.26"/>
      <path class="st0" d="M255.12,117.44s0,0,0,0"/>
      <path class="st0" d="M220.7,117.43h0"/>
      <path class="st1" d="M220.7,117.43c22.13-9.22,28.45-6.58,32.51-2.26"/>
      <line class="st0" x1="117.43" y1="14.17" x2="117.43" y2="14.17"/>
      <line class="st0" x1="14.17" y1="83.01" x2="14.17" y2="83.01"/>
      <line class="st0" x1="14.17" y1="117.43" x2="14.17" y2="117.43"/>
      <line class="st0" x1="14.17" y1="48.59" x2="14.17" y2="48.59"/>
      <line class="st0" x1="14.17" y1="48.59" x2="14.17" y2="31.38"/>
      <line class="st0" x1="14.17" y1="65.8" x2="14.17" y2="83.01"/>
      <line class="st0" x1="14.17" y1="83.01" x2="14.17" y2="100.22"/>
      <line class="st0" x1="83.01" y1="117.43" x2="83.01" y2="117.43"/>
      <polyline class="st0" points="255.12 117.43 255.12 117.43 255.12 117.43"/>
      <polyline class="st0" points="14.17 100.22 14.17 117.43 48.59 117.43"/>
      <line class="st0" x1="48.59" y1="117.43" x2="83.01" y2="117.43"/>
      <line class="st0" x1="220.7" y1="14.17" x2="255.12" y2="14.17"/>
      <line class="st0" x1="255.12" y1="48.59" x2="255.12" y2="65.8"/>
      <line class="st0" x1="220.7" y1="117.43" x2="255.12" y2="117.43"/>
      <line class="st0" x1="255.12" y1="117.43" x2="255.12" y2="100.22"/>
      <polyline class="st0" points="255.12 14.17 255.12 14.17 255.12 14.17"/>
      <line class="st0" x1="83.01" y1="14.17" x2="117.43" y2="14.17"/>
      <line class="st0" x1="151.86" y1="14.17" x2="186.27" y2="14.17"/>
      <path class="st0" d="M48.59,14.17"/>
      <line class="st0" x1="255.12" y1="31.38" x2="255.12" y2="14.17"/>
      <line class="st0" x1="186.27" y1="117.43" x2="151.86" y2="117.43"/>
      <line class="st0" x1="151.86" y1="14.17" x2="117.43" y2="14.17"/>
      <line class="st0" x1="220.7" y1="14.17" x2="186.27" y2="14.17"/>
      <line class="st0" x1="186.27" y1="14.17" x2="186.27" y2="14.17"/>
      <line class="st0" x1="48.59" y1="14.17" x2="48.59" y2="14.17"/>
      <polyline class="st0" points="83.01 14.17 48.59 14.17 14.17 14.17 14.17 31.38"/>
      <line class="st0" x1="255.12" y1="100.22" x2="255.12" y2="83.02"/>
      <line class="st0" x1="255.12" y1="48.59" x2="255.12" y2="48.59"/>
      <line class="st0" x1="14.17" y1="48.59" x2="14.17" y2="65.8"/>
      <line class="st0" x1="255.12" y1="83.01" x2="255.12" y2="83.02"/>
      <line class="st0" x1="255.12" y1="83.01" x2="255.12" y2="65.8"/>
      <line class="st0" x1="117.43" y1="117.43" x2="117.43" y2="117.43"/>
      <line class="st0" x1="255.12" y1="48.59" x2="255.12" y2="31.38"/>
      <line class="st0" x1="83.01" y1="117.43" x2="117.43" y2="117.43"/>
      <line class="st0" x1="117.43" y1="117.43" x2="151.85" y2="117.43"/>
      <line class="st0" x1="151.86" y1="117.43" x2="151.85" y2="117.43"/>
      <line class="st0" x1="220.7" y1="117.43" x2="220.69" y2="117.43"/>
      <line class="st0" x1="48.59" y1="117.43" x2="48.59" y2="117.43"/>
      <path class="st0" d="M48.59,117.43"/>
      <line class="st0" x1="186.28" y1="117.43" x2="220.69" y2="117.43"/>
      <line class="st0" x1="186.27" y1="117.43" x2="186.28" y2="117.43"/>
    </g>
  </g>
</svg>