<?xml version="1.0" encoding="UTF-8"?>
<svg id="Ebene_2" xmlns="http://www.w3.org/2000/svg" version="1.1" viewBox="0 0 311.81 146.59">
  <!-- Generator: Adobe Illustrator 29.1.0, SVG Export Plug-In . SVG Version: 2.1.0 Build 142)  -->
  <defs>
    <style>
      .st0 {
        stroke-miterlimit: 10;
      }

      .st0, .st1 {
        fill: none;
        stroke: #1e1e1c;
        stroke-width: 1.2px;
      }

      .st2 {
        fill: #1e1e1c;
        font-family: Helvetica, Helvetica;
        font-size: 8px;
      }

      .st2, .st3 {
        isolation: isolate;
      }

      .st1 {
        stroke-linecap: round;
        stroke-linejoin: round;
      }
    </style>
  </defs>
  <g class="st3">
    <text class="st2" transform="translate(130.2 138.13)"><tspan x="0" y="0">68</tspan></text>
  </g>
  <g id="_x36_8_x5F_rein">
    <g>
      <path class="st1" d="M48.59,31.38c-12.91,4.3-17.21,0-34.42-17.21"/>
      <path class="st1" d="M48.59,31.38h0"/>
      <path class="st0" d="M14.17,14.17h0"/>
      <path class="st1" d="M48.59,31.38c-4.22,12.94-10.35,13.61-34.42,17.21"/>
      <line class="st0" x1="14.17" y1="48.59" x2="14.17" y2="48.59"/>
      <path class="st1" d="M48.59,31.38h0"/>
      <path class="st0" d="M83.01,14.17h0"/>
      <path class="st1" d="M117.44,31.38h0"/>
      <path class="st1" d="M83.01,14.17c17.21,17.21,21.51,21.51,34.42,17.21"/>
      <path class="st1" d="M83.01,48.59c-12.91,4.3-17.21,0-34.42-17.21"/>
      <path class="st1" d="M83.01,48.59h0"/>
      <line class="st0" x1="83.01" y1="14.17" x2="83.01" y2="14.17"/>
      <path class="st1" d="M83.01,14.17c-4.22,12.94-10.35,13.61-34.42,17.21"/>
      <line class="st1" x1="83.01" y1="48.59" x2="83.01" y2="48.59"/>
      <path class="st1" d="M83.01,48.59c24.07-3.6,30.2-4.28,34.42-17.21"/>
      <path class="st1" d="M117.44,31.38h0"/>
      <line class="st1" x1="186.28" y1="31.38" x2="186.28" y2="31.38"/>
      <path class="st0" d="M151.86,14.17h0"/>
      <path class="st1" d="M186.28,31.38c-12.91,4.3-17.21,0-34.42-17.21"/>
      <path class="st1" d="M117.44,31.38c17.21,17.21,21.51,21.51,34.42,17.21"/>
      <line class="st1" x1="151.86" y1="48.59" x2="151.86" y2="48.59"/>
      <line class="st0" x1="151.86" y1="14.17" x2="151.86" y2="14.17"/>
      <path class="st1" d="M117.44,31.38c24.07-3.6,30.2-4.28,34.42-17.21"/>
      <path class="st1" d="M186.28,31.38c-4.22,12.94-10.35,13.61-34.42,17.21"/>
      <line class="st1" x1="151.86" y1="48.59" x2="151.86" y2="48.59"/>
      <line class="st1" x1="186.28" y1="31.38" x2="186.28" y2="31.38"/>
      <path class="st1" d="M220.7,14.17c17.21,17.21,21.51,21.51,34.42,17.21"/>
      <line class="st0" x1="255.12" y1="31.38" x2="255.12" y2="31.38"/>
      <line class="st0" x1="220.7" y1="14.17" x2="220.7" y2="14.17"/>
      <path class="st1" d="M220.7,48.59h0"/>
      <path class="st1" d="M220.7,48.59c-12.91,4.3-17.21,0-34.42-17.21"/>
      <path class="st1" d="M220.7,14.17c-4.22,12.94-10.35,13.61-34.42,17.21"/>
      <line class="st0" x1="220.7" y1="14.17" x2="220.7" y2="14.17"/>
      <line class="st1" x1="220.7" y1="48.59" x2="220.7" y2="48.59"/>
      <path class="st1" d="M220.7,48.59c24.07-3.6,30.2-4.28,34.42-17.21"/>
      <line class="st0" x1="255.12" y1="31.38" x2="255.12" y2="31.38"/>
      <path class="st1" d="M48.59,65.8h0"/>
      <path class="st1" d="M48.59,65.8c-12.91,4.3-17.21,0-34.42-17.21"/>
      <line class="st0" x1="14.17" y1="48.59" x2="14.17" y2="48.59"/>
      <path class="st1" d="M48.59,65.8h0"/>
      <line class="st0" x1="14.17" y1="83.01" x2="14.17" y2="83.01"/>
      <path class="st1" d="M48.59,65.8c-4.22,12.94-10.35,13.61-34.42,17.21"/>
      <line class="st1" x1="117.44" y1="65.8" x2="117.44" y2="65.8"/>
      <line class="st1" x1="83.01" y1="48.59" x2="83.01" y2="48.59"/>
      <path class="st1" d="M83.01,48.59c17.21,17.21,21.51,21.51,34.42,17.21"/>
      <path class="st1" d="M83.01,83.01c-12.91,4.3-17.21,0-34.42-17.21"/>
      <path class="st1" d="M83.01,83.01h0"/>
      <path class="st1" d="M83.01,48.59c-4.22,12.94-10.35,13.61-34.42,17.21"/>
      <path class="st1" d="M83.01,48.59h0"/>
      <path class="st1" d="M83.01,83.01c24.07-3.6,30.2-4.28,34.42-17.21"/>
      <path class="st1" d="M117.44,65.8h0"/>
      <line class="st1" x1="83.01" y1="83.01" x2="83.01" y2="83.01"/>
      <line class="st1" x1="151.86" y1="48.59" x2="151.86" y2="48.59"/>
      <path class="st1" d="M186.28,65.8c-12.91,4.3-17.21,0-34.42-17.21"/>
      <line class="st1" x1="186.28" y1="65.8" x2="186.28" y2="65.8"/>
      <line class="st1" x1="151.86" y1="83.01" x2="151.86" y2="83.01"/>
      <path class="st1" d="M117.44,65.8c17.21,17.21,21.51,21.51,34.42,17.21"/>
      <path class="st1" d="M151.86,48.59h0"/>
      <path class="st1" d="M117.44,65.8c24.07-3.6,30.2-4.28,34.42-17.21"/>
      <path class="st1" d="M186.28,65.8c-4.22,12.94-10.35,13.61-34.42,17.21"/>
      <line class="st1" x1="151.86" y1="83.01" x2="151.86" y2="83.01"/>
      <path class="st1" d="M186.28,65.8h0"/>
      <line class="st0" x1="255.12" y1="65.8" x2="255.12" y2="65.8"/>
      <path class="st1" d="M220.7,48.59c17.21,17.21,21.51,21.51,34.42,17.21"/>
      <line class="st1" x1="220.7" y1="48.59" x2="220.7" y2="48.59"/>
      <path class="st1" d="M220.7,83.01h0"/>
      <path class="st1" d="M220.7,83.01c-12.91,4.3-17.21,0-34.42-17.21"/>
      <path class="st1" d="M220.7,48.59c-4.22,12.94-10.35,13.61-34.42,17.21"/>
      <path class="st1" d="M220.7,48.59h0"/>
      <line class="st1" x1="220.7" y1="83.01" x2="220.7" y2="83.01"/>
      <path class="st1" d="M220.7,83.01c24.07-3.6,30.2-4.28,34.42-17.21"/>
      <path class="st0" d="M255.12,65.8h0"/>
      <line class="st0" x1="14.17" y1="83.01" x2="14.17" y2="83.01"/>
      <path class="st1" d="M48.59,100.22h0"/>
      <path class="st1" d="M48.59,100.22c-12.91,4.3-17.21,0-34.42-17.21"/>
      <path class="st1" d="M48.59,100.22h0"/>
      <path class="st1" d="M48.59,100.22c-4.22,12.94-10.35,13.61-34.42,17.21"/>
      <path class="st1" d="M117.44,100.22h0"/>
      <path class="st1" d="M83.01,83.01c17.21,17.21,21.51,21.51,34.42,17.21"/>
      <line class="st1" x1="83.01" y1="83.01" x2="83.01" y2="83.01"/>
      <path class="st1" d="M48.59,100.22c9.22,9.22,14.74,14.74,19.86,17.21"/>
      <line class="st1" x1="83.01" y1="83.01" x2="83.01" y2="83.01"/>
      <path class="st1" d="M83.01,83.01c-4.22,12.94-10.35,13.61-34.42,17.21"/>
      <path class="st1" d="M117.44,100.22h0"/>
      <path class="st1" d="M83.01,117.43c24.07-3.6,30.2-4.28,34.42-17.21"/>
      <path class="st1" d="M186.28,100.22c-12.91,4.3-17.21,0-34.42-17.21"/>
      <line class="st1" x1="151.86" y1="83.01" x2="151.86" y2="83.01"/>
      <line class="st1" x1="186.28" y1="100.22" x2="186.28" y2="100.22"/>
      <path class="st1" d="M117.44,100.22c9.22,9.22,14.74,14.74,19.86,17.21"/>
      <path class="st1" d="M151.86,83.01c-4.22,12.94-10.35,13.61-34.42,17.21"/>
      <line class="st1" x1="151.86" y1="83.01" x2="151.86" y2="83.01"/>
      <line class="st1" x1="186.28" y1="100.22" x2="186.28" y2="100.22"/>
      <path class="st1" d="M186.28,100.22c-4.22,12.94-10.35,13.61-34.42,17.21"/>
      <line class="st1" x1="220.7" y1="83.01" x2="220.7" y2="83.01"/>
      <path class="st1" d="M220.7,83.01c17.21,17.21,21.51,21.51,34.42,17.21"/>
      <line class="st0" x1="255.12" y1="100.22" x2="255.12" y2="100.22"/>
      <path class="st1" d="M186.28,100.22c9.22,9.22,14.74,14.74,19.86,17.21"/>
      <path class="st1" d="M220.7,83.01h0"/>
      <path class="st1" d="M220.7,83.01c-4.22,12.94-10.35,13.61-34.42,17.21"/>
      <line class="st0" x1="255.12" y1="100.22" x2="255.12" y2="100.22"/>
      <path class="st1" d="M255.12,100.22c-4.22,12.94-10.35,13.61-34.42,17.21"/>
      <polyline class="st0" points="14.17 14.17 14.17 14.17 14.17 48.59"/>
      <polyline class="st0" points="68.46 117.43 14.17 117.43 14.17 117.43"/>
      <line class="st0" x1="83.01" y1="117.43" x2="68.46" y2="117.43"/>
      <line class="st0" x1="14.17" y1="48.59" x2="14.17" y2="48.59"/>
      <line class="st0" x1="14.17" y1="117.43" x2="14.17" y2="83.01"/>
      <line class="st0" x1="83.01" y1="14.17" x2="14.17" y2="14.17"/>
      <line class="st0" x1="14.17" y1="48.59" x2="14.17" y2="83.01"/>
      <line class="st0" x1="14.17" y1="83.01" x2="14.17" y2="83.01"/>
      <line class="st0" x1="83.01" y1="14.17" x2="83.01" y2="14.17"/>
      <polyline class="st0" points="220.7 117.43 255.12 117.43 255.12 14.17 220.7 14.17"/>
      <line class="st0" x1="151.86" y1="14.17" x2="83.01" y2="14.17"/>
      <line class="st0" x1="206.14" y1="117.43" x2="151.86" y2="117.43"/>
      <line class="st0" x1="151.86" y1="14.17" x2="220.7" y2="14.17"/>
      <line class="st0" x1="220.7" y1="117.43" x2="206.14" y2="117.43"/>
      <line class="st0" x1="220.7" y1="14.17" x2="220.7" y2="14.17"/>
      <line class="st0" x1="151.86" y1="14.17" x2="151.86" y2="14.17"/>
      <line class="st0" x1="83.01" y1="117.43" x2="137.3" y2="117.43"/>
      <line class="st0" x1="151.86" y1="117.43" x2="137.3" y2="117.43"/>
    </g>
  </g>
</svg>