<?xml version="1.0" encoding="UTF-8"?>
<svg id="Ebene_2" xmlns="http://www.w3.org/2000/svg" version="1.1" viewBox="0 0 311.81 146.59">
  <!-- Generator: Adobe Illustrator 29.1.0, SVG Export Plug-In . SVG Version: 2.1.0 Build 142)  -->
  <defs>
    <style>
      .st0 {
        stroke-miterlimit: 10;
      }

      .st0, .st1 {
        fill: none;
        stroke: #1e1e1c;
        stroke-width: 1.2px;
      }

      .st2 {
        fill: #1e1e1c;
        font-family: Helvetica, Helvetica;
        font-size: 8px;
      }

      .st2, .st3 {
        isolation: isolate;
      }

      .st1 {
        stroke-linecap: round;
        stroke-linejoin: round;
      }
    </style>
  </defs>
  <g class="st3">
    <text class="st2" transform="translate(130.2 138.13)"><tspan x="0" y="0">69</tspan></text>
  </g>
  <g id="_x36_9_x5F_rein">
    <g>
      <path class="st1" d="M48.59,48.59c-3.97-2.66-7.09-5.69-8.6-8.72"/>
      <path class="st1" d="M48.59,48.59h0"/>
      <path class="st1" d="M39.99,39.87c-8.36,0-18.52-3.61-25.82-8.49"/>
      <path class="st1" d="M48.59,48.59h0"/>
      <path class="st1" d="M57.2,39.87c-1.52,3.03-4.64,6.06-8.6,8.72"/>
      <path class="st1" d="M83.02,31.38h0"/>
      <path class="st1" d="M83.02,31.38c-7.29,4.88-17.46,8.49-25.82,8.49"/>
      <path class="st1" d="M14.17,31.38c3.97-2.66,7.09-5.69,8.6-8.72"/>
      <path class="st1" d="M22.78,22.66c8.36,0,18.52-3.61,25.82-8.49"/>
      <path class="st0" d="M48.59,14.17h0"/>
      <path class="st1" d="M74.41,22.66c1.52,3.03,4.64,6.06,8.6,8.72"/>
      <path class="st0" d="M48.59,14.17h0"/>
      <path class="st1" d="M74.41,22.66c-8.36,0-18.52-3.61-25.82-8.49"/>
      <path class="st1" d="M117.44,48.59h0"/>
      <path class="st1" d="M108.83,39.87c1.52,3.03,4.64,6.06,8.6,8.72"/>
      <path class="st1" d="M83.02,31.38c7.29,4.88,17.46,8.49,25.82,8.49"/>
      <line class="st1" x1="83.02" y1="31.38" x2="83.02" y2="31.38"/>
      <path class="st1" d="M117.44,48.59h0"/>
      <path class="st1" d="M117.44,48.59c3.97-2.66,7.09-5.69,8.6-8.72"/>
      <path class="st1" d="M151.86,31.38c-7.29,4.88-17.46,8.49-25.82,8.49"/>
      <line class="st1" x1="151.86" y1="31.38" x2="151.86" y2="31.38"/>
      <path class="st1" d="M83.02,31.38c3.97-2.66,7.09-5.69,8.6-8.72"/>
      <path class="st1" d="M91.62,22.66c8.36,0,18.52-3.61,25.82-8.49"/>
      <path class="st0" d="M117.44,14.17h0"/>
      <path class="st1" d="M143.25,22.66c1.52,3.03,4.64,6.06,8.6,8.72"/>
      <path class="st1" d="M143.25,22.66c-8.36,0-18.52-3.61-25.82-8.49"/>
      <path class="st0" d="M117.44,14.17h0"/>
      <path class="st1" d="M177.67,39.87c1.52,3.03,4.64,6.06,8.6,8.72"/>
      <path class="st1" d="M186.28,48.59h0"/>
      <path class="st1" d="M151.86,31.38h0"/>
      <path class="st1" d="M151.86,31.38c7.29,4.88,17.46,8.49,25.82,8.49"/>
      <path class="st1" d="M186.28,48.59h0"/>
      <path class="st1" d="M186.28,48.59c3.97-2.66,7.09-5.69,8.6-8.72"/>
      <path class="st1" d="M220.7,31.38c-7.29,4.88-17.46,8.49-25.82,8.49"/>
      <path class="st1" d="M220.7,31.38h0"/>
      <path class="st1" d="M151.86,31.38c3.97-2.66,7.09-5.69,8.6-8.72"/>
      <path class="st1" d="M160.46,22.66c8.36,0,18.52-3.61,25.82-8.49"/>
      <path class="st0" d="M186.28,14.17h0"/>
      <path class="st1" d="M212.09,22.66c1.52,3.03,4.64,6.06,8.6,8.72"/>
      <path class="st0" d="M186.28,14.17h0"/>
      <path class="st1" d="M212.09,22.66c-8.36,0-18.52-3.61-25.82-8.49"/>
      <line class="st0" x1="255.12" y1="48.59" x2="255.12" y2="48.59"/>
      <path class="st1" d="M246.51,39.87c1.52,3.03,4.64,6.06,8.6,8.72"/>
      <path class="st1" d="M220.7,31.38c7.29,4.88,17.46,8.49,25.82,8.49"/>
      <path class="st1" d="M220.7,31.38h0"/>
      <path class="st0" d="M255.12,48.59h0"/>
      <line class="st0" x1="255.12" y1="48.59" x2="255.12" y2="48.59"/>
      <path class="st1" d="M220.7,31.38c3.97-2.66,7.09-5.69,8.6-8.72"/>
      <path class="st0" d="M255.12,14.17h0"/>
      <path class="st1" d="M229.3,22.66c8.36,0,18.52-3.61,25.82-8.49"/>
      <path class="st0" d="M255.12,14.17h0"/>
      <path class="st0" d="M255.12,14.17h0"/>
      <path class="st1" d="M39.99,74.29c1.52,3.03,4.64,6.06,8.6,8.72"/>
      <path class="st1" d="M48.59,83.01h0"/>
      <path class="st1" d="M14.17,65.8c7.29,4.88,17.46,8.49,25.82,8.49"/>
      <path class="st1" d="M57.2,74.29c-1.52,3.03-4.64,6.06-8.6,8.72"/>
      <path class="st1" d="M48.59,83.01h0"/>
      <path class="st1" d="M83.02,65.8c-7.29,4.88-17.46,8.49-25.82,8.49"/>
      <path class="st1" d="M83.02,65.8h0"/>
      <path class="st1" d="M22.78,57.08c-1.52,3.03-4.64,6.06-8.6,8.72"/>
      <path class="st1" d="M48.59,48.59c-7.29,4.88-17.46,8.49-25.82,8.49"/>
      <path class="st1" d="M48.59,48.59h0"/>
      <path class="st1" d="M83.02,65.8c-3.97-2.66-7.09-5.69-8.6-8.72"/>
      <path class="st1" d="M74.41,57.08c-8.36,0-18.52-3.61-25.82-8.49"/>
      <path class="st1" d="M48.59,48.59h0"/>
      <path class="st1" d="M108.83,74.29c1.52,3.03,4.64,6.06,8.6,8.72"/>
      <path class="st1" d="M117.44,83.01h0"/>
      <path class="st1" d="M83.02,65.8c7.29,4.88,17.46,8.49,25.82,8.49"/>
      <path class="st1" d="M83.02,65.8h0"/>
      <path class="st1" d="M117.44,83.01h0"/>
      <path class="st1" d="M126.04,74.29c-1.52,3.03-4.64,6.06-8.6,8.72"/>
      <path class="st1" d="M151.86,65.8c-7.29,4.88-17.46,8.49-25.82,8.49"/>
      <path class="st1" d="M151.86,65.8h0"/>
      <path class="st1" d="M91.62,57.08c-1.52,3.03-4.64,6.06-8.6,8.72"/>
      <path class="st1" d="M117.44,48.59h0"/>
      <path class="st1" d="M91.62,57.08c8.36,0,18.52-3.61,25.82-8.49"/>
      <path class="st1" d="M143.25,57.08c1.52,3.03,4.64,6.06,8.6,8.72"/>
      <path class="st1" d="M117.44,48.59h0"/>
      <path class="st1" d="M143.25,57.08c-8.36,0-18.52-3.61-25.82-8.49"/>
      <path class="st1" d="M177.67,74.29c1.52,3.03,4.64,6.06,8.6,8.72"/>
      <path class="st1" d="M186.28,83.01h0"/>
      <path class="st1" d="M151.86,65.8h0"/>
      <path class="st1" d="M151.86,65.8c7.29,4.88,17.46,8.49,25.82,8.49"/>
      <path class="st1" d="M186.28,83.01h0"/>
      <path class="st1" d="M194.88,74.29c-1.52,3.03-4.64,6.06-8.6,8.72"/>
      <path class="st1" d="M220.7,65.8c-7.29,4.88-17.46,8.49-25.82,8.49"/>
      <path class="st1" d="M220.7,65.8h0"/>
      <path class="st1" d="M160.46,57.08c-1.52,3.03-4.64,6.06-8.6,8.72"/>
      <path class="st1" d="M160.46,57.08c8.36,0,18.52-3.61,25.82-8.49"/>
      <path class="st1" d="M186.28,48.59h0"/>
      <path class="st1" d="M212.09,57.08c1.52,3.03,4.64,6.06,8.6,8.72"/>
      <path class="st1" d="M212.09,57.08c-8.36,0-18.52-3.61-25.82-8.49"/>
      <path class="st1" d="M186.28,48.59h0"/>
      <path class="st1" d="M255.12,83.01c-3.97-2.66-7.09-5.69-8.6-8.72"/>
      <line class="st0" x1="255.12" y1="83.01" x2="255.12" y2="83.01"/>
      <path class="st1" d="M220.7,65.8h0"/>
      <path class="st1" d="M220.7,65.8c7.29,4.88,17.46,8.49,25.82,8.49"/>
      <line class="st0" x1="255.12" y1="83.01" x2="255.12" y2="83.01"/>
      <path class="st0" d="M255.12,83.01h0"/>
      <path class="st1" d="M229.3,57.08c-1.52,3.03-4.64,6.06-8.6,8.72"/>
      <path class="st0" d="M255.12,48.59h0"/>
      <path class="st1" d="M229.3,57.08c8.36,0,18.52-3.61,25.82-8.49"/>
      <path class="st0" d="M255.12,48.59h0"/>
      <path class="st0" d="M255.12,48.59h0"/>
      <path class="st1" d="M39.99,108.71c1.52,3.03,4.64,6.06,8.6,8.72"/>
      <path class="st0" d="M48.59,117.43h0"/>
      <path class="st1" d="M39.99,108.71c-8.36,0-18.52-3.61-25.82-8.49"/>
      <path class="st0" d="M48.59,117.43h0"/>
      <path class="st1" d="M57.2,108.71c-1.52,3.03-4.64,6.06-8.6,8.72"/>
      <path class="st1" d="M83.02,100.22h0"/>
      <path class="st1" d="M83.02,100.22c-7.29,4.88-17.46,8.49-25.82,8.49"/>
      <path class="st1" d="M14.17,100.22c3.97-2.66,7.09-5.69,8.6-8.72"/>
      <path class="st1" d="M48.59,83.01c-7.29,4.88-17.46,8.49-25.82,8.49"/>
      <path class="st1" d="M48.59,83.01h0"/>
      <path class="st1" d="M74.41,91.5c1.52,3.03,4.64,6.06,8.6,8.72"/>
      <path class="st1" d="M74.41,91.5c-8.36,0-18.52-3.61-25.82-8.49"/>
      <path class="st1" d="M48.59,83.01h0"/>
      <path class="st1" d="M117.44,117.43c-3.97-2.66-7.09-5.69-8.6-8.72"/>
      <line class="st0" x1="117.44" y1="117.43" x2="117.44" y2="117.43"/>
      <path class="st1" d="M83.02,100.22c7.29,4.88,17.46,8.49,25.82,8.49"/>
      <line class="st1" x1="83.02" y1="100.22" x2="83.02" y2="100.22"/>
      <path class="st1" d="M117.44,117.43c3.97-2.66,7.09-5.69,8.6-8.72"/>
      <line class="st0" x1="117.44" y1="117.43" x2="117.44" y2="117.43"/>
      <line class="st1" x1="151.86" y1="100.22" x2="151.86" y2="100.22"/>
      <path class="st1" d="M151.86,100.22c-7.29,4.88-17.46,8.49-25.82,8.49"/>
      <path class="st1" d="M91.62,91.5c-1.52,3.03-4.64,6.06-8.6,8.72"/>
      <path class="st1" d="M117.44,83.01c-7.29,4.88-17.46,8.49-25.82,8.49"/>
      <path class="st1" d="M117.44,83.01h0"/>
      <path class="st1" d="M143.25,91.5c1.52,3.03,4.64,6.06,8.6,8.72"/>
      <path class="st1" d="M117.44,83.01h0"/>
      <path class="st1" d="M143.25,91.5c-8.36,0-18.52-3.61-25.82-8.49"/>
      <path class="st0" d="M186.28,117.43h0"/>
      <path class="st1" d="M186.28,117.43c-3.97-2.66-7.09-5.69-8.6-8.72"/>
      <path class="st1" d="M151.86,100.22h0"/>
      <path class="st1" d="M151.86,100.22c7.29,4.88,17.46,8.49,25.82,8.49"/>
      <path class="st1" d="M186.28,117.43c3.97-2.66,7.09-5.69,8.6-8.72"/>
      <line class="st0" x1="186.28" y1="117.43" x2="186.28" y2="117.43"/>
      <path class="st1" d="M220.7,100.22h0"/>
      <path class="st1" d="M220.7,100.22c-7.29,4.88-17.46,8.49-25.82,8.49"/>
      <path class="st1" d="M160.46,91.5c-1.52,3.03-4.64,6.06-8.6,8.72"/>
      <path class="st1" d="M186.28,83.01c-7.29,4.88-17.46,8.49-25.82,8.49"/>
      <path class="st1" d="M186.28,83.01h0"/>
      <path class="st1" d="M212.09,91.5c1.52,3.03,4.64,6.06,8.6,8.72"/>
      <path class="st1" d="M212.09,91.5c-8.36,0-18.52-3.61-25.82-8.49"/>
      <path class="st1" d="M186.28,83.01h0"/>
      <path class="st0" d="M255.12,117.43h0"/>
      <path class="st1" d="M255.12,117.43c-3.97-2.66-7.09-5.69-8.6-8.72"/>
      <path class="st1" d="M220.7,100.22c7.29,4.88,17.46,8.49,25.82,8.49"/>
      <path class="st1" d="M220.7,100.22h0"/>
      <path class="st0" d="M255.12,117.43h0"/>
      <path class="st0" d="M255.12,117.43h0"/>
      <path class="st1" d="M229.3,91.5c-1.52,3.03-4.64,6.06-8.6,8.72"/>
      <path class="st1" d="M255.12,83.01c-7.29,4.88-17.46,8.49-25.82,8.49"/>
      <path class="st0" d="M255.12,83.01h0"/>
      <path class="st0" d="M255.12,83.01h0"/>
      <path class="st0" d="M255.12,83.01h0"/>
      <path class="st0" d="M48.59,117.43h0"/>
      <path class="st0" d="M48.59,117.43h0"/>
      <path class="st0" d="M48.59,117.43h0"/>
      <path class="st0" d="M48.59,117.43h0"/>
      <path class="st0" d="M117.44,117.43h0"/>
      <path class="st0" d="M117.44,117.43h0"/>
      <path class="st0" d="M117.44,117.43h0"/>
      <path class="st0" d="M117.44,117.43h0"/>
      <path class="st0" d="M186.28,117.43h0"/>
      <path class="st0" d="M186.28,117.43h0"/>
      <path class="st0" d="M186.28,117.43h0"/>
      <path class="st0" d="M186.28,117.43h0"/>
      <path class="st0" d="M255.12,117.43h0"/>
      <path class="st0" d="M255.12,117.43h0"/>
      <path class="st0" d="M255.12,117.43h0"/>
      <path class="st0" d="M255.12,117.43h0"/>
      <line class="st0" x1="117.44" y1="117.43" x2="117.44" y2="117.43"/>
      <line class="st0" x1="255.12" y1="14.17" x2="255.12" y2="14.17"/>
      <line class="st0" x1="186.28" y1="117.43" x2="186.28" y2="117.43"/>
      <line class="st0" x1="186.28" y1="14.17" x2="186.28" y2="14.17"/>
      <line class="st0" x1="48.59" y1="117.43" x2="48.59" y2="117.43"/>
      <line class="st0" x1="255.12" y1="83.01" x2="255.12" y2="83.01"/>
      <line class="st0" x1="14.17" y1="31.38" x2="14.17" y2="65.8"/>
      <polyline class="st0" points="48.59 117.43 14.17 117.43 14.17 100.22"/>
      <line class="st0" x1="117.44" y1="117.43" x2="186.28" y2="117.43"/>
      <line class="st0" x1="14.17" y1="100.22" x2="14.17" y2="65.8"/>
      <line class="st0" x1="255.12" y1="48.59" x2="255.12" y2="83.01"/>
      <polyline class="st0" points="48.59 14.17 14.17 14.17 14.17 31.38"/>
      <line class="st0" x1="48.59" y1="117.43" x2="117.44" y2="117.43"/>
      <line class="st0" x1="48.59" y1="14.17" x2="117.44" y2="14.17"/>
      <polyline class="st0" points="255.12 14.17 255.12 14.17 255.12 14.17"/>
      <line class="st0" x1="117.44" y1="14.17" x2="186.28" y2="14.17"/>
      <line class="st0" x1="117.44" y1="14.17" x2="117.44" y2="14.17"/>
      <line class="st0" x1="48.59" y1="14.17" x2="48.59" y2="14.17"/>
      <polyline class="st0" points="255.12 117.43 255.12 117.43 255.12 117.43"/>
      <line class="st0" x1="186.28" y1="117.43" x2="255.12" y2="117.43"/>
      <line class="st0" x1="186.28" y1="14.17" x2="255.12" y2="14.17"/>
      <line class="st0" x1="255.12" y1="117.43" x2="255.12" y2="83.01"/>
      <line class="st0" x1="255.12" y1="48.59" x2="255.12" y2="48.59"/>
      <line class="st0" x1="255.12" y1="14.17" x2="255.12" y2="48.59"/>
      <line class="st0" x1="255.12" y1="117.43" x2="255.12" y2="117.43"/>
    </g>
  </g>
</svg>