<?xml version="1.0" encoding="UTF-8"?>
<svg id="Ebene_2" xmlns="http://www.w3.org/2000/svg" version="1.1" viewBox="0 0 311.81 146.59">
  <!-- Generator: Adobe Illustrator 29.1.0, SVG Export Plug-In . SVG Version: 2.1.0 Build 142)  -->
  <defs>
    <style>
      .st0 {
        stroke-miterlimit: 10;
      }

      .st0, .st1 {
        fill: none;
        stroke: #1e1e1c;
        stroke-width: 1.2px;
      }

      .st2 {
        fill: #1e1e1c;
        font-family: Helvetica, Helvetica;
        font-size: 8px;
      }

      .st2, .st3 {
        isolation: isolate;
      }

      .st1 {
        stroke-linecap: round;
        stroke-linejoin: round;
      }
    </style>
  </defs>
  <g class="st3">
    <text class="st2" transform="translate(130.2 138.13)"><tspan x="0" y="0">72</tspan></text>
  </g>
  <g id="_x37_2_x5F_rein">
    <g>
      <path class="st1" d="M31.38,31.38c-3.56-6.22-6.24-12.01-8.13-17.21"/>
      <path class="st1" d="M14.17,23.26c5.2,1.89,10.99,4.57,17.21,8.13"/>
      <path class="st1" d="M31.38,31.38c12.91,17.21,8.6,30.12,0,25.82-13.88-6.94-17.21,12.91,0,43.03"/>
      <path class="st1" d="M14.17,92.1c5.2,1.89,10.99,4.57,17.21,8.13"/>
      <path class="st1" d="M39.37,117.43c-.61-4.61-3.03-10.59-7.99-17.21"/>
      <path class="st1" d="M100.23,31.38c-3.56-6.22-6.24-12.01-8.13-17.21"/>
      <path class="st1" d="M31.38,31.38c17.21,12.91,30.12,8.6,25.82,0-6.94-13.88,12.91-17.21,43.03,0"/>
      <path class="st1" d="M100.23,31.38c12.91,17.21,8.6,30.12,0,25.82-13.88-6.94-17.21,12.91,0,43.03"/>
      <path class="st1" d="M100.23,100.22c-30.12-17.21-49.96-13.88-43.03,0,4.3,8.6-8.6,12.91-25.82,0"/>
      <path class="st1" d="M100.23,100.22c4.96,6.62,7.38,12.6,7.99,17.21"/>
      <path class="st1" d="M169.07,31.38c-3.56-6.22-6.24-12.01-8.13-17.21"/>
      <path class="st1" d="M100.23,31.38c17.21,12.91,30.12,8.6,25.82,0-6.94-13.88,12.91-17.21,43.03,0"/>
      <path class="st1" d="M169.07,31.38c12.91,17.21,8.6,30.12,0,25.82-13.88-6.94-17.21,12.91,0,43.03"/>
      <path class="st1" d="M169.07,100.22c-30.12-17.21-49.96-13.88-43.03,0,4.3,8.6-8.61,12.91-25.82,0"/>
      <path class="st1" d="M169.07,100.22c4.96,6.62,7.38,12.6,7.99,17.21"/>
      <path class="st1" d="M237.91,31.38c-3.56-6.22-6.24-12.01-8.13-17.21"/>
      <path class="st1" d="M169.07,31.38c17.21,12.91,30.12,8.6,25.82,0-6.94-13.88,12.91-17.21,43.03,0"/>
      <path class="st1" d="M237.91,31.38c12.91,17.21,8.6,30.12,0,25.82-13.88-6.94-17.21,12.91,0,43.03"/>
      <path class="st1" d="M237.91,100.22c-30.12-17.21-49.96-13.88-43.03,0,4.3,8.6-8.6,12.91-25.82,0"/>
      <path class="st1" d="M237.91,100.22c4.96,6.62,7.38,12.6,7.99,17.21"/>
      <path class="st1" d="M237.91,31.38c6.62,4.96,12.6,7.38,17.21,7.99"/>
      <path class="st1" d="M237.91,100.22c6.62,4.96,12.6,7.38,17.21,7.99"/>
      <line class="st0" x1="255.12" y1="39.37" x2="255.12" y2="108.21"/>
      <line class="st0" x1="245.9" y1="117.43" x2="177.06" y2="117.43"/>
      <line class="st0" x1="14.17" y1="92.1" x2="14.17" y2="23.26"/>
      <line class="st0" x1="92.1" y1="14.17" x2="23.26" y2="14.17"/>
      <line class="st0" x1="39.37" y1="117.43" x2="108.21" y2="117.43"/>
      <line class="st0" x1="229.78" y1="14.17" x2="160.94" y2="14.17"/>
      <polyline class="st0" points="14.17 92.1 14.17 117.43 39.37 117.43"/>
      <line class="st0" x1="92.1" y1="14.17" x2="160.94" y2="14.17"/>
      <polyline class="st0" points="229.78 14.17 255.12 14.17 255.12 39.37"/>
      <line class="st0" x1="108.21" y1="117.43" x2="177.06" y2="117.43"/>
      <polyline class="st0" points="245.9 117.43 255.12 117.43 255.12 108.21"/>
      <polyline class="st0" points="23.26 14.17 14.17 14.17 14.17 23.26"/>
    </g>
  </g>
</svg>