<?xml version="1.0" encoding="UTF-8"?>
<svg id="Ebene_2" xmlns="http://www.w3.org/2000/svg" version="1.1" viewBox="0 0 311.81 146.59">
  <!-- Generator: Adobe Illustrator 29.1.0, SVG Export Plug-In . SVG Version: 2.1.0 Build 142)  -->
  <defs>
    <style>
      .st0 {
        stroke-miterlimit: 10;
      }

      .st0, .st1 {
        fill: none;
        stroke: #1e1e1c;
        stroke-width: 1.2px;
      }

      .st2 {
        fill: #1e1e1c;
        font-family: Helvetica, Helvetica;
        font-size: 8px;
      }

      .st2, .st3 {
        isolation: isolate;
      }

      .st1 {
        stroke-linecap: round;
        stroke-linejoin: round;
      }
    </style>
  </defs>
  <g class="st3">
    <text class="st2" transform="translate(130.2 138.13)"><tspan x="0" y="0">74</tspan></text>
  </g>
  <g id="_x37_4_x5F_rein">
    <g>
      <polyline class="st1" points="31.38 31.38 18.48 39.99 14.17 38.27"/>
      <polyline class="st1" points="24.5 14.17 22.78 18.48 31.38 31.38"/>
      <polyline class="st1" points="31.38 31.38 44.29 22.78 65.8 31.38"/>
      <line class="st1" x1="31.38" y1="31.38" x2="31.38" y2="31.38"/>
      <polyline class="st1" points="65.8 31.38 87.32 39.99 100.23 31.38"/>
      <polyline class="st1" points="65.8 31.38 57.2 18.48 58.92 14.17"/>
      <polyline class="st1" points="100.23 31.38 91.62 18.48 93.34 14.17"/>
      <polyline class="st1" points="134.65 31.38 156.16 39.99 169.07 31.38"/>
      <polyline class="st1" points="100.23 31.38 113.13 22.78 134.65 31.38"/>
      <line class="st1" x1="100.23" y1="31.38" x2="100.23" y2="31.38"/>
      <polyline class="st1" points="127.76 14.17 126.04 18.48 134.65 31.38"/>
      <polyline class="st1" points="162.18 14.17 160.46 18.48 169.07 31.38"/>
      <polyline class="st1" points="203.49 31.38 225 39.99 237.91 31.38"/>
      <polyline class="st1" points="203.49 31.38 181.97 22.78 169.07 31.38"/>
      <line class="st1" x1="169.07" y1="31.38" x2="169.07" y2="31.38"/>
      <polyline class="st1" points="203.49 31.38 194.88 18.48 196.6 14.17"/>
      <polyline class="st1" points="231.02 14.17 229.3 18.48 237.91 31.38"/>
      <polyline class="st1" points="255.12 24.5 250.82 22.78 237.91 31.38"/>
      <line class="st1" x1="237.91" y1="31.38" x2="237.91" y2="31.38"/>
      <line class="st1" x1="31.38" y1="65.8" x2="31.38" y2="65.8"/>
      <polyline class="st1" points="31.38 65.8 18.48 74.41 14.17 72.69"/>
      <polyline class="st1" points="31.38 100.22 18.48 108.83 14.17 107.11"/>
      <polyline class="st1" points="31.38 65.8 39.99 44.29 31.38 31.38"/>
      <line class="st1" x1="31.38" y1="65.8" x2="31.38" y2="65.8"/>
      <line class="st1" x1="31.38" y1="31.38" x2="31.38" y2="31.38"/>
      <line class="st1" x1="31.38" y1="100.22" x2="31.38" y2="100.22"/>
      <polyline class="st1" points="31.38 65.8 22.78 87.32 31.38 100.22"/>
      <polyline class="st1" points="100.23 65.8 87.32 74.41 65.8 65.8"/>
      <line class="st1" x1="31.38" y1="65.8" x2="31.38" y2="65.8"/>
      <line class="st1" x1="100.23" y1="65.8" x2="100.23" y2="65.8"/>
      <polyline class="st1" points="31.38 65.8 44.29 57.2 65.8 65.8"/>
      <line class="st1" x1="31.38" y1="100.22" x2="31.38" y2="100.22"/>
      <polyline class="st1" points="65.8 100.22 44.29 91.62 31.38 100.22"/>
      <polyline class="st1" points="100.23 100.22 87.32 108.83 65.8 100.22"/>
      <line class="st1" x1="31.38" y1="100.22" x2="31.38" y2="100.22"/>
      <line class="st1" x1="65.8" y1="31.38" x2="65.8" y2="31.38"/>
      <polyline class="st1" points="65.8 65.8 57.2 87.32 65.8 100.22"/>
      <polyline class="st1" points="65.8 65.8 74.41 44.29 65.8 31.38"/>
      <line class="st1" x1="100.23" y1="31.38" x2="100.23" y2="31.38"/>
      <line class="st1" x1="100.23" y1="100.22" x2="100.23" y2="100.22"/>
      <polyline class="st1" points="100.23 31.38 108.83 44.29 100.23 65.8"/>
      <line class="st1" x1="100.23" y1="65.8" x2="100.23" y2="65.8"/>
      <polyline class="st1" points="100.23 65.8 91.62 87.32 100.23 100.22"/>
      <line class="st1" x1="169.07" y1="65.8" x2="169.07" y2="65.8"/>
      <polyline class="st1" points="134.65 65.8 156.16 74.41 169.07 65.8"/>
      <polyline class="st1" points="100.23 65.8 113.13 57.2 134.65 65.8"/>
      <line class="st1" x1="100.23" y1="65.8" x2="100.23" y2="65.8"/>
      <line class="st1" x1="100.23" y1="100.22" x2="100.23" y2="100.22"/>
      <polyline class="st1" points="169.07 100.22 156.16 108.83 134.65 100.22"/>
      <polyline class="st1" points="134.65 100.22 113.13 91.62 100.23 100.22"/>
      <line class="st1" x1="100.23" y1="100.22" x2="100.23" y2="100.22"/>
      <polyline class="st1" points="134.65 65.8 143.25 44.29 134.65 31.38"/>
      <line class="st1" x1="134.65" y1="31.38" x2="134.65" y2="31.38"/>
      <polyline class="st1" points="134.65 65.8 126.04 87.32 134.65 100.22"/>
      <polyline class="st1" points="169.07 65.8 177.67 44.29 169.07 31.38"/>
      <line class="st1" x1="169.07" y1="31.38" x2="169.07" y2="31.38"/>
      <polyline class="st1" points="169.07 65.8 160.46 87.32 169.07 100.22"/>
      <line class="st1" x1="237.91" y1="65.8" x2="237.91" y2="65.8"/>
      <polyline class="st1" points="203.49 65.8 181.97 57.2 169.07 65.8"/>
      <polyline class="st1" points="203.49 65.8 225 74.41 237.91 65.8"/>
      <polyline class="st1" points="237.91 100.22 225 108.83 203.49 100.22"/>
      <polyline class="st1" points="203.49 100.22 181.97 91.62 169.07 100.22"/>
      <line class="st1" x1="169.07" y1="100.22" x2="169.07" y2="100.22"/>
      <polyline class="st1" points="203.49 65.8 194.88 87.32 203.49 100.22"/>
      <polyline class="st1" points="203.49 65.8 212.09 44.29 203.49 31.38"/>
      <line class="st1" x1="203.49" y1="31.38" x2="203.49" y2="31.38"/>
      <polyline class="st1" points="237.91 65.8 229.3 87.32 237.91 100.22"/>
      <polyline class="st1" points="237.91 65.8 246.51 44.29 237.91 31.38"/>
      <line class="st1" x1="237.91" y1="31.38" x2="237.91" y2="31.38"/>
      <polyline class="st1" points="255.12 58.92 250.82 57.2 237.91 65.8"/>
      <line class="st1" x1="237.91" y1="100.22" x2="237.91" y2="100.22"/>
      <polyline class="st1" points="255.12 93.34 250.82 91.62 237.91 100.22"/>
      <line class="st1" x1="31.38" y1="100.22" x2="31.38" y2="100.22"/>
      <polyline class="st1" points="31.38 100.22 39.99 113.13 38.27 117.43"/>
      <line class="st1" x1="65.8" y1="100.22" x2="65.8" y2="100.22"/>
      <polyline class="st1" points="72.69 117.43 74.41 113.13 65.8 100.22"/>
      <line class="st1" x1="100.23" y1="100.22" x2="100.23" y2="100.22"/>
      <polyline class="st1" points="100.23 100.22 108.83 113.13 107.11 117.43"/>
      <polyline class="st1" points="134.65 100.22 143.25 113.13 141.53 117.43"/>
      <line class="st1" x1="134.65" y1="100.22" x2="134.65" y2="100.22"/>
      <line class="st1" x1="169.07" y1="100.22" x2="169.07" y2="100.22"/>
      <polyline class="st1" points="175.95 117.43 177.67 113.13 169.07 100.22"/>
      <polyline class="st1" points="210.37 117.43 212.09 113.13 203.49 100.22"/>
      <line class="st1" x1="203.49" y1="100.22" x2="203.49" y2="100.22"/>
      <line class="st1" x1="237.91" y1="100.22" x2="237.91" y2="100.22"/>
      <polyline class="st1" points="237.91 100.22 246.51 113.13 244.79 117.43"/>
      <line class="st0" x1="58.92" y1="14.17" x2="93.34" y2="14.17"/>
      <line class="st0" x1="175.95" y1="117.43" x2="141.53" y2="117.43"/>
      <line class="st0" x1="14.17" y1="72.69" x2="14.17" y2="38.27"/>
      <line class="st0" x1="24.5" y1="14.17" x2="58.92" y2="14.17"/>
      <line class="st0" x1="127.76" y1="14.17" x2="93.34" y2="14.17"/>
      <polyline class="st0" points="24.5 14.17 14.17 14.17 14.17 38.27"/>
      <line class="st0" x1="14.17" y1="72.69" x2="14.17" y2="107.11"/>
      <line class="st0" x1="72.69" y1="117.43" x2="107.11" y2="117.43"/>
      <line class="st0" x1="72.69" y1="117.43" x2="38.27" y2="117.43"/>
      <line class="st0" x1="255.12" y1="58.92" x2="255.12" y2="93.34"/>
      <polyline class="st0" points="231.02 14.17 255.12 14.17 255.12 24.5"/>
      <polyline class="st0" points="255.12 93.34 255.12 117.43 244.79 117.43"/>
      <line class="st0" x1="210.37" y1="117.43" x2="244.79" y2="117.43"/>
      <line class="st0" x1="210.37" y1="117.43" x2="175.95" y2="117.43"/>
      <line class="st0" x1="255.12" y1="24.5" x2="255.12" y2="58.92"/>
      <line class="st0" x1="231.02" y1="14.17" x2="196.6" y2="14.17"/>
      <polyline class="st0" points="14.17 107.11 14.17 117.43 38.27 117.43"/>
      <line class="st0" x1="107.11" y1="117.43" x2="141.53" y2="117.43"/>
      <line class="st0" x1="196.6" y1="14.17" x2="162.18" y2="14.17"/>
      <line class="st0" x1="127.76" y1="14.17" x2="162.18" y2="14.17"/>
    </g>
  </g>
</svg>