<?xml version="1.0" encoding="UTF-8"?>
<svg id="Ebene_2" xmlns="http://www.w3.org/2000/svg" version="1.1" viewBox="0 0 311.81 146.59">
  <!-- Generator: Adobe Illustrator 29.1.0, SVG Export Plug-In . SVG Version: 2.1.0 Build 142)  -->
  <defs>
    <style>
      .st0 {
        stroke-miterlimit: 10;
      }

      .st0, .st1 {
        fill: none;
        stroke: #1e1e1c;
        stroke-width: 1.2px;
      }

      .st2 {
        fill: #1e1e1c;
        font-family: Helvetica, Helvetica;
        font-size: 8px;
      }

      .st2, .st3 {
        isolation: isolate;
      }

      .st1 {
        stroke-linecap: round;
        stroke-linejoin: round;
      }
    </style>
  </defs>
  <g class="st3">
    <text class="st2" transform="translate(130.2 138.13)"><tspan x="0" y="0">75</tspan></text>
  </g>
  <g id="_x37_5_x5F_rein">
    <g>
      <line class="st1" x1="31.38" y1="31.38" x2="31.38" y2="31.38"/>
      <path class="st1" d="M20.34,14.17c-1.17,2.07-1.87,3.59-1.87,4.3,0,4.3,12.91,12.91,12.91,12.91"/>
      <path class="st1" d="M14.17,42.42c2.07,1.17,3.59,1.87,4.3,1.87,4.3,0,12.91-12.91,12.91-12.91"/>
      <line class="st1" x1="100.23" y1="31.38" x2="100.23" y2="31.38"/>
      <path class="st1" d="M100.23,31.38s-12.91-8.61-12.91-12.91c0-.71.7-2.23,1.87-4.3"/>
      <line class="st1" x1="65.8" y1="31.38" x2="65.8" y2="31.38"/>
      <path class="st1" d="M65.8,31.38s12.91-8.61,12.91-12.91c0-.71-.7-2.23-1.87-4.3"/>
      <path class="st1" d="M31.38,31.38s8.61-12.91,12.91-12.91c2.15,0,11.83,6.45,21.51,12.91"/>
      <line class="st1" x1="31.38" y1="31.38" x2="31.38" y2="31.38"/>
      <path class="st1" d="M100.23,31.38s-8.6,12.91-12.91,12.91c-2.15,0-11.83-6.45-21.51-12.91"/>
      <path class="st1" d="M158.03,14.17c-1.17,2.07-1.87,3.59-1.87,4.3,0,4.3,12.9,12.9,12.91,12.91"/>
      <line class="st1" x1="169.07" y1="31.38" x2="169.07" y2="31.38"/>
      <path class="st1" d="M145.69,14.17c1.17,2.07,1.87,3.59,1.87,4.3,0,4.3-12.91,12.91-12.91,12.91"/>
      <line class="st1" x1="134.65" y1="31.38" x2="134.65" y2="31.38"/>
      <path class="st1" d="M100.23,31.38s8.61-12.91,12.91-12.91c2.15,0,11.83,6.45,21.51,12.91"/>
      <line class="st1" x1="100.23" y1="31.38" x2="100.23" y2="31.38"/>
      <path class="st1" d="M169.07,31.38s-8.6,12.91-12.91,12.91c-2.15,0-11.83-6.45-21.51-12.91"/>
      <path class="st1" d="M226.87,14.17c-1.17,2.07-1.87,3.59-1.87,4.3,0,4.3,12.91,12.91,12.91,12.91"/>
      <path class="st1" d="M214.53,14.17c1.17,2.07,1.87,3.59,1.87,4.3,0,4.3-12.91,12.91-12.91,12.91"/>
      <line class="st1" x1="203.49" y1="31.38" x2="203.49" y2="31.38"/>
      <line class="st1" x1="169.07" y1="31.38" x2="169.07" y2="31.38"/>
      <path class="st1" d="M203.49,31.38c9.68,6.45,19.36,12.91,21.51,12.91,4.3,0,12.91-12.91,12.91-12.91"/>
      <path class="st1" d="M169.07,31.38s8.61-12.91,12.91-12.91c2.15,0,11.83,6.45,21.51,12.91"/>
      <path class="st1" d="M237.91,31.38s8.61-12.91,12.91-12.91c.71,0,2.23.7,4.3,1.87"/>
      <path class="st1" d="M31.38,65.8c6.45-9.68,12.91-19.36,12.91-21.51,0-4.3-12.91-12.91-12.91-12.91"/>
      <path class="st1" d="M31.38,65.8c-6.45,9.68-12.91,19.36-12.91,21.51,0,4.3,12.91,12.91,12.91,12.91"/>
      <line class="st1" x1="31.38" y1="100.23" x2="31.38" y2="100.23"/>
      <path class="st1" d="M31.38,100.23s-8.6,12.91-12.91,12.91c-.71,0-2.23-.7-4.3-1.87"/>
      <line class="st1" x1="31.38" y1="65.8" x2="31.38" y2="65.8"/>
      <path class="st1" d="M31.38,65.8s-8.61-12.91-12.91-12.91c-.71,0-2.23.7-4.3,1.87"/>
      <path class="st1" d="M100.23,100.23s-12.91-8.61-12.91-12.91c0-2.15,6.45-11.83,12.91-21.51"/>
      <path class="st1" d="M100.23,65.8c6.45-9.68,12.91-19.36,12.91-21.51,0-4.3-12.91-12.91-12.91-12.91"/>
      <line class="st1" x1="100.23" y1="100.23" x2="100.23" y2="100.23"/>
      <path class="st1" d="M65.8,100.23s12.91-8.6,12.91-12.91c0-2.15-6.45-11.83-12.91-21.51"/>
      <path class="st1" d="M65.8,31.38s-12.91,8.61-12.91,12.91c0,2.15,6.45,11.83,12.91,21.51"/>
      <path class="st1" d="M31.38,100.23s8.61-12.91,12.91-12.91c2.15,0,11.83,6.45,21.51,12.91"/>
      <line class="st1" x1="31.38" y1="100.23" x2="31.38" y2="100.23"/>
      <path class="st1" d="M100.23,100.23s-8.6,12.91-12.91,12.91c-2.15,0-11.83-6.45-21.51-12.91"/>
      <path class="st1" d="M31.38,65.8s8.6,12.91,12.91,12.91c2.15,0,11.83-6.45,21.51-12.91"/>
      <line class="st1" x1="100.23" y1="65.8" x2="100.23" y2="65.8"/>
      <path class="st1" d="M65.8,65.8c9.68-6.45,19.36-12.91,21.51-12.91,4.3,0,12.91,12.91,12.91,12.91"/>
      <line class="st1" x1="169.07" y1="100.23" x2="169.07" y2="100.23"/>
      <path class="st1" d="M169.07,65.8c-6.45,9.68-12.91,19.36-12.91,21.51,0,4.3,12.9,12.9,12.91,12.91"/>
      <path class="st1" d="M169.07,31.38s12.91,8.61,12.91,12.91c0,2.15-6.45,11.83-12.91,21.51"/>
      <path class="st1" d="M134.65,100.23s12.91-8.6,12.91-12.91c0-2.15-6.45-11.83-12.91-21.51"/>
      <path class="st1" d="M134.65,31.38s-12.91,8.61-12.91,12.91c0,2.15,6.45,11.83,12.91,21.51"/>
      <path class="st1" d="M100.23,100.23s8.61-12.91,12.91-12.91c2.15,0,11.83,6.45,21.51,12.91"/>
      <path class="st1" d="M169.07,100.23s-8.6,12.91-12.91,12.91c-2.15,0-11.83-6.45-21.51-12.91"/>
      <line class="st1" x1="100.23" y1="100.23" x2="100.23" y2="100.23"/>
      <path class="st1" d="M169.07,65.8s-8.6-12.91-12.91-12.91c-2.15,0-11.83,6.45-21.51,12.91"/>
      <path class="st1" d="M100.23,65.8s8.6,12.91,12.91,12.91c2.15,0,11.83-6.45,21.51-12.91"/>
      <path class="st1" d="M237.91,100.23s-12.91-8.6-12.91-12.91c0-2.15,6.45-11.83,12.91-21.51"/>
      <path class="st1" d="M237.91,65.8c6.45-9.68,12.91-19.36,12.91-21.51,0-4.3-12.91-12.91-12.91-12.91"/>
      <path class="st1" d="M203.49,31.38s-12.91,8.61-12.91,12.91c0,2.15,6.45,11.83,12.91,21.51"/>
      <line class="st1" x1="203.49" y1="100.23" x2="203.49" y2="100.23"/>
      <path class="st1" d="M203.49,100.23s12.91-8.61,12.91-12.91c0-2.15-6.45-11.83-12.91-21.51"/>
      <path class="st1" d="M169.07,100.23s8.61-12.91,12.91-12.91c2.15,0,11.83,6.45,21.51,12.91"/>
      <line class="st1" x1="169.07" y1="100.23" x2="169.07" y2="100.23"/>
      <path class="st1" d="M237.91,100.23s-8.6,12.91-12.91,12.91c-2.15,0-11.83-6.45-21.51-12.91"/>
      <path class="st1" d="M203.49,65.8c-9.68,6.45-19.36,12.91-21.51,12.91-4.3,0-12.91-12.91-12.91-12.91"/>
      <line class="st1" x1="237.91" y1="65.8" x2="237.91" y2="65.8"/>
      <line class="st1" x1="169.07" y1="65.8" x2="169.07" y2="65.8"/>
      <path class="st1" d="M203.49,65.8c9.68-6.45,19.36-12.91,21.51-12.91,4.3,0,12.91,12.91,12.91,12.91"/>
      <path class="st1" d="M237.91,100.23s8.61-12.91,12.91-12.91c.71,0,2.23.7,4.3,1.87"/>
      <path class="st1" d="M237.91,65.8s8.61,12.91,12.91,12.91c.71,0,2.23-.7,4.3-1.87"/>
      <path class="st1" d="M31.38,100.23s12.91,8.6,12.91,12.91c0,.71-.7,2.23-1.87,4.3"/>
      <path class="st1" d="M100.23,100.23s12.91,8.6,12.91,12.91c0,.71-.7,2.23-1.87,4.3"/>
      <line class="st1" x1="65.8" y1="100.23" x2="65.8" y2="100.23"/>
      <path class="st1" d="M65.8,100.23s-12.91,8.61-12.91,12.91c0,.71.7,2.23,1.87,4.3"/>
      <path class="st1" d="M169.07,100.23s12.91,8.6,12.91,12.91c0,.71-.7,2.23-1.87,4.3"/>
      <path class="st1" d="M134.65,100.23s-12.91,8.61-12.91,12.91c0,.71.7,2.23,1.87,4.3"/>
      <line class="st1" x1="134.65" y1="100.23" x2="134.65" y2="100.23"/>
      <path class="st1" d="M237.91,100.23s12.91,8.6,12.91,12.91c0,.71-.7,2.23-1.87,4.3"/>
      <path class="st1" d="M203.49,100.23s-12.91,8.6-12.91,12.91c0,.71.7,2.23,1.87,4.3"/>
      <line class="st0" x1="42.42" y1="117.44" x2="54.76" y2="117.44"/>
      <line class="st0" x1="89.18" y1="14.17" x2="76.85" y2="14.17"/>
      <polyline class="st0" points="14.17 111.27 14.17 117.44 42.42 117.44"/>
      <line class="st0" x1="180.11" y1="117.44" x2="192.45" y2="117.44"/>
      <line class="st0" x1="111.27" y1="117.44" x2="54.76" y2="117.44"/>
      <line class="st0" x1="123.61" y1="117.44" x2="111.27" y2="117.44"/>
      <line class="st0" x1="145.69" y1="14.17" x2="158.03" y2="14.17"/>
      <line class="st0" x1="158.03" y1="14.17" x2="214.53" y2="14.17"/>
      <line class="st0" x1="14.17" y1="54.76" x2="14.17" y2="42.42"/>
      <line class="st0" x1="14.17" y1="111.27" x2="14.17" y2="54.76"/>
      <polyline class="st0" points="255.12 20.34 255.12 14.17 226.87 14.17"/>
      <line class="st0" x1="123.61" y1="117.44" x2="180.11" y2="117.44"/>
      <polyline class="st0" points="14.17 42.42 14.17 14.17 20.34 14.17"/>
      <line class="st0" x1="248.95" y1="117.44" x2="192.45" y2="117.44"/>
      <polyline class="st0" points="255.12 89.18 255.12 117.44 248.95 117.44"/>
      <line class="st0" x1="20.34" y1="14.17" x2="76.85" y2="14.17"/>
      <line class="st0" x1="145.69" y1="14.17" x2="89.18" y2="14.17"/>
      <line class="st0" x1="214.53" y1="14.17" x2="226.87" y2="14.17"/>
      <line class="st0" x1="255.12" y1="76.85" x2="255.12" y2="20.34"/>
      <line class="st0" x1="255.12" y1="89.18" x2="255.12" y2="76.85"/>
    </g>
  </g>
</svg>