<?xml version="1.0" encoding="UTF-8"?>
<svg id="Ebene_2" xmlns="http://www.w3.org/2000/svg" version="1.1" viewBox="0 0 311.81 146.59">
  <!-- Generator: Adobe Illustrator 29.1.0, SVG Export Plug-In . SVG Version: 2.1.0 Build 142)  -->
  <defs>
    <style>
      .st0 {
        stroke-miterlimit: 10;
      }

      .st0, .st1 {
        fill: none;
        stroke: #1e1e1c;
        stroke-width: 1.2px;
      }

      .st2 {
        fill: #1e1e1c;
        font-family: Helvetica, Helvetica;
        font-size: 8px;
      }

      .st2, .st3 {
        isolation: isolate;
      }

      .st1 {
        stroke-linecap: round;
        stroke-linejoin: round;
      }
    </style>
  </defs>
  <g class="st3">
    <text class="st2" transform="translate(130.2 138.13)"><tspan x="0" y="0">76</tspan></text>
  </g>
  <g id="_x37_6_x5F_rein">
    <g>
      <path class="st1" d="M24.15,117.43c.93-4.17,3.32-9.48,7.69-16.75"/>
      <line class="st1" x1="31.84" y1="66.26" x2="31.84" y2="66.26"/>
      <path class="st1" d="M32.27,99.97c-.14.24-.28.47-.42.71"/>
      <path class="st1" d="M32.27,99.97c12.39-20.9,8.08-25.2-.42-33.71"/>
      <path class="st1" d="M14.17,73.95c8.16,1.82,11.97-1.99,17.67-7.69"/>
      <path class="st1" d="M31.84,100.22c-7.82,4.69-13.36,7.11-17.67,7.87"/>
      <path class="st1" d="M93,117.43c.93-4.17,3.32-9.48,7.69-16.75"/>
      <path class="st1" d="M101.11,99.97c12.39-20.9,8.08-25.2-.42-33.71"/>
      <path class="st1" d="M101.11,99.97c-.14.24-.28.47-.42.71"/>
      <line class="st1" x1="100.68" y1="66.26" x2="100.68" y2="66.26"/>
      <path class="st1" d="M66.26,100.68c-5.48,5.48-9.21,9.21-7.87,16.75"/>
      <path class="st1" d="M66.49,100.45c8.45-8.45,12.56-12.87-.23-34.19"/>
      <path class="st1" d="M66.49,100.45l-.23.23"/>
      <path class="st1" d="M66.26,66.26h0"/>
      <path class="st1" d="M66.26,66.26c21.51,12.91,25.82,8.6,34.42,0"/>
      <path class="st1" d="M66.26,66.26h0"/>
      <line class="st1" x1="31.84" y1="66.26" x2="31.84" y2="66.26"/>
      <path class="st1" d="M66.26,66.26c-21.51-12.91-25.82-8.6-34.42,0"/>
      <path class="st1" d="M66.26,100.22c-8.55-8.55-12.85-12.85-34-.25"/>
      <path class="st1" d="M32.27,99.97c-.14.08-.28.17-.42.25"/>
      <path class="st1" d="M66.49,100.45c8.45,8.45,12.87,12.56,34.19-.23"/>
      <path class="st1" d="M66.49,100.45l-.23-.23"/>
      <path class="st1" d="M169.53,100.68c-4.36,7.27-6.76,12.58-7.69,16.75"/>
      <path class="st1" d="M169.95,99.97c-.14.24-.28.47-.42.71"/>
      <line class="st1" x1="169.53" y1="66.26" x2="169.53" y2="66.26"/>
      <path class="st1" d="M169.95,99.97c12.39-20.9,8.08-25.2-.42-33.71"/>
      <path class="st1" d="M135.1,100.68c-5.48,5.48-9.21,9.21-7.87,16.75"/>
      <path class="st1" d="M135.33,100.45c-.08.08-.15.15-.23.23"/>
      <path class="st1" d="M135.1,66.26h0"/>
      <path class="st1" d="M135.33,100.45c8.45-8.45,12.56-12.87-.23-34.19"/>
      <path class="st1" d="M135.1,66.26h0"/>
      <path class="st1" d="M135.1,66.26c21.51,12.91,25.82,8.6,34.42,0"/>
      <path class="st1" d="M135.1,66.26c-21.51-12.91-25.82-8.6-34.42,0"/>
      <line class="st1" x1="100.68" y1="66.26" x2="100.68" y2="66.26"/>
      <path class="st1" d="M100.68,100.22c.14-.09.28-.17.42-.25"/>
      <path class="st1" d="M135.1,100.22c-8.55-8.55-12.85-12.85-34-.25"/>
      <path class="st1" d="M135.33,100.45c8.45,8.45,12.87,12.56,34.19-.23"/>
      <path class="st1" d="M135.33,100.45c-.08-.08-.15-.15-.23-.23"/>
      <path class="st1" d="M230.68,117.43c.93-4.17,3.32-9.48,7.69-16.75"/>
      <path class="st1" d="M238.37,100.68c.14-.24.28-.48.42-.71"/>
      <line class="st1" x1="238.37" y1="66.26" x2="238.37" y2="66.26"/>
      <path class="st1" d="M238.79,99.97c12.39-20.9,8.08-25.2-.42-33.71"/>
      <path class="st1" d="M203.95,100.68c-5.48,5.48-9.21,9.21-7.87,16.75"/>
      <path class="st1" d="M204.18,100.45c8.45-8.45,12.56-12.87-.23-34.19"/>
      <path class="st1" d="M203.95,100.68c.08-.08.15-.15.23-.23"/>
      <path class="st1" d="M203.95,66.26h0"/>
      <path class="st1" d="M203.95,66.26c21.51,12.91,25.82,8.6,34.42,0"/>
      <path class="st1" d="M203.95,66.26h0"/>
      <path class="st1" d="M203.95,66.26c-21.51-12.91-25.82-8.6-34.42,0"/>
      <line class="st1" x1="169.53" y1="66.26" x2="169.53" y2="66.26"/>
      <path class="st1" d="M203.95,100.22c-8.55-8.55-12.85-12.85-34-.25"/>
      <path class="st1" d="M169.95,99.97c-.14.08-.28.17-.42.25"/>
      <path class="st1" d="M203.95,100.22c.08.08.15.15.23.23"/>
      <path class="st1" d="M204.18,100.45c8.45,8.45,12.87,12.56,34.19-.23"/>
      <path class="st1" d="M255.12,58.39c-7.54-1.34-11.27,2.4-16.75,7.87"/>
      <line class="st1" x1="238.37" y1="66.26" x2="238.37" y2="66.26"/>
      <path class="st1" d="M238.79,99.97c-.14.08-.28.17-.42.25"/>
      <path class="st1" d="M255.12,92.54c-4.09.91-9.27,3.23-16.33,7.44"/>
      <path class="st1" d="M31.84,31.84c-12.91,21.51-8.6,25.82,0,34.42"/>
      <path class="st1" d="M39.72,14.17c-.74,4.17-3.04,9.51-7.45,16.96"/>
      <path class="st1" d="M32.27,31.13c-.14.24-.28.47-.42.71"/>
      <path class="st1" d="M14.17,39.26c4.3-.76,9.85-3.18,17.67-7.87"/>
      <path class="st1" d="M100.68,66.26c-8.6-8.6-12.91-12.91,0-34.42"/>
      <path class="st1" d="M101.11,31.13c4.41-7.45,6.71-12.78,7.45-16.96"/>
      <path class="st1" d="M101.11,31.13c-.14.24-.28.47-.42.71"/>
      <path class="st1" d="M66.26,31.84c-8.6,8.61-12.91,12.91,0,34.42"/>
      <path class="st1" d="M66.49,31.61c-.08.08-.15.15-.23.23"/>
      <path class="st1" d="M66.49,31.61c5.57-5.57,9.25-9.39,7.46-17.44"/>
      <path class="st1" d="M66.26,31.38c-8.55-8.55-12.85-12.85-34-.25"/>
      <path class="st1" d="M32.27,31.13c-.14.08-.28.17-.42.25"/>
      <path class="st1" d="M66.49,31.61c-.08-.08-.15-.15-.23-.23"/>
      <path class="st1" d="M66.49,31.61c8.45,8.45,12.87,12.56,34.19-.23"/>
      <path class="st1" d="M169.53,31.84c-12.91,21.51-8.6,25.82,0,34.42"/>
      <path class="st1" d="M169.95,31.13c-.14.24-.28.47-.42.71"/>
      <path class="st1" d="M169.95,31.13c4.41-7.45,6.71-12.78,7.45-16.96"/>
      <path class="st1" d="M135.1,31.84c-8.6,8.61-12.91,12.91,0,34.42"/>
      <path class="st1" d="M135.33,31.61c5.57-5.57,9.25-9.39,7.46-17.44"/>
      <path class="st1" d="M135.33,31.61c-.08.08-.15.15-.23.23"/>
      <path class="st1" d="M135.1,31.38c-8.55-8.55-12.85-12.85-34-.25"/>
      <path class="st1" d="M100.68,31.38c.14-.09.28-.17.42-.25"/>
      <path class="st1" d="M135.33,31.61c-.08-.08-.15-.15-.23-.23"/>
      <path class="st1" d="M135.33,31.61c8.45,8.45,12.87,12.56,34.19-.23"/>
      <path class="st1" d="M238.37,31.84c-12.91,21.51-8.6,25.82,0,34.42"/>
      <path class="st1" d="M238.79,31.13c4.41-7.45,6.71-12.78,7.45-16.96"/>
      <path class="st1" d="M238.79,31.13c-.14.24-.28.47-.42.71"/>
      <path class="st1" d="M203.95,31.84c-8.61,8.61-12.91,12.91,0,34.42"/>
      <path class="st1" d="M204.18,31.61c5.57-5.57,9.25-9.39,7.46-17.44"/>
      <path class="st1" d="M203.95,31.84c.08-.08.15-.15.23-.23"/>
      <path class="st1" d="M203.95,31.38c-8.55-8.55-12.85-12.85-34-.25"/>
      <path class="st1" d="M169.95,31.13c-.14.08-.28.17-.42.25"/>
      <path class="st1" d="M204.18,31.61c8.45,8.45,12.87,12.56,34.19-.23"/>
      <path class="st1" d="M203.95,31.38c.08.08.15.15.23.23"/>
      <path class="st1" d="M255.12,23.69c-4.09.91-9.27,3.23-16.33,7.44"/>
      <path class="st1" d="M238.79,31.13c-.14.08-.28.17-.42.25"/>
      <line class="st0" x1="73.95" y1="14.17" x2="39.72" y2="14.17"/>
      <polyline class="st0" points="14.17 108.1 14.17 117.43 24.15 117.43"/>
      <polyline class="st0" points="230.68 117.43 255.12 117.43 255.12 92.54"/>
      <line class="st0" x1="58.39" y1="117.43" x2="93" y2="117.43"/>
      <line class="st0" x1="14.17" y1="39.26" x2="14.17" y2="73.95"/>
      <polyline class="st0" points="39.72 14.17 14.17 14.17 14.17 39.26"/>
      <line class="st0" x1="73.95" y1="14.17" x2="108.56" y2="14.17"/>
      <line class="st0" x1="14.17" y1="108.1" x2="14.17" y2="73.95"/>
      <line class="st0" x1="58.39" y1="117.43" x2="24.15" y2="117.43"/>
      <line class="st0" x1="211.64" y1="14.17" x2="246.24" y2="14.17"/>
      <line class="st0" x1="127.23" y1="117.43" x2="93" y2="117.43"/>
      <line class="st0" x1="196.07" y1="117.43" x2="161.84" y2="117.43"/>
      <line class="st0" x1="255.12" y1="92.54" x2="255.12" y2="58.39"/>
      <polyline class="st0" points="255.12 23.69 255.12 14.17 246.24 14.17"/>
      <line class="st0" x1="108.56" y1="14.17" x2="142.79" y2="14.17"/>
      <line class="st0" x1="211.64" y1="14.17" x2="177.4" y2="14.17"/>
      <line class="st0" x1="255.12" y1="23.69" x2="255.12" y2="58.39"/>
      <line class="st0" x1="230.68" y1="117.43" x2="196.07" y2="117.43"/>
      <line class="st0" x1="142.79" y1="14.17" x2="177.4" y2="14.17"/>
      <line class="st0" x1="127.23" y1="117.43" x2="161.84" y2="117.43"/>
    </g>
  </g>
</svg>