<?xml version="1.0" encoding="UTF-8"?>
<svg id="Ebene_2" xmlns="http://www.w3.org/2000/svg" version="1.1" viewBox="0 0 311.81 146.59">
  <!-- Generator: Adobe Illustrator 29.1.0, SVG Export Plug-In . SVG Version: 2.1.0 Build 142)  -->
  <defs>
    <style>
      .st0 {
        stroke-miterlimit: 10;
      }

      .st0, .st1 {
        fill: none;
        stroke: #1e1e1c;
        stroke-width: 1.2px;
      }

      .st2 {
        fill: #1e1e1c;
        font-family: Helvetica, Helvetica;
        font-size: 8px;
      }

      .st2, .st3 {
        isolation: isolate;
      }

      .st1 {
        stroke-linecap: round;
        stroke-linejoin: round;
      }
    </style>
  </defs>
  <g class="st3">
    <text class="st2" transform="translate(130.2 138.13)"><tspan x="0" y="0">77</tspan></text>
  </g>
  <g id="_x37_7_x5F_rein">
    <g>
      <polyline class="st1" points="39.99 117.43 44.29 108.83 31.38 100.22"/>
      <polyline class="st1" points="108.83 117.43 113.13 108.83 100.23 100.22"/>
      <polyline class="st1" points="177.67 117.43 181.97 108.83 169.07 100.22"/>
      <polyline class="st1" points="246.51 117.43 250.82 108.83 237.91 100.22"/>
      <polyline class="st1" points="31.38 65.8 18.48 91.62 31.38 100.22"/>
      <polyline class="st1" points="31.38 65.8 44.29 39.99 31.38 31.38"/>
      <line class="st1" x1="31.38" y1="100.22" x2="31.38" y2="100.22"/>
      <polyline class="st1" points="65.8 100.22 91.62 113.13 100.23 100.22"/>
      <line class="st1" x1="31.38" y1="100.22" x2="31.38" y2="100.22"/>
      <polyline class="st1" points="65.8 100.22 39.99 87.32 31.38 100.22"/>
      <polyline class="st1" points="14.17 108.83 22.78 113.13 31.38 100.22"/>
      <line class="st1" x1="65.8" y1="100.22" x2="74.41" y2="117.43"/>
      <polyline class="st1" points="65.8 100.22 52.9 74.41 65.8 65.8"/>
      <line class="st1" x1="65.8" y1="65.8" x2="65.8" y2="65.8"/>
      <polyline class="st1" points="65.8 65.8 57.2 52.9 31.38 65.8"/>
      <line class="st1" x1="14.17" y1="74.41" x2="31.38" y2="65.8"/>
      <polyline class="st1" points="100.23 65.8 87.32 91.62 100.23 100.22"/>
      <polyline class="st1" points="100.23 65.8 113.13 39.99 100.23 31.38"/>
      <line class="st1" x1="100.23" y1="100.22" x2="100.23" y2="100.22"/>
      <line class="st1" x1="100.23" y1="100.22" x2="100.23" y2="100.22"/>
      <polyline class="st1" points="100.23 100.22 108.83 87.32 134.65 100.22"/>
      <polyline class="st1" points="169.07 100.22 160.46 113.13 134.65 100.22"/>
      <polyline class="st1" points="134.65 65.8 121.74 74.41 134.65 100.22"/>
      <line class="st1" x1="143.25" y1="117.43" x2="134.65" y2="100.22"/>
      <line class="st1" x1="134.65" y1="65.8" x2="134.65" y2="65.8"/>
      <polyline class="st1" points="100.23 65.8 126.04 52.9 134.65 65.8"/>
      <polyline class="st1" points="65.8 65.8 74.41 78.71 100.23 65.8"/>
      <polyline class="st1" points="169.07 65.8 156.16 91.62 169.07 100.22"/>
      <polyline class="st1" points="169.07 65.8 181.97 39.99 169.07 31.38"/>
      <line class="st1" x1="169.07" y1="100.22" x2="169.07" y2="100.22"/>
      <polyline class="st1" points="203.49 100.22 229.3 113.13 237.91 100.22"/>
      <line class="st1" x1="169.07" y1="100.22" x2="169.07" y2="100.22"/>
      <polyline class="st1" points="203.49 100.22 177.67 87.32 169.07 100.22"/>
      <polyline class="st1" points="203.49 65.8 190.58 74.41 203.49 100.22"/>
      <line class="st1" x1="212.09" y1="117.43" x2="203.49" y2="100.22"/>
      <polyline class="st1" points="169.07 65.8 143.25 78.71 134.65 65.8"/>
      <polyline class="st1" points="203.49 65.8 194.88 52.9 169.07 65.8"/>
      <polyline class="st1" points="237.91 31.38 250.82 39.99 237.91 65.8"/>
      <polyline class="st1" points="237.91 100.22 225 91.62 237.91 65.8"/>
      <polyline class="st1" points="237.91 100.22 246.51 87.32 255.12 91.62"/>
      <polyline class="st1" points="203.49 65.8 212.09 78.71 237.91 65.8"/>
      <line class="st1" x1="237.91" y1="65.8" x2="255.12" y2="57.2"/>
      <line class="st1" x1="31.38" y1="31.38" x2="31.38" y2="31.38"/>
      <polyline class="st1" points="22.78 14.17 18.48 22.78 31.38 31.38"/>
      <line class="st1" x1="31.38" y1="31.38" x2="31.38" y2="31.38"/>
      <polyline class="st1" points="65.8 31.38 91.62 44.29 100.23 31.38"/>
      <polyline class="st1" points="65.8 31.38 39.99 18.48 31.38 31.38"/>
      <polyline class="st1" points="14.17 39.99 22.78 44.29 31.38 31.38"/>
      <polyline class="st1" points="65.8 65.8 78.71 57.2 65.8 31.38"/>
      <line class="st1" x1="65.8" y1="31.38" x2="57.2" y2="14.17"/>
      <line class="st1" x1="65.8" y1="65.8" x2="65.8" y2="65.8"/>
      <polyline class="st1" points="91.62 14.17 87.32 22.78 100.23 31.38"/>
      <line class="st1" x1="100.23" y1="31.38" x2="100.23" y2="31.38"/>
      <polyline class="st1" points="134.65 31.38 160.46 44.29 169.07 31.38"/>
      <polyline class="st1" points="134.65 31.38 108.83 18.48 100.23 31.38"/>
      <line class="st1" x1="100.23" y1="31.38" x2="100.23" y2="31.38"/>
      <line class="st1" x1="134.65" y1="65.8" x2="134.65" y2="65.8"/>
      <line class="st1" x1="134.65" y1="31.38" x2="126.04" y2="14.17"/>
      <polyline class="st1" points="134.65 31.38 147.55 57.2 134.65 65.8"/>
      <line class="st1" x1="169.07" y1="31.38" x2="169.07" y2="31.38"/>
      <polyline class="st1" points="160.46 14.17 156.16 22.78 169.07 31.38"/>
      <polyline class="st1" points="237.91 31.38 229.3 44.29 203.49 31.38"/>
      <polyline class="st1" points="169.07 31.38 177.67 18.48 203.49 31.38"/>
      <line class="st1" x1="169.07" y1="31.38" x2="169.07" y2="31.38"/>
      <line class="st1" x1="203.49" y1="31.38" x2="194.88" y2="14.17"/>
      <polyline class="st1" points="203.49 65.8 216.39 57.2 203.49 31.38"/>
      <polyline class="st1" points="237.91 31.38 225 22.78 229.3 14.17"/>
      <polyline class="st1" points="237.91 31.38 246.51 18.48 255.12 22.78"/>
      <line class="st0" x1="126.04" y1="14.17" x2="160.46" y2="14.17"/>
      <line class="st0" x1="177.67" y1="117.43" x2="143.25" y2="117.43"/>
      <line class="st0" x1="229.3" y1="14.17" x2="194.88" y2="14.17"/>
      <line class="st0" x1="108.83" y1="117.43" x2="143.25" y2="117.43"/>
      <line class="st0" x1="255.12" y1="91.62" x2="255.12" y2="57.2"/>
      <line class="st0" x1="212.09" y1="117.43" x2="177.67" y2="117.43"/>
      <polyline class="st0" points="246.51 117.43 255.12 117.43 255.12 91.62"/>
      <line class="st0" x1="255.12" y1="22.78" x2="255.12" y2="57.2"/>
      <line class="st0" x1="14.17" y1="108.83" x2="14.17" y2="74.41"/>
      <polyline class="st0" points="229.3 14.17 255.12 14.17 255.12 22.78"/>
      <line class="st0" x1="246.51" y1="117.43" x2="212.09" y2="117.43"/>
      <polyline class="st0" points="14.17 108.83 14.17 117.43 39.99 117.43"/>
      <line class="st0" x1="160.46" y1="14.17" x2="194.88" y2="14.17"/>
      <line class="st0" x1="74.41" y1="117.43" x2="108.83" y2="117.43"/>
      <line class="st0" x1="14.17" y1="74.41" x2="14.17" y2="39.99"/>
      <polyline class="st0" points="14.17 39.99 14.17 14.17 22.78 14.17"/>
      <line class="st0" x1="57.2" y1="14.17" x2="91.62" y2="14.17"/>
      <line class="st0" x1="74.41" y1="117.43" x2="39.99" y2="117.43"/>
      <line class="st0" x1="126.04" y1="14.17" x2="91.62" y2="14.17"/>
      <line class="st0" x1="57.2" y1="14.17" x2="22.78" y2="14.17"/>
    </g>
  </g>
</svg>