<?xml version="1.0" encoding="UTF-8"?>
<svg id="Ebene_2" xmlns="http://www.w3.org/2000/svg" version="1.1" viewBox="0 0 311.81 146.59">
  <!-- Generator: Adobe Illustrator 29.1.0, SVG Export Plug-In . SVG Version: 2.1.0 Build 142)  -->
  <defs>
    <style>
      .st0 {
        stroke-miterlimit: 10;
      }

      .st0, .st1 {
        fill: none;
        stroke: #1e1e1c;
        stroke-width: 1.2px;
      }

      .st2 {
        fill: #1e1e1c;
        font-family: Helvetica, Helvetica;
        font-size: 8px;
      }

      .st2, .st3 {
        isolation: isolate;
      }

      .st1 {
        stroke-linecap: round;
        stroke-linejoin: round;
      }
    </style>
  </defs>
  <g class="st3">
    <text class="st2" transform="translate(130.2 138.13)"><tspan x="0" y="0">78</tspan></text>
  </g>
  <g id="_x37_8_x5F_rein">
    <g>
      <path class="st1" d="M31.38,31.38c-6.15,6.15-11.81,7.9-17.21,7.36"/>
      <path class="st1" d="M31.38,31.38c6.15-6.15,7.9-11.81,7.36-17.21"/>
      <path class="st1" d="M31.38,31.38c25.82-25.82,43.03,25.82,68.84,0"/>
      <path class="st1" d="M100.23,31.38c6.15-6.15,7.9-11.81,7.36-17.21"/>
      <path class="st1" d="M100.23,31.38c25.82-25.82,43.03,25.82,68.84,0"/>
      <path class="st1" d="M169.07,31.38c6.15-6.15,7.9-11.81,7.36-17.21"/>
      <path class="st1" d="M169.07,31.38c25.82-25.82,43.03,25.82,68.84,0"/>
      <path class="st1" d="M237.91,31.38c6.15-6.15,7.9-11.81,7.36-17.21"/>
      <path class="st1" d="M237.91,31.38c6.15-6.15,11.81-7.9,17.21-7.36"/>
      <path class="st1" d="M31.38,100.22c-6.15,6.15-11.81,7.9-17.21,7.36"/>
      <path class="st1" d="M31.38,31.38c-25.82,25.82,25.82,43.03,0,68.84"/>
      <path class="st1" d="M100.23,100.22c-25.82,25.82-43.03-25.82-68.84,0"/>
      <path class="st1" d="M100.23,31.38c-25.82,25.82,25.82,43.03,0,68.84"/>
      <path class="st1" d="M169.07,100.22c-25.82,25.82-43.03-25.82-68.84,0"/>
      <path class="st1" d="M169.07,31.38c-25.82,25.82,25.82,43.03,0,68.84"/>
      <path class="st1" d="M237.91,100.22c-25.82,25.82-43.03-25.82-68.84,0"/>
      <path class="st1" d="M237.91,31.38c-25.82,25.82,25.82,43.03,0,68.84"/>
      <path class="st1" d="M255.12,92.87c-5.4-.54-11.06,1.21-17.21,7.36"/>
      <path class="st1" d="M31.38,100.22c-6.15,6.15-7.9,11.81-7.36,17.21"/>
      <path class="st1" d="M100.23,100.22c-6.15,6.15-7.9,11.81-7.36,17.21"/>
      <path class="st1" d="M169.07,100.22c-6.15,6.15-7.9,11.81-7.36,17.21"/>
      <path class="st1" d="M237.91,100.22c-6.15,6.15-7.9,11.81-7.36,17.21"/>
      <line class="st0" x1="255.12" y1="92.87" x2="255.12" y2="24.02"/>
      <line class="st0" x1="245.27" y1="14.17" x2="176.43" y2="14.17"/>
      <line class="st0" x1="38.74" y1="14.17" x2="107.58" y2="14.17"/>
      <line class="st0" x1="14.17" y1="38.74" x2="14.17" y2="107.58"/>
      <line class="st0" x1="161.71" y1="117.43" x2="92.87" y2="117.43"/>
      <polyline class="st0" points="245.27 14.17 255.12 14.17 255.12 24.02"/>
      <line class="st0" x1="176.43" y1="14.17" x2="107.58" y2="14.17"/>
      <line class="st0" x1="161.71" y1="117.43" x2="230.55" y2="117.43"/>
      <polyline class="st0" points="38.74 14.17 14.17 14.17 14.17 38.74"/>
      <line class="st0" x1="92.87" y1="117.43" x2="24.03" y2="117.43"/>
      <polyline class="st0" points="24.03 117.43 14.17 117.43 14.17 107.58"/>
      <polyline class="st0" points="230.55 117.43 255.12 117.43 255.12 92.87"/>
    </g>
  </g>
</svg>