<?xml version="1.0" encoding="UTF-8"?>
<svg id="Ebene_2" xmlns="http://www.w3.org/2000/svg" version="1.1" viewBox="0 0 311.81 56.69">
  <!-- Generator: Adobe Illustrator 29.1.0, SVG Export Plug-In . SVG Version: 2.1.0 Build 142)  -->
  <defs>
    <style>
      .st0 {
        fill: none;
        stroke: #1d1d1b;
        stroke-linecap: round;
        stroke-linejoin: round;
        stroke-width: 1.2px;
      }

      .st1 {
        fill: #1d1d1b;
        font-family: Helvetica, Helvetica;
        font-size: 8px;
      }
    </style>
  </defs>
  <text class="st1" transform="translate(130.2 48.27)"><tspan x="0" y="0">79</tspan></text>
  <path class="st0" d="M31.38,19.74c12.91,0,17.21-8.61,17.21-8.61,0,0,4.3,8.61,17.21,8.61"/>
  <path class="st0" d="M65.8,19.74c12.91,0,17.21,8.61,17.21,8.61,0,0,4.3-8.61,17.21-8.61"/>
  <path class="st0" d="M134.65,19.74c-12.91,0-17.21-8.61-17.21-8.61,0,0-4.3,8.61-17.21,8.61"/>
  <path class="st0" d="M134.65,19.74c12.91,0,17.21,8.61,17.21,8.61,0,0,4.3-8.61,17.21-8.61"/>
  <path class="st0" d="M203.49,19.74c-12.91,0-17.21-8.61-17.21-8.61,0,0-4.3,8.61-17.21,8.61"/>
  <path class="st0" d="M237.91,19.74c-12.91,0-17.21,8.61-17.21,8.61,0,0-4.3-8.61-17.21-8.61"/>
  <path class="st0" d="M31.38,19.74c-12.91,0-17.21,8.61-17.21,8.61"/>
  <path class="st0" d="M237.91,19.74c12.9,0,17.2-8.59,17.21-8.6"/>
</svg>