<?xml version="1.0" encoding="UTF-8"?>
<svg xmlns="http://www.w3.org/2000/svg" version="1.1" viewBox="0 0 4270.39 2970.71">
  <!-- Generator: Adobe Illustrator 29.1.0, SVG Export Plug-In . SVG Version: 2.1.0 Build 142)  -->
  <defs>
    <style>
      .st0 {
        stroke-width: .2px;
      }

      .st0, .st1 {
        stroke-miterlimit: 10;
      }

      .st0, .st1, .st2 {
        fill: none;
        stroke: #1d1d1b;
      }

      .st3 {
        fill: #1d1d1b;
      }

      .st1, .st2 {
        stroke-width: 12px;
      }

      .st2 {
        stroke-linecap: round;
        stroke-linejoin: round;
      }

      .st4 {
        display: none;
      }
    </style>
  </defs>
  <g id="_x38_1" class="st4">
    <g>
      <path class="st2" d="M185.67,185.67c139.25,0,185.67-92.83,185.67-92.83,0,0,46.42,92.83,185.67,92.83"/>
      <path class="st2" d="M557.01,185.67c139.25,0,185.67,92.83,185.67,92.83,0,0,46.42-92.83,185.67-92.83"/>
      <path class="st2" d="M928.35,185.67c139.25,0,185.67-92.83,185.67-92.83,0,0,46.42,92.83,185.67,92.83"/>
      <path class="st2" d="M1299.69,185.67c139.25,0,185.67,92.83,185.67,92.83,0,0,46.42-92.83,185.67-92.83"/>
      <path class="st2" d="M1671.02,185.67c139.25,0,185.67-92.83,185.67-92.83,0,0,46.42,92.83,185.67,92.83"/>
      <path class="st2" d="M2042.36,185.67c139.25,0,185.67,92.83,185.67,92.83,0,0,46.42-92.83,185.67-92.83"/>
      <path class="st2" d="M-185.67,185.67C-46.42,185.67,0,278.5,0,278.5c0,0,46.42-92.83,185.67-92.83"/>
    </g>
    <g>
      <path class="st2" d="M185.67,557.01c139.25,0,185.67-92.84,185.67-92.84,0,0,46.42,92.84,185.67,92.84"/>
      <path class="st2" d="M557.01,557.01c139.25,0,185.67,92.83,185.67,92.83,0,0,46.42-92.83,185.67-92.83"/>
      <path class="st2" d="M928.35,557.01c139.25,0,185.67-92.84,185.67-92.84,0,0,46.42,92.84,185.67,92.84"/>
      <path class="st2" d="M1299.69,557.01c139.25,0,185.67,92.83,185.67,92.83,0,0,46.42-92.83,185.67-92.83"/>
      <path class="st2" d="M1671.02,557.01c139.25,0,185.67-92.84,185.67-92.84,0,0,46.42,92.84,185.67,92.84"/>
      <path class="st2" d="M2042.36,557.01c139.25,0,185.67,92.83,185.67,92.83,0,0,46.42-92.83,185.67-92.83"/>
      <path class="st2" d="M-185.67,557.01C-46.42,557.01,0,649.84,0,649.84c0,0,46.42-92.83,185.67-92.83"/>
    </g>
    <g>
      <path class="st2" d="M185.67,928.35c139.25,0,185.67-92.84,185.67-92.84,0,0,46.42,92.84,185.67,92.84"/>
      <path class="st2" d="M557.01,928.35c139.25,0,185.67,92.83,185.67,92.83,0,0,46.42-92.83,185.67-92.83"/>
      <path class="st2" d="M928.35,928.35c139.25,0,185.67-92.84,185.67-92.84,0,0,46.42,92.84,185.67,92.84"/>
      <path class="st2" d="M1299.69,928.35c139.25,0,185.67,92.83,185.67,92.83,0,0,46.42-92.83,185.67-92.83"/>
      <path class="st2" d="M1671.02,928.35c139.25,0,185.67-92.84,185.67-92.84,0,0,46.42,92.84,185.67,92.84"/>
      <path class="st2" d="M2042.36,928.35c139.25,0,185.67,92.83,185.67,92.83,0,0,46.42-92.83,185.67-92.83"/>
      <path class="st2" d="M-185.67,928.35C-46.42,928.35,0,1021.18,0,1021.18c0,0,46.42-92.83,185.67-92.83"/>
    </g>
    <g>
      <path class="st2" d="M185.67,1299.69c139.25,0,185.67-92.83,185.67-92.83,0,0,46.42,92.83,185.67,92.83"/>
      <path class="st2" d="M557.01,1299.69c139.25,0,185.67,92.83,185.67,92.83,0,0,46.42-92.83,185.67-92.83"/>
      <path class="st2" d="M928.35,1299.69c139.25,0,185.67-92.83,185.67-92.83,0,0,46.42,92.83,185.67,92.83"/>
      <path class="st2" d="M1299.69,1299.69c139.25,0,185.67,92.83,185.67,92.83,0,0,46.42-92.83,185.67-92.83"/>
      <path class="st2" d="M1671.02,1299.69c139.25,0,185.67-92.83,185.67-92.83,0,0,46.42,92.83,185.67,92.83"/>
      <path class="st2" d="M2042.36,1299.69c139.25,0,185.67,92.83,185.67,92.83,0,0,46.42-92.83,185.67-92.83"/>
      <path class="st2" d="M-185.67,1299.69C-46.42,1299.69,0,1392.52,0,1392.52c0,0,46.42-92.83,185.67-92.83"/>
    </g>
    <g>
      <path class="st2" d="M185.67,1671.02c139.25,0,185.67-92.83,185.67-92.83,0,0,46.42,92.83,185.67,92.83"/>
      <path class="st2" d="M557.01,1671.02c139.25,0,185.67,92.83,185.67,92.83,0,0,46.42-92.83,185.67-92.83"/>
      <path class="st2" d="M928.35,1671.02c139.25,0,185.67-92.83,185.67-92.83,0,0,46.42,92.83,185.67,92.83"/>
      <path class="st2" d="M1299.69,1671.02c139.25,0,185.67,92.83,185.67,92.83,0,0,46.42-92.83,185.67-92.83"/>
      <path class="st2" d="M1671.02,1671.02c139.25,0,185.67-92.83,185.67-92.83,0,0,46.42,92.83,185.67,92.83"/>
      <path class="st2" d="M2042.36,1671.02c139.25,0,185.67,92.83,185.67,92.83,0,0,46.42-92.83,185.67-92.83"/>
      <path class="st2" d="M-185.67,1671.02C-46.42,1671.02,0,1763.86,0,1763.86c0,0,46.42-92.83,185.67-92.83"/>
    </g>
    <g>
      <path class="st2" d="M185.67,557.01c0-139.25,92.83-185.67,92.83-185.67,0,0-92.83-46.42-92.83-185.67"/>
      <path class="st2" d="M185.67,928.35c0-139.25-92.83-185.67-92.83-185.67,0,0,92.83-46.42,92.83-185.67"/>
      <path class="st2" d="M185.67,1299.69c0-139.25,92.83-185.67,92.83-185.67,0,0-92.83-46.42-92.83-185.67"/>
      <path class="st2" d="M185.67,1671.02c0-139.25-92.83-185.67-92.83-185.67,0,0,92.83-46.42,92.83-185.67"/>
      <path class="st2" d="M185.67,185.67C185.67,46.42,92.84,0,92.84,0c0,0,92.83-46.42,92.83-185.67"/>
    </g>
    <g>
      <path class="st2" d="M557.01,557.01c0-139.25,92.83-185.67,92.83-185.67,0,0-92.83-46.42-92.83-185.67"/>
      <path class="st2" d="M557.01,928.35c0-139.25-92.83-185.67-92.83-185.67,0,0,92.83-46.42,92.83-185.67"/>
      <path class="st2" d="M557.01,1299.69c0-139.25,92.83-185.67,92.83-185.67,0,0-92.83-46.42-92.83-185.67"/>
      <path class="st2" d="M557.01,1671.02c0-139.25-92.83-185.67-92.83-185.67,0,0,92.83-46.42,92.83-185.67"/>
      <path class="st2" d="M557.01,185.67C557.01,46.42,464.17,0,464.17,0c0,0,92.83-46.42,92.83-185.67"/>
    </g>
    <g>
      <path class="st2" d="M928.35,557.01c0-139.25,92.83-185.67,92.83-185.67,0,0-92.83-46.42-92.83-185.67"/>
      <path class="st2" d="M928.35,928.35c0-139.25-92.83-185.67-92.83-185.67,0,0,92.83-46.42,92.83-185.67"/>
      <path class="st2" d="M928.35,1299.69c0-139.25,92.83-185.67,92.83-185.67,0,0-92.83-46.42-92.83-185.67"/>
      <path class="st2" d="M928.35,1671.02c0-139.25-92.83-185.67-92.83-185.67,0,0,92.83-46.42,92.83-185.67"/>
      <path class="st2" d="M928.35,185.67C928.35,46.42,835.51,0,835.51,0c0,0,92.83-46.42,92.83-185.67"/>
    </g>
    <g>
      <path class="st2" d="M1299.69,557.01c0-139.25,92.83-185.67,92.83-185.67,0,0-92.83-46.42-92.83-185.67"/>
      <path class="st2" d="M1299.69,928.35c0-139.25-92.83-185.67-92.83-185.67,0,0,92.83-46.42,92.83-185.67"/>
      <path class="st2" d="M1299.69,1299.69c0-139.25,92.83-185.67,92.83-185.67,0,0-92.83-46.42-92.83-185.67"/>
      <path class="st2" d="M1299.69,1671.02c0-139.25-92.83-185.67-92.83-185.67,0,0,92.83-46.42,92.83-185.67"/>
      <path class="st2" d="M1299.69,185.67c0-139.25-92.83-185.67-92.83-185.67,0,0,92.83-46.42,92.83-185.67"/>
    </g>
    <g>
      <path class="st2" d="M1671.02,557.01c0-139.25,92.84-185.67,92.84-185.67,0,0-92.84-46.42-92.84-185.67"/>
      <path class="st2" d="M1671.02,928.35c0-139.25-92.83-185.67-92.83-185.67,0,0,92.83-46.42,92.83-185.67"/>
      <path class="st2" d="M1671.02,1299.69c0-139.25,92.84-185.67,92.84-185.67,0,0-92.84-46.42-92.84-185.67"/>
      <path class="st2" d="M1671.02,1671.02c0-139.25-92.83-185.67-92.83-185.67,0,0,92.83-46.42,92.83-185.67"/>
      <path class="st2" d="M1671.02,185.67c0-139.25-92.83-185.67-92.83-185.67,0,0,92.83-46.42,92.83-185.67"/>
    </g>
    <g>
      <path class="st2" d="M2042.36,557.01c0-139.25,92.84-185.67,92.84-185.67,0,0-92.84-46.42-92.84-185.67"/>
      <path class="st2" d="M2042.36,928.35c0-139.25-92.83-185.67-92.83-185.67,0,0,92.83-46.42,92.83-185.67"/>
      <path class="st2" d="M2042.36,1299.69c0-139.25,92.84-185.67,92.84-185.67,0,0-92.84-46.42-92.84-185.67"/>
      <path class="st2" d="M2042.36,1671.02c0-139.25-92.83-185.67-92.83-185.67,0,0,92.83-46.42,92.83-185.67"/>
      <path class="st2" d="M2042.36,185.67c0-139.25-92.83-185.67-92.83-185.67,0,0,92.83-46.42,92.83-185.67"/>
    </g>
    <g>
      <path class="st2" d="M2413.7,185.67c139.25,0,185.67-92.83,185.67-92.83,0,0,46.42,92.83,185.67,92.83"/>
      <path class="st2" d="M2785.04,185.67c139.25,0,185.67,92.83,185.67,92.83,0,0,46.42-92.83,185.67-92.83"/>
      <path class="st2" d="M3156.38,185.67c139.25,0,185.67-92.83,185.67-92.83,0,0,46.42,92.83,185.67,92.83"/>
      <path class="st2" d="M3527.72,185.67c139.25,0,185.67,92.83,185.67,92.83,0,0,46.42-92.83,185.67-92.83"/>
      <path class="st2" d="M3899.06,185.67c139.25,0,185.67-92.83,185.67-92.83,0,0,46.42,92.83,185.67,92.83"/>
      <path class="st2" d="M4270.39,185.67c139.25,0,185.67,92.83,185.67,92.83,0,0,46.42-92.83,185.67-92.83"/>
    </g>
    <g>
      <path class="st2" d="M2413.7,557.01c139.25,0,185.67-92.84,185.67-92.84,0,0,46.42,92.84,185.67,92.84"/>
      <path class="st2" d="M2785.04,557.01c139.25,0,185.67,92.83,185.67,92.83,0,0,46.42-92.83,185.67-92.83"/>
      <path class="st2" d="M3156.38,557.01c139.25,0,185.67-92.84,185.67-92.84,0,0,46.42,92.84,185.67,92.84"/>
      <path class="st2" d="M3527.72,557.01c139.25,0,185.67,92.83,185.67,92.83,0,0,46.42-92.83,185.67-92.83"/>
      <path class="st2" d="M3899.06,557.01c139.25,0,185.67-92.84,185.67-92.84,0,0,46.42,92.84,185.67,92.84"/>
      <path class="st2" d="M4270.39,557.01c139.25,0,185.67,92.83,185.67,92.83,0,0,46.42-92.83,185.67-92.83"/>
    </g>
    <g>
      <path class="st2" d="M2413.7,928.35c139.25,0,185.67-92.84,185.67-92.84,0,0,46.42,92.84,185.67,92.84"/>
      <path class="st2" d="M2785.04,928.35c139.25,0,185.67,92.83,185.67,92.83,0,0,46.42-92.83,185.67-92.83"/>
      <path class="st2" d="M3156.38,928.35c139.25,0,185.67-92.84,185.67-92.84,0,0,46.42,92.84,185.67,92.84"/>
      <path class="st2" d="M3527.72,928.35c139.25,0,185.67,92.83,185.67,92.83,0,0,46.42-92.83,185.67-92.83"/>
      <path class="st2" d="M3899.06,928.35c139.25,0,185.67-92.84,185.67-92.84,0,0,46.42,92.84,185.67,92.84"/>
      <path class="st2" d="M4270.39,928.35c139.25,0,185.67,92.83,185.67,92.83,0,0,46.42-92.83,185.67-92.83"/>
    </g>
    <g>
      <path class="st2" d="M2413.7,1299.69c139.25,0,185.67-92.83,185.67-92.83,0,0,46.42,92.83,185.67,92.83"/>
      <path class="st2" d="M2785.04,1299.69c139.25,0,185.67,92.83,185.67,92.83,0,0,46.42-92.83,185.67-92.83"/>
      <path class="st2" d="M3156.38,1299.69c139.25,0,185.67-92.83,185.67-92.83,0,0,46.42,92.83,185.67,92.83"/>
      <path class="st2" d="M3527.72,1299.69c139.25,0,185.67,92.83,185.67,92.83,0,0,46.42-92.83,185.67-92.83"/>
      <path class="st2" d="M3899.06,1299.69c139.25,0,185.67-92.83,185.67-92.83,0,0,46.42,92.83,185.67,92.83"/>
      <path class="st2" d="M4270.39,1299.69c139.25,0,185.67,92.83,185.67,92.83,0,0,46.42-92.83,185.67-92.83"/>
    </g>
    <g>
      <path class="st2" d="M2413.7,1671.02c139.25,0,185.67-92.83,185.67-92.83,0,0,46.42,92.83,185.67,92.83"/>
      <path class="st2" d="M2785.04,1671.02c139.25,0,185.67,92.83,185.67,92.83,0,0,46.42-92.83,185.67-92.83"/>
      <path class="st2" d="M3156.38,1671.02c139.25,0,185.67-92.83,185.67-92.83,0,0,46.42,92.83,185.67,92.83"/>
      <path class="st2" d="M3527.72,1671.02c139.25,0,185.67,92.83,185.67,92.83,0,0,46.42-92.83,185.67-92.83"/>
      <path class="st2" d="M3899.06,1671.02c139.25,0,185.67-92.83,185.67-92.83,0,0,46.42,92.83,185.67,92.83"/>
      <path class="st2" d="M4270.39,1671.02c139.25,0,185.67,92.83,185.67,92.83,0,0,46.42-92.83,185.67-92.83"/>
    </g>
    <g>
      <path class="st2" d="M2413.7,557.01c0-139.25,92.83-185.67,92.83-185.67,0,0-92.83-46.42-92.83-185.67"/>
      <path class="st2" d="M2413.7,928.35c0-139.25-92.83-185.67-92.83-185.67,0,0,92.83-46.42,92.83-185.67"/>
      <path class="st2" d="M2413.7,1299.69c0-139.25,92.83-185.67,92.83-185.67,0,0-92.83-46.42-92.83-185.67"/>
      <path class="st2" d="M2413.7,1671.02c0-139.25-92.83-185.67-92.83-185.67,0,0,92.83-46.42,92.83-185.67"/>
      <path class="st2" d="M2413.7,185.67c0-139.25-92.83-185.67-92.83-185.67,0,0,92.83-46.42,92.83-185.67"/>
    </g>
    <g>
      <path class="st2" d="M2785.04,557.01c0-139.25,92.83-185.67,92.83-185.67,0,0-92.83-46.42-92.83-185.67"/>
      <path class="st2" d="M2785.04,928.35c0-139.25-92.83-185.67-92.83-185.67,0,0,92.83-46.42,92.83-185.67"/>
      <path class="st2" d="M2785.04,1299.69c0-139.25,92.83-185.67,92.83-185.67,0,0-92.83-46.42-92.83-185.67"/>
      <path class="st2" d="M2785.04,1671.02c0-139.25-92.83-185.67-92.83-185.67,0,0,92.83-46.42,92.83-185.67"/>
      <path class="st2" d="M2785.04,185.67c0-139.25-92.83-185.67-92.83-185.67,0,0,92.83-46.42,92.83-185.67"/>
    </g>
    <g>
      <path class="st2" d="M3156.38,557.01c0-139.25,92.84-185.67,92.84-185.67,0,0-92.84-46.42-92.84-185.67"/>
      <path class="st2" d="M3156.38,928.35c0-139.25-92.83-185.67-92.83-185.67,0,0,92.83-46.42,92.83-185.67"/>
      <path class="st2" d="M3156.38,1299.69c0-139.25,92.84-185.67,92.84-185.67,0,0-92.84-46.42-92.84-185.67"/>
      <path class="st2" d="M3156.38,1671.02c0-139.25-92.83-185.67-92.83-185.67,0,0,92.83-46.42,92.83-185.67"/>
      <path class="st2" d="M3156.38,185.67c0-139.25-92.83-185.67-92.83-185.67,0,0,92.83-46.42,92.83-185.67"/>
    </g>
    <g>
      <path class="st2" d="M3527.72,557.01c0-139.25,92.83-185.67,92.83-185.67,0,0-92.83-46.42-92.83-185.67"/>
      <path class="st2" d="M3527.72,928.35c0-139.25-92.83-185.67-92.83-185.67,0,0,92.83-46.42,92.83-185.67"/>
      <path class="st2" d="M3527.72,1299.69c0-139.25,92.83-185.67,92.83-185.67,0,0-92.83-46.42-92.83-185.67"/>
      <path class="st2" d="M3527.72,1671.02c0-139.25-92.83-185.67-92.83-185.67,0,0,92.83-46.42,92.83-185.67"/>
      <path class="st2" d="M3527.72,185.67c0-139.25-92.83-185.67-92.83-185.67,0,0,92.83-46.42,92.83-185.67"/>
    </g>
    <g>
      <path class="st2" d="M3899.05,557.01c0-139.25,92.83-185.67,92.83-185.67,0,0-92.83-46.42-92.83-185.67"/>
      <path class="st2" d="M3899.05,928.35c0-139.25-92.83-185.67-92.83-185.67,0,0,92.83-46.42,92.83-185.67"/>
      <path class="st2" d="M3899.05,1299.69c0-139.25,92.83-185.67,92.83-185.67,0,0-92.83-46.42-92.83-185.67"/>
      <path class="st2" d="M3899.05,1671.02c0-139.25-92.83-185.67-92.83-185.67,0,0,92.83-46.42,92.83-185.67"/>
      <path class="st2" d="M3899.05,185.67c0-139.25-92.83-185.67-92.83-185.67,0,0,92.83-46.42,92.83-185.67"/>
    </g>
    <g>
      <path class="st2" d="M4270.39,557.01c0-139.25,92.84-185.67,92.84-185.67,0,0-92.84-46.42-92.84-185.67"/>
      <path class="st2" d="M4270.39,928.35c0-139.25-92.83-185.67-92.83-185.67,0,0,92.83-46.42,92.83-185.67"/>
      <path class="st2" d="M4270.39,1299.69c0-139.25,92.84-185.67,92.84-185.67,0,0-92.84-46.42-92.84-185.67"/>
      <path class="st2" d="M4270.39,1671.02c0-139.25-92.83-185.67-92.83-185.67,0,0,92.83-46.42,92.83-185.67"/>
      <path class="st2" d="M4270.39,185.67c0-139.25-92.83-185.67-92.83-185.67,0,0,92.83-46.42,92.83-185.67"/>
    </g>
  </g>
  <g id="_x38_1_x5F_rein" class="st4">
    <g>
      <path class="st2" d="M557.01,185.67c-139.25,0-185.67-92.83-185.67-92.83,0,0-46.42,92.83-185.67,92.83"/>
      <line class="st2" x1="928.35" y1="185.67" x2="928.35" y2="185.67"/>
      <path class="st2" d="M557.01,185.67c139.25,0,185.67,92.83,185.67,92.83,0,0,46.42-92.83,185.67-92.83"/>
      <path class="st2" d="M928.35,185.67c139.25,0,185.67-92.83,185.67-92.83,0,0,46.42,92.83,185.67,92.83"/>
      <path class="st2" d="M1299.69,185.67c139.25,0,185.67,92.83,185.67,92.83,0,0,46.42-92.83,185.67-92.83"/>
      <path class="st2" d="M1671.02,185.67h0"/>
      <path class="st2" d="M2042.36,185.67c-139.25,0-185.67-92.83-185.67-92.83,0,0-46.42,92.83-185.67,92.83"/>
      <path class="st2" d="M2042.36,185.67c139.25,0,185.67,92.83,185.67,92.83,0,0,46.42-92.83,185.67-92.83"/>
      <path class="st2" d="M185.67,185.67h0"/>
      <path class="st2" d="M185.67,185.67C46.42,185.67,0,278.5,0,278.5h0"/>
      <path class="st2" d="M185.67,557.01c139.25,0,185.67-92.84,185.67-92.84,0,0,46.42,92.84,185.67,92.84"/>
      <line class="st2" x1="928.35" y1="557.01" x2="928.35" y2="557.01"/>
      <path class="st2" d="M557.01,557.01c139.25,0,185.67,92.83,185.67,92.83,0,0,46.42-92.83,185.67-92.83"/>
      <path class="st2" d="M1299.69,557.01c-139.25,0-185.67-92.84-185.67-92.84,0,0-46.42,92.84-185.67,92.84"/>
      <path class="st2" d="M1299.69,557.01c139.25,0,185.67,92.83,185.67,92.83,0,0,46.42-92.83,185.67-92.83"/>
      <path class="st2" d="M1671.02,557.01h0"/>
      <path class="st2" d="M1671.02,557.01c139.25,0,185.67-92.84,185.67-92.84,0,0,46.42,92.84,185.67,92.84"/>
      <path class="st2" d="M2413.7,557.01c-139.25,0-185.67,92.83-185.67,92.83,0,0-46.42-92.83-185.67-92.83"/>
      <path class="st2" d="M185.67,557.01h0"/>
      <path class="st2" d="M185.67,557.01C46.42,557.01,0,649.84,0,649.84h0"/>
      <path class="st2" d="M185.67,928.35c139.25,0,185.67-92.84,185.67-92.84,0,0,46.42,92.83,185.67,92.84"/>
      <line class="st2" x1="557.01" y1="928.35" x2="557.01" y2="928.35"/>
      <path class="st2" d="M928.35,928.35c-139.25,0-185.67,92.83-185.67,92.83,0,0-46.42-92.83-185.67-92.83"/>
      <line class="st2" x1="928.35" y1="928.35" x2="928.35" y2="928.35"/>
      <path class="st2" d="M1299.69,928.35c-139.25,0-185.67-92.84-185.67-92.84,0,0-46.42,92.84-185.67,92.84"/>
      <path class="st2" d="M1299.69,928.35h0"/>
      <path class="st2" d="M1299.69,928.35c139.25,0,185.67,92.83,185.67,92.83,0,0,46.42-92.83,185.67-92.83"/>
      <path class="st2" d="M1671.02,928.35h0"/>
      <path class="st2" d="M2042.36,928.35h0"/>
      <path class="st2" d="M1671.02,928.35c139.25,0,185.67-92.84,185.67-92.84,0,0,46.42,92.83,185.67,92.84"/>
      <path class="st2" d="M2413.7,928.35c-139.25,0-185.67,92.83-185.67,92.83,0,0-46.42-92.83-185.67-92.83"/>
      <path class="st2" d="M185.67,928.35C46.42,928.35,0,1021.18,0,1021.18h0"/>
      <path class="st2" d="M185.67,928.35h0"/>
      <line class="st2" x1="185.67" y1="185.67" x2="185.67" y2="185.67"/>
      <path class="st2" d="M185.67,185.67c0,139.25,92.83,185.67,92.83,185.67,0,0-92.83,46.42-92.83,185.67"/>
      <path class="st2" d="M185.67,557.01c0,139.25-92.83,185.67-92.83,185.67,0,0,92.83,46.42,92.83,185.67"/>
      <line class="st2" x1="185.67" y1="557.01" x2="185.67" y2="557.01"/>
      <path class="st2" d="M185.67,928.35h0"/>
      <path class="st2" d="M185.67,928.35c0,139.25,92.83,185.67,92.83,185.67h0"/>
      <path class="st2" d="M92.84,0s92.83,46.45,92.83,185.67"/>
      <path class="st2" d="M557.01,185.67c0,139.25,92.83,185.67,92.83,185.67,0,0-92.83,46.42-92.83,185.67"/>
      <path class="st2" d="M557.01,928.35c0-139.25-92.83-185.67-92.83-185.67,0,0,92.83-46.42,92.83-185.67"/>
      <path class="st2" d="M557.01,928.35h0"/>
      <path class="st2" d="M649.84,1114.02h0s-92.83-46.42-92.83-185.67"/>
      <path class="st2" d="M464.17,0s92.83,46.45,92.83,185.67"/>
      <path class="st2" d="M928.35,557.01c0-139.25,92.83-185.67,92.83-185.67,0,0-92.83-46.42-92.83-185.67"/>
      <line class="st2" x1="928.35" y1="185.67" x2="928.35" y2="185.67"/>
      <line class="st2" x1="928.35" y1="557.01" x2="928.35" y2="557.01"/>
      <path class="st2" d="M928.35,557.01c0,139.25-92.83,185.67-92.83,185.67,0,0,92.83,46.42,92.83,185.67"/>
      <path class="st2" d="M1021.18,1114.02h0s-92.83-46.42-92.83-185.67"/>
      <path class="st2" d="M928.35,928.35h0"/>
      <path class="st2" d="M835.51,0s92.83,46.45,92.83,185.67"/>
      <path class="st2" d="M1299.69,557.01c0-139.25,92.83-185.67,92.83-185.67,0,0-92.83-46.42-92.83-185.67"/>
      <path class="st2" d="M1299.69,557.01c0,139.25-92.83,185.67-92.83,185.67,0,0,92.83,46.42,92.83,185.67"/>
      <path class="st2" d="M1299.69,928.35c0,139.25,92.83,185.67,92.83,185.67h0"/>
      <path class="st2" d="M1299.69,928.35h0"/>
      <path class="st2" d="M1206.85,0s92.83,46.45,92.83,185.67"/>
      <path class="st2" d="M1671.02,185.67c0,139.25,92.84,185.67,92.84,185.67,0,0-92.84,46.42-92.84,185.67"/>
      <line class="st2" x1="1671.02" y1="185.67" x2="1671.02" y2="185.67"/>
      <line class="st2" x1="1671.02" y1="557.01" x2="1671.02" y2="557.01"/>
      <path class="st2" d="M1671.02,557.01c0,139.25-92.83,185.67-92.83,185.67,0,0,92.83,46.42,92.83,185.67"/>
      <path class="st2" d="M1671.02,928.35h0"/>
      <path class="st2" d="M1671.02,928.35c0,139.25,92.84,185.67,92.84,185.67h0"/>
      <path class="st2" d="M1578.19,0s92.83,46.45,92.83,185.67"/>
      <path class="st2" d="M2042.36,185.67c0,139.25,92.84,185.67,92.84,185.67,0,0-92.84,46.42-92.84,185.67"/>
      <path class="st2" d="M2042.36,928.35c0-139.25-92.83-185.67-92.83-185.67,0,0,92.83-46.42,92.83-185.67"/>
      <path class="st2" d="M2042.36,928.35h0"/>
      <path class="st2" d="M2135.2,1114.02h0s-92.84-46.42-92.84-185.67"/>
      <path class="st2" d="M1949.53,0s92.83,46.45,92.83,185.67"/>
      <path class="st2" d="M2413.7,185.67c139.19,0,185.62-92.75,185.67-92.83"/>
      <path class="st2" d="M2413.7,557.01c139.19,0,185.62-92.75,185.67-92.83"/>
      <path class="st2" d="M2413.7,928.35c139.19,0,185.62-92.75,185.67-92.83"/>
      <path class="st2" d="M2413.7,557.01c0-139.25,92.83-185.67,92.83-185.67,0,0-92.83-46.42-92.83-185.67"/>
      <path class="st2" d="M2413.7,557.01c0,139.25-92.83,185.67-92.83,185.67,0,0,92.83,46.42,92.83,185.67"/>
      <path class="st2" d="M2506.53,1114.02h0s-92.83-46.42-92.83-185.67"/>
      <path class="st2" d="M2320.87,0s92.83,46.45,92.83,185.67"/>
      <line class="st1" x1="2506.53" y1="1114.02" x2="2135.2" y2="1114.02"/>
      <line class="st1" x1="1763.86" y1="1114.02" x2="2135.2" y2="1114.02"/>
      <line class="st1" x1="1392.52" y1="1114.02" x2="1763.86" y2="1114.02"/>
      <polyline class="st1" points="2599.37 92.84 2599.37 0 2320.87 0"/>
      <polyline class="st1" points="0 1021.18 0 1114.02 278.5 1114.02"/>
      <line class="st1" y1="649.84" y2="1021.18"/>
      <line class="st1" y1="278.5" y2="649.84"/>
      <line class="st1" x1="2320.87" y1="0" x2="1949.53" y2="0"/>
      <line class="st1" x1="1021.18" y1="1114.02" x2="649.84" y2="1114.02"/>
      <line class="st1" x1="278.5" y1="1114.02" x2="649.84" y2="1114.02"/>
      <line class="st1" x1="1578.19" y1="0" x2="1206.85" y2="0"/>
      <line class="st1" x1="2599.37" y1="464.18" x2="2599.37" y2="835.51"/>
      <line class="st1" x1="2599.37" y1="464.18" x2="2599.37" y2="92.84"/>
      <polyline class="st1" points="2599.37 835.51 2599.37 1114.02 2506.53 1114.02"/>
      <line class="st1" x1="1392.52" y1="1114.02" x2="1021.18" y2="1114.02"/>
      <polyline class="st1" points="92.84 0 0 0 0 278.5"/>
      <line class="st1" x1="835.51" y1="0" x2="464.17" y2="0"/>
      <line class="st1" x1="1206.85" y1="0" x2="835.51" y2="0"/>
      <line class="st1" x1="1949.53" y1="0" x2="1578.19" y2="0"/>
      <line class="st1" x1="464.17" y1="0" x2="92.84" y2="0"/>
    </g>
  </g>
  <g id="_x38_2" class="st4">
    <g>
      <path class="st2" d="M185.67,185.67c139.25,0,185.67-92.83,185.67-92.83,0,0,46.42,92.83,185.67,92.83"/>
      <path class="st2" d="M557.01,185.67c139.25,0,185.67,92.83,185.67,92.83,0,0,46.42-92.83,185.67-92.83"/>
      <path class="st2" d="M928.35,185.67c139.25,0,185.67-92.83,185.67-92.83,0,0,46.42,92.83,185.67,92.83"/>
      <path class="st2" d="M1299.69,185.67c139.25,0,185.67,92.83,185.67,92.83,0,0,46.42-92.83,185.67-92.83"/>
      <path class="st2" d="M1671.02,185.67c139.25,0,185.67-92.83,185.67-92.83,0,0,46.42,92.83,185.67,92.83"/>
      <path class="st2" d="M2042.36,185.67c139.25,0,185.67,92.83,185.67,92.83,0,0,46.42-92.83,185.67-92.83"/>
      <path class="st2" d="M-185.67,185.67C-46.42,185.67,0,278.5,0,278.5c0,0,46.42-92.83,185.67-92.83"/>
    </g>
    <g>
      <path class="st2" d="M185.67,557.01c139.25,0,185.67-92.84,185.67-92.84,0,0,46.42,92.84,185.67,92.84"/>
      <path class="st2" d="M557.01,557.01c139.25,0,185.67,92.83,185.67,92.83,0,0,46.42-92.83,185.67-92.83"/>
      <path class="st2" d="M928.35,557.01c139.25,0,185.67-92.84,185.67-92.84,0,0,46.42,92.84,185.67,92.84"/>
      <path class="st2" d="M1299.69,557.01c139.25,0,185.67,92.83,185.67,92.83,0,0,46.42-92.83,185.67-92.83"/>
      <path class="st2" d="M1671.02,557.01c139.25,0,185.67-92.84,185.67-92.84,0,0,46.42,92.84,185.67,92.84"/>
      <path class="st2" d="M2042.36,557.01c139.25,0,185.67,92.83,185.67,92.83,0,0,46.42-92.83,185.67-92.83"/>
      <path class="st2" d="M-185.67,557.01C-46.42,557.01,0,649.84,0,649.84c0,0,46.42-92.83,185.67-92.83"/>
    </g>
    <g>
      <path class="st2" d="M185.67,928.35c139.25,0,185.67-92.84,185.67-92.84,0,0,46.42,92.84,185.67,92.84"/>
      <path class="st2" d="M557.01,928.35c139.25,0,185.67,92.83,185.67,92.83,0,0,46.42-92.83,185.67-92.83"/>
      <path class="st2" d="M928.35,928.35c139.25,0,185.67-92.84,185.67-92.84,0,0,46.42,92.84,185.67,92.84"/>
      <path class="st2" d="M1299.69,928.35c139.25,0,185.67,92.83,185.67,92.83,0,0,46.42-92.83,185.67-92.83"/>
      <path class="st2" d="M1671.02,928.35c139.25,0,185.67-92.84,185.67-92.84,0,0,46.42,92.84,185.67,92.84"/>
      <path class="st2" d="M2042.36,928.35c139.25,0,185.67,92.83,185.67,92.83,0,0,46.42-92.83,185.67-92.83"/>
      <path class="st2" d="M-185.67,928.35C-46.42,928.35,0,1021.18,0,1021.18c0,0,46.42-92.83,185.67-92.83"/>
    </g>
    <g>
      <path class="st2" d="M185.67,1299.69c139.25,0,185.67-92.83,185.67-92.83,0,0,46.42,92.83,185.67,92.83"/>
      <path class="st2" d="M557.01,1299.69c139.25,0,185.67,92.83,185.67,92.83,0,0,46.42-92.83,185.67-92.83"/>
      <path class="st2" d="M928.35,1299.69c139.25,0,185.67-92.83,185.67-92.83,0,0,46.42,92.83,185.67,92.83"/>
      <path class="st2" d="M1299.69,1299.69c139.25,0,185.67,92.83,185.67,92.83,0,0,46.42-92.83,185.67-92.83"/>
      <path class="st2" d="M1671.02,1299.69c139.25,0,185.67-92.83,185.67-92.83,0,0,46.42,92.83,185.67,92.83"/>
      <path class="st2" d="M2042.36,1299.69c139.25,0,185.67,92.83,185.67,92.83,0,0,46.42-92.83,185.67-92.83"/>
      <path class="st2" d="M-185.67,1299.69c139.25,0,185.67,92.83,185.67,92.83,0,0,46.42-92.83,185.67-92.83"/>
    </g>
    <g>
      <path class="st2" d="M185.67,1671.02c139.25,0,185.67-92.83,185.67-92.83,0,0,46.42,92.83,185.67,92.83"/>
      <path class="st2" d="M557.01,1671.02c139.25,0,185.67,92.83,185.67,92.83,0,0,46.42-92.83,185.67-92.83"/>
      <path class="st2" d="M928.35,1671.02c139.25,0,185.67-92.83,185.67-92.83,0,0,46.42,92.83,185.67,92.83"/>
      <path class="st2" d="M1299.69,1671.02c139.25,0,185.67,92.83,185.67,92.83,0,0,46.42-92.83,185.67-92.83"/>
      <path class="st2" d="M1671.02,1671.02c139.25,0,185.67-92.83,185.67-92.83,0,0,46.42,92.83,185.67,92.83"/>
      <path class="st2" d="M2042.36,1671.02c139.25,0,185.67,92.83,185.67,92.83,0,0,46.42-92.83,185.67-92.83"/>
      <path class="st2" d="M-185.67,1671.02c139.25,0,185.67,92.83,185.67,92.83,0,0,46.42-92.83,185.67-92.83"/>
    </g>
    <g>
      <path class="st2" d="M185.67,557.01c0-139.25-92.83-185.67-92.83-185.67,0,0,92.83-46.42,92.83-185.67"/>
      <path class="st2" d="M185.67,928.35c0-139.25,92.83-185.67,92.83-185.67,0,0-92.83-46.42-92.83-185.67"/>
      <path class="st2" d="M185.67,1299.69c0-139.25-92.83-185.67-92.83-185.67,0,0,92.83-46.42,92.83-185.67"/>
      <path class="st2" d="M185.67,1671.02c0-139.25,92.83-185.67,92.83-185.67,0,0-92.83-46.42-92.83-185.67"/>
      <path class="st2" d="M185.67,185.67C185.67,46.42,278.5,0,278.5,0c0,0-92.83-46.42-92.83-185.67"/>
    </g>
    <g>
      <path class="st2" d="M557.01,557.01c0-139.25-92.83-185.67-92.83-185.67,0,0,92.83-46.42,92.83-185.67"/>
      <path class="st2" d="M557.01,928.35c0-139.25,92.83-185.67,92.83-185.67,0,0-92.83-46.42-92.83-185.67"/>
      <path class="st2" d="M557.01,1299.69c0-139.25-92.83-185.67-92.83-185.67,0,0,92.83-46.42,92.83-185.67"/>
      <path class="st2" d="M557.01,1671.02c0-139.25,92.83-185.67,92.83-185.67,0,0-92.83-46.42-92.83-185.67"/>
      <path class="st2" d="M557.01,185.67C557.01,46.42,649.84,0,649.84,0c0,0-92.83-46.42-92.83-185.67"/>
    </g>
    <g>
      <path class="st2" d="M928.34,557.01c0-139.25-92.83-185.67-92.83-185.67,0,0,92.83-46.42,92.83-185.67"/>
      <path class="st2" d="M928.34,928.35c0-139.25,92.83-185.67,92.83-185.67,0,0-92.83-46.42-92.83-185.67"/>
      <path class="st2" d="M928.34,1299.69c0-139.25-92.83-185.67-92.83-185.67,0,0,92.83-46.42,92.83-185.67"/>
      <path class="st2" d="M928.34,1671.02c0-139.25,92.83-185.67,92.83-185.67,0,0-92.83-46.42-92.83-185.67"/>
      <path class="st2" d="M928.34,185.67C928.34,46.42,1021.18,0,1021.18,0c0,0-92.83-46.42-92.83-185.67"/>
    </g>
    <g>
      <path class="st2" d="M1299.68,557.01c0-139.25-92.83-185.67-92.83-185.67,0,0,92.83-46.42,92.83-185.67"/>
      <path class="st2" d="M1299.68,928.35c0-139.25,92.83-185.67,92.83-185.67,0,0-92.83-46.42-92.83-185.67"/>
      <path class="st2" d="M1299.68,1299.69c0-139.25-92.83-185.67-92.83-185.67,0,0,92.83-46.42,92.83-185.67"/>
      <path class="st2" d="M1299.68,1671.02c0-139.25,92.83-185.67,92.83-185.67,0,0-92.83-46.42-92.83-185.67"/>
      <path class="st2" d="M1299.68,185.67c0-139.25,92.83-185.67,92.83-185.67,0,0-92.83-46.42-92.83-185.67"/>
    </g>
    <g>
      <path class="st2" d="M1671.02,557.01c0-139.25-92.83-185.67-92.83-185.67,0,0,92.83-46.42,92.83-185.67"/>
      <path class="st2" d="M1671.02,928.35c0-139.25,92.83-185.67,92.83-185.67,0,0-92.83-46.42-92.83-185.67"/>
      <path class="st2" d="M1671.02,1299.69c0-139.25-92.83-185.67-92.83-185.67,0,0,92.83-46.42,92.83-185.67"/>
      <path class="st2" d="M1671.02,1671.02c0-139.25,92.83-185.67,92.83-185.67,0,0-92.83-46.42-92.83-185.67"/>
      <path class="st2" d="M1671.02,185.67c0-139.25,92.83-185.67,92.83-185.67,0,0-92.83-46.42-92.83-185.67"/>
    </g>
    <g>
      <path class="st2" d="M2042.36,557.01c0-139.25-92.84-185.67-92.84-185.67,0,0,92.84-46.42,92.84-185.67"/>
      <path class="st2" d="M2042.36,928.35c0-139.25,92.83-185.67,92.83-185.67,0,0-92.83-46.42-92.83-185.67"/>
      <path class="st2" d="M2042.36,1299.69c0-139.25-92.84-185.67-92.84-185.67,0,0,92.84-46.42,92.84-185.67"/>
      <path class="st2" d="M2042.36,1671.02c0-139.25,92.83-185.67,92.83-185.67,0,0-92.83-46.42-92.83-185.67"/>
      <path class="st2" d="M2042.36,185.67c0-139.25,92.83-185.67,92.83-185.67,0,0-92.83-46.42-92.83-185.67"/>
    </g>
    <g>
      <path class="st2" d="M2413.7,557.01c0-139.25-92.83-185.67-92.83-185.67,0,0,92.83-46.42,92.83-185.67"/>
      <path class="st2" d="M2413.7,928.35c0-139.25,92.83-185.67,92.83-185.67,0,0-92.83-46.42-92.83-185.67"/>
      <path class="st2" d="M2413.7,1299.69c0-139.25-92.83-185.67-92.83-185.67,0,0,92.83-46.42,92.83-185.67"/>
      <path class="st2" d="M2413.7,1671.02c0-139.25,92.83-185.67,92.83-185.67,0,0-92.83-46.42-92.83-185.67"/>
      <path class="st2" d="M2413.7,185.67c0-139.25,92.83-185.67,92.83-185.67,0,0-92.83-46.42-92.83-185.67"/>
    </g>
    <g>
      <path class="st2" d="M2413.71,185.67c139.25,0,185.67-92.83,185.67-92.83,0,0,46.42,92.83,185.67,92.83"/>
      <path class="st2" d="M2785.04,185.67c139.25,0,185.67,92.83,185.67,92.83,0,0,46.42-92.83,185.67-92.83"/>
      <path class="st2" d="M3156.38,185.67c139.25,0,185.67-92.83,185.67-92.83,0,0,46.42,92.83,185.67,92.83"/>
      <path class="st2" d="M3527.72,185.67c139.25,0,185.67,92.83,185.67,92.83,0,0,46.42-92.83,185.67-92.83"/>
      <path class="st2" d="M3899.06,185.67c139.25,0,185.67-92.83,185.67-92.83,0,0,46.42,92.83,185.67,92.83"/>
      <path class="st2" d="M4270.4,185.67c139.25,0,185.67,92.83,185.67,92.83,0,0,46.42-92.83,185.67-92.83"/>
    </g>
    <g>
      <path class="st2" d="M2413.71,557.01c139.25,0,185.67-92.84,185.67-92.84,0,0,46.42,92.84,185.67,92.84"/>
      <path class="st2" d="M2785.04,557.01c139.25,0,185.67,92.83,185.67,92.83,0,0,46.42-92.83,185.67-92.83"/>
      <path class="st2" d="M3156.38,557.01c139.25,0,185.67-92.84,185.67-92.84,0,0,46.42,92.84,185.67,92.84"/>
      <path class="st2" d="M3527.72,557.01c139.25,0,185.67,92.83,185.67,92.83,0,0,46.42-92.83,185.67-92.83"/>
      <path class="st2" d="M3899.06,557.01c139.25,0,185.67-92.84,185.67-92.84,0,0,46.42,92.84,185.67,92.84"/>
      <path class="st2" d="M4270.4,557.01c139.25,0,185.67,92.83,185.67,92.83,0,0,46.42-92.83,185.67-92.83"/>
    </g>
    <g>
      <path class="st2" d="M2413.71,928.35c139.25,0,185.67-92.84,185.67-92.84,0,0,46.42,92.84,185.67,92.84"/>
      <path class="st2" d="M2785.04,928.35c139.25,0,185.67,92.83,185.67,92.83,0,0,46.42-92.83,185.67-92.83"/>
      <path class="st2" d="M3156.38,928.35c139.25,0,185.67-92.84,185.67-92.84,0,0,46.42,92.84,185.67,92.84"/>
      <path class="st2" d="M3527.72,928.35c139.25,0,185.67,92.83,185.67,92.83,0,0,46.42-92.83,185.67-92.83"/>
      <path class="st2" d="M3899.06,928.35c139.25,0,185.67-92.84,185.67-92.84,0,0,46.42,92.84,185.67,92.84"/>
      <path class="st2" d="M4270.4,928.35c139.25,0,185.67,92.83,185.67,92.83,0,0,46.42-92.83,185.67-92.83"/>
    </g>
    <g>
      <path class="st2" d="M2413.71,1299.69c139.25,0,185.67-92.83,185.67-92.83,0,0,46.42,92.83,185.67,92.83"/>
      <path class="st2" d="M2785.04,1299.69c139.25,0,185.67,92.83,185.67,92.83,0,0,46.42-92.83,185.67-92.83"/>
      <path class="st2" d="M3156.38,1299.69c139.25,0,185.67-92.83,185.67-92.83,0,0,46.42,92.83,185.67,92.83"/>
      <path class="st2" d="M3527.72,1299.69c139.25,0,185.67,92.83,185.67,92.83,0,0,46.42-92.83,185.67-92.83"/>
      <path class="st2" d="M3899.06,1299.69c139.25,0,185.67-92.83,185.67-92.83,0,0,46.42,92.83,185.67,92.83"/>
      <path class="st2" d="M4270.4,1299.69c139.25,0,185.67,92.83,185.67,92.83,0,0,46.42-92.83,185.67-92.83"/>
    </g>
    <g>
      <path class="st2" d="M2413.71,1671.02c139.25,0,185.67-92.83,185.67-92.83,0,0,46.42,92.83,185.67,92.83"/>
      <path class="st2" d="M2785.04,1671.02c139.25,0,185.67,92.83,185.67,92.83,0,0,46.42-92.83,185.67-92.83"/>
      <path class="st2" d="M3156.38,1671.02c139.25,0,185.67-92.83,185.67-92.83,0,0,46.42,92.83,185.67,92.83"/>
      <path class="st2" d="M3527.72,1671.02c139.25,0,185.67,92.83,185.67,92.83,0,0,46.42-92.83,185.67-92.83"/>
      <path class="st2" d="M3899.06,1671.02c139.25,0,185.67-92.83,185.67-92.83,0,0,46.42,92.83,185.67,92.83"/>
      <path class="st2" d="M4270.4,1671.02c139.25,0,185.67,92.83,185.67,92.83,0,0,46.42-92.83,185.67-92.83"/>
    </g>
    <g>
      <path class="st2" d="M2785.04,557.01c0-139.25-92.84-185.67-92.84-185.67,0,0,92.84-46.42,92.84-185.67"/>
      <path class="st2" d="M2785.04,928.35c0-139.25,92.83-185.67,92.83-185.67,0,0-92.83-46.42-92.83-185.67"/>
      <path class="st2" d="M2785.04,1299.69c0-139.25-92.84-185.67-92.84-185.67,0,0,92.84-46.42,92.84-185.67"/>
      <path class="st2" d="M2785.04,1671.02c0-139.25,92.83-185.67,92.83-185.67,0,0-92.83-46.42-92.83-185.67"/>
      <path class="st2" d="M2785.04,185.67c0-139.25,92.83-185.67,92.83-185.67,0,0-92.83-46.42-92.83-185.67"/>
    </g>
    <g>
      <path class="st2" d="M3156.38,557.01c0-139.25-92.84-185.67-92.84-185.67,0,0,92.84-46.42,92.84-185.67"/>
      <path class="st2" d="M3156.38,928.35c0-139.25,92.83-185.67,92.83-185.67,0,0-92.83-46.42-92.83-185.67"/>
      <path class="st2" d="M3156.38,1299.69c0-139.25-92.84-185.67-92.84-185.67,0,0,92.84-46.42,92.84-185.67"/>
      <path class="st2" d="M3156.38,1671.02c0-139.25,92.83-185.67,92.83-185.67,0,0-92.83-46.42-92.83-185.67"/>
      <path class="st2" d="M3156.38,185.67c0-139.25,92.83-185.67,92.83-185.67,0,0-92.83-46.42-92.83-185.67"/>
    </g>
    <g>
      <path class="st2" d="M3527.72,557.01c0-139.25-92.84-185.67-92.84-185.67,0,0,92.84-46.42,92.84-185.67"/>
      <path class="st2" d="M3527.72,928.35c0-139.25,92.83-185.67,92.83-185.67,0,0-92.83-46.42-92.83-185.67"/>
      <path class="st2" d="M3527.72,1299.69c0-139.25-92.84-185.67-92.84-185.67,0,0,92.84-46.42,92.84-185.67"/>
      <path class="st2" d="M3527.72,1671.02c0-139.25,92.83-185.67,92.83-185.67,0,0-92.83-46.42-92.83-185.67"/>
      <path class="st2" d="M3527.72,185.67c0-139.25,92.83-185.67,92.83-185.67,0,0-92.83-46.42-92.83-185.67"/>
    </g>
    <g>
      <path class="st2" d="M3899.06,557.01c0-139.25-92.84-185.67-92.84-185.67,0,0,92.84-46.42,92.84-185.67"/>
      <path class="st2" d="M3899.06,928.35c0-139.25,92.83-185.67,92.83-185.67,0,0-92.83-46.42-92.83-185.67"/>
      <path class="st2" d="M3899.06,1299.69c0-139.25-92.84-185.67-92.84-185.67,0,0,92.84-46.42,92.84-185.67"/>
      <path class="st2" d="M3899.06,1671.02c0-139.25,92.83-185.67,92.83-185.67,0,0-92.83-46.42-92.83-185.67"/>
      <path class="st2" d="M3899.06,185.67c0-139.25,92.83-185.67,92.83-185.67,0,0-92.83-46.42-92.83-185.67"/>
    </g>
    <g>
      <path class="st2" d="M4270.39,557.01c0-139.25-92.84-185.67-92.84-185.67,0,0,92.84-46.42,92.84-185.67"/>
      <path class="st2" d="M4270.39,928.35c0-139.25,92.83-185.67,92.83-185.67,0,0-92.83-46.42-92.83-185.67"/>
      <path class="st2" d="M4270.39,1299.69c0-139.25-92.84-185.67-92.84-185.67,0,0,92.84-46.42,92.84-185.67"/>
      <path class="st2" d="M4270.39,1671.02c0-139.25,92.83-185.67,92.83-185.67,0,0-92.83-46.42-92.83-185.67"/>
      <path class="st2" d="M4270.39,185.67c0-139.25,92.83-185.67,92.83-185.67,0,0-92.83-46.42-92.83-185.67"/>
    </g>
    <g>
      <path class="st2" d="M4641.73,557.01c0-139.25-92.83-185.67-92.83-185.67,0,0,92.83-46.42,92.83-185.67"/>
      <path class="st2" d="M4641.73,928.35c0-139.25,92.83-185.67,92.83-185.67,0,0-92.83-46.42-92.83-185.67"/>
      <path class="st2" d="M4641.73,1299.69c0-139.25-92.83-185.67-92.83-185.67,0,0,92.83-46.42,92.83-185.67"/>
      <path class="st2" d="M4641.73,1671.02c0-139.25,92.83-185.67,92.83-185.67,0,0-92.83-46.42-92.83-185.67"/>
      <path class="st2" d="M4641.73,185.67c0-139.25,92.83-185.67,92.83-185.67,0,0-92.83-46.42-92.83-185.67"/>
    </g>
  </g>
  <g id="_x38_2_x5F_rein" class="st4">
    <g>
      <path class="st2" d="M557.01,185.67c-139.25,0-185.67-92.83-185.67-92.83,0,0-46.42,92.83-185.67,92.83"/>
      <path class="st2" d="M928.35,185.67h0"/>
      <path class="st2" d="M557.01,185.67c139.25,0,185.67,92.83,185.67,92.83,0,0,46.42-92.83,185.67-92.83"/>
      <path class="st2" d="M1299.68,185.67c-139.25,0-185.67-92.83-185.67-92.83,0,0-46.42,92.83-185.67,92.83"/>
      <path class="st2" d="M1671.02,185.67h0"/>
      <path class="st2" d="M1299.69,185.67c139.25,0,185.67,92.83,185.67,92.83,0,0,46.42-92.83,185.67-92.83"/>
      <path class="st2" d="M2042.36,185.67c-139.25,0-185.67-92.83-185.67-92.83,0,0-46.42,92.83-185.67,92.83"/>
      <path class="st2" d="M2042.36,185.67c139.25,0,185.67,92.83,185.67,92.83,0,0,46.41-92.83,185.66-92.83"/>
      <path class="st2" d="M2413.7,185.67h0"/>
      <path class="st2" d="M185.67,185.67c-139.25,0-185.67,92.83-185.67,92.83"/>
      <path class="st2" d="M185.67,185.67h0"/>
      <path class="st2" d="M557.01,557.01c-139.25,0-185.67-92.84-185.67-92.84,0,0-46.42,92.84-185.67,92.84"/>
      <path class="st2" d="M557.01,557.01c139.25,0,185.67,92.83,185.67,92.83,0,0,46.42-92.83,185.67-92.83"/>
      <path class="st2" d="M928.34,557.01h0"/>
      <path class="st2" d="M1299.68,557.01c-139.25,0-185.67-92.84-185.67-92.84,0,0-46.42,92.84-185.67,92.84"/>
      <path class="st2" d="M1299.69,557.01c139.25,0,185.67,92.83,185.67,92.83,0,0,46.42-92.83,185.67-92.83"/>
      <path class="st2" d="M1671.02,557.01h0"/>
      <path class="st2" d="M2042.36,557.01c-139.25,0-185.67-92.84-185.67-92.84,0,0-46.42,92.84-185.67,92.84"/>
      <path class="st2" d="M2042.36,557.01c139.25,0,185.67,92.83,185.67,92.83,0,0,46.41-92.83,185.66-92.83"/>
      <path class="st2" d="M2413.7,557.01h0"/>
      <path class="st2" d="M185.67,557.01h0"/>
      <path class="st2" d="M185.67,557.01c-139.25,0-185.67,92.83-185.67,92.83"/>
      <path class="st2" d="M557.01,928.35h0"/>
      <path class="st2" d="M557.01,928.35c-139.25,0-185.67-92.84-185.67-92.84,0,0-46.42,92.84-185.67,92.84"/>
      <path class="st2" d="M557.01,928.35c139.25,0,185.67,92.83,185.67,92.83,0,0,46.42-92.83,185.67-92.83"/>
      <path class="st2" d="M928.34,928.35h0"/>
      <path class="st2" d="M1299.68,928.35c-139.25,0-185.67-92.84-185.67-92.84,0,0-46.42,92.84-185.67,92.84"/>
      <path class="st2" d="M1299.68,928.35h0"/>
      <path class="st2" d="M1299.69,928.35c139.25,0,185.67,92.83,185.67,92.83,0,0,46.42-92.83,185.67-92.83"/>
      <path class="st2" d="M1671.02,928.35h0"/>
      <path class="st2" d="M2042.36,928.35h0"/>
      <path class="st2" d="M2042.36,928.35c-139.25,0-185.67-92.84-185.67-92.84,0,0-46.42,92.84-185.67,92.84"/>
      <path class="st2" d="M2413.7,928.35c-139.25,0-185.66,92.83-185.66,92.83,0,0-46.42-92.83-185.67-92.83"/>
      <path class="st2" d="M2413.7,928.35h0"/>
      <path class="st2" d="M185.67,928.35h0"/>
      <path class="st2" d="M185.67,928.35c-139.25,0-185.67,92.83-185.67,92.83"/>
      <path class="st2" d="M185.67,185.67c0,139.25-92.83,185.67-92.83,185.67,0,0,92.83,46.42,92.83,185.67"/>
      <line class="st2" x1="185.67" y1="185.67" x2="185.67" y2="185.67"/>
      <path class="st2" d="M185.67,557.01c0,139.25,92.83,185.67,92.83,185.67,0,0-92.83,46.42-92.83,185.67"/>
      <line class="st2" x1="185.67" y1="557.01" x2="185.67" y2="557.01"/>
      <path class="st2" d="M185.67,928.35c0,139.25-92.83,185.67-92.83,185.67h0"/>
      <path class="st2" d="M185.67,928.35h0"/>
      <path class="st2" d="M185.67,185.67C185.67,46.45,278.46.02,278.5,0"/>
      <path class="st2" d="M557.01,557.01c0-139.25-92.83-185.67-92.83-185.67,0,0,92.83-46.42,92.83-185.67"/>
      <path class="st2" d="M557.01,557.01c0,139.25,92.83,185.67,92.83,185.67,0,0-92.83,46.42-92.83,185.67"/>
      <path class="st2" d="M557.01,928.35c0,139.25-92.83,185.67-92.83,185.67h0"/>
      <path class="st2" d="M557.01,928.35h0"/>
      <path class="st2" d="M557.01,185.67C557.01,46.45,649.8.02,649.84,0"/>
      <line class="st2" x1="928.34" y1="185.67" x2="928.34" y2="185.67"/>
      <path class="st2" d="M928.34,185.67c0,139.25-92.83,185.67-92.83,185.67,0,0,92.83,46.42,92.83,185.67"/>
      <path class="st2" d="M928.34,928.35c0-139.25,92.83-185.67,92.83-185.67,0,0-92.83-46.42-92.83-185.67"/>
      <line class="st2" x1="928.34" y1="557.01" x2="928.34" y2="557.01"/>
      <path class="st2" d="M928.34,928.35h0"/>
      <path class="st2" d="M928.34,928.35c0,139.25-92.83,185.67-92.83,185.67h0"/>
      <path class="st2" d="M928.34,185.67C928.34,46.45,1021.14.02,1021.18,0"/>
      <path class="st2" d="M1299.68,185.67c0,139.25-92.83,185.67-92.83,185.67,0,0,92.83,46.42,92.83,185.67"/>
      <path class="st2" d="M1299.68,928.35c0-139.25,92.83-185.67,92.83-185.67,0,0-92.83-46.42-92.83-185.67"/>
      <path class="st2" d="M1299.68,928.35c0,139.25-92.83,185.67-92.83,185.67h0"/>
      <path class="st2" d="M1299.68,928.35h0"/>
      <path class="st2" d="M1299.68,185.67C1299.68,46.45,1392.47.02,1392.52,0"/>
      <path class="st2" d="M1671.02,185.67c0,139.25-92.83,185.67-92.83,185.67,0,0,92.83,46.42,92.83,185.67"/>
      <line class="st2" x1="1671.02" y1="185.67" x2="1671.02" y2="185.67"/>
      <line class="st2" x1="1671.02" y1="557.01" x2="1671.02" y2="557.01"/>
      <path class="st2" d="M1671.02,928.35c0-139.25,92.83-185.67,92.83-185.67,0,0-92.83-46.42-92.83-185.67"/>
      <path class="st2" d="M1671.02,928.35h0"/>
      <path class="st2" d="M1671.02,928.35c0,139.25-92.83,185.67-92.83,185.67h0"/>
      <path class="st2" d="M1671.02,185.67C1671.02,46.45,1763.81.02,1763.85,0"/>
      <path class="st2" d="M2042.36,185.67c0,139.25-92.84,185.67-92.84,185.67,0,0,92.84,46.42,92.84,185.67"/>
      <path class="st2" d="M2042.36,557.01c0,139.25,92.83,185.67,92.83,185.67,0,0-92.83,46.42-92.83,185.67"/>
      <path class="st2" d="M2042.36,928.35h0"/>
      <path class="st2" d="M2042.36,928.35c0,139.25-92.84,185.67-92.84,185.67h0"/>
      <path class="st2" d="M2042.36,185.67C2042.36,46.45,2135.15.02,2135.19,0"/>
      <line class="st2" x1="2413.7" y1="185.67" x2="2413.7" y2="185.67"/>
      <path class="st2" d="M2413.7,557.01c0-139.25-92.83-185.67-92.83-185.67,0,0,92.83-46.42,92.83-185.67"/>
      <line class="st2" x1="2413.7" y1="557.01" x2="2413.7" y2="557.01"/>
      <path class="st2" d="M2413.7,928.35c0-139.25,92.83-185.67,92.83-185.67,0,0-92.83-46.42-92.83-185.67"/>
      <path class="st2" d="M2413.7,928.35c0,139.25-92.83,185.67-92.83,185.67h0"/>
      <path class="st2" d="M2413.7,928.35h0"/>
      <path class="st2" d="M2413.7,185.67C2413.7,46.45,2506.49.02,2506.53,0"/>
      <path class="st2" d="M2413.71,185.67c138.94,0,185.46-92.41,185.67-92.83"/>
      <path class="st2" d="M2413.71,557.01c138.94,0,185.46-92.41,185.67-92.83"/>
      <path class="st2" d="M2413.71,928.35c138.94,0,185.46-92.41,185.67-92.83"/>
      <polyline class="st1" points="92.84 1114.02 0 1114.02 0 1021.18"/>
      <line class="st1" x1="835.51" y1="1114.02" x2="464.17" y2="1114.02"/>
      <line class="st1" y1="649.84" y2="1021.18"/>
      <line class="st1" x1="92.84" y1="1114.02" x2="464.17" y2="1114.02"/>
      <line class="st1" y1="278.5" y2="649.84"/>
      <line class="st1" x1="1578.19" y1="1114.02" x2="1949.52" y2="1114.02"/>
      <line class="st1" x1="1949.52" y1="1114.02" x2="2320.86" y2="1114.02"/>
      <line class="st1" x1="2599.37" y1="464.18" x2="2599.37" y2="92.84"/>
      <line class="st1" x1="835.51" y1="1114.02" x2="1206.85" y2="1114.02"/>
      <polyline class="st1" points="278.5 0 0 0 0 278.5"/>
      <line class="st1" x1="1763.85" y1="0" x2="1392.52" y2="0"/>
      <line class="st1" x1="1392.52" y1="0" x2="1021.18" y2="0"/>
      <line class="st1" x1="1578.19" y1="1114.02" x2="1206.85" y2="1114.02"/>
      <line class="st1" x1="1021.18" y1="0" x2="649.84" y2="0"/>
      <line class="st1" x1="2506.53" y1="0" x2="2135.19" y2="0"/>
      <polyline class="st1" points="2599.37 92.84 2599.37 0 2506.53 0"/>
      <line class="st1" x1="649.84" y1="0" x2="278.5" y2="0"/>
      <line class="st1" x1="2599.37" y1="464.18" x2="2599.37" y2="835.52"/>
      <line class="st1" x1="2135.19" y1="0" x2="1763.85" y2="0"/>
      <polyline class="st1" points="2599.37 835.52 2599.37 1114.02 2320.86 1114.02"/>
    </g>
  </g>
  <g id="_x38_3" class="st4">
    <g>
      <path class="st2" d="M-185.67,185.67C-46.42,185.67,0,92.83,0,92.83c0,0,46.42,92.83,185.67,92.83"/>
      <path class="st2" d="M185.67,185.67c139.25,0,185.67,92.83,185.67,92.83,0,0,46.42-92.83,185.67-92.83"/>
      <path class="st2" d="M557.01,185.67c139.25,0,185.67-92.83,185.67-92.83,0,0,46.42,92.83,185.67,92.83"/>
      <path class="st2" d="M928.35,185.67c139.25,0,185.67,92.83,185.67,92.83,0,0,46.42-92.83,185.67-92.83"/>
      <path class="st2" d="M1299.69,185.67c139.25,0,185.67-92.83,185.67-92.83,0,0,46.42,92.83,185.67,92.83"/>
      <path class="st2" d="M1671.02,185.67c139.25,0,185.67,92.83,185.67,92.83,0,0,46.42-92.83,185.67-92.83"/>
      <path class="st2" d="M-185.67,185.67"/>
    </g>
    <g>
      <path class="st2" d="M-185.67,557.01C-46.42,557.01,0,649.84,0,649.84c0,0,46.42-92.84,185.67-92.84"/>
      <path class="st2" d="M185.67,557.01c139.25,0,185.67-92.83,185.67-92.83,0,0,46.42,92.83,185.67,92.83"/>
      <path class="st2" d="M557.01,557.01c139.25,0,185.67,92.84,185.67,92.84,0,0,46.42-92.84,185.67-92.84"/>
      <path class="st2" d="M928.35,557.01c139.25,0,185.67-92.83,185.67-92.83,0,0,46.42,92.83,185.67,92.83"/>
      <path class="st2" d="M1299.69,557.01c139.25,0,185.67,92.84,185.67,92.84,0,0,46.42-92.84,185.67-92.84"/>
      <path class="st2" d="M1671.02,557.01c139.25,0,185.67-92.83,185.67-92.83,0,0,46.42,92.83,185.67,92.83"/>
      <path class="st2" d="M-185.67,557.01"/>
    </g>
    <g>
      <path class="st2" d="M-185.67,928.35C-46.42,928.35,0,835.51,0,835.51c0,0,46.42,92.84,185.67,92.84"/>
      <path class="st2" d="M185.67,928.35c139.25,0,185.67,92.83,185.67,92.83,0,0,46.42-92.83,185.67-92.83"/>
      <path class="st2" d="M557.01,928.35c139.25,0,185.67-92.84,185.67-92.84,0,0,46.42,92.84,185.67,92.84"/>
      <path class="st2" d="M928.35,928.35c139.25,0,185.67,92.83,185.67,92.83,0,0,46.42-92.83,185.67-92.83"/>
      <path class="st2" d="M1299.69,928.35c139.25,0,185.67-92.84,185.67-92.84,0,0,46.42,92.84,185.67,92.84"/>
      <path class="st2" d="M1671.02,928.35c139.25,0,185.67,92.83,185.67,92.83,0,0,46.42-92.83,185.67-92.83"/>
      <path class="st2" d="M-185.67,928.35"/>
    </g>
    <g>
      <path class="st2" d="M-185.67,1299.69C-46.42,1299.69,0,1392.52,0,1392.52c0,0,46.42-92.83,185.67-92.83"/>
      <path class="st2" d="M185.67,1299.69c139.25,0,185.67-92.83,185.67-92.83,0,0,46.42,92.83,185.67,92.83"/>
      <path class="st2" d="M557.01,1299.69c139.25,0,185.67,92.83,185.67,92.83,0,0,46.42-92.83,185.67-92.83"/>
      <path class="st2" d="M928.35,1299.69c139.25,0,185.67-92.83,185.67-92.83,0,0,46.42,92.83,185.67,92.83"/>
      <path class="st2" d="M1299.69,1299.69c139.25,0,185.67,92.83,185.67,92.83,0,0,46.42-92.83,185.67-92.83"/>
      <path class="st2" d="M1671.02,1299.69c139.25,0,185.67-92.83,185.67-92.83,0,0,46.42,92.83,185.67,92.83"/>
      <path class="st2" d="M-185.67,1299.69"/>
    </g>
    <g>
      <path class="st2" d="M-185.67,1671.02C-46.42,1671.02,0,1578.19,0,1578.19c0,0,46.42,92.83,185.67,92.83"/>
      <path class="st2" d="M185.67,1671.02c139.25,0,185.67,92.83,185.67,92.83,0,0,46.42-92.83,185.67-92.83"/>
      <path class="st2" d="M557.01,1671.02c139.25,0,185.67-92.83,185.67-92.83,0,0,46.42,92.83,185.67,92.83"/>
      <path class="st2" d="M928.35,1671.02c139.25,0,185.67,92.83,185.67,92.83,0,0,46.42-92.83,185.67-92.83"/>
      <path class="st2" d="M1299.69,1671.02c139.25,0,185.67-92.83,185.67-92.83,0,0,46.42,92.83,185.67,92.83"/>
      <path class="st2" d="M1671.02,1671.02c139.25,0,185.67,92.83,185.67,92.83,0,0,46.42-92.83,185.67-92.83"/>
      <path class="st2" d="M-185.67,1671.02"/>
    </g>
    <g>
      <path class="st2" d="M2042.36,185.67c139.25,0,185.67-92.83,185.67-92.83,0,0,46.42,92.83,185.67,92.83"/>
      <path class="st2" d="M2413.7,185.67c139.25,0,185.67,92.83,185.67,92.83,0,0,46.42-92.83,185.67-92.83"/>
      <path class="st2" d="M2785.04,185.67c139.25,0,185.67-92.83,185.67-92.83,0,0,46.42,92.83,185.67,92.83"/>
      <path class="st2" d="M3156.38,185.67c139.25,0,185.67,92.83,185.67,92.83,0,0,46.42-92.83,185.67-92.83"/>
      <path class="st2" d="M3527.72,185.67c139.25,0,185.67-92.83,185.67-92.83,0,0,46.42,92.83,185.67,92.83"/>
      <path class="st2" d="M3899.05,185.67c139.25,0,185.67,92.83,185.67,92.83,0,0,46.42-92.83,185.67-92.83"/>
      <path class="st2" d="M2042.36,185.67"/>
    </g>
    <g>
      <path class="st2" d="M2042.36,557.01c139.25,0,185.67,92.84,185.67,92.84,0,0,46.42-92.84,185.67-92.84"/>
      <path class="st2" d="M2413.7,557.01c139.25,0,185.67-92.83,185.67-92.83,0,0,46.42,92.83,185.67,92.83"/>
      <path class="st2" d="M2785.04,557.01c139.25,0,185.67,92.84,185.67,92.84,0,0,46.42-92.84,185.67-92.84"/>
      <path class="st2" d="M3156.38,557.01c139.25,0,185.67-92.83,185.67-92.83,0,0,46.42,92.83,185.67,92.83"/>
      <path class="st2" d="M3527.72,557.01c139.25,0,185.67,92.84,185.67,92.84,0,0,46.42-92.84,185.67-92.84"/>
      <path class="st2" d="M3899.05,557.01c139.25,0,185.67-92.83,185.67-92.83,0,0,46.42,92.83,185.67,92.83"/>
      <path class="st2" d="M2042.36,557.01"/>
    </g>
    <g>
      <path class="st2" d="M2042.36,928.35c139.25,0,185.67-92.84,185.67-92.84,0,0,46.42,92.84,185.67,92.84"/>
      <path class="st2" d="M2413.7,928.35c139.25,0,185.67,92.83,185.67,92.83,0,0,46.42-92.83,185.67-92.83"/>
      <path class="st2" d="M2785.04,928.35c139.25,0,185.67-92.84,185.67-92.84,0,0,46.42,92.84,185.67,92.84"/>
      <path class="st2" d="M3156.38,928.35c139.25,0,185.67,92.83,185.67,92.83,0,0,46.42-92.83,185.67-92.83"/>
      <path class="st2" d="M3527.72,928.35c139.25,0,185.67-92.84,185.67-92.84,0,0,46.42,92.84,185.67,92.84"/>
      <path class="st2" d="M3899.05,928.35c139.25,0,185.67,92.83,185.67,92.83,0,0,46.42-92.83,185.67-92.83"/>
      <path class="st2" d="M2042.36,928.35"/>
    </g>
    <g>
      <path class="st2" d="M2042.36,1299.69c139.25,0,185.67,92.83,185.67,92.83,0,0,46.42-92.83,185.67-92.83"/>
      <path class="st2" d="M2413.7,1299.69c139.25,0,185.67-92.83,185.67-92.83,0,0,46.42,92.83,185.67,92.83"/>
      <path class="st2" d="M2785.04,1299.69c139.25,0,185.67,92.83,185.67,92.83,0,0,46.42-92.83,185.67-92.83"/>
      <path class="st2" d="M3156.38,1299.69c139.25,0,185.67-92.83,185.67-92.83,0,0,46.42,92.83,185.67,92.83"/>
      <path class="st2" d="M3527.72,1299.69c139.25,0,185.67,92.83,185.67,92.83,0,0,46.42-92.83,185.67-92.83"/>
      <path class="st2" d="M3899.05,1299.69c139.25,0,185.67-92.83,185.67-92.83,0,0,46.42,92.83,185.67,92.83"/>
      <path class="st2" d="M2042.36,1299.69"/>
    </g>
    <g>
      <path class="st2" d="M2042.36,1671.02c139.25,0,185.67-92.83,185.67-92.83,0,0,46.42,92.83,185.67,92.83"/>
      <path class="st2" d="M2413.7,1671.02c139.25,0,185.67,92.83,185.67,92.83,0,0,46.42-92.83,185.67-92.83"/>
      <path class="st2" d="M2785.04,1671.02c139.25,0,185.67-92.83,185.67-92.83,0,0,46.42,92.83,185.67,92.83"/>
      <path class="st2" d="M3156.38,1671.02c139.25,0,185.67,92.83,185.67,92.83,0,0,46.42-92.83,185.67-92.83"/>
      <path class="st2" d="M3527.72,1671.02c139.25,0,185.67-92.83,185.67-92.83,0,0,46.42,92.83,185.67,92.83"/>
      <path class="st2" d="M3899.05,1671.02c139.25,0,185.67,92.83,185.67,92.83,0,0,46.42-92.83,185.67-92.83"/>
      <path class="st2" d="M2042.36,1671.02"/>
    </g>
    <g>
      <path class="st2" d="M185.67,185.67C185.67,46.42,92.84,0,92.84,0c0,0,92.83-46.42,92.83-185.67"/>
      <path class="st2" d="M185.67,557.01c0-139.25,92.83-185.67,92.83-185.67,0,0-92.83-46.42-92.83-185.67"/>
      <path class="st2" d="M185.67,928.35c0-139.25-92.83-185.67-92.83-185.67,0,0,92.83-46.42,92.83-185.67"/>
      <path class="st2" d="M185.67,1299.68c0-139.25,92.83-185.67,92.83-185.67,0,0-92.83-46.42-92.83-185.67"/>
    </g>
    <g>
      <path class="st2" d="M557.01,185.67C557.01,46.42,649.84,0,649.84,0c0,0-92.83-46.42-92.83-185.67"/>
      <path class="st2" d="M557.01,557.01c0-139.25-92.83-185.67-92.83-185.67,0,0,92.83-46.42,92.83-185.67"/>
      <path class="st2" d="M557.01,928.35c0-139.25,92.83-185.67,92.83-185.67,0,0-92.83-46.42-92.83-185.67"/>
      <path class="st2" d="M557.01,1299.68c0-139.25-92.83-185.67-92.83-185.67,0,0,92.83-46.42,92.83-185.67"/>
    </g>
    <g>
      <path class="st2" d="M928.35,185.67C928.35,46.42,835.51,0,835.51,0c0,0,92.83-46.42,92.83-185.67"/>
      <path class="st2" d="M928.35,557.01c0-139.25,92.83-185.67,92.83-185.67,0,0-92.83-46.42-92.83-185.67"/>
      <path class="st2" d="M928.35,928.35c0-139.25-92.83-185.67-92.83-185.67,0,0,92.83-46.42,92.83-185.67"/>
      <path class="st2" d="M928.35,1299.68c0-139.25,92.83-185.67,92.83-185.67,0,0-92.83-46.42-92.83-185.67"/>
    </g>
    <g>
      <path class="st2" d="M2042.36,185.67c0-139.25,92.83-185.67,92.83-185.67,0,0-92.83-46.42-92.83-185.67"/>
      <path class="st2" d="M2042.36,557.01c0-139.25-92.83-185.67-92.83-185.67,0,0,92.83-46.42,92.83-185.67"/>
      <path class="st2" d="M2042.36,928.35c0-139.25,92.83-185.67,92.83-185.67,0,0-92.83-46.42-92.83-185.67"/>
      <path class="st2" d="M2042.36,1299.68c0-139.25-92.83-185.67-92.83-185.67,0,0,92.83-46.42,92.83-185.67"/>
    </g>
    <g>
      <path class="st2" d="M1671.02,185.67c0-139.25-92.83-185.67-92.83-185.67,0,0,92.83-46.42,92.83-185.67"/>
      <path class="st2" d="M1671.02,557.01c0-139.25,92.83-185.67,92.83-185.67,0,0-92.83-46.42-92.83-185.67"/>
      <path class="st2" d="M1671.02,928.35c0-139.25-92.83-185.67-92.83-185.67,0,0,92.83-46.42,92.83-185.67"/>
      <path class="st2" d="M1671.02,1299.68c0-139.25,92.83-185.67,92.83-185.67,0,0-92.83-46.42-92.83-185.67"/>
    </g>
    <g>
      <path class="st2" d="M1299.68,185.67c0-139.25,92.83-185.67,92.83-185.67,0,0-92.83-46.42-92.83-185.67"/>
      <path class="st2" d="M1299.68,557.01c0-139.25-92.83-185.67-92.83-185.67,0,0,92.83-46.42,92.83-185.67"/>
      <path class="st2" d="M1299.68,928.35c0-139.25,92.83-185.67,92.83-185.67,0,0-92.83-46.42-92.83-185.67"/>
      <path class="st2" d="M1299.68,1299.68c0-139.25-92.83-185.67-92.83-185.67,0,0,92.83-46.42,92.83-185.67"/>
    </g>
    <g>
      <path class="st2" d="M2413.7,185.67c0-139.25-92.83-185.67-92.83-185.67,0,0,92.83-46.42,92.83-185.67"/>
      <path class="st2" d="M2413.7,557.01c0-139.25,92.83-185.67,92.83-185.67,0,0-92.83-46.42-92.83-185.67"/>
      <path class="st2" d="M2413.7,928.35c0-139.25-92.83-185.67-92.83-185.67,0,0,92.83-46.42,92.83-185.67"/>
      <path class="st2" d="M2413.7,1299.68c0-139.25,92.83-185.67,92.83-185.67,0,0-92.83-46.42-92.83-185.67"/>
    </g>
    <g>
      <path class="st2" d="M2785.04,185.67c0-139.25,92.83-185.67,92.83-185.67,0,0-92.83-46.42-92.83-185.67"/>
      <path class="st2" d="M2785.04,557.01c0-139.25-92.83-185.67-92.83-185.67,0,0,92.83-46.42,92.83-185.67"/>
      <path class="st2" d="M2785.04,928.35c0-139.25,92.83-185.67,92.83-185.67,0,0-92.83-46.42-92.83-185.67"/>
      <path class="st2" d="M2785.04,1299.68c0-139.25-92.83-185.67-92.83-185.67,0,0,92.83-46.42,92.83-185.67"/>
    </g>
    <g>
      <path class="st2" d="M3156.38,185.67c0-139.25-92.83-185.67-92.83-185.67,0,0,92.83-46.42,92.83-185.67"/>
      <path class="st2" d="M3156.38,557.01c0-139.25,92.83-185.67,92.83-185.67,0,0-92.83-46.42-92.83-185.67"/>
      <path class="st2" d="M3156.38,928.35c0-139.25-92.83-185.67-92.83-185.67,0,0,92.83-46.42,92.83-185.67"/>
      <path class="st2" d="M3156.38,1299.68c0-139.25,92.83-185.67,92.83-185.67,0,0-92.83-46.42-92.83-185.67"/>
    </g>
    <g>
      <path class="st2" d="M4270.39,185.67c0-139.25,92.83-185.67,92.83-185.67,0,0-92.83-46.42-92.83-185.67"/>
      <path class="st2" d="M4270.39,557.01c0-139.25-92.83-185.67-92.83-185.67,0,0,92.83-46.42,92.83-185.67"/>
      <path class="st2" d="M4270.39,928.35c0-139.25,92.83-185.67,92.83-185.67,0,0-92.83-46.42-92.83-185.67"/>
      <path class="st2" d="M4270.39,1299.68c0-139.25-92.83-185.67-92.83-185.67,0,0,92.83-46.42,92.83-185.67"/>
    </g>
    <g>
      <path class="st2" d="M3899.05,185.67c0-139.25-92.83-185.67-92.83-185.67,0,0,92.83-46.42,92.83-185.67"/>
      <path class="st2" d="M3899.05,557.01c0-139.25,92.83-185.67,92.83-185.67,0,0-92.83-46.42-92.83-185.67"/>
      <path class="st2" d="M3899.05,928.35c0-139.25-92.83-185.67-92.83-185.67,0,0,92.83-46.42,92.83-185.67"/>
      <path class="st2" d="M3899.05,1299.68c0-139.25,92.83-185.67,92.83-185.67,0,0-92.83-46.42-92.83-185.67"/>
    </g>
    <g>
      <path class="st2" d="M3527.71,185.67c0-139.25,92.84-185.67,92.84-185.67,0,0-92.84-46.42-92.84-185.67"/>
      <path class="st2" d="M3527.71,557.01c0-139.25-92.83-185.67-92.83-185.67,0,0,92.83-46.42,92.83-185.67"/>
      <path class="st2" d="M3527.71,928.35c0-139.25,92.84-185.67,92.84-185.67,0,0-92.84-46.42-92.84-185.67"/>
      <path class="st2" d="M3527.71,1299.68c0-139.25-92.83-185.67-92.83-185.67,0,0,92.83-46.42,92.83-185.67"/>
    </g>
    <g>
      <path class="st2" d="M185.67,1671.02c0-139.25-92.83-185.67-92.83-185.67,0,0,92.83-46.42,92.83-185.67"/>
      <path class="st2" d="M185.67,2042.36c0-139.25,92.83-185.67,92.83-185.67,0,0-92.83-46.42-92.83-185.67"/>
      <path class="st2" d="M185.67,2413.7c0-139.25-92.83-185.67-92.83-185.67,0,0,92.83-46.42,92.83-185.67"/>
      <path class="st2" d="M185.67,2785.04c0-139.25,92.83-185.67,92.83-185.67,0,0-92.83-46.42-92.83-185.67"/>
    </g>
    <g>
      <path class="st2" d="M557.01,1671.02c0-139.25,92.83-185.67,92.83-185.67,0,0-92.83-46.42-92.83-185.67"/>
      <path class="st2" d="M557.01,2042.36c0-139.25-92.83-185.67-92.83-185.67,0,0,92.83-46.42,92.83-185.67"/>
      <path class="st2" d="M557.01,2413.7c0-139.25,92.83-185.67,92.83-185.67,0,0-92.83-46.42-92.83-185.67"/>
      <path class="st2" d="M557.01,2785.04c0-139.25-92.83-185.67-92.83-185.67,0,0,92.83-46.42,92.83-185.67"/>
    </g>
    <g>
      <path class="st2" d="M928.35,1671.02c0-139.25-92.83-185.67-92.83-185.67,0,0,92.83-46.42,92.83-185.67"/>
      <path class="st2" d="M928.35,2042.36c0-139.25,92.83-185.67,92.83-185.67,0,0-92.83-46.42-92.83-185.67"/>
      <path class="st2" d="M928.35,2413.7c0-139.25-92.83-185.67-92.83-185.67,0,0,92.83-46.42,92.83-185.67"/>
      <path class="st2" d="M928.35,2785.04c0-139.25,92.83-185.67,92.83-185.67,0,0-92.83-46.42-92.83-185.67"/>
    </g>
    <g>
      <path class="st2" d="M2042.36,1671.02c0-139.25,92.83-185.67,92.83-185.67,0,0-92.83-46.42-92.83-185.67"/>
      <path class="st2" d="M2042.36,2042.36c0-139.25-92.83-185.67-92.83-185.67,0,0,92.83-46.42,92.83-185.67"/>
      <path class="st2" d="M2042.36,2413.7c0-139.25,92.83-185.67,92.83-185.67,0,0-92.83-46.42-92.83-185.67"/>
      <path class="st2" d="M2042.36,2785.04c0-139.25-92.83-185.67-92.83-185.67,0,0,92.83-46.42,92.83-185.67"/>
    </g>
    <g>
      <path class="st2" d="M1671.02,1671.02c0-139.25-92.83-185.67-92.83-185.67,0,0,92.83-46.42,92.83-185.67"/>
      <path class="st2" d="M1671.02,2042.36c0-139.25,92.83-185.67,92.83-185.67,0,0-92.83-46.42-92.83-185.67"/>
      <path class="st2" d="M1671.02,2413.7c0-139.25-92.83-185.67-92.83-185.67,0,0,92.83-46.42,92.83-185.67"/>
      <path class="st2" d="M1671.02,2785.04c0-139.25,92.83-185.67,92.83-185.67,0,0-92.83-46.42-92.83-185.67"/>
    </g>
    <g>
      <path class="st2" d="M1299.68,1671.02c0-139.25,92.83-185.67,92.83-185.67,0,0-92.83-46.42-92.83-185.67"/>
      <path class="st2" d="M1299.68,2042.36c0-139.25-92.83-185.67-92.83-185.67,0,0,92.83-46.42,92.83-185.67"/>
      <path class="st2" d="M1299.68,2413.7c0-139.25,92.83-185.67,92.83-185.67,0,0-92.83-46.42-92.83-185.67"/>
      <path class="st2" d="M1299.68,2785.04c0-139.25-92.83-185.67-92.83-185.67,0,0,92.83-46.42,92.83-185.67"/>
    </g>
    <g>
      <path class="st2" d="M2413.7,1671.02c0-139.25-92.83-185.67-92.83-185.67,0,0,92.83-46.42,92.83-185.67"/>
      <path class="st2" d="M2413.7,2042.36c0-139.25,92.83-185.67,92.83-185.67,0,0-92.83-46.42-92.83-185.67"/>
      <path class="st2" d="M2413.7,2413.7c0-139.25-92.83-185.67-92.83-185.67,0,0,92.83-46.42,92.83-185.67"/>
      <path class="st2" d="M2413.7,2785.04c0-139.25,92.83-185.67,92.83-185.67,0,0-92.83-46.42-92.83-185.67"/>
    </g>
    <g>
      <path class="st2" d="M2785.04,1671.02c0-139.25,92.83-185.67,92.83-185.67,0,0-92.83-46.42-92.83-185.67"/>
      <path class="st2" d="M2785.04,2042.36c0-139.25-92.83-185.67-92.83-185.67,0,0,92.83-46.42,92.83-185.67"/>
      <path class="st2" d="M2785.04,2413.7c0-139.25,92.83-185.67,92.83-185.67,0,0-92.83-46.42-92.83-185.67"/>
      <path class="st2" d="M2785.04,2785.04c0-139.25-92.83-185.67-92.83-185.67,0,0,92.83-46.42,92.83-185.67"/>
    </g>
    <g>
      <path class="st2" d="M3156.38,1671.02c0-139.25-92.83-185.67-92.83-185.67,0,0,92.83-46.42,92.83-185.67"/>
      <path class="st2" d="M3156.38,2042.36c0-139.25,92.83-185.67,92.83-185.67,0,0-92.83-46.42-92.83-185.67"/>
      <path class="st2" d="M3156.38,2413.7c0-139.25-92.83-185.67-92.83-185.67,0,0,92.83-46.42,92.83-185.67"/>
      <path class="st2" d="M3156.38,2785.04c0-139.25,92.83-185.67,92.83-185.67,0,0-92.83-46.42-92.83-185.67"/>
    </g>
    <g>
      <path class="st2" d="M4270.39,1671.02c0-139.25,92.83-185.67,92.83-185.67,0,0-92.83-46.42-92.83-185.67"/>
      <path class="st2" d="M4270.39,2042.36c0-139.25-92.83-185.67-92.83-185.67,0,0,92.83-46.42,92.83-185.67"/>
      <path class="st2" d="M4270.39,2413.7c0-139.25,92.83-185.67,92.83-185.67,0,0-92.83-46.42-92.83-185.67"/>
      <path class="st2" d="M4270.39,2785.04c0-139.25-92.83-185.67-92.83-185.67,0,0,92.83-46.42,92.83-185.67"/>
    </g>
    <g>
      <path class="st2" d="M3899.05,1671.02c0-139.25-92.83-185.67-92.83-185.67,0,0,92.83-46.42,92.83-185.67"/>
      <path class="st2" d="M3899.05,2042.36c0-139.25,92.83-185.67,92.83-185.67,0,0-92.83-46.42-92.83-185.67"/>
      <path class="st2" d="M3899.05,2413.7c0-139.25-92.83-185.67-92.83-185.67,0,0,92.83-46.42,92.83-185.67"/>
      <path class="st2" d="M3899.05,2785.04c0-139.25,92.83-185.67,92.83-185.67,0,0-92.83-46.42-92.83-185.67"/>
    </g>
    <g>
      <path class="st2" d="M3527.71,1671.02c0-139.25,92.84-185.67,92.84-185.67,0,0-92.84-46.42-92.84-185.67"/>
      <path class="st2" d="M3527.71,2042.36c0-139.25-92.83-185.67-92.83-185.67,0,0,92.83-46.42,92.83-185.67"/>
      <path class="st2" d="M3527.71,2413.7c0-139.25,92.84-185.67,92.84-185.67,0,0-92.84-46.42-92.84-185.67"/>
      <path class="st2" d="M3527.71,2785.04c0-139.25-92.83-185.67-92.83-185.67,0,0,92.83-46.42,92.83-185.67"/>
    </g>
  </g>
  <g id="_x38_3_x5F_rein" class="st4">
    <g>
      <path class="st2" d="M185.67,185.67h0"/>
      <path class="st2" d="M185.67,185.67C46.42,185.67,0,92.83,0,92.83h0"/>
      <path class="st2" d="M557.01,185.67c-139.25,0-185.67,92.83-185.67,92.83,0,0-46.42-92.83-185.67-92.83"/>
      <path class="st2" d="M557.01,185.67c139.25,0,185.67-92.83,185.67-92.83,0,0,46.42,92.83,185.67,92.83"/>
      <line class="st2" x1="928.35" y1="185.67" x2="928.35" y2="185.67"/>
      <path class="st2" d="M928.35,185.67c139.25,0,185.67,92.83,185.67,92.83,0,0,46.42-92.83,185.67-92.83"/>
      <path class="st2" d="M1299.69,185.67c139.25,0,185.67-92.83,185.67-92.83,0,0,46.42,92.83,185.67,92.83"/>
      <path class="st2" d="M1671.02,185.67h0"/>
      <path class="st2" d="M2042.36,185.67c-139.25,0-185.67,92.83-185.67,92.83,0,0-46.42-92.83-185.67-92.83"/>
      <path class="st2" d="M185.67,557.01h0"/>
      <path class="st2" d="M185.67,557.01C46.42,557.01,0,649.84,0,649.84h0"/>
      <path class="st2" d="M557.01,557.01c-139.25,0-185.67-92.83-185.67-92.83,0,0-46.42,92.83-185.67,92.83"/>
      <path class="st2" d="M557.01,557.01h0"/>
      <line class="st2" x1="928.35" y1="557.01" x2="928.35" y2="557.01"/>
      <path class="st2" d="M557.01,557.01c139.25,0,185.67,92.84,185.67,92.84,0,0,46.42-92.83,185.67-92.84"/>
      <path class="st2" d="M1299.68,557.01c-139.25,0-185.67-92.83-185.67-92.83,0,0-46.42,92.83-185.67,92.83"/>
      <path class="st2" d="M1299.68,557.01h0"/>
      <path class="st2" d="M1671.02,557.01h0"/>
      <path class="st2" d="M1671.02,557.01c-139.25,0-185.67,92.84-185.67,92.84,0,0-46.42-92.84-185.67-92.84"/>
      <path class="st2" d="M2042.36,557.01h0"/>
      <path class="st2" d="M2042.36,557.01c-139.25,0-185.67-92.83-185.67-92.83,0,0-46.42,92.83-185.67,92.83"/>
      <path class="st2" d="M185.67,928.35h0"/>
      <path class="st2" d="M185.67,928.35C46.42,928.35,0,835.51,0,835.51h0"/>
      <path class="st2" d="M557.01,928.35c-139.25,0-185.67,92.83-185.67,92.83,0,0-46.42-92.83-185.67-92.83"/>
      <path class="st2" d="M557.01,928.35h0"/>
      <path class="st2" d="M928.35,928.35c-139.25,0-185.67-92.84-185.67-92.84,0,0-46.42,92.84-185.67,92.84"/>
      <line class="st2" x1="928.35" y1="928.35" x2="928.35" y2="928.35"/>
      <path class="st2" d="M1299.68,928.35c-139.25,0-185.67,92.83-185.67,92.83,0,0-46.42-92.83-185.67-92.83"/>
      <path class="st2" d="M1299.68,928.35h0"/>
      <path class="st2" d="M1671.02,928.35h0"/>
      <path class="st2" d="M1671.02,928.35c-139.25,0-185.67-92.84-185.67-92.84,0,0-46.42,92.84-185.67,92.84"/>
      <path class="st2" d="M2042.36,928.35c-139.25,0-185.67,92.83-185.67,92.83,0,0-46.42-92.83-185.67-92.83"/>
      <path class="st2" d="M2042.36,928.35h0"/>
      <path class="st2" d="M2413.7,185.67h0"/>
      <path class="st2" d="M2413.7,185.67c-139.25,0-185.67-92.83-185.67-92.83,0,0-46.42,92.83-185.67,92.83"/>
      <path class="st2" d="M2599.37,278.5s-46.42-92.83-185.67-92.83"/>
      <path class="st2" d="M2413.7,557.01h0"/>
      <path class="st2" d="M2413.7,557.01c-139.25,0-185.67,92.84-185.67,92.84,0,0-46.42-92.84-185.67-92.84"/>
      <path class="st2" d="M2599.37,464.17s-46.42,92.83-185.67,92.83"/>
      <path class="st2" d="M2413.7,928.35h0"/>
      <path class="st2" d="M2413.7,928.35c-139.25,0-185.67-92.84-185.67-92.84,0,0-46.42,92.84-185.67,92.84"/>
      <path class="st2" d="M2599.37,1021.18s-46.42-92.83-185.67-92.83"/>
      <line class="st2" x1="185.67" y1="185.67" x2="185.67" y2="185.67"/>
      <path class="st2" d="M92.84,0s92.83,46.45,92.83,185.67"/>
      <line class="st2" x1="185.67" y1="557.01" x2="185.67" y2="557.01"/>
      <path class="st2" d="M185.67,557.01c0-139.25,92.83-185.67,92.83-185.67,0,0-92.83-46.42-92.83-185.67"/>
      <path class="st2" d="M185.67,928.35c0-139.25-92.83-185.67-92.83-185.67,0,0,92.83-46.42,92.83-185.67"/>
      <line class="st2" x1="185.67" y1="928.35" x2="185.67" y2="928.35"/>
      <path class="st2" d="M278.5,1114.02s-92.83-46.42-92.83-185.67"/>
      <path class="st2" d="M557.01,185.67C557.01,46.45,649.8.02,649.84,0"/>
      <path class="st2" d="M557.01,185.67c0,139.25-92.83,185.67-92.83,185.67,0,0,92.83,46.42,92.83,185.67"/>
      <line class="st2" x1="557.01" y1="557.01" x2="557.01" y2="557.01"/>
      <path class="st2" d="M557.01,928.35c0-139.25,92.83-185.67,92.83-185.67,0,0-92.83-46.42-92.83-185.67"/>
      <path class="st2" d="M557.01,928.35c0,139.25-92.83,185.67-92.83,185.67"/>
      <line class="st2" x1="557.01" y1="928.35" x2="557.01" y2="928.35"/>
      <path class="st2" d="M835.51,0s92.83,46.45,92.83,185.67"/>
      <line class="st2" x1="928.35" y1="185.67" x2="928.35" y2="185.67"/>
      <line class="st2" x1="928.35" y1="557.01" x2="928.35" y2="557.01"/>
      <path class="st2" d="M928.35,557.01c0-139.25,92.83-185.67,92.83-185.67,0,0-92.83-46.42-92.83-185.67"/>
      <path class="st2" d="M928.35,557.01c0,139.25-92.83,185.67-92.83,185.67,0,0,92.83,46.42,92.83,185.67"/>
      <line class="st2" x1="928.35" y1="928.35" x2="928.35" y2="928.35"/>
      <path class="st2" d="M928.35,928.35c0,139.25,92.83,185.67,92.83,185.67"/>
      <path class="st2" d="M2042.36,185.67C2042.36,46.45,2135.15.02,2135.19,0"/>
      <path class="st2" d="M2042.36,557.01c0-139.25-92.83-185.67-92.83-185.67,0,0,92.83-46.42,92.83-185.67"/>
      <line class="st2" x1="2042.36" y1="557.01" x2="2042.36" y2="557.01"/>
      <path class="st2" d="M2042.36,928.35c0-139.25,92.83-185.67,92.83-185.67,0,0-92.83-46.42-92.83-185.67"/>
      <path class="st2" d="M2042.36,928.35c0,139.25-92.83,185.67-92.83,185.67"/>
      <line class="st2" x1="2042.36" y1="928.35" x2="2042.36" y2="928.35"/>
      <line class="st2" x1="1671.02" y1="185.67" x2="1671.02" y2="185.67"/>
      <path class="st2" d="M1578.19,0s92.83,46.45,92.83,185.67"/>
      <path class="st2" d="M1671.02,557.01c0-139.25,92.83-185.67,92.83-185.67,0,0-92.83-46.42-92.83-185.67"/>
      <line class="st2" x1="1671.02" y1="557.01" x2="1671.02" y2="557.01"/>
      <path class="st2" d="M1671.02,557.01c0,139.25-92.83,185.67-92.83,185.67,0,0,92.83,46.42,92.83,185.67"/>
      <line class="st2" x1="1671.02" y1="928.35" x2="1671.02" y2="928.35"/>
      <path class="st2" d="M1671.02,928.35c0,139.25,92.83,185.67,92.83,185.67"/>
      <path class="st2" d="M1392.52,0s-92.83,46.45-92.83,185.67"/>
      <path class="st2" d="M1299.68,185.67c0,139.25-92.83,185.67-92.83,185.67,0,0,92.83,46.42,92.83,185.67"/>
      <line class="st2" x1="1299.68" y1="557.01" x2="1299.68" y2="557.01"/>
      <path class="st2" d="M1299.68,928.35c0-139.25,92.83-185.67,92.83-185.67,0,0-92.83-46.42-92.83-185.67"/>
      <line class="st2" x1="1299.68" y1="928.35" x2="1299.68" y2="928.35"/>
      <path class="st2" d="M1299.68,928.35c0,139.25-92.83,185.67-92.83,185.67"/>
      <line class="st2" x1="2413.7" y1="185.67" x2="2413.7" y2="185.67"/>
      <path class="st2" d="M2320.86,0s92.83,46.45,92.83,185.67"/>
      <path class="st2" d="M2413.7,557.01c0-139.25,92.83-185.67,92.83-185.67,0,0-92.83-46.42-92.83-185.67"/>
      <line class="st2" x1="2413.7" y1="557.01" x2="2413.7" y2="557.01"/>
      <path class="st2" d="M2413.7,928.35c0-139.25-92.83-185.67-92.83-185.67,0,0,92.83-46.42,92.83-185.67"/>
      <path class="st2" d="M2506.53,1114.02s-92.83-46.42-92.83-185.67"/>
      <line class="st2" x1="2413.7" y1="928.35" x2="2413.7" y2="928.35"/>
      <line class="st1" x1="1763.86" y1="1114.02" x2="1949.52" y2="1114.02"/>
      <line class="st1" x1="2135.19" y1="0" x2="1578.19" y2="0"/>
      <line class="st1" x1="1392.52" y1="0" x2="835.51" y2="0"/>
      <line class="st1" y1="649.84" y2="835.52"/>
      <polyline class="st1" points="92.84 0 0 0 0 92.84"/>
      <line class="st1" x1="835.51" y1="0" x2="649.84" y2="0"/>
      <line class="st1" y1="92.84" y2="649.84"/>
      <line class="st1" x1="649.84" y1="0" x2="92.84" y2="0"/>
      <line class="st1" x1="1206.85" y1="1114.02" x2="1021.18" y2="1114.02"/>
      <line class="st1" x1="2506.53" y1="1114.02" x2="1949.52" y2="1114.02"/>
      <line class="st1" x1="1392.52" y1="0" x2="1578.19" y2="0"/>
      <polyline class="st1" points="2599.37 1021.18 2599.37 1114.02 2506.53 1114.02"/>
      <line class="st1" x1="2599.37" y1="464.17" x2="2599.37" y2="278.5"/>
      <line class="st1" x1="2599.37" y1="1021.18" x2="2599.37" y2="464.17"/>
      <polyline class="st1" points="278.5 1114.02 0 1114.02 0 835.52"/>
      <line class="st1" x1="278.5" y1="1114.02" x2="464.17" y2="1114.02"/>
      <line class="st1" x1="1206.85" y1="1114.02" x2="1763.86" y2="1114.02"/>
      <line class="st1" x1="1021.18" y1="1114.02" x2="464.17" y2="1114.02"/>
      <polyline class="st1" points="2599.37 278.5 2599.37 0 2320.86 0"/>
      <line class="st1" x1="2320.86" y1="0" x2="2135.19" y2="0"/>
    </g>
  </g>
  <g id="_x38_0" class="st4">
    <g>
      <path class="st2" d="M185.67,185.67c139.25,0,185.67-92.83,185.67-92.83,0,0,46.42,92.83,185.67,92.83"/>
      <path class="st2" d="M557.01,185.67c139.25,0,185.67,92.83,185.67,92.83,0,0,46.42-92.83,185.67-92.83"/>
      <path class="st2" d="M928.35,185.67c139.25,0,185.67-92.83,185.67-92.83,0,0,46.42,92.83,185.67,92.83"/>
      <path class="st2" d="M1299.69,185.67c139.25,0,185.67,92.83,185.67,92.83,0,0,46.42-92.83,185.67-92.83"/>
      <path class="st2" d="M1671.02,185.67c139.25,0,185.67-92.83,185.67-92.83,0,0,46.42,92.83,185.67,92.83"/>
      <path class="st2" d="M2042.36,185.67c139.25,0,185.67,92.83,185.67,92.83,0,0,46.42-92.83,185.67-92.83"/>
      <path class="st2" d="M-185.67,185.67C-46.42,185.67,0,278.5,0,278.5c0,0,46.42-92.83,185.67-92.83"/>
    </g>
    <g>
      <path class="st2" d="M185.67,928.35c139.25,0,185.67-92.84,185.67-92.84,0,0,46.42,92.84,185.67,92.84"/>
      <path class="st2" d="M557.01,928.35c139.25,0,185.67,92.83,185.67,92.83,0,0,46.42-92.83,185.67-92.83"/>
      <path class="st2" d="M928.35,928.35c139.25,0,185.67-92.84,185.67-92.84,0,0,46.42,92.84,185.67,92.84"/>
      <path class="st2" d="M1299.69,928.35c139.25,0,185.67,92.83,185.67,92.83,0,0,46.42-92.83,185.67-92.83"/>
      <path class="st2" d="M1671.02,928.35c139.25,0,185.67-92.84,185.67-92.84,0,0,46.42,92.84,185.67,92.84"/>
      <path class="st2" d="M2042.36,928.35c139.25,0,185.67,92.83,185.67,92.83,0,0,46.42-92.83,185.67-92.83"/>
      <path class="st2" d="M-185.67,928.35C-46.42,928.35,0,1021.18,0,1021.18c0,0,46.42-92.83,185.67-92.83"/>
    </g>
    <g>
      <path class="st2" d="M185.67,1671.02c139.25,0,185.67-92.83,185.67-92.83,0,0,46.42,92.83,185.67,92.83"/>
      <path class="st2" d="M557.01,1671.02c139.25,0,185.67,92.83,185.67,92.83,0,0,46.42-92.83,185.67-92.83"/>
      <path class="st2" d="M928.35,1671.02c139.25,0,185.67-92.83,185.67-92.83,0,0,46.42,92.83,185.67,92.83"/>
      <path class="st2" d="M1299.69,1671.02c139.25,0,185.67,92.83,185.67,92.83,0,0,46.42-92.83,185.67-92.83"/>
      <path class="st2" d="M1671.02,1671.02c139.25,0,185.67-92.83,185.67-92.83,0,0,46.42,92.83,185.67,92.83"/>
      <path class="st2" d="M2042.36,1671.02c139.25,0,185.67,92.83,185.67,92.83,0,0,46.42-92.83,185.67-92.83"/>
      <path class="st2" d="M-185.67,1671.02c139.25,0,185.67,92.83,185.67,92.83,0,0,46.42-92.83,185.67-92.83"/>
    </g>
    <g>
      <path class="st2" d="M2413.7,185.67c139.25,0,185.67-92.83,185.67-92.83,0,0,46.42,92.83,185.67,92.83"/>
      <path class="st2" d="M2785.04,185.67c139.25,0,185.67,92.83,185.67,92.83,0,0,46.42-92.83,185.67-92.83"/>
      <path class="st2" d="M3156.38,185.67c139.25,0,185.67-92.83,185.67-92.83,0,0,46.42,92.83,185.67,92.83"/>
      <path class="st2" d="M3527.72,185.67c139.25,0,185.67,92.83,185.67,92.83,0,0,46.42-92.83,185.67-92.83"/>
      <path class="st2" d="M3899.06,185.67c139.25,0,185.67-92.83,185.67-92.83,0,0,46.42,92.83,185.67,92.83"/>
      <path class="st2" d="M4270.4,185.67c139.25,0,185.67,92.83,185.67,92.83,0,0,46.42-92.83,185.67-92.83"/>
      <path class="st2" d="M2413.7,185.67"/>
    </g>
    <g>
      <path class="st2" d="M2413.7,928.35c139.25,0,185.67-92.84,185.67-92.84,0,0,46.42,92.84,185.67,92.84"/>
      <path class="st2" d="M2785.04,928.35c139.25,0,185.67,92.83,185.67,92.83,0,0,46.42-92.83,185.67-92.83"/>
      <path class="st2" d="M3156.38,928.35c139.25,0,185.67-92.84,185.67-92.84,0,0,46.42,92.84,185.67,92.84"/>
      <path class="st2" d="M3527.72,928.35c139.25,0,185.67,92.83,185.67,92.83,0,0,46.42-92.83,185.67-92.83"/>
      <path class="st2" d="M3899.06,928.35c139.25,0,185.67-92.84,185.67-92.84,0,0,46.42,92.84,185.67,92.84"/>
      <path class="st2" d="M4270.4,928.35c139.25,0,185.67,92.83,185.67,92.83,0,0,46.42-92.83,185.67-92.83"/>
      <path class="st2" d="M2413.7,928.35"/>
    </g>
    <g>
      <path class="st2" d="M2413.7,1671.02c139.25,0,185.67-92.83,185.67-92.83,0,0,46.42,92.83,185.67,92.83"/>
      <path class="st2" d="M2785.04,1671.02c139.25,0,185.67,92.83,185.67,92.83,0,0,46.42-92.83,185.67-92.83"/>
      <path class="st2" d="M3156.38,1671.02c139.25,0,185.67-92.83,185.67-92.83,0,0,46.42,92.83,185.67,92.83"/>
      <path class="st2" d="M3527.72,1671.02c139.25,0,185.67,92.83,185.67,92.83,0,0,46.42-92.83,185.67-92.83"/>
      <path class="st2" d="M3899.06,1671.02c139.25,0,185.67-92.83,185.67-92.83,0,0,46.42,92.83,185.67,92.83"/>
      <path class="st2" d="M4270.4,1671.02c139.25,0,185.67,92.83,185.67,92.83,0,0,46.42-92.83,185.67-92.83"/>
      <path class="st2" d="M2413.7,1671.02"/>
    </g>
    <g>
      <path class="st2" d="M185.67,557.01c0-139.25,92.83-185.67,92.83-185.67,0,0-92.83-46.42-92.83-185.67"/>
      <path class="st2" d="M185.67,928.35c0-139.25-92.83-185.67-92.83-185.67,0,0,92.83-46.42,92.83-185.67"/>
      <path class="st2" d="M185.67,1299.69c0-139.25,92.83-185.67,92.83-185.67,0,0-92.83-46.42-92.83-185.67"/>
      <path class="st2" d="M185.67,1671.02c0-139.25-92.83-185.67-92.83-185.67,0,0,92.83-46.42,92.83-185.67"/>
      <path class="st2" d="M185.67,185.67C185.67,46.42,92.83,0,92.83,0c0,0,92.83-46.42,92.83-185.67"/>
    </g>
    <g>
      <path class="st2" d="M928.34,557.01c0-139.25,92.83-185.67,92.83-185.67,0,0-92.83-46.42-92.83-185.67"/>
      <path class="st2" d="M928.34,928.35c0-139.25-92.83-185.67-92.83-185.67,0,0,92.83-46.42,92.83-185.67"/>
      <path class="st2" d="M928.34,1299.69c0-139.25,92.83-185.67,92.83-185.67,0,0-92.83-46.42-92.83-185.67"/>
      <path class="st2" d="M928.34,1671.02c0-139.25-92.83-185.67-92.83-185.67,0,0,92.83-46.42,92.83-185.67"/>
      <path class="st2" d="M928.34,185.67C928.34,46.42,835.51,0,835.51,0c0,0,92.83-46.42,92.83-185.67"/>
    </g>
    <g>
      <path class="st2" d="M1671.02,557.01c0-139.25,92.84-185.67,92.84-185.67,0,0-92.84-46.42-92.84-185.67"/>
      <path class="st2" d="M1671.02,928.35c0-139.25-92.83-185.67-92.83-185.67,0,0,92.83-46.42,92.83-185.67"/>
      <path class="st2" d="M1671.02,1299.69c0-139.25,92.84-185.67,92.84-185.67,0,0-92.84-46.42-92.84-185.67"/>
      <path class="st2" d="M1671.02,1671.02c0-139.25-92.83-185.67-92.83-185.67,0,0,92.83-46.42,92.83-185.67"/>
      <path class="st2" d="M1671.02,185.67c0-139.25-92.83-185.67-92.83-185.67,0,0,92.83-46.42,92.83-185.67"/>
    </g>
    <g>
      <path class="st2" d="M2413.7,557.01c0-139.25,92.83-185.67,92.83-185.67,0,0-92.83-46.42-92.83-185.67"/>
      <path class="st2" d="M2413.7,928.35c0-139.25-92.83-185.67-92.83-185.67,0,0,92.83-46.42,92.83-185.67"/>
      <path class="st2" d="M2413.7,1299.69c0-139.25,92.83-185.67,92.83-185.67,0,0-92.83-46.42-92.83-185.67"/>
      <path class="st2" d="M2413.7,1671.02c0-139.25-92.83-185.67-92.83-185.67,0,0,92.83-46.42,92.83-185.67"/>
      <path class="st2" d="M2413.7,185.67c0-139.25-92.83-185.67-92.83-185.67,0,0,92.83-46.42,92.83-185.67"/>
    </g>
    <g>
      <path class="st2" d="M3156.38,557.01c0-139.25,92.83-185.67,92.83-185.67,0,0-92.83-46.42-92.83-185.67"/>
      <path class="st2" d="M3156.38,928.35c0-139.25-92.84-185.67-92.84-185.67,0,0,92.84-46.42,92.84-185.67"/>
      <path class="st2" d="M3156.38,1299.69c0-139.25,92.83-185.67,92.83-185.67,0,0-92.83-46.42-92.83-185.67"/>
      <path class="st2" d="M3156.38,1671.02c0-139.25-92.84-185.67-92.84-185.67,0,0,92.84-46.42,92.84-185.67"/>
      <path class="st2" d="M3156.38,185.67c0-139.25-92.84-185.67-92.84-185.67,0,0,92.84-46.42,92.84-185.67"/>
    </g>
    <g>
      <path class="st2" d="M3899.05,557.01c0-139.25,92.83-185.67,92.83-185.67,0,0-92.83-46.42-92.83-185.67"/>
      <path class="st2" d="M3899.05,928.35c0-139.25-92.83-185.67-92.83-185.67,0,0,92.83-46.42,92.83-185.67"/>
      <path class="st2" d="M3899.05,1299.69c0-139.25,92.83-185.67,92.83-185.67,0,0-92.83-46.42-92.83-185.67"/>
      <path class="st2" d="M3899.05,1671.02c0-139.25-92.83-185.67-92.83-185.67,0,0,92.83-46.42,92.83-185.67"/>
      <path class="st2" d="M3899.05,185.67c0-139.25-92.83-185.67-92.83-185.67,0,0,92.83-46.42,92.83-185.67"/>
    </g>
  </g>
  <g id="_x38_0_x5F_rein">
    <g>
      <path class="st2" d="M185.67,185.67c139.25,0,185.67-92.83,185.67-92.83,0,0,46.42,92.83,185.67,92.83"/>
      <line class="st2" x1="928.34" y1="185.67" x2="928.35" y2="185.67"/>
      <path class="st2" d="M557.01,185.67c139.25,0,185.67,92.83,185.67,92.83,0,0,46.42-92.83,185.67-92.83"/>
      <path class="st2" d="M1299.68,185.67c-139.25,0-185.67-92.83-185.67-92.83,0,0-46.42,92.83-185.67,92.83"/>
      <path class="st2" d="M1671.02,185.67h0"/>
      <path class="st2" d="M1299.69,185.67c139.25,0,185.67,92.83,185.67,92.83,0,0,46.42-92.83,185.67-92.83"/>
      <path class="st2" d="M2042.36,185.67c-139.25,0-185.67-92.83-185.67-92.83,0,0-46.42,92.83-185.67,92.83"/>
      <path class="st2" d="M2413.7,185.67c-139.25,0-185.67,92.83-185.67,92.83,0,0-46.42-92.83-185.67-92.83"/>
      <path class="st2" d="M185.67,185.67h0"/>
      <path class="st2" d="M185.67,185.67c-139.25,0-185.67,92.83-185.67,92.83"/>
      <path class="st2" d="M185.67,928.35c139.25,0,185.67-92.84,185.67-92.84,0,0,46.42,92.84,185.67,92.84"/>
      <line class="st2" x1="928.34" y1="928.35" x2="928.35" y2="928.35"/>
      <path class="st2" d="M928.34,928.35c-139.25,0-185.67,92.83-185.67,92.83,0,0-46.42-92.83-185.67-92.83"/>
      <path class="st2" d="M1299.68,928.35c-139.25,0-185.67-92.84-185.67-92.84,0,0-46.42,92.84-185.67,92.84"/>
      <path class="st2" d="M1671.02,928.35c-139.25,0-185.67,92.83-185.67,92.83,0,0-46.42-92.83-185.67-92.83"/>
      <path class="st2" d="M1671.02,928.35h0"/>
      <path class="st2" d="M2042.36,928.35c-139.25,0-185.67-92.84-185.67-92.84,0,0-46.42,92.84-185.67,92.84"/>
      <path class="st2" d="M2413.7,928.35c-139.25,0-185.67,92.83-185.67,92.83,0,0-46.42-92.83-185.67-92.83"/>
      <path class="st2" d="M185.67,928.35h0"/>
      <path class="st2" d="M185.67,928.35c-139.25,0-185.67,92.83-185.67,92.83"/>
      <path class="st2" d="M2413.7,185.67c139.13,0,185.58-92.67,185.67-92.83"/>
      <path class="st2" d="M2413.7,928.35c139.13,0,185.58-92.67,185.67-92.83"/>
      <path class="st2" d="M185.67,185.67c0,139.25,92.83,185.67,92.83,185.67,0,0-92.83,46.42-92.83,185.67"/>
      <line class="st2" x1="185.67" y1="185.67" x2="185.67" y2="185.67"/>
      <path class="st2" d="M185.67,557.01c0,139.25-92.83,185.67-92.83,185.67,0,0,92.83,46.42,92.83,185.67"/>
      <path class="st2" d="M185.67,928.35c0,139.25,92.83,185.67,92.83,185.67h0"/>
      <path class="st2" d="M185.67,928.35h0"/>
      <path class="st2" d="M92.83,0s92.83,46.45,92.83,185.67"/>
      <path class="st2" d="M928.34,557.01c0-139.25,92.83-185.67,92.83-185.67,0,0-92.83-46.42-92.83-185.67"/>
      <line class="st2" x1="928.34" y1="185.67" x2="928.34" y2="185.67"/>
      <path class="st2" d="M928.34,557.01c0,139.25-92.83,185.67-92.83,185.67,0,0,92.83,46.42,92.83,185.67"/>
      <path class="st2" d="M1021.18,1114.02h0s-92.83-46.42-92.83-185.67"/>
      <path class="st2" d="M928.34,928.35h0"/>
      <path class="st2" d="M835.51,0s92.83,46.45,92.83,185.67"/>
      <path class="st2" d="M1671.02,557.01c0-139.25,92.84-185.67,92.84-185.67,0,0-92.84-46.42-92.84-185.67"/>
      <line class="st2" x1="1671.02" y1="185.67" x2="1671.02" y2="185.67"/>
      <path class="st2" d="M1671.02,928.35c0-139.25-92.83-185.67-92.83-185.67,0,0,92.83-46.42,92.83-185.67"/>
      <path class="st2" d="M1671.02,928.35h0"/>
      <path class="st2" d="M1763.85,1114.02h0s-92.83-46.42-92.84-185.67"/>
      <path class="st2" d="M1671.02,185.67C1671.02,46.45,1578.23.02,1578.19,0"/>
      <path class="st2" d="M2413.7,557.01c0-139.25,92.83-185.67,92.83-185.67,0,0-92.83-46.42-92.83-185.67"/>
      <path class="st2" d="M2413.7,557.01c0,139.25-92.83,185.67-92.83,185.67,0,0,92.83,46.42,92.83,185.67"/>
      <path class="st2" d="M2506.53,1114.02h0s-92.83-46.42-92.83-185.67"/>
      <path class="st2" d="M2320.87,0s92.83,46.45,92.83,185.67"/>
      <line class="st1" y1="278.5" y2="1021.18"/>
      <line class="st1" x1="1763.85" y1="1114.02" x2="1021.18" y2="1114.02"/>
      <line class="st1" x1="835.51" y1="0" x2="1578.19" y2="0"/>
      <line class="st1" x1="278.5" y1="1114.02" x2="1021.18" y2="1114.02"/>
      <polyline class="st1" points="0 1021.18 0 1114.02 278.5 1114.02"/>
      <line class="st1" x1="92.83" y1="0" x2="835.51" y2="0"/>
      <line class="st1" x1="2320.87" y1="0" x2="1578.19" y2="0"/>
      <polyline class="st1" points="2599.37 92.84 2599.37 0 2320.87 0"/>
      <line class="st1" x1="1763.85" y1="1114.02" x2="2506.53" y2="1114.02"/>
      <polyline class="st1" points="92.83 0 0 0 0 278.5"/>
      <line class="st1" x1="2599.37" y1="835.52" x2="2599.37" y2="92.84"/>
      <polyline class="st1" points="2599.37 835.52 2599.37 1114.02 2506.53 1114.02"/>
    </g>
  </g>
  <g id="Rahmen" class="st4">
    <rect class="st1" y="0" width="2599.37" height="1114.02"/>
  </g>
  <g id="_x34_._Quadrat" class="st4">
    <circle class="st3" cx="371.34" cy="278.5" r="21.26"/>
    <circle class="st3" cx="557.01" cy="278.5" r="21.26"/>
    <circle class="st3" cx="371.34" cy="464.17" r="21.26" transform="translate(-219.46 398.53) rotate(-45)"/>
    <circle class="st3" cx="557.01" cy="464.17" r="21.26" transform="translate(-157.69 342) rotate(-30.1)"/>
    <circle class="st3" cx="742.68" cy="278.5" r="21.26"/>
    <circle class="st3" cx="742.68" cy="464.17" r="21.26" transform="translate(109.05 1068.78) rotate(-75.66)"/>
    <circle class="st3" cx="371.34" cy="649.84" r="21.26" transform="translate(-346.89 860.39) rotate(-76.59)"/>
    <circle class="st3" cx="557.01" cy="649.84" r="21.26" transform="translate(-184.37 1077.53) rotate(-79.38)"/>
    <circle class="st3" cx="742.68" cy="649.84" r="21.26" transform="translate(-232.87 798.77) rotate(-49.87)"/>
    <circle class="st3" cx="928.35" cy="278.5" r="21.26"/>
    <circle class="st3" cx="928.35" cy="464.17" r="21.26" transform="translate(-56.31 792.39) rotate(-45)"/>
    <circle class="st3" cx="928.35" cy="649.84" r="21.26" transform="translate(80.96 1402.22) rotate(-76.59)"/>
    <circle class="st3" cx="371.34" cy="835.51" r="21.26" transform="translate(-482.03 507.29) rotate(-45)"/>
    <circle class="st3" cx="1114.01" cy="278.5" r="21.26"/>
    <circle class="st3" cx="371.34" cy="1021.17" r="21.26"/>
    <circle class="st3" cx="557.01" cy="1021.17" r="21.26"/>
    <circle class="st3" cx="742.68" cy="1021.17" r="21.26"/>
    <circle class="st3" cx="928.35" cy="1021.17" r="21.26"/>
    <circle class="st3" cx="1114.01" cy="1021.17" r="21.26"/>
    <circle class="st3" cx="1114.01" cy="464.17" r="21.26" transform="translate(-1.93 923.68) rotate(-45)"/>
    <circle class="st3" cx="1114.01" cy="649.84" r="21.26" transform="translate(225.6 1584.75) rotate(-76.72)"/>
    <circle class="st3" cx="1114.01" cy="835.51" r="21.26" transform="translate(-264.51 1032.44) rotate(-45)"/>
    <circle class="st3" cx="557.01" cy="835.51" r="21.26" transform="translate(-343.94 392.08) rotate(-30.1)"/>
    <circle class="st3" cx="742.68" cy="835.51" r="21.26" transform="translate(-250.72 1348.16) rotate(-75.66)"/>
    <circle class="st3" cx="928.35" cy="835.51" r="21.26" transform="translate(-318.89 901.16) rotate(-45)"/>
  </g>
  <g id="_x28_50_x25__x29_">
    <rect class="st0" width="4270.39" height="2970.71"/>
  </g>
</svg>