<?xml version="1.0" encoding="UTF-8"?>
<svg id="Ebene_2" xmlns="http://www.w3.org/2000/svg" version="1.1" viewBox="0 0 311.81 146.59">
  <!-- Generator: Adobe Illustrator 29.1.0, SVG Export Plug-In . SVG Version: 2.1.0 Build 142)  -->
  <defs>
    <style>
      .st0 {
        stroke-miterlimit: 10;
      }

      .st0, .st1 {
        fill: none;
        stroke: #1e1e1c;
        stroke-width: 1.2px;
      }

      .st2 {
        fill: #1e1e1c;
        font-family: Helvetica, Helvetica;
        font-size: 8px;
      }

      .st2, .st3 {
        isolation: isolate;
      }

      .st1 {
        stroke-linecap: round;
        stroke-linejoin: round;
      }
    </style>
  </defs>
  <g class="st3">
    <text class="st2" transform="translate(130.2 138.13)"><tspan x="0" y="0">80</tspan></text>
  </g>
  <g id="_x38_0_x5F_rein">
    <g>
      <path class="st1" d="M31.38,31.38c12.91,0,17.21-8.6,17.21-8.6,0,0,4.3,8.6,17.21,8.6"/>
      <line class="st1" x1="100.22" y1="31.38" x2="100.23" y2="31.38"/>
      <path class="st1" d="M65.8,31.38c12.91,0,17.21,8.6,17.21,8.6,0,0,4.3-8.6,17.21-8.6"/>
      <path class="st1" d="M134.65,31.38c-12.91,0-17.21-8.6-17.21-8.6,0,0-4.3,8.6-17.21,8.6"/>
      <path class="st1" d="M169.07,31.38h0"/>
      <path class="st1" d="M134.65,31.38c12.91,0,17.21,8.6,17.21,8.6,0,0,4.3-8.6,17.21-8.6"/>
      <path class="st1" d="M203.49,31.38c-12.91,0-17.21-8.6-17.21-8.6,0,0-4.3,8.6-17.21,8.6"/>
      <path class="st1" d="M237.91,31.38c-12.91,0-17.21,8.6-17.21,8.6,0,0-4.3-8.6-17.21-8.6"/>
      <path class="st1" d="M31.38,31.38h0"/>
      <path class="st1" d="M31.38,31.38c-12.91,0-17.21,8.6-17.21,8.6"/>
      <path class="st1" d="M31.38,100.23c12.91,0,17.21-8.61,17.21-8.61,0,0,4.3,8.61,17.21,8.61"/>
      <line class="st1" x1="100.22" y1="100.23" x2="100.23" y2="100.23"/>
      <path class="st1" d="M100.22,100.23c-12.91,0-17.21,8.6-17.21,8.6,0,0-4.3-8.6-17.21-8.6"/>
      <path class="st1" d="M134.65,100.23c-12.91,0-17.21-8.61-17.21-8.61,0,0-4.3,8.61-17.21,8.61"/>
      <path class="st1" d="M169.07,100.23c-12.91,0-17.21,8.6-17.21,8.6,0,0-4.3-8.6-17.21-8.6"/>
      <path class="st1" d="M169.07,100.23h0"/>
      <path class="st1" d="M203.49,100.23c-12.91,0-17.21-8.61-17.21-8.61,0,0-4.3,8.61-17.21,8.61"/>
      <path class="st1" d="M237.91,100.23c-12.91,0-17.21,8.6-17.21,8.6,0,0-4.3-8.6-17.21-8.6"/>
      <path class="st1" d="M31.38,100.23h0"/>
      <path class="st1" d="M31.38,100.23c-12.91,0-17.21,8.6-17.21,8.6"/>
      <path class="st1" d="M237.91,31.38c12.9,0,17.2-8.59,17.21-8.6"/>
      <path class="st1" d="M237.91,100.23c12.9,0,17.2-8.59,17.21-8.6"/>
      <path class="st1" d="M31.38,31.38c0,12.91,8.6,17.21,8.6,17.21,0,0-8.6,4.3-8.6,17.21"/>
      <line class="st1" x1="31.38" y1="31.38" x2="31.38" y2="31.38"/>
      <path class="st1" d="M31.38,65.8c0,12.91-8.6,17.21-8.6,17.21,0,0,8.6,4.3,8.6,17.21"/>
      <path class="st1" d="M31.38,100.23c0,12.91,8.6,17.21,8.6,17.21h0"/>
      <path class="st1" d="M31.38,100.23h0"/>
      <path class="st1" d="M22.78,14.17s8.6,4.31,8.6,17.21"/>
      <path class="st1" d="M100.22,65.8c0-12.91,8.6-17.21,8.6-17.21,0,0-8.6-4.3-8.6-17.21"/>
      <line class="st1" x1="100.22" y1="31.38" x2="100.22" y2="31.38"/>
      <path class="st1" d="M100.22,65.8c0,12.91-8.6,17.21-8.6,17.21,0,0,8.6,4.3,8.6,17.21"/>
      <path class="st1" d="M108.83,117.44h0s-8.6-4.3-8.6-17.21"/>
      <path class="st1" d="M100.22,100.23h0"/>
      <path class="st1" d="M91.62,14.17s8.6,4.31,8.6,17.21"/>
      <path class="st1" d="M169.07,65.8c0-12.91,8.61-17.21,8.61-17.21,0,0-8.61-4.3-8.61-17.21"/>
      <line class="st1" x1="169.07" y1="31.38" x2="169.07" y2="31.38"/>
      <path class="st1" d="M169.07,100.23c0-12.91-8.6-17.21-8.6-17.21,0,0,8.6-4.3,8.6-17.21"/>
      <path class="st1" d="M169.07,100.23h0"/>
      <path class="st1" d="M177.67,117.44h0s-8.6-4.3-8.61-17.21"/>
      <path class="st1" d="M169.07,31.38c0-12.9-8.6-17.21-8.6-17.21"/>
      <path class="st1" d="M237.91,65.8c0-12.91,8.6-17.21,8.6-17.21,0,0-8.6-4.3-8.6-17.21"/>
      <path class="st1" d="M237.91,65.8c0,12.91-8.6,17.21-8.6,17.21,0,0,8.6,4.3,8.6,17.21"/>
      <path class="st1" d="M246.51,117.44h0s-8.6-4.3-8.6-17.21"/>
      <path class="st1" d="M229.3,14.17s8.6,4.31,8.6,17.21"/>
      <line class="st0" x1="14.17" y1="39.99" x2="14.17" y2="108.83"/>
      <line class="st0" x1="177.67" y1="117.44" x2="108.83" y2="117.44"/>
      <line class="st0" x1="91.62" y1="14.17" x2="160.46" y2="14.17"/>
      <line class="st0" x1="39.99" y1="117.44" x2="108.83" y2="117.44"/>
      <polyline class="st0" points="14.17 108.83 14.17 117.44 39.99 117.44"/>
      <line class="st0" x1="22.78" y1="14.17" x2="91.62" y2="14.17"/>
      <line class="st0" x1="229.3" y1="14.17" x2="160.46" y2="14.17"/>
      <polyline class="st0" points="255.12 22.78 255.12 14.17 229.3 14.17"/>
      <line class="st0" x1="177.67" y1="117.44" x2="246.51" y2="117.44"/>
      <polyline class="st0" points="22.78 14.17 14.17 14.17 14.17 39.99"/>
      <line class="st0" x1="255.12" y1="91.62" x2="255.12" y2="22.78"/>
      <polyline class="st0" points="255.12 91.62 255.12 117.44 246.51 117.44"/>
    </g>
  </g>
</svg>