<?xml version="1.0" encoding="UTF-8"?>
<svg id="Ebene_2" xmlns="http://www.w3.org/2000/svg" version="1.1" viewBox="0 0 311.81 146.14">
  <!-- Generator: Adobe Illustrator 29.1.0, SVG Export Plug-In . SVG Version: 2.1.0 Build 142)  -->
  <defs>
    <style>
      .st0 {
        stroke-miterlimit: 10;
      }

      .st0, .st1 {
        fill: none;
        stroke: #1d1d1b;
        stroke-width: 1.2px;
      }

      .st1 {
        stroke-linecap: round;
        stroke-linejoin: round;
      }

      .st2 {
        fill: #1d1d1b;
        font-family: Helvetica, Helvetica;
        font-size: 8px;
      }
    </style>
  </defs>
  <text class="st2" transform="translate(130.2 137.56)"><tspan x="0" y="0">82</tspan></text>
  <g>
    <path class="st1" d="M65.8,31.38c-12.91,0-17.21-8.61-17.21-8.61,0,0-4.3,8.61-17.21,8.61"/>
    <path class="st1" d="M100.23,31.38h0"/>
    <path class="st1" d="M65.8,31.38c12.91,0,17.21,8.61,17.21,8.61,0,0,4.3-8.61,17.21-8.61"/>
    <path class="st1" d="M134.65,31.38c-12.91,0-17.21-8.61-17.21-8.61,0,0-4.3,8.61-17.21,8.61"/>
    <path class="st1" d="M169.07,31.38h0"/>
    <path class="st1" d="M134.65,31.38c12.91,0,17.21,8.61,17.21,8.61,0,0,4.3-8.61,17.21-8.61"/>
    <path class="st1" d="M203.49,31.38c-12.91,0-17.21-8.61-17.21-8.61,0,0-4.3,8.61-17.21,8.61"/>
    <path class="st1" d="M203.49,31.38c12.91,0,17.21,8.61,17.21,8.61,0,0,4.3-8.6,17.21-8.61"/>
    <path class="st1" d="M237.91,31.38h0"/>
    <path class="st1" d="M31.38,31.38c-12.91,0-17.21,8.61-17.21,8.61"/>
    <path class="st1" d="M31.38,31.38h0"/>
    <path class="st1" d="M65.8,65.8c-12.91,0-17.21-8.61-17.21-8.61,0,0-4.3,8.61-17.21,8.61"/>
    <path class="st1" d="M65.8,65.8c12.91,0,17.21,8.61,17.21,8.61,0,0,4.3-8.61,17.21-8.61"/>
    <path class="st1" d="M100.23,65.8h0"/>
    <path class="st1" d="M134.65,65.8c-12.91,0-17.21-8.61-17.21-8.61,0,0-4.3,8.61-17.21,8.61"/>
    <path class="st1" d="M134.65,65.8c12.91,0,17.21,8.61,17.21,8.61,0,0,4.3-8.61,17.21-8.61"/>
    <path class="st1" d="M169.07,65.8h0"/>
    <path class="st1" d="M203.49,65.8c-12.91,0-17.21-8.61-17.21-8.61,0,0-4.3,8.61-17.21,8.61"/>
    <path class="st1" d="M203.49,65.8c12.91,0,17.21,8.61,17.21,8.61,0,0,4.3-8.6,17.21-8.61"/>
    <path class="st1" d="M237.91,65.8h0"/>
    <path class="st1" d="M31.38,65.8h0"/>
    <path class="st1" d="M31.38,65.8c-12.91,0-17.21,8.61-17.21,8.61"/>
    <path class="st1" d="M65.8,100.23h0"/>
    <path class="st1" d="M65.8,100.23c-12.91,0-17.21-8.61-17.21-8.61,0,0-4.3,8.61-17.21,8.61"/>
    <path class="st1" d="M65.8,100.23c12.91,0,17.21,8.61,17.21,8.61,0,0,4.3-8.61,17.21-8.61"/>
    <path class="st1" d="M100.23,100.23h0"/>
    <path class="st1" d="M134.65,100.23c-12.91,0-17.21-8.61-17.21-8.61,0,0-4.3,8.61-17.21,8.61"/>
    <path class="st1" d="M134.65,100.23h0"/>
    <path class="st1" d="M134.65,100.23c12.91,0,17.21,8.61,17.21,8.61,0,0,4.3-8.6,17.21-8.61"/>
    <path class="st1" d="M169.07,100.23h0"/>
    <path class="st1" d="M203.49,100.23h0"/>
    <path class="st1" d="M203.49,100.23c-12.91,0-17.21-8.61-17.21-8.61,0,0-4.3,8.61-17.21,8.61"/>
    <path class="st1" d="M237.91,100.23c-12.91,0-17.21,8.61-17.21,8.61,0,0-4.3-8.61-17.21-8.61"/>
    <path class="st1" d="M237.91,100.23h0"/>
    <path class="st1" d="M31.38,100.23h0"/>
    <path class="st1" d="M31.38,100.23c-12.91,0-17.21,8.61-17.21,8.61"/>
    <path class="st1" d="M31.38,31.38c0,12.91-8.61,17.21-8.61,17.21,0,0,8.61,4.3,8.61,17.21"/>
    <line class="st1" x1="31.38" y1="31.38" x2="31.38" y2="31.38"/>
    <path class="st1" d="M31.38,65.8c0,12.91,8.61,17.21,8.61,17.21,0,0-8.61,4.3-8.61,17.21"/>
    <line class="st1" x1="31.38" y1="65.8" x2="31.38" y2="65.8"/>
    <path class="st1" d="M31.38,100.23c0,12.91-8.61,17.21-8.61,17.21h0"/>
    <path class="st1" d="M31.38,100.22h0"/>
    <path class="st1" d="M31.38,31.38c0-12.9,8.6-17.21,8.61-17.21"/>
    <path class="st1" d="M65.8,65.8c0-12.91-8.61-17.21-8.61-17.21,0,0,8.61-4.3,8.61-17.21"/>
    <path class="st1" d="M65.8,65.8c0,12.91,8.61,17.21,8.61,17.21,0,0-8.61,4.3-8.61,17.21"/>
    <path class="st1" d="M65.8,100.23c0,12.91-8.61,17.21-8.61,17.21h0"/>
    <path class="st1" d="M65.8,100.23h0"/>
    <path class="st1" d="M65.8,31.38c0-12.9,8.6-17.21,8.61-17.21"/>
    <line class="st1" x1="100.23" y1="31.38" x2="100.23" y2="31.38"/>
    <path class="st1" d="M100.23,31.38c0,12.91-8.61,17.21-8.61,17.21,0,0,8.61,4.3,8.61,17.21"/>
    <path class="st1" d="M100.23,100.22c0-12.91,8.61-17.21,8.61-17.21,0,0-8.61-4.3-8.61-17.21"/>
    <line class="st1" x1="100.23" y1="65.8" x2="100.23" y2="65.8"/>
    <path class="st1" d="M100.23,100.22h0"/>
    <path class="st1" d="M100.23,100.23c0,12.91-8.61,17.21-8.61,17.21h0"/>
    <path class="st1" d="M100.23,31.38c0-12.9,8.6-17.21,8.61-17.21"/>
    <path class="st1" d="M134.65,31.38c0,12.91-8.61,17.21-8.61,17.21,0,0,8.61,4.3,8.61,17.21"/>
    <path class="st1" d="M134.65,100.22c0-12.91,8.61-17.21,8.61-17.21,0,0-8.61-4.3-8.61-17.21"/>
    <path class="st1" d="M134.65,100.23c0,12.91-8.61,17.21-8.61,17.21h0"/>
    <path class="st1" d="M134.65,100.23h0"/>
    <path class="st1" d="M134.65,31.38c0-12.9,8.6-17.21,8.61-17.21"/>
    <path class="st1" d="M169.07,31.38c0,12.91-8.61,17.21-8.61,17.21,0,0,8.61,4.3,8.61,17.21"/>
    <line class="st1" x1="169.07" y1="31.38" x2="169.07" y2="31.38"/>
    <line class="st1" x1="169.07" y1="65.8" x2="169.07" y2="65.8"/>
    <path class="st1" d="M169.07,100.22c0-12.91,8.61-17.21,8.61-17.21,0,0-8.61-4.3-8.61-17.21"/>
    <path class="st1" d="M169.07,100.22h0"/>
    <path class="st1" d="M169.07,100.23c0,12.91-8.61,17.21-8.61,17.21h0"/>
    <path class="st1" d="M169.07,31.38c0-12.9,8.6-17.21,8.61-17.21"/>
    <path class="st1" d="M203.49,31.38c0,12.91-8.61,17.21-8.61,17.21,0,0,8.61,4.3,8.61,17.21"/>
    <path class="st1" d="M203.49,65.8c0,12.91,8.61,17.21,8.61,17.21,0,0-8.61,4.3-8.61,17.21"/>
    <path class="st1" d="M203.49,100.22h0"/>
    <path class="st1" d="M203.49,100.23c0,12.91-8.61,17.21-8.61,17.21h0"/>
    <path class="st1" d="M203.49,31.38c0-12.9,8.6-17.21,8.6-17.21"/>
    <line class="st1" x1="237.91" y1="31.38" x2="237.91" y2="31.38"/>
    <path class="st1" d="M237.91,65.8c0-12.91-8.61-17.21-8.61-17.21,0,0,8.61-4.3,8.61-17.21"/>
    <line class="st1" x1="237.91" y1="65.8" x2="237.91" y2="65.8"/>
    <path class="st1" d="M237.91,100.22c0-12.91,8.61-17.21,8.61-17.21,0,0-8.61-4.3-8.61-17.21"/>
    <path class="st1" d="M237.91,100.23c0,12.91-8.61,17.21-8.61,17.21h0"/>
    <path class="st1" d="M237.91,100.23h0"/>
    <path class="st1" d="M237.91,31.38c0-12.9,8.6-17.21,8.61-17.21"/>
    <path class="st1" d="M237.91,31.38c12.88,0,17.19-8.57,17.21-8.6"/>
    <path class="st1" d="M237.91,65.8c12.88,0,17.19-8.57,17.21-8.6"/>
    <path class="st1" d="M237.91,100.23c12.88,0,17.19-8.57,17.21-8.6"/>
    <polyline class="st0" points="22.78 117.44 14.17 117.44 14.17 108.83"/>
    <line class="st0" x1="91.62" y1="117.44" x2="57.2" y2="117.44"/>
    <line class="st0" x1="14.17" y1="74.41" x2="14.17" y2="108.83"/>
    <line class="st0" x1="22.78" y1="117.44" x2="57.2" y2="117.44"/>
    <line class="st0" x1="14.17" y1="39.99" x2="14.17" y2="74.41"/>
    <line class="st0" x1="160.46" y1="117.44" x2="194.88" y2="117.44"/>
    <line class="st0" x1="194.88" y1="117.44" x2="229.3" y2="117.44"/>
    <line class="st0" x1="255.12" y1="57.2" x2="255.12" y2="22.78"/>
    <line class="st0" x1="91.62" y1="117.44" x2="126.04" y2="117.44"/>
    <polyline class="st0" points="39.99 14.17 14.17 14.17 14.17 39.99"/>
    <line class="st0" x1="177.67" y1="14.17" x2="143.25" y2="14.17"/>
    <line class="st0" x1="143.25" y1="14.17" x2="108.83" y2="14.17"/>
    <line class="st0" x1="160.46" y1="117.44" x2="126.04" y2="117.44"/>
    <line class="st0" x1="108.83" y1="14.17" x2="74.41" y2="14.17"/>
    <line class="st0" x1="246.51" y1="14.17" x2="212.09" y2="14.17"/>
    <polyline class="st0" points="255.12 22.78 255.12 14.17 246.51 14.17"/>
    <line class="st0" x1="74.41" y1="14.17" x2="39.99" y2="14.17"/>
    <line class="st0" x1="255.12" y1="57.2" x2="255.12" y2="91.62"/>
    <line class="st0" x1="212.09" y1="14.17" x2="177.67" y2="14.17"/>
    <polyline class="st0" points="255.12 91.62 255.12 117.44 229.3 117.44"/>
  </g>
</svg>