<?xml version="1.0" encoding="UTF-8"?>
<svg xmlns="http://www.w3.org/2000/svg" version="1.1" viewBox="0 0 4270.39 2970.71">
  <!-- Generator: Adobe Illustrator 29.1.0, SVG Export Plug-In . SVG Version: 2.1.0 Build 142)  -->
  <defs>
    <style>
      .st0 {
        stroke-width: .2px;
      }

      .st0, .st1 {
        fill: none;
        stroke: #1d1d1b;
        stroke-miterlimit: 10;
      }

      .st2 {
        fill: #1d1d1b;
      }

      .st1 {
        stroke-linecap: round;
        stroke-width: 12px;
      }

      .st3 {
        display: none;
      }
    </style>
  </defs>
  <g id="_x31_03" class="st3">
    <line class="st1" x1="956.09" y1="835.51" x2="1063.29" y2="278.5"/>
    <line class="st1" x1="848.9" y1="1392.52" x2="956.09" y2="835.51"/>
    <line class="st1" x1="956.09" y1="835.51" x2="420.12" y2="1021.18"/>
    <line class="st1" x1="1492.07" y1="649.84" x2="956.09" y2="835.51"/>
    <line class="st1" x1="956.09" y1="835.51" x2="1384.88" y2="1206.85"/>
    <line class="st1" x1="527.31" y1="464.17" x2="956.09" y2="835.51"/>
    <line class="st1" x1="956.09" y1="835.51" x2="848.9" y2="278.5"/>
    <line class="st1" x1="1063.29" y1="1392.52" x2="956.1" y2="835.51"/>
    <line class="st1" x1="956.1" y1="835.51" x2="1492.07" y2="1021.18"/>
    <line class="st1" x1="420.11" y1="649.84" x2="956.09" y2="835.51"/>
    <line class="st1" x1="956.09" y1="835.51" x2="527.31" y2="1206.85"/>
    <line class="st1" x1="1384.88" y1="464.17" x2="956.09" y2="835.51"/>
    <line class="st1" x1="98.56" y1="835.51" x2="634.52" y2="649.84"/>
    <line class="st1" x1="98.56" y1="835.51" x2="634.52" y2="1021.18"/>
    <line class="st1" x1="98.56" y1="835.51" x2="527.31" y2="464.17"/>
    <line class="st1" x1="98.56" y1="835.51" x2="527.31" y2="1206.85"/>
    <line class="st1" x1="1813.64" y1="835.51" x2="1277.68" y2="649.84"/>
    <line class="st1" x1="1813.64" y1="835.51" x2="1277.68" y2="1021.18"/>
    <line class="st1" x1="1813.64" y1="835.51" x2="1384.89" y2="464.17"/>
    <line class="st1" x1="1813.64" y1="835.51" x2="1384.89" y2="1206.85"/>
    <line class="st1" x1="1384.87" y1="1578.16" x2="956.09" y2="1206.84"/>
    <line class="st1" x1="1384.87" y1="1578.16" x2="1277.68" y2="1021.17"/>
    <line class="st1" x1="1384.87" y1="1578.16" x2="848.9" y2="1392.52"/>
    <line class="st1" x1="1384.87" y1="1578.16" x2="1492.08" y2="1021.18"/>
    <line class="st1" x1="527.33" y1="92.86" x2="634.51" y2="649.85"/>
    <line class="st1" x1="527.33" y1="92.86" x2="956.1" y2="464.18"/>
    <line class="st1" x1="527.33" y1="92.86" x2="420.11" y2="649.84"/>
    <line class="st1" x1="527.33" y1="92.86" x2="1063.29" y2="278.5"/>
    <line class="st1" x1="1384.87" y1="92.86" x2="1277.68" y2="649.85"/>
    <line class="st1" x1="1384.87" y1="92.86" x2="956.09" y2="464.18"/>
    <line class="st1" x1="1384.87" y1="92.86" x2="1492.08" y2="649.84"/>
    <line class="st1" x1="1384.87" y1="92.86" x2="848.9" y2="278.5"/>
    <line class="st1" x1="527.33" y1="1578.16" x2="956.1" y2="1206.84"/>
    <line class="st1" x1="527.33" y1="1578.16" x2="634.51" y2="1021.17"/>
    <line class="st1" x1="527.33" y1="1578.16" x2="1063.29" y2="1392.52"/>
    <line class="st1" x1="527.33" y1="1578.16" x2="420.11" y2="1021.18"/>
  </g>
  <g id="_x31_04" class="st3">
    <path class="st1" d="M956.09,835.51c0-278.5,107.19-557.01,107.19-557.01"/>
    <path class="st1" d="M956.09,835.51c0,278.5-107.19,557.01-107.19,557.01"/>
    <path class="st1" d="M956.09,835.51c0-278.5-107.19-557.01-107.19-557.01"/>
    <path class="st1" d="M527.33,1578.19c0-278.5,107.19-557.01,107.19-557.01"/>
    <path class="st1" d="M527.33,1578.19c0-278.5-107.19-557.01-107.19-557.01"/>
    <path class="st1" d="M956.09,835.51c0,278.5,107.19,557.01,107.19,557.01"/>
    <path class="st1" d="M1384.86,92.83c0,278.5-107.19,557.01-107.19,557.01"/>
    <path class="st1" d="M1384.86,92.83c0,278.5,107.19,557.01,107.19,557.01"/>
    <path class="st1" d="M1813.66,835.5c-241.19,139.25-535.98,185.67-535.98,185.67"/>
    <path class="st1" d="M1813.66,835.5c-241.19,139.25-428.79,371.33-428.79,371.33"/>
    <path class="st1" d="M98.53,835.53c241.19-139.25,535.98-185.67,535.98-185.67"/>
    <path class="st1" d="M98.53,835.53c241.19-139.25,428.79-371.34,428.79-371.34"/>
    <path class="st1" d="M527.3,92.85c241.19,139.25,428.79,371.33,428.79,371.33"/>
    <path class="st1" d="M527.3,92.85c241.19,139.25,535.98,185.67,535.98,185.67"/>
    <path class="st1" d="M1384.89,1578.17c-241.19-139.25-428.79-371.34-428.79-371.34"/>
    <path class="st1" d="M1384.89,1578.17c-241.19-139.25-535.98-185.67-535.98-185.67"/>
    <path class="st1" d="M1384.86,1578.19c0-278.5-107.19-557.01-107.19-557.01"/>
    <path class="st1" d="M1384.86,1578.19c0-278.5,107.19-557.01,107.19-557.01"/>
    <path class="st1" d="M527.33,92.83c0,278.5,107.19,557.01,107.19,557.01"/>
    <path class="st1" d="M527.33,92.83c0,278.5-107.19,557.01-107.19,557.01"/>
    <path class="st1" d="M98.53,835.5c241.19,139.25,535.98,185.67,535.98,185.67"/>
    <path class="st1" d="M98.53,835.5c241.19,139.25,428.79,371.33,428.79,371.33"/>
    <path class="st1" d="M1813.66,835.53c-241.19-139.25-535.98-185.67-535.98-185.67"/>
    <path class="st1" d="M1813.66,835.53c-241.19-139.25-428.79-371.34-428.79-371.34"/>
    <path class="st1" d="M1384.89,92.85c-241.19,139.25-428.79,371.33-428.79,371.33"/>
    <path class="st1" d="M1384.89,92.85c-241.19,139.25-535.98,185.67-535.98,185.67"/>
    <path class="st1" d="M527.3,1578.17c241.19-139.25,428.79-371.34,428.79-371.34"/>
    <path class="st1" d="M527.3,1578.17c241.19-139.25,535.98-185.67,535.98-185.67"/>
    <path class="st1" d="M956.09,835.51c-241.19,139.25-535.98,185.67-535.98,185.67"/>
    <path class="st1" d="M956.09,835.51c241.19-139.25,535.98-185.67,535.98-185.67"/>
    <path class="st1" d="M956.09,835.51c-241.19,139.25-428.79,371.34-428.79,371.34"/>
    <path class="st1" d="M956.09,835.51c241.19-139.25,428.79-371.33,428.79-371.33"/>
    <path class="st1" d="M956.09,835.51c241.19,139.25,428.79,371.34,428.79,371.34"/>
    <path class="st1" d="M956.09,835.51c-241.19-139.25-428.79-371.33-428.79-371.33"/>
    <path class="st1" d="M956.09,835.51c241.19,139.25,535.98,185.67,535.98,185.67"/>
    <path class="st1" d="M956.09,835.51c-241.19-139.25-535.98-185.67-535.98-185.67"/>
  </g>
  <g id="_x31_05" class="st3">
    <path class="st1" d="M956.09,835.51c107.19-278.5,107.19-557.01,107.19-557.01"/>
    <path class="st1" d="M956.09,835.51c-107.19-278.5-107.19-557.01-107.19-557.01"/>
    <path class="st1" d="M527.33,1578.19c107.19-278.5,107.19-557.01,107.19-557.01"/>
    <path class="st1" d="M527.33,1578.19c-107.19-278.5-107.19-557.01-107.19-557.01"/>
    <path class="st1" d="M956.09,835.51c-107.19,278.5-107.19,557.01-107.19,557.01"/>
    <path class="st1" d="M956.1,835.51c107.19,278.5,107.19,557.01,107.19,557.01"/>
    <path class="st1" d="M1384.86,92.83c-107.19,278.5-107.19,557.01-107.19,557.01"/>
    <path class="st1" d="M1384.86,92.83c107.19,278.5,107.19,557.01,107.19,557.01"/>
    <path class="st1" d="M1813.66,835.5c-294.79,46.42-535.98,185.67-535.98,185.67"/>
    <path class="st1" d="M1813.66,835.5c-187.6,232.08-428.79,371.33-428.79,371.33"/>
    <path class="st1" d="M98.53,835.53c294.79-46.42,535.98-185.67,535.98-185.67"/>
    <path class="st1" d="M98.53,835.52c187.59-232.08,428.79-371.33,428.79-371.33"/>
    <path class="st1" d="M527.3,92.85c187.6,232.08,428.79,371.33,428.79,371.33"/>
    <path class="st1" d="M527.3,92.85c294.79,46.42,535.98,185.67,535.98,185.67"/>
    <path class="st1" d="M1384.89,1578.17c-187.6-232.08-428.79-371.34-428.79-371.34"/>
    <path class="st1" d="M1384.89,1578.17c-294.79-46.42-535.98-185.67-535.98-185.67"/>
    <path class="st1" d="M1384.86,1578.19c-107.19-278.5-107.19-557.01-107.19-557.01"/>
    <path class="st1" d="M1384.86,1578.19c107.19-278.5,107.19-557.01,107.19-557.01"/>
    <path class="st1" d="M527.33,92.83c107.19,278.5,107.19,557.01,107.19,557.01"/>
    <path class="st1" d="M527.33,92.83c-107.19,278.5-107.19,557.01-107.19,557.01"/>
    <path class="st1" d="M98.53,835.5c294.79,46.42,535.98,185.67,535.98,185.67"/>
    <path class="st1" d="M98.53,835.5c187.6,232.08,428.79,371.33,428.79,371.33"/>
    <path class="st1" d="M1813.66,835.53c-294.79-46.42-535.98-185.67-535.98-185.67"/>
    <path class="st1" d="M1813.66,835.52c-187.59-232.08-428.79-371.33-428.79-371.33"/>
    <path class="st1" d="M1384.89,92.85c-187.6,232.08-428.79,371.33-428.79,371.33"/>
    <path class="st1" d="M1384.89,92.85c-294.79,46.42-535.98,185.67-535.98,185.67"/>
    <path class="st1" d="M527.3,1578.17c187.6-232.08,428.79-371.34,428.79-371.34"/>
    <path class="st1" d="M527.3,1578.17c294.79-46.42,535.98-185.67,535.98-185.67"/>
    <path class="st1" d="M956.09,835.51c-294.79,46.42-535.98,185.67-535.98,185.67"/>
    <path class="st1" d="M956.09,835.51c-187.59,232.08-428.79,371.34-428.79,371.34"/>
    <path class="st1" d="M956.09,835.51c294.79-46.42,535.98-185.67,535.98-185.67"/>
    <path class="st1" d="M956.09,835.51c187.59-232.08,428.79-371.34,428.79-371.34"/>
    <path class="st1" d="M956.09,835.51c187.6,232.08,428.79,371.34,428.79,371.34"/>
    <path class="st1" d="M956.09,835.51c294.79,46.42,535.98,185.67,535.98,185.67"/>
    <path class="st1" d="M956.09,835.51c-187.6-232.08-428.79-371.33-428.79-371.33"/>
    <path class="st1" d="M956.09,835.51c-294.79-46.42-535.98-185.67-535.98-185.67"/>
  </g>
  <g id="_x31_06" class="st3">
    <path class="st1" d="M956.09,835.51c157.69-278.72,1.85-464.72,107.19-557.01"/>
    <path class="st1" d="M956.09,835.51c-157.69-278.72-1.85-464.72-107.19-557.01"/>
    <path class="st1" d="M527.33,1578.19c157.69-278.72,1.85-464.72,107.19-557.01"/>
    <path class="st1" d="M527.33,1578.19c-157.69-278.72-1.85-464.72-107.19-557.01"/>
    <path class="st1" d="M956.09,835.51c-157.69,278.72-1.85,464.72-107.19,557.01"/>
    <path class="st1" d="M956.1,835.51c157.69,278.72,1.85,464.72,107.19,557.01"/>
    <path class="st1" d="M1384.86,92.83c-157.69,278.72-1.85,464.72-107.19,557.01"/>
    <path class="st1" d="M1384.86,92.83c157.69,278.72,1.86,464.72,107.19,557.01"/>
    <path class="st1" d="M1813.66,835.5c-320.23,2.8-403.39,230.76-535.98,185.67"/>
    <path class="st1" d="M1813.66,835.5c-162.54,275.93-401.53,233.97-428.79,371.33"/>
    <path class="st1" d="M98.53,835.53c320.23-2.8,403.39-230.75,535.98-185.67"/>
    <path class="st1" d="M98.53,835.53c162.54-275.93,401.53-233.97,428.79-371.34"/>
    <path class="st1" d="M527.3,92.85c162.54,275.93,401.54,233.97,428.79,371.33"/>
    <path class="st1" d="M527.3,92.85c320.23,2.8,403.39,230.75,535.98,185.67"/>
    <path class="st1" d="M1384.89,1578.17c-162.54-275.93-401.53-233.97-428.79-371.34"/>
    <path class="st1" d="M1384.89,1578.17c-320.23-2.8-403.39-230.75-535.98-185.67"/>
    <path class="st1" d="M1384.86,1578.19c-157.69-278.72-1.86-464.72-107.19-557.01"/>
    <path class="st1" d="M1384.86,1578.19c157.69-278.72,1.85-464.72,107.19-557.01"/>
    <path class="st1" d="M527.33,92.83c157.69,278.72,1.85,464.72,107.19,557.01"/>
    <path class="st1" d="M527.33,92.83c-157.69,278.72-1.85,464.72-107.19,557.01"/>
    <path class="st1" d="M98.53,835.5c320.23,2.8,403.39,230.76,535.98,185.67"/>
    <path class="st1" d="M98.53,835.5c162.54,275.93,401.53,233.97,428.79,371.33"/>
    <path class="st1" d="M1813.66,835.53c-320.23-2.8-403.39-230.75-535.98-185.67"/>
    <path class="st1" d="M1813.66,835.53c-162.54-275.93-401.53-233.97-428.79-371.34"/>
    <path class="st1" d="M1384.89,92.85c-162.54,275.93-401.54,233.97-428.79,371.33"/>
    <path class="st1" d="M1384.89,92.85c-320.23,2.8-403.39,230.75-535.98,185.67"/>
    <path class="st1" d="M527.3,1578.17c162.54-275.93,401.53-233.97,428.79-371.34"/>
    <path class="st1" d="M527.3,1578.17c320.23-2.8,403.39-230.75,535.98-185.67"/>
    <path class="st1" d="M956.09,835.51c-320.23,2.8-403.39,230.75-535.98,185.67"/>
    <path class="st1" d="M956.09,835.51c-162.54,275.93-401.53,233.97-428.79,371.34"/>
    <path class="st1" d="M956.09,835.51c320.23-2.8,403.39-230.75,535.98-185.67"/>
    <path class="st1" d="M956.09,835.51c162.54-275.93,401.53-233.97,428.79-371.34"/>
    <path class="st1" d="M956.09,835.51c162.54,275.93,401.53,233.97,428.79,371.34"/>
    <path class="st1" d="M956.09,835.51c320.23,2.8,403.39,230.75,535.98,185.67"/>
    <path class="st1" d="M956.09,835.51c-162.54-275.93-401.53-233.97-428.79-371.33"/>
    <path class="st1" d="M956.09,835.51c-320.23-2.8-403.39-230.75-535.98-185.67"/>
  </g>
  <g id="_x38_4" class="st3">
    <path class="st1" d="M956.09,835.51c0-557.01,428.77-185.67,428.77-742.68"/>
    <path class="st1" d="M527.33,1578.19c0-557.01,428.77-185.67,428.77-742.68"/>
    <path class="st1" d="M956.09,835.51c-482.38,278.5-375.18-278.49-857.56.01"/>
    <path class="st1" d="M1384.88,1578.18c-482.38,278.5-375.18-278.49-857.56.01"/>
    <path class="st1" d="M1384.88,92.83c-482.38,278.5-375.18-278.49-857.56.01"/>
    <path class="st1" d="M1384.88,92.84c482.38,278.5-53.59,464.16,428.79,742.66"/>
    <path class="st1" d="M98.52,835.52c482.38,278.5-53.59,464.16,428.79,742.66"/>
    <path class="st1" d="M98.53,835.51c0-557.01,428.77-185.67,428.77-742.68"/>
    <path class="st1" d="M1384.89,1578.18c0-557.01,428.77-185.67,428.77-742.68"/>
    <path class="st1" d="M1813.66,835.5c-482.38,278.5-375.18-278.49-857.56.01"/>
    <path class="st1" d="M956.09,835.51c482.38,278.5-53.59,464.16,428.79,742.66"/>
    <path class="st1" d="M527.3,92.85c482.38,278.5-53.59,464.16,428.79,742.66"/>
    <path class="st1" d="M-330.21,1578.18c0-557.01,428.77-185.67,428.77-742.68"/>
    <path class="st1" d="M-758.98,2320.86c0-557.01,428.77-185.67,428.77-742.68"/>
    <path class="st1" d="M-330.21,1578.18c-482.38,278.5-375.18-278.49-857.56.01"/>
    <path class="st1" d="M98.57,2320.85c-482.38,278.5-375.18-278.49-857.56.01"/>
    <path class="st1" d="M98.57,835.5c-482.38,278.5-375.18-278.49-857.56.01"/>
    <path class="st1" d="M-1187.78,1578.19c482.38,278.5-53.59,464.16,428.79,742.66"/>
    <path class="st1" d="M-1187.77,1578.18c0-557.01,428.77-185.67,428.77-742.68"/>
    <path class="st1" d="M98.58,2320.85c0-557.01,428.77-185.67,428.77-742.68"/>
    <path class="st1" d="M527.35,1578.17c-482.38,278.5-375.18-278.49-857.56.01"/>
    <path class="st1" d="M-330.21,1578.18c482.38,278.5-53.59,464.16,428.79,742.66"/>
    <path class="st1" d="M-759,835.52c482.38,278.5-53.59,464.16,428.79,742.66"/>
    <path class="st1" d="M956.09-649.85c0-557.01,428.77-185.67,428.77-742.68"/>
    <path class="st1" d="M527.33,92.83c0-557.01,428.77-185.67,428.77-742.68"/>
    <path class="st1" d="M956.09-649.85c-482.38,278.5-375.18-278.49-857.56.01"/>
    <path class="st1" d="M98.52-649.84C580.9-371.34,44.93-185.68,527.31,92.82"/>
    <path class="st1" d="M1384.89,92.83c0-557.01,428.77-185.67,428.77-742.68"/>
    <path class="st1" d="M1813.66-649.86c-482.38,278.5-375.18-278.49-857.56.01"/>
    <path class="st1" d="M956.09-649.85c482.38,278.5-53.59,464.16,428.79,742.66"/>
    <path class="st1" d="M527.3-1392.51c482.38,278.5-53.59,464.16,428.79,742.66"/>
    <path class="st1" d="M-330.21,92.82c0-557.01,428.77-185.67,428.77-742.68"/>
    <path class="st1" d="M-758.98,835.5c0-557.01,428.77-185.67,428.77-742.68"/>
    <path class="st1" d="M-330.21,92.82c-482.38,278.5-375.18-278.49-857.56.01"/>
    <path class="st1" d="M-1187.78,92.83c482.38,278.5-53.59,464.16,428.79,742.66"/>
    <path class="st1" d="M-1187.77,92.82c0-557.01,428.77-185.67,428.77-742.68"/>
    <path class="st1" d="M527.35,92.81c-482.38,278.5-375.18-278.49-857.56.01"/>
    <path class="st1" d="M-330.21,92.82c482.38,278.5-53.59,464.16,428.79,742.66"/>
    <path class="st1" d="M-759-649.84c482.38,278.5-53.59,464.16,428.79,742.66"/>
    <path class="st1" d="M3528.71,835.51c0-557.01,428.77-185.67,428.77-742.68"/>
    <path class="st1" d="M3099.94,1578.19c0-557.01,428.77-185.67,428.77-742.68"/>
    <path class="st1" d="M3528.71,835.51c-482.38,278.5-375.18-278.49-857.56.01"/>
    <path class="st1" d="M3957.49,1578.18c-482.38,278.5-375.18-278.49-857.56.01"/>
    <path class="st1" d="M3957.49,92.83c-482.38,278.5-375.18-278.49-857.56.01"/>
    <path class="st1" d="M3957.49,92.84c482.38,278.5-53.59,464.16,428.79,742.66"/>
    <path class="st1" d="M2671.13,835.52c482.38,278.5-53.59,464.16,428.79,742.66"/>
    <path class="st1" d="M2671.14,835.51c0-557.01,428.77-185.67,428.77-742.68"/>
    <path class="st1" d="M3957.5,1578.18c0-557.01,428.77-185.67,428.77-742.68"/>
    <path class="st1" d="M4386.27,835.5c-482.38,278.5-375.18-278.49-857.56.01"/>
    <path class="st1" d="M3528.71,835.51c482.38,278.5-53.59,464.16,428.79,742.66"/>
    <path class="st1" d="M3099.91,92.85c482.38,278.5-53.59,464.16,428.79,742.66"/>
    <path class="st1" d="M2242.4,1578.18c0-557.01,428.77-185.67,428.77-742.68"/>
    <path class="st1" d="M1813.63,2320.86c0-557.01,428.77-185.67,428.77-742.68"/>
    <path class="st1" d="M2242.4,1578.18c-482.38,278.5-375.18-278.49-857.56.01"/>
    <path class="st1" d="M2671.18,2320.85c-482.38,278.5-375.18-278.49-857.56.01"/>
    <path class="st1" d="M2671.18,835.5c-482.38,278.5-375.18-278.49-857.56.01"/>
    <path class="st1" d="M1384.83,1578.19c482.38,278.5-53.59,464.16,428.79,742.66"/>
    <path class="st1" d="M2671.19,2320.85c0-557.01,428.77-185.67,428.77-742.68"/>
    <path class="st1" d="M3099.96,1578.17c-482.38,278.5-375.18-278.49-857.56.01"/>
    <path class="st1" d="M2242.4,1578.18c482.38,278.5-53.59,464.16,428.79,742.66"/>
    <path class="st1" d="M1813.61,835.52c482.38,278.5-53.59,464.16,428.79,742.66"/>
    <path class="st1" d="M3528.71-649.85c0-557.01,428.77-185.67,428.77-742.68"/>
    <path class="st1" d="M3099.94,92.83c0-557.01,428.77-185.67,428.77-742.68"/>
    <path class="st1" d="M3528.71-649.85c-482.38,278.5-375.18-278.49-857.56.01"/>
    <path class="st1" d="M3957.49-1392.52c482.38,278.5-53.59,464.16,428.79,742.66"/>
    <path class="st1" d="M2671.13-649.84c482.38,278.5-53.59,464.16,428.79,742.66"/>
    <path class="st1" d="M3957.5,92.83c0-557.01,428.77-185.67,428.77-742.68"/>
    <path class="st1" d="M4386.27-649.86c-482.38,278.5-375.18-278.49-857.56.01"/>
    <path class="st1" d="M3528.71-649.85c482.38,278.5-53.59,464.16,428.79,742.66"/>
    <path class="st1" d="M3099.91-1392.51c482.38,278.5-53.59,464.16,428.79,742.66"/>
    <path class="st1" d="M2242.4,92.82c0-557.01,428.77-185.67,428.77-742.68"/>
    <path class="st1" d="M1813.63,835.5c0-557.01,428.77-185.67,428.77-742.68"/>
    <path class="st1" d="M2242.4,92.82c-482.38,278.5-375.18-278.49-857.56.01"/>
    <path class="st1" d="M3099.96,92.81c-482.38,278.5-375.18-278.49-857.56.01"/>
    <path class="st1" d="M2242.4,92.82c482.38,278.5-53.59,464.16,428.79,742.66"/>
    <path class="st1" d="M1813.61-649.84c482.38,278.5-53.59,464.16,428.79,742.66"/>
    <path class="st1" d="M956.09,3806.22c0-557.01,428.77-185.67,428.77-742.68"/>
    <path class="st1" d="M527.33,4548.9c0-557.01,428.77-185.67,428.77-742.68"/>
    <path class="st1" d="M956.09,3806.22c-482.38,278.5-375.18-278.49-857.56.01"/>
    <path class="st1" d="M1384.88,4548.89c-482.38,278.5-375.18-278.49-857.56.01"/>
    <path class="st1" d="M1384.88,3063.54c-482.38,278.5-375.18-278.49-857.56.01"/>
    <path class="st1" d="M1384.88,3063.55c482.38,278.5-53.59,464.16,428.79,742.66"/>
    <path class="st1" d="M98.52,3806.23c482.38,278.5-53.59,464.16,428.79,742.66"/>
    <path class="st1" d="M98.53,3806.22c0-557.01,428.77-185.67,428.77-742.68"/>
    <path class="st1" d="M1384.89,4548.89c0-557.01,428.77-185.67,428.77-742.68"/>
    <path class="st1" d="M1813.66,3806.21c-482.38,278.5-375.18-278.49-857.56.01"/>
    <path class="st1" d="M956.09,3806.22c482.38,278.5-53.59,464.16,428.79,742.66"/>
    <path class="st1" d="M527.3,3063.56c482.38,278.5-53.59,464.16,428.79,742.66"/>
    <path class="st1" d="M-330.21,4548.89c0-557.01,428.77-185.67,428.77-742.68"/>
    <path class="st1" d="M-758.98,5291.57c0-557.01,428.77-185.67,428.77-742.68"/>
    <path class="st1" d="M-330.21,4548.89c-482.38,278.5-375.18-278.49-857.56.01"/>
    <path class="st1" d="M98.57,5291.56c-482.38,278.5-375.18-278.49-857.56.01"/>
    <path class="st1" d="M98.57,3806.21c-482.38,278.5-375.18-278.49-857.56.01"/>
    <path class="st1" d="M-1187.78,4548.9c482.38,278.5-53.59,464.16,428.79,742.66"/>
    <path class="st1" d="M-1187.77,4548.89c0-557.01,428.77-185.67,428.77-742.68"/>
    <path class="st1" d="M98.58,5291.56c0-557.01,428.77-185.67,428.77-742.68"/>
    <path class="st1" d="M527.35,4548.88c-482.38,278.5-375.18-278.49-857.56.01"/>
    <path class="st1" d="M-330.21,4548.89c482.38,278.5-53.59,464.16,428.79,742.66"/>
    <path class="st1" d="M-759,3806.23c482.38,278.5-53.59,464.16,428.79,742.66"/>
    <path class="st1" d="M956.09,2320.86c0-557.01,428.77-185.67,428.77-742.68"/>
    <path class="st1" d="M527.33,3063.54c0-557.01,428.77-185.67,428.77-742.68"/>
    <path class="st1" d="M956.09,2320.86c-482.38,278.5-375.18-278.49-857.56.01"/>
    <path class="st1" d="M98.52,2320.87c482.38,278.5-53.59,464.16,428.79,742.66"/>
    <path class="st1" d="M1384.89,3063.54c0-557.01,428.77-185.67,428.77-742.68"/>
    <path class="st1" d="M1813.66,2320.85c-482.38,278.5-375.18-278.49-857.56.01"/>
    <path class="st1" d="M956.09,2320.86c482.38,278.5-53.59,464.16,428.79,742.66"/>
    <path class="st1" d="M527.3,1578.2c482.38,278.5-53.59,464.16,428.79,742.66"/>
    <path class="st1" d="M-330.21,3063.53c0-557.01,428.77-185.67,428.77-742.68"/>
    <path class="st1" d="M-758.98,3806.21c0-557.01,428.77-185.67,428.77-742.68"/>
    <path class="st1" d="M-330.21,3063.53c-482.38,278.5-375.18-278.49-857.56.01"/>
    <path class="st1" d="M-1187.78,3063.54c482.38,278.5-53.59,464.16,428.79,742.66"/>
    <path class="st1" d="M-1187.77,3063.53c0-557.01,428.77-185.67,428.77-742.68"/>
    <path class="st1" d="M527.35,3063.52c-482.38,278.5-375.18-278.49-857.56.01"/>
    <path class="st1" d="M-330.21,3063.53c482.38,278.5-53.59,464.16,428.79,742.66"/>
    <path class="st1" d="M-759,2320.87c482.38,278.5-53.59,464.16,428.79,742.66"/>
    <path class="st1" d="M3528.71,3806.22c0-557.01,428.77-185.67,428.77-742.68"/>
    <path class="st1" d="M3099.94,4548.9c0-557.01,428.77-185.67,428.77-742.68"/>
    <path class="st1" d="M3528.71,3806.22c-482.38,278.5-375.18-278.49-857.56.01"/>
    <path class="st1" d="M3957.49,4548.89c-482.38,278.5-375.18-278.49-857.56.01"/>
    <path class="st1" d="M3957.49,3063.54c-482.38,278.5-375.18-278.49-857.56.01"/>
    <path class="st1" d="M3957.49,3063.55c482.38,278.5-53.59,464.16,428.79,742.66"/>
    <path class="st1" d="M2671.13,3806.23c482.38,278.5-53.59,464.16,428.79,742.66"/>
    <path class="st1" d="M2671.14,3806.22c0-557.01,428.77-185.67,428.77-742.68"/>
    <path class="st1" d="M3957.5,4548.89c0-557.01,428.77-185.67,428.77-742.68"/>
    <path class="st1" d="M4386.27,3806.21c-482.38,278.5-375.18-278.49-857.56.01"/>
    <path class="st1" d="M3528.71,3806.22c482.38,278.5-53.59,464.16,428.79,742.66"/>
    <path class="st1" d="M3099.91,3063.56c482.38,278.5-53.59,464.16,428.79,742.66"/>
    <path class="st1" d="M2242.4,4548.89c0-557.01,428.77-185.67,428.77-742.68"/>
    <path class="st1" d="M1813.63,5291.57c0-557.01,428.77-185.67,428.77-742.68"/>
    <path class="st1" d="M2242.4,4548.89c-482.38,278.5-375.18-278.49-857.56.01"/>
    <path class="st1" d="M2671.18,5291.56c-482.38,278.5-375.18-278.49-857.56.01"/>
    <path class="st1" d="M2671.18,3806.21c-482.38,278.5-375.18-278.49-857.56.01"/>
    <path class="st1" d="M1384.83,4548.9c482.38,278.5-53.59,464.16,428.79,742.66"/>
    <path class="st1" d="M2671.19,5291.56c0-557.01,428.77-185.67,428.77-742.68"/>
    <path class="st1" d="M3099.96,4548.88c-482.38,278.5-375.18-278.49-857.56.01"/>
    <path class="st1" d="M2242.4,4548.89c482.38,278.5-53.59,464.16,428.79,742.66"/>
    <path class="st1" d="M1813.61,3806.23c482.38,278.5-53.59,464.16,428.79,742.66"/>
    <path class="st1" d="M3528.71,2320.86c0-557.01,428.77-185.67,428.77-742.68"/>
    <path class="st1" d="M3099.94,3063.54c0-557.01,428.77-185.67,428.77-742.68"/>
    <path class="st1" d="M3528.71,2320.86c-482.38,278.5-375.18-278.49-857.56.01"/>
    <path class="st1" d="M3957.49,1578.19c482.38,278.5-53.59,464.16,428.79,742.66"/>
    <path class="st1" d="M2671.13,2320.87c482.38,278.5-53.59,464.16,428.79,742.66"/>
    <path class="st1" d="M3957.5,3063.54c0-557.01,428.77-185.67,428.77-742.68"/>
    <path class="st1" d="M4386.27,2320.85c-482.38,278.5-375.18-278.49-857.56.01"/>
    <path class="st1" d="M3528.71,2320.86c482.38,278.5-53.59,464.16,428.79,742.66"/>
    <path class="st1" d="M3099.91,1578.2c482.38,278.5-53.59,464.16,428.79,742.66"/>
    <path class="st1" d="M2242.4,3063.53c0-557.01,428.77-185.67,428.77-742.68"/>
    <path class="st1" d="M1813.63,3806.21c0-557.01,428.77-185.67,428.77-742.68"/>
    <path class="st1" d="M2242.4,3063.53c-482.38,278.5-375.18-278.49-857.56.01"/>
    <path class="st1" d="M3099.96,3063.52c-482.38,278.5-375.18-278.49-857.56.01"/>
    <path class="st1" d="M2242.4,3063.53c482.38,278.5-53.59,464.16,428.79,742.66"/>
    <path class="st1" d="M1813.61,2320.87c482.38,278.5-53.59,464.16,428.79,742.66"/>
  </g>
  <g id="_x38_5" class="st3">
    <path class="st1" d="M1813.63,835.51c-547.3,185.67-643.15,185.67-643.15,0h-214.38"/>
    <path class="st1" d="M98.56,835.51c547.3-185.67,643.15-185.67,643.15,0h214.38"/>
    <path class="st1" d="M527.33,92.86c434.44,381.14,482.37,464.15,321.58,556.99l107.19,185.66"/>
    <path class="st1" d="M1384.86,1578.16c-434.44-381.14-482.37-464.15-321.58-556.99l-107.19-185.66"/>
    <path class="st1" d="M527.33,1578.16c112.85-566.81,160.78-649.82,321.58-556.99l107.19-185.66"/>
    <path class="st1" d="M1384.86,92.86c-112.86,566.81-160.78,649.82-321.58,556.99l-107.19,185.66"/>
    <path class="st1" d="M527.43,1578.16c-547.3,185.67-643.15,185.67-643.15,0h-214.38"/>
    <path class="st1" d="M-1187.65,1578.16c547.3-185.67,643.15-185.67,643.15,0h214.38"/>
    <path class="st1" d="M-758.88,835.51c434.44,381.14,482.37,464.15,321.58,556.99l107.19,185.66"/>
    <path class="st1" d="M98.66,2320.81c-434.44-381.14-482.37-464.15-321.58-556.99l-107.19-185.66"/>
    <path class="st1" d="M-758.88,2320.81c112.86-566.81,160.78-649.82,321.58-556.99l107.19-185.66"/>
    <path class="st1" d="M98.66,835.51C-14.2,1402.32-62.12,1485.33-222.92,1392.5l-107.19,185.66"/>
    <path class="st1" d="M1813.63-649.79c-547.3,185.67-643.15,185.67-643.15,0h-214.38"/>
    <path class="st1" d="M98.56-649.79c547.3-185.67,643.15-185.67,643.15,0h214.38"/>
    <path class="st1" d="M527.33-1392.44c434.44,381.14,482.37,464.15,321.58,556.99l107.19,185.66"/>
    <path class="st1" d="M1384.86,92.86c-434.44-381.14-482.37-464.15-321.58-556.99l-107.19-185.66"/>
    <path class="st1" d="M527.33,92.86c112.85-566.81,160.78-649.82,321.58-556.99l107.19-185.66"/>
    <path class="st1" d="M1384.86-1392.44c-112.86,566.81-160.78,649.82-321.58,556.99l-107.19,185.66"/>
    <path class="st1" d="M527.43,92.86C-19.87,278.53-115.72,278.53-115.72,92.86h-214.38"/>
    <path class="st1" d="M-1187.65,92.86c547.3-185.67,643.15-185.67,643.15,0h214.38"/>
    <path class="st1" d="M-758.88-649.79C-324.43-268.65-276.51-185.63-437.3-92.8l107.19,185.66"/>
    <path class="st1" d="M98.66,835.51C-335.78,454.37-383.71,371.36-222.92,278.53l-107.19-185.66"/>
    <path class="st1" d="M-758.88,835.51c112.86-566.81,160.78-649.82,321.58-556.99l107.19-185.66"/>
    <path class="st1" d="M98.66-649.79C-14.2-82.98-62.12.04-222.92-92.8l-107.19,185.66"/>
    <path class="st1" d="M4386.24,835.51c-547.3,185.67-643.15,185.67-643.15,0h-214.38"/>
    <path class="st1" d="M2671.17,835.51c547.3-185.67,643.15-185.67,643.15,0h214.38"/>
    <path class="st1" d="M3099.94,92.86c434.44,381.14,482.37,464.15,321.58,556.99l107.19,185.66"/>
    <path class="st1" d="M3957.47,1578.16c-434.44-381.14-482.37-464.15-321.58-556.99l-107.19-185.66"/>
    <path class="st1" d="M3099.94,1578.16c112.85-566.81,160.78-649.82,321.58-556.99l107.19-185.66"/>
    <path class="st1" d="M3957.47,92.86c-112.86,566.81-160.78,649.82-321.58,556.99l-107.19,185.66"/>
    <path class="st1" d="M3100.04,1578.16c-547.3,185.67-643.15,185.67-643.15,0h-214.38"/>
    <path class="st1" d="M1384.96,1578.16c547.3-185.67,643.15-185.67,643.15,0h214.38"/>
    <path class="st1" d="M1813.73,835.51c434.44,381.14,482.37,464.15,321.58,556.99l107.19,185.66"/>
    <path class="st1" d="M2671.27,2320.81c-434.44-381.14-482.37-464.15-321.58-556.99l-107.19-185.66"/>
    <path class="st1" d="M1813.73,2320.81c112.86-566.81,160.78-649.82,321.58-556.99l107.19-185.66"/>
    <path class="st1" d="M2671.27,835.51c-112.86,566.81-160.78,649.82-321.58,556.99l-107.19,185.66"/>
    <path class="st1" d="M4386.24-649.79c-547.3,185.67-643.15,185.67-643.15,0h-214.38"/>
    <path class="st1" d="M2671.17-649.79c547.3-185.67,643.15-185.67,643.15,0h214.38"/>
    <path class="st1" d="M3099.94-1392.44c434.44,381.14,482.37,464.15,321.58,556.99l107.19,185.66"/>
    <path class="st1" d="M3957.47,92.86c-434.44-381.14-482.37-464.15-321.58-556.99l-107.19-185.66"/>
    <path class="st1" d="M3099.94,92.86c112.85-566.81,160.78-649.82,321.58-556.99l107.19-185.66"/>
    <path class="st1" d="M3957.47-1392.44c-112.86,566.81-160.78,649.82-321.58,556.99l-107.19,185.66"/>
    <path class="st1" d="M3100.04,92.86c-547.3,185.67-643.15,185.67-643.15,0h-214.38"/>
    <path class="st1" d="M1384.96,92.86c547.3-185.67,643.15-185.67,643.15,0h214.38"/>
    <path class="st1" d="M1813.73-649.79c434.44,381.14,482.37,464.15,321.58,556.99l107.19,185.66"/>
    <path class="st1" d="M2671.27,835.51c-434.44-381.14-482.37-464.15-321.58-556.99l-107.19-185.66"/>
    <path class="st1" d="M1813.73,835.51c112.86-566.81,160.78-649.82,321.58-556.99l107.19-185.66"/>
    <path class="st1" d="M2671.27-649.79C2558.41-82.98,2510.49.04,2349.69-92.8l-107.19,185.66"/>
    <path class="st1" d="M6958.85,835.51c-547.3,185.67-643.15,185.67-643.15,0h-214.38"/>
    <path class="st1" d="M5243.78,835.51c547.3-185.67,643.15-185.67,643.15,0h214.38"/>
    <path class="st1" d="M5672.55,92.86c434.45,381.14,482.37,464.15,321.58,556.99l107.19,185.66"/>
    <path class="st1" d="M6530.08,1578.16c-434.44-381.14-482.37-464.15-321.58-556.99l-107.19-185.66"/>
    <path class="st1" d="M5672.55,1578.16c112.86-566.81,160.78-649.82,321.58-556.99l107.19-185.66"/>
    <path class="st1" d="M6530.08,92.86c-112.86,566.81-160.78,649.82-321.57,556.99l-107.19,185.66"/>
    <path class="st1" d="M5672.65,1578.16c-547.3,185.67-643.15,185.67-643.15,0h-214.38"/>
    <path class="st1" d="M3957.58,1578.16c547.3-185.67,643.15-185.67,643.15,0h214.38"/>
    <path class="st1" d="M4386.34,835.51c434.44,381.14,482.37,464.15,321.58,556.99l107.19,185.66"/>
    <path class="st1" d="M5243.88,2320.81c-434.44-381.14-482.37-464.15-321.58-556.99l-107.19-185.66"/>
    <path class="st1" d="M4386.34,2320.81c112.86-566.81,160.78-649.82,321.58-556.99l107.19-185.66"/>
    <path class="st1" d="M5243.88,835.51c-112.86,566.81-160.78,649.82-321.58,556.99l-107.19,185.66"/>
    <path class="st1" d="M6958.85-649.79c-547.3,185.67-643.15,185.67-643.15,0h-214.38"/>
    <path class="st1" d="M5243.78-649.79c547.3-185.67,643.15-185.67,643.15,0h214.38"/>
    <path class="st1" d="M5672.55-1392.44c434.45,381.14,482.37,464.15,321.58,556.99l107.19,185.66"/>
    <path class="st1" d="M6530.08,92.86c-434.44-381.14-482.37-464.15-321.58-556.99l-107.19-185.66"/>
    <path class="st1" d="M5672.55,92.86c112.86-566.81,160.78-649.82,321.58-556.99l107.19-185.66"/>
    <path class="st1" d="M6530.08-1392.44c-112.86,566.81-160.78,649.82-321.57,556.99l-107.19,185.66"/>
    <path class="st1" d="M5672.65,92.86c-547.3,185.67-643.15,185.67-643.15,0h-214.38"/>
    <path class="st1" d="M3957.58,92.86c547.3-185.67,643.15-185.67,643.15,0h214.38"/>
    <path class="st1" d="M4386.34-649.79c434.44,381.14,482.37,464.15,321.58,556.99l107.19,185.66"/>
    <path class="st1" d="M5243.88,835.51c-434.44-381.14-482.37-464.15-321.58-556.99l-107.19-185.66"/>
    <path class="st1" d="M4386.34,835.51c112.86-566.81,160.78-649.82,321.58-556.99l107.19-185.66"/>
    <path class="st1" d="M5243.88-649.79C5131.03-82.98,5083.1.04,4922.3-92.8l-107.19,185.66"/>
    <path class="st1" d="M1813.63,3806.14c-547.3,185.67-643.15,185.67-643.15,0h-214.38"/>
    <path class="st1" d="M98.56,3806.14c547.3-185.67,643.15-185.67,643.15,0h214.38"/>
    <path class="st1" d="M527.33,3063.49c434.44,381.14,482.37,464.15,321.58,556.99l107.19,185.66"/>
    <path class="st1" d="M1384.86,4548.78c-434.44-381.14-482.37-464.15-321.58-556.99l-107.19-185.66"/>
    <path class="st1" d="M527.33,4548.78c112.85-566.81,160.78-649.82,321.58-556.99l107.19-185.66"/>
    <path class="st1" d="M1384.86,3063.49c-112.86,566.81-160.78,649.82-321.58,556.99l-107.19,185.66"/>
    <path class="st1" d="M527.43,4548.79c-547.3,185.67-643.15,185.67-643.15,0h-214.38"/>
    <path class="st1" d="M-1187.65,4548.79c547.3-185.67,643.15-185.67,643.15,0h214.38"/>
    <path class="st1" d="M-758.88,3806.14c434.44,381.14,482.37,464.15,321.58,556.99l107.19,185.66"/>
    <path class="st1" d="M98.66,5291.43c-434.44-381.14-482.37-464.15-321.58-556.99l-107.19-185.66"/>
    <path class="st1" d="M-758.88,5291.43c112.86-566.81,160.78-649.82,321.58-556.99l107.19-185.66"/>
    <path class="st1" d="M98.66,3806.14c-112.86,566.81-160.78,649.82-321.58,556.99l-107.19,185.66"/>
    <path class="st1" d="M1813.63,2320.84c-547.3,185.67-643.15,185.67-643.15,0h-214.38"/>
    <path class="st1" d="M98.56,2320.84c547.3-185.67,643.15-185.67,643.15,0h214.38"/>
    <path class="st1" d="M527.33,1578.19c434.44,381.14,482.37,464.15,321.58,556.99l107.19,185.66"/>
    <path class="st1" d="M1384.86,3063.49c-434.44-381.14-482.37-464.15-321.58-556.99l-107.19-185.66"/>
    <path class="st1" d="M527.33,3063.49c112.85-566.81,160.78-649.82,321.58-556.99l107.19-185.66"/>
    <path class="st1" d="M1384.86,1578.19c-112.86,566.81-160.78,649.82-321.58,556.99l-107.19,185.66"/>
    <path class="st1" d="M527.43,3063.49c-547.3,185.67-643.15,185.67-643.15,0h-214.38"/>
    <path class="st1" d="M-1187.65,3063.49c547.3-185.67,643.15-185.67,643.15,0h214.38"/>
    <path class="st1" d="M-758.88,2320.84c434.44,381.14,482.37,464.15,321.58,556.99l107.19,185.66"/>
    <path class="st1" d="M98.66,3806.14c-434.44-381.14-482.37-464.15-321.58-556.99l-107.19-185.66"/>
    <path class="st1" d="M-758.88,3806.14c112.86-566.81,160.78-649.82,321.58-556.99l107.19-185.66"/>
    <path class="st1" d="M98.66,2320.84c-112.86,566.81-160.78,649.82-321.58,556.99l-107.19,185.66"/>
    <path class="st1" d="M4386.24,3806.14c-547.3,185.67-643.15,185.67-643.15,0h-214.38"/>
    <path class="st1" d="M2671.17,3806.14c547.3-185.67,643.15-185.67,643.15,0h214.38"/>
    <path class="st1" d="M3099.94,3063.49c434.44,381.14,482.37,464.15,321.58,556.99l107.19,185.66"/>
    <path class="st1" d="M3957.47,4548.78c-434.44-381.14-482.37-464.15-321.58-556.99l-107.19-185.66"/>
    <path class="st1" d="M3099.94,4548.78c112.85-566.81,160.78-649.82,321.58-556.99l107.19-185.66"/>
    <path class="st1" d="M3957.47,3063.49c-112.86,566.81-160.78,649.82-321.58,556.99l-107.19,185.66"/>
    <path class="st1" d="M3100.04,4548.79c-547.3,185.67-643.15,185.67-643.15,0h-214.38"/>
    <path class="st1" d="M1384.96,4548.79c547.3-185.67,643.15-185.67,643.15,0h214.38"/>
    <path class="st1" d="M1813.73,3806.14c434.44,381.14,482.37,464.15,321.58,556.99l107.19,185.66"/>
    <path class="st1" d="M2671.27,5291.43c-434.44-381.14-482.37-464.15-321.58-556.99l-107.19-185.66"/>
    <path class="st1" d="M1813.73,5291.43c112.86-566.81,160.78-649.82,321.58-556.99l107.19-185.66"/>
    <path class="st1" d="M2671.27,3806.14c-112.86,566.81-160.78,649.82-321.58,556.99l-107.19,185.66"/>
    <path class="st1" d="M4386.24,2320.84c-547.3,185.67-643.15,185.67-643.15,0h-214.38"/>
    <path class="st1" d="M2671.17,2320.84c547.3-185.67,643.15-185.67,643.15,0h214.38"/>
    <path class="st1" d="M3099.94,1578.19c434.44,381.14,482.37,464.15,321.58,556.99l107.19,185.66"/>
    <path class="st1" d="M3957.47,3063.49c-434.44-381.14-482.37-464.15-321.58-556.99l-107.19-185.66"/>
    <path class="st1" d="M3099.94,3063.49c112.85-566.81,160.78-649.82,321.58-556.99l107.19-185.66"/>
    <path class="st1" d="M3957.47,1578.19c-112.86,566.81-160.78,649.82-321.58,556.99l-107.19,185.66"/>
    <path class="st1" d="M3100.04,3063.49c-547.3,185.67-643.15,185.67-643.15,0h-214.38"/>
    <path class="st1" d="M1384.96,3063.49c547.3-185.67,643.15-185.67,643.15,0h214.38"/>
    <path class="st1" d="M1813.73,2320.84c434.44,381.14,482.37,464.15,321.58,556.99l107.19,185.66"/>
    <path class="st1" d="M2671.27,3806.14c-434.44-381.14-482.37-464.15-321.58-556.99l-107.19-185.66"/>
    <path class="st1" d="M1813.73,3806.14c112.86-566.81,160.78-649.82,321.58-556.99l107.19-185.66"/>
    <path class="st1" d="M2671.27,2320.84c-112.86,566.81-160.78,649.82-321.58,556.99l-107.19,185.66"/>
    <path class="st1" d="M6958.85,3806.14c-547.3,185.67-643.15,185.67-643.15,0h-214.38"/>
    <path class="st1" d="M5243.78,3806.14c547.3-185.67,643.15-185.67,643.15,0h214.38"/>
    <path class="st1" d="M5672.55,3063.49c434.45,381.14,482.37,464.15,321.58,556.99l107.19,185.66"/>
    <path class="st1" d="M6530.08,4548.78c-434.44-381.14-482.37-464.15-321.58-556.99l-107.19-185.66"/>
    <path class="st1" d="M5672.55,4548.78c112.86-566.81,160.78-649.82,321.58-556.99l107.19-185.66"/>
    <path class="st1" d="M6530.08,3063.49c-112.86,566.81-160.78,649.82-321.57,556.99l-107.19,185.66"/>
    <path class="st1" d="M5672.65,4548.79c-547.3,185.67-643.15,185.67-643.15,0h-214.38"/>
    <path class="st1" d="M3957.58,4548.79c547.3-185.67,643.15-185.67,643.15,0h214.38"/>
    <path class="st1" d="M4386.34,3806.14c434.44,381.14,482.37,464.15,321.58,556.99l107.19,185.66"/>
    <path class="st1" d="M5243.88,5291.43c-434.44-381.14-482.37-464.15-321.58-556.99l-107.19-185.66"/>
    <path class="st1" d="M4386.34,5291.43c112.86-566.81,160.78-649.82,321.58-556.99l107.19-185.66"/>
    <path class="st1" d="M5243.88,3806.14c-112.86,566.81-160.78,649.82-321.58,556.99l-107.19,185.66"/>
    <path class="st1" d="M6958.85,2320.84c-547.3,185.67-643.15,185.67-643.15,0h-214.38"/>
    <path class="st1" d="M5243.78,2320.84c547.3-185.67,643.15-185.67,643.15,0h214.38"/>
    <path class="st1" d="M5672.55,1578.19c434.45,381.14,482.37,464.15,321.58,556.99l107.19,185.66"/>
    <path class="st1" d="M6530.08,3063.49c-434.44-381.14-482.37-464.15-321.58-556.99l-107.19-185.66"/>
    <path class="st1" d="M5672.55,3063.49c112.86-566.81,160.78-649.82,321.58-556.99l107.19-185.66"/>
    <path class="st1" d="M6530.08,1578.19c-112.86,566.81-160.78,649.82-321.57,556.99l-107.19,185.66"/>
    <path class="st1" d="M5672.65,3063.49c-547.3,185.67-643.15,185.67-643.15,0h-214.38"/>
    <path class="st1" d="M3957.58,3063.49c547.3-185.67,643.15-185.67,643.15,0h214.38"/>
    <path class="st1" d="M4386.34,2320.84c434.44,381.14,482.37,464.15,321.58,556.99l107.19,185.66"/>
    <path class="st1" d="M5243.88,3806.14c-434.44-381.14-482.37-464.15-321.58-556.99l-107.19-185.66"/>
    <path class="st1" d="M4386.34,3806.14c112.86-566.81,160.78-649.82,321.58-556.99l107.19-185.66"/>
    <path class="st1" d="M5243.88,2320.84c-112.86,566.81-160.78,649.82-321.58,556.99l-107.19,185.66"/>
  </g>
  <g id="_x38_6">
    <path class="st1" d="M1384.86,835.51c-99.24,109.79-184.28,535.75,0,742.68"/>
    <path class="st1" d="M527.33,835.51c99.24-109.79,184.28-535.75,0-742.68"/>
    <path class="st1" d="M741.71,464.18c144.7,31.05,556.11-108.28,643.18-371.34"/>
    <path class="st1" d="M1170.48,1206.83c-144.7-31.05-556.12,108.28-643.18,371.34"/>
    <path class="st1" d="M741.71,1206.83c-45.46-140.84-371.83-427.47-643.18-371.34"/>
    <path class="st1" d="M1170.48,464.18c45.46,140.84,371.83,427.47,643.18,371.34"/>
    <path class="st1" d="M98.51,1578.19c-99.24,109.79-184.29,535.75,0,742.68"/>
    <path class="st1" d="M-759.03,1578.19c99.24-109.79,184.29-535.75,0-742.68"/>
    <path class="st1" d="M-544.64,1206.86c144.7,31.05,556.12-108.28,643.18-371.34"/>
    <path class="st1" d="M-115.88,1949.51c-144.7-31.05-556.12,108.28-643.18,371.34"/>
    <path class="st1" d="M-544.64,1949.51c-45.46-140.84-371.83-427.47-643.18-371.34"/>
    <path class="st1" d="M-115.88,1206.86c45.46,140.84,371.83,427.47,643.18,371.34"/>
    <path class="st1" d="M1384.86-649.84c-99.24,109.79-184.28,535.75,0,742.68"/>
    <path class="st1" d="M527.33-649.84c99.24-109.79,184.28-535.75,0-742.68"/>
    <path class="st1" d="M741.71-1021.17c144.7,31.05,556.11-108.28,643.18-371.34"/>
    <path class="st1" d="M1170.48-278.52c-144.7-31.05-556.12,108.28-643.18,371.34"/>
    <path class="st1" d="M741.71-278.52c-45.46-140.84-371.83-427.47-643.18-371.34"/>
    <path class="st1" d="M1170.48-1021.17c45.46,140.84,371.83,427.47,643.18,371.34"/>
    <path class="st1" d="M98.51,92.84c-99.24,109.79-184.29,535.75,0,742.68"/>
    <path class="st1" d="M-759.03,92.84c99.24-109.79,184.29-535.75,0-742.68"/>
    <path class="st1" d="M-544.64-278.49C-399.95-247.44,11.47-386.77,98.53-649.83"/>
    <path class="st1" d="M-115.88,464.16c-144.7-31.05-556.12,108.28-643.18,371.34"/>
    <path class="st1" d="M-544.64,464.16c-45.46-140.84-371.83-427.47-643.18-371.34"/>
    <path class="st1" d="M-115.88-278.49C-70.42-137.65,255.96,148.98,527.3,92.85"/>
    <path class="st1" d="M3957.47,835.51c-99.24,109.79-184.29,535.75,0,742.68"/>
    <path class="st1" d="M3099.94,835.51c99.24-109.79,184.29-535.75,0-742.68"/>
    <path class="st1" d="M3314.32,464.18c144.7,31.05,556.12-108.28,643.18-371.34"/>
    <path class="st1" d="M3743.09,1206.83c-144.7-31.05-556.12,108.28-643.18,371.34"/>
    <path class="st1" d="M3314.32,1206.83c-45.46-140.84-371.83-427.47-643.18-371.34"/>
    <path class="st1" d="M3743.09,464.18c45.46,140.84,371.83,427.47,643.18,371.34"/>
    <path class="st1" d="M2671.12,1578.19c-99.24,109.79-184.29,535.75,0,742.68"/>
    <path class="st1" d="M1813.58,1578.19c99.24-109.79,184.29-535.75,0-742.68"/>
    <path class="st1" d="M2027.97,1206.86c144.7,31.05,556.12-108.28,643.18-371.34"/>
    <path class="st1" d="M2456.74,1949.51c-144.7-31.05-556.12,108.28-643.18,371.34"/>
    <path class="st1" d="M2027.97,1949.51c-45.46-140.84-371.83-427.47-643.18-371.34"/>
    <path class="st1" d="M2456.74,1206.86c45.46,140.84,371.83,427.47,643.18,371.34"/>
    <path class="st1" d="M3957.47-649.84c-99.24,109.79-184.29,535.75,0,742.68"/>
    <path class="st1" d="M3099.94-649.84c99.24-109.79,184.29-535.75,0-742.68"/>
    <path class="st1" d="M3314.32-1021.17c144.7,31.05,556.12-108.28,643.18-371.34"/>
    <path class="st1" d="M3743.09-278.52c-144.7-31.05-556.12,108.28-643.18,371.34"/>
    <path class="st1" d="M3314.32-278.52c-45.46-140.84-371.83-427.47-643.18-371.34"/>
    <path class="st1" d="M3743.09-1021.17c45.46,140.84,371.83,427.47,643.18,371.34"/>
    <path class="st1" d="M2671.12,92.84c-99.24,109.79-184.29,535.75,0,742.68"/>
    <path class="st1" d="M1813.58,92.84c99.24-109.79,184.29-535.75,0-742.68"/>
    <path class="st1" d="M2027.97-278.49c144.7,31.05,556.12-108.28,643.18-371.34"/>
    <path class="st1" d="M2456.74,464.16c-144.7-31.05-556.12,108.28-643.18,371.34"/>
    <path class="st1" d="M2027.97,464.16c-45.46-140.84-371.83-427.47-643.18-371.34"/>
    <path class="st1" d="M2456.74-278.49c45.46,140.84,371.83,427.47,643.18,371.34"/>
    <path class="st1" d="M6530.09,835.51c-99.24,109.79-184.29,535.75,0,742.68"/>
    <path class="st1" d="M5672.55,835.51c99.24-109.79,184.29-535.75,0-742.68"/>
    <path class="st1" d="M5886.93,464.18c144.7,31.05,556.12-108.28,643.18-371.34"/>
    <path class="st1" d="M6315.7,1206.83c-144.7-31.05-556.12,108.28-643.18,371.34"/>
    <path class="st1" d="M5886.93,1206.83c-45.46-140.84-371.83-427.47-643.18-371.34"/>
    <path class="st1" d="M6315.7,464.18c45.46,140.84,371.83,427.47,643.18,371.34"/>
    <path class="st1" d="M5243.73,1578.19c-99.24,109.79-184.29,535.75,0,742.68"/>
    <path class="st1" d="M4386.19,1578.19c99.24-109.79,184.29-535.75,0-742.68"/>
    <path class="st1" d="M4600.58,1206.86c144.7,31.05,556.12-108.28,643.18-371.34"/>
    <path class="st1" d="M5029.35,1949.51c-144.7-31.05-556.12,108.28-643.18,371.34"/>
    <path class="st1" d="M4600.58,1949.51c-45.46-140.84-371.83-427.47-643.18-371.34"/>
    <path class="st1" d="M5029.35,1206.86c45.46,140.84,371.83,427.47,643.18,371.34"/>
    <path class="st1" d="M6530.09-649.84c-99.24,109.79-184.29,535.75,0,742.68"/>
    <path class="st1" d="M5672.55-649.84c99.24-109.79,184.29-535.75,0-742.68"/>
    <path class="st1" d="M5886.93-1021.17c144.7,31.05,556.12-108.28,643.18-371.34"/>
    <path class="st1" d="M6315.7-278.52c-144.7-31.05-556.12,108.28-643.18,371.34"/>
    <path class="st1" d="M5886.93-278.52c-45.46-140.84-371.83-427.47-643.18-371.34"/>
    <path class="st1" d="M6315.7-1021.17c45.46,140.84,371.83,427.47,643.18,371.34"/>
    <path class="st1" d="M5243.73,92.84c-99.24,109.79-184.29,535.75,0,742.68"/>
    <path class="st1" d="M4386.19,92.84c99.24-109.79,184.29-535.75,0-742.68"/>
    <path class="st1" d="M4600.58-278.49c144.7,31.05,556.12-108.28,643.18-371.34"/>
    <path class="st1" d="M5029.35,464.16c-144.7-31.05-556.12,108.28-643.18,371.34"/>
    <path class="st1" d="M4600.58,464.16c-45.46-140.84-371.83-427.47-643.18-371.34"/>
    <path class="st1" d="M5029.35-278.49c45.46,140.84,371.83,427.47,643.18,371.34"/>
    <path class="st1" d="M1384.86,3806.21c-99.24,109.79-184.28,535.75,0,742.68"/>
    <path class="st1" d="M527.33,3806.21c99.24-109.79,184.28-535.75,0-742.68"/>
    <path class="st1" d="M741.71,3434.88c144.7,31.05,556.11-108.28,643.18-371.34"/>
    <path class="st1" d="M1170.48,4177.53c-144.7-31.05-556.12,108.28-643.18,371.34"/>
    <path class="st1" d="M741.71,4177.53c-45.46-140.84-371.83-427.47-643.18-371.34"/>
    <path class="st1" d="M1170.48,3434.88c45.46,140.84,371.83,427.47,643.18,371.34"/>
    <path class="st1" d="M98.51,4548.89c-99.24,109.79-184.29,535.75,0,742.68"/>
    <path class="st1" d="M-759.03,4548.89c99.24-109.79,184.29-535.75,0-742.68"/>
    <path class="st1" d="M-544.64,4177.56c144.7,31.05,556.12-108.28,643.18-371.34"/>
    <path class="st1" d="M-115.88,4920.21c-144.7-31.05-556.12,108.28-643.18,371.34"/>
    <path class="st1" d="M-544.64,4920.21c-45.46-140.84-371.83-427.47-643.18-371.34"/>
    <path class="st1" d="M-115.88,4177.56c45.46,140.84,371.83,427.47,643.18,371.34"/>
    <path class="st1" d="M1384.86,2320.85c-99.24,109.79-184.28,535.75,0,742.68"/>
    <path class="st1" d="M527.33,2320.85c99.24-109.79,184.28-535.75,0-742.68"/>
    <path class="st1" d="M741.71,1949.53c144.7,31.05,556.11-108.28,643.18-371.34"/>
    <path class="st1" d="M1170.48,2692.18c-144.7-31.05-556.12,108.28-643.18,371.34"/>
    <path class="st1" d="M741.71,2692.18c-45.46-140.84-371.83-427.47-643.18-371.34"/>
    <path class="st1" d="M1170.48,1949.53c45.46,140.84,371.83,427.47,643.18,371.34"/>
    <path class="st1" d="M98.51,3063.53c-99.24,109.79-184.29,535.75,0,742.68"/>
    <path class="st1" d="M-759.03,3063.53c99.24-109.79,184.29-535.75,0-742.68"/>
    <path class="st1" d="M-544.64,2692.21c144.7,31.05,556.12-108.28,643.18-371.34"/>
    <path class="st1" d="M-115.88,3434.86c-144.7-31.05-556.12,108.28-643.18,371.34"/>
    <path class="st1" d="M-544.64,3434.86c-45.46-140.84-371.83-427.47-643.18-371.34"/>
    <path class="st1" d="M-115.88,2692.21c45.46,140.84,371.83,427.47,643.18,371.34"/>
    <path class="st1" d="M3957.47,3806.21c-99.24,109.79-184.29,535.75,0,742.68"/>
    <path class="st1" d="M3099.94,3806.21c99.24-109.79,184.29-535.75,0-742.68"/>
    <path class="st1" d="M3314.32,3434.88c144.7,31.05,556.12-108.28,643.18-371.34"/>
    <path class="st1" d="M3743.09,4177.53c-144.7-31.05-556.12,108.28-643.18,371.34"/>
    <path class="st1" d="M3314.32,4177.53c-45.46-140.84-371.83-427.47-643.18-371.34"/>
    <path class="st1" d="M3743.09,3434.88c45.46,140.84,371.83,427.47,643.18,371.34"/>
    <path class="st1" d="M2671.12,4548.89c-99.24,109.79-184.29,535.75,0,742.68"/>
    <path class="st1" d="M1813.58,4548.89c99.24-109.79,184.29-535.75,0-742.68"/>
    <path class="st1" d="M2027.97,4177.56c144.7,31.05,556.12-108.28,643.18-371.34"/>
    <path class="st1" d="M2456.74,4920.21c-144.7-31.05-556.12,108.28-643.18,371.34"/>
    <path class="st1" d="M2027.97,4920.21c-45.46-140.84-371.83-427.47-643.18-371.34"/>
    <path class="st1" d="M2456.74,4177.56c45.46,140.84,371.83,427.47,643.18,371.34"/>
    <path class="st1" d="M3957.47,2320.85c-99.24,109.79-184.29,535.75,0,742.68"/>
    <path class="st1" d="M3099.94,2320.85c99.24-109.79,184.29-535.75,0-742.68"/>
    <path class="st1" d="M3314.32,1949.53c144.7,31.05,556.12-108.28,643.18-371.34"/>
    <path class="st1" d="M3743.09,2692.18c-144.7-31.05-556.12,108.28-643.18,371.34"/>
    <path class="st1" d="M3314.32,2692.18c-45.46-140.84-371.83-427.47-643.18-371.34"/>
    <path class="st1" d="M3743.09,1949.53c45.46,140.84,371.83,427.47,643.18,371.34"/>
    <path class="st1" d="M2671.12,3063.53c-99.24,109.79-184.29,535.75,0,742.68"/>
    <path class="st1" d="M1813.58,3063.53c99.24-109.79,184.29-535.75,0-742.68"/>
    <path class="st1" d="M2027.97,2692.21c144.7,31.05,556.12-108.28,643.18-371.34"/>
    <path class="st1" d="M2456.74,3434.86c-144.7-31.05-556.12,108.28-643.18,371.34"/>
    <path class="st1" d="M2027.97,3434.86c-45.46-140.84-371.83-427.47-643.18-371.34"/>
    <path class="st1" d="M2456.74,2692.21c45.46,140.84,371.83,427.47,643.18,371.34"/>
    <path class="st1" d="M6530.09,3806.21c-99.24,109.79-184.29,535.75,0,742.68"/>
    <path class="st1" d="M5672.55,3806.21c99.24-109.79,184.29-535.75,0-742.68"/>
    <path class="st1" d="M5886.93,3434.88c144.7,31.05,556.12-108.28,643.18-371.34"/>
    <path class="st1" d="M6315.7,4177.53c-144.7-31.05-556.12,108.28-643.18,371.34"/>
    <path class="st1" d="M5886.93,4177.53c-45.46-140.84-371.83-427.47-643.18-371.34"/>
    <path class="st1" d="M6315.7,3434.88c45.46,140.84,371.83,427.47,643.18,371.34"/>
    <path class="st1" d="M5243.73,4548.89c-99.24,109.79-184.29,535.75,0,742.68"/>
    <path class="st1" d="M4386.19,4548.89c99.24-109.79,184.29-535.75,0-742.68"/>
    <path class="st1" d="M4600.58,4177.56c144.7,31.05,556.12-108.28,643.18-371.34"/>
    <path class="st1" d="M5029.35,4920.21c-144.7-31.05-556.12,108.28-643.18,371.34"/>
    <path class="st1" d="M4600.58,4920.21c-45.46-140.84-371.83-427.47-643.18-371.34"/>
    <path class="st1" d="M5029.35,4177.56c45.46,140.84,371.83,427.47,643.18,371.34"/>
    <path class="st1" d="M6530.09,2320.85c-99.24,109.79-184.29,535.75,0,742.68"/>
    <path class="st1" d="M5672.55,2320.85c99.24-109.79,184.29-535.75,0-742.68"/>
    <path class="st1" d="M5886.93,1949.53c144.7,31.05,556.12-108.28,643.18-371.34"/>
    <path class="st1" d="M6315.7,2692.18c-144.7-31.05-556.12,108.28-643.18,371.34"/>
    <path class="st1" d="M5886.93,2692.18c-45.46-140.84-371.83-427.47-643.18-371.34"/>
    <path class="st1" d="M6315.7,1949.53c45.46,140.84,371.83,427.47,643.18,371.34"/>
    <path class="st1" d="M5243.73,3063.53c-99.24,109.79-184.29,535.75,0,742.68"/>
    <path class="st1" d="M4386.19,3063.53c99.24-109.79,184.29-535.75,0-742.68"/>
    <path class="st1" d="M4600.58,2692.21c144.7,31.05,556.12-108.28,643.18-371.34"/>
    <path class="st1" d="M5029.35,3434.86c-144.7-31.05-556.12,108.28-643.18,371.34"/>
    <path class="st1" d="M4600.58,3434.86c-45.46-140.84-371.83-427.47-643.18-371.34"/>
    <path class="st1" d="M5029.35,2692.21c45.46,140.84,371.83,427.47,643.18,371.34"/>
  </g>
  <g id="_x38_6b">
    <path class="st1" d="M1170.48,1206.83c-321.58,185.69-107.19,559.17-428.77,742.7"/>
    <path class="st1" d="M741.71,464.17c321.58-185.69,107.19-559.17,428.77-742.7"/>
    <path class="st1" d="M1170.48,464.18c321.6,185.65,537.85-186.75,857.58-.02"/>
    <path class="st1" d="M741.7,1206.83c-321.6-185.65-537.85,186.75-857.58.02"/>
    <path class="st1" d="M527.32,835.5c-.02-371.34-430.66-372.41-428.81-742.67"/>
    <path class="st1" d="M1384.87,835.51c.02,371.34,430.66,372.41,428.81,742.67"/>
    <path class="st1" d="M-115.83,1949.52c-321.58,185.69-107.19,559.17-428.77,742.7"/>
    <path class="st1" d="M-544.59,1206.86c321.58-185.69,107.19-559.17,428.77-742.7"/>
    <path class="st1" d="M-544.6,1949.51c-321.6-185.65-537.85,186.75-857.58.02"/>
    <path class="st1" d="M-758.98,1578.18c-.02-371.34-430.66-372.41-428.81-742.67"/>
    <path class="st1" d="M98.56,1578.19c.02,371.34,430.66,372.41,428.81,742.67"/>
    <path class="st1" d="M741.71-1021.18c321.58-185.69,107.19-559.17,428.77-742.7"/>
    <path class="st1" d="M1170.48-1021.18c321.6,185.65,537.85-186.75,857.58-.02"/>
    <path class="st1" d="M741.7-278.52c-321.6-185.65-537.85,186.75-857.58.02"/>
    <path class="st1" d="M527.32-649.85c-.02-371.34-430.66-372.41-428.81-742.67"/>
    <path class="st1" d="M1384.87-649.85c.02,371.34,430.66,372.41,428.81,742.67"/>
    <path class="st1" d="M-544.59-278.5c321.58-185.69,107.19-559.17,428.77-742.7"/>
    <path class="st1" d="M-544.6,464.16c-321.6-185.65-537.85,186.75-857.58.02"/>
    <path class="st1" d="M-758.98,92.83c-.02-371.34-430.66-372.41-428.81-742.67"/>
    <path class="st1" d="M3743.09,1206.83c-321.58,185.69-107.19,559.17-428.77,742.7"/>
    <path class="st1" d="M3314.32,464.17c321.58-185.69,107.19-559.17,428.77-742.7"/>
    <path class="st1" d="M3743.1,464.18c321.6,185.65,537.85-186.75,857.58-.02"/>
    <path class="st1" d="M3314.32,1206.83c-321.6-185.65-537.85,186.75-857.58.02"/>
    <path class="st1" d="M3099.93,835.5c-.02-371.34-430.66-372.41-428.81-742.67"/>
    <path class="st1" d="M3957.48,835.51c.02,371.34,430.65,372.41,428.81,742.67"/>
    <path class="st1" d="M2456.78,1949.52c-321.58,185.69-107.19,559.17-428.77,742.7"/>
    <path class="st1" d="M2028.02,1206.86c321.58-185.69,107.19-559.17,428.77-742.7"/>
    <path class="st1" d="M2028.01,1949.51c-321.6-185.65-537.85,186.75-857.58.02"/>
    <path class="st1" d="M2671.17,1578.19c.02,371.34,430.66,372.41,428.81,742.67"/>
    <path class="st1" d="M3314.32-1021.18c321.58-185.69,107.19-559.17,428.77-742.7"/>
    <path class="st1" d="M3743.1-1021.18c321.6,185.65,537.85-186.75,857.58-.02"/>
    <path class="st1" d="M3314.32-278.52c-321.6-185.65-537.85,186.75-857.58.02"/>
    <path class="st1" d="M3099.93-649.85c-.02-371.34-430.66-372.41-428.81-742.67"/>
    <path class="st1" d="M3957.48-649.85c.02,371.34,430.65,372.41,428.81,742.67"/>
    <path class="st1" d="M2028.02-278.5c321.58-185.69,107.19-559.17,428.77-742.7"/>
    <path class="st1" d="M1170.48,4177.56c-321.58,185.69-107.19,559.17-428.77,742.7"/>
    <path class="st1" d="M741.71,3434.9c321.58-185.69,107.19-559.17,428.77-742.7"/>
    <path class="st1" d="M1170.48,3434.91c321.6,185.65,537.85-186.75,857.58-.02"/>
    <path class="st1" d="M741.7,4177.56c-321.6-185.65-537.85,186.75-857.58.02"/>
    <path class="st1" d="M527.32,3806.23c-.02-371.34-430.66-372.41-428.81-742.67"/>
    <path class="st1" d="M1384.87,3806.24c.02,371.34,430.66,372.41,428.81,742.67"/>
    <path class="st1" d="M-115.83,4920.25c-321.58,185.69-107.19,559.17-428.77,742.7"/>
    <path class="st1" d="M-544.59,4177.59c321.58-185.69,107.19-559.17,428.77-742.7"/>
    <path class="st1" d="M-544.6,4920.24c-321.6-185.65-537.85,186.75-857.58.02"/>
    <path class="st1" d="M-758.98,4548.91c-.02-371.34-430.66-372.41-428.81-742.67"/>
    <path class="st1" d="M98.56,4548.92c.02,371.34,430.66,372.41,428.81,742.67"/>
    <path class="st1" d="M741.7,2692.21c-321.6-185.65-537.85,186.75-857.58.02"/>
    <path class="st1" d="M1384.87,2320.88c.02,371.34,430.66,372.41,428.81,742.67"/>
    <path class="st1" d="M-544.6,3434.89c-321.6-185.65-537.85,186.75-857.58.02"/>
    <path class="st1" d="M-758.98,3063.56c-.02-371.34-430.66-372.41-428.81-742.67"/>
    <path class="st1" d="M3743.09,4177.56c-321.58,185.69-107.19,559.17-428.77,742.7"/>
    <path class="st1" d="M3314.32,3434.9c321.58-185.69,107.19-559.17,428.77-742.7"/>
    <path class="st1" d="M3743.1,3434.91c321.6,185.65,537.85-186.75,857.58-.02"/>
    <path class="st1" d="M3314.32,4177.56c-321.6-185.65-537.85,186.75-857.58.02"/>
    <path class="st1" d="M3099.93,3806.23c-.02-371.34-430.66-372.41-428.81-742.67"/>
    <path class="st1" d="M3957.48,3806.24c.02,371.34,430.65,372.41,428.81,742.67"/>
    <path class="st1" d="M2456.78,4920.25c-321.58,185.69-107.19,559.17-428.77,742.7"/>
    <path class="st1" d="M2028.02,4177.59c321.58-185.69,107.19-559.17,428.77-742.7"/>
    <path class="st1" d="M2028.01,4920.24c-321.6-185.65-537.85,186.75-857.58.02"/>
    <path class="st1" d="M2671.17,4548.92c.02,371.34,430.66,372.41,428.81,742.67"/>
    <path class="st1" d="M3743.1,1949.55c321.6,185.65,537.85-186.75,857.58-.02"/>
    <path class="st1" d="M3314.32,2692.21c-321.6-185.65-537.85,186.75-857.58.02"/>
    <path class="st1" d="M3957.48,2320.88c.02,371.34,430.65,372.41,428.81,742.67"/>
  </g>
  <g id="_x33_._Sechseck" class="st3">
    <circle class="st2" cx="527.33" cy="464.17" r="21.26"/>
    <circle class="st2" cx="312.94" cy="464.17" r="21.26"/>
    <circle class="st2" cx="741.71" cy="464.17" r="21.26"/>
    <circle class="st2" cx="956.09" cy="464.17" r="21.26"/>
    <circle class="st2" cx="1170.48" cy="464.17" r="21.26"/>
    <circle class="st2" cx="527.33" cy="92.83" r="21.26"/>
    <circle class="st2" cx="741.71" cy="92.83" r="21.26"/>
    <circle class="st2" cx="956.09" cy="92.83" r="21.26"/>
    <circle class="st2" cx="1170.48" cy="92.83" r="21.26"/>
    <circle class="st2" cx="527.33" cy="1578.19" r="21.26"/>
    <circle class="st2" cx="312.94" cy="1206.85" r="21.26" transform="translate(-761.71 574.76) rotate(-45)"/>
    <circle class="st2" cx="741.71" cy="1578.19" r="21.26"/>
    <circle class="st2" cx="956.09" cy="1578.19" r="21.26"/>
    <circle class="st2" cx="1170.48" cy="1578.19" r="21.26"/>
    <circle class="st2" cx="527.33" cy="1206.85" r="21.26" transform="translate(-698.92 726.35) rotate(-45)"/>
    <circle class="st2" cx="741.71" cy="1206.85" r="21.26" transform="translate(-602.31 1654.31) rotate(-76.84)"/>
    <circle class="st2" cx="741.71" cy="835.51" r="21.26" transform="translate(-240.73 1367.51) rotate(-76.84)"/>
    <circle class="st2" cx="956.09" cy="1206.85" r="21.26" transform="translate(-399.2 1937.46) rotate(-79.94)"/>
    <circle class="st2" cx="1170.48" cy="1206.85" r="21.26" transform="translate(-372.74 539.79) rotate(-22.5)"/>
    <circle class="st2" cx="527.33" cy="835.51" r="21.26" transform="translate(-407.68 1154.74) rotate(-76.59)"/>
    <circle class="st2" cx="312.94" cy="835.51" r="21.26" transform="translate(-572.36 946.2) rotate(-76.59)"/>
    <circle class="st2" cx="98.56" cy="835.51" r="21.26" transform="translate(-741.89 797.68) rotate(-80.7)"/>
    <circle class="st2" cx="956.09" cy="835.51" r="21.26" transform="translate(-274.76 523.75) rotate(-26.94)"/>
    <circle class="st2" cx="1170.48" cy="835.51" r="21.26" transform="translate(158.27 1857.04) rotate(-80.78)"/>
    <circle class="st2" cx="1384.86" cy="835.51" r="21.26" transform="translate(253.53 1991.37) rotate(-76.72)"/>
    <circle class="st2" cx="420.13" cy="278.5" r="21.26" transform="translate(-52.22 454.45) rotate(-53.97)"/>
    <circle class="st2" cx="848.9" cy="278.5" r="21.26" transform="translate(384.44 1041.7) rotate(-76.84)"/>
    <circle class="st2" cx="1063.29" cy="278.5" r="21.26" transform="translate(-25.64 428.1) rotate(-22.5)"/>
    <circle class="st2" cx="634.52" cy="278.5" r="21.26" transform="translate(-11.08 530.24) rotate(-45)"/>
    <circle class="st2" cx="420.13" cy="1392.52" r="21.26" transform="translate(-953.14 913.2) rotate(-53.97)"/>
    <circle class="st2" cx="848.9" cy="1392.52" r="21.26" transform="translate(-700.32 1902.08) rotate(-76.84)"/>
    <circle class="st2" cx="1063.29" cy="1392.52" r="21.26" transform="translate(-451.96 512.9) rotate(-22.5)"/>
    <circle class="st2" cx="634.52" cy="1392.52" r="21.26" transform="translate(-798.81 856.53) rotate(-45)"/>
    <circle class="st2" cx="420.13" cy="1021.18" r="21.26"/>
    <circle class="st2" cx="205.75" cy="1021.18" r="21.26"/>
    <circle class="st2" cx="848.9" cy="1021.18" r="21.26"/>
    <circle class="st2" cx="1063.29" cy="1021.18" r="21.26"/>
    <circle class="st2" cx="1277.67" cy="1021.18" r="21.26"/>
    <circle class="st2" cx="634.52" cy="1021.18" r="21.26"/>
    <circle class="st2" cx="420.13" cy="649.84" r="21.26" transform="translate(-352.52 607.37) rotate(-53.97)"/>
    <circle class="st2" cx="634.52" cy="649.84" r="21.26" transform="translate(-273.66 639.01) rotate(-45)"/>
    <circle class="st2" cx="205.75" cy="649.84" r="21.26" transform="translate(-222.61 119.62) rotate(-21.37)"/>
    <circle class="st2" cx="1063.29" cy="649.84" r="21.26" transform="translate(-167.75 456.37) rotate(-22.5)"/>
    <circle class="st2" cx="1277.67" cy="649.84" r="21.26" transform="translate(-151.43 538.41) rotate(-22.5)"/>
    <circle class="st2" cx="1390.53" cy="464.17" r="21.26"/>
    <circle class="st2" cx="1390.53" cy="1206.85" r="21.26" transform="translate(-355.99 624) rotate(-22.5)"/>
    <circle class="st2" cx="1604.92" cy="835.51" r="21.26" transform="translate(523.12 2285.87) rotate(-80.78)"/>
    <circle class="st2" cx="1283.34" cy="278.5" r="21.26" transform="translate(717.44 1463.53) rotate(-76.72)"/>
    <circle class="st2" cx="1283.34" cy="1392.52" r="21.26" transform="translate(-366.78 2321.6) rotate(-76.72)"/>
    <circle class="st2" cx="1497.73" cy="1021.18" r="21.26"/>
    <circle class="st2" cx="1497.73" cy="649.84" r="21.26" transform="translate(-134.68 622.62) rotate(-22.5)"/>
    <circle class="st2" cx="1390.53" cy="92.83" r="21.26"/>
    <circle class="st2" cx="1390.53" cy="1578.19" r="21.26"/>
    <circle class="st2" cx="1610.59" cy="464.17" r="21.26"/>
    <circle class="st2" cx="1610.59" cy="1206.85" r="21.26" transform="translate(65.99 2497.07) rotate(-76.72)"/>
    <circle class="st2" cx="1824.97" cy="835.51" r="21.26" transform="translate(707.92 2503.08) rotate(-80.78)"/>
    <circle class="st2" cx="1503.39" cy="278.5" r="21.26" transform="translate(886.93 1677.69) rotate(-76.72)"/>
    <circle class="st2" cx="1503.39" cy="1392.52" r="21.26" transform="translate(-197.28 2535.76) rotate(-76.72)"/>
    <circle class="st2" cx="1717.78" cy="1021.18" r="21.26"/>
    <circle class="st2" cx="1717.78" cy="649.84" r="21.26" transform="translate(-117.93 706.83) rotate(-22.5)"/>
    <circle class="st2" cx="848.9" cy="649.84" r="21.26" transform="translate(22.85 1328.49) rotate(-76.84)"/>
  </g>
  <g id="Rahmen">
    <rect class="st0" x="0" width="4270.39" height="2970.71"/>
  </g>
</svg>