<?xml version="1.0" encoding="UTF-8"?>
<svg xmlns="http://www.w3.org/2000/svg" version="1.1" viewBox="0 0 4270.39 2970.71">
  <!-- Generator: Adobe Illustrator 29.1.0, SVG Export Plug-In . SVG Version: 2.1.0 Build 142)  -->
  <defs>
    <style>
      .st0 {
        stroke-width: .2px;
      }

      .st0, .st1, .st2, .st3 {
        fill: none;
        stroke: #1d1d1b;
      }

      .st0, .st1, .st3 {
        stroke-miterlimit: 10;
      }

      .st4 {
        fill: #1d1d1b;
      }

      .st1, .st2, .st3 {
        stroke-width: 12px;
      }

      .st2 {
        stroke-linejoin: round;
      }

      .st2, .st3 {
        stroke-linecap: round;
      }

      .st5 {
        display: none;
      }
    </style>
  </defs>
  <g id="_x38_4" class="st5">
    <path class="st3" d="M1485.36,2590.69c-557.01,0-185.67-428.77-742.68-428.77"/>
    <path class="st3" d="M2228.04,3019.46c-557.01,0-185.67-428.77-742.68-428.77"/>
    <path class="st3" d="M1485.36,2590.69c278.5,482.38-278.49,375.18.01,857.56"/>
    <path class="st3" d="M2228.03,2161.91c278.5,482.38-278.49,375.18.01,857.56"/>
    <path class="st3" d="M742.67,2161.91c278.5,482.38-278.49,375.18.01,857.56"/>
    <path class="st3" d="M742.69,2161.91c278.5-482.38,464.16,53.59,742.66-428.79"/>
    <path class="st3" d="M1485.36,3448.26c278.5-482.38,464.16,53.59,742.66-428.79"/>
    <path class="st3" d="M1485.35,3448.25c-557.01,0-185.67-428.77-742.68-428.77"/>
    <path class="st3" d="M2228.03,2161.89c-557.01,0-185.67-428.77-742.68-428.77"/>
    <path class="st3" d="M1485.34,1733.13c278.5,482.38-278.49,375.18.01,857.56"/>
    <path class="st3" d="M1485.36,2590.69c278.5-482.38,464.16,53.59,742.66-428.79"/>
    <path class="st3" d="M742.69,3019.48c278.5-482.38,464.16,53.59,742.66-428.79"/>
    <path class="st3" d="M2228.03,3876.99c-557.01,0-185.67-428.77-742.68-428.77"/>
    <path class="st3" d="M2970.71,4305.76c-557.01,0-185.67-428.77-742.68-428.77"/>
    <path class="st3" d="M2228.03,3876.99c278.5,482.38-278.49,375.18.02,857.56"/>
    <path class="st3" d="M2970.7,3448.21c278.5,482.38-278.49,375.18.01,857.56"/>
    <path class="st3" d="M1485.34,3448.21c278.5,482.38-278.49,375.18.01,857.56"/>
    <path class="st3" d="M2228.03,4734.57c278.5-482.38,464.16,53.59,742.66-428.79"/>
    <path class="st3" d="M2228.03,4734.55c-557.01,0-185.67-428.77-742.68-428.77"/>
    <path class="st3" d="M2970.7,3448.2c-557.01,0-185.67-428.77-742.68-428.77"/>
    <path class="st3" d="M2228.01,3019.43c278.5,482.38-278.49,375.18.01,857.56"/>
    <path class="st3" d="M2228.03,3876.99c278.5-482.38,464.16,53.59,742.66-428.79"/>
    <path class="st3" d="M1485.36,4305.79c278.5-482.38,464.16,53.59,742.66-428.79"/>
    <path class="st3" d="M0,2590.69c-557.01,0-185.67-428.77-742.68-428.77"/>
    <path class="st3" d="M742.68,3019.46c-557.01,0-185.67-428.77-742.68-428.77"/>
    <path class="st3" d="M0,2590.69c278.5,482.38-278.49,375.18.01,857.56"/>
    <path class="st3" d="M0,3448.26c278.5-482.38,464.16,53.59,742.66-428.79"/>
    <path class="st3" d="M742.67,2161.89C185.67,2161.89,557.01,1733.12,0,1733.12"/>
    <path class="st3" d="M-.01,1733.13c278.5,482.38-278.49,375.18.01,857.56"/>
    <path class="st3" d="M0,2590.69c278.5-482.38,464.16,53.59,742.66-428.79"/>
    <path class="st3" d="M-742.66,3019.48C-464.16,2537.1-278.5,3073.07,0,2590.69"/>
    <path class="st3" d="M742.67,3876.99c-557.01,0-185.67-428.77-742.68-428.77"/>
    <path class="st3" d="M1485.35,4305.76c-557.01,0-185.67-428.77-742.68-428.77"/>
    <path class="st3" d="M742.67,3876.99c278.5,482.38-278.49,375.18.01,857.56"/>
    <path class="st3" d="M742.68,4734.57c278.5-482.38,464.16,53.59,742.66-428.79"/>
    <path class="st3" d="M742.67,4734.55c-557.01,0-185.67-428.77-742.68-428.77"/>
    <path class="st3" d="M742.66,3019.43c278.5,482.38-278.49,375.18.01,857.56"/>
    <path class="st3" d="M742.67,3876.99c278.5-482.38,464.16,53.59,742.66-428.79"/>
    <path class="st3" d="M0,4305.79c278.5-482.38,464.16,53.59,742.66-428.79"/>
    <path class="st3" d="M1485.36,18.08c-557.01,0-185.67-428.77-742.68-428.77"/>
    <path class="st3" d="M2228.04,446.85c-557.01,0-185.67-428.77-742.68-428.77"/>
    <path class="st3" d="M1485.36,18.08c278.5,482.38-278.49,375.18.01,857.56"/>
    <path class="st3" d="M2228.03-410.7c278.5,482.38-278.49,375.18.01,857.56"/>
    <path class="st3" d="M742.67-410.7c278.5,482.38-278.49,375.18.01,857.56"/>
    <path class="st3" d="M742.69-410.7c278.5-482.38,464.16,53.59,742.66-428.79"/>
    <path class="st3" d="M1485.36,875.65c278.5-482.38,464.16,53.59,742.66-428.79"/>
    <path class="st3" d="M1485.35,875.64c-557.01,0-185.67-428.77-742.68-428.77"/>
    <path class="st3" d="M2228.03-410.72c-557.01,0-185.67-428.77-742.68-428.77"/>
    <path class="st3" d="M1485.34-839.48c278.5,482.38-278.49,375.18.01,857.56"/>
    <path class="st3" d="M1485.36,18.08c278.5-482.38,464.16,53.59,742.66-428.79"/>
    <path class="st3" d="M742.69,446.87c278.5-482.38,464.16,53.59,742.66-428.79"/>
    <path class="st3" d="M2228.03,1304.38c-557.01,0-185.67-428.77-742.68-428.77"/>
    <path class="st3" d="M2970.71,1733.15c-557.01,0-185.67-428.77-742.68-428.77"/>
    <path class="st3" d="M2228.03,1304.38c278.5,482.38-278.49,375.18.02,857.56"/>
    <path class="st3" d="M2970.7,875.6c278.5,482.38-278.49,375.18.01,857.56"/>
    <path class="st3" d="M1485.34,875.6c278.5,482.38-278.49,375.18.01,857.56"/>
    <path class="st3" d="M2228.03,2161.96c278.5-482.38,464.16,53.59,742.66-428.79"/>
    <path class="st3" d="M2970.7,875.59c-557.01,0-185.67-428.77-742.68-428.77"/>
    <path class="st3" d="M2228.01,446.82c278.5,482.38-278.49,375.18.01,857.56"/>
    <path class="st3" d="M2228.03,1304.38c278.5-482.38,464.16,53.59,742.66-428.79"/>
    <path class="st3" d="M1485.36,1733.18c278.5-482.38,464.16,53.59,742.66-428.79"/>
    <path class="st3" d="M0,18.08c-557.01,0-185.67-428.77-742.68-428.77"/>
    <path class="st3" d="M742.68,446.85C185.67,446.85,557.01,18.08,0,18.08"/>
    <path class="st3" d="M0,18.08c278.5,482.38-278.49,375.18.01,857.56"/>
    <path class="st3" d="M-742.67-410.7C-464.17-893.09-278.51-357.11,0-839.5"/>
    <path class="st3" d="M0,875.65c278.5-482.38,464.16,53.59,742.66-428.79"/>
    <path class="st3" d="M742.67-410.72C185.67-410.72,557.01-839.49,0-839.49"/>
    <path class="st3" d="M-.01-839.48C278.49-357.1-278.5-464.31,0,18.08"/>
    <path class="st3" d="M0,18.08c278.5-482.38,464.16,53.59,742.66-428.79"/>
    <path class="st3" d="M-742.66,446.87C-464.16-35.51-278.5,500.46,0,18.08"/>
    <path class="st3" d="M742.67,1304.38C185.66,1304.38,557,875.61,0,875.61"/>
    <path class="st3" d="M1485.35,1733.15c-557.01,0-185.67-428.77-742.68-428.77"/>
    <path class="st3" d="M742.67,1304.38c278.5,482.38-278.49,375.18.01,857.56"/>
    <path class="st3" d="M742.66,446.82c278.5,482.38-278.49,375.18.01,857.56"/>
    <path class="st3" d="M742.67,1304.38c278.5-482.38,464.16,53.59,742.66-428.79"/>
    <path class="st3" d="M0,1733.18c278.5-482.38,464.16,53.59,742.66-428.79"/>
    <path class="st3" d="M4456.07,2590.69c-557.01,0-185.67-428.77-742.68-428.77"/>
    <path class="st3" d="M5198.74,3019.46c-557.01,0-185.67-428.77-742.68-428.77"/>
    <path class="st3" d="M4456.07,2590.69c278.5,482.38-278.49,375.18.01,857.56"/>
    <path class="st3" d="M5198.74,2161.91c278.5,482.38-278.49,375.18.01,857.56"/>
    <path class="st3" d="M3713.38,2161.91c278.5,482.38-278.49,375.18.01,857.56"/>
    <path class="st3" d="M3713.39,2161.91c278.5-482.38,464.16,53.59,742.66-428.79"/>
    <path class="st3" d="M4456.07,3448.26c278.5-482.38,464.16,53.59,742.66-428.79"/>
    <path class="st3" d="M4456.06,3448.25c-557.01,0-185.67-428.77-742.68-428.77"/>
    <path class="st3" d="M5198.74,2161.89c-557.01,0-185.67-428.77-742.68-428.77"/>
    <path class="st3" d="M4456.05,1733.13c278.5,482.38-278.49,375.18.01,857.56"/>
    <path class="st3" d="M4456.07,2590.69c278.5-482.38,464.16,53.59,742.66-428.79"/>
    <path class="st3" d="M3713.4,3019.48c278.5-482.38,464.16,53.59,742.66-428.79"/>
    <path class="st3" d="M5198.74,3876.99c-557.01,0-185.67-428.77-742.68-428.77"/>
    <path class="st3" d="M5941.41,4305.76c-557.01,0-185.67-428.77-742.68-428.77"/>
    <path class="st3" d="M5198.74,3876.99c278.5,482.38-278.49,375.18.01,857.56"/>
    <path class="st3" d="M5941.41,3448.21c278.5,482.38-278.49,375.18.01,857.56"/>
    <path class="st3" d="M4456.05,3448.21c278.5,482.38-278.49,375.18.01,857.56"/>
    <path class="st3" d="M5198.74,4734.57c278.5-482.38,464.16,53.59,742.66-428.79"/>
    <path class="st3" d="M5198.73,4734.55c-557.01,0-185.67-428.77-742.68-428.77"/>
    <path class="st3" d="M5941.41,3448.2c-557.01,0-185.67-428.77-742.68-428.77"/>
    <path class="st3" d="M5198.72,3019.43c278.5,482.38-278.49,375.18.01,857.56"/>
    <path class="st3" d="M5198.74,3876.99c278.5-482.38,464.16,53.59,742.66-428.79"/>
    <path class="st3" d="M4456.07,4305.79c278.5-482.38,464.16,53.59,742.66-428.79"/>
    <path class="st3" d="M2970.71,2590.69c-557.01,0-185.67-428.77-742.68-428.77"/>
    <path class="st3" d="M3713.39,3019.46c-557.01,0-185.67-428.77-742.68-428.77"/>
    <path class="st3" d="M2970.71,2590.69c278.5,482.38-278.49,375.18.01,857.56"/>
    <path class="st3" d="M2970.71,3448.26c278.5-482.38,464.16,53.59,742.66-428.79"/>
    <path class="st3" d="M3713.38,2161.89c-557.01,0-185.67-428.77-742.68-428.77"/>
    <path class="st3" d="M2970.7,1733.13c278.5,482.38-278.49,375.18.01,857.56"/>
    <path class="st3" d="M2970.71,2590.69c278.5-482.38,464.16,53.59,742.66-428.79"/>
    <path class="st3" d="M2228.05,3019.48c278.5-482.38,464.16,53.59,742.66-428.79"/>
    <path class="st3" d="M3713.38,3876.99c-557.01,0-185.67-428.77-742.68-428.77"/>
    <path class="st3" d="M4456.06,4305.76c-557.01,0-185.67-428.77-742.68-428.77"/>
    <path class="st3" d="M3713.38,3876.99c278.5,482.38-278.49,375.18.01,857.56"/>
    <path class="st3" d="M3713.38,4734.57c278.5-482.38,464.16,53.59,742.66-428.79"/>
    <path class="st3" d="M3713.38,4734.55c-557.01,0-185.67-428.77-742.68-428.77"/>
    <path class="st3" d="M3713.37,3019.43c278.5,482.38-278.49,375.18.01,857.56"/>
    <path class="st3" d="M3713.38,3876.99c278.5-482.38,464.16,53.59,742.66-428.79"/>
    <path class="st3" d="M2970.72,4305.79c278.5-482.38,464.16,53.59,742.66-428.79"/>
    <path class="st3" d="M4456.07,18.08c-557.01,0-185.67-428.77-742.68-428.77"/>
    <path class="st3" d="M5198.74,446.85c-557.01,0-185.67-428.77-742.68-428.77"/>
    <path class="st3" d="M4456.07,18.08c278.5,482.38-278.49,375.18.01,857.56"/>
    <path class="st3" d="M5198.74-410.7c278.5,482.38-278.49,375.18.01,857.56"/>
    <path class="st3" d="M3713.38-410.7c278.5,482.38-278.49,375.18.01,857.56"/>
    <path class="st3" d="M3713.39-410.7c278.5-482.38,464.16,53.59,742.66-428.79"/>
    <path class="st3" d="M4456.07,875.65c278.5-482.38,464.16,53.59,742.66-428.79"/>
    <path class="st3" d="M4456.06,875.64c-557.01,0-185.67-428.77-742.68-428.77"/>
    <path class="st3" d="M5198.74-410.72c-557.01,0-185.67-428.77-742.68-428.77"/>
    <path class="st3" d="M4456.05-839.48c278.5,482.38-278.49,375.18.01,857.56"/>
    <path class="st3" d="M4456.07,18.08c278.5-482.38,464.16,53.59,742.66-428.79"/>
    <path class="st3" d="M3713.4,446.87c278.5-482.38,464.16,53.59,742.66-428.79"/>
    <path class="st3" d="M5198.74,1304.38c-557.01,0-185.67-428.77-742.68-428.77"/>
    <path class="st3" d="M5941.41,1733.15c-557.01,0-185.67-428.77-742.68-428.77"/>
    <path class="st3" d="M5198.74,1304.38c278.5,482.38-278.49,375.18.01,857.56"/>
    <path class="st3" d="M5941.41,875.6c278.5,482.38-278.49,375.18.01,857.56"/>
    <path class="st3" d="M4456.05,875.6c278.5,482.38-278.49,375.18.01,857.56"/>
    <path class="st3" d="M5198.74,2161.96c278.5-482.38,464.16,53.59,742.66-428.79"/>
    <path class="st3" d="M5941.41,875.59c-557.01,0-185.67-428.77-742.68-428.77"/>
    <path class="st3" d="M5198.72,446.82c278.5,482.38-278.49,375.18.01,857.56"/>
    <path class="st3" d="M5198.74,1304.38c278.5-482.38,464.16,53.59,742.66-428.79"/>
    <path class="st3" d="M4456.07,1733.18c278.5-482.38,464.16,53.59,742.66-428.79"/>
    <path class="st3" d="M2970.71,18.08c-557.01,0-185.67-428.77-742.68-428.77"/>
    <path class="st3" d="M3713.39,446.85c-557.01,0-185.67-428.77-742.68-428.77"/>
    <path class="st3" d="M2970.71,18.08c278.5,482.38-278.49,375.18.01,857.56"/>
    <path class="st3" d="M2228.04-410.7c278.5-482.38,464.16,53.59,742.66-428.79"/>
    <path class="st3" d="M2970.71,875.65c278.5-482.38,464.16,53.59,742.66-428.79"/>
    <path class="st3" d="M3713.38-410.72c-557.01,0-185.67-428.77-742.68-428.77"/>
    <path class="st3" d="M2970.7-839.48c278.5,482.38-278.49,375.18.01,857.56"/>
    <path class="st3" d="M2970.71,18.08c278.5-482.38,464.16,53.59,742.66-428.79"/>
    <path class="st3" d="M2228.05,446.87c278.5-482.38,464.16,53.59,742.66-428.79"/>
    <path class="st3" d="M3713.38,1304.38c-557.01,0-185.67-428.77-742.68-428.77"/>
    <path class="st3" d="M4456.06,1733.15c-557.01,0-185.67-428.77-742.68-428.77"/>
    <path class="st3" d="M3713.38,1304.38c278.5,482.38-278.49,375.18.01,857.56"/>
    <path class="st3" d="M3713.37,446.82c278.5,482.38-278.49,375.18.01,857.56"/>
    <path class="st3" d="M3713.38,1304.38c278.5-482.38,464.16,53.59,742.66-428.79"/>
    <path class="st3" d="M2970.72,1733.18c278.5-482.38,464.16,53.59,742.66-428.79"/>
  </g>
  <g id="_x38_4_x5F_rein">
    <g>
      <path class="st3" d="M742.68,2161.92c557.01,0,185.67,428.77,742.68,428.77"/>
      <path class="st3" d="M742.68,2161.92h0"/>
      <line class="st1" x1="1485.36" y1="2590.69" x2="1485.36" y2="2590.69"/>
      <path class="st1" d="M1504.85,2590.87c-6.37-.12-12.87-.18-19.49-.18"/>
      <line class="st1" x1="1485.36" y1="2590.69" x2="1485.36" y2="2590.69"/>
      <path class="st1" d="M1485.36,2590.69c.04.06.07.12.1.18"/>
      <line class="st1" x1="1485.36" y1="2590.69" x2="1485.36" y2="2590.69"/>
      <path class="st3" d="M2227.9,2590.87c69.67-93.85,139.46-187.61.15-428.93"/>
      <path class="st3" d="M2228.03,2161.91s0,0,0,.01"/>
      <path class="st3" d="M2228.04,2161.92s0,.01,0,.02"/>
      <path class="st3" d="M742.67,2161.91s0,0,0,.01"/>
      <path class="st3" d="M742.68,2161.92c139.33,241.34,69.53,335.1-.14,428.95"/>
      <path class="st3" d="M742.69,2161.91c278.5-482.37,464.15,53.56,742.64-428.75"/>
      <path class="st3" d="M1485.33,1733.15s0-.01.01-.02"/>
      <path class="st3" d="M1485.35,1733.11s0,.01-.01.02"/>
      <path class="st3" d="M1485.39,1733.12h-.04"/>
      <path class="st3" d="M1485.39,1733.12c556.94.02,185.65,428.76,742.62,428.77"/>
      <path class="st3" d="M2228.03,2161.89h-.02"/>
      <path class="st3" d="M1485.37,1733.17c278.45,482.33-278.51,375.15-.01,857.52"/>
      <path class="st3" d="M1485.37,1733.17s-.02-.03-.02-.04"/>
      <path class="st3" d="M2228.02,2161.89s0,0,0,0"/>
      <path class="st3" d="M1485.36,2590.69c278.5-482.38,464.16,53.58,742.66-428.79"/>
      <path class="st1" d="M1485.25,2590.87c.04-.06.07-.12.11-.18"/>
      <line class="st1" x1="1485.36" y1="2590.69" x2="1485.36" y2="2590.69"/>
      <path class="st1" d="M-2.55,2590.68c.85,0,1.7,0,2.55,0"/>
      <line class="st1" x1="0" y1="2590.69" x2="0" y2="2590.69"/>
      <line class="st1" x1="0" y1="2590.69" y2="2590.69"/>
      <path class="st1" d="M19.5,2590.87c-6.37-.12-12.87-.18-19.49-.18"/>
      <line class="st1" x1="0" y1="2590.69" x2="0" y2="2590.69"/>
      <path class="st1" d="M.1,2590.87c-.04-.06-.07-.12-.1-.18"/>
      <path class="st3" d="M.04,1733.12c556.94.02,185.65,428.76,742.62,428.77"/>
      <path class="st3" d="M742.67,2161.89h-.02"/>
      <path class="st1" d="M.04,1733.12H0"/>
      <path class="st3" d="M.01,1733.17c140.92,244.1,67.87,337.21-2.56,432.17"/>
      <path class="st1" d="M.01,1733.17s-.02-.03-.02-.04"/>
      <path class="st1" d="M0,2590.69c-.86-1.49-1.71-2.97-2.55-4.45"/>
      <path class="st3" d="M0,2590.69c278.5-482.38,464.16,53.58,742.66-428.79"/>
      <path class="st3" d="M742.66,2161.89s0,0,0,0"/>
      <line class="st1" x1="0" y1="2590.69" x2="0" y2="2590.69"/>
      <path class="st1" d="M-.1,2590.87c.04-.06.07-.12.11-.18"/>
      <path class="st1" d="M1439.07,17.01c14.68.7,30.08,1.07,46.29,1.07"/>
      <line class="st1" x1="1485.36" y1="18.08" x2="1485.36" y2="18.08"/>
      <line class="st1" x1="1485.36" y1="18.08" x2="1485.36" y2="18.08"/>
      <path class="st3" d="M2228.03,446.85h0"/>
      <path class="st3" d="M2228.04,446.85h0"/>
      <path class="st3" d="M1485.36,18.08c557,0,185.67,428.77,742.67,428.77"/>
      <path class="st3" d="M1485.36,875.61s0,.01.01.02"/>
      <line class="st1" x1="1485.36" y1="18.08" x2="1485.36" y2="18.08"/>
      <path class="st3" d="M1485.37,875.64s0,0,0,0"/>
      <path class="st3" d="M1485.36,18.08c278.5,482.37-278.47,375.18,0,857.54"/>
      <path class="st3" d="M2228.83,17.01c-69.88,94.15-140.57,187.74-.8,429.84"/>
      <path class="st3" d="M2228.03,446.85s0,0,0,.01"/>
      <path class="st3" d="M743.48,17.01c-69.88,94.15-140.57,187.74-.79,429.85"/>
      <path class="st3" d="M1485.37,875.64s0,0,0,0"/>
      <path class="st3" d="M1485.38,875.61c278.49-482.32,464.15,53.61,742.64-428.76"/>
      <path class="st3" d="M1485.37,875.64s0,0,0,0"/>
      <path class="st3" d="M1485.38,875.61s0,.01-.01.02"/>
      <path class="st3" d="M742.68,446.87h.01"/>
      <path class="st3" d="M742.68,446.87h0"/>
      <path class="st3" d="M1485.3,875.64h.05"/>
      <path class="st3" d="M1485.3,875.64c-556.93-.03-185.64-428.76-742.61-428.77"/>
      <line class="st1" x1="1485.36" y1="18.08" x2="1485.36" y2="18.08"/>
      <path class="st1" d="M1484.74,17.01c.21.36.41.71.61,1.07"/>
      <path class="st1" d="M1485.98,17.01c-.21.36-.42.71-.62,1.07"/>
      <path class="st3" d="M1485.36,18.08c-278.5,482.38-464.16-53.59-742.66,428.79"/>
      <path class="st3" d="M742.7,446.87s0,0,0,0"/>
      <line class="st1" x1="1485.36" y1="18.08" x2="1485.36" y2="18.08"/>
      <line class="st1" x1="1485.36" y1="18.08" x2="1485.36" y2="18.08"/>
      <path class="st3" d="M1485.35,875.61h0"/>
      <line class="st3" x1="2228.03" y1="1304.38" x2="2228.03" y2="1304.38"/>
      <path class="st3" d="M1485.38,875.61c556.96.02,185.65,428.77,742.64,428.77"/>
      <line class="st3" x1="1485.35" y1="875.61" x2="1485.35" y2="875.61"/>
      <path class="st3" d="M1485.38,875.61h-.02"/>
      <path class="st3" d="M2970.7,1733.15h0"/>
      <path class="st3" d="M2970.7,1733.15c-557.01,0-185.67-428.77-742.68-428.77"/>
      <path class="st3" d="M2228.01,2161.89c-278.44-482.32,278.51-375.15.01-857.51"/>
      <path class="st3" d="M2228.04,2161.94s-.02-.03-.02-.04"/>
      <path class="st3" d="M2228.01,2161.89s0,0,0,0"/>
      <path class="st3" d="M2228.04,2161.94s0,0,0,0"/>
      <path class="st3" d="M2970.71,875.61s0,.02.01.03"/>
      <path class="st3" d="M2970.71,1733.16s0,0,0-.01"/>
      <path class="st3" d="M2970.71,875.61s0,0,0-.01"/>
      <path class="st3" d="M2970.72,875.64c278.45,482.33-278.5,375.15-.02,857.51"/>
      <path class="st3" d="M1485.37,875.64c278.44,482.32-278.48,375.16-.03,857.49"/>
      <path class="st3" d="M1485.37,875.64s-.01-.02-.02-.03"/>
      <path class="st3" d="M1485.34,1733.13s.01.02.02.03"/>
      <path class="st3" d="M1485.34,875.6s0,0,0,.01"/>
      <path class="st3" d="M2228.04,2161.94s0,0,0,0"/>
      <path class="st3" d="M2228.05,2161.92s0,.01,0,.02"/>
      <path class="st3" d="M2228.05,2161.92c278.49-482.32,464.15,53.62,742.64-428.76"/>
      <path class="st3" d="M2228.04,2161.94s0,0,0,.01"/>
      <path class="st3" d="M2228.03,446.82h.05"/>
      <path class="st3" d="M2970.69,875.59c-556.98,0-185.68-428.74-742.62-428.77"/>
      <path class="st3" d="M2970.7,875.59h0"/>
      <path class="st3" d="M2970.7,875.59h0"/>
      <path class="st3" d="M2228.03,1304.38h0"/>
      <path class="st3" d="M2228.01,446.82s0,.02.01.03"/>
      <path class="st3" d="M2228.03,1304.38c-278.5-482.37,278.47-375.18,0-857.54"/>
      <path class="st3" d="M2970.69,875.59c-278.5,482.38-464.16-53.59-742.66,428.79"/>
      <path class="st3" d="M2970.69,875.59h0"/>
      <line class="st3" x1="2228.03" y1="1304.38" x2="2228.03" y2="1304.38"/>
      <path class="st3" d="M1485.39,1733.12c278.49-482.29,464.14,53.62,742.63-428.74"/>
      <path class="st3" d="M1485.39,1733.12s-.02.03-.03.04"/>
      <line class="st3" x1="2228.03" y1="1304.38" x2="2228.03" y2="1304.38"/>
      <path class="st3" d="M1485.37,1733.17s0,0,0,0"/>
      <path class="st1" d="M0,18.08c-.86,0-1.7,0-2.55,0"/>
      <line class="st1" y1="18.08" y2="18.08"/>
      <line class="st1" x1="0" y1="18.08" y2="18.08"/>
      <path class="st3" d="M0,18.08c557,0,185.67,428.77,742.67,428.77"/>
      <path class="st3" d="M742.67,446.85h0"/>
      <path class="st3" d="M0,18.08c140.96,244.15,67.89,337.26-2.55,432.23"/>
      <path class="st1" d="M0,875.61s0,.01.01.02"/>
      <path class="st1" d="M0,875.61c-.86-1.49-1.71-2.97-2.55-4.45"/>
      <path class="st1" d="M.01,875.64s0,0,0,0"/>
      <line class="st1" x1="0" y1="18.08" x2="0" y2="18.08"/>
      <path class="st1" d="M.03,875.61s0,.01-.01.02"/>
      <path class="st1" d="M0,875.65s0,0,0-.01"/>
      <path class="st3" d="M.03,875.61c278.49-482.32,464.15,53.61,742.64-428.76"/>
      <path class="st1" d="M-.61,17.01c.21.36.41.71.61,1.07"/>
      <path class="st1" d="M0,18.08s0,0,0,0"/>
      <path class="st1" d="M.62,17.01c-.21.36-.42.71-.62,1.07"/>
      <path class="st1" d="M0,18.08s0,0,0,0"/>
      <path class="st1" d="M-2.55,22.47c.85-1.46,1.7-2.92,2.55-4.39"/>
      <line class="st1" y1="18.08" y2="18.08"/>
      <path class="st1" d="M0,875.61H0"/>
      <path class="st1" d="M.03,875.61H0"/>
      <path class="st3" d="M.03,875.61c556.96.02,185.65,428.77,742.64,428.77"/>
      <path class="st3" d="M742.67,1304.38c557,0,185.68,428.76,742.66,428.77"/>
      <line class="st3" x1="742.67" y1="1304.38" x2="742.67" y2="1304.38"/>
      <path class="st3" d="M1485.33,1733.15h.02"/>
      <line class="st3" x1="742.67" y1="1304.38" x2="742.67" y2="1304.38"/>
      <path class="st3" d="M742.66,2161.89s0,0,0,0"/>
      <path class="st3" d="M742.66,2161.89c-278.44-482.32,278.51-375.15.01-857.51"/>
      <path class="st3" d="M742.69,2161.95s-.02-.03-.03-.04"/>
      <line class="st3" x1="742.67" y1="1304.38" x2="742.67" y2="1304.38"/>
      <path class="st3" d="M742.67,1304.38s0,0,0,0"/>
      <path class="st3" d="M742.68,446.87c278.44,482.33-278.51,375.15-.01,857.51"/>
      <path class="st3" d="M742.66,446.82s0,.02.01.03"/>
      <path class="st3" d="M742.68,446.87s0-.02-.01-.02"/>
      <path class="st3" d="M1485.3,875.64c-278.49,482.3-464.14-53.62-742.63,428.74"/>
      <path class="st3" d="M1485.3,875.64s.02-.03.03-.05"/>
      <path class="st3" d="M.04,1733.12c278.49-482.29,464.14,53.62,742.63-428.74"/>
      <line class="st3" x1="742.67" y1="1304.38" x2="742.67" y2="1304.38"/>
      <path class="st3" d="M742.67,1304.38s0,0,0,0"/>
      <path class="st1" d="M.04,1733.12s-.02.03-.03.04"/>
      <path class="st1" d="M.01,1733.17s0,0,0,0"/>
      <line class="st3" x1="3713.39" y1="2161.92" x2="3713.39" y2="2161.92"/>
      <path class="st3" d="M3713.39,2161.92c557.01,0,185.67,428.77,742.68,428.77"/>
      <path class="st1" d="M4475.56,2590.87c-6.37-.12-12.87-.18-19.5-.18"/>
      <path class="st1" d="M4456.07,2590.69c.04.06.07.12.1.18"/>
      <path class="st3" d="M3713.39,2161.92c139.33,241.34,69.53,335.1-.14,428.95"/>
      <path class="st3" d="M3713.39,2161.92s0,0,0-.01"/>
      <path class="st3" d="M4456.04,1733.15s0-.01.01-.02"/>
      <path class="st3" d="M3713.39,2161.91c278.5-482.37,464.15,53.56,742.64-428.75"/>
      <path class="st3" d="M4456.06,1733.11s0,.01-.01.02"/>
      <path class="st3" d="M4456.1,1733.12h-.04"/>
      <path class="st3" d="M4456.1,1733.12c556.09.02,186.79,427.45,740.08,428.76"/>
      <path class="st3" d="M4456.08,1733.17c278.45,482.34-278.51,375.15,0,857.52"/>
      <path class="st3" d="M4456.08,1733.17s-.02-.03-.02-.04"/>
      <path class="st3" d="M4456.07,2590.69c277.66-480.91,463.03,50.32,740.12-424.42"/>
      <path class="st1" d="M4456.07,2590.69c-.04.06-.07.12-.11.18"/>
      <path class="st3" d="M2970.71,2590.69c-557,0-185.68-428.76-742.66-428.77"/>
      <path class="st3" d="M2228.05,2161.92h-.02"/>
      <path class="st3" d="M2228.03,2161.92h0"/>
      <path class="st1" d="M2990.21,2590.87c-6.37-.12-12.87-.18-19.5-.18"/>
      <path class="st1" d="M2970.71,2590.69c.04.06.07.12.1.18"/>
      <path class="st3" d="M2970.75,1733.12c556.94.02,185.65,428.76,742.62,428.77"/>
      <path class="st3" d="M2970.75,1733.12h-.04"/>
      <path class="st3" d="M3713.37,2161.89h.02"/>
      <path class="st3" d="M2970.72,1733.17s-.02-.03-.02-.04"/>
      <path class="st3" d="M2970.72,1733.17c278.45,482.34-278.51,375.15,0,857.52"/>
      <path class="st3" d="M3713.37,2161.9s0,0,0,0"/>
      <path class="st3" d="M3713.37,2161.9c-278.5,482.37-464.16-53.59-742.66,428.79"/>
      <path class="st1" d="M2970.71,2590.69c-.04.06-.07.12-.11.18"/>
      <path class="st1" d="M4409.78,17.01c14.68.7,30.08,1.07,46.29,1.07"/>
      <line class="st1" x1="4456.07" y1="18.08" x2="4456.07" y2="18.08"/>
      <path class="st3" d="M4456.07,18.08c556.15,0,186.82,427.44,740.12,428.76"/>
      <path class="st3" d="M4456.07,18.08c278.5,482.37-278.47,375.18,0,857.54"/>
      <path class="st3" d="M4456.07,875.61s0,.01.01.02"/>
      <path class="st3" d="M4456.08,875.64s0,0,0,0"/>
      <path class="st3" d="M5196.19,21.52c-68.31,92.09-134.14,185.91,0,420.86"/>
      <path class="st3" d="M3714.18,17.01c-69.88,94.15-140.57,187.74-.79,429.85"/>
      <path class="st3" d="M4456.08,875.64s0,0,0,0"/>
      <path class="st3" d="M4456.09,875.61s0,.01-.01.02"/>
      <path class="st3" d="M4456.08,875.64s0,0,0,0"/>
      <path class="st3" d="M4456.09,875.61c277.64-480.85,463.01,50.34,740.09-424.37"/>
      <path class="st3" d="M3713.39,446.87h0"/>
      <path class="st3" d="M4456.06,875.64h-.05"/>
      <path class="st3" d="M4456.01,875.64c-556.93-.03-185.64-428.76-742.61-428.77"/>
      <path class="st3" d="M3713.39,446.87h0"/>
      <path class="st1" d="M4455.45,17.01c.21.36.41.71.61,1.07"/>
      <line class="st1" x1="4456.07" y1="18.08" x2="4456.07" y2="18.08"/>
      <path class="st1" d="M4456.69,17.01c-.21.36-.41.71-.62,1.07"/>
      <line class="st1" x1="4456.07" y1="18.08" x2="4456.07" y2="18.08"/>
      <path class="st3" d="M3713.4,446.87c278.5-482.38,464.16,53.59,742.66-428.79"/>
      <line class="st1" x1="4456.07" y1="18.08" x2="4456.07" y2="18.08"/>
      <path class="st3" d="M3713.4,446.87h0"/>
      <path class="st3" d="M4456.09,875.61h-.02"/>
      <line class="st3" x1="4456.06" y1="875.61" x2="4456.07" y2="875.61"/>
      <path class="st3" d="M4456.09,875.61c556.11.02,186.8,427.45,740.09,428.76"/>
      <path class="st3" d="M5196.19,1736.61c-68.31,92.08-134.14,185.91,0,420.86"/>
      <path class="st3" d="M4456.08,875.64s-.02-.03-.02-.04"/>
      <path class="st3" d="M4456.05,1733.13s.01.02.02.03"/>
      <path class="st3" d="M4456.08,875.64c278.44,482.32-278.48,375.16-.03,857.49"/>
      <path class="st3" d="M5196.19,879.03c-68.31,92.09-134.17,185.92,0,420.9"/>
      <path class="st3" d="M4456.1,1733.12c277.64-480.82,463.01,50.35,740.08-424.36"/>
      <path class="st3" d="M4456.08,1733.17s0,0,0,0"/>
      <path class="st3" d="M4456.1,1733.12s-.02.03-.03.04"/>
      <path class="st1" d="M2924.43,17.01c14.68.7,30.08,1.07,46.29,1.07"/>
      <line class="st1" x1="2970.71" y1="18.08" x2="2970.71" y2="18.08"/>
      <path class="st3" d="M3713.38,446.85h0"/>
      <path class="st3" d="M2970.71,18.08c557.01,0,185.67,428.77,742.67,428.77"/>
      <path class="st3" d="M2970.71,875.61s0-.02-.01-.03"/>
      <path class="st3" d="M2970.7,875.59c-278.44-482.33,278.51-375.15.01-857.51"/>
      <path class="st3" d="M2970.72,875.64s0,0,0,0"/>
      <path class="st3" d="M2970.71,875.61s0,.01.01.02"/>
      <path class="st3" d="M2970.71,875.65s0,0,0,0"/>
      <path class="st3" d="M2970.72,875.64s0,0,0,0"/>
      <path class="st3" d="M2970.74,875.61c278.49-482.32,464.15,53.61,742.64-428.76"/>
      <path class="st3" d="M2970.74,875.61s0,.01-.01.02"/>
      <line class="st1" x1="2970.71" y1="18.08" x2="2970.71" y2="18.08"/>
      <path class="st1" d="M2970.1,17.01c.21.36.41.71.61,1.07"/>
      <path class="st1" d="M2971.33,17.01c-.21.36-.42.71-.62,1.07"/>
      <line class="st1" x1="2970.71" y1="18.08" x2="2970.71" y2="18.08"/>
      <path class="st3" d="M2970.71,18.08c-278.49,482.36-464.15-53.55-742.63,428.74"/>
      <path class="st3" d="M2228.08,446.82s-.02.03-.03.05"/>
      <line class="st1" x1="2970.71" y1="18.08" x2="2970.71" y2="18.08"/>
      <path class="st3" d="M2970.74,875.61c556.96.02,185.65,428.77,742.64,428.77"/>
      <path class="st3" d="M2970.71,875.61h0"/>
      <path class="st3" d="M2970.74,875.61h-.02"/>
      <path class="st3" d="M2970.71,875.61h0"/>
      <path class="st3" d="M3713.38,1304.38h0"/>
      <line class="st3" x1="3713.38" y1="1304.38" x2="3713.38" y2="1304.38"/>
      <path class="st3" d="M4456.04,1733.15h.02"/>
      <path class="st3" d="M3713.38,1304.38c557,0,185.68,428.76,742.66,428.77"/>
      <path class="st3" d="M3713.38,1304.38c278.49,482.36-278.45,375.19-.02,857.51"/>
      <line class="st3" x1="3713.38" y1="1304.38" x2="3713.38" y2="1304.38"/>
      <path class="st3" d="M3713.39,2161.95s-.02-.03-.03-.04"/>
      <path class="st3" d="M3713.37,2161.89s0,0,0,0"/>
      <path class="st3" d="M3713.37,446.82s0,.02.01.03"/>
      <path class="st3" d="M3713.38,1304.38h0"/>
      <path class="st3" d="M3713.39,446.87s0-.02-.01-.02"/>
      <path class="st3" d="M3713.39,446.87c278.44,482.33-278.51,375.15-.01,857.51"/>
      <path class="st3" d="M4456.01,875.64c-278.49,482.3-464.14-53.62-742.63,428.74"/>
      <path class="st3" d="M4456.01,875.64s.02-.03.03-.05"/>
      <line class="st3" x1="3713.38" y1="1304.38" x2="3713.38" y2="1304.38"/>
      <line class="st3" x1="3713.38" y1="1304.38" x2="3713.38" y2="1304.38"/>
      <path class="st3" d="M2970.72,1733.17s0,0,0,0"/>
      <path class="st3" d="M2970.75,1733.12s-.02.03-.03.04"/>
      <path class="st3" d="M2970.75,1733.12c278.49-482.29,464.14,53.62,742.63-428.74"/>
      <line class="st1" x1="5196.19" y1="1299.93" x2="5196.19" y2="879.03"/>
      <line class="st1" x1="5196.19" y1="2166.27" x2="5196.19" y2="2161.89"/>
      <line class="st1" x1="1439.07" y1="17.01" x2="743.48" y2="17.01"/>
      <polyline class="st1" points="4475.56 2590.87 5196.19 2590.87 5196.19 2166.27"/>
      <line class="st1" x1="5196.19" y1="2157.47" x2="5196.19" y2="1736.61"/>
      <line class="st1" x1="742.55" y1="2590.87" x2="1485.25" y2="2590.87"/>
      <line class="st1" x1="-2.55" y1="22.47" x2="-2.55" y2="450.31"/>
      <line class="st1" x1="5196.19" y1="21.52" x2="5196.19" y2="442.39"/>
      <polyline class="st1" points="4456.69 17.01 5196.19 17.01 5196.19 21.52"/>
      <line class="st1" x1="5196.19" y1="446.84" x2="5196.19" y2="451.24"/>
      <line class="st1" x1="5196.19" y1="1304.38" x2="5196.19" y2="1308.77"/>
      <line class="st1" x1="5196.19" y1="2157.47" x2="5196.19" y2="2161.89"/>
      <line class="st1" x1="-2.55" y1="871.16" x2="-2.55" y2="450.31"/>
      <line class="st1" x1="4455.45" y1="17.01" x2="4409.78" y2="17.01"/>
      <line class="st1" x1="2970.1" y1="17.01" x2="2924.43" y2="17.01"/>
      <line class="st1" x1="1484.74" y1="17.01" x2="1485.98" y2="17.01"/>
      <line class="st1" x1="-2.55" y1="18.07" x2="-2.55" y2="22.47"/>
      <polyline class="st1" points="-2.55 2590.68 -2.55 2590.87 -.1 2590.87"/>
      <line class="st1" x1="742.55" y1="2590.87" x2="19.5" y2="2590.87"/>
      <line class="st1" x1=".62" y1="17.01" x2="743.48" y2="17.01"/>
      <line class="st1" x1="1484.74" y1="17.01" x2="1439.07" y2="17.01"/>
      <line class="st1" x1="-2.55" y1="2586.23" x2="-2.55" y2="2165.34"/>
      <line class="st1" x1="-.61" y1="17.01" x2=".62" y2="17.01"/>
      <polyline class="st1" points="-.61 17.01 -2.55 17.01 -2.55 18.07"/>
      <line class="st1" x1="-.1" y1="2590.87" x2=".1" y2="2590.87"/>
      <line class="st1" x1="4455.45" y1="17.01" x2="4456.69" y2="17.01"/>
      <line class="st1" x1="3713.25" y1="2590.87" x2="2990.21" y2="2590.87"/>
      <line class="st1" x1="3714.18" y1="17.01" x2="4409.78" y2="17.01"/>
      <line class="st1" x1="4475.56" y1="2590.87" x2="4456.17" y2="2590.87"/>
      <line class="st1" x1="4455.96" y1="2590.87" x2="4456.17" y2="2590.87"/>
      <line class="st1" x1="4455.96" y1="2590.87" x2="3713.25" y2="2590.87"/>
      <line class="st1" x1="1485.25" y1="2590.87" x2="1485.46" y2="2590.87"/>
      <line class="st1" x1="2924.43" y1="17.01" x2="2228.83" y2="17.01"/>
      <line class="st1" x1="5196.19" y1="1736.61" x2="5196.19" y2="1308.77"/>
      <line class="st1" x1="1485.46" y1="2590.87" x2="1504.85" y2="2590.87"/>
      <line class="st1" x1="1504.85" y1="2590.87" x2="2227.9" y2="2590.87"/>
      <line class="st1" x1="2970.61" y1="2590.87" x2="2227.9" y2="2590.87"/>
      <line class="st1" x1="-2.55" y1="871.16" x2="-2.55" y2="2165.34"/>
      <line class="st1" x1="2971.33" y1="17.01" x2="3714.18" y2="17.01"/>
      <line class="st1" x1="-2.55" y1="2590.68" x2="-2.55" y2="2586.23"/>
      <line class="st1" x1="5196.19" y1="446.84" x2="5196.19" y2="442.39"/>
      <line class="st1" x1="5196.19" y1="451.24" x2="5196.19" y2="879.03"/>
      <line class="st1" x1="1485.98" y1="17.01" x2="2228.83" y2="17.01"/>
      <line class="st1" x1="2990.21" y1="2590.87" x2="2970.81" y2="2590.87"/>
      <line class="st1" x1="2970.1" y1="17.01" x2="2971.33" y2="17.01"/>
      <line class="st1" x1="2970.61" y1="2590.87" x2="2970.81" y2="2590.87"/>
      <line class="st1" x1="5196.19" y1="1304.38" x2="5196.19" y2="1299.93"/>
      <line class="st1" x1=".1" y1="2590.87" x2="19.5" y2="2590.87"/>
    </g>
  </g>
  <g id="_x38_5" class="st5">
    <path class="st3" d="M1485.27,3659.87c185.67,547.3,185.67,643.15,0,643.15v214.38"/>
    <path class="st3" d="M1485.27,5374.94c-185.67-547.3-185.67-643.15,0-643.15v-214.38"/>
    <path class="st3" d="M742.62,4946.17c381.14-434.44,464.15-482.37,556.99-321.58l185.66-107.19"/>
    <path class="st3" d="M2227.92,4088.63c-381.14,434.45-464.15,482.37-556.99,321.58l-185.66,107.19"/>
    <path class="st3" d="M2227.92,4946.17c-566.81-112.85-649.82-160.78-556.99-321.58l-185.66-107.19"/>
    <path class="st3" d="M742.62,4088.63c566.81,112.86,649.82,160.78,556.99,321.58l185.66,107.19"/>
    <path class="st3" d="M2227.92,4946.07c185.67,547.3,185.67,643.15,0,643.15v214.38"/>
    <path class="st3" d="M2227.92,6661.14c-185.67-547.3-185.67-643.15,0-643.15v-214.38"/>
    <path class="st3" d="M1485.27,6232.38c381.14-434.45,464.15-482.37,556.99-321.58l185.66-107.19"/>
    <path class="st3" d="M2970.57,5374.84c-381.14,434.44-464.15,482.37-556.99,321.58l-185.66,107.19"/>
    <path class="st3" d="M2970.57,6232.38c-566.81-112.86-649.82-160.78-556.99-321.58l-185.66-107.19"/>
    <path class="st3" d="M1485.27,5374.84c566.81,112.86,649.82,160.78,556.99,321.57l185.66,107.19"/>
    <path class="st3" d="M-.03,3659.87c185.67,547.3,185.67,643.15,0,643.15v214.38"/>
    <path class="st3" d="M-.03,5374.94c-185.67-547.3-185.67-643.15,0-643.15v-214.38"/>
    <path class="st3" d="M-742.68,4946.17c381.14-434.44,464.15-482.37,556.99-321.58L-.03,4517.4"/>
    <path class="st3" d="M742.62,4088.63c-381.14,434.45-464.15,482.37-556.99,321.58L-.03,4517.4"/>
    <path class="st3" d="M742.62,4946.17c-566.81-112.85-649.82-160.78-556.99-321.58L-.03,4517.4"/>
    <path class="st3" d="M-742.68,4088.63c566.81,112.86,649.82,160.78,556.99,321.58L-.03,4517.4"/>
    <path class="st3" d="M742.62,4946.07c185.67,547.3,185.67,643.15,0,643.15v214.38"/>
    <path class="st3" d="M742.62,6661.14c-185.67-547.3-185.67-643.15,0-643.15v-214.38"/>
    <path class="st3" d="M-.03,6232.38c381.14-434.45,464.15-482.37,556.99-321.58l185.66-107.19"/>
    <path class="st3" d="M1485.27,5374.84c-381.14,434.44-464.15,482.37-556.99,321.58l-185.66,107.19"/>
    <path class="st3" d="M1485.27,6232.38c-566.81-112.86-649.82-160.78-556.99-321.58l-185.66-107.19"/>
    <path class="st3" d="M-.03,5374.84c566.81,112.86,649.82,160.78,556.99,321.57l185.66,107.19"/>
    <path class="st3" d="M1485.27,1087.26c185.67,547.3,185.67,643.15,0,643.15v214.38"/>
    <path class="st3" d="M1485.27,2802.33c-185.67-547.3-185.67-643.15,0-643.15v-214.38"/>
    <path class="st3" d="M742.62,2373.56c381.14-434.45,464.15-482.37,556.99-321.58l185.66-107.19"/>
    <path class="st3" d="M2227.92,1516.03c-381.14,434.44-464.15,482.37-556.99,321.58l-185.66,107.19"/>
    <path class="st3" d="M2227.92,2373.56c-566.81-112.86-649.82-160.78-556.99-321.58l-185.66-107.19"/>
    <path class="st3" d="M742.62,1516.03c566.81,112.86,649.82,160.78,556.99,321.57l185.66,107.19"/>
    <path class="st3" d="M2227.92,2373.46c185.67,547.3,185.67,643.15,0,643.15v214.38"/>
    <path class="st3" d="M2227.92,4088.53c-185.67-547.3-185.67-643.15,0-643.15v-214.38"/>
    <path class="st3" d="M1485.27,3659.77c381.14-434.44,464.15-482.37,556.99-321.58l185.66-107.19"/>
    <path class="st3" d="M2970.57,2802.23c-381.14,434.44-464.15,482.37-556.99,321.58l-185.66,107.19"/>
    <path class="st3" d="M2970.57,3659.77c-566.81-112.86-649.82-160.78-556.99-321.58l-185.66-107.19"/>
    <path class="st3" d="M1485.27,2802.23c566.81,112.86,649.82,160.78,556.99,321.58l185.66,107.19"/>
    <path class="st3" d="M-.03,1087.26C185.64,1634.55,185.64,1730.41-.03,1730.41v214.38"/>
    <path class="st3" d="M-.03,2802.33c-185.67-547.3-185.67-643.15,0-643.15v-214.38"/>
    <path class="st3" d="M-742.68,2373.56c381.14-434.45,464.15-482.37,556.99-321.58L-.03,1944.79"/>
    <path class="st3" d="M742.62,1516.03c-381.14,434.44-464.15,482.37-556.99,321.58L-.03,1944.79"/>
    <path class="st3" d="M742.62,2373.56c-566.81-112.86-649.82-160.78-556.99-321.58L-.03,1944.79"/>
    <path class="st3" d="M-742.68,1516.03c566.81,112.86,649.82,160.78,556.99,321.57L-.03,1944.79"/>
    <path class="st3" d="M742.62,2373.46c185.67,547.3,185.67,643.15,0,643.15v214.38"/>
    <path class="st3" d="M742.62,4088.53c-185.67-547.3-185.67-643.15,0-643.15v-214.38"/>
    <path class="st3" d="M-.03,3659.77c381.14-434.44,464.15-482.37,556.99-321.58l185.66-107.19"/>
    <path class="st3" d="M1485.27,2802.23c-381.14,434.44-464.15,482.37-556.99,321.58l-185.66,107.19"/>
    <path class="st3" d="M1485.27,3659.77c-566.81-112.86-649.82-160.78-556.99-321.58l-185.66-107.19"/>
    <path class="st3" d="M-.03,2802.23c566.81,112.86,649.82,160.78,556.99,321.58l185.66,107.19"/>
    <path class="st3" d="M1485.27-1485.35c185.67,547.3,185.67,643.15,0,643.15v214.38"/>
    <path class="st3" d="M1485.27,229.72c-185.67-547.3-185.67-643.15,0-643.15v-214.38"/>
    <path class="st3" d="M742.62-199.05c381.14-434.45,464.15-482.37,556.99-321.58l185.66-107.19"/>
    <path class="st3" d="M2227.92-1056.59c-381.14,434.44-464.15,482.37-556.99,321.58l-185.66,107.19"/>
    <path class="st3" d="M2227.92-199.05c-566.81-112.86-649.82-160.78-556.99-321.58l-185.66-107.19"/>
    <path class="st3" d="M742.62-1056.59c566.81,112.86,649.82,160.78,556.99,321.57l185.66,107.19"/>
    <path class="st3" d="M2227.92-199.15c185.67,547.3,185.67,643.15,0,643.15v214.38"/>
    <path class="st3" d="M2227.92,1515.92c-185.67-547.3-185.67-643.15,0-643.15v-214.38"/>
    <path class="st3" d="M1485.27,1087.16c381.14-434.44,464.15-482.37,556.99-321.58l185.66-107.19"/>
    <path class="st3" d="M2970.57,229.62c-381.14,434.44-464.15,482.37-556.99,321.58l-185.66,107.19"/>
    <path class="st3" d="M2970.57,1087.16c-566.81-112.86-649.82-160.78-556.99-321.58l-185.66-107.19"/>
    <path class="st3" d="M1485.27,229.62c566.81,112.86,649.82,160.78,556.99,321.58l185.66,107.19"/>
    <path class="st3" d="M-.03-1485.35C185.64-938.06,185.64-842.2-.03-842.2v214.38"/>
    <path class="st3" d="M-.03,229.72C-185.7-317.58-185.7-413.43-.03-413.43v-214.38"/>
    <path class="st3" d="M-742.68-199.05c381.14-434.45,464.15-482.37,556.99-321.58L-.03-627.82"/>
    <path class="st3" d="M742.62-1056.59c-381.14,434.44-464.15,482.37-556.99,321.58L-.03-627.82"/>
    <path class="st3" d="M742.62-199.05C175.81-311.9,92.8-359.83,185.63-520.62L-.03-627.82"/>
    <path class="st3" d="M-742.68-1056.59C-175.87-943.73-92.86-895.8-185.69-735.01L-.03-627.82"/>
    <path class="st3" d="M742.62-199.15c185.67,547.3,185.67,643.15,0,643.15v214.38"/>
    <path class="st3" d="M742.62,1515.92c-185.67-547.3-185.67-643.15,0-643.15v-214.38"/>
    <path class="st3" d="M-.03,1087.16c381.14-434.44,464.15-482.37,556.99-321.58l185.66-107.19"/>
    <path class="st3" d="M1485.27,229.62c-381.14,434.44-464.15,482.37-556.99,321.58l-185.66,107.19"/>
    <path class="st3" d="M1485.27,1087.16c-566.81-112.86-649.82-160.78-556.99-321.58l-185.66-107.19"/>
    <path class="st3" d="M-.03,229.62c566.81,112.86,649.82,160.78,556.99,321.58l185.66,107.19"/>
    <path class="st3" d="M4455.9,3659.87c185.67,547.3,185.67,643.15,0,643.15v214.38"/>
    <path class="st3" d="M4455.89,5374.94c-185.67-547.3-185.67-643.15,0-643.15v-214.38"/>
    <path class="st3" d="M3713.25,4946.17c381.14-434.44,464.15-482.37,556.99-321.58l185.66-107.19"/>
    <path class="st3" d="M5198.54,4088.63c-381.14,434.45-464.15,482.37-556.99,321.58l-185.66,107.19"/>
    <path class="st3" d="M5198.54,4946.17c-566.81-112.85-649.82-160.78-556.99-321.58l-185.66-107.19"/>
    <path class="st3" d="M3713.25,4088.63c566.81,112.86,649.82,160.78,556.99,321.58l185.66,107.19"/>
    <path class="st3" d="M5198.54,4946.07c185.67,547.3,185.67,643.15,0,643.15v214.38"/>
    <path class="st3" d="M5198.54,6661.14c-185.67-547.3-185.67-643.15,0-643.15v-214.38"/>
    <path class="st3" d="M4455.9,6232.38c381.14-434.45,464.15-482.37,556.99-321.58l185.66-107.19"/>
    <path class="st3" d="M5941.19,5374.84c-381.14,434.44-464.15,482.37-556.99,321.58l-185.66,107.19"/>
    <path class="st3" d="M5941.19,6232.38c-566.81-112.86-649.82-160.78-556.99-321.58l-185.66-107.19"/>
    <path class="st3" d="M4455.9,5374.84c566.81,112.86,649.82,160.78,556.99,321.57l185.66,107.19"/>
    <path class="st3" d="M2970.6,3659.87c185.67,547.3,185.67,643.15,0,643.15v214.38"/>
    <path class="st3" d="M2970.6,5374.94c-185.67-547.3-185.67-643.15,0-643.15v-214.38"/>
    <path class="st3" d="M2227.95,4946.17c381.14-434.44,464.15-482.37,556.99-321.58l185.66-107.19"/>
    <path class="st3" d="M3713.25,4088.63c-381.14,434.45-464.15,482.37-556.99,321.58l-185.66,107.19"/>
    <path class="st3" d="M3713.25,4946.17c-566.81-112.85-649.82-160.78-556.99-321.58l-185.66-107.19"/>
    <path class="st3" d="M2227.95,4088.63c566.81,112.86,649.82,160.78,556.99,321.58l185.66,107.19"/>
    <path class="st3" d="M3713.25,4946.07c185.67,547.3,185.67,643.15,0,643.15v214.38"/>
    <path class="st3" d="M3713.25,6661.14c-185.67-547.3-185.67-643.15,0-643.15v-214.38"/>
    <path class="st3" d="M2970.6,6232.38c381.14-434.45,464.15-482.37,556.99-321.58l185.66-107.19"/>
    <path class="st3" d="M4455.9,5374.84c-381.14,434.44-464.15,482.37-556.99,321.58l-185.66,107.19"/>
    <path class="st3" d="M4455.9,6232.38c-566.81-112.86-649.82-160.78-556.99-321.58l-185.66-107.19"/>
    <path class="st3" d="M2970.6,5374.84c566.81,112.86,649.82,160.78,556.99,321.57l185.66,107.19"/>
    <path class="st3" d="M4455.9,1087.26c185.67,547.3,185.67,643.15,0,643.15v214.38"/>
    <path class="st3" d="M4455.89,2802.33c-185.67-547.3-185.67-643.15,0-643.15v-214.38"/>
    <path class="st3" d="M3713.25,2373.56c381.14-434.45,464.15-482.37,556.99-321.58l185.66-107.19"/>
    <path class="st3" d="M5198.54,1516.03c-381.14,434.44-464.15,482.37-556.99,321.58l-185.66,107.19"/>
    <path class="st3" d="M5198.54,2373.56c-566.81-112.86-649.82-160.78-556.99-321.58l-185.66-107.19"/>
    <path class="st3" d="M3713.25,1516.03c566.81,112.86,649.82,160.78,556.99,321.57l185.66,107.19"/>
    <path class="st3" d="M5198.54,2373.46c185.67,547.3,185.67,643.15,0,643.15v214.38"/>
    <path class="st3" d="M5198.54,4088.53c-185.67-547.3-185.67-643.15,0-643.15v-214.38"/>
    <path class="st3" d="M4455.9,3659.77c381.14-434.44,464.15-482.37,556.99-321.58l185.66-107.19"/>
    <path class="st3" d="M5941.19,2802.23c-381.14,434.44-464.15,482.37-556.99,321.58l-185.66,107.19"/>
    <path class="st3" d="M5941.19,3659.77c-566.81-112.86-649.82-160.78-556.99-321.58l-185.66-107.19"/>
    <path class="st3" d="M4455.9,2802.23c566.81,112.86,649.82,160.78,556.99,321.58l185.66,107.19"/>
    <path class="st3" d="M2970.6,1087.26c185.67,547.3,185.67,643.15,0,643.15v214.38"/>
    <path class="st3" d="M2970.6,2802.33c-185.67-547.3-185.67-643.15,0-643.15v-214.38"/>
    <path class="st3" d="M2227.95,2373.56c381.14-434.45,464.15-482.37,556.99-321.58l185.66-107.19"/>
    <path class="st3" d="M3713.25,1516.03c-381.14,434.44-464.15,482.37-556.99,321.58l-185.66,107.19"/>
    <path class="st3" d="M3713.25,2373.56c-566.81-112.86-649.82-160.78-556.99-321.58l-185.66-107.19"/>
    <path class="st3" d="M2227.95,1516.03c566.81,112.86,649.82,160.78,556.99,321.57l185.66,107.19"/>
    <path class="st3" d="M3713.25,2373.46c185.67,547.3,185.67,643.15,0,643.15v214.38"/>
    <path class="st3" d="M3713.25,4088.53c-185.67-547.3-185.67-643.15,0-643.15v-214.38"/>
    <path class="st3" d="M2970.6,3659.77c381.14-434.44,464.15-482.37,556.99-321.58l185.66-107.19"/>
    <path class="st3" d="M4455.9,2802.23c-381.14,434.44-464.15,482.37-556.99,321.58l-185.66,107.19"/>
    <path class="st3" d="M4455.9,3659.77c-566.81-112.86-649.82-160.78-556.99-321.58l-185.66-107.19"/>
    <path class="st3" d="M2970.6,2802.23c566.81,112.86,649.82,160.78,556.99,321.58l185.66,107.19"/>
    <path class="st3" d="M4455.9-1485.35c185.67,547.3,185.67,643.15,0,643.15v214.38"/>
    <path class="st3" d="M4455.89,229.72c-185.67-547.3-185.67-643.15,0-643.15v-214.38"/>
    <path class="st3" d="M3713.25-199.05c381.14-434.45,464.15-482.37,556.99-321.58l185.66-107.19"/>
    <path class="st3" d="M5198.54-1056.59c-381.14,434.44-464.15,482.37-556.99,321.58l-185.66,107.19"/>
    <path class="st3" d="M5198.54-199.05c-566.81-112.86-649.82-160.78-556.99-321.58l-185.66-107.19"/>
    <path class="st3" d="M3713.25-1056.59c566.81,112.86,649.82,160.78,556.99,321.57l185.66,107.19"/>
    <path class="st3" d="M5198.54-199.15c185.67,547.3,185.67,643.15,0,643.15v214.38"/>
    <path class="st3" d="M5198.54,1515.92c-185.67-547.3-185.67-643.15,0-643.15v-214.38"/>
    <path class="st3" d="M4455.9,1087.16c381.14-434.44,464.15-482.37,556.99-321.58l185.66-107.19"/>
    <path class="st3" d="M5941.19,229.62c-381.14,434.44-464.15,482.37-556.99,321.58l-185.66,107.19"/>
    <path class="st3" d="M5941.19,1087.16c-566.81-112.86-649.82-160.78-556.99-321.58l-185.66-107.19"/>
    <path class="st3" d="M4455.9,229.62c566.81,112.86,649.82,160.78,556.99,321.58l185.66,107.19"/>
    <path class="st3" d="M2970.6-1485.35c185.67,547.3,185.67,643.15,0,643.15v214.38"/>
    <path class="st3" d="M2970.6,229.72c-185.67-547.3-185.67-643.15,0-643.15v-214.38"/>
    <path class="st3" d="M2227.95-199.05c381.14-434.45,464.15-482.37,556.99-321.58l185.66-107.19"/>
    <path class="st3" d="M3713.25-1056.59c-381.14,434.44-464.15,482.37-556.99,321.58l-185.66,107.19"/>
    <path class="st3" d="M3713.25-199.05c-566.81-112.86-649.82-160.78-556.99-321.58l-185.66-107.19"/>
    <path class="st3" d="M2227.95-1056.59c566.81,112.86,649.82,160.78,556.99,321.57l185.66,107.19"/>
    <path class="st3" d="M3713.25-199.15c185.67,547.3,185.67,643.15,0,643.15v214.38"/>
    <path class="st3" d="M3713.25,1515.92c-185.67-547.3-185.67-643.15,0-643.15v-214.38"/>
    <path class="st3" d="M2970.6,1087.16c381.14-434.44,464.15-482.37,556.99-321.58l185.66-107.19"/>
    <path class="st3" d="M4455.9,229.62c-381.14,434.44-464.15,482.37-556.99,321.58l-185.66,107.19"/>
    <path class="st3" d="M4455.9,1087.16c-566.81-112.86-649.82-160.78-556.99-321.58l-185.66-107.19"/>
    <path class="st3" d="M2970.6,229.62c566.81,112.86,649.82,160.78,556.99,321.58l185.66,107.19"/>
  </g>
  <g id="_x38_5_x5F_Rein" class="st5">
    <g>
      <path class="st3" d="M1485.27,1944.79v-214.38c185.67,0,185.67-95.85,0-643.15"/>
      <line class="st3" x1="1485.27" y1="1944.79" x2="1485.27" y2="1944.79"/>
      <path class="st3" d="M1485.27,1944.79v214.38c-159.46,0-181.97,70.71-67.53,437.36"/>
      <path class="st3" d="M1485.27,1944.79l-185.66,107.19c-92.83-160.79-175.84-112.87-556.96,321.55"/>
      <path class="st3" d="M742.62,2373.56s.02-.02.03-.03"/>
      <line class="st3" x1="742.62" y1="2373.56" x2="742.62" y2="2373.56"/>
      <line class="st3" x1="1485.27" y1="1944.79" x2="1485.27" y2="1944.79"/>
      <path class="st3" d="M2227.92,1516.03c-381.14,434.44-464.15,482.37-556.99,321.58l-185.66,107.19"/>
      <path class="st3" d="M2227.92,2373.56c-566.81-112.86-649.82-160.78-556.99-321.58l-185.66-107.19"/>
      <path class="st3" d="M1485.27,1944.79l-185.66-107.19c92.83-160.79,9.82-208.72-556.99-321.57"/>
      <path class="st3" d="M2300.81,2596.54c-19.84-64.39-44.12-138.27-72.86-222.98"/>
      <path class="st3" d="M2227.95,2373.56s-.02-.07-.03-.1"/>
      <path class="st3" d="M0,1730.41c185.63,0,185.63-95.87,0-643.07"/>
      <line class="st1" x1="-.03" y1="1944.79" x2="-.03" y2="1944.79"/>
      <path class="st1" d="M0,1087.34s-.02-.05-.03-.08"/>
      <path class="st1" d="M-.03,1944.79v-214.38h.03"/>
      <path class="st3" d="M0,1944.78l185.63-107.18c92.83,160.79,175.85,112.87,556.99-321.58"/>
      <line class="st1" y1="1944.78" x2="-.03" y2="1944.79"/>
      <line class="st1" x1="-.03" y1="1944.79" x2="-.03" y2="1944.79"/>
      <path class="st3" d="M742.62,2373.56h0"/>
      <path class="st3" d="M0,1944.81l185.63,107.18c-92.83,160.79-9.82,208.72,556.99,321.58"/>
      <line class="st1" y1="1944.81" x2="-.03" y2="1944.79"/>
      <path class="st3" d="M742.65,2373.53s-.02-.05-.02-.07"/>
      <path class="st3" d="M815.51,2596.54c-19.84-64.4-44.13-138.29-72.87-223.01"/>
      <path class="st3" d="M1410.34,0c20.21,65.95,45.17,142,74.9,229.65"/>
      <path class="st3" d="M1485.24,229.65s.02.05.02.07"/>
      <path class="st3" d="M2227.92,658.39v-214.38c160.42,0,182.23-71.57,65.45-444"/>
      <line class="st3" x1="2227.92" y1="658.39" x2="2227.92" y2="658.39"/>
      <path class="st3" d="M2227.92,658.39v214.38c-185.67,0-185.67,95.85,0,643.15"/>
      <line class="st3" x1="1485.27" y1="1087.16" x2="1485.27" y2="1087.16"/>
      <path class="st3" d="M2227.92,658.39l-185.66,107.19c-92.83-160.79-175.85-112.87-556.99,321.58"/>
      <path class="st3" d="M2970.57,229.62s0,0,0,0"/>
      <path class="st3" d="M2227.92,658.39l185.66-107.19c92.83,160.79,175.85,112.87,556.98-321.57"/>
      <path class="st3" d="M2227.92,658.39l185.66,107.19c-92.83,160.79-9.82,208.72,556.99,321.58"/>
      <path class="st3" d="M1485.27,229.62c566.81,112.86,649.82,160.78,556.99,321.58l185.66,107.19"/>
      <path class="st3" d="M742.62,658.39v-214.38c160.41,0,182.23-71.57,65.45-444"/>
      <path class="st3" d="M742.62,658.39v214.38c-185.67,0-185.67,95.85,0,643.15"/>
      <line class="st3" x1="742.62" y1="658.39" x2="742.62" y2="658.39"/>
      <path class="st3" d="M742.62,658.39l-185.66,107.19c-92.83-160.79-175.84-112.87-556.96,321.55"/>
      <path class="st1" d="M0,1087.12s-.02.02-.03.03"/>
      <path class="st3" d="M742.62,658.39l185.66-107.19c92.83,160.79,175.84,112.87,556.96-321.55"/>
      <path class="st3" d="M1485.27,229.62s-.02.02-.03.03"/>
      <path class="st3" d="M1485.27,1087.16h0"/>
      <path class="st3" d="M742.62,658.39l185.66,107.19c-92.83,160.79-9.82,208.72,556.99,321.58"/>
      <path class="st3" d="M0,229.62c566.79,112.85,649.79,160.78,556.96,321.57l185.66,107.19"/>
      <path class="st1" d="M0,229.62s-.02,0-.03,0"/>
      <path class="st3" d="M4455.9,1087.26c185.67,547.3,185.67,643.15,0,643.15v214.38"/>
      <line class="st3" x1="4455.9" y1="1944.79" x2="4455.9" y2="1944.79"/>
      <path class="st3" d="M4455.89,1944.79v214.38c-159.46,0-181.97,70.71-67.53,437.36"/>
      <path class="st3" d="M3713.25,2373.56s.02-.02.03-.03"/>
      <path class="st3" d="M4455.89,1944.79l-185.66,107.19c-92.83-160.79-175.84-112.87-556.96,321.55"/>
      <line class="st3" x1="4455.89" y1="1944.79" x2="4455.9" y2="1944.79"/>
      <path class="st3" d="M4455.9,1944.79l185.66-107.19c92.39,160.02,175.06,113.31,551.51-315.34"/>
      <path class="st3" d="M5193.07,2372.47c-561.85-112.07-644.05-160.21-551.51-320.48l-185.66-107.19"/>
      <path class="st1" d="M5193.07,2372.47c1.83.36,3.64.73,5.47,1.09"/>
      <path class="st3" d="M4455.89,1944.79l-185.66-107.19c92.83-160.79,9.82-208.72-556.99-321.57"/>
      <line class="st3" x1="2970.6" y1="1944.79" x2="2970.6" y2="1944.79"/>
      <path class="st3" d="M2970.6,1944.79v-214.38c185.67,0,185.67-95.85,0-643.15"/>
      <path class="st3" d="M2970.6,1944.79v214.38c-159.46,0-181.97,70.71-67.53,437.36"/>
      <path class="st3" d="M2227.95,2373.56s0,0,0,0"/>
      <path class="st3" d="M2227.95,2373.56c381.14-434.44,464.15-482.37,556.98-321.57l185.66-107.19"/>
      <line class="st3" x1="2970.6" y1="1944.79" x2="2970.6" y2="1944.79"/>
      <path class="st3" d="M2970.6,1944.79l185.66-107.19c92.83,160.79,175.85,112.87,556.99-321.58"/>
      <path class="st3" d="M3713.25,2373.56c-566.81-112.86-649.82-160.78-556.99-321.58l-185.66-107.19"/>
      <path class="st3" d="M2227.95,1516.03c566.81,112.86,649.82,160.78,556.99,321.57l185.66,107.19"/>
      <path class="st3" d="M3713.27,2373.53s-.02-.05-.03-.07"/>
      <path class="st3" d="M3786.14,2596.54c-19.84-64.4-44.13-138.29-72.87-223.01"/>
      <path class="st3" d="M4380.96,0c20.21,65.95,45.17,142,74.91,229.65"/>
      <path class="st3" d="M4455.89,229.72s-.02-.05-.02-.07"/>
      <path class="st3" d="M5193.07,872.8c-178.36,1.9-178.36,99.29,0,626.95"/>
      <path class="st3" d="M4455.9,1087.16c381.14-434.44,464.15-482.37,556.99-321.58l180.19-104.03"/>
      <path class="st3" d="M4455.9,229.62c566.81,112.86,649.82,160.78,556.99,321.58l180.19,104.03"/>
      <path class="st3" d="M2970.6,229.72s-.02-.06-.03-.1"/>
      <path class="st3" d="M2895.67,0c20.21,65.94,45.17,141.99,74.9,229.62"/>
      <path class="st3" d="M3713.25,658.39v-214.38c160.42,0,182.23-71.57,65.45-444"/>
      <line class="st3" x1="3713.25" y1="658.39" x2="3713.25" y2="658.39"/>
      <path class="st3" d="M3713.25,658.39v214.38c-185.67,0-185.67,95.85,0,643.15"/>
      <path class="st3" d="M3713.25,658.39l-185.66,107.19c-92.84-160.79-175.85-112.87-556.99,321.58"/>
      <path class="st3" d="M4455.87,229.65s.02-.02.03-.03"/>
      <path class="st3" d="M3713.25,658.39l185.66-107.19c92.83,160.79,175.84,112.87,556.96-321.55"/>
      <path class="st3" d="M4455.9,1087.16c-566.81-112.86-649.82-160.78-556.99-321.58l-185.66-107.19"/>
      <path class="st3" d="M2970.6,229.62c566.81,112.86,649.82,160.78,556.99,321.58l185.66,107.19"/>
      <line class="st1" x1="808.07" x2="1410.34"/>
      <line class="st1" x1="4380.96" x2="3778.7"/>
      <line class="st1" x1="3786.14" y1="2596.54" x2="4388.37" y2="2596.54"/>
      <line class="st1" x1="5193.07" y1="2372.47" x2="5193.07" y2="1522.26"/>
      <polyline class="st1" points="5193.07 655.23 5193.07 0 4380.96 0"/>
      <polyline class="st1" points="5193.07 2372.47 5193.07 2596.54 4388.37 2596.54"/>
      <polyline class="st1" points="0 1944.81 0 2596.54 815.51 2596.54"/>
      <line class="st1" x1="2300.81" y1="2596.54" x2="1417.74" y2="2596.54"/>
      <line class="st1" y1="1087.34" y2="1730.41"/>
      <line class="st1" x1="815.51" y1="2596.54" x2="1417.74" y2="2596.54"/>
      <line class="st1" x1="3778.7" x2="2895.67"/>
      <line class="st1" y1="1087.34" y2="1087.12"/>
      <line class="st1" y1="1944.81" y2="1944.78"/>
      <line class="st1" x1="5193.07" y1="872.8" x2="5193.07" y2="1499.75"/>
      <polyline class="st1" points="808.07 0 0 0 0 229.62"/>
      <line class="st1" x1="2895.67" x2="2293.37"/>
      <line class="st1" x1="2903.07" y1="2596.54" x2="3786.14" y2="2596.54"/>
      <line class="st1" x1="2293.37" x2="1410.34"/>
      <line class="st1" x1="5193.07" y1="1522.26" x2="5193.07" y2="1499.75"/>
      <line class="st1" x1="2300.81" y1="2596.54" x2="2903.07" y2="2596.54"/>
      <line class="st1" x1="5193.07" y1="655.23" x2="5193.07" y2="661.55"/>
      <line class="st1" y1="229.62" y2="1087.12"/>
      <line class="st1" x1="5193.07" y1="661.55" x2="5193.07" y2="872.8"/>
    </g>
  </g>
  <g id="_x38_6" class="st5">
    <path class="st3" d="M1485.32,2139.13c109.79,99.24,535.75,184.29,742.68,0"/>
    <path class="st3" d="M1485.32,2996.67c-109.79-99.24-535.75-184.29-742.68,0"/>
    <path class="st3" d="M1114,2782.28c31.05-144.7-108.28-556.12-371.34-643.18"/>
    <path class="st3" d="M1856.65,2353.52c-31.05,144.7,108.28,556.12,371.34,643.18"/>
    <path class="st3" d="M1856.65,2782.28c-140.84,45.46-427.47,371.83-371.34,643.18"/>
    <path class="st3" d="M1114,2353.51c140.84-45.46,427.47-371.83,371.34-643.18"/>
    <path class="st3" d="M2228,3425.48c109.79,99.24,535.75,184.29,742.68,0"/>
    <path class="st3" d="M2228,4283.02c-109.79-99.24-535.75-184.29-742.68,0"/>
    <path class="st3" d="M1856.68,4068.64c31.05-144.7-108.28-556.12-371.34-643.18"/>
    <path class="st3" d="M2599.33,3639.87c-31.05,144.7,108.28,556.12,371.34,643.18"/>
    <path class="st3" d="M2599.33,4068.64c-140.84,45.46-427.47,371.83-371.34,643.18"/>
    <path class="st3" d="M1856.68,3639.87c140.84-45.46,427.47-371.83,371.34-643.18"/>
    <path class="st3" d="M-.03,2139.13c109.79,99.24,535.75,184.29,742.68,0"/>
    <path class="st3" d="M-.03,2996.67c-109.79-99.24-535.75-184.29-742.68,0"/>
    <path class="st3" d="M-371.35,2782.28c31.05-144.7-108.28-556.12-371.34-643.18"/>
    <path class="st3" d="M371.29,2353.52c-31.05,144.7,108.28,556.12,371.34,643.18"/>
    <path class="st3" d="M371.29,2782.28C230.46,2827.74-56.18,3154.11-.05,3425.46"/>
    <path class="st3" d="M-371.35,2353.51C-230.52,2308.05,56.12,1981.68-.02,1710.34"/>
    <path class="st3" d="M742.65,3425.48c109.79,99.24,535.75,184.29,742.68,0"/>
    <path class="st3" d="M742.65,4283.02c-109.79-99.24-535.75-184.29-742.68,0"/>
    <path class="st3" d="M371.33,4068.64C402.37,3923.94,263.04,3512.52-.01,3425.46"/>
    <path class="st3" d="M1113.97,3639.87c-31.05,144.7,108.28,556.12,371.34,643.18"/>
    <path class="st3" d="M1113.97,4068.64c-140.84,45.46-427.47,371.83-371.34,643.18"/>
    <path class="st3" d="M371.32,3639.87c140.84-45.46,427.47-371.83,371.34-643.18"/>
    <path class="st3" d="M1485.32-433.48c109.79,99.24,535.75,184.29,742.68,0"/>
    <path class="st3" d="M1485.32,424.06c-109.79-99.24-535.75-184.29-742.68,0"/>
    <path class="st3" d="M1114,209.67c31.05-144.7-108.28-556.12-371.34-643.18"/>
    <path class="st3" d="M1856.65-219.09c-31.05,144.7,108.28,556.12,371.34,643.18"/>
    <path class="st3" d="M1856.65,209.67c-140.84,45.46-427.47,371.83-371.34,643.18"/>
    <path class="st3" d="M1114-219.1c140.84-45.46,427.47-371.83,371.34-643.18"/>
    <path class="st3" d="M2228,852.88c109.79,99.24,535.75,184.28,742.68,0"/>
    <path class="st3" d="M2228,1710.41c-109.79-99.24-535.75-184.29-742.68,0"/>
    <path class="st3" d="M1856.68,1496.03c31.05-144.7-108.28-556.11-371.34-643.18"/>
    <path class="st3" d="M2599.33,1067.26c-31.05,144.7,108.28,556.11,371.34,643.18"/>
    <path class="st3" d="M2599.33,1496.03c-140.84,45.46-427.47,371.83-371.34,643.18"/>
    <path class="st3" d="M1856.68,1067.26c140.84-45.46,427.47-371.83,371.34-643.18"/>
    <path class="st3" d="M-.03-433.48c109.79,99.24,535.75,184.29,742.68,0"/>
    <path class="st3" d="M-.03,424.06c-109.79-99.24-535.75-184.29-742.68,0"/>
    <path class="st3" d="M-371.35,209.67c31.05-144.7-108.28-556.12-371.34-643.18"/>
    <path class="st3" d="M371.29-219.09c-31.05,144.7,108.28,556.12,371.34,643.18"/>
    <path class="st3" d="M371.29,209.67C230.46,255.13-56.18,581.5-.05,852.85"/>
    <path class="st3" d="M-371.35-219.1C-230.52-264.55,56.12-590.93-.02-862.27"/>
    <path class="st3" d="M742.65,852.88c109.79,99.24,535.75,184.28,742.68,0"/>
    <path class="st3" d="M742.65,1710.41c-109.79-99.24-535.75-184.29-742.68,0"/>
    <path class="st3" d="M371.33,1496.03C402.37,1351.33,263.04,939.91-.01,852.85"/>
    <path class="st3" d="M1113.97,1067.26c-31.05,144.7,108.28,556.11,371.34,643.18"/>
    <path class="st3" d="M1113.97,1496.03c-140.84,45.46-427.47,371.83-371.34,643.18"/>
    <path class="st3" d="M371.32,1067.26c140.84-45.46,427.47-371.83,371.34-643.18"/>
    <path class="st3" d="M1485.32-3006.09c109.79,99.24,535.75,184.29,742.68,0"/>
    <path class="st3" d="M1485.32-2148.55c-109.79-99.24-535.75-184.29-742.68,0"/>
    <path class="st3" d="M1114-2362.94c31.05-144.7-108.28-556.11-371.34-643.18"/>
    <path class="st3" d="M1856.65-2791.7c-31.05,144.7,108.28,556.11,371.34,643.18"/>
    <path class="st3" d="M1856.65-2362.94c-140.84,45.46-427.47,371.83-371.34,643.18"/>
    <path class="st3" d="M1114-2791.7c140.84-45.46,427.47-371.83,371.34-643.18"/>
    <path class="st3" d="M2228-1719.73c109.79,99.24,535.75,184.28,742.68,0"/>
    <path class="st3" d="M2228-862.2c-109.79-99.24-535.75-184.29-742.68,0"/>
    <path class="st3" d="M1856.68-1076.58c31.05-144.7-108.28-556.12-371.34-643.18"/>
    <path class="st3" d="M2599.33-1505.35c-31.05,144.7,108.28,556.12,371.34,643.18"/>
    <path class="st3" d="M2599.33-1076.58c-140.84,45.46-427.47,371.83-371.34,643.18"/>
    <path class="st3" d="M1856.68-1505.35c140.84-45.46,427.47-371.83,371.34-643.18"/>
    <path class="st3" d="M-.03-3006.09c109.79,99.24,535.75,184.29,742.68,0"/>
    <path class="st3" d="M-.03-2148.55c-109.79-99.24-535.75-184.29-742.68,0"/>
    <path class="st3" d="M-371.35-2362.94c31.05-144.7-108.28-556.11-371.34-643.18"/>
    <path class="st3" d="M371.29-2791.7c-31.05,144.7,108.28,556.11,371.34,643.18"/>
    <path class="st3" d="M371.29-2362.94C230.46-2317.48-56.18-1991.11-.05-1719.76"/>
    <path class="st3" d="M-371.35-2791.7C-230.52-2837.17,56.12-3163.53-.02-3434.88"/>
    <path class="st3" d="M742.65-1719.73c109.79,99.24,535.75,184.28,742.68,0"/>
    <path class="st3" d="M742.65-862.2c-109.79-99.24-535.75-184.29-742.68,0"/>
    <path class="st3" d="M371.33-1076.58C402.37-1221.28,263.04-1632.7-.01-1719.76"/>
    <path class="st3" d="M1113.97-1505.35c-31.05,144.7,108.28,556.12,371.34,643.18"/>
    <path class="st3" d="M1113.97-1076.58c-140.84,45.46-427.47,371.83-371.34,643.18"/>
    <path class="st3" d="M371.32-1505.35c140.84-45.46,427.47-371.83,371.34-643.18"/>
    <path class="st3" d="M4456.02,2139.13c109.79,99.24,535.75,184.29,742.68,0"/>
    <path class="st3" d="M4456.02,2996.67c-109.79-99.24-535.75-184.29-742.68,0"/>
    <path class="st3" d="M4084.7,2782.28c31.05-144.7-108.28-556.12-371.34-643.18"/>
    <path class="st3" d="M4827.34,2353.52c-31.05,144.7,108.28,556.12,371.34,643.18"/>
    <path class="st3" d="M4827.34,2782.28c-140.84,45.46-427.47,371.83-371.34,643.18"/>
    <path class="st3" d="M4084.7,2353.51c140.84-45.46,427.47-371.83,371.34-643.18"/>
    <path class="st3" d="M5198.7,3425.48c109.79,99.24,535.75,184.29,742.68,0"/>
    <path class="st3" d="M5198.7,4283.02c-109.79-99.24-535.75-184.29-742.68,0"/>
    <path class="st3" d="M4827.38,4068.64c31.05-144.7-108.28-556.12-371.34-643.18"/>
    <path class="st3" d="M5570.02,3639.87c-31.05,144.7,108.28,556.12,371.34,643.18"/>
    <path class="st3" d="M5570.02,4068.64c-140.84,45.46-427.47,371.83-371.34,643.18"/>
    <path class="st3" d="M4827.37,3639.87c140.84-45.46,427.47-371.83,371.34-643.18"/>
    <path class="st3" d="M2970.67,2139.13c109.79,99.24,535.75,184.29,742.68,0"/>
    <path class="st3" d="M2970.67,2996.67c-109.79-99.24-535.75-184.29-742.68,0"/>
    <path class="st3" d="M2599.34,2782.28c31.05-144.7-108.28-556.12-371.34-643.18"/>
    <path class="st3" d="M3341.99,2353.52c-31.05,144.7,108.28,556.12,371.34,643.18"/>
    <path class="st3" d="M3341.99,2782.28c-140.84,45.46-427.47,371.83-371.34,643.18"/>
    <path class="st3" d="M2599.34,2353.51c140.84-45.46,427.47-371.83,371.34-643.18"/>
    <path class="st3" d="M3713.35,3425.48c109.79,99.24,535.75,184.29,742.68,0"/>
    <path class="st3" d="M3713.35,4283.02c-109.79-99.24-535.75-184.29-742.68,0"/>
    <path class="st3" d="M3342.02,4068.64c31.05-144.7-108.28-556.12-371.34-643.18"/>
    <path class="st3" d="M4084.67,3639.87c-31.05,144.7,108.28,556.12,371.34,643.18"/>
    <path class="st3" d="M4084.67,4068.64c-140.84,45.46-427.47,371.83-371.34,643.18"/>
    <path class="st3" d="M3342.02,3639.87c140.84-45.46,427.47-371.83,371.34-643.18"/>
    <path class="st3" d="M4456.02-433.48c109.79,99.24,535.75,184.29,742.68,0"/>
    <path class="st3" d="M4456.02,424.06c-109.79-99.24-535.75-184.29-742.68,0"/>
    <path class="st3" d="M4084.7,209.67c31.05-144.7-108.28-556.12-371.34-643.18"/>
    <path class="st3" d="M4827.34-219.09c-31.05,144.7,108.28,556.12,371.34,643.18"/>
    <path class="st3" d="M4827.34,209.67c-140.84,45.46-427.47,371.83-371.34,643.18"/>
    <path class="st3" d="M4084.7-219.1c140.84-45.46,427.47-371.83,371.34-643.18"/>
    <path class="st3" d="M5198.7,852.88c109.79,99.24,535.75,184.28,742.68,0"/>
    <path class="st3" d="M5198.7,1710.41c-109.79-99.24-535.75-184.29-742.68,0"/>
    <path class="st3" d="M4827.38,1496.03c31.05-144.7-108.28-556.11-371.34-643.18"/>
    <path class="st3" d="M5570.02,1067.26c-31.05,144.7,108.28,556.11,371.34,643.18"/>
    <path class="st3" d="M5570.02,1496.03c-140.84,45.46-427.47,371.83-371.34,643.18"/>
    <path class="st3" d="M4827.37,1067.26c140.84-45.46,427.47-371.83,371.34-643.18"/>
    <path class="st3" d="M2970.67-433.48c109.79,99.24,535.75,184.29,742.68,0"/>
    <path class="st3" d="M2970.67,424.06c-109.79-99.24-535.75-184.29-742.68,0"/>
    <path class="st3" d="M2599.34,209.67c31.05-144.7-108.28-556.12-371.34-643.18"/>
    <path class="st3" d="M3341.99-219.09c-31.05,144.7,108.28,556.12,371.34,643.18"/>
    <path class="st3" d="M3341.99,209.67c-140.84,45.46-427.47,371.83-371.34,643.18"/>
    <path class="st3" d="M2599.34-219.1c140.84-45.46,427.47-371.83,371.34-643.18"/>
    <path class="st3" d="M3713.35,852.88c109.79,99.24,535.75,184.28,742.68,0"/>
    <path class="st3" d="M3713.35,1710.41c-109.79-99.24-535.75-184.29-742.68,0"/>
    <path class="st3" d="M3342.02,1496.03c31.05-144.7-108.28-556.11-371.34-643.18"/>
    <path class="st3" d="M4084.67,1067.26c-31.05,144.7,108.28,556.11,371.34,643.18"/>
    <path class="st3" d="M4084.67,1496.03c-140.84,45.46-427.47,371.83-371.34,643.18"/>
    <path class="st3" d="M3342.02,1067.26c140.84-45.46,427.47-371.83,371.34-643.18"/>
    <path class="st3" d="M4456.02-3006.09c109.79,99.24,535.75,184.29,742.68,0"/>
    <path class="st3" d="M4456.02-2148.55c-109.79-99.24-535.75-184.29-742.68,0"/>
    <path class="st3" d="M4084.7-2362.94c31.05-144.7-108.28-556.11-371.34-643.18"/>
    <path class="st3" d="M4827.34-2791.7c-31.05,144.7,108.28,556.11,371.34,643.18"/>
    <path class="st3" d="M4827.34-2362.94c-140.84,45.46-427.47,371.83-371.34,643.18"/>
    <path class="st3" d="M4084.7-2791.7c140.84-45.46,427.47-371.83,371.34-643.18"/>
    <path class="st3" d="M5198.7-1719.73c109.79,99.24,535.75,184.28,742.68,0"/>
    <path class="st3" d="M5198.7-862.2c-109.79-99.24-535.75-184.29-742.68,0"/>
    <path class="st3" d="M4827.38-1076.58c31.05-144.7-108.28-556.12-371.34-643.18"/>
    <path class="st3" d="M5570.02-1505.35c-31.05,144.7,108.28,556.12,371.34,643.18"/>
    <path class="st3" d="M5570.02-1076.58c-140.84,45.46-427.47,371.83-371.34,643.18"/>
    <path class="st3" d="M4827.37-1505.35c140.84-45.46,427.47-371.83,371.34-643.18"/>
    <path class="st3" d="M2970.67-3006.09c109.79,99.24,535.75,184.29,742.68,0"/>
    <path class="st3" d="M2970.67-2148.55c-109.79-99.24-535.75-184.29-742.68,0"/>
    <path class="st3" d="M2599.34-2362.94c31.05-144.7-108.28-556.11-371.34-643.18"/>
    <path class="st3" d="M3341.99-2791.7c-31.05,144.7,108.28,556.11,371.34,643.18"/>
    <path class="st3" d="M3341.99-2362.94c-140.84,45.46-427.47,371.83-371.34,643.18"/>
    <path class="st3" d="M2599.34-2791.7c140.84-45.46,427.47-371.83,371.34-643.18"/>
    <path class="st3" d="M3713.35-1719.73c109.79,99.24,535.75,184.28,742.68,0"/>
    <path class="st3" d="M3713.35-862.2c-109.79-99.24-535.75-184.29-742.68,0"/>
    <path class="st3" d="M3342.02-1076.58c31.05-144.7-108.28-556.12-371.34-643.18"/>
    <path class="st3" d="M4084.67-1505.35c-31.05,144.7,108.28,556.12,371.34,643.18"/>
    <path class="st3" d="M4084.67-1076.58c-140.84,45.46-427.47,371.83-371.34,643.18"/>
    <path class="st3" d="M3342.02-1505.35c140.84-45.46,427.47-371.83,371.34-643.18"/>
  </g>
  <g id="_x38_6b" class="st5">
    <path class="st3" d="M1856.65,2353.52c185.69,321.58,559.16,107.19,742.69,428.77"/>
    <path class="st3" d="M1113.99,2782.28c-185.69-321.58-559.17-107.19-742.7-428.77"/>
    <path class="st3" d="M1113.99,2353.51c185.65-321.6-186.75-537.85-.02-857.58"/>
    <path class="st3" d="M1856.64,2782.29c-185.65,321.6,186.75,537.85.02,857.58"/>
    <path class="st3" d="M1485.31,2996.67c-371.34.02-372.41,430.66-742.67,428.81"/>
    <path class="st3" d="M1485.32,2139.12c371.34-.02,372.41-430.66,742.67-428.81"/>
    <path class="st3" d="M2599.33,3639.82c185.69,321.58,559.17,107.19,742.7,428.77"/>
    <path class="st3" d="M1856.67,4068.59c-185.69-321.57-559.17-107.19-742.7-428.77"/>
    <path class="st3" d="M2599.33,4068.6c-185.65,321.6,186.75,537.85.02,857.58"/>
    <path class="st3" d="M2228,4282.98c-371.34.02-372.41,430.66-742.67,428.81"/>
    <path class="st3" d="M2228,3425.43c371.34-.02,372.41-430.65,742.67-428.81"/>
    <path class="st3" d="M-371.37,2782.28c-185.69-321.58-559.17-107.19-742.7-428.77"/>
    <path class="st3" d="M-371.36,2353.51c185.65-321.6-186.75-537.85-.02-857.58"/>
    <path class="st3" d="M371.29,2782.29c-185.65,321.6,186.75,537.85.02,857.58"/>
    <path class="st3" d="M-.04,2996.67c-371.34.02-372.41,430.66-742.67,428.81"/>
    <path class="st3" d="M-.03,2139.12c371.34-.02,372.41-430.66,742.67-428.81"/>
    <path class="st3" d="M371.31,4068.59c-185.69-321.57-559.17-107.19-742.7-428.77"/>
    <path class="st3" d="M1113.97,4068.6c-185.65,321.6,186.75,537.85.02,857.58"/>
    <path class="st3" d="M742.64,4282.98c-371.34.02-372.41,430.66-742.67,428.81"/>
    <path class="st3" d="M1856.65-219.09c185.69,321.58,559.16,107.19,742.69,428.77"/>
    <path class="st3" d="M1113.99,209.67C928.3-111.9,554.82,102.48,371.29-219.09"/>
    <path class="st3" d="M1113.99-219.1c185.65-321.6-186.75-537.85-.02-857.58"/>
    <path class="st3" d="M1856.64,209.68c-185.65,321.6,186.75,537.85.02,857.58"/>
    <path class="st3" d="M1485.31,424.06c-371.34.02-372.41,430.65-742.67,428.81"/>
    <path class="st3" d="M1485.32-433.48c371.34-.02,372.41-430.65,742.67-428.81"/>
    <path class="st3" d="M2599.33,1067.21c185.69,321.57,559.17,107.19,742.7,428.77"/>
    <path class="st3" d="M1856.67,1495.98c-185.69-321.58-559.17-107.19-742.7-428.77"/>
    <path class="st3" d="M2599.33,1495.98c-185.65,321.6,186.75,537.85.02,857.58"/>
    <path class="st3" d="M2228,852.82c371.34-.02,372.41-430.66,742.67-428.81"/>
    <path class="st3" d="M-371.37,209.67c-185.69-321.58-559.17-107.19-742.7-428.77"/>
    <path class="st3" d="M-371.36-219.1c185.65-321.6-186.75-537.85-.02-857.58"/>
    <path class="st3" d="M371.29,209.68c-185.65,321.6,186.75,537.85.02,857.58"/>
    <path class="st3" d="M-.04,424.06c-371.34.02-372.41,430.65-742.67,428.81"/>
    <path class="st3" d="M-.03-433.48c371.34-.02,372.41-430.65,742.67-428.81"/>
    <path class="st3" d="M371.31,1495.98c-185.69-321.58-559.17-107.19-742.7-428.77"/>
    <path class="st3" d="M4827.38,2353.52c185.69,321.58,559.17,107.19,742.7,428.77"/>
    <path class="st3" d="M4084.72,2782.28c-185.69-321.58-559.17-107.19-742.7-428.77"/>
    <path class="st3" d="M4084.72,2353.51c185.65-321.6-186.75-537.85-.02-857.58"/>
    <path class="st3" d="M4827.38,2782.29c-185.65,321.6,186.75,537.85.02,857.58"/>
    <path class="st3" d="M4456.04,2996.67c-371.34.02-372.41,430.66-742.67,428.81"/>
    <path class="st3" d="M4456.05,2139.12c371.34-.02,372.41-430.66,742.67-428.81"/>
    <path class="st3" d="M5570.06,3639.82c185.69,321.58,559.17,107.19,742.7,428.77"/>
    <path class="st3" d="M4827.4,4068.59c-185.69-321.57-559.17-107.19-742.7-428.77"/>
    <path class="st3" d="M5570.06,4068.6c-185.65,321.6,186.75,537.85.02,857.58"/>
    <path class="st3" d="M5198.73,4282.98c-371.34.02-372.41,430.66-742.67,428.81"/>
    <path class="st3" d="M5198.73,3425.43c371.34-.02,372.41-430.65,742.67-428.81"/>
    <path class="st3" d="M3342.02,2782.29c-185.65,321.6,186.75,537.85.02,857.58"/>
    <path class="st3" d="M2970.7,2139.12c371.34-.02,372.41-430.66,742.67-428.81"/>
    <path class="st3" d="M4084.7,4068.6c-185.65,321.6,186.75,537.85.02,857.58"/>
    <path class="st3" d="M3713.37,4282.98c-371.34.02-372.41,430.66-742.67,428.81"/>
    <path class="st3" d="M4827.38-219.09c185.69,321.58,559.17,107.19,742.7,428.77"/>
    <path class="st3" d="M4084.72,209.67c-185.69-321.58-559.17-107.19-742.7-428.77"/>
    <path class="st3" d="M4084.72-219.1c185.65-321.6-186.75-537.85-.02-857.58"/>
    <path class="st3" d="M4827.38,209.68c-185.65,321.6,186.75,537.85.02,857.58"/>
    <path class="st3" d="M4456.04,424.06c-371.34.02-372.41,430.65-742.67,428.81"/>
    <path class="st3" d="M4456.05-433.48c371.34-.02,372.41-430.65,742.67-428.81"/>
    <path class="st3" d="M5570.06,1067.21c185.69,321.57,559.17,107.19,742.7,428.77"/>
    <path class="st3" d="M4827.4,1495.98c-185.69-321.58-559.17-107.19-742.7-428.77"/>
    <path class="st3" d="M5570.06,1495.98c-185.65,321.6,186.75,537.85.02,857.58"/>
    <path class="st3" d="M5198.73,852.82c371.34-.02,372.41-430.66,742.67-428.81"/>
    <path class="st3" d="M2599.37-219.1c185.65-321.6-186.75-537.85-.02-857.58"/>
    <path class="st3" d="M3342.02,209.68c-185.65,321.6,186.75,537.85.02,857.58"/>
    <path class="st3" d="M2970.7-433.48c371.34-.02,372.41-430.65,742.67-428.81"/>
  </g>
  <g id="_x38_6_x5F_Rahmen" class="st5">
    <rect class="st3" x="-2.55" y="17.01" width="5198.74" height="2573.86"/>
  </g>
  <g id="_x38_6_x5F_Rein" class="st5">
    <g>
      <path class="st2" d="M2227.98,2139.15s.02-.01.03-.02"/>
      <path class="st2" d="M1485.32,2139.13c109.78,99.23,535.71,184.28,742.65.02"/>
      <path class="st2" d="M1097.34,2596.54c-46.78-176.16-170.35-396.43-354.68-457.43"/>
      <path class="st2" d="M1856.65,2353.52c-11.6,54.06.58,145.34,34.11,243.02"/>
      <path class="st2" d="M1485.35,1710.39s0-.04-.01-.05"/>
      <path class="st2" d="M1485.35,1710.39c56.08,271.33-230.52,597.67-371.35,643.12"/>
      <path class="st1" d="M0,2139.16s-.02-.02-.03-.03"/>
      <path class="st2" d="M742.62,2139.15s.02-.01.03-.02"/>
      <path class="st2" d="M742.62,2139.15c-206.92,184.24-632.8,99.23-742.62,0"/>
      <path class="st2" d="M371.29,2353.52c-11.6,54.06.59,145.33,34.11,243.02"/>
      <path class="st2" d="M371.29,2353.52s0,0,0,0"/>
      <path class="st1" d="M0,1710.39s0-.04-.01-.05"/>
      <path class="st1" d="M0,1710.42s0-.02,0-.02"/>
      <path class="st2" d="M1485.32,424.06c-109.79-99.24-535.75-184.29-742.68,0"/>
      <path class="st2" d="M1114,209.67c10.27-47.85,1.9-124.87-23.41-209.67"/>
      <path class="st2" d="M2227.99,424.08c-172.86-57.21-292.29-254.47-345.06-424.08"/>
      <path class="st2" d="M1856.65,209.67c-140.84,45.46-427.47,371.83-371.34,643.18"/>
      <path class="st2" d="M2970.68,852.88c-206.93,184.28-632.89,99.24-742.68,0"/>
      <path class="st2" d="M2227.9,1710.32c-109.95-99.19-535.68-184.13-742.55.07"/>
      <path class="st2" d="M1485.35,1710.39s-.02.01-.02.02"/>
      <path class="st2" d="M2228,1710.41s-.07-.06-.11-.09"/>
      <path class="st2" d="M1856.68,1496.03c31.05-144.7-108.28-556.11-371.34-643.18"/>
      <path class="st2" d="M2599.33,1067.26c-31.05,144.7,108.28,556.11,371.34,643.18"/>
      <path class="st2" d="M2599.3,1496.03s.02,0,.03,0"/>
      <path class="st2" d="M2227.98,2139.15s0,.03,0,.05"/>
      <path class="st2" d="M2599.3,1496.03c-140.84,45.49-427.4,371.8-371.32,643.12"/>
      <path class="st2" d="M1856.68,1067.26c140.84-45.46,427.47-371.83,371.34-643.18"/>
      <path class="st2" d="M742.63,424.08C569.77,366.87,450.34,169.61,397.57,0"/>
      <path class="st2" d="M371.29,209.67C255.7,246.98,41.91,473.52,0,703.56"/>
      <path class="st2" d="M1485.33,852.88c-206.93,184.28-632.89,99.24-742.68,0"/>
      <path class="st2" d="M742.65,1710.41s-.07-.06-.11-.09"/>
      <path class="st2" d="M742.54,1710.32c-109.95-99.19-535.67-184.13-742.54.07"/>
      <path class="st1" d="M-.03,1710.41s.01-.01.02-.02"/>
      <path class="st1" d="M0,1710.39s0,0,0,0"/>
      <path class="st2" d="M371.33,1496.03c31.05-144.7-108.28-556.1-371.33-643.17"/>
      <path class="st1" d="M0,852.85s0,0-.01,0"/>
      <path class="st2" d="M1485.31,1710.44c-263.06-87.06-402.39-498.48-371.34-643.18"/>
      <path class="st2" d="M742.62,2139.15s0,.03,0,.05"/>
      <path class="st2" d="M1113.97,1496.03s-.05.02-.07.02"/>
      <path class="st2" d="M1113.9,1496.05c-140.85,45.55-427.35,371.81-371.28,643.1"/>
      <path class="st2" d="M742.66,424.08c56.13,271.35-230.5,597.72-371.34,643.18"/>
      <path class="st2" d="M4456.02,2139.13c108.8,98.35,528.12,182.75,737.05,4.89"/>
      <path class="st2" d="M4068.04,2596.54c-46.78-176.16-170.35-396.43-354.68-457.43"/>
      <path class="st2" d="M4827.34,2353.52c-11.6,54.06.58,145.34,34.11,243.02"/>
      <path class="st2" d="M4456.04,1710.39s0-.04,0-.05"/>
      <path class="st2" d="M4084.72,2353.5s-.02,0-.03,0"/>
      <path class="st2" d="M4084.72,2353.5c140.84-45.49,427.4-371.8,371.32-643.11"/>
      <path class="st2" d="M3713.32,2139.15c-206.94,184.25-632.87,99.21-742.65-.02"/>
      <path class="st2" d="M3713.32,2139.15s.02-.01.03-.02"/>
      <path class="st2" d="M2582.68,2596.54c-46.78-176.16-170.35-396.43-354.68-457.43"/>
      <path class="st2" d="M3341.99,2353.52c-11.6,54.06.58,145.34,34.11,243.02"/>
      <path class="st2" d="M2599.39,2353.5s-.03.01-.04.02"/>
      <path class="st2" d="M2970.69,1710.39c56.08,271.31-230.46,597.6-371.31,643.11"/>
      <path class="st2" d="M2970.69,1710.39s0-.04-.01-.05"/>
      <path class="st2" d="M3713.34,424.06c206.93-184.28,632.89-99.24,742.68,0"/>
      <path class="st2" d="M4084.7,209.67s0-.02,0-.03"/>
      <path class="st2" d="M4084.7,209.65c10.26-47.85,1.89-124.85-23.42-209.65"/>
      <path class="st1" d="M5198.68,424.08c-1.88-.62-3.75-1.26-5.61-1.92"/>
      <path class="st2" d="M4853.62,0c52.2,167.77,169.62,362.59,339.45,422.17"/>
      <path class="st2" d="M4456,852.85c-56.13-271.35,230.5-597.72,371.34-643.18"/>
      <path class="st2" d="M4456.04,1710.39s-.01.01-.02.02"/>
      <path class="st2" d="M4456.04,1710.39c203.56-181.25,619.02-101.92,737.03-4.83"/>
      <path class="st2" d="M4456.04,852.85c263.02,87.05,402.34,498.35,371.35,643.11"/>
      <path class="st2" d="M4827.39,1495.96s0,.05-.01.07"/>
      <path class="st2" d="M4827.4,1067.25c111.14-35.9,313.02-246.66,365.67-467.28"/>
      <path class="st2" d="M4827.37,1067.26s.02,0,.03,0"/>
      <path class="st2" d="M2970.67,424.06s-.03-.03-.05-.04"/>
      <path class="st2" d="M2227.99,424.06c206.9-184.26,632.76-99.26,742.63-.04"/>
      <path class="st2" d="M2599.34,209.67c10.27-47.85,1.9-124.87-23.41-209.67"/>
      <path class="st2" d="M3368.27,0c52.77,169.61,172.2,366.87,345.06,424.08"/>
      <path class="st2" d="M2970.65,852.85c-56.13-271.35,230.5-597.72,371.34-643.18"/>
      <path class="st2" d="M3713.35,852.88c109.79,99.24,535.75,184.28,742.68,0"/>
      <path class="st2" d="M2970.69,1710.39c206.87-184.2,632.6-99.27,742.55-.07"/>
      <path class="st2" d="M2970.69,1710.39s-.01.01-.02.02"/>
      <path class="st2" d="M3713.35,1710.41s-.07-.06-.11-.09"/>
      <path class="st2" d="M2970.68,852.85c263.06,87.06,402.39,498.48,371.34,643.18"/>
      <path class="st2" d="M4084.67,1067.26c-31.05,144.7,108.28,556.11,371.34,643.18"/>
      <path class="st2" d="M4084.64,1496.04s.02,0,.03-.01"/>
      <path class="st2" d="M3713.32,2139.15s0,.03,0,.05"/>
      <path class="st2" d="M3713.32,2139.15c-56.08-271.32,230.48-597.62,371.32-643.12"/>
      <path class="st2" d="M3342.02,1067.26s.02,0,.03,0"/>
      <path class="st2" d="M3342.05,1067.25c140.84-45.49,427.44-371.84,371.31-643.17"/>
      <path class="st2" d="M2356.11,2596.54c-176.38-51.62-378.06-32.77-499.47-243.02"/>
      <path class="st2" d="M869.29,2596.54c-176.82-51.62-378-32.77-498-243.02"/>
      <path class="st2" d="M371.29,2353.52s0,0,0,0"/>
      <path class="st2" d="M1113.9,1496.05s.04-.08.07-.12"/>
      <path class="st2" d="M1113.9,1496.05c-186.57,319.66,185.72,535.9.09,857.46"/>
      <path class="st2" d="M2227.9,1710.32h.09"/>
      <path class="st2" d="M2227.9,1710.32c-370.16-1.77-371.27,428.79-742.58,428.81"/>
      <path class="st1" d="M-.03,2139.12h.03"/>
      <path class="st2" d="M742.54,1710.32h.09"/>
      <path class="st2" d="M742.54,1710.32c-370.15-1.78-371.27,428.76-742.54,428.81"/>
      <path class="st2" d="M2253.17,0c131.21,25.66,259.75,58.25,346.17,209.67"/>
      <path class="st2" d="M1113.99,209.67C1026.55,58.25,897.48,25.66,766.2,0"/>
      <path class="st2" d="M1856.67,1067.26c186.73-319.73-185.67-535.98-.02-857.58"/>
      <path class="st2" d="M742.64,852.87c370.26,1.85,371.34-428.79,742.67-428.81"/>
      <path class="st2" d="M2599.33,1067.21c185.69,321.57,559.17,107.19,742.7,428.77"/>
      <path class="st2" d="M1856.67,1495.98c-185.69-321.58-559.17-107.19-742.7-428.77"/>
      <path class="st2" d="M2599.39,2353.5s-.02.04-.04.06"/>
      <path class="st2" d="M2599.3,1496.03s.02-.03.03-.05"/>
      <path class="st2" d="M2599.3,1496.03c-185.57,321.55,186.72,537.79.09,857.46"/>
      <path class="st2" d="M2228,852.82c371.32-.02,372.41-430.61,742.61-428.81"/>
      <path class="st2" d="M2970.62,424.01s.04,0,.06,0"/>
      <path class="st2" d="M371.31,1067.26c186.73-319.73-185.67-535.98-.02-857.58"/>
      <path class="st2" d="M371.31,1495.98c-92.66-160.46-232.07-187.48-371.31-214.22"/>
      <path class="st2" d="M4827.38,2353.52c91.41,158.3,228.33,186.73,365.69,213.14"/>
      <path class="st2" d="M3840.02,2596.54c-176.82-51.62-378.01-32.77-498-243.02"/>
      <path class="st2" d="M4084.64,1496.04s.04-.07.06-.1"/>
      <path class="st2" d="M4084.72,2353.5s0,0,0,0"/>
      <path class="st2" d="M4084.64,1496.04c-186.59,319.67,185.71,535.91.08,857.47"/>
      <path class="st2" d="M4456.05,2139.12c369.43-.02,372.41-426.23,737.02-428.79"/>
      <path class="st2" d="M2970.7,2139.12c371.29-.02,372.42-430.56,742.55-428.81"/>
      <path class="st2" d="M3713.37,1710.32s-.08,0-.12,0"/>
      <path class="st2" d="M4084.72,209.67s-.01-.02-.02-.03"/>
      <path class="st2" d="M3736.93,0c131.27,25.66,260.33,58.25,347.77,209.65"/>
      <path class="st2" d="M4827.4,1067.25s0,0,0,0"/>
      <path class="st2" d="M4827.38,209.68c-185.65,321.59,186.75,537.84.03,857.57"/>
      <path class="st2" d="M3713.37,852.87c370.26,1.85,371.34-428.79,742.67-428.81"/>
      <path class="st2" d="M4084.71,1067.21c183.53,321.57,556.99,107.2,742.68,428.75"/>
      <path class="st2" d="M4827.39,1495.96s0,.01.01.02"/>
      <path class="st2" d="M3342.05,1067.25s0,0,0,0"/>
      <path class="st2" d="M3342.05,1067.25c186.72-319.73-185.68-535.97-.03-857.57"/>
      <line class="st1" x1="4061.29" x2="4853.62"/>
      <line class="st1" y1="703.56" y2="852.85"/>
      <line class="st1" x1="5193.07" y1="422.17" x2="5193.07" y2="599.97"/>
      <line class="st1" x1="5193.07" y1="1705.56" x2="5193.07" y2="599.97"/>
      <line class="st1" x1="1097.34" y1="2596.54" x2="1890.76" y2="2596.54"/>
      <line class="st1" x1="2582.68" y1="2596.54" x2="3376.1" y2="2596.54"/>
      <line class="st1" y1="1281.76" y2="1710.39"/>
      <line class="st1" x1="1890.76" y1="2596.54" x2="2356.11" y2="2596.54"/>
      <line class="st1" x1="2582.68" y1="2596.54" x2="2356.11" y2="2596.54"/>
      <line class="st1" y1="2139.12" y2="2139.16"/>
      <line class="st1" x1="5193.07" y1="1705.56" x2="5193.07" y2="1710.34"/>
      <line class="st1" x1="1097.34" y1="2596.54" x2="869.29" y2="2596.54"/>
      <line class="st1" x1="4068.04" y1="2596.54" x2="4861.45" y2="2596.54"/>
      <line class="st1" x1="5193.07" y1="2031.78" x2="5193.07" y2="1710.34"/>
      <line class="st1" x1="405.4" y1="2596.54" x2="869.29" y2="2596.54"/>
      <line class="st1" x1="3376.1" y1="2596.54" x2="3840.02" y2="2596.54"/>
      <polyline class="st1" points="397.57 0 0 0 0 703.56"/>
      <line class="st1" x1="766.2" x2="397.57"/>
      <polyline class="st1" points="4861.45 2596.54 5193.07 2596.54 5193.07 2566.66"/>
      <line class="st1" x1="2253.17" x2="2575.93"/>
      <line class="st1" x1="1882.93" x2="2253.17"/>
      <line class="st1" y1="1281.76" y2="852.85"/>
      <line class="st1" x1="1090.59" x2="766.2"/>
      <line class="st1" x1="5193.07" y1="2101.42" x2="5193.07" y2="2144.02"/>
      <line class="st1" x1="1882.93" x2="1090.59"/>
      <line class="st1" y1="1710.42" y2="1859.29"/>
      <line class="st1" x1="2575.93" x2="3368.27"/>
      <line class="st1" y1="1710.42" y2="1710.39"/>
      <line class="st1" x1="5193.07" y1="2566.66" x2="5193.07" y2="2144.02"/>
      <polyline class="st1" points="5193.07 422.17 5193.07 0 4853.62 0"/>
      <line class="st1" x1="3368.27" x2="3736.93"/>
      <line class="st1" x1="4061.29" x2="3736.93"/>
      <line class="st1" x1="5193.07" y1="2101.42" x2="5193.07" y2="2031.78"/>
      <line class="st1" x1="4068.04" y1="2596.54" x2="3840.02" y2="2596.54"/>
      <polyline class="st1" points="0 2139.16 0 2596.54 405.4 2596.54"/>
      <line class="st1" y1="2139.12" y2="1859.29"/>
    </g>
  </g>
  <g id="_x33_._Sechseck" class="st5">
    <circle class="st4" cx="527.33" cy="464.17" r="21.26"/>
    <circle class="st4" cx="312.94" cy="464.17" r="21.26"/>
    <circle class="st4" cx="741.71" cy="464.17" r="21.26"/>
    <circle class="st4" cx="956.09" cy="464.17" r="21.26"/>
    <circle class="st4" cx="1170.48" cy="464.17" r="21.26"/>
    <circle class="st4" cx="527.33" cy="92.83" r="21.26"/>
    <circle class="st4" cx="741.71" cy="92.83" r="21.26"/>
    <circle class="st4" cx="956.09" cy="92.83" r="21.26"/>
    <circle class="st4" cx="1170.48" cy="92.83" r="21.26"/>
    <circle class="st4" cx="527.33" cy="1578.19" r="21.26"/>
    <circle class="st4" cx="312.94" cy="1206.85" r="21.26" transform="translate(-761.71 574.76) rotate(-45)"/>
    <circle class="st4" cx="741.71" cy="1578.19" r="21.26"/>
    <circle class="st4" cx="956.09" cy="1578.19" r="21.26"/>
    <circle class="st4" cx="1170.48" cy="1578.19" r="21.26"/>
    <circle class="st4" cx="527.33" cy="1206.85" r="21.26" transform="translate(-698.92 726.35) rotate(-45)"/>
    <circle class="st4" cx="741.71" cy="1206.85" r="21.26" transform="translate(-602.31 1654.31) rotate(-76.84)"/>
    <circle class="st4" cx="741.71" cy="835.51" r="21.26" transform="translate(-240.73 1367.51) rotate(-76.84)"/>
    <circle class="st4" cx="956.09" cy="1206.85" r="21.26" transform="translate(-399.2 1937.46) rotate(-79.94)"/>
    <circle class="st4" cx="1170.48" cy="1206.85" r="21.26" transform="translate(-372.74 539.79) rotate(-22.5)"/>
    <circle class="st4" cx="527.33" cy="835.51" r="21.26" transform="translate(-407.68 1154.74) rotate(-76.59)"/>
    <circle class="st4" cx="312.94" cy="835.51" r="21.26" transform="translate(-572.36 946.2) rotate(-76.59)"/>
    <circle class="st4" cx="98.56" cy="835.51" r="21.26" transform="translate(-741.89 797.68) rotate(-80.7)"/>
    <circle class="st4" cx="956.09" cy="835.51" r="21.26" transform="translate(-274.76 523.75) rotate(-26.94)"/>
    <circle class="st4" cx="1170.48" cy="835.51" r="21.26" transform="translate(158.27 1857.04) rotate(-80.78)"/>
    <circle class="st4" cx="1384.86" cy="835.51" r="21.26" transform="translate(253.53 1991.37) rotate(-76.72)"/>
    <circle class="st4" cx="420.13" cy="278.5" r="21.26" transform="translate(-52.22 454.45) rotate(-53.97)"/>
    <circle class="st4" cx="848.9" cy="278.5" r="21.26" transform="translate(384.44 1041.7) rotate(-76.84)"/>
    <circle class="st4" cx="1063.29" cy="278.5" r="21.26" transform="translate(-25.64 428.1) rotate(-22.5)"/>
    <circle class="st4" cx="634.52" cy="278.5" r="21.26" transform="translate(-11.08 530.24) rotate(-45)"/>
    <circle class="st4" cx="420.13" cy="1392.52" r="21.26" transform="translate(-953.14 913.2) rotate(-53.97)"/>
    <circle class="st4" cx="848.9" cy="1392.52" r="21.26" transform="translate(-700.32 1902.08) rotate(-76.84)"/>
    <circle class="st4" cx="1063.29" cy="1392.52" r="21.26" transform="translate(-451.96 512.9) rotate(-22.5)"/>
    <circle class="st4" cx="634.52" cy="1392.52" r="21.26" transform="translate(-798.81 856.53) rotate(-45)"/>
    <circle class="st4" cx="420.13" cy="1021.18" r="21.26"/>
    <circle class="st4" cx="205.75" cy="1021.18" r="21.26"/>
    <circle class="st4" cx="848.9" cy="1021.18" r="21.26"/>
    <circle class="st4" cx="1063.29" cy="1021.18" r="21.26"/>
    <circle class="st4" cx="1277.67" cy="1021.18" r="21.26"/>
    <circle class="st4" cx="634.52" cy="1021.18" r="21.26"/>
    <circle class="st4" cx="420.13" cy="649.84" r="21.26" transform="translate(-352.52 607.37) rotate(-53.97)"/>
    <circle class="st4" cx="634.52" cy="649.84" r="21.26" transform="translate(-273.66 639.01) rotate(-45)"/>
    <circle class="st4" cx="205.75" cy="649.84" r="21.26" transform="translate(-222.61 119.62) rotate(-21.37)"/>
    <circle class="st4" cx="1063.29" cy="649.84" r="21.26" transform="translate(-167.75 456.37) rotate(-22.5)"/>
    <circle class="st4" cx="1277.67" cy="649.84" r="21.26" transform="translate(-151.43 538.41) rotate(-22.5)"/>
    <circle class="st4" cx="1390.53" cy="464.17" r="21.26"/>
    <circle class="st4" cx="1390.53" cy="1206.85" r="21.26" transform="translate(-355.99 624) rotate(-22.5)"/>
    <circle class="st4" cx="1604.92" cy="835.51" r="21.26" transform="translate(523.12 2285.87) rotate(-80.78)"/>
    <circle class="st4" cx="1283.34" cy="278.5" r="21.26" transform="translate(717.44 1463.53) rotate(-76.72)"/>
    <circle class="st4" cx="1283.34" cy="1392.52" r="21.26" transform="translate(-366.78 2321.6) rotate(-76.72)"/>
    <circle class="st4" cx="1497.73" cy="1021.18" r="21.26"/>
    <circle class="st4" cx="1497.73" cy="649.84" r="21.26" transform="translate(-134.68 622.62) rotate(-22.5)"/>
    <circle class="st4" cx="1390.53" cy="92.83" r="21.26"/>
    <circle class="st4" cx="1390.53" cy="1578.19" r="21.26"/>
    <circle class="st4" cx="1610.59" cy="464.17" r="21.26"/>
    <circle class="st4" cx="1610.59" cy="1206.85" r="21.26" transform="translate(65.99 2497.07) rotate(-76.72)"/>
    <circle class="st4" cx="1824.97" cy="835.51" r="21.26" transform="translate(707.92 2503.08) rotate(-80.78)"/>
    <circle class="st4" cx="1503.39" cy="278.5" r="21.26" transform="translate(886.93 1677.69) rotate(-76.72)"/>
    <circle class="st4" cx="1503.39" cy="1392.52" r="21.26" transform="translate(-197.28 2535.76) rotate(-76.72)"/>
    <circle class="st4" cx="1717.78" cy="1021.18" r="21.26"/>
    <circle class="st4" cx="1717.78" cy="649.84" r="21.26" transform="translate(-117.93 706.83) rotate(-22.5)"/>
    <circle class="st4" cx="848.9" cy="649.84" r="21.26" transform="translate(22.85 1328.49) rotate(-76.84)"/>
  </g>
  <g id="Rahmen" class="st5">
    <rect class="st0" x="0" width="4270.39" height="2970.71"/>
  </g>
</svg>