<?xml version="1.0" encoding="UTF-8"?>
<svg id="Ebene_2" xmlns="http://www.w3.org/2000/svg" version="1.1" viewBox="0 0 311.81 162.78">
  <!-- Generator: Adobe Illustrator 29.1.0, SVG Export Plug-In . SVG Version: 2.1.0 Build 142)  -->
  <defs>
    <style>
      .st0, .st1 {
        fill: none;
        stroke: #1d1d1b;
        stroke-miterlimit: 10;
        stroke-width: 1.2px;
      }

      .st1 {
        stroke-linecap: round;
      }

      .st2 {
        fill: #1d1d1b;
        font-family: Helvetica, Helvetica;
        font-size: 8px;
      }
    </style>
  </defs>
  <text class="st2" transform="translate(130.2 154.57)"><tspan x="0" y="0">84</tspan></text>
  <g>
    <path class="st1" d="M48.71,113.58c25.82,0,8.61,19.87,34.42,19.87"/>
    <path class="st1" d="M48.71,113.58h0"/>
    <line class="st0" x1="83.13" y1="133.46" x2="83.13" y2="133.46"/>
    <path class="st0" d="M84.04,133.46c-.3,0-.6,0-.9,0"/>
    <line class="st0" x1="83.13" y1="133.46" x2="83.13" y2="133.46"/>
    <path class="st0" d="M83.13,133.46s0,0,0,0"/>
    <line class="st0" x1="83.13" y1="133.46" x2="83.13" y2="133.46"/>
    <path class="st1" d="M117.55,133.46c3.23-4.35,6.46-8.7,0-19.88"/>
    <path class="st1" d="M117.55,113.58s0,0,0,0"/>
    <path class="st1" d="M117.55,113.58s0,0,0,0"/>
    <path class="st1" d="M48.71,113.58s0,0,0,0"/>
    <path class="st1" d="M48.71,113.58c6.46,11.19,3.22,15.53,0,19.88"/>
    <path class="st1" d="M48.71,113.58c12.91-22.36,21.51,2.48,34.42-19.87"/>
    <path class="st1" d="M83.13,93.71s0,0,0,0"/>
    <path class="st1" d="M83.13,93.71s0,0,0,0"/>
    <path class="st1" d="M83.13,93.71h0"/>
    <path class="st1" d="M83.13,93.71c25.81,0,8.6,19.87,34.42,19.87"/>
    <path class="st1" d="M117.55,113.58h0"/>
    <path class="st1" d="M83.13,93.71c12.91,22.35-12.91,17.39,0,39.74"/>
    <path class="st1" d="M83.13,93.71s0,0,0,0"/>
    <path class="st1" d="M117.55,113.58s0,0,0,0"/>
    <path class="st1" d="M83.13,133.46c12.91-22.36,21.51,2.48,34.42-19.87"/>
    <path class="st0" d="M83.13,133.46s0,0,0,0"/>
    <line class="st0" x1="83.13" y1="133.46" x2="83.13" y2="133.46"/>
    <path class="st0" d="M14.17,133.45s.08,0,.12,0"/>
    <line class="st0" x1="14.29" y1="133.46" x2="14.29" y2="133.46"/>
    <line class="st0" x1="14.29" y1="133.46" x2="14.29" y2="133.46"/>
    <path class="st0" d="M15.2,133.46c-.3,0-.6,0-.9,0"/>
    <line class="st0" x1="14.29" y1="133.46" x2="14.29" y2="133.46"/>
    <path class="st0" d="M14.3,133.46s0,0,0,0"/>
    <path class="st1" d="M14.29,93.71c25.81,0,8.6,19.87,34.42,19.87"/>
    <path class="st1" d="M48.71,113.58h0"/>
    <path class="st0" d="M14.29,93.71h0"/>
    <path class="st1" d="M14.29,93.71c6.53,11.31,3.15,15.63-.12,20.03"/>
    <path class="st0" d="M14.29,93.71s0,0,0,0"/>
    <path class="st0" d="M14.29,133.46c-.04-.07-.08-.14-.12-.21"/>
    <path class="st1" d="M14.29,133.46c12.91-22.36,21.51,2.48,34.42-19.87"/>
    <path class="st1" d="M48.71,113.58s0,0,0,0"/>
    <line class="st0" x1="14.29" y1="133.46" x2="14.29" y2="133.46"/>
    <path class="st0" d="M14.29,133.46s0,0,0,0"/>
    <path class="st0" d="M80.99,14.17c.68.03,1.39.05,2.15.05"/>
    <line class="st0" x1="83.13" y1="14.22" x2="83.13" y2="14.22"/>
    <line class="st0" x1="83.13" y1="14.22" x2="83.13" y2="14.22"/>
    <path class="st1" d="M117.55,34.09h0"/>
    <path class="st1" d="M117.55,34.09h0"/>
    <path class="st1" d="M83.13,14.22c25.82,0,8.61,19.87,34.42,19.87"/>
    <path class="st1" d="M83.13,53.97s0,0,0,0"/>
    <line class="st0" x1="83.13" y1="14.22" x2="83.13" y2="14.22"/>
    <path class="st1" d="M83.13,53.97s0,0,0,0"/>
    <path class="st1" d="M83.13,14.22c12.91,22.36-12.91,17.39,0,39.74"/>
    <path class="st1" d="M117.59,14.17c-3.24,4.36-6.51,8.7-.04,19.92"/>
    <path class="st1" d="M117.55,34.09s0,0,0,0"/>
    <path class="st1" d="M48.75,14.17c-3.24,4.36-6.51,8.7-.04,19.92"/>
    <path class="st1" d="M83.13,53.97s0,0,0,0"/>
    <path class="st1" d="M83.13,53.97c12.91-22.35,21.51,2.48,34.42-19.87"/>
    <path class="st1" d="M83.13,53.97s0,0,0,0"/>
    <path class="st1" d="M83.13,53.97s0,0,0,0"/>
    <path class="st1" d="M48.71,34.1h0"/>
    <path class="st1" d="M48.71,34.1h0"/>
    <path class="st1" d="M83.13,53.97h0"/>
    <path class="st1" d="M83.13,53.97c-25.81,0-8.6-19.87-34.42-19.87"/>
    <line class="st0" x1="83.13" y1="14.22" x2="83.13" y2="14.22"/>
    <path class="st0" d="M83.1,14.17s.02.03.03.05"/>
    <path class="st0" d="M83.16,14.17s-.02.03-.03.05"/>
    <path class="st1" d="M83.13,14.22c-12.91,22.36-21.51-2.48-34.42,19.87"/>
    <path class="st1" d="M48.71,34.1s0,0,0,0"/>
    <line class="st0" x1="83.13" y1="14.22" x2="83.13" y2="14.22"/>
    <line class="st0" x1="83.13" y1="14.22" x2="83.13" y2="14.22"/>
    <path class="st1" d="M83.13,53.97h0"/>
    <line class="st1" x1="117.55" y1="73.84" x2="117.55" y2="73.84"/>
    <path class="st1" d="M83.13,53.97c25.81,0,8.6,19.87,34.42,19.87"/>
    <line class="st1" x1="83.13" y1="53.97" x2="83.13" y2="53.97"/>
    <path class="st1" d="M83.13,53.97h0"/>
    <path class="st1" d="M151.97,93.71h0"/>
    <path class="st1" d="M151.97,93.71c-25.82,0-8.61-19.87-34.42-19.87"/>
    <path class="st1" d="M117.55,113.58c-12.9-22.35,12.91-17.39,0-39.74"/>
    <path class="st1" d="M117.55,113.58s0,0,0,0"/>
    <path class="st1" d="M117.55,113.58s0,0,0,0"/>
    <path class="st1" d="M117.55,113.58s0,0,0,0"/>
    <path class="st1" d="M151.97,53.97s0,0,0,0"/>
    <path class="st1" d="M151.97,93.71s0,0,0,0"/>
    <path class="st1" d="M151.97,53.97s0,0,0,0"/>
    <path class="st1" d="M151.97,53.97c12.91,22.35-12.91,17.39,0,39.74"/>
    <path class="st1" d="M83.13,53.97c12.9,22.35-12.91,17.39,0,39.74"/>
    <path class="st1" d="M83.13,53.97s0,0,0,0"/>
    <path class="st1" d="M83.13,93.71s0,0,0,0"/>
    <path class="st1" d="M83.13,53.97s0,0,0,0"/>
    <path class="st1" d="M117.55,113.58s0,0,0,0"/>
    <path class="st1" d="M117.55,113.58s0,0,0,0"/>
    <path class="st1" d="M117.55,113.58c12.91-22.35,21.51,2.48,34.42-19.87"/>
    <path class="st1" d="M117.55,113.58s0,0,0,0"/>
    <path class="st1" d="M117.55,34.09h0"/>
    <path class="st1" d="M151.97,53.97c-25.81,0-8.61-19.87-34.42-19.87"/>
    <path class="st1" d="M151.97,53.97h0"/>
    <path class="st1" d="M151.97,53.97h0"/>
    <path class="st1" d="M117.55,73.84h0"/>
    <path class="st1" d="M117.55,34.09s0,0,0,0"/>
    <path class="st1" d="M117.55,73.84c-12.91-22.36,12.91-17.39,0-39.74"/>
    <path class="st1" d="M151.97,53.97c-12.91,22.36-21.51-2.48-34.42,19.87"/>
    <path class="st1" d="M151.97,53.97h0"/>
    <line class="st1" x1="117.55" y1="73.84" x2="117.55" y2="73.84"/>
    <path class="st1" d="M83.13,93.71c12.91-22.35,21.51,2.49,34.42-19.87"/>
    <path class="st1" d="M83.13,93.71s0,0,0,0"/>
    <line class="st1" x1="117.55" y1="73.84" x2="117.55" y2="73.84"/>
    <path class="st1" d="M83.13,93.71s0,0,0,0"/>
    <path class="st0" d="M14.29,14.22s-.08,0-.12,0"/>
    <line class="st0" x1="14.29" y1="14.22" x2="14.29" y2="14.22"/>
    <line class="st0" x1="14.29" y1="14.22" x2="14.29" y2="14.22"/>
    <path class="st1" d="M14.29,14.22c25.82,0,8.61,19.87,34.42,19.87"/>
    <path class="st1" d="M48.71,34.09h0"/>
    <path class="st1" d="M14.29,14.22c6.53,11.32,3.15,15.63-.12,20.03"/>
    <path class="st0" d="M14.29,53.97s0,0,0,0"/>
    <path class="st0" d="M14.29,53.97c-.04-.07-.08-.14-.12-.21"/>
    <path class="st0" d="M14.29,53.97s0,0,0,0"/>
    <line class="st0" x1="14.29" y1="14.22" x2="14.29" y2="14.22"/>
    <path class="st0" d="M14.29,53.97s0,0,0,0"/>
    <path class="st0" d="M14.29,53.97s0,0,0,0"/>
    <path class="st1" d="M14.29,53.97c12.91-22.35,21.51,2.48,34.42-19.87"/>
    <path class="st0" d="M14.26,14.17s.02.03.03.05"/>
    <path class="st0" d="M14.29,14.22s0,0,0,0"/>
    <path class="st0" d="M14.32,14.17s-.02.03-.03.05"/>
    <path class="st0" d="M14.29,14.22s0,0,0,0"/>
    <path class="st0" d="M14.17,14.43c.04-.07.08-.14.12-.2"/>
    <line class="st0" x1="14.29" y1="14.22" x2="14.29" y2="14.22"/>
    <path class="st0" d="M14.29,53.97h0"/>
    <path class="st0" d="M14.29,53.97h0"/>
    <path class="st1" d="M14.29,53.97c25.81,0,8.6,19.87,34.42,19.87"/>
    <path class="st1" d="M48.71,73.84c25.82,0,8.61,19.87,34.42,19.87"/>
    <line class="st1" x1="48.71" y1="73.84" x2="48.71" y2="73.84"/>
    <path class="st1" d="M83.13,93.71h0"/>
    <line class="st1" x1="48.71" y1="73.84" x2="48.71" y2="73.84"/>
    <path class="st1" d="M48.71,113.58s0,0,0,0"/>
    <path class="st1" d="M48.71,113.58c-12.9-22.35,12.91-17.39,0-39.74"/>
    <path class="st1" d="M48.71,113.58s0,0,0,0"/>
    <line class="st1" x1="48.71" y1="73.84" x2="48.71" y2="73.84"/>
    <path class="st1" d="M48.71,73.84s0,0,0,0"/>
    <path class="st1" d="M48.71,34.1c12.9,22.35-12.91,17.39,0,39.74"/>
    <path class="st1" d="M48.71,34.09s0,0,0,0"/>
    <path class="st1" d="M48.71,34.1s0,0,0,0"/>
    <path class="st1" d="M83.13,53.97c-12.91,22.35-21.51-2.49-34.42,19.87"/>
    <path class="st1" d="M83.13,53.97s0,0,0,0"/>
    <path class="st1" d="M14.29,93.71c12.91-22.35,21.51,2.49,34.42-19.87"/>
    <line class="st1" x1="48.71" y1="73.84" x2="48.71" y2="73.84"/>
    <path class="st1" d="M48.71,73.84s0,0,0,0"/>
    <path class="st0" d="M14.29,93.71s0,0,0,0"/>
    <path class="st0" d="M14.29,93.71s0,0,0,0"/>
    <line class="st1" x1="186.4" y1="113.58" x2="186.4" y2="113.58"/>
    <path class="st1" d="M186.4,113.58c25.82,0,8.61,19.87,34.42,19.87"/>
    <path class="st0" d="M221.72,133.46c-.3,0-.6,0-.9,0"/>
    <path class="st0" d="M220.82,133.46s0,0,0,0"/>
    <path class="st1" d="M186.4,113.58c6.46,11.19,3.22,15.53,0,19.88"/>
    <path class="st1" d="M186.4,113.58s0,0,0,0"/>
    <path class="st1" d="M220.81,93.71s0,0,0,0"/>
    <path class="st1" d="M186.4,113.58c12.91-22.36,21.51,2.48,34.42-19.87"/>
    <path class="st1" d="M220.82,93.71s0,0,0,0"/>
    <path class="st1" d="M220.82,93.71h0"/>
    <path class="st1" d="M220.82,93.71c25.77,0,8.66,19.81,34.3,19.87"/>
    <path class="st1" d="M220.82,93.71c12.91,22.35-12.91,17.39,0,39.74"/>
    <path class="st1" d="M220.82,93.71s0,0,0,0"/>
    <path class="st1" d="M220.82,133.46c12.87-22.29,21.46,2.33,34.3-19.67"/>
    <path class="st0" d="M220.82,133.46s0,0,0,0"/>
    <path class="st1" d="M151.97,133.46c-25.82,0-8.61-19.87-34.42-19.87"/>
    <path class="st1" d="M117.55,113.58h0"/>
    <path class="st1" d="M117.55,113.58h0"/>
    <path class="st0" d="M152.88,133.46c-.3,0-.6,0-.9,0"/>
    <path class="st0" d="M151.97,133.46s0,0,0,0"/>
    <path class="st1" d="M151.98,93.71c25.81,0,8.6,19.87,34.42,19.87"/>
    <path class="st1" d="M151.98,93.71h0"/>
    <path class="st1" d="M186.39,113.58h0"/>
    <path class="st1" d="M151.97,93.71s0,0,0,0"/>
    <path class="st1" d="M151.97,93.71c12.91,22.35-12.91,17.39,0,39.74"/>
    <path class="st1" d="M186.39,113.58s0,0,0,0"/>
    <path class="st1" d="M186.39,113.58c-12.91,22.36-21.51-2.48-34.42,19.87"/>
    <path class="st0" d="M151.97,133.46s0,0,0,0"/>
    <path class="st0" d="M218.67,14.17c.68.03,1.39.05,2.15.05"/>
    <line class="st0" x1="220.82" y1="14.22" x2="220.82" y2="14.22"/>
    <path class="st1" d="M220.82,14.22c25.78,0,8.66,19.81,34.3,19.87"/>
    <path class="st1" d="M220.82,14.22c12.91,22.36-12.91,17.39,0,39.74"/>
    <path class="st1" d="M220.82,53.97s0,0,0,0"/>
    <path class="st1" d="M220.82,53.97s0,0,0,0"/>
    <path class="st1" d="M255.12,14.38c-3.17,4.27-6.22,8.62,0,19.51"/>
    <path class="st1" d="M186.43,14.17c-3.24,4.36-6.51,8.7-.04,19.92"/>
    <path class="st1" d="M220.82,53.97s0,0,0,0"/>
    <path class="st1" d="M220.82,53.97s0,0,0,0"/>
    <path class="st1" d="M220.82,53.97s0,0,0,0"/>
    <path class="st1" d="M220.82,53.97c12.87-22.29,21.46,2.33,34.3-19.67"/>
    <path class="st1" d="M186.4,34.1h0"/>
    <path class="st1" d="M220.82,53.97h0"/>
    <path class="st1" d="M220.81,53.97c-25.81,0-8.6-19.87-34.42-19.87"/>
    <path class="st1" d="M186.4,34.1h0"/>
    <path class="st0" d="M220.79,14.17s.02.03.03.05"/>
    <line class="st0" x1="220.82" y1="14.22" x2="220.82" y2="14.22"/>
    <path class="st0" d="M220.84,14.17s-.02.03-.03.05"/>
    <line class="st0" x1="220.82" y1="14.22" x2="220.82" y2="14.22"/>
    <path class="st1" d="M186.4,34.1c12.91-22.36,21.51,2.48,34.42-19.87"/>
    <line class="st0" x1="220.82" y1="14.22" x2="220.82" y2="14.22"/>
    <path class="st1" d="M186.4,34.1h0"/>
    <path class="st1" d="M220.82,53.97h0"/>
    <line class="st1" x1="220.82" y1="53.97" x2="220.82" y2="53.97"/>
    <path class="st1" d="M220.82,53.97c25.77,0,8.66,19.81,34.3,19.87"/>
    <path class="st1" d="M255.12,93.87c-3.17,4.27-6.22,8.62,0,19.51"/>
    <path class="st1" d="M220.82,53.97s0,0,0,0"/>
    <path class="st1" d="M220.82,93.71s0,0,0,0"/>
    <path class="st1" d="M220.82,53.97c12.9,22.35-12.91,17.39,0,39.74"/>
    <path class="st1" d="M255.12,54.13c-3.17,4.27-6.22,8.62,0,19.51"/>
    <path class="st1" d="M220.82,93.71c12.87-22.28,21.46,2.33,34.3-19.67"/>
    <path class="st1" d="M220.82,93.71s0,0,0,0"/>
    <path class="st1" d="M220.82,93.71s0,0,0,0"/>
    <path class="st0" d="M149.83,14.17c.68.03,1.39.05,2.15.05"/>
    <line class="st0" x1="151.97" y1="14.22" x2="151.97" y2="14.22"/>
    <path class="st1" d="M186.39,34.09h0"/>
    <path class="st1" d="M151.97,14.22c25.82,0,8.61,19.87,34.42,19.87"/>
    <path class="st1" d="M151.97,53.97s0,0,0,0"/>
    <path class="st1" d="M151.97,53.97c-12.9-22.35,12.91-17.39,0-39.74"/>
    <path class="st1" d="M151.97,53.97s0,0,0,0"/>
    <path class="st1" d="M151.97,53.97s0,0,0,0"/>
    <path class="st1" d="M151.97,53.97s0,0,0,0"/>
    <path class="st1" d="M151.97,53.97s0,0,0,0"/>
    <path class="st1" d="M151.98,53.97c12.91-22.35,21.51,2.48,34.42-19.87"/>
    <path class="st1" d="M151.98,53.97s0,0,0,0"/>
    <line class="st0" x1="151.97" y1="14.22" x2="151.97" y2="14.22"/>
    <path class="st0" d="M151.95,14.17s.02.03.03.05"/>
    <path class="st0" d="M152,14.17s-.02.03-.03.05"/>
    <line class="st0" x1="151.97" y1="14.22" x2="151.97" y2="14.22"/>
    <path class="st1" d="M151.97,14.22c-12.91,22.36-21.51-2.48-34.42,19.87"/>
    <path class="st1" d="M117.56,34.09s0,0,0,0"/>
    <line class="st0" x1="151.97" y1="14.22" x2="151.97" y2="14.22"/>
    <path class="st1" d="M151.98,53.97c25.81,0,8.6,19.87,34.42,19.87"/>
    <path class="st1" d="M151.97,53.97h0"/>
    <path class="st1" d="M151.98,53.97h0"/>
    <path class="st1" d="M151.97,53.97h0"/>
    <path class="st1" d="M186.39,73.84h0"/>
    <line class="st1" x1="186.39" y1="73.84" x2="186.39" y2="73.84"/>
    <path class="st1" d="M220.81,93.71h0"/>
    <path class="st1" d="M186.39,73.84c25.82,0,8.61,19.87,34.42,19.87"/>
    <path class="st1" d="M186.39,73.84c12.91,22.36-12.91,17.39,0,39.74"/>
    <line class="st1" x1="186.39" y1="73.84" x2="186.39" y2="73.84"/>
    <path class="st1" d="M186.4,113.58s0,0,0,0"/>
    <path class="st1" d="M186.39,113.58s0,0,0,0"/>
    <path class="st1" d="M186.39,34.09s0,0,0,0"/>
    <path class="st1" d="M186.39,73.84h0"/>
    <path class="st1" d="M186.4,34.1s0,0,0,0"/>
    <path class="st1" d="M186.4,34.1c12.9,22.35-12.91,17.39,0,39.74"/>
    <path class="st1" d="M220.81,53.97c-12.91,22.35-21.51-2.49-34.42,19.87"/>
    <path class="st1" d="M220.81,53.97s0,0,0,0"/>
    <line class="st1" x1="186.39" y1="73.84" x2="186.39" y2="73.84"/>
    <line class="st1" x1="186.39" y1="73.84" x2="186.39" y2="73.84"/>
    <path class="st1" d="M151.97,93.71s0,0,0,0"/>
    <path class="st1" d="M151.98,93.71s0,0,0,0"/>
    <path class="st1" d="M151.98,93.71c12.91-22.35,21.51,2.49,34.42-19.87"/>
    <line class="st0" x1="255.12" y1="73.63" x2="255.12" y2="54.13"/>
    <line class="st0" x1="255.12" y1="113.78" x2="255.12" y2="113.58"/>
    <line class="st0" x1="80.99" y1="14.17" x2="48.75" y2="14.17"/>
    <polyline class="st0" points="221.72 133.46 255.12 133.46 255.12 113.78"/>
    <line class="st0" x1="255.12" y1="113.38" x2="255.12" y2="93.87"/>
    <line class="st0" x1="48.71" y1="133.46" x2="83.13" y2="133.46"/>
    <line class="st0" x1="14.17" y1="14.43" x2="14.17" y2="34.26"/>
    <line class="st0" x1="255.12" y1="14.38" x2="255.12" y2="33.89"/>
    <polyline class="st0" points="220.84 14.17 255.12 14.17 255.12 14.38"/>
    <line class="st0" x1="255.12" y1="34.09" x2="255.12" y2="34.3"/>
    <line class="st0" x1="255.12" y1="73.84" x2="255.12" y2="74.04"/>
    <line class="st0" x1="255.12" y1="113.38" x2="255.12" y2="113.58"/>
    <line class="st0" x1="14.17" y1="53.76" x2="14.17" y2="34.26"/>
    <line class="st0" x1="220.79" y1="14.17" x2="218.67" y2="14.17"/>
    <line class="st0" x1="151.95" y1="14.17" x2="149.83" y2="14.17"/>
    <line class="st0" x1="83.1" y1="14.17" x2="83.16" y2="14.17"/>
    <line class="st0" x1="14.17" y1="14.22" x2="14.17" y2="14.43"/>
    <polyline class="st0" points="14.17 133.45 14.17 133.46 14.29 133.46"/>
    <line class="st0" x1="48.71" y1="133.46" x2="15.2" y2="133.46"/>
    <line class="st0" x1="14.32" y1="14.17" x2="48.75" y2="14.17"/>
    <line class="st0" x1="83.1" y1="14.17" x2="80.99" y2="14.17"/>
    <line class="st0" x1="14.17" y1="133.25" x2="14.17" y2="113.74"/>
    <line class="st0" x1="14.26" y1="14.17" x2="14.32" y2="14.17"/>
    <polyline class="st0" points="14.26 14.17 14.17 14.17 14.17 14.22"/>
    <line class="st0" x1="14.29" y1="133.46" x2="14.3" y2="133.46"/>
    <line class="st0" x1="220.79" y1="14.17" x2="220.84" y2="14.17"/>
    <line class="st0" x1="186.39" y1="133.46" x2="152.88" y2="133.46"/>
    <line class="st0" x1="186.43" y1="14.17" x2="218.67" y2="14.17"/>
    <line class="st0" x1="221.72" y1="133.46" x2="220.82" y2="133.46"/>
    <line class="st0" x1="220.81" y1="133.46" x2="220.82" y2="133.46"/>
    <line class="st0" x1="220.81" y1="133.46" x2="186.39" y2="133.46"/>
    <line class="st0" x1="83.13" y1="133.46" x2="83.14" y2="133.46"/>
    <line class="st0" x1="149.83" y1="14.17" x2="117.59" y2="14.17"/>
    <line class="st0" x1="255.12" y1="93.87" x2="255.12" y2="74.04"/>
    <line class="st0" x1="83.14" y1="133.46" x2="84.04" y2="133.46"/>
    <line class="st0" x1="84.04" y1="133.46" x2="117.55" y2="133.46"/>
    <line class="st0" x1="151.97" y1="133.46" x2="117.55" y2="133.46"/>
    <line class="st0" x1="14.17" y1="53.76" x2="14.17" y2="113.74"/>
    <line class="st0" x1="152" y1="14.17" x2="186.43" y2="14.17"/>
    <line class="st0" x1="14.17" y1="133.45" x2="14.17" y2="133.25"/>
    <line class="st0" x1="255.12" y1="34.09" x2="255.12" y2="33.89"/>
    <line class="st0" x1="255.12" y1="34.3" x2="255.12" y2="54.13"/>
    <line class="st0" x1="83.16" y1="14.17" x2="117.59" y2="14.17"/>
    <line class="st0" x1="152.88" y1="133.46" x2="151.98" y2="133.46"/>
    <line class="st0" x1="151.95" y1="14.17" x2="152" y2="14.17"/>
    <line class="st0" x1="151.97" y1="133.46" x2="151.98" y2="133.46"/>
    <line class="st0" x1="255.12" y1="73.84" x2="255.12" y2="73.63"/>
    <line class="st0" x1="14.3" y1="133.46" x2="15.2" y2="133.46"/>
  </g>
</svg>