<?xml version="1.0" encoding="UTF-8"?>
<svg id="Ebene_2" xmlns="http://www.w3.org/2000/svg" version="1.1" viewBox="0 0 311.81 162.78">
  <!-- Generator: Adobe Illustrator 29.1.0, SVG Export Plug-In . SVG Version: 2.1.0 Build 142)  -->
  <defs>
    <style>
      .st0, .st1 {
        fill: none;
        stroke: #1d1d1b;
        stroke-miterlimit: 10;
        stroke-width: 1.2px;
      }

      .st1 {
        stroke-linecap: round;
      }

      .st2 {
        fill: #1d1d1b;
        font-family: Helvetica, Helvetica;
        font-size: 8px;
      }
    </style>
  </defs>
  <text class="st2" transform="translate(130.2 154.57)"><tspan x="0" y="0">85</tspan></text>
  <g>
    <path class="st1" d="M83.01,104.31v-9.94c8.61,0,8.61-4.44,0-29.81"/>
    <line class="st1" x1="83.01" y1="104.31" x2="83.01" y2="104.31"/>
    <path class="st1" d="M83.01,104.31v9.94c-7.39,0-8.43,3.28-3.13,20.27"/>
    <path class="st1" d="M83.01,104.31l-8.61,4.97c-4.3-7.45-8.15-5.23-25.81,14.9"/>
    <path class="st1" d="M48.59,124.18s0,0,0,0"/>
    <line class="st1" x1="48.59" y1="124.18" x2="48.59" y2="124.18"/>
    <line class="st1" x1="83.01" y1="104.31" x2="83.01" y2="104.31"/>
    <path class="st1" d="M117.43,84.44c-17.67,20.14-21.51,22.36-25.82,14.9l-8.61,4.97"/>
    <path class="st1" d="M117.43,124.18c-26.27-5.23-30.12-7.45-25.82-14.9l-8.61-4.97"/>
    <path class="st1" d="M83.01,104.31l-8.61-4.97c4.3-7.45.46-9.67-25.82-14.9"/>
    <path class="st1" d="M120.81,134.52c-.92-2.98-2.04-6.41-3.38-10.33"/>
    <path class="st1" d="M117.44,124.18s0,0,0,0"/>
    <path class="st1" d="M14.17,94.37c8.6,0,8.6-4.44,0-29.81"/>
    <line class="st0" x1="14.17" y1="104.31" x2="14.17" y2="104.31"/>
    <path class="st0" d="M14.17,64.57s0,0,0,0"/>
    <polyline class="st0" points="14.17 104.31 14.17 94.37 14.17 94.37"/>
    <path class="st1" d="M14.17,104.31l8.6-4.97c4.3,7.45,8.15,5.23,25.82-14.9"/>
    <line class="st0" x1="14.17" y1="104.31" x2="14.17" y2="104.31"/>
    <line class="st0" x1="14.17" y1="104.31" x2="14.17" y2="104.31"/>
    <path class="st1" d="M48.59,124.18h0"/>
    <path class="st1" d="M14.17,104.31l8.6,4.97c-4.3,7.45-.46,9.67,25.82,14.9"/>
    <line class="st0" x1="14.17" y1="104.31" x2="14.17" y2="104.31"/>
    <path class="st1" d="M48.59,124.18s0,0,0,0"/>
    <path class="st1" d="M51.97,134.52c-.92-2.98-2.05-6.41-3.38-10.34"/>
    <path class="st1" d="M79.54,14.17c.94,3.06,2.09,6.58,3.47,10.64"/>
    <path class="st1" d="M83.01,24.82s0,0,0,0"/>
    <path class="st1" d="M117.43,44.69v-9.94c7.43,0,8.45-3.32,3.03-20.58"/>
    <line class="st1" x1="117.43" y1="44.69" x2="117.43" y2="44.69"/>
    <path class="st1" d="M117.43,44.69v9.94c-8.61,0-8.61,4.44,0,29.81"/>
    <line class="st1" x1="83.01" y1="64.56" x2="83.01" y2="64.56"/>
    <path class="st1" d="M117.43,44.69l-8.61,4.97c-4.3-7.45-8.15-5.23-25.82,14.9"/>
    <path class="st1" d="M151.86,24.82s0,0,0,0"/>
    <path class="st1" d="M117.43,44.69l8.61-4.97c4.3,7.45,8.15,5.23,25.82-14.9"/>
    <path class="st1" d="M117.43,44.69l8.61,4.97c-4.3,7.45-.46,9.67,25.82,14.9"/>
    <path class="st1" d="M83.01,24.82c26.27,5.23,30.12,7.45,25.82,14.9l8.61,4.97"/>
    <path class="st1" d="M48.59,44.69v-9.94c7.43,0,8.45-3.32,3.03-20.58"/>
    <path class="st1" d="M48.59,44.69v9.94c-8.61,0-8.61,4.44,0,29.81"/>
    <line class="st1" x1="48.59" y1="44.69" x2="48.59" y2="44.69"/>
    <path class="st1" d="M48.59,44.69l-8.61,4.97c-4.3-7.45-8.15-5.23-25.81,14.9"/>
    <path class="st0" d="M14.17,64.56s0,0,0,0"/>
    <path class="st1" d="M48.59,44.69l8.61-4.97c4.3,7.45,8.15,5.23,25.81-14.9"/>
    <path class="st1" d="M83.01,24.82s0,0,0,0"/>
    <path class="st1" d="M83.01,64.56h0"/>
    <path class="st1" d="M48.59,44.69l8.61,4.97c-4.3,7.45-.46,9.67,25.82,14.9"/>
    <path class="st1" d="M14.17,24.82c26.27,5.23,30.12,7.45,25.81,14.9l8.61,4.97"/>
    <path class="st0" d="M14.17,24.82s0,0,0,0"/>
    <path class="st1" d="M220.7,64.57c8.61,25.37,8.61,29.81,0,29.81v9.94"/>
    <line class="st1" x1="220.7" y1="104.31" x2="220.7" y2="104.31"/>
    <path class="st1" d="M220.7,104.31v9.94c-7.39,0-8.43,3.28-3.13,20.27"/>
    <path class="st1" d="M186.28,124.18s0,0,0,0"/>
    <path class="st1" d="M220.7,104.31l-8.61,4.97c-4.3-7.45-8.15-5.23-25.81,14.9"/>
    <line class="st1" x1="220.7" y1="104.31" x2="220.7" y2="104.31"/>
    <path class="st1" d="M220.7,104.31l8.61-4.97c4.28,7.42,8.11,5.25,25.56-14.62"/>
    <path class="st1" d="M254.86,124.13c-26.04-5.19-29.85-7.43-25.56-14.85l-8.61-4.97"/>
    <path class="st0" d="M254.86,124.13c.08.02.17.03.25.05"/>
    <path class="st1" d="M220.7,104.31l-8.61-4.97c4.3-7.45.46-9.67-25.82-14.9"/>
    <line class="st1" x1="151.86" y1="104.31" x2="151.86" y2="104.31"/>
    <path class="st1" d="M151.86,104.31v-9.94c8.61,0,8.61-4.44,0-29.81"/>
    <path class="st1" d="M151.86,104.31v9.94c-7.39,0-8.43,3.28-3.13,20.27"/>
    <path class="st1" d="M117.44,124.18s0,0,0,0"/>
    <path class="st1" d="M117.44,124.18c17.67-20.14,21.51-22.36,25.82-14.9l8.61-4.97"/>
    <line class="st1" x1="151.86" y1="104.31" x2="151.86" y2="104.31"/>
    <path class="st1" d="M151.86,104.31l8.61-4.97c4.3,7.45,8.15,5.23,25.82-14.9"/>
    <path class="st1" d="M186.28,124.18c-26.27-5.23-30.12-7.45-25.82-14.9l-8.61-4.97"/>
    <path class="st1" d="M117.44,84.44c26.27,5.23,30.12,7.45,25.82,14.9l8.61,4.97"/>
    <path class="st1" d="M186.28,124.18s0,0,0,0"/>
    <path class="st1" d="M189.66,134.52c-.92-2.98-2.05-6.41-3.38-10.34"/>
    <path class="st1" d="M217.22,14.17c.94,3.06,2.09,6.58,3.47,10.64"/>
    <path class="st1" d="M220.7,24.82s0,0,0,0"/>
    <path class="st1" d="M254.86,54.63c-8.27.09-8.27,4.6,0,29.06"/>
    <path class="st1" d="M220.7,64.56c17.67-20.14,21.51-22.36,25.82-14.9l8.35-4.82"/>
    <path class="st1" d="M220.7,24.82c26.27,5.23,30.12,7.45,25.82,14.9l8.35,4.82"/>
    <path class="st1" d="M151.86,24.82s0,0,0,0"/>
    <path class="st1" d="M148.38,14.17c.94,3.06,2.09,6.58,3.47,10.64"/>
    <path class="st1" d="M186.28,44.69v-9.94c7.43,0,8.45-3.32,3.03-20.58"/>
    <line class="st1" x1="186.28" y1="44.69" x2="186.28" y2="44.69"/>
    <path class="st1" d="M186.28,44.69v9.94c-8.61,0-8.61,4.44,0,29.81"/>
    <path class="st1" d="M186.28,44.69l-8.61,4.97c-4.3-7.45-8.15-5.23-25.82,14.9"/>
    <path class="st1" d="M220.7,24.82s0,0,0,0"/>
    <path class="st1" d="M186.28,44.69l8.61-4.97c4.3,7.45,8.15,5.23,25.81-14.9"/>
    <path class="st1" d="M220.7,64.56c-26.27-5.23-30.12-7.45-25.82-14.9l-8.61-4.97"/>
    <path class="st1" d="M151.86,24.82c26.27,5.23,30.12,7.45,25.82,14.9l8.61,4.97"/>
    <line class="st0" x1="51.63" y1="14.17" x2="79.54" y2="14.17"/>
    <line class="st0" x1="217.22" y1="14.17" x2="189.31" y2="14.17"/>
    <line class="st0" x1="189.66" y1="134.52" x2="217.57" y2="134.52"/>
    <line class="st0" x1="254.86" y1="124.13" x2="254.86" y2="84.73"/>
    <polyline class="st0" points="254.86 44.54 254.86 14.17 217.22 14.17"/>
    <polyline class="st0" points="254.86 124.13 254.86 134.52 217.57 134.52"/>
    <polyline class="st0" points="14.17 104.31 14.17 134.52 51.97 134.52"/>
    <line class="st0" x1="120.81" y1="134.52" x2="79.88" y2="134.52"/>
    <line class="st0" x1="14.17" y1="64.57" x2="14.17" y2="94.37"/>
    <line class="st0" x1="51.97" y1="134.52" x2="79.88" y2="134.52"/>
    <line class="st0" x1="189.31" y1="14.17" x2="148.38" y2="14.17"/>
    <line class="st0" x1="14.17" y1="64.57" x2="14.17" y2="64.56"/>
    <line class="st0" x1="14.17" y1="104.31" x2="14.17" y2="104.31"/>
    <line class="st0" x1="254.86" y1="54.63" x2="254.86" y2="83.68"/>
    <polyline class="st0" points="51.63 14.17 14.17 14.17 14.17 24.82"/>
    <line class="st0" x1="148.38" y1="14.17" x2="120.47" y2="14.17"/>
    <line class="st0" x1="148.73" y1="134.52" x2="189.66" y2="134.52"/>
    <line class="st0" x1="120.47" y1="14.17" x2="79.54" y2="14.17"/>
    <line class="st0" x1="254.86" y1="84.73" x2="254.86" y2="83.68"/>
    <line class="st0" x1="120.81" y1="134.52" x2="148.73" y2="134.52"/>
    <line class="st0" x1="254.86" y1="44.54" x2="254.86" y2="44.83"/>
    <line class="st0" x1="14.17" y1="24.82" x2="14.17" y2="64.56"/>
    <line class="st0" x1="254.86" y1="44.83" x2="254.86" y2="54.63"/>
  </g>
</svg>