<?xml version="1.0" encoding="UTF-8"?>
<svg id="Ebene_2" xmlns="http://www.w3.org/2000/svg" version="1.1" viewBox="0 0 311.81 162.78">
  <!-- Generator: Adobe Illustrator 29.1.0, SVG Export Plug-In . SVG Version: 2.1.0 Build 142)  -->
  <defs>
    <style>
      .st0 {
        stroke-miterlimit: 10;
      }

      .st0, .st1 {
        fill: none;
        stroke: #1d1d1b;
        stroke-width: 1.2px;
      }

      .st1 {
        stroke-linecap: round;
        stroke-linejoin: round;
      }

      .st2 {
        fill: #1d1d1b;
        font-family: Helvetica, Helvetica;
        font-size: 8px;
      }
    </style>
  </defs>
  <text class="st2" transform="translate(130.2 154.57)"><tspan x="0" y="0">86</tspan></text>
  <g>
    <path class="st1" d="M117.43,113.32s0,0,0,0"/>
    <path class="st1" d="M83.02,113.32c5.09,4.6,24.83,8.54,34.42,0"/>
    <path class="st1" d="M65.03,134.51c-2.17-8.16-7.9-18.37-16.44-21.2"/>
    <path class="st1" d="M100.22,123.25c-.54,2.51.03,6.74,1.58,11.26"/>
    <path class="st1" d="M83.02,93.44s0,0,0,0"/>
    <path class="st1" d="M83.02,93.44c2.6,12.58-10.68,27.7-17.21,29.81"/>
    <path class="st0" d="M14.17,113.32s0,0,0,0"/>
    <path class="st1" d="M48.59,113.32s0,0,0,0"/>
    <path class="st1" d="M48.59,113.32c-9.59,8.54-29.33,4.6-34.42,0"/>
    <path class="st1" d="M31.38,123.25c-.54,2.51.03,6.74,1.58,11.26"/>
    <path class="st1" d="M31.38,123.25s0,0,0,0"/>
    <path class="st0" d="M14.17,93.44s0,0,0,0"/>
    <path class="st0" d="M14.17,93.45s0,0,0,0"/>
    <path class="st1" d="M83.02,33.83c-5.09-4.6-24.83-8.54-34.42,0"/>
    <path class="st1" d="M65.81,23.89c.48-2.22.09-5.79-1.08-9.72"/>
    <path class="st1" d="M117.44,33.83c-8.01-2.65-13.55-11.79-15.99-19.66"/>
    <path class="st1" d="M100.22,23.89c-6.53,2.11-19.81,17.23-17.21,29.81"/>
    <path class="st1" d="M151.86,53.7c-9.59,8.54-29.33,4.6-34.42,0"/>
    <path class="st1" d="M117.43,93.44c-5.1-4.6-24.83-8.53-34.41,0"/>
    <path class="st1" d="M83.02,93.44s0,0,0,0"/>
    <path class="st1" d="M117.44,93.45s0,0,0,0"/>
    <path class="st1" d="M100.23,83.51c1.44-6.71-5.02-25.77-17.21-29.81"/>
    <path class="st1" d="M134.65,63.64c-1.44,6.71,5.02,25.77,17.21,29.81"/>
    <path class="st1" d="M134.64,83.51s0,0,0,0"/>
    <path class="st1" d="M117.43,113.32s0,0,0,0"/>
    <path class="st1" d="M134.64,83.51c-6.53,2.11-19.81,17.23-17.21,29.81"/>
    <path class="st1" d="M100.23,63.64c6.53-2.11,19.81-17.23,17.21-29.81"/>
    <path class="st1" d="M48.59,33.83c-8.01-2.65-13.55-11.79-15.99-19.66"/>
    <path class="st1" d="M31.38,23.89c-5.36,1.73-15.27,12.23-17.21,22.89"/>
    <path class="st1" d="M83.02,53.7c-9.59,8.54-29.33,4.6-34.42,0"/>
    <path class="st1" d="M48.59,93.45s0,0,0,0"/>
    <path class="st1" d="M48.59,93.44c-5.1-4.6-24.83-8.53-34.41,0"/>
    <path class="st0" d="M14.17,93.45s0,0,0,0"/>
    <path class="st0" d="M14.17,93.44s0,0,0,0"/>
    <path class="st1" d="M31.38,83.51c1.44-6.71-5.02-25.77-17.21-29.81"/>
    <path class="st0" d="M14.17,53.7s0,0,0,0"/>
    <path class="st1" d="M83.01,93.45c-12.19-4.04-18.65-23.1-17.21-29.81"/>
    <path class="st1" d="M48.59,113.32s0,0,0,0"/>
    <path class="st1" d="M65.8,83.51s0,0,0,0"/>
    <path class="st1" d="M65.8,83.51c-6.53,2.11-19.81,17.23-17.21,29.81"/>
    <path class="st1" d="M48.6,33.83c2.6,12.58-10.68,27.7-17.21,29.81"/>
    <path class="st1" d="M220.7,113.32c5.04,4.56,24.48,8.47,34.16.23"/>
    <path class="st1" d="M202.72,134.51c-2.17-8.16-7.9-18.37-16.44-21.2"/>
    <path class="st1" d="M237.91,123.25c-.54,2.51.03,6.74,1.58,11.26"/>
    <path class="st1" d="M220.7,93.44s0,0,0,0"/>
    <path class="st1" d="M203.49,123.25s0,0,0,0"/>
    <path class="st1" d="M203.49,123.25c6.53-2.11,19.81-17.23,17.21-29.81"/>
    <path class="st1" d="M186.28,113.32c-9.59,8.54-29.33,4.6-34.42,0"/>
    <path class="st1" d="M186.28,113.32s0,0,0,0"/>
    <path class="st1" d="M133.87,134.51c-2.17-8.16-7.9-18.37-16.44-21.2"/>
    <path class="st1" d="M169.07,123.25c-.54,2.51.03,6.74,1.58,11.26"/>
    <path class="st1" d="M134.65,123.25s0,0,0,0"/>
    <path class="st1" d="M151.86,93.44c2.6,12.57-10.68,27.7-17.21,29.81"/>
    <path class="st1" d="M151.86,93.44s0,0,0,0"/>
    <path class="st1" d="M186.28,33.83c9.59-8.54,29.33-4.6,34.42,0"/>
    <path class="st1" d="M203.49,23.89s0,0,0,0"/>
    <path class="st1" d="M203.49,23.89c.48-2.22.09-5.79-1.09-9.72"/>
    <path class="st0" d="M255.12,33.83c-.09-.03-.17-.06-.26-.09"/>
    <path class="st1" d="M239.13,14.17c2.42,7.78,7.86,16.8,15.73,19.57"/>
    <path class="st1" d="M220.7,53.7c-2.6-12.58,10.68-27.7,17.21-29.81"/>
    <path class="st1" d="M220.7,93.44s0,0,0,0"/>
    <path class="st1" d="M220.7,93.44c9.43-8.4,28.69-4.72,34.16-.22"/>
    <path class="st1" d="M220.7,53.7c12.19,4.03,18.65,23.1,17.21,29.81"/>
    <path class="st1" d="M237.91,83.51s0,0,0,0"/>
    <path class="st1" d="M237.91,63.64c5.15-1.66,14.51-11.43,16.95-21.66"/>
    <path class="st1" d="M237.91,63.64s0,0,0,0"/>
    <path class="st1" d="M151.86,33.83s0,0,0,0"/>
    <path class="st1" d="M117.44,33.83c9.59-8.54,29.33-4.6,34.42,0"/>
    <path class="st1" d="M134.65,23.89c.48-2.22.09-5.79-1.08-9.72"/>
    <path class="st1" d="M170.28,14.17c2.45,7.86,7.98,17,15.99,19.66"/>
    <path class="st1" d="M151.86,53.7c-2.6-12.58,10.68-27.7,17.21-29.81"/>
    <path class="st1" d="M186.28,53.7c5.09,4.6,24.83,8.54,34.42,0"/>
    <path class="st1" d="M151.86,93.44c9.59-8.54,29.32-4.6,34.41,0"/>
    <path class="st1" d="M151.86,93.44s0,0,0,0"/>
    <path class="st1" d="M186.28,93.45s0,0,0,0"/>
    <path class="st1" d="M151.86,53.7c12.19,4.04,18.65,23.1,17.21,29.81"/>
    <path class="st1" d="M203.49,63.64c-1.44,6.71,5.02,25.77,17.21,29.81"/>
    <path class="st1" d="M203.49,83.51s0,0,0,0"/>
    <path class="st1" d="M186.28,113.32s0,0,0,0"/>
    <path class="st1" d="M186.28,113.32c-2.6-12.57,10.68-27.7,17.21-29.81"/>
    <path class="st1" d="M169.07,63.64s0,0,0,0"/>
    <path class="st1" d="M169.07,63.64c6.53-2.11,19.81-17.23,17.21-29.81"/>
    <path class="st1" d="M123.37,134.51c-8.17-2.39-17.52-1.52-23.15-11.26"/>
    <path class="st1" d="M54.46,134.51c-8.19-2.39-17.52-1.52-23.08-11.26"/>
    <path class="st1" d="M31.38,123.25s0,0,0,0"/>
    <path class="st1" d="M65.8,83.51s0,0,0,0"/>
    <path class="st1" d="M65.8,83.51c-8.65,14.82,8.61,24.84,0,39.74"/>
    <path class="st1" d="M117.43,93.44h0"/>
    <path class="st1" d="M117.43,93.44c-17.16-.08-17.21,19.87-34.42,19.87"/>
    <path class="st0" d="M14.17,113.32h0"/>
    <path class="st1" d="M48.59,93.44h0"/>
    <path class="st1" d="M48.59,93.44c-17.16-.08-17.21,19.87-34.41,19.87"/>
    <path class="st1" d="M118.6,14.17c6.08,1.19,12.04,2.7,16.04,9.72"/>
    <path class="st1" d="M65.8,23.89c-4.05-7.02-10.03-8.53-16.12-9.72"/>
    <path class="st1" d="M100.23,63.64c8.65-14.82-8.61-24.84,0-39.75"/>
    <path class="st1" d="M48.59,53.7c17.16.09,17.21-19.87,34.42-19.87"/>
    <path class="st1" d="M134.65,63.64c8.61,14.9,25.92,4.97,34.42,19.87"/>
    <path class="st1" d="M100.23,83.51c-8.61-14.9-25.92-4.97-34.42-19.87"/>
    <path class="st1" d="M134.65,123.25s0,0,0,0"/>
    <path class="st1" d="M134.64,83.51s0,0,0,0"/>
    <path class="st1" d="M134.64,83.51c-8.6,14.9,8.65,24.92,0,39.74"/>
    <path class="st1" d="M117.44,53.7c17.21,0,17.26-19.96,34.42-19.87"/>
    <path class="st1" d="M151.85,33.83s0,0,0,0"/>
    <path class="st1" d="M31.38,63.64c8.65-14.82-8.61-24.84,0-39.75"/>
    <path class="st1" d="M31.38,83.51c-4.29-7.44-10.76-8.69-17.21-9.93"/>
    <path class="st1" d="M237.91,123.25c4.24,7.34,10.58,8.65,16.95,9.88"/>
    <path class="st1" d="M192.15,134.51c-8.19-2.39-17.52-1.52-23.08-11.26"/>
    <path class="st1" d="M203.49,83.51s0,0,0,0"/>
    <path class="st1" d="M203.49,123.25s0,0,0,0"/>
    <path class="st1" d="M203.49,83.51c-8.65,14.82,8.61,24.84,0,39.74"/>
    <path class="st1" d="M220.7,113.32c17.12,0,17.26-19.75,34.16-19.87"/>
    <path class="st1" d="M151.86,113.32c17.21,0,17.26-19.96,34.41-19.87"/>
    <path class="st1" d="M186.28,93.44s0,0,0,0"/>
    <path class="st1" d="M203.49,23.89s0,0,0,0"/>
    <path class="st1" d="M187.37,14.17c6.08,1.19,12.07,2.7,16.12,9.72"/>
    <path class="st1" d="M237.91,63.64s0,0,0,0"/>
    <path class="st1" d="M237.91,23.89c-8.6,14.9,8.66,24.93,0,39.75"/>
    <path class="st1" d="M186.28,53.7c17.16.09,17.21-19.87,34.42-19.87"/>
    <path class="st1" d="M203.49,63.64c8.51,14.9,25.81,4.97,34.42,19.87"/>
    <path class="st1" d="M237.91,83.51s0,0,0,0"/>
    <path class="st1" d="M169.07,63.64s0,0,0,0"/>
    <path class="st1" d="M169.07,63.64c8.65-14.82-8.61-24.84,0-39.75"/>
    <line class="st0" x1="202.4" y1="14.17" x2="239.13" y2="14.17"/>
    <line class="st0" x1="14.17" y1="46.78" x2="14.17" y2="53.7"/>
    <line class="st0" x1="254.86" y1="33.74" x2="254.86" y2="41.98"/>
    <line class="st0" x1="254.86" y1="93.22" x2="254.86" y2="41.98"/>
    <line class="st0" x1="65.03" y1="134.51" x2="101.81" y2="134.51"/>
    <line class="st0" x1="133.87" y1="134.51" x2="170.65" y2="134.51"/>
    <line class="st0" x1="14.17" y1="73.58" x2="14.17" y2="93.44"/>
    <line class="st0" x1="101.81" y1="134.51" x2="123.37" y2="134.51"/>
    <line class="st0" x1="133.87" y1="134.51" x2="123.37" y2="134.51"/>
    <line class="st0" x1="14.17" y1="113.32" x2="14.17" y2="113.32"/>
    <line class="st0" x1="254.86" y1="93.22" x2="254.86" y2="93.44"/>
    <line class="st0" x1="65.03" y1="134.51" x2="54.46" y2="134.51"/>
    <line class="st0" x1="202.72" y1="134.51" x2="239.49" y2="134.51"/>
    <line class="st0" x1="254.86" y1="108.34" x2="254.86" y2="93.44"/>
    <line class="st0" x1="32.96" y1="134.51" x2="54.46" y2="134.51"/>
    <line class="st0" x1="170.65" y1="134.51" x2="192.15" y2="134.51"/>
    <polyline class="st0" points="32.6 14.17 14.17 14.17 14.17 46.78"/>
    <line class="st0" x1="49.69" y1="14.17" x2="32.6" y2="14.17"/>
    <polyline class="st0" points="239.49 134.51 254.86 134.51 254.86 133.13"/>
    <line class="st0" x1="118.6" y1="14.17" x2="133.56" y2="14.17"/>
    <line class="st0" x1="101.44" y1="14.17" x2="118.6" y2="14.17"/>
    <line class="st0" x1="14.17" y1="73.58" x2="14.17" y2="53.7"/>
    <line class="st0" x1="64.72" y1="14.17" x2="49.69" y2="14.17"/>
    <line class="st0" x1="254.86" y1="111.57" x2="254.86" y2="113.54"/>
    <line class="st0" x1="101.44" y1="14.17" x2="64.72" y2="14.17"/>
    <line class="st0" x1="14.17" y1="93.45" x2="14.17" y2="100.35"/>
    <line class="st0" x1="133.56" y1="14.17" x2="170.28" y2="14.17"/>
    <line class="st0" x1="14.17" y1="93.45" x2="14.17" y2="93.44"/>
    <line class="st0" x1="254.86" y1="133.13" x2="254.86" y2="113.54"/>
    <polyline class="st0" points="254.86 33.74 254.86 14.17 239.13 14.17"/>
    <line class="st0" x1="170.28" y1="14.17" x2="187.37" y2="14.17"/>
    <line class="st0" x1="202.4" y1="14.17" x2="187.37" y2="14.17"/>
    <line class="st0" x1="254.86" y1="111.57" x2="254.86" y2="108.34"/>
    <line class="st0" x1="202.72" y1="134.51" x2="192.15" y2="134.51"/>
    <polyline class="st0" points="14.17 113.32 14.17 134.51 32.96 134.51"/>
    <line class="st0" x1="14.17" y1="113.32" x2="14.17" y2="100.35"/>
  </g>
</svg>