<?xml version="1.0" encoding="UTF-8"?>
<svg id="Ebene_2" xmlns="http://www.w3.org/2000/svg" version="1.1" viewBox="0 0 311.81 481.89">
  <!-- Generator: Adobe Illustrator 29.1.0, SVG Export Plug-In . SVG Version: 2.1.0 Build 142)  -->
  <defs>
    <style>
      .st0 {
        fill: none;
        stroke: #1e1e1c;
        stroke-linecap: round;
        stroke-miterlimit: 10;
        stroke-width: 1.2px;
      }

      .st1 {
        fill: #1d1d1b;
        font-family: Helvetica, Helvetica;
        font-size: 8px;
      }
    </style>
  </defs>
  <text class="st1" transform="translate(73.5 161.66)"><tspan x="0" y="0">87</tspan></text>
  <text class="st1" transform="translate(229.41 161.66)"><tspan x="0" y="0">88</tspan></text>
  <g id="_x38_7_b">
    <line class="st0" x1="14.17" y1="77.95" x2="141.73" y2="77.95"/>
    <line class="st0" x1="77.95" y1="141.73" x2="77.95" y2="14.17"/>
  </g>
  <g id="Rahmen">
    <line class="st0" x1="14.17" y1="14.17" x2="141.73" y2="14.17"/>
    <line class="st0" x1="14.17" y1="141.73" x2="141.73" y2="141.73"/>
    <line class="st0" x1="14.17" y1="141.73" x2="14.17" y2="14.17"/>
    <line class="st0" x1="141.73" y1="141.73" x2="141.73" y2="14.17"/>
  </g>
  <text class="st1" transform="translate(73.5 317.56)"><tspan x="0" y="0">89</tspan></text>
  <text class="st1" transform="translate(229.41 317.56)"><tspan x="0" y="0">90</tspan></text>
  <g id="_x38_8">
    <line class="st0" x1="170.08" y1="77.95" x2="191.34" y2="77.95"/>
    <line class="st0" x1="212.6" y1="77.95" x2="255.12" y2="77.95"/>
    <line class="st0" x1="276.38" y1="77.95" x2="297.64" y2="77.95"/>
    <line class="st0" x1="233.86" y1="141.73" x2="233.86" y2="120.47"/>
    <line class="st0" x1="233.86" y1="99.21" x2="233.86" y2="56.69"/>
    <line class="st0" x1="233.86" y1="35.43" x2="233.86" y2="14.17"/>
  </g>
  <g id="Rahmen1" data-name="Rahmen">
    <line class="st0" x1="170.08" y1="14.17" x2="297.64" y2="14.17"/>
    <line class="st0" x1="170.08" y1="141.73" x2="297.64" y2="141.73"/>
    <line class="st0" x1="170.08" y1="141.73" x2="170.08" y2="14.17"/>
    <line class="st0" x1="297.64" y1="141.73" x2="297.64" y2="14.17"/>
  </g>
  <g id="_x38_9">
    <line class="st0" x1="35.43" y1="191.34" x2="56.69" y2="191.34"/>
    <line class="st0" x1="35.43" y1="212.6" x2="56.69" y2="212.6"/>
    <line class="st0" x1="56.69" y1="212.6" x2="56.69" y2="191.34"/>
    <line class="st0" x1="35.43" y1="212.6" x2="35.43" y2="191.34"/>
    <line class="st0" x1="99.21" y1="191.34" x2="120.47" y2="191.34"/>
    <line class="st0" x1="99.21" y1="212.6" x2="120.47" y2="212.6"/>
    <line class="st0" x1="120.47" y1="212.6" x2="120.47" y2="191.34"/>
    <line class="st0" x1="99.21" y1="212.6" x2="99.21" y2="191.34"/>
    <line class="st0" x1="35.43" y1="255.12" x2="56.69" y2="255.12"/>
    <line class="st0" x1="35.43" y1="276.38" x2="56.69" y2="276.38"/>
    <line class="st0" x1="56.69" y1="276.38" x2="56.69" y2="255.12"/>
    <line class="st0" x1="35.43" y1="276.38" x2="35.43" y2="255.12"/>
    <line class="st0" x1="99.21" y1="255.12" x2="120.47" y2="255.12"/>
    <line class="st0" x1="99.21" y1="276.38" x2="120.47" y2="276.38"/>
    <line class="st0" x1="120.47" y1="276.38" x2="120.47" y2="255.12"/>
    <line class="st0" x1="99.21" y1="276.38" x2="99.21" y2="255.12"/>
  </g>
  <g id="Rahmen2" data-name="Rahmen">
    <line class="st0" x1="14.17" y1="170.08" x2="141.73" y2="170.08"/>
    <line class="st0" x1="14.17" y1="297.64" x2="141.73" y2="297.64"/>
    <line class="st0" x1="14.17" y1="297.64" x2="14.17" y2="170.08"/>
    <line class="st0" x1="141.73" y1="297.64" x2="141.73" y2="170.08"/>
  </g>
  <g id="_x39_0">
    <line class="st0" x1="170.08" y1="191.34" x2="191.34" y2="191.34"/>
    <line class="st0" x1="170.08" y1="212.6" x2="191.34" y2="212.6"/>
    <line class="st0" x1="212.6" y1="191.34" x2="233.86" y2="191.34"/>
    <line class="st0" x1="212.6" y1="212.6" x2="233.86" y2="212.6"/>
    <line class="st0" x1="212.6" y1="233.86" x2="212.6" y2="212.6"/>
    <line class="st0" x1="212.6" y1="191.34" x2="212.6" y2="170.08"/>
    <line class="st0" x1="191.34" y1="191.34" x2="191.34" y2="170.08"/>
    <line class="st0" x1="191.34" y1="233.86" x2="191.34" y2="212.6"/>
    <line class="st0" x1="233.86" y1="191.34" x2="255.12" y2="191.34"/>
    <line class="st0" x1="233.86" y1="212.6" x2="255.12" y2="212.6"/>
    <line class="st0" x1="276.38" y1="191.34" x2="297.64" y2="191.34"/>
    <line class="st0" x1="276.38" y1="212.6" x2="297.64" y2="212.6"/>
    <line class="st0" x1="276.38" y1="233.86" x2="276.38" y2="212.6"/>
    <line class="st0" x1="276.38" y1="191.34" x2="276.38" y2="170.08"/>
    <line class="st0" x1="255.12" y1="191.34" x2="255.12" y2="170.08"/>
    <line class="st0" x1="255.12" y1="233.86" x2="255.12" y2="212.6"/>
    <line class="st0" x1="170.08" y1="255.12" x2="191.34" y2="255.12"/>
    <line class="st0" x1="170.08" y1="276.38" x2="191.34" y2="276.38"/>
    <line class="st0" x1="212.6" y1="255.12" x2="233.86" y2="255.12"/>
    <line class="st0" x1="212.6" y1="276.38" x2="233.86" y2="276.38"/>
    <line class="st0" x1="212.6" y1="297.64" x2="212.6" y2="276.38"/>
    <line class="st0" x1="212.6" y1="255.12" x2="212.6" y2="233.86"/>
    <line class="st0" x1="191.34" y1="255.12" x2="191.34" y2="233.86"/>
    <line class="st0" x1="191.34" y1="297.64" x2="191.34" y2="276.38"/>
    <line class="st0" x1="233.86" y1="255.12" x2="255.12" y2="255.12"/>
    <line class="st0" x1="233.86" y1="276.38" x2="255.12" y2="276.38"/>
    <line class="st0" x1="276.38" y1="255.12" x2="297.64" y2="255.12"/>
    <line class="st0" x1="276.38" y1="276.38" x2="297.64" y2="276.38"/>
    <line class="st0" x1="276.38" y1="297.64" x2="276.38" y2="276.38"/>
    <line class="st0" x1="276.38" y1="255.12" x2="276.38" y2="233.86"/>
    <line class="st0" x1="255.12" y1="255.12" x2="255.12" y2="233.86"/>
    <line class="st0" x1="255.12" y1="297.64" x2="255.12" y2="276.38"/>
  </g>
  <g id="Rahmen3" data-name="Rahmen">
    <line class="st0" x1="170.08" y1="170.08" x2="297.64" y2="170.08"/>
    <line class="st0" x1="170.08" y1="297.64" x2="297.64" y2="297.64"/>
    <line class="st0" x1="170.08" y1="297.64" x2="170.08" y2="170.08"/>
    <line class="st0" x1="297.64" y1="297.64" x2="297.64" y2="170.08"/>
  </g>
  <text class="st1" transform="translate(73.5 473.47)"><tspan x="0" y="0">91</tspan></text>
  <text class="st1" transform="translate(229.41 473.47)"><tspan x="0" y="0">92</tspan></text>
  <g id="_x39_1">
    <line class="st0" x1="14.17" y1="347.24" x2="77.95" y2="347.24"/>
    <line class="st0" x1="14.17" y1="368.5" x2="77.95" y2="368.5"/>
    <line class="st0" x1="56.69" y1="389.76" x2="56.69" y2="325.98"/>
    <line class="st0" x1="35.43" y1="389.76" x2="35.43" y2="325.98"/>
    <line class="st0" x1="77.95" y1="347.24" x2="141.73" y2="347.24"/>
    <line class="st0" x1="77.95" y1="368.5" x2="141.73" y2="368.5"/>
    <line class="st0" x1="120.47" y1="389.76" x2="120.47" y2="325.98"/>
    <line class="st0" x1="99.21" y1="389.76" x2="99.21" y2="325.98"/>
    <line class="st0" x1="14.17" y1="411.02" x2="77.95" y2="411.02"/>
    <line class="st0" x1="14.17" y1="432.28" x2="77.95" y2="432.28"/>
    <line class="st0" x1="56.69" y1="453.54" x2="56.69" y2="389.76"/>
    <line class="st0" x1="35.43" y1="453.54" x2="35.43" y2="389.76"/>
    <line class="st0" x1="77.95" y1="411.02" x2="141.73" y2="411.02"/>
    <line class="st0" x1="77.95" y1="432.28" x2="141.73" y2="432.28"/>
    <line class="st0" x1="120.47" y1="453.54" x2="120.47" y2="389.76"/>
    <line class="st0" x1="99.21" y1="453.54" x2="99.21" y2="389.76"/>
  </g>
  <g id="Rahmen4" data-name="Rahmen">
    <line class="st0" x1="14.17" y1="325.98" x2="141.73" y2="325.98"/>
    <line class="st0" x1="14.17" y1="453.54" x2="141.73" y2="453.54"/>
    <line class="st0" x1="14.17" y1="453.54" x2="14.17" y2="325.98"/>
    <line class="st0" x1="141.73" y1="453.54" x2="141.73" y2="325.98"/>
  </g>
  <g id="_x39_2">
    <line class="st0" x1="170.08" y1="325.98" x2="233.86" y2="389.76"/>
    <line class="st0" x1="233.86" y1="325.98" x2="170.08" y2="389.76"/>
    <line class="st0" x1="233.86" y1="325.98" x2="297.64" y2="389.76"/>
    <line class="st0" x1="297.64" y1="325.98" x2="233.86" y2="389.76"/>
    <line class="st0" x1="170.08" y1="389.76" x2="233.86" y2="453.54"/>
    <line class="st0" x1="233.86" y1="389.76" x2="170.08" y2="453.54"/>
    <line class="st0" x1="233.86" y1="389.76" x2="297.64" y2="453.54"/>
    <line class="st0" x1="297.64" y1="389.76" x2="233.86" y2="453.54"/>
  </g>
  <g id="Rahmen5" data-name="Rahmen">
    <line class="st0" x1="170.08" y1="325.98" x2="297.64" y2="325.98"/>
    <line class="st0" x1="170.08" y1="453.54" x2="297.64" y2="453.54"/>
    <line class="st0" x1="170.08" y1="453.54" x2="170.08" y2="325.98"/>
    <line class="st0" x1="297.64" y1="453.54" x2="297.64" y2="325.98"/>
  </g>
</svg>