<?xml version="1.0" encoding="UTF-8"?>
<svg xmlns="http://www.w3.org/2000/svg" version="1.1" viewBox="0 0 1133.86 1133.86">
  <!-- Generator: Adobe Illustrator 29.1.0, SVG Export Plug-In . SVG Version: 2.1.0 Build 142)  -->
  <defs>
    <style>
      .st0 {
        stroke: #1d1d1b;
        stroke-linecap: round;
        stroke-miterlimit: 10;
        stroke-width: 6px;
      }

      .st0, .st1 {
        fill: #1d1d1b;
      }

      .st2 {
        display: none;
      }
    </style>
  </defs>
  <g id="Punkte_x5F_gross" class="st2">
    <path class="st1" d="M588.19,566.93c0,11.74-9.52,21.26-21.26,21.26s-21.26-9.52-21.26-21.26,9.52-21.26,21.26-21.26,21.26,9.52,21.26,21.26Z"/>
    <path class="st1" d="M21.26,566.93c0,11.74-9.52,21.26-21.26,21.26s-21.26-9.52-21.26-21.26S-11.74,545.67,0,545.67s21.26,9.52,21.26,21.26Z"/>
    <path class="st1" d="M210.24,566.93c0,11.74-9.52,21.26-21.26,21.26s-21.26-9.52-21.26-21.26,9.52-21.26,21.26-21.26,21.26,9.52,21.26,21.26Z"/>
    <path class="st1" d="M399.21,566.93c0,11.74-9.52,21.26-21.26,21.26s-21.26-9.52-21.26-21.26,9.52-21.26,21.26-21.26,21.26,9.52,21.26,21.26Z"/>
    <path class="st1" d="M588.19,377.95c0,11.74-9.52,21.26-21.26,21.26s-21.26-9.52-21.26-21.26,9.52-21.26,21.26-21.26,21.26,9.52,21.26,21.26Z"/>
    <path class="st1" d="M21.26,377.95c0,11.74-9.52,21.26-21.26,21.26s-21.26-9.52-21.26-21.26S-11.74,356.69,0,356.69s21.26,9.52,21.26,21.26Z"/>
    <path class="st1" d="M210.24,377.95c0,11.74-9.52,21.26-21.26,21.26s-21.26-9.52-21.26-21.26,9.52-21.26,21.26-21.26,21.26,9.52,21.26,21.26Z"/>
    <path class="st1" d="M399.21,377.95c0,11.74-9.52,21.26-21.26,21.26s-21.26-9.52-21.26-21.26,9.52-21.26,21.26-21.26,21.26,9.52,21.26,21.26Z"/>
    <path class="st1" d="M588.19,188.98c0,11.74-9.52,21.26-21.26,21.26s-21.26-9.52-21.26-21.26,9.52-21.26,21.26-21.26,21.26,9.52,21.26,21.26Z"/>
    <path class="st1" d="M21.26,188.98C21.26,200.72,11.74,210.24,0,210.24s-21.26-9.52-21.26-21.26S-11.74,167.72,0,167.72s21.26,9.52,21.26,21.26Z"/>
    <path class="st1" d="M210.24,188.98c0,11.74-9.52,21.26-21.26,21.26s-21.26-9.52-21.26-21.26,9.52-21.26,21.26-21.26,21.26,9.52,21.26,21.26Z"/>
    <path class="st1" d="M399.21,188.98c0,11.74-9.52,21.26-21.26,21.26s-21.26-9.52-21.26-21.26,9.52-21.26,21.26-21.26,21.26,9.52,21.26,21.26Z"/>
    <path class="st1" d="M21.26,0C21.26,11.74,11.74,21.26,0,21.26S-21.26,11.74-21.26,0-11.74-21.26,0-21.26,21.26-11.74,21.26,0Z"/>
    <path class="st1" d="M588.19,0c0,11.74-9.52,21.26-21.26,21.26s-21.26-9.52-21.26-21.26,9.52-21.26,21.26-21.26,21.26,9.52,21.26,21.26Z"/>
    <path class="st1" d="M399.21,0c0,11.74-9.52,21.26-21.26,21.26s-21.26-9.52-21.26-21.26,9.52-21.26,21.26-21.26,21.26,9.52,21.26,21.26Z"/>
    <path class="st1" d="M210.24,0c0,11.74-9.52,21.26-21.26,21.26s-21.26-9.52-21.26-21.26,9.52-21.26,21.26-21.26,21.26,9.52,21.26,21.26Z"/>
  </g>
  <g id="Punkte_x5F_klein">
    <path class="st1" d="M7.09,0C7.09,3.91,3.91,7.09,0,7.09S-7.09,3.91-7.09,0-3.91-7.09,0-7.09,7.09-3.91,7.09,0Z"/>
    <path class="st1" d="M196.06,0c0,3.91-3.17,7.09-7.09,7.09s-7.09-3.17-7.09-7.09,3.17-7.09,7.09-7.09,7.09,3.17,7.09,7.09Z"/>
    <path class="st1" d="M385.04,0c0,3.91-3.17,7.09-7.09,7.09s-7.09-3.17-7.09-7.09,3.17-7.09,7.09-7.09,7.09,3.17,7.09,7.09Z"/>
    <path class="st1" d="M574.02,0c0,3.91-3.17,7.09-7.09,7.09s-7.09-3.17-7.09-7.09,3.17-7.09,7.09-7.09,7.09,3.17,7.09,7.09Z"/>
    <path class="st1" d="M7.09,188.98c0,3.91-3.17,7.09-7.09,7.09s-7.09-3.17-7.09-7.09S-3.91,181.89,0,181.89s7.09,3.17,7.09,7.09Z"/>
    <path class="st1" d="M196.06,188.98c0,3.91-3.17,7.09-7.09,7.09s-7.09-3.17-7.09-7.09,3.17-7.09,7.09-7.09,7.09,3.17,7.09,7.09Z"/>
    <path class="st1" d="M385.04,188.98c0,3.91-3.17,7.09-7.09,7.09s-7.09-3.17-7.09-7.09,3.17-7.09,7.09-7.09,7.09,3.17,7.09,7.09Z"/>
    <path class="st1" d="M574.02,188.98c0,3.91-3.17,7.09-7.09,7.09s-7.09-3.17-7.09-7.09,3.17-7.09,7.09-7.09,7.09,3.17,7.09,7.09Z"/>
    <path class="st1" d="M7.09,377.95c0,3.91-3.17,7.09-7.09,7.09s-7.09-3.17-7.09-7.09S-3.91,370.87,0,370.87s7.09,3.17,7.09,7.09Z"/>
    <path class="st1" d="M196.06,377.95c0,3.91-3.17,7.09-7.09,7.09s-7.09-3.17-7.09-7.09,3.17-7.09,7.09-7.09,7.09,3.17,7.09,7.09Z"/>
    <path class="st1" d="M385.04,377.95c0,3.91-3.17,7.09-7.09,7.09s-7.09-3.17-7.09-7.09,3.17-7.09,7.09-7.09,7.09,3.17,7.09,7.09Z"/>
    <path class="st1" d="M574.02,377.95c0,3.91-3.17,7.09-7.09,7.09s-7.09-3.17-7.09-7.09,3.17-7.09,7.09-7.09,7.09,3.17,7.09,7.09Z"/>
    <path class="st1" d="M7.09,566.93c0,3.91-3.17,7.09-7.09,7.09s-7.09-3.17-7.09-7.09,3.17-7.09,7.09-7.09,7.09,3.17,7.09,7.09Z"/>
    <path class="st1" d="M196.06,566.93c0,3.91-3.17,7.09-7.09,7.09s-7.09-3.17-7.09-7.09,3.17-7.09,7.09-7.09,7.09,3.17,7.09,7.09Z"/>
    <path class="st1" d="M385.04,566.93c0,3.91-3.17,7.09-7.09,7.09s-7.09-3.17-7.09-7.09,3.17-7.09,7.09-7.09,7.09,3.17,7.09,7.09Z"/>
    <path class="st1" d="M574.02,566.93c0,3.91-3.17,7.09-7.09,7.09s-7.09-3.17-7.09-7.09,3.17-7.09,7.09-7.09,7.09,3.17,7.09,7.09Z"/>
  </g>
  <g id="_x38_7_a" class="st2">
    <line class="st0" y1="566.93" x2="1133.86" y2="566.93"/>
    <line class="st0" x1="566.93" y1="1133.86" x2="566.93"/>
    <line class="st0" x1="377.95" y1="566.93" x2="377.95" y2="0"/>
    <line class="st0" x1="188.98" y1="566.93" x2="188.98" y2="0"/>
    <line class="st0" x1="566.93" y1="188.98" x2="0" y2="188.98"/>
    <line class="st0" x1="566.93" y1="377.95" x2="0" y2="377.95"/>
  </g>
  <g id="_x38_7_b" class="st2">
    <line class="st0" y1="566.93" x2="1133.86" y2="566.93"/>
    <line class="st0" x1="566.93" y1="1133.86" x2="566.93"/>
  </g>
  <g id="_x38_8" class="st2">
    <line class="st0" y1="566.93" x2="188.98" y2="566.93"/>
    <line class="st0" x1="377.95" y1="566.93" x2="755.91" y2="566.93"/>
    <line class="st0" x1="944.88" y1="566.93" x2="1133.86" y2="566.93"/>
    <line class="st0" x1="566.93" y1="1133.86" x2="566.93" y2="944.88"/>
    <line class="st0" x1="566.93" y1="755.91" x2="566.93" y2="377.95"/>
    <line class="st0" x1="566.93" y1="188.98" x2="566.93"/>
  </g>
  <g id="_x38_9" class="st2">
    <line class="st0" x1="188.98" y1="188.98" x2="377.95" y2="188.98"/>
    <line class="st0" x1="188.98" y1="377.95" x2="377.95" y2="377.95"/>
    <line class="st0" x1="377.95" y1="377.95" x2="377.95" y2="188.98"/>
    <line class="st0" x1="188.98" y1="377.95" x2="188.98" y2="188.98"/>
    <line class="st0" x1="755.91" y1="188.98" x2="944.88" y2="188.98"/>
    <line class="st0" x1="755.91" y1="377.95" x2="944.88" y2="377.95"/>
    <line class="st0" x1="944.88" y1="377.95" x2="944.88" y2="188.98"/>
    <line class="st0" x1="755.91" y1="377.95" x2="755.91" y2="188.98"/>
    <line class="st0" x1="188.98" y1="755.91" x2="377.95" y2="755.91"/>
    <line class="st0" x1="188.98" y1="944.88" x2="377.95" y2="944.88"/>
    <line class="st0" x1="377.95" y1="944.88" x2="377.95" y2="755.91"/>
    <line class="st0" x1="188.98" y1="944.88" x2="188.98" y2="755.91"/>
    <line class="st0" x1="755.91" y1="755.91" x2="944.88" y2="755.91"/>
    <line class="st0" x1="755.91" y1="944.88" x2="944.88" y2="944.88"/>
    <line class="st0" x1="944.88" y1="944.88" x2="944.88" y2="755.91"/>
    <line class="st0" x1="755.91" y1="944.88" x2="755.91" y2="755.91"/>
  </g>
  <g id="_x39_0" class="st2">
    <line class="st0" y1="188.98" x2="188.98" y2="188.98"/>
    <line class="st0" y1="377.95" x2="188.98" y2="377.95"/>
    <line class="st0" x1="377.95" y1="188.98" x2="566.93" y2="188.98"/>
    <line class="st0" x1="377.95" y1="377.95" x2="566.93" y2="377.95"/>
    <line class="st0" x1="377.95" y1="566.93" x2="377.95" y2="377.95"/>
    <line class="st0" x1="377.95" y1="188.98" x2="377.95"/>
    <line class="st0" x1="188.98" y1="188.98" x2="188.98" y2="0"/>
    <line class="st0" x1="188.98" y1="566.93" x2="188.98" y2="377.95"/>
    <line class="st0" x1="566.93" y1="188.98" x2="755.91" y2="188.98"/>
    <line class="st0" x1="566.93" y1="377.95" x2="755.91" y2="377.95"/>
    <line class="st0" x1="944.88" y1="188.98" x2="1133.86" y2="188.98"/>
    <line class="st0" x1="944.88" y1="377.95" x2="1133.86" y2="377.95"/>
    <line class="st0" x1="944.88" y1="566.93" x2="944.88" y2="377.95"/>
    <line class="st0" x1="944.88" y1="188.98" x2="944.88"/>
    <line class="st0" x1="755.91" y1="188.98" x2="755.91" y2="0"/>
    <line class="st0" x1="755.91" y1="566.93" x2="755.91" y2="377.95"/>
    <line class="st0" y1="755.91" x2="188.98" y2="755.91"/>
    <line class="st0" y1="944.88" x2="188.98" y2="944.88"/>
    <line class="st0" x1="377.95" y1="755.91" x2="566.93" y2="755.91"/>
    <line class="st0" x1="377.95" y1="944.88" x2="566.93" y2="944.88"/>
    <line class="st0" x1="377.95" y1="1133.86" x2="377.95" y2="944.88"/>
    <line class="st0" x1="377.95" y1="755.91" x2="377.95" y2="566.93"/>
    <line class="st0" x1="188.98" y1="755.91" x2="188.98" y2="566.93"/>
    <line class="st0" x1="188.98" y1="1133.86" x2="188.98" y2="944.88"/>
    <line class="st0" x1="566.93" y1="755.91" x2="755.91" y2="755.91"/>
    <line class="st0" x1="566.93" y1="944.88" x2="755.91" y2="944.88"/>
    <line class="st0" x1="944.88" y1="755.91" x2="1133.86" y2="755.91"/>
    <line class="st0" x1="944.88" y1="944.88" x2="1133.86" y2="944.88"/>
    <line class="st0" x1="944.88" y1="1133.86" x2="944.88" y2="944.88"/>
    <line class="st0" x1="944.88" y1="755.91" x2="944.88" y2="566.93"/>
    <line class="st0" x1="755.91" y1="755.91" x2="755.91" y2="566.93"/>
    <line class="st0" x1="755.91" y1="1133.86" x2="755.91" y2="944.88"/>
  </g>
  <g id="_x39_1" class="st2">
    <line class="st0" x1="0" y1="188.98" x2="566.93" y2="188.98"/>
    <line class="st0" x1="0" y1="377.95" x2="566.93" y2="377.95"/>
    <line class="st0" x1="377.95" y1="566.93" x2="377.95" y2="0"/>
    <line class="st0" x1="188.98" y1="566.93" x2="188.98" y2="0"/>
    <line class="st0" x1="566.93" y1="188.98" x2="1133.86" y2="188.98"/>
    <line class="st0" x1="566.93" y1="377.95" x2="1133.86" y2="377.95"/>
    <line class="st0" x1="944.88" y1="566.93" x2="944.88" y2="0"/>
    <line class="st0" x1="755.91" y1="566.93" x2="755.91" y2="0"/>
    <line class="st0" x1="0" y1="755.9" x2="566.93" y2="755.9"/>
    <line class="st0" x1="0" y1="944.88" x2="566.93" y2="944.88"/>
    <line class="st0" x1="377.95" y1="1133.86" x2="377.95" y2="566.93"/>
    <line class="st0" x1="188.98" y1="1133.86" x2="188.98" y2="566.93"/>
    <line class="st0" x1="566.93" y1="755.9" x2="1133.86" y2="755.9"/>
    <line class="st0" x1="566.93" y1="944.88" x2="1133.86" y2="944.88"/>
    <line class="st0" x1="944.88" y1="1133.86" x2="944.88" y2="566.93"/>
    <line class="st0" x1="755.91" y1="1133.86" x2="755.91" y2="566.93"/>
  </g>
  <g id="_x39_2" class="st2">
    <line class="st0" x2="566.93" y2="566.93"/>
    <line class="st0" x1="566.93" x2="0" y2="566.93"/>
    <line class="st0" x1="566.93" x2="1133.86" y2="566.93"/>
    <line class="st0" x1="1133.86" x2="566.93" y2="566.93"/>
    <line class="st0" y1="566.93" x2="566.93" y2="1133.86"/>
    <line class="st0" x1="566.93" y1="566.93" x2="0" y2="1133.86"/>
    <line class="st0" x1="566.93" y1="566.93" x2="1133.86" y2="1133.86"/>
    <line class="st0" x1="1133.86" y1="566.93" x2="566.93" y2="1133.86"/>
  </g>
  <g id="_x39_3" class="st2">
    <line class="st0" x1="188.98" y1="188.98" x2="377.95" y2="377.95"/>
    <line class="st0" x1="377.95" y1="188.98" x2="188.98" y2="377.95"/>
    <line class="st0" x1="755.91" y1="188.98" x2="944.88" y2="377.95"/>
    <line class="st0" x1="944.88" y1="188.98" x2="755.91" y2="377.95"/>
    <line class="st0" x1="188.98" y1="755.91" x2="377.95" y2="944.88"/>
    <line class="st0" x1="377.95" y1="755.91" x2="188.98" y2="944.88"/>
    <line class="st0" x1="755.91" y1="755.91" x2="944.88" y2="944.88"/>
    <line class="st0" x1="944.88" y1="755.91" x2="755.91" y2="944.88"/>
  </g>
  <g id="_x39_4" class="st2">
    <line class="st0" x2="188.98" y2="188.98"/>
    <line class="st0" x1="377.95" y1="377.95" x2="566.93" y2="566.93"/>
    <line class="st0" y1="566.93" x2="188.98" y2="377.95"/>
    <line class="st0" x1="377.95" y1="188.98" x2="566.93" y2="0"/>
    <line class="st0" x1="566.93" x2="755.91" y2="188.98"/>
    <line class="st0" x1="944.88" y1="377.95" x2="1133.86" y2="566.93"/>
    <line class="st0" x1="566.93" y1="566.93" x2="755.91" y2="377.95"/>
    <line class="st0" x1="944.88" y1="188.98" x2="1133.86" y2="0"/>
    <line class="st0" y1="566.93" x2="188.98" y2="755.9"/>
    <line class="st0" x1="377.95" y1="944.88" x2="566.93" y2="1133.86"/>
    <line class="st0" y1="1133.86" x2="188.98" y2="944.88"/>
    <line class="st0" x1="377.95" y1="755.91" x2="566.93" y2="566.93"/>
    <line class="st0" x1="566.93" y1="566.93" x2="755.91" y2="755.9"/>
    <line class="st0" x1="944.88" y1="944.88" x2="1133.86" y2="1133.86"/>
    <line class="st0" x1="566.93" y1="1133.86" x2="755.91" y2="944.88"/>
    <line class="st0" x1="944.88" y1="755.91" x2="1133.86" y2="566.93"/>
  </g>
  <g id="_x39_5" class="st2">
    <line class="st0" x1="377.95" x2="566.93" y2="188.98"/>
    <line class="st0" x1="377.95" y1="566.93" x2="566.93" y2="377.95"/>
    <line class="st0" y1="188.98" x2="188.98"/>
    <line class="st0" y1="377.95" x2="188.98" y2="566.93"/>
    <line class="st0" x1="944.88" x2="1133.86" y2="188.98"/>
    <line class="st0" x1="944.88" y1="566.93" x2="1133.86" y2="377.95"/>
    <line class="st0" x1="566.93" y1="188.98" x2="755.9"/>
    <line class="st0" x1="566.93" y1="377.95" x2="755.91" y2="566.93"/>
    <line class="st0" x1="377.95" y1="566.93" x2="566.93" y2="755.91"/>
    <line class="st0" x1="377.95" y1="1133.86" x2="566.93" y2="944.88"/>
    <line class="st0" y1="755.91" x2="188.98" y2="566.93"/>
    <line class="st0" y1="944.88" x2="188.98" y2="1133.86"/>
    <line class="st0" x1="944.88" y1="566.93" x2="1133.86" y2="755.91"/>
    <line class="st0" x1="944.88" y1="1133.86" x2="1133.86" y2="944.88"/>
    <line class="st0" x1="566.93" y1="755.91" x2="755.9" y2="566.93"/>
    <line class="st0" x1="566.93" y1="944.88" x2="755.91" y2="1133.86"/>
  </g>
  <g id="_x39_6" class="st2">
    <line class="st0" y1="377.95" x2="377.95" y2="0"/>
    <line class="st0" x1="188.98" y1="566.93" x2="566.93" y2="188.98"/>
    <line class="st0" x1="566.93" y1="377.95" x2="188.98" y2="0"/>
    <line class="st0" x1="377.95" y1="566.93" x2="0" y2="188.98"/>
    <line class="st0" x1="566.93" y1="377.95" x2="944.88" y2="0"/>
    <line class="st0" x1="755.91" y1="566.93" x2="1133.86" y2="188.98"/>
    <line class="st0" x1="1133.86" y1="377.95" x2="755.91" y2="0"/>
    <line class="st0" x1="944.88" y1="566.93" x2="566.93" y2="188.98"/>
    <line class="st0" y1="944.88" x2="377.95" y2="566.93"/>
    <line class="st0" x1="188.98" y1="1133.86" x2="566.93" y2="755.91"/>
    <line class="st0" x1="566.93" y1="944.88" x2="188.98" y2="566.93"/>
    <line class="st0" x1="377.95" y1="1133.86" x2="0" y2="755.91"/>
    <line class="st0" x1="566.93" y1="944.88" x2="944.88" y2="566.93"/>
    <line class="st0" x1="755.91" y1="1133.86" x2="1133.86" y2="755.91"/>
    <line class="st0" x1="1133.86" y1="944.88" x2="755.91" y2="566.93"/>
    <line class="st0" x1="944.88" y1="1133.86" x2="566.93" y2="755.91"/>
  </g>
  <g id="_x39_7" class="st2">
    <line class="st0" y1="188.98" x2="566.93" y2="377.95"/>
    <line class="st0" x1="566.93" y1="188.98" x2="0" y2="377.95"/>
    <line class="st0" x1="188.98" y1="566.93" x2="377.95" y2="0"/>
    <line class="st0" x1="188.98" x2="377.95" y2="566.93"/>
    <line class="st0" x1="566.93" y1="188.98" x2="1133.86" y2="377.95"/>
    <line class="st0" x1="1133.86" y1="188.98" x2="566.93" y2="377.95"/>
    <line class="st0" x1="755.9" y1="566.93" x2="944.88" y2="0"/>
    <line class="st0" x1="755.9" x2="944.88" y2="566.93"/>
    <line class="st0" y1="755.9" x2="566.93" y2="944.88"/>
    <line class="st0" x1="566.93" y1="755.9" x2="0" y2="944.88"/>
    <line class="st0" x1="188.98" y1="1133.86" x2="377.95" y2="566.93"/>
    <line class="st0" x1="188.98" y1="566.93" x2="377.95" y2="1133.86"/>
    <line class="st0" x1="566.93" y1="755.9" x2="1133.86" y2="944.88"/>
    <line class="st0" x1="1133.86" y1="755.9" x2="566.93" y2="944.88"/>
    <line class="st0" x1="755.9" y1="1133.86" x2="944.88" y2="566.93"/>
    <line class="st0" x1="755.9" y1="566.93" x2="944.88" y2="1133.86"/>
  </g>
  <g id="_x39_8" class="st2">
    <line class="st0" x2="188.98" y2="377.95"/>
    <line class="st0" x1="188.98" y1="188.98" y2="566.93"/>
    <line class="st0" x1="188.98" y1="188.98" x2="566.93"/>
    <line class="st0" x1="377.95" y1="377.95" x2="566.93" y2="0"/>
    <line class="st0" x1="377.95" y1="377.95" x2="0" y2="566.93"/>
    <line class="st0" x1="188.98" y1="377.95" x2="566.93" y2="566.93"/>
    <line class="st0" x1="566.93" y1="566.93" x2="377.95" y2="188.98"/>
    <line class="st0" x1="377.95" y1="188.98" y2="0"/>
    <line class="st0" x1="566.93" x2="755.91" y2="377.95"/>
    <line class="st0" x1="755.91" y1="188.98" x2="566.93" y2="566.93"/>
    <line class="st0" x1="755.91" y1="188.98" x2="1133.86"/>
    <line class="st0" x1="944.88" y1="377.95" x2="1133.86" y2="0"/>
    <line class="st0" x1="944.88" y1="377.95" x2="566.93" y2="566.93"/>
    <line class="st0" x1="755.91" y1="377.95" x2="1133.86" y2="566.93"/>
    <line class="st0" x1="1133.86" y1="566.93" x2="944.88" y2="188.98"/>
    <line class="st0" x1="944.88" y1="188.98" x2="566.93" y2="0"/>
    <line class="st0" y1="566.93" x2="188.98" y2="944.88"/>
    <line class="st0" x1="188.98" y1="755.9" y2="1133.86"/>
    <line class="st0" x1="188.98" y1="755.9" x2="566.93" y2="566.93"/>
    <line class="st0" x1="377.95" y1="944.88" x2="566.93" y2="566.93"/>
    <line class="st0" x1="377.95" y1="944.88" x2="0" y2="1133.86"/>
    <line class="st0" x1="188.98" y1="944.88" x2="566.93" y2="1133.86"/>
    <line class="st0" x1="566.93" y1="1133.86" x2="377.95" y2="755.91"/>
    <line class="st0" x1="377.95" y1="755.91" y2="566.93"/>
    <line class="st0" x1="566.93" y1="566.93" x2="755.91" y2="944.88"/>
    <line class="st0" x1="755.91" y1="755.9" x2="566.93" y2="1133.86"/>
    <line class="st0" x1="755.91" y1="755.9" x2="1133.86" y2="566.93"/>
    <line class="st0" x1="944.88" y1="944.88" x2="1133.86" y2="566.93"/>
    <line class="st0" x1="944.88" y1="944.88" x2="566.93" y2="1133.86"/>
    <line class="st0" x1="755.91" y1="944.88" x2="1133.86" y2="1133.86"/>
    <line class="st0" x1="1133.86" y1="1133.86" x2="944.88" y2="755.91"/>
    <line class="st0" x1="944.88" y1="755.91" x2="566.93" y2="566.93"/>
  </g>
  <g id="_x39_9" class="st2">
    <line class="st0" x1="188.98" y2="377.95"/>
    <line class="st0" y1="188.98" x2="188.98" y2="566.93"/>
    <line class="st0" x1="377.95" x2="566.93" y2="377.95"/>
    <line class="st0" x1="566.93" y1="188.98" x2="377.95" y2="566.93"/>
    <line class="st0" x1="566.93" y1="188.98" x2="188.98"/>
    <line class="st0" x1="377.95" x2="0" y2="188.98"/>
    <line class="st0" x1="566.93" y1="377.95" x2="188.98" y2="566.93"/>
    <line class="st0" x1="377.95" y1="566.93" x2="0" y2="377.95"/>
    <line class="st0" x1="755.91" x2="566.93" y2="377.95"/>
    <line class="st0" x1="566.93" y1="188.98" x2="755.91" y2="566.93"/>
    <line class="st0" x1="944.88" x2="1133.86" y2="377.95"/>
    <line class="st0" x1="1133.86" y1="188.98" x2="944.88" y2="566.93"/>
    <line class="st0" x1="1133.86" y1="188.98" x2="755.91"/>
    <line class="st0" x1="944.88" x2="566.93" y2="188.98"/>
    <line class="st0" x1="1133.86" y1="377.95" x2="755.91" y2="566.93"/>
    <line class="st0" x1="944.88" y1="566.93" x2="566.93" y2="377.95"/>
    <line class="st0" x1="188.98" y1="566.93" y2="944.88"/>
    <line class="st0" y1="755.91" x2="188.98" y2="1133.86"/>
    <line class="st0" x1="377.95" y1="566.93" x2="566.93" y2="944.88"/>
    <line class="st0" x1="566.93" y1="755.91" x2="377.95" y2="1133.86"/>
    <line class="st0" x1="566.93" y1="755.91" x2="188.98" y2="566.93"/>
    <line class="st0" x1="377.95" y1="566.93" x2="0" y2="755.91"/>
    <line class="st0" x1="566.93" y1="944.88" x2="188.98" y2="1133.86"/>
    <line class="st0" x1="377.95" y1="1133.86" x2="0" y2="944.88"/>
    <line class="st0" x1="755.91" y1="566.93" x2="566.93" y2="944.88"/>
    <line class="st0" x1="566.93" y1="755.91" x2="755.91" y2="1133.86"/>
    <line class="st0" x1="944.88" y1="566.93" x2="1133.86" y2="944.88"/>
    <line class="st0" x1="1133.86" y1="755.91" x2="944.88" y2="1133.86"/>
    <line class="st0" x1="1133.86" y1="755.91" x2="755.91" y2="566.93"/>
    <line class="st0" x1="944.88" y1="566.93" x2="566.93" y2="755.91"/>
    <line class="st0" x1="1133.86" y1="944.88" x2="755.91" y2="1133.86"/>
    <line class="st0" x1="944.88" y1="1133.86" x2="566.93" y2="944.88"/>
  </g>
  <g id="_x31_00" class="st2">
    <line class="st0" x2="566.93" y2="188.98"/>
    <line class="st0" y1="377.95" x2="566.93" y2="566.93"/>
    <line class="st0" x1="566.93" x2="0" y2="188.98"/>
    <line class="st0" x1="566.93" y1="377.95" x2="0" y2="566.93"/>
    <line class="st0" y1="566.93" x2="188.98" y2="0"/>
    <line class="st0" x1="377.95" y1="566.93" x2="566.93" y2="0"/>
    <line class="st0" x2="188.98" y2="566.93"/>
    <line class="st0" x1="377.95" x2="566.93" y2="566.93"/>
    <line class="st0" x1="566.93" x2="1133.86" y2="188.98"/>
    <line class="st0" x1="566.93" y1="377.95" x2="1133.86" y2="566.93"/>
    <line class="st0" x1="1133.86" x2="566.93" y2="188.98"/>
    <line class="st0" x1="1133.86" y1="377.95" x2="566.93" y2="566.93"/>
    <line class="st0" x1="566.93" y1="566.93" x2="755.91" y2="0"/>
    <line class="st0" x1="944.88" y1="566.93" x2="1133.86" y2="0"/>
    <line class="st0" x1="566.93" x2="755.91" y2="566.93"/>
    <line class="st0" x1="944.88" x2="1133.86" y2="566.93"/>
    <line class="st0" y1="566.93" x2="566.93" y2="755.9"/>
    <line class="st0" y1="944.88" x2="566.93" y2="1133.86"/>
    <line class="st0" x1="566.93" y1="566.93" x2="0" y2="755.9"/>
    <line class="st0" x1="566.93" y1="944.88" x2="0" y2="1133.86"/>
    <line class="st0" y1="1133.86" x2="188.98" y2="566.93"/>
    <line class="st0" x1="377.95" y1="1133.86" x2="566.93" y2="566.93"/>
    <line class="st0" y1="566.93" x2="188.98" y2="1133.86"/>
    <line class="st0" x1="377.95" y1="566.93" x2="566.93" y2="1133.86"/>
    <line class="st0" x1="566.93" y1="566.93" x2="1133.86" y2="755.9"/>
    <line class="st0" x1="566.93" y1="944.88" x2="1133.86" y2="1133.86"/>
    <line class="st0" x1="1133.86" y1="566.93" x2="566.93" y2="755.9"/>
    <line class="st0" x1="1133.86" y1="944.88" x2="566.93" y2="1133.86"/>
    <line class="st0" x1="566.93" y1="1133.86" x2="755.91" y2="566.93"/>
    <line class="st0" x1="944.88" y1="1133.86" x2="1133.86" y2="566.93"/>
    <line class="st0" x1="566.93" y1="566.93" x2="755.91" y2="1133.86"/>
    <line class="st0" x1="944.88" y1="566.93" x2="1133.86" y2="1133.86"/>
  </g>
  <g id="_x31_01" class="st2">
    <line class="st0" x1="377.95" y1="377.95" x2="188.98"/>
    <line class="st0" x1="377.95" y1="566.93" x2="188.98" y2="188.98"/>
    <line class="st0" x1="188.98" y1="377.95" x2="377.95"/>
    <line class="st0" x1="188.98" y1="566.93" x2="377.95" y2="188.98"/>
    <line class="st0" x1="377.95" y1="188.98" y2="377.95"/>
    <line class="st0" x1="566.93" y1="188.98" x2="188.98" y2="377.95"/>
    <line class="st0" x1="377.95" y1="377.95" y2="188.98"/>
    <line class="st0" x1="566.93" y1="377.95" x2="188.98" y2="188.98"/>
    <line class="st0" x1="944.88" y1="377.95" x2="755.91"/>
    <line class="st0" x1="944.88" y1="566.93" x2="755.91" y2="188.98"/>
    <line class="st0" x1="755.91" y1="377.95" x2="944.88"/>
    <line class="st0" x1="755.91" y1="566.93" x2="944.88" y2="188.98"/>
    <line class="st0" x1="944.88" y1="188.98" x2="566.93" y2="377.95"/>
    <line class="st0" x1="1133.86" y1="188.98" x2="755.91" y2="377.95"/>
    <line class="st0" x1="944.88" y1="377.95" x2="566.93" y2="188.98"/>
    <line class="st0" x1="1133.86" y1="377.95" x2="755.91" y2="188.98"/>
    <line class="st0" x1="377.95" y1="944.88" x2="188.98" y2="566.93"/>
    <line class="st0" x1="377.95" y1="1133.86" x2="188.98" y2="755.91"/>
    <line class="st0" x1="188.98" y1="944.88" x2="377.95" y2="566.93"/>
    <line class="st0" x1="188.98" y1="1133.86" x2="377.95" y2="755.91"/>
    <line class="st0" x1="377.95" y1="755.91" y2="944.88"/>
    <line class="st0" x1="566.93" y1="755.91" x2="188.98" y2="944.88"/>
    <line class="st0" x1="377.95" y1="944.88" y2="755.91"/>
    <line class="st0" x1="566.93" y1="944.88" x2="188.98" y2="755.91"/>
    <line class="st0" x1="944.88" y1="944.88" x2="755.91" y2="566.93"/>
    <line class="st0" x1="944.88" y1="1133.86" x2="755.91" y2="755.91"/>
    <line class="st0" x1="755.91" y1="944.88" x2="944.88" y2="566.93"/>
    <line class="st0" x1="755.91" y1="1133.86" x2="944.88" y2="755.91"/>
    <line class="st0" x1="944.88" y1="755.91" x2="566.93" y2="944.88"/>
    <line class="st0" x1="1133.86" y1="755.91" x2="755.91" y2="944.88"/>
    <line class="st0" x1="944.88" y1="944.88" x2="566.93" y2="755.91"/>
    <line class="st0" x1="1133.86" y1="944.88" x2="755.91" y2="755.91"/>
  </g>
  <g id="_x31_02">
    <line class="st0" x2="566.93" y2="377.95"/>
    <line class="st0" y1="188.98" x2="566.93" y2="566.93"/>
    <line class="st0" x1="566.93" x2="0" y2="377.95"/>
    <line class="st0" x1="566.93" y1="188.98" x2="0" y2="566.93"/>
    <line class="st0" y1="566.93" x2="377.95" y2="0"/>
    <line class="st0" x1="188.98" y1="566.93" x2="566.93" y2="0"/>
    <line class="st0" x2="377.95" y2="566.93"/>
    <line class="st0" x1="188.98" x2="566.93" y2="566.93"/>
    <line class="st0" x1="566.93" x2="1133.86" y2="377.95"/>
    <line class="st0" x1="566.93" y1="188.98" x2="1133.86" y2="566.93"/>
    <line class="st0" x1="1133.86" x2="566.93" y2="377.95"/>
    <line class="st0" x1="1133.86" y1="188.98" x2="566.93" y2="566.93"/>
    <line class="st0" x1="566.93" y1="566.93" x2="944.88" y2="0"/>
    <line class="st0" x1="755.91" y1="566.93" x2="1133.86" y2="0"/>
    <line class="st0" x1="566.93" x2="944.88" y2="566.93"/>
    <line class="st0" x1="755.91" x2="1133.86" y2="566.93"/>
    <line class="st0" y1="566.93" x2="566.93" y2="944.88"/>
    <line class="st0" y1="755.91" x2="566.93" y2="1133.86"/>
    <line class="st0" x1="566.93" y1="566.93" x2="0" y2="944.88"/>
    <line class="st0" x1="566.93" y1="755.91" x2="0" y2="1133.86"/>
    <line class="st0" y1="1133.86" x2="377.95" y2="566.93"/>
    <line class="st0" x1="188.98" y1="1133.86" x2="566.93" y2="566.93"/>
    <line class="st0" y1="566.93" x2="377.95" y2="1133.86"/>
    <line class="st0" x1="188.98" y1="566.93" x2="566.93" y2="1133.86"/>
    <line class="st0" x1="566.93" y1="566.93" x2="1133.86" y2="944.88"/>
    <line class="st0" x1="566.93" y1="755.91" x2="1133.86" y2="1133.86"/>
    <line class="st0" x1="1133.86" y1="566.93" x2="566.93" y2="944.88"/>
    <line class="st0" x1="1133.86" y1="755.91" x2="566.93" y2="1133.86"/>
    <line class="st0" x1="566.93" y1="1133.86" x2="944.88" y2="566.93"/>
    <line class="st0" x1="755.91" y1="1133.86" x2="1133.86" y2="566.93"/>
    <line class="st0" x1="566.93" y1="566.93" x2="944.88" y2="1133.86"/>
    <line class="st0" x1="755.91" y1="566.93" x2="1133.86" y2="1133.86"/>
  </g>
  <g id="Rahmen">
    <line class="st0" x2="1133.86"/>
    <line class="st0" y1="1133.86" x2="1133.86" y2="1133.86"/>
    <line class="st0" y1="1133.86"/>
    <line class="st0" x1="1133.86" y1="1133.86" x2="1133.86"/>
  </g>
</svg>