<?xml version="1.0" encoding="UTF-8"?>
<svg id="Ebene_2" xmlns="http://www.w3.org/2000/svg" version="1.1" viewBox="0 0 311.81 155.91">
  <!-- Generator: Adobe Illustrator 29.1.0, SVG Export Plug-In . SVG Version: 2.1.0 Build 142)  -->
  <defs>
    <style>
      .st0, .st1, .st2, .st3 {
        fill: none;
      }

      .st0, .st2, .st3 {
        stroke: #1d1d1b;
      }

      .st1 {
        stroke: #1e1e1c;
      }

      .st1, .st2, .st3 {
        stroke-linecap: round;
        stroke-linejoin: round;
      }

      .st1, .st3 {
        stroke-width: 1.2px;
      }

      .st4, .st5 {
        isolation: isolate;
      }

      .st2 {
        stroke-dasharray: 2;
        stroke-width: .6px;
      }

      .st5 {
        fill: #1d1d1b;
        font-family: Helvetica, Helvetica;
        font-size: 8px;
      }
    </style>
  </defs>
  <g class="st4">
    <text class="st5" transform="translate(153.68 147.48)"><tspan x="0" y="0">3</tspan></text>
  </g>
  <g class="st4">
    <text class="st5" transform="translate(40.3 147.48)"><tspan x="0" y="0">2</tspan></text>
  </g>
  <g class="st4">
    <text class="st5" transform="translate(40.3 76.62)"><tspan x="0" y="0">1</tspan></text>
  </g>
  <g>
    <line class="st1" x1="212.09" y1="123.93" x2="212.09" y2="124.28"/>
    <line class="st1" x1="212.09" y1="14.61" x2="212.09" y2="16.82"/>
    <line class="st1" x1="212.09" y1="14.35" x2="212.09" y2="14.61"/>
    <line class="st1" x1="212.09" y1="90.05" x2="212.09" y2="92.25"/>
    <line class="st1" x1="212.09" y1="92.52" x2="212.09" y2="92.87"/>
    <line class="st1" x1="212.09" y1="92.25" x2="212.09" y2="92.52"/>
    <line class="st1" x1="212.09" y1="45.41" x2="212.09" y2="45.76"/>
    <line class="st1" x1="212.09" y1="93.14" x2="212.09" y2="95.34"/>
    <line class="st1" x1="212.09" y1="61.11" x2="212.09" y2="61.46"/>
    <line class="st1" x1="212.09" y1="92.87" x2="212.09" y2="93.14"/>
    <polygon class="st1" points="138.93 23.99 140.07 29.88 144.6 33.8 149.13 29.88 150.27 23.99 149.13 29.88 167.27 14.17 144.6 22.03 150.27 23.99 144.6 22.03 138.93 23.99 144.6 22.03 121.93 14.17 140.07 29.88 138.93 23.99"/>
    <polygon class="st1" points="99.21 84.83 99.21 84.86 99.27 84.84 99.21 84.83"/>
    <polygon class="st1" points="99.27 22.03 99.21 22.01 99.21 22.04 99.27 22.03"/>
    <polygon class="st1" points="121.93 33.8 121.93 33.8 121.93 33.8 121.93 33.8 121.93 33.8 126.47 37.73 121.93 14.17 117.4 37.73 121.93 33.8"/>
    <polygon class="st1" points="144.6 53.43 140.07 29.88 121.93 14.17 126.47 37.73 144.6 53.43"/>
    <polygon class="st1" points="99.27 53.43 117.4 37.73 121.93 14.17 103.8 29.88 99.27 53.43"/>
    <polygon class="st1" points="121.93 14.17 99.21 14.17 99.21 22.01 99.27 22.03 121.93 14.17"/>
    <polygon class="st1" points="104.93 23.99 99.27 22.03 99.21 22.04 99.21 33.76 99.27 33.8 103.8 29.88 104.93 23.99 103.8 29.88 121.93 14.17 99.27 22.03 104.93 23.99"/>
    <polygon class="st1" points="212.09 72.62 208.07 69.14 212.09 90.05 212.09 72.62"/>
    <polygon class="st1" points="167.26 112.33 167.26 112.33 167.26 112.33 167.27 112.33 167.26 112.33 171.8 116.25 167.27 92.7 162.73 116.25 167.26 112.33"/>
    <polygon class="st1" points="99.21 53.16 99.21 53.39 99.27 53.43 99.21 53.16"/>
    <polygon class="st1" points="104.93 82.88 103.8 76.99 99.27 73.07 99.21 73.11 99.21 84.83 99.27 84.84 104.93 82.88"/>
    <polygon class="st1" points="212.09 112.77 212.09 95.34 208.07 116.25 212.09 112.77"/>
    <polygon class="st1" points="206.93 43.62 206.93 43.62 206.93 43.62 206.93 43.62 206.93 43.62 208.07 37.73 189.93 53.43 212.09 45.76 212.09 45.41 206.93 43.62"/>
    <polygon class="st1" points="121.93 112.33 121.93 112.33 121.93 112.33 121.93 112.33 121.93 112.33 126.47 116.25 121.93 92.7 117.4 116.25 121.93 112.33"/>
    <polygon class="st1" points="208.07 69.14 206.93 63.25 208.07 69.14 212.09 72.62 212.09 61.46 206.93 63.25 212.09 61.46 212.09 61.11 189.93 53.43 208.07 69.14"/>
    <polygon class="st1" points="167.27 45.58 144.6 53.43 121.93 45.58 99.27 53.43 99.21 53.39 99.21 53.48 99.27 53.43 121.93 61.29 144.6 53.43 167.27 61.29 189.93 53.43 212.09 61.11 212.09 45.76 189.93 53.43 167.27 45.58"/>
    <polygon class="st1" points="167.27 33.8 167.26 33.8 167.27 33.8 167.27 33.8 167.27 33.8 171.8 37.73 167.27 14.17 162.73 37.73 167.27 33.8"/>
    <polygon class="st1" points="126.47 37.73 121.93 33.8 117.4 37.73 116.27 43.62 121.93 45.58 127.6 43.62 126.47 37.73"/>
    <polygon class="st1" points="116.27 43.62 116.27 43.62 116.26 43.62 116.27 43.62 117.4 37.73 99.27 53.43 121.93 45.58 116.27 43.62 116.27 43.62"/>
    <polygon class="st1" points="167.27 14.17 121.93 14.17 144.6 22.03 167.27 14.17"/>
    <polygon class="st1" points="144.6 33.8 144.6 33.8 144.6 33.8 144.6 33.8 144.6 33.8 140.07 29.88 144.6 53.43 149.13 29.88 144.6 33.8"/>
    <polygon class="st1" points="206.93 43.62 212.09 45.41 212.09 34.25 208.07 37.73 206.93 43.62"/>
    <polygon class="st1" points="99.27 33.8 99.27 33.8 99.27 33.8 99.26 33.8 99.27 33.8 99.21 33.76 99.21 53.16 99.27 53.43 103.8 29.88 99.27 33.8"/>
    <polygon class="st1" points="99.21 131.96 99.27 131.96 99.21 131.91 99.21 131.96"/>
    <polygon class="st1" points="212.09 131.96 212.09 124.28 189.93 131.96 212.09 131.96"/>
    <polygon class="st1" points="161.6 43.62 161.6 43.62 161.6 43.62 161.6 43.62 162.73 37.73 144.6 53.43 167.27 45.58 161.6 43.62 161.6 43.62"/>
    <polygon class="st1" points="127.6 43.62 127.6 43.62 127.6 43.62 127.6 43.62 127.6 43.62 121.93 45.58 144.6 53.43 126.47 37.73 127.6 43.62"/>
    <polygon class="st1" points="184.27 23.99 185.4 29.88 189.93 33.8 194.47 29.88 195.6 23.99 194.47 29.88 212.09 14.61 212.09 14.35 189.93 22.03 195.6 23.99 189.93 22.03 184.26 23.99 189.93 22.03 167.27 14.17 185.4 29.88 184.27 23.99"/>
    <polygon class="st1" points="99.21 100.53 99.21 100.57 99.27 100.55 99.21 100.53"/>
    <polygon class="st1" points="189.93 53.43 185.4 29.88 167.27 14.17 171.8 37.73 189.93 53.43"/>
    <polygon class="st1" points="144.6 53.43 162.73 37.73 167.27 14.17 149.13 29.88 144.6 53.43"/>
    <polygon class="st1" points="172.93 43.62 172.93 43.62 172.93 43.62 172.93 43.62 172.93 43.62 167.27 45.58 189.93 53.43 171.8 37.73 172.93 43.62"/>
    <polygon class="st1" points="189.93 33.8 189.93 33.8 189.93 33.8 189.93 33.8 189.93 33.8 185.4 29.88 189.93 53.43 194.47 29.88 189.93 33.8"/>
    <polygon class="st1" points="171.8 37.73 167.27 33.8 162.73 37.73 161.6 43.62 167.27 45.58 172.93 43.62 171.8 37.73"/>
    <polygon class="st1" points="208.07 37.73 212.09 34.25 212.09 16.82 208.07 37.73"/>
    <polygon class="st1" points="212.09 14.35 212.09 14.17 167.27 14.17 189.93 22.03 212.09 14.35"/>
    <polygon class="st1" points="212.09 14.61 194.47 29.88 189.93 53.43 208.07 37.73 212.09 16.82 212.09 14.61"/>
    <polygon class="st1" points="99.21 131.91 99.27 131.96 99.21 131.68 99.21 131.91"/>
    <polygon class="st1" points="99.27 53.43 99.21 53.48 99.21 53.71 99.27 53.43"/>
    <polygon class="st1" points="99.27 100.55 99.21 100.57 99.21 112.28 99.27 112.33 103.8 108.4 104.93 102.51 99.27 100.55"/>
    <polygon class="st1" points="99.21 73.11 99.27 73.07 99.26 73.07 99.27 73.07 99.27 73.07 99.27 73.07 103.8 76.99 99.27 53.43 99.21 53.71 99.21 73.11"/>
    <polygon class="st1" points="99.27 112.33 99.27 112.33 99.27 112.33 99.26 112.33 99.27 112.33 99.21 112.28 99.21 131.68 99.27 131.96 103.8 108.4 99.27 112.33"/>
    <polygon class="st1" points="161.6 63.25 162.73 69.14 167.27 73.06 171.8 69.14 172.93 63.25 171.8 69.14 189.93 53.43 167.27 61.29 172.93 63.25 167.27 61.29 161.6 63.25 167.27 61.29 144.6 53.43 162.73 69.14 161.6 63.25"/>
    <polygon class="st1" points="167.27 92.7 162.73 69.14 144.6 53.43 149.13 76.99 167.27 92.7"/>
    <polygon class="st1" points="144.6 73.07 144.6 73.07 144.6 73.07 144.6 73.07 144.6 73.07 149.13 76.99 144.6 53.43 140.07 76.99 144.6 73.07"/>
    <polygon class="st1" points="116.27 63.25 117.4 69.14 121.93 73.06 126.47 69.14 127.6 63.25 126.47 69.14 144.6 53.43 121.93 61.29 127.6 63.25 121.93 61.29 116.26 63.25 121.93 61.29 99.27 53.43 117.4 69.14 116.27 63.25"/>
    <polygon class="st1" points="121.93 92.7 117.4 69.14 99.27 53.43 103.8 76.99 121.93 92.7"/>
    <polygon class="st1" points="121.93 92.7 140.07 76.99 144.6 53.43 126.47 69.14 121.93 92.7"/>
    <polygon class="st1" points="121.93 92.7 103.8 108.4 99.27 131.96 117.4 116.25 121.93 92.7"/>
    <polygon class="st1" points="167.27 92.7 171.8 116.25 189.93 131.96 185.4 108.4 167.27 92.7"/>
    <polygon class="st1" points="189.93 112.33 189.93 112.33 189.93 112.33 189.93 112.33 189.93 112.33 185.4 108.4 189.93 131.96 194.47 108.4 189.93 112.33"/>
    <polygon class="st1" points="206.93 122.14 212.09 123.93 212.09 112.77 208.07 116.25 206.93 122.14 208.07 116.25 189.93 131.96 212.09 124.28 212.09 123.93 206.93 122.14"/>
    <polygon class="st1" points="212.09 95.34 212.09 93.14 194.47 108.4 189.93 131.96 208.07 116.25 212.09 95.34"/>
    <polygon class="st1" points="172.93 122.14 171.8 116.25 167.26 112.33 162.73 116.25 161.6 122.14 162.73 116.25 144.6 131.96 167.27 124.1 161.6 122.14 167.27 124.1 172.93 122.14 167.27 124.1 189.93 131.96 171.8 116.25 172.93 122.14"/>
    <polygon class="st1" points="127.6 122.14 126.47 116.25 121.93 112.33 117.4 116.25 116.27 122.14 117.4 116.25 99.27 131.96 121.93 124.1 116.26 122.14 121.93 124.1 127.6 122.14 121.93 124.1 144.6 131.96 126.47 116.25 127.6 122.14"/>
    <polygon class="st1" points="121.93 92.7 126.47 116.25 144.6 131.96 140.07 108.4 121.93 92.7"/>
    <polygon class="st1" points="144.6 131.96 189.93 131.96 167.27 124.1 144.6 131.96"/>
    <polygon class="st1" points="144.6 112.33 144.6 112.33 144.6 112.33 144.6 112.33 144.6 112.33 140.07 108.4 144.6 131.96 149.13 108.4 144.6 112.33"/>
    <polygon class="st1" points="167.27 92.7 149.13 108.4 144.6 131.96 162.73 116.25 167.27 92.7"/>
    <polygon class="st1" points="99.27 131.96 144.6 131.96 121.93 124.1 99.27 131.96"/>
    <polygon class="st1" points="138.93 102.51 138.93 102.51 138.93 102.51 138.93 102.51 144.6 100.55 121.93 92.7 140.07 108.4 138.93 102.51 138.93 102.51"/>
    <polygon class="st1" points="144.6 100.55 138.93 102.51 140.07 108.4 144.6 112.33 149.13 108.4 150.27 102.51 144.6 100.55"/>
    <polygon class="st1" points="150.27 102.51 150.27 102.51 150.27 102.51 150.27 102.51 150.27 102.51 149.13 108.4 167.27 92.7 144.6 100.55 150.27 102.51"/>
    <polygon class="st1" points="121.93 92.7 144.6 100.55 167.27 92.7 144.6 84.84 121.93 92.7"/>
    <polygon class="st1" points="138.93 82.88 138.93 82.88 138.93 82.88 138.93 82.88 138.93 82.88 140.07 76.99 121.93 92.7 144.6 84.84 138.93 82.88"/>
    <polygon class="st1" points="99.21 84.86 99.21 100.53 99.27 100.55 121.93 92.7 99.27 84.84 99.21 84.86"/>
    <polygon class="st1" points="104.93 102.51 104.93 102.51 104.93 102.51 104.93 102.51 104.93 102.51 103.8 108.4 121.93 92.7 99.27 100.55 104.93 102.51"/>
    <polygon class="st1" points="167.27 92.7 185.4 76.99 189.93 53.43 171.8 69.14 167.27 92.7"/>
    <polygon class="st1" points="150.27 82.88 150.27 82.88 150.27 82.88 150.27 82.88 150.27 82.88 144.6 84.84 167.27 92.7 149.13 76.99 150.27 82.88"/>
    <polygon class="st1" points="121.93 73.06 121.93 73.06 121.93 73.06 121.93 73.06 121.93 73.06 117.4 69.14 121.93 92.7 126.47 69.14 121.93 73.06"/>
    <polygon class="st1" points="104.93 82.88 104.93 82.88 104.93 82.88 104.93 82.88 104.93 82.88 99.27 84.84 121.93 92.7 103.8 76.99 104.93 82.88"/>
    <polygon class="st1" points="144.6 84.84 150.27 82.88 149.13 76.99 144.6 73.07 140.07 76.99 138.93 82.88 144.6 84.84"/>
    <polygon class="st1" points="167.27 92.7 189.93 100.55 212.09 92.87 212.09 92.52 189.93 84.84 167.27 92.7"/>
    <polygon class="st1" points="195.6 82.88 195.6 82.88 195.6 82.88 195.6 82.88 195.6 82.88 189.93 84.84 212.09 92.52 212.09 92.25 194.47 76.99 195.6 82.88"/>
    <polygon class="st1" points="195.6 102.51 195.6 102.51 195.6 102.51 195.6 102.51 195.6 102.51 194.47 108.4 212.09 93.14 212.09 92.87 189.93 100.55 195.6 102.51"/>
    <polygon class="st1" points="212.09 92.25 212.09 90.05 208.07 69.14 189.93 53.43 194.47 76.99 212.09 92.25"/>
    <polygon class="st1" points="189.93 73.07 189.93 73.07 189.93 73.07 189.93 73.07 189.93 73.07 194.47 76.99 189.93 53.43 185.4 76.99 189.93 73.07"/>
    <polygon class="st1" points="184.26 102.51 184.27 102.51 184.27 102.51 184.27 102.51 189.93 100.55 167.27 92.7 185.4 108.4 184.27 102.51 184.26 102.51"/>
    <polygon class="st1" points="189.93 84.84 195.6 82.88 194.47 76.99 189.93 73.07 185.4 76.99 184.27 82.88 189.93 84.84"/>
    <polygon class="st1" points="184.27 82.88 184.27 82.88 184.27 82.88 184.26 82.88 184.27 82.88 185.4 76.99 167.27 92.7 189.93 84.84 184.27 82.88"/>
    <polygon class="st1" points="167.27 73.06 167.27 73.06 167.27 73.06 167.26 73.06 167.27 73.06 162.73 69.14 167.27 92.7 171.8 69.14 167.27 73.06"/>
    <polygon class="st1" points="189.93 100.55 184.27 102.51 185.4 108.4 189.93 112.33 194.47 108.4 195.6 102.51 189.93 100.55"/>
  </g>
  <g>
    <polyline class="st3" points="14.17 63.14 28.35 63.14 42.52 63.14 56.69 63.14 70.87 63.14"/>
    <line class="st2" x1="14.17" y1="63.14" x2="56.69" y2="38.4"/>
    <line class="st2" x1="70.87" y1="63.14" x2="28.35" y2="38.4"/>
    <line class="st2" x1="42.52" y1="14.37" x2="42.52" y2="63.14"/>
    <polyline class="st3" points="42.52 14.17 49.61 26.41 56.69 38.65 63.78 50.89 70.87 63.14"/>
    <polyline class="st3" points="42.52 14.17 35.43 26.41 28.35 38.65 21.26 50.89 14.17 63.14 42.52 38.4"/>
  </g>
  <polyline class="st3" points="42.52 83.19 35.43 95.43 28.35 107.67 21.26 119.91 14.17 132.15 42.52 107.42 70.87 132.15 63.78 119.91 56.69 107.67 49.61 95.43 42.52 83.19"/>
  <polyline class="st3" points="14.29 132.22 28.43 132.24 42.58 132.25 56.72 132.27 70.87 132.29 35.27 120.11 42.52 83.19 35.46 95.45 28.41 107.71 21.35 119.96 14.29 132.22"/>
  <polyline class="st3" points="70.87 132.08 63.81 119.83 56.75 107.57 49.69 95.31 42.64 83.06 49.88 119.97 14.29 132.15 28.43 132.14 42.58 132.12 56.72 132.1 70.87 132.08"/>
  <path class="st0" d="M65.2,189.78"/>
  <path class="st0" d="M65.2,189.78"/>
</svg>